<svg width="2850" height="586" xmlns="http://www.w3.org/2000/svg" xmlns:xlink="http://www.w3.org/1999/xlink" xml:space="preserve" overflow="hidden"><defs><clipPath id="clip0"><path d="M2688.49 826.555C2678.53 826.555 2670.5 834.578 2670.5 844.541L2670.5 1065.94C2670.5 1075.9 2678.53 1083.92 2688.49 1083.92L2905.84 1083.92C2915.8 1083.92 2923.83 1075.9 2923.83 1065.94L2923.83 844.541C2923.83 834.578 2915.8 826.555 2905.84 826.555Z"/></clipPath><linearGradient x1="2797.17" y1="828.578" x2="2797.17" y2="1081.9" gradientUnits="userSpaceOnUse" spreadMethod="pad" id="stroke1"><stop offset="0" stop-color="#E8E8E8"/><stop offset="0.165222" stop-color="#E9E9E9" stop-opacity="0"/><stop offset="1" stop-color="#E9E9E9" stop-opacity="0"/></linearGradient><linearGradient x1="2796.99" y1="861.668" x2="2796.99" y2="1096.6" gradientUnits="userSpaceOnUse" spreadMethod="pad" id="stroke2"><stop offset="0" stop-color="#494949"/><stop offset="1" stop-color="#FFFFFF"/></linearGradient><clipPath id="clip3"><path d="M2688.49 1012.53C2678.53 1012.53 2670.5 1020.52 2670.5 1030.44L2670.5 1189.85C2670.5 1199.77 2678.53 1207.76 2688.49 1207.76L2905.84 1207.76C2915.8 1207.76 2923.83 1199.77 2923.83 1189.85L2923.83 1030.44C2923.83 1020.52 2915.8 1012.53 2905.84 1012.53Z"/></clipPath><linearGradient x1="134.6" y1="8.5428" x2="134.6" y2="260.805" gradientUnits="userSpaceOnUse" spreadMethod="pad" id="stroke4"><stop offset="0" stop-color="#E8E8E8"/><stop offset="0.165222" stop-color="#E9E9E9" stop-opacity="0"/><stop offset="1" stop-color="#E9E9E9" stop-opacity="0"/></linearGradient><linearGradient x1="134.425" y1="41.4943" x2="134.425" y2="275.444" gradientUnits="userSpaceOnUse" spreadMethod="pad" id="stroke5"><stop offset="0" stop-color="#491616"/><stop offset="1" stop-color="#EEEEEE"/></linearGradient><clipPath id="clip6"><rect x="925" y="874" width="519" height="289"/></clipPath><clipPath id="clip7"><rect x="925" y="874" width="519" height="289"/></clipPath><clipPath id="clip8"><rect x="925" y="874" width="519" height="289"/></clipPath><radialGradient cx="270.08" cy="197.85" r="143.18" gradientUnits="userSpaceOnUse" spreadMethod="pad" id="fill9" gradientTransform="matrix(1.64144 -0.0316847 0.0258401 1.33863 -238.139 21.5175)"><stop offset="0" stop-color="#C74615"/><stop offset="1" stop-color="#6E260B"/></radialGradient><linearGradient x1="-51.1035" y1="135.933" x2="288.35" y2="135.933" gradientUnits="userSpaceOnUse" spreadMethod="pad" id="fill10"><stop offset="0" stop-color="#3B1E05"/><stop offset="1" stop-color="#3B1E05" stop-opacity="0"/></linearGradient><linearGradient x1="120.867" y1="224.009" x2="154.142" y2="79.4316" gradientUnits="userSpaceOnUse" spreadMethod="pad" id="fill11"><stop offset="0" stop-color="#DC0000"/><stop offset="1" stop-color="#FFB200"/></linearGradient><linearGradient x1="17.3231" y1="36.7034" x2="187.059" y2="240.122" gradientUnits="userSpaceOnUse" spreadMethod="pad" id="fill12"><stop offset="0" stop-color="#FFFFFF"/><stop offset="1" stop-color="#FFFFFF" stop-opacity="0"/></linearGradient><linearGradient x1="139.547" y1="217.639" x2="126.914" y2="142.984" gradientUnits="userSpaceOnUse" spreadMethod="pad" id="fill13"><stop offset="0" stop-color="#DC0000"/><stop offset="1" stop-color="#FFB200"/></linearGradient><linearGradient x1="191.28" y1="89.5672" x2="205.162" y2="89.5672" gradientUnits="userSpaceOnUse" spreadMethod="pad" id="fill14"><stop offset="0" stop-color="#FFFFFF" stop-opacity="0.44928"/><stop offset="1" stop-color="#FFFFFF" stop-opacity="0"/></linearGradient><linearGradient x1="185.283" y1="219.892" x2="221.983" y2="144.732" gradientUnits="userSpaceOnUse" spreadMethod="pad" id="fill15"><stop offset="0" stop-color="#DC0000"/><stop offset="1" stop-color="#FFB200"/></linearGradient><linearGradient x1="284.048" y1="137.469" x2="185.613" y2="223.139" gradientUnits="userSpaceOnUse" spreadMethod="pad" id="fill16"><stop offset="0" stop-color="#FFFFFF"/><stop offset="1" stop-color="#FFFFFF" stop-opacity="0"/></linearGradient><linearGradient x1="216.356" y1="159.202" x2="231.995" y2="159.202" gradientUnits="userSpaceOnUse" spreadMethod="pad" id="fill17"><stop offset="0" stop-color="#FFFFFF" stop-opacity="0.44928"/><stop offset="1" stop-color="#FFFFFF" stop-opacity="0"/></linearGradient><linearGradient x1="151.167" y1="251.862" x2="166.306" y2="139.716" gradientUnits="userSpaceOnUse" spreadMethod="pad" id="fill18"><stop offset="0" stop-color="#DC0000"/><stop offset="1" stop-color="#FFB200"/></linearGradient><linearGradient x1="128.012" y1="53.9723" x2="142.961" y2="53.9723" gradientUnits="userSpaceOnUse" spreadMethod="pad" id="fill19"><stop offset="0" stop-color="#FFFFFF" stop-opacity="0.44928"/><stop offset="1" stop-color="#FFFFFF" stop-opacity="0"/></linearGradient><linearGradient x1="106.561" y1="51.6193" x2="172.498" y2="205.924" gradientUnits="userSpaceOnUse" spreadMethod="pad" id="fill20"><stop offset="0" stop-color="#FFFFFF"/><stop offset="1" stop-color="#FFFFFF" stop-opacity="0"/></linearGradient><linearGradient x1="62.3395" y1="91.3871" x2="114.514" y2="239.685" gradientUnits="userSpaceOnUse" spreadMethod="pad" id="fill21"><stop offset="0" stop-color="#FFFFFF"/><stop offset="1" stop-color="#FFFFFF" stop-opacity="0"/></linearGradient><linearGradient x1="98.725" y1="182.973" x2="125.905" y2="64.8806" gradientUnits="userSpaceOnUse" spreadMethod="pad" id="fill22"><stop offset="0" stop-color="#DC0000"/><stop offset="1" stop-color="#FFB200"/></linearGradient><linearGradient x1="14.1497" y1="29.9797" x2="152.792" y2="196.134" gradientUnits="userSpaceOnUse" spreadMethod="pad" id="fill23"><stop offset="0" stop-color="#FFFFFF"/><stop offset="1" stop-color="#FFFFFF" stop-opacity="0"/></linearGradient><linearGradient x1="113.984" y1="177.769" x2="103.665" y2="116.791" gradientUnits="userSpaceOnUse" spreadMethod="pad" id="fill24"><stop offset="0" stop-color="#DC0000"/><stop offset="1" stop-color="#FFB200"/></linearGradient><linearGradient x1="156.24" y1="73.1594" x2="167.578" y2="73.1594" gradientUnits="userSpaceOnUse" spreadMethod="pad" id="fill25"><stop offset="0" stop-color="#FFFFFF" stop-opacity="0.44928"/><stop offset="1" stop-color="#FFFFFF" stop-opacity="0"/></linearGradient><linearGradient x1="151.341" y1="179.61" x2="181.318" y2="118.219" gradientUnits="userSpaceOnUse" spreadMethod="pad" id="fill26"><stop offset="0" stop-color="#DC0000"/><stop offset="1" stop-color="#FFB200"/></linearGradient><linearGradient x1="232.013" y1="112.286" x2="151.61" y2="182.262" gradientUnits="userSpaceOnUse" spreadMethod="pad" id="fill27"><stop offset="0" stop-color="#FFFFFF"/><stop offset="1" stop-color="#FFFFFF" stop-opacity="0"/></linearGradient><linearGradient x1="176.722" y1="130.038" x2="189.496" y2="130.038" gradientUnits="userSpaceOnUse" spreadMethod="pad" id="fill28"><stop offset="0" stop-color="#FFFFFF" stop-opacity="0.44928"/><stop offset="1" stop-color="#FFFFFF" stop-opacity="0"/></linearGradient><linearGradient x1="123.474" y1="205.723" x2="135.84" y2="114.122" gradientUnits="userSpaceOnUse" spreadMethod="pad" id="fill29"><stop offset="0" stop-color="#DC0000"/><stop offset="1" stop-color="#FFB200"/></linearGradient><linearGradient x1="104.561" y1="44.0851" x2="116.772" y2="44.0851" gradientUnits="userSpaceOnUse" spreadMethod="pad" id="fill30"><stop offset="0" stop-color="#FFFFFF" stop-opacity="0.44928"/><stop offset="1" stop-color="#FFFFFF" stop-opacity="0"/></linearGradient><linearGradient x1="87.0403" y1="42.1631" x2="140.898" y2="168.2" gradientUnits="userSpaceOnUse" spreadMethod="pad" id="fill31"><stop offset="0" stop-color="#FFFFFF"/><stop offset="1" stop-color="#FFFFFF" stop-opacity="0"/></linearGradient><linearGradient x1="50.9195" y1="74.6459" x2="93.5364" y2="195.777" gradientUnits="userSpaceOnUse" spreadMethod="pad" id="fill32"><stop offset="0" stop-color="#FFFFFF"/><stop offset="1" stop-color="#FFFFFF" stop-opacity="0"/></linearGradient></defs><g transform="translate(-106 -696)"><g><g><g><path d="M2905.84 826.557C2915.77 826.557 2923.83 834.609 2923.83 844.542L2923.83 961.656C2923.83 971.589 2915.77 979.641 2905.84 979.641L2688.49 979.641C2678.56 979.641 2670.51 971.589 2670.51 961.656L2670.51 844.542C2670.51 834.609 2678.56 826.557 2688.49 826.557Z" fill="#949494"/><g clip-path="url(#clip0)"><path d="M2688.49 826.555C2678.53 826.555 2670.5 834.578 2670.5 844.541L2670.5 1065.94C2670.5 1075.9 2678.53 1083.92 2688.49 1083.92L2905.84 1083.92C2915.8 1083.92 2923.83 1075.9 2923.83 1065.94L2923.83 844.541C2923.83 834.578 2915.8 826.555 2905.84 826.555Z" stroke="url(#stroke1)" stroke-width="8.40626" fill="none"/></g><path d="M2850.81 853.306C2850.81 860.384 2845.07 866.123 2837.99 866.123 2830.91 866.123 2825.18 860.384 2825.18 853.306 2825.18 846.227 2830.91 840.489 2837.99 840.489 2845.07 840.489 2850.81 846.227 2850.81 853.306Z" fill="#363C40"/><path d="M2879.39 853.306C2879.39 860.384 2873.65 866.123 2866.57 866.123 2859.5 866.123 2853.76 860.384 2853.76 853.306 2853.76 846.227 2859.5 840.489 2866.57 840.489 2873.65 840.489 2879.39 846.227 2879.39 853.306Z" fill="#363C40"/><path d="M2907.97 853.306C2907.97 860.384 2902.23 866.123 2895.16 866.123 2888.08 866.123 2882.34 860.384 2882.34 853.306 2882.34 846.227 2888.08 840.489 2895.16 840.489 2902.23 840.489 2907.97 846.227 2907.97 853.306Z" fill="#363C40"/><path d="M2903.78 879.91C2910.82 879.91 2916.52 885.611 2916.52 892.643L2916.52 959.793C2916.52 966.826 2910.82 972.526 2903.78 972.526L2690.01 972.526C2682.98 972.526 2677.28 966.826 2677.28 959.793L2677.28 892.643C2677.28 885.611 2682.98 879.91 2690.01 879.91Z" stroke="url(#stroke2)" stroke-width="4.41328" fill="#120C0C"/></g></g></g><path d="M2337.5 904.042 2337.52 904.042C2343.85 904.042 2348.98 909.172 2348.98 915.5 2348.98 921.828 2343.85 926.958 2337.52 926.958L2337.5 926.958C2331.17 926.958 2326.04 921.828 2326.04 915.5 2326.04 909.172 2331.17 904.042 2337.5 904.042ZM2383.36 904.042 2383.38 904.042C2389.71 904.042 2394.84 909.172 2394.84 915.5 2394.84 921.828 2389.71 926.958 2383.38 926.958L2383.36 926.958C2377.03 926.958 2371.9 921.828 2371.9 915.5 2371.9 909.172 2377.03 904.042 2383.36 904.042ZM2429.21 904.042 2429.24 904.042C2435.56 904.042 2440.69 909.172 2440.69 915.5 2440.69 921.828 2435.56 926.958 2429.24 926.958L2429.21 926.958C2422.88 926.958 2417.75 921.828 2417.75 915.5 2417.75 909.172 2422.88 904.042 2429.21 904.042ZM2475.07 904.042 2475.09 904.042C2481.42 904.042 2486.55 909.172 2486.55 915.5 2486.55 921.828 2481.42 926.958 2475.09 926.958L2475.07 926.958C2468.74 926.958 2463.61 921.828 2463.61 915.5 2463.61 909.172 2468.74 904.042 2475.07 904.042ZM2520.93 904.042 2520.95 904.042C2527.28 904.042 2532.41 909.172 2532.41 915.5 2532.41 921.828 2527.28 926.958 2520.95 926.958L2520.93 926.958C2514.6 926.958 2509.47 921.828 2509.47 915.5 2509.47 909.172 2514.6 904.042 2520.93 904.042ZM2566.78 904.042 2566.8 904.042C2573.13 904.042 2578.26 909.172 2578.26 915.5 2578.26 921.828 2573.13 926.958 2566.8 926.958L2566.78 926.958C2560.45 926.958 2555.32 921.828 2555.32 915.5 2555.32 909.172 2560.45 904.042 2566.78 904.042ZM2581.1 892.583 2626.94 915.5 2581.1 938.417Z" fill="#7F7F7F"/><path d="M2334.5 1055.04 2589.56 1055.04C2595.89 1055.04 2601.02 1060.17 2601.02 1066.5 2601.02 1072.83 2595.89 1077.96 2589.56 1077.96L2334.5 1077.96C2328.17 1077.96 2323.04 1072.83 2323.04 1066.5 2323.04 1060.17 2328.17 1055.04 2334.5 1055.04ZM2578.1 1043.58 2623.94 1066.5 2578.1 1089.42Z" fill="#DA4453"/><g><g><g><path d="M38.7666 19.696 232.599 131.605 232.599 265.896 38.7666 153.987Z" fill-rule="evenodd" transform="matrix(1 0 0 1.00264 222.09 835.921)"/><path d="M232.599 265.896 116.3 333.042-77.533 221.133 38.7666 153.987Z" fill="#F2F2F2" fill-rule="evenodd" transform="matrix(1 0 0 1.00264 222.09 835.921)"/><path d="M-77.533 221.133-77.533 230.086 116.3 341.994 116.3 333.042Z" fill="#E6E6E6" fill-rule="evenodd" transform="matrix(1 0 0 1.00264 222.09 835.921)"/><path d="M116.3 341.994 232.599 274.851 232.599 265.896 116.3 333.042Z" fill="#CCCCCC" fill-rule="evenodd" transform="matrix(1 0 0 1.00264 222.09 835.921)"/><path d="M232.599 131.605 240.353 127.129 46.52 15.2197 38.7666 19.696Z" fill="#E6E6E6" fill-rule="evenodd" transform="matrix(1 0 0 1.00264 222.09 835.921)"/><path d="M38.7666 162.94 217.093 265.896 155.066 301.707-23.2599 198.751 38.7666 162.94Z" fill="#B3B3B3" fill-rule="evenodd" transform="matrix(1 0 0 1.00264 222.09 835.921)"/><path d="M38.7666 243.515 77.533 265.896 46.52 283.803 7.7533 261.421Z" fill="#B3B3B3" fill-rule="evenodd" transform="matrix(1 0 0 1.00264 222.09 835.921)"/><path d="M46.52 33.1251 224.846 136.082 224.846 252.468 46.52 149.511Z" fill="#00A1E5" fill-rule="evenodd" transform="matrix(1 0 0 1.00264 222.09 835.921)"/><path d="M232.599 131.605 240.353 127.129 240.353 270.373 232.599 274.851Z" fill="#CCCCCC" fill-rule="evenodd" transform="matrix(1 0 0 1.00264 222.09 835.921)"/></g></g></g><g><g><g><path d="M369.668 147.855C372.799 152.99 371.797 398.037 367.727 407.681 364.533 415.321 261.079 501.303 255.693 503.558 185.742 503.12 138.586 477.632 130.758 464.168 127.753 447.259 130.32 186.556 133.138 181.108 135.643 176.349 267.967 128.942 272.601 127.815 276.797 126.876 366.099 142.156 369.668 147.855Z" fill="#C7C7C7" transform="matrix(-1.00099 0 0 1 2396.69 702.817)"/><path d="M364.596 152.927 361.339 154.305 358.083 155.745 354.826 157.186 351.507 158.751 348.188 160.317 344.869 161.945 341.55 163.573 338.169 165.264 334.787 166.955 331.405 168.709 327.961 170.462 324.579 172.278 321.135 174.094 317.691 175.91 310.739 179.668 303.725 183.425 296.712 187.183 289.635 191.003 282.496 194.76 275.357 198.517 268.218 202.212 264.648 204.028 261.079 205.844 257.446 207.598 253.877 209.351 252.186 208.976 250.433 208.537 246.926 207.723 243.293 206.846 239.599 206.032 235.841 205.156 232.021 204.279 228.201 203.402 224.256 202.525 220.373 201.649 216.428 200.709 208.475 198.956 200.521 197.202 196.513 196.326 192.568 195.449 188.686 194.635 184.803 193.821 180.983 193.007 177.225 192.192 173.468 191.378 169.836 190.627 166.266 189.875 164.513 189.562 162.759 189.186 161.068 188.873 159.378 188.498 157.687 188.185 156.059 187.871 154.43 187.558 152.865 187.183 151.299 186.932 149.796 186.619 148.293 186.306 146.79 186.055 145.35 185.805 143.972 185.492 142.594 185.241 141.279 185.053 139.964 184.803 138.712 184.552 141.968 185.554 145.225 186.556 148.544 187.558 151.925 188.498 155.37 189.5 158.814 190.439 162.384 191.441 165.89 192.38 169.46 193.382 173.092 194.322 180.357 196.263 187.684 198.142 195.073 200.083 202.463 202.024 209.79 203.903 217.054 205.844 220.686 206.784 224.256 207.786 227.825 208.725 231.332 209.727 234.777 210.666 238.221 211.668 241.603 212.608 244.922 213.61 248.178 214.612 251.435 215.614 251.497 219.371 251.622 223.191 251.685 227.011 251.748 230.957 251.81 234.964 251.936 238.972 251.998 243.043 252.061 247.176 252.123 251.372 252.186 255.568 252.249 259.826 252.249 264.147 252.311 268.468 252.374 272.852 252.437 277.236 252.437 281.682 252.499 286.128 252.499 290.637 252.562 295.146 252.624 299.717 252.687 308.861 252.75 318.066 252.75 327.397 252.812 336.728 252.938 355.453 253 374.24 253.063 383.571 253.125 392.839 253.188 402.045 253.251 411.188 253.313 415.759 253.313 420.268 253.376 424.777 253.439 429.224 253.439 433.67 253.501 438.116 253.564 442.437 253.626 446.821 253.626 451.079 253.689 455.338 253.752 459.533 253.814 463.729 253.877 467.862 253.939 471.933 254.002 476.004 254.127 479.949 254.19 483.894 254.253 487.777 254.378 491.597 254.44 495.354 254.503 491.534 254.566 487.714 254.566 483.769 254.628 479.824 254.691 475.816 254.754 471.745 254.816 467.612 254.879 463.416 254.941 459.22 255.004 454.962 255.067 450.641 255.192 446.32 255.255 441.936 255.317 437.49 255.38 433.044 255.442 428.535 255.505 424.026 255.63 419.454 255.693 414.883 255.756 410.311 255.943 401.043 256.131 391.712 256.257 382.256 256.444 372.799 256.82 353.824 257.133 334.849 257.321 325.393 257.509 316 257.634 306.669 257.822 297.338 257.885 292.766 258.01 288.195 258.073 283.623 258.135 279.114 258.198 274.668 258.261 270.159 258.323 265.775 258.448 261.392 258.511 257.008 258.574 252.75 258.636 248.491 258.699 244.233 258.762 240.1 258.824 235.966 258.887 231.896 258.949 227.888 259.012 223.88 259.012 219.997 259.075 216.115 259.137 212.357 266.026 208.662 272.852 204.968 279.678 201.398 286.504 197.766 293.267 194.196 299.968 190.564 306.669 186.995 313.369 183.362 319.945 179.73 326.52 176.098 333.033 172.341 339.484 168.583 342.677 166.705 345.809 164.763 349.002 162.822 352.134 160.881 355.265 158.939 358.396 156.935 361.465 154.931Z" stroke="#FFFFFF" stroke-width="0.0626238" stroke-opacity="0.54118" fill="#FFFFFF" fill-opacity="0.54118" transform="matrix(-1.00099 0 0 1 2396.69 702.817)"/><path d="M151.55 415.071 152.176 415.947 152.802 416.761 153.491 417.576 154.242 418.39 154.994 419.141 155.745 419.893 156.622 420.644 157.436 421.396 158.313 422.147 159.252 422.836 160.192 423.525 161.194 424.214 162.133 424.902 163.198 425.529 164.2 426.155 165.264 426.844 166.391 427.407 167.519 428.034 168.646 428.597 169.773 429.098 170.963 429.662 172.153 430.163 173.343 430.664 174.533 431.165 177.037 432.104 179.542 432.981 182.11 433.732 184.678 434.421 187.308 435.048 189.875 435.611 192.506 436.112 195.073 436.488 197.641 436.864 200.208 437.051 201.523 437.177 202.776 437.239 203.966 437.302 205.218 437.302 206.471 437.302 207.661 437.302 208.85 437.239 210.04 437.177 211.167 437.114 212.357 437.051 213.422 436.926 214.549 436.738 215.614 436.613 216.678 436.425 217.743 436.175 218.745 435.924 219.684 435.674 220.624 435.423 221.563 435.11 222.502 434.797 222.377 434.734 222.314 434.734 222.001 434.609 221.626 434.547 221.187 434.421 220.686 434.296 220.06 434.108 219.434 433.92 218.682 433.732 217.868 433.482 216.991 433.294 216.052 433.044 215.05 432.73 214.048 432.48 212.921 432.167 211.794 431.854 210.604 431.541 209.351 431.165 208.099 430.852 206.784 430.476 205.406 430.1 204.028 429.725 202.651 429.349 201.21 428.91 199.707 428.535 196.701 427.721 193.633 426.844 190.502 425.967 187.37 425.153 184.239 424.214 181.108 423.4 178.039 422.523 174.971 421.709 173.531 421.27 172.028 420.895 170.587 420.456 169.21 420.08 167.832 419.705 166.517 419.329 165.202 418.953 163.949 418.64 162.759 418.264 161.569 417.951 160.442 417.638 159.378 417.325 158.376 417.074 157.436 416.761 156.497 416.511 155.683 416.26 154.931 416.073 154.18 415.885 153.554 415.697 152.99 415.509 152.552 415.384 152.113 415.258 151.8 415.133 151.675 415.133Z" stroke="#FFFFFF" stroke-width="0.0626238" stroke-opacity="0.16078" fill="#000000" fill-opacity="0.16078" transform="matrix(-1.00099 0 0 1 2396.69 702.817)"/><path d="M216.303 381.567 157.687 358.96 157.123 359.21 156.622 359.461 156.121 359.711 155.745 360.024 155.37 360.4 154.994 360.776 154.681 361.214 154.368 361.59 154.117 362.028 153.867 362.467 153.679 362.905 153.491 363.406 153.303 363.907 153.178 364.345 152.99 365.285 152.865 366.224 152.739 367.101 152.739 367.476 152.739 367.915 152.739 368.228 152.739 368.604 152.739 368.917 152.739 369.167 152.739 369.418 152.802 369.668 152.802 369.794 152.802 369.919 152.802 369.981 152.802 370.044 161.945 373.238 162.008 373.3 162.07 373.363 162.133 373.426 162.196 373.551 162.321 373.676 162.384 373.864 162.571 374.052 162.697 374.24 162.885 374.49 163.072 374.741 163.26 374.991 163.511 375.304 163.761 375.555 164.012 375.931 164.325 376.181 164.951 376.933 165.577 377.622 166.391 378.373 167.206 379.124 168.082 379.939 169.022 380.69 170.086 381.504 171.151 382.256 172.341 383.007 173.531 383.696 174.846 384.385 176.223 385.011 176.912 385.262 177.601 385.575 178.353 385.825 179.104 386.076 179.918 386.264 180.67 386.451 181.484 386.639 182.298 386.827 183.112 386.952 183.926 387.015 184.803 387.14 185.68 387.203 186.556 387.203 187.496 387.203 188.435 387.203 189.374 387.14 190.314 387.015 191.253 386.89 192.255 386.765 193.257 386.577 194.259 386.326 195.261 386.076 196.326 385.763 197.39 385.387 197.453 385.387 197.578 385.449 197.766 385.449 198.142 385.512 198.517 385.575 198.956 385.637 199.457 385.7 200.02 385.763 200.647 385.825 201.336 385.888 202.087 385.95 202.838 386.013 203.59 386.013 204.404 386.076 206.032 386.076 206.909 386.013 207.723 385.95 208.6 385.888 209.414 385.763 210.228 385.637 210.98 385.449 211.731 385.262 212.483 385.074 213.109 384.761 213.798 384.448 214.361 384.072 214.862 383.696 215.363 383.195 215.551 382.945 215.739 382.694 215.927 382.444 216.052 382.193 216.177 381.88Z" stroke="#FFFFFF" stroke-width="0.0626238" stroke-opacity="0.38824" fill="#FFFFFF" fill-opacity="0.38824" transform="matrix(-1.00099 0 0 1 2396.69 702.817)"/><path d="M215.802 373.927C196.326 368.854 176.85 363.844 157.374 358.772 156.622 361.527 156.559 365.473 157.749 367.539 160.693 368.979 166.642 370.107 169.585 371.547 178.102 379.751 185.554 380.44 199.144 379.312 204.404 380.377 209.664 381.254 214.862 382.318 216.49 379.124 216.929 377.809 215.802 373.927Z" fill="#606060" transform="matrix(-1.00099 0 0 1 2396.69 702.817)"/><path d="M366.725 151.174 253.188 214.862 253.626 499.738 364.784 406.178Z" stroke="#FFFFFF" stroke-width="0.0626238" stroke-opacity="0.4" fill="#FFFFFF" fill-opacity="0.4" transform="matrix(-1.00099 0 0 1 2396.69 702.817)"/><path d="M158.125 433.106 158.751 433.92 159.44 434.672 160.066 435.486 160.755 436.175 161.444 436.926 162.133 437.615 162.885 438.304 163.636 438.93 164.387 439.556 165.139 440.183 165.953 440.809 166.705 441.373 167.519 441.936 168.333 442.437 170.024 443.502 171.777 444.441 173.531 445.318 175.284 446.132 177.1 446.821 178.916 447.51 180.795 448.073 182.674 448.574 184.49 449.075 186.368 449.451 188.247 449.764 190.126 450.015 192.005 450.202 193.883 450.328 195.699 450.453 197.515 450.453 199.332 450.39 201.022 450.265 202.776 450.14 204.467 449.952 206.095 449.639 207.661 449.326 209.163 448.95 210.666 448.574 212.044 448.073 211.919 448.011 211.668 448.011 211.418 447.885 211.105 447.823 210.729 447.698 210.228 447.572 209.727 447.447 209.163 447.322 208.537 447.134 207.911 446.946 207.222 446.758 206.471 446.57 205.657 446.32 204.842 446.132 203.966 445.881 203.026 445.631 202.087 445.38 201.148 445.067 200.146 444.817 199.144 444.504 198.079 444.253 196.952 443.94 194.76 443.314 192.506 442.688 190.126 442.061 187.746 441.435 185.366 440.746 180.607 439.431 178.29 438.805 175.973 438.116 173.718 437.49 172.654 437.239 171.589 436.926 170.525 436.613 169.523 436.363 168.521 436.049 167.581 435.799 166.642 435.549 165.765 435.298 164.888 435.048 164.074 434.797 163.323 434.609 162.634 434.421 161.883 434.233 161.256 434.046 160.693 433.858 160.192 433.732 159.691 433.545 159.252 433.482 158.877 433.357 158.563 433.231 158.313 433.169Z" stroke="#FFFFFF" stroke-width="0.0626238" stroke-opacity="0.16078" fill="#000000" fill-opacity="0.16078" transform="matrix(-1.00099 0 0 1 2396.69 702.817)"/><path d="M167.832 450.829 168.583 451.768 169.335 452.645 170.149 453.522 171.026 454.273 171.902 455.087 172.779 455.776 173.718 456.465 174.72 457.154 175.66 457.717 176.724 458.281 177.726 458.845 178.791 459.283 179.918 459.721 180.983 460.16 182.11 460.473 183.237 460.786 184.364 461.099 185.554 461.287 186.682 461.537 187.871 461.663 188.999 461.788 190.188 461.851 191.378 461.851 192.568 461.851 193.695 461.788 194.885 461.663 196.012 461.537 197.202 461.35 198.33 461.099 199.457 460.849 200.584 460.535 201.649 460.16 201.586 460.16 201.461 460.097 201.273 460.097 201.022 460.034 200.835 459.972 200.521 459.847 200.208 459.784 199.833 459.659 199.457 459.596 199.081 459.471 198.643 459.346 198.142 459.22 197.641 459.095 197.14 458.907 196.576 458.782 196.012 458.657 194.823 458.281 193.57 457.968 192.192 457.592 190.815 457.216 189.374 456.841 187.934 456.402 184.928 455.588 181.922 454.774 180.482 454.336 179.041 453.96 177.601 453.584 176.286 453.208 174.971 452.833 173.781 452.457 173.217 452.332 172.654 452.144 172.09 452.019 171.589 451.893 171.088 451.768 170.65 451.643 170.211 451.518 169.836 451.392 169.46 451.267 169.147 451.142 168.834 451.079 168.521 451.017 168.333 450.954 168.145 450.891 167.957 450.829Z" stroke="#FFFFFF" stroke-width="0.0626238" stroke-opacity="0.16078" fill="#000000" fill-opacity="0.16078" transform="matrix(-1.00099 0 0 1 2396.69 702.817)"/><path d="M147.542 204.091 141.78 204.905 140.716 340.987 229.955 365.973 232.146 358.709 146.414 335.851Z" stroke="#FFFFFF" stroke-width="0.0626238" stroke-opacity="0.43922" fill="#FCFCFC" fill-opacity="0.43922" transform="matrix(-1.00099 0 0 1 2396.69 702.817)"/><path d="M231.708 254.566 231.583 258.386 147.667 234.213Z" stroke="#FFFFFF" stroke-width="0.0626238" stroke-opacity="0.23137" fill="#000000" fill-opacity="0.23137" transform="matrix(-1.00099 0 0 1 2396.69 702.817)"/><path d="M232.961 282.245 232.773 286.066 148.919 261.893Z" stroke="#FFFFFF" stroke-width="0.0626238" stroke-opacity="0.23137" fill="#000000" fill-opacity="0.23137" transform="matrix(-1.00099 0 0 1 2396.69 702.817)"/><path d="M231.708 307.859 231.583 311.679 147.667 287.506Z" stroke="#FFFFFF" stroke-width="0.0626238" stroke-opacity="0.23137" fill="#000000" fill-opacity="0.23137" transform="matrix(-1.00099 0 0 1 2396.69 702.817)"/><path d="M231.708 333.033 231.583 336.853 147.667 312.618Z" stroke="#FFFFFF" stroke-width="0.0626238" stroke-opacity="0.23137" fill="#000000" fill-opacity="0.23137" transform="matrix(-1.00099 0 0 1 2396.69 702.817)"/><path d="M147.855 207.222 231.27 228.076 230.581 365.66 231.27 365.66 231.959 365.66 232.647 227.575 232.647 227.011 232.146 226.886 148.168 205.907 148.043 206.596ZM231.771 228.201 231.27 228.076 231.27 227.575 231.959 227.575Z" fill="#9E9E9E" transform="matrix(-1.00099 0 0 1 2396.69 702.817)"/></g></g></g><path d="M556.5 1136.04 874.101 1136.04C880.429 1136.04 885.559 1141.17 885.559 1147.5 885.559 1153.83 880.429 1158.96 874.101 1158.96L556.5 1158.96C550.172 1158.96 545.042 1153.83 545.042 1147.5 545.042 1141.17 550.172 1136.04 556.5 1136.04ZM862.643 1113.13 931.393 1147.5 862.642 1181.88Z" fill="#EB99A1"/><path d="M1877 1141.5C1877 1111.95 1900.95 1088 1930.5 1088 1960.05 1088 1984 1111.95 1984 1141.5 1984 1171.05 1960.05 1195 1930.5 1195 1900.95 1195 1877 1171.05 1877 1141.5Z" fill="#EB99A1" fill-rule="evenodd"/><text fill="#F0F0F0" font-family="Arial,Arial_MSFontService,sans-serif" font-weight="400" font-size="46" transform="matrix(1 0 0 1 1905.71 1159)">80</text><path d="M1877 1019C1877 989.177 1901.18 965 1931 965 1960.82 965 1985 989.177 1985 1019 1985 1048.82 1960.82 1073 1931 1073 1901.18 1073 1877 1048.82 1877 1019Z" fill="#DA4453" fill-rule="evenodd"/><text fill="#F0F0F0" font-family="Arial,Arial_MSFontService,sans-serif" font-weight="400" font-size="46" transform="matrix(1 0 0 1 1893.1 1036)">443</text><path d="M1876 894C1876 864.177 1900.18 840 1930 840 1959.82 840 1984 864.177 1984 894 1984 923.823 1959.82 948 1930 948 1900.18 948 1876 923.823 1876 894Z" fill="#7F7F7F" fill-rule="evenodd"/><text fill="#F0F0F0" font-family="Arial,Arial_MSFontService,sans-serif" font-weight="400" font-size="46" transform="matrix(1 0 0 1 1904.47 911)">22</text><path d="M621 1123.5C621 1116.6 626.597 1111 633.5 1111L787.5 1111C794.403 1111 800 1116.6 800 1123.5L800 1173.5C800 1180.4 794.403 1186 787.5 1186L633.5 1186C626.597 1186 621 1180.4 621 1173.5Z" fill="#EB99A1" fill-rule="evenodd"/><text fill="#FFFFFF" font-family="Arial,Arial_MSFontService,sans-serif" font-weight="400" font-size="41" transform="matrix(1 0 0 1 656.453 1164)">HTTP</text><path d="M556.5 1009.04 874.101 1009.04C880.429 1009.04 885.559 1014.17 885.559 1020.5 885.559 1026.83 880.429 1031.96 874.101 1031.96L556.5 1031.96C550.172 1031.96 545.042 1026.83 545.042 1020.5 545.042 1014.17 550.172 1009.04 556.5 1009.04ZM862.643 986.125 931.393 1020.5 862.642 1054.88Z" fill="#DA4453"/><path d="M621 996.5C621 989.597 626.597 984 633.5 984L787.5 984C794.403 984 800 989.597 800 996.5L800 1046.5C800 1053.4 794.403 1059 787.5 1059L633.5 1059C626.597 1059 621 1053.4 621 1046.5Z" fill="#DA4453" fill-rule="evenodd"/><text fill="#FFFFFF" font-family="Arial,Arial_MSFontService,sans-serif" font-weight="400" font-size="41" transform="matrix(1 0 0 1 642.703 1037)">HTTPS</text><path d="M556.5 886.042 874.101 886.042C880.429 886.042 885.559 891.172 885.559 897.5 885.559 903.829 880.429 908.959 874.101 908.959L556.5 908.958C550.172 908.958 545.042 903.828 545.042 897.5 545.042 891.172 550.172 886.042 556.5 886.042ZM862.643 863.125 931.393 897.5 862.642 931.875Z" fill="#00A1E5"/><path d="M621 873.5C621 866.597 626.597 861 633.5 861L787.5 861C794.403 861 800 866.597 800 873.5L800 923.5C800 930.404 794.403 936 787.5 936L633.5 936C626.597 936 621 930.404 621 923.5Z" fill="#00A1E5" fill-rule="evenodd"/><text fill="#FFFFFF" font-family="Arial,Arial_MSFontService,sans-serif" font-weight="400" font-size="41" transform="matrix(1 0 0 1 667.911 914)">SSH</text><text fill="#DA4453" font-family="Arial,Arial_MSFontService,sans-serif" font-weight="400" font-size="64" transform="matrix(1 0 0 1 2671.69 778)">Services</text><path d="M2365 889.5C2365 882.596 2370.6 877 2377.5 877L2531.5 877C2538.4 877 2544 882.596 2544 889.5L2544 939.5C2544 946.404 2538.4 952 2531.5 952L2377.5 952C2370.6 952 2365 946.404 2365 939.5Z" fill="#7F7F7F" fill-rule="evenodd"/><text fill="#F0F0F0" font-family="Arial,Arial_MSFontService,sans-serif" font-weight="400" font-size="41" transform="matrix(1 0 0 1 2412.28 930)">SSH</text><g><g><g><path d="M242.821 6.52948C252.712 6.52948 260.731 14.5481 260.731 24.4395L260.731 183.85C260.731 193.742 252.712 201.76 242.821 201.76L26.3795 201.76C16.4881 201.76 8.46949 193.742 8.46949 183.85L8.46949 24.4395C8.46949 14.5481 16.4881 6.52947 26.3795 6.52947Z" fill="#DA4453" transform="matrix(1.0042 0 0 1 2662 1006)"/><g clip-path="url(#clip3)"><path d="M26.3805 6.52768C16.4583 6.52768 8.46922 14.5168 8.46922 24.4389L8.46922 183.85C8.46922 193.772 16.4583 201.761 26.3805 201.761L242.82 201.761C252.742 201.761 260.731 193.772 260.731 183.85L260.731 24.4389C260.731 14.5168 252.742 6.52768 242.82 6.52768Z" stroke="url(#stroke4)" stroke-width="8.37113" fill="none" transform="matrix(1.0042 0 0 1 2662 1006)"/></g><path d="M188.021 33.1667C188.021 40.2158 182.307 45.9302 175.258 45.9302 168.208 45.9302 162.494 40.2158 162.494 33.1667 162.494 26.1176 168.208 20.4032 175.258 20.4032 182.307 20.4032 188.021 26.1176 188.021 33.1667Z" fill="#40363A" transform="matrix(1.0042 0 0 1 2662 1006)"/><path d="M188.021 33.1667C188.021 40.2158 182.307 45.9302 175.258 45.9302 168.208 45.9302 162.494 40.2158 162.494 33.1667 162.494 26.1176 168.208 20.4032 175.258 20.4032 182.307 20.4032 188.021 26.1176 188.021 33.1667Z" fill="#40363A" transform="matrix(1.0042 0 0 1 2690.58 1006)"/><path d="M188.021 33.1667C188.021 40.2158 182.307 45.9302 175.258 45.9302 168.208 45.9302 162.494 40.2158 162.494 33.1667 162.494 26.1176 168.208 20.4032 175.258 20.4032 182.307 20.4032 188.021 26.1176 188.021 33.1667Z" fill="#40363A" transform="matrix(1.0042 0 0 1 2719.16 1006)"/><path d="M240.773 59.6596C247.776 59.6596 253.453 65.3367 253.453 72.3398L253.453 181.549C253.453 188.552 247.776 194.23 240.773 194.23L27.8962 194.23C20.8931 194.23 15.216 188.552 15.216 181.549L15.216 72.3398C15.216 65.3368 20.8931 59.6596 27.8962 59.6596Z" stroke="url(#stroke5)" stroke-width="4.39484" fill="#120C0C" transform="matrix(1.0042 0 0 1 2662 1006)"/></g></g></g><text fill="#D9D8DC" font-family="Arial,Arial_MSFontService,sans-serif" font-weight="400" font-size="50" transform="matrix(1 0 0 1 2736 1115)">nginx</text><text fill="#D9D8DC" font-family="Arial,Arial_MSFontService,sans-serif" font-weight="400" font-size="50" transform="matrix(1 0 0 1 2713.65 1176)">apache</text><path d="M2365 1040.5C2365 1033.6 2370.6 1028 2377.5 1028L2531.5 1028C2538.4 1028 2544 1033.6 2544 1040.5L2544 1090.5C2544 1097.4 2538.4 1103 2531.5 1103L2377.5 1103C2370.6 1103 2365 1097.4 2365 1090.5Z" fill="#DA4453" fill-rule="evenodd"/><text fill="#FFFFFF" font-family="Arial,Arial_MSFontService,sans-serif" font-weight="400" font-size="41" transform="matrix(1 0 0 1 2387.07 1081)">HTTPS</text><path d="M2334.5 1152.04 2589.56 1152.04C2595.89 1152.04 2601.02 1157.17 2601.02 1163.5 2601.02 1169.83 2595.89 1174.96 2589.56 1174.96L2334.5 1174.96C2328.17 1174.96 2323.04 1169.83 2323.04 1163.5 2323.04 1157.17 2328.17 1152.04 2334.5 1152.04ZM2578.1 1140.58 2623.94 1163.5 2578.1 1186.42Z" fill="#EB99A1"/><path d="M2369 1138.5C2369 1131.6 2374.6 1126 2381.5 1126L2535.5 1126C2542.4 1126 2548 1131.6 2548 1138.5L2548 1188.5C2548 1195.4 2542.4 1201 2535.5 1201L2381.5 1201C2374.6 1201 2369 1195.4 2369 1188.5Z" fill="#EB99A1" fill-rule="evenodd"/><text fill="#FFFFFF" font-family="Arial,Arial_MSFontService,sans-serif" font-weight="400" font-size="41" transform="matrix(1 0 0 1 2404.39 1179)">HTTP</text><text fill="#DA4453" font-family="Arial,Arial_MSFontService,sans-serif" font-weight="400" font-size="64" transform="matrix(1 0 0 1 2038.84 778)">Server</text><text fill="#DA4453" font-family="Arial,Arial_MSFontService,sans-serif" font-weight="400" font-size="64" transform="matrix(1 0 0 1 145.199 778)">Your</text><text fill="#DA4453" font-family="Arial,Arial_MSFontService,sans-serif" font-weight="400" font-size="64" transform="matrix(1 0 0 1 292.278 778)">Laptop</text><text fill="#D9D8DC" font-family="Arial,Arial_MSFontService,sans-serif" font-weight="400" font-size="50" transform="matrix(1 0 0 1 2724.62 944)">SSHD</text><g clip-path="url(#clip6)"><g clip-path="url(#clip7)"><g clip-path="url(#clip8)"><path d="M-25.4126 115.318C-39.097 117.146-39.2325 133.133-44.9649 142.858-49.6525 154.72-50.3887 152.605-50.2517 163.413-50.0823 218.351-50.5911 273.327-49.9965 328.242-45.4391 343.092-28.4022 337.041-16.8885 338.298 82.1937 338.125 181.306 338.637 280.366 338.042 295.216 333.488 289.165 316.448 290.422 304.939L290.422 158.529C286.154 145.966 280.095 133.653 275.097 121.158 266.276 111.358 251.772 116.717 240.037 115.333 151.553 115.325 63.0682 115.363-25.4088 115.318Z" fill="url(#fill9)" transform="matrix(1 2.30474e-18 -2.30474e-18 1.0004 1073.18 758.867)"/><path d="M255.774 115.566C250.107 115.671 244.228 116.431 238.914 115.799 150.43 115.792 61.9603 115.829-26.5243 115.777-40.2087 117.613-40.3607 133.623-46.0939 143.347-49.1926 151.183-50.5693 152.906-51.1037 156.308L288.353 156.308C284.168 144.672 278.621 133.239 273.985 121.632 269.16 116.273 262.619 115.438 255.777 115.566Z" fill="url(#fill10)" transform="matrix(1 0 0 1.0004 1073.18 758.867)"/><path d="M-50.3209 273.914 290.566 273.914-50.3209 273.914ZM-20.463 273.982-20.463 337.62-20.463 273.982ZM90.6019 273.982 90.6019 337.62 90.6019 273.982Z" stroke="#FFFFFF" stroke-width="3.8607" stroke-linecap="round" stroke-opacity="0.57658" fill-rule="evenodd" transform="matrix(1 0 0 1.0004 1073.18 758.867)"/><path d="M35.7137 210.697 35.7137 274.35" stroke="#FFFFFF" stroke-width="3.86334" stroke-opacity="0.57658" fill="none" fill-rule="evenodd" transform="matrix(1 0 0 1.0004 1073.18 758.867)"/><path d="M150.964 210.697 150.964 274.35" stroke="#FFFFFF" stroke-width="3.86334" stroke-opacity="0.57658" fill="none" fill-rule="evenodd" transform="matrix(1 0 0 1.0004 1073.18 758.867)"/><path d="M262.541 209.936 262.541 273.59" stroke="#FFFFFF" stroke-width="3.86334" stroke-opacity="0.57658" fill="none" fill-rule="evenodd" transform="matrix(1 0 0 1.0004 1073.18 758.867)"/><path d="M206.399 273.214 206.399 336.875" stroke="#FFFFFF" stroke-width="3.86334" stroke-opacity="0.57658" fill="none" fill-rule="evenodd" transform="matrix(1 0 0 1.0004 1073.18 758.867)"/><path d="M-50.8192 210.757 290.753 210.757" stroke="#FFFFFF" stroke-width="3.9456" stroke-opacity="0.56471" fill="none" transform="matrix(1 0 0 1.0004 1073.18 758.867)"/><path d="M-50.7785 157.242 290.108 157.242-50.7785 157.242Z" stroke="#FFFFFF" stroke-width="3.8607" stroke-linecap="round" stroke-opacity="0.57658" fill="none" fill-rule="evenodd" transform="matrix(1 0 0 1.0004 1073.18 758.867)"/><path d="M90.2007 158.754 90.2007 212.209" stroke="#FFFFFF" stroke-width="3.54021" stroke-opacity="0.57658" fill="none" fill-rule="evenodd" transform="matrix(1 0 0 1.0004 1073.18 758.867)"/><path d="M-20.4382 155.909-20.4382 212.194" stroke="#FFFFFF" stroke-width="3.63287" stroke-opacity="0.57658" fill="none" fill-rule="evenodd" transform="matrix(1 0 0 1.0004 1073.18 758.867)"/><path d="M206.248 154.78 206.248 211.065" stroke="#FFFFFF" stroke-width="3.63287" stroke-opacity="0.57658" fill="none" fill-rule="evenodd" transform="matrix(1 0 0 1.0004 1073.18 758.867)"/><path d="M427.531 70.0312C417.46 83.2541 413.186 100.145 414.47 116.62 415.43 124.669 411.15 132.168 408.1 139.364 402.497 150.087 397.424 161.798 398.956 174.195 398.512 181.33 395.341 174.134 395.677 170.539 394.158 160.441 393.507 149.966 395.576 139.955 394.535 130.219 392.069 119.664 384.026 113.261 386.411 124.824 389.516 137.852 383.751 148.891 381.688 152.593 377.059 153.608 376.091 158.049 366.389 175.048 365.657 196.239 373.027 214.239 374.559 218.338 376.562 222.248 378.295 226.266 372.886 223.175 366.953 221.086 361.726 217.7 368.969 238.898 382.729 259.746 404.458 267.997 413.005 271.632 422.324 272.311 431.348 273.742 451.135 279.923 475.692 275.865 488.747 258.645 496.42 248.68 498.55 235.236 495.936 223.095 492.483 230.082 486.496 235.747 478.763 237.54 480.543 228.571 477.836 219.594 473.2 211.915 468.194 203.731 467.018 193.377 471.009 184.528 477.07 171.252 481.652 155.18 474.59 141.359 472.407 134.983 470.875 138.893 469.766 143.415 465.15 157.606 455.838 169.679 445.296 180.033 446.022 165.554 451.074 151.854 453.224 137.624 454.447 130.374 453.043 123.097 451.524 116.076 450.49 108.188 442.266 104.143 438.799 97.3839 432.617 88.4008 430.561 77.2272 430.199 66.5025 429.312 67.6796 428.418 68.8554 427.531 70.0312Z" fill="#000000" fill-rule="evenodd" fill-opacity="0.40541" transform="matrix(1 0 0 1.0004 828.902 851.001)"/><path d="M90.9136 178.065C103.908 216.483 124.475 236.855 161.341 239.187 201.89 252.181 239.536 225.601 228.86 183.89 224.009 192.813 220.904 197.664 212.566 200.183 215.865 177.097 194.714 173.214 204.994 148.38 212.177 133.055 216.443 114.235 203.832 98.9024 198.598 116.365 192.195 128.009 179.388 140.815 180.746 119.469 192 102.201 185.207 82.0245 186.174 68.4456 163.861 68.8286 163.673 27.309 149.509 45.1598 143.489 58.935 145.626 86.0962 140.385 108.027 127.579 115.975 129.91 139.653 127.968 126.457 126.611 115.008 129.326 105.306 127.774 93.2787 126.222 82.992 114.195 74.459 117.883 89.3951 122.15 111.904 109.538 117.527 106.045 124.71 88.5822 149.348 107.792 187.962 102.168 184.663 96.5374 183.695 90.9136 178.065Z" stroke="#FFFF00" stroke-width="1.4488" stroke-opacity="0.50382" fill="url(#fill11)" fill-rule="evenodd" transform="matrix(1 0 0 1.0004 1127.66 887.129)"/><path d="M159.447 35.6687C149.375 48.8949 145.102 65.7856 146.385 82.2529 147.346 90.3089 143.066 97.8072 140.015 105.003 134.412 115.727 129.339 127.438 130.871 139.827 130.434 146.97 127.263 139.774 127.592 136.179 126.074 126.08 125.422 115.599 127.498 105.594 126.45 95.8587 123.984 85.3033 115.942 78.9002 118.334 90.4567 121.438 103.485 115.673 114.531 113.603 118.233 108.981 119.241 108.013 123.688 98.3044 140.687 97.5788 161.879 104.943 179.879 106.475 183.977 108.477 187.888 110.21 191.906 104.808 188.815 98.8688 186.719 93.6482 183.339 100.884 204.53 114.652 225.386 136.381 233.637 144.92 237.272 154.239 237.95 163.27 239.381 183.057 245.563 207.614 241.505 220.669 224.284 228.336 214.32 230.465 200.875 227.859 188.734 224.398 195.722 218.412 201.386 210.678 203.18 212.459 194.21 209.751 185.227 205.115 177.554 200.116 169.37 198.934 159.017 202.931 150.168 208.985 136.891 213.567 120.82 206.513 106.999 204.329 100.616 202.79 104.533 201.682 109.055 197.072 123.245 187.753 135.319 177.211 145.673 177.944 131.194 182.996 117.494 185.14 103.263 186.369 96.0133 184.958 88.7367 183.44 81.7154 182.405 73.8274 174.188 69.7759 170.714 63.0227 164.533 54.0369 162.477 42.8687 162.114 32.1413 161.227 33.3171 160.34 34.4929 159.447 35.6687Z" fill="url(#fill12)" fill-rule="evenodd" transform="matrix(1 0 0 1.0004 1127.66 887.129)"/><path d="M157.27 233.361C126.416 200.768 121.176 178.065 141.554 156.531 164.445 115.787 158.822 90.1745 142.132 65.7244 157.847 119.859 123.507 154.784 112.448 170.499 105.85 150.127 111.48 141.393 120.598 116.365 102.746 135.769 91.8811 159.245 98.4791 181.558 110.506 215.126 138.833 222.497 157.27 233.361Z" stroke="#FFFF00" stroke-width="1.4488" stroke-opacity="0.50382" fill="url(#fill13)" fill-rule="evenodd" transform="matrix(1 0 0 1.0004 1127.66 887.129)"/><path d="M194.707 110.204C190.569 98.1768 193.948 95.6034 197.57 90.3492 201.305 88.8912 200.156 83.8185 202.199 72.5172 205.283 85.1286 213.574 90.8666 194.707 110.204Z" stroke="#FFFF00" stroke-width="1.4488" stroke-opacity="0.50382" fill="#FFD700" fill-rule="evenodd" transform="matrix(1 0 0 1.0004 1127.66 887.129)"/><path d="M199.357 70.5419C198.094 75.9036 198.665 81.8095 196.333 86.8151 190.857 90.9942 188.472 98.7546 190.871 105.346 191.617 110.869 193.343 111.823 196.407 106.777 202.945 100.051 209.066 90.4097 205.343 80.7681 203.664 75.8498 202.192 70.8577 200.318 66.0046 199.995 67.5184 199.673 69.0301 199.357 70.5419Z" fill="url(#fill14)" fill-rule="evenodd" transform="matrix(1 0 0 1.0004 1127.66 887.129)"/><path d="M221.294 183.89C231.964 173.603 229.834 169.142 228.86 161.771 225.756 158.277 229.639 153.621 233.516 140.815 223.626 152.264 211.982 153.816 221.294 183.89Z" stroke="#FFFF00" stroke-width="1.4488" stroke-opacity="0.50382" fill="#FFD700" fill-rule="evenodd" transform="matrix(1 0 0 1.0004 1127.66 887.129)"/><path d="M171.238 233.361C183.265 226.575 186.564 205.229 188.116 181.558 191.025 158.66 196.851 135.769 235.263 132.08 219.547 144.692 206.741 160.212 212.566 189.124 211.014 231.231 179.771 229.679 171.238 233.361Z" stroke="#FFFF00" stroke-width="1.4488" stroke-opacity="0.50382" fill="url(#fill15)" fill-rule="evenodd" transform="matrix(1 0 0 1.0004 1127.66 887.129)"/><path d="M230.835 128.734C214.454 131.059 197.57 140.902 192.766 157.619 185.046 178.515 189.312 202.293 178.79 222.362 174.793 224.096 175.767 231.547 180.705 230.089 195.158 227.469 208.884 217.424 212.546 202.689 216.074 192.45 214.071 181.626 213.695 171.111 214.179 155.865 223.007 142.112 234.598 132.705 236.627 129.783 233.24 128.802 230.835 128.734Z" fill="url(#fill16)" fill-rule="evenodd" transform="matrix(1 0 0 1.0004 1127.66 887.129)"/><path d="M231.037 136.723C224.439 143.711 214.857 150.248 215.093 160.992 214.602 168.692 217.343 176.029 219.05 183.42 224.781 177.95 231.292 170.828 229.196 162.201 229.175 158.405 226.313 155.079 228.564 151.377 230.721 145.512 232.978 139.68 234.483 133.592 233.334 134.634 232.186 135.675 231.037 136.723Z" fill="url(#fill17)" fill-rule="evenodd" transform="matrix(1 0 0 1.0004 1127.66 887.129)"/><path d="M150.282 217.646C148.73 199.021 146.593 185.63 170.076 168.752 209.845 141.01 190.253 124.905 165.42 95.9931 172.79 124.71 160.952 147.601 150.866 162.934 144.269 172.441 121.37 191.838 150.282 217.646Z" stroke="#FFFF00" stroke-width="1.4488" stroke-opacity="0.50382" fill="url(#fill18)" fill-rule="evenodd" transform="matrix(1 0 0 1.0004 1127.66 887.129)"/><path d="M135.111 81.0167C145.854 68.6471 143.093 63.5562 141.339 55.0393 137.61 51.1135 141.426 45.5509 144.484 30.5314 134.701 44.2205 122.076 46.4976 135.111 81.0167Z" stroke="#FFFF00" stroke-width="1.4488" stroke-opacity="0.50382" fill="#FFD700" fill-rule="evenodd" transform="matrix(1 0 0 1.0004 1127.66 887.129)"/><path d="M141.91 27.8956C135.655 36.0752 126.168 43.6232 126.665 54.96 126.598 64.3867 130.313 73.1824 133.088 82.0245 138.759 75.5542 144.793 67.3302 142.266 58.2093 142.286 54.5999 139.76 51.7981 139.686 48.3889 141.07 40.343 143.926 32.5706 145.055 24.4521 144.006 25.5997 142.958 26.748 141.91 27.8956Z" fill="url(#fill19)" fill-rule="evenodd" transform="matrix(1 0 0 1.0004 1127.66 887.129)"/><path d="M164.815 91.1824C169.122 110.755 164.687 131.382 154.784 148.575 148.636 160.401 136.508 169.458 135.353 183.52 133.498 195.782 142.333 206.002 150.517 213.917 153.85 218.109 150.994 208.199 151.444 205.881 150.114 193.821 152.183 180.289 161.912 172.018 172.75 161.476 188.203 154.172 193.39 139.021 196.904 125.644 187.545 113.65 179.388 104.15 174.47 98.1835 169.283 92.4523 164.123 86.6874 164.358 88.1857 164.587 89.6841 164.815 91.1824Z" fill="url(#fill20)" fill-rule="evenodd" transform="matrix(1 0 0 1.0004 1127.66 887.129)"/><path d="M145.27 73.814C145.693 83.0727 148.327 92.2373 147.117 101.583 146.056 123.393 136.475 143.912 123.238 160.985 120.786 164.472 118.172 167.845 115.639 171.279 112.26 160.011 113.785 147.856 118.34 137.167 120.739 131.449 122.425 125.516 123.306 119.375 110.661 130.911 101.731 146.634 98.5933 163.471 96.0469 179.039 101.523 195.043 111.85 206.741 124.831 222.06 143.503 230.667 161.603 238.36 151.35 223.941 137.073 210.927 134.042 192.698 131.959 182.116 136.125 171.5 143.079 163.585 151.034 152.654 155.986 139.659 158.929 126.531 162.752 109.444 159.688 90.9607 150.349 76.1455 148.045 74.459 143.926 65.6055 145.27 73.814Z" fill="url(#fill21)" fill-rule="evenodd" transform="matrix(1 0 0 1.0004 1127.66 887.129)"/><path d="M74.2592 145.445C84.8731 176.826 101.672 193.466 131.785 195.37 164.906 205.984 195.655 184.273 186.935 150.203 182.972 157.491 180.437 161.454 173.626 163.512 176.321 144.655 159.044 141.483 167.441 121.199 173.308 108.68 176.793 93.3083 166.492 80.7845 162.217 95.048 156.986 104.559 146.526 115.019 147.635 97.5835 156.827 83.4791 151.279 66.9984 152.069 55.907 133.843 56.2199 133.69 22.3063 122.121 36.887 117.203 48.1387 118.949 70.3242 114.668 88.2373 104.208 94.7297 106.112 114.07 104.526 103.291 103.417 93.9394 105.634 86.0146 104.367 76.191 103.099 67.7887 93.2753 60.8189 96.2883 73.0189 99.7732 91.4039 89.4721 95.9974 86.6183 101.864 72.3548 121.989 88.0452 153.529 83.4517 150.834 78.8527 150.044 74.2592 145.445Z" stroke="#FFFF00" stroke-width="1.18339" stroke-opacity="0.50382" fill="url(#fill22)" fill-rule="evenodd" transform="matrix(-1 0 0 1.0004 1472.04 926.042)"/><path d="M130.238 29.1346C122.011 39.9378 118.521 53.7343 119.569 67.185 120.354 73.7652 116.858 79.8899 114.366 85.7677 109.789 94.5266 105.645 104.092 106.897 114.212 106.54 120.046 103.95 114.168 104.219 111.232 102.978 102.984 102.446 94.4224 104.142 86.2506 103.286 78.2984 101.271 69.6766 94.7022 64.4465 96.656 73.886 99.1915 84.5274 94.4827 93.5498 92.7924 96.5737 89.0166 97.3969 88.2263 101.03 80.296 114.915 79.7033 132.224 85.7183 146.927 86.9695 150.275 88.605 153.469 90.0209 156.75 85.6085 154.226 80.757 152.514 76.4928 149.753 82.4035 167.063 93.6485 184.098 111.397 190.837 118.372 193.806 125.984 194.36 133.36 195.529 149.523 200.578 169.582 197.263 180.245 183.197 186.507 175.059 188.247 164.077 186.117 154.16 183.291 159.868 178.401 164.494 172.084 165.959 173.538 158.633 171.327 151.295 167.54 145.028 163.457 138.343 162.491 129.886 165.756 122.659 170.701 111.814 174.444 98.6866 168.682 87.3976 166.898 82.1839 165.641 85.3835 164.736 89.077 160.971 100.668 153.359 110.53 144.748 118.987 145.346 107.16 149.473 95.97 151.224 84.3462 152.228 78.4246 151.076 72.481 149.835 66.746 148.99 60.303 142.278 56.9937 139.441 51.4776 134.392 44.1379 132.713 35.0156 132.416 26.2533 131.692 27.2137 130.967 28.1741 130.238 29.1346Z" fill="url(#fill23)" fill-rule="evenodd" transform="matrix(-1 0 0 1.0004 1472.04 926.042)"/><path d="M128.459 190.612C103.258 163.989 98.9775 145.445 115.623 127.856 134.321 94.576 129.727 73.6555 116.095 53.6844 128.931 97.9018 100.882 126.429 91.8484 139.265 86.4592 122.626 91.0582 115.491 98.5055 95.048 83.9237 110.898 75.0494 130.073 80.4387 148.299 90.2624 175.717 113.4 181.738 128.459 190.612Z" stroke="#FFFF00" stroke-width="1.18339" stroke-opacity="0.50382" fill="url(#fill24)" fill-rule="evenodd" transform="matrix(-1 0 0 1.0004 1472.04 926.042)"/><path d="M159.039 90.0154C155.658 80.1918 158.419 78.0898 161.377 73.7982 164.428 72.6072 163.49 68.4638 165.158 59.2328 167.677 69.5339 174.449 74.2207 159.039 90.0154Z" stroke="#FFFF00" stroke-width="1.18339" stroke-opacity="0.50382" fill="#FFD700" fill-rule="evenodd" transform="matrix(-1 0 0 1.0004 1472.04 926.042)"/><path d="M162.837 57.6193C161.805 61.9988 162.271 66.8228 160.367 70.9114 155.894 74.325 153.946 80.6637 155.905 86.0475 156.514 90.5587 157.925 91.3381 160.427 87.2165 165.767 81.7229 170.767 73.8475 167.727 65.9722 166.355 61.9549 165.153 57.8773 163.622 53.9132 163.358 55.1497 163.095 56.3845 162.837 57.6193Z" fill="url(#fill25)" fill-rule="evenodd" transform="matrix(-1 0 0 1.0004 1472.04 926.042)"/><path d="M180.755 150.203C189.47 141.801 187.731 138.157 186.935 132.136 184.399 129.283 187.571 125.479 190.738 115.019 182.66 124.371 173.149 125.639 180.755 150.203Z" stroke="#FFFF00" stroke-width="1.18339" stroke-opacity="0.50382" fill="#FFD700" fill-rule="evenodd" transform="matrix(-1 0 0 1.0004 1472.04 926.042)"/><path d="M139.869 190.612C149.693 185.069 152.387 167.633 153.655 148.299 156.031 129.595 160.79 110.898 192.165 107.885 179.328 118.186 168.868 130.863 173.626 154.478 172.359 188.872 146.839 187.604 139.869 190.612Z" stroke="#FFFF00" stroke-width="1.18339" stroke-opacity="0.50382" fill="url(#fill26)" fill-rule="evenodd" transform="matrix(-1 0 0 1.0004 1472.04 926.042)"/><path d="M188.548 105.152C175.168 107.05 161.377 115.09 157.453 128.745 151.147 145.813 154.632 165.235 146.038 181.628 142.772 183.044 143.568 189.13 147.602 187.939 159.407 185.799 170.619 177.594 173.61 165.559 176.491 157.195 174.856 148.354 174.548 139.765 174.943 127.312 182.155 116.078 191.622 108.395 193.279 106.008 190.513 105.206 188.548 105.152Z" fill="url(#fill27)" fill-rule="evenodd" transform="matrix(-1 0 0 1.0004 1472.04 926.042)"/><path d="M188.713 111.677C183.324 117.384 175.498 122.724 175.69 131.5 175.289 137.789 177.528 143.782 178.922 149.819 183.604 145.352 188.922 139.534 187.209 132.488 187.193 129.387 184.855 126.67 186.693 123.646 188.455 118.855 190.299 114.092 191.528 109.119 190.59 109.97 189.651 110.821 188.713 111.677Z" fill="url(#fill28)" fill-rule="evenodd" transform="matrix(-1 0 0 1.0004 1472.04 926.042)"/><path d="M122.752 177.775C121.484 162.562 119.739 151.625 138.92 137.839 171.404 115.178 155.4 102.023 135.116 78.4081 141.137 101.864 131.467 120.562 123.229 133.086 117.84 140.851 99.1366 156.696 122.752 177.775Z" stroke="#FFFF00" stroke-width="1.18339" stroke-opacity="0.50382" fill="url(#fill29)" fill-rule="evenodd" transform="matrix(-1 0 0 1.0004 1472.04 926.042)"/><path d="M110.36 66.1752C119.135 56.0717 116.88 51.9134 115.447 44.9567 112.401 41.75 115.519 37.2064 118.016 24.9384 110.025 36.1198 99.7129 37.9797 110.36 66.1752Z" stroke="#FFFF00" stroke-width="1.18339" stroke-opacity="0.50382" fill="#FFD700" fill-rule="evenodd" transform="matrix(-1 0 0 1.0004 1472.04 926.042)"/><path d="M115.914 22.7854C110.804 29.4666 103.055 35.6319 103.461 44.8919 103.406 52.5917 106.441 59.7761 108.708 66.9984 113.34 61.7134 118.268 54.996 116.205 47.5459 116.221 44.5978 114.157 42.3092 114.097 39.5246 115.228 32.9526 117.56 26.604 118.482 19.9728 117.626 20.9101 116.77 21.848 115.914 22.7854Z" fill="url(#fill30)" fill-rule="evenodd" transform="matrix(-1 0 0 1.0004 1472.04 926.042)"/><path d="M134.623 74.4787C138.14 90.4654 134.518 107.314 126.429 121.358 121.407 131.017 111.501 138.415 110.557 149.901 109.043 159.917 116.259 168.264 122.944 174.729 125.666 178.154 123.334 170.059 123.701 168.166 122.615 158.315 124.305 147.262 132.252 140.506 141.104 131.895 153.727 125.929 157.963 113.554 160.834 102.627 153.189 92.8308 146.526 85.0707 142.509 80.1973 138.272 75.5159 134.057 70.8072 134.249 72.031 134.436 73.2548 134.623 74.4787Z" fill="url(#fill31)" fill-rule="evenodd" transform="matrix(-1 0 0 1.0004 1472.04 926.042)"/><path d="M118.658 60.292C119.003 67.8546 121.155 75.3403 120.167 82.9742 119.3 100.789 111.474 117.549 100.662 131.494 98.6591 134.343 96.5243 137.098 94.4553 139.902 91.6948 130.699 92.9406 120.771 96.6615 112.039 98.6207 107.369 99.9982 102.523 100.717 97.5067 90.3886 106.93 83.095 119.772 80.532 133.525 78.452 146.241 82.9248 159.313 91.36 168.868 101.963 181.381 117.214 188.411 131.999 194.695 123.624 182.918 111.962 172.287 109.487 157.398 107.786 148.754 111.188 140.083 116.869 133.618 123.366 124.689 127.411 114.075 129.815 103.351 132.938 89.3953 130.435 74.2976 122.807 62.1964 120.924 60.8189 117.56 53.5872 118.658 60.292Z" fill="url(#fill32)" fill-rule="evenodd" transform="matrix(-1 0 0 1.0004 1472.04 926.042)"/></g></g></g><text fill="#DA4453" font-family="Arial,Arial_MSFontService,sans-serif" font-weight="400" font-size="64" transform="matrix(1 0 0 1 962.997 778)"></text><text fill="#DA4453" font-family="Arial,Arial_MSFontService,sans-serif" font-weight="400" font-size="64" transform="matrix(1 0 0 1 984.195 778)">Dumb</text><text fill="#DA4453" font-family="Arial,Arial_MSFontService,sans-serif" font-weight="400" font-size="64" transform="matrix(1 0 0 1 1154.92 778)"> Firewall</text><text fill="#D9D8DC" font-family="Arial,Arial_MSFontService,sans-serif" font-weight="400" font-size="50" transform="matrix(1 0 0 1 1111.41 1179)">block all</text><text fill="#D9D8DC" font-family="Arial,Arial_MSFontService,sans-serif" font-weight="400" font-size="50" transform="matrix(1 0 0 1 954.43 1240)">allow</text><text fill="#DA4453" font-family="Arial,Arial_MSFontService,sans-serif" font-weight="400" font-size="50" transform="matrix(1 0 0 1 1083.91 1240)">TCP</text><text fill="#EB99A1" font-family="Arial,Arial_MSFontService,sans-serif" font-weight="400" font-size="50" transform="matrix(1 0 0 1 1199.07 1240)">80</text><text fill="#D9D8DC" font-family="Arial,Arial_MSFontService,sans-serif" font-weight="400" font-size="50" transform="matrix(1 0 0 1 1268.96 1240)">and </text><text fill="#EB99A1" font-family="Arial,Arial_MSFontService,sans-serif" font-weight="400" font-size="50" transform="matrix(1 0 0 1 1366.93 1240)">443</text><path d="M1465.5 1136.04 1783.1 1136.04C1789.43 1136.04 1794.56 1141.17 1794.56 1147.5 1794.56 1153.83 1789.43 1158.96 1783.1 1158.96L1465.5 1158.96C1459.17 1158.96 1454.04 1153.83 1454.04 1147.5 1454.04 1141.17 1459.17 1136.04 1465.5 1136.04ZM1771.64 1113.13 1840.39 1147.5 1771.64 1181.88Z" fill="#EB99A1"/><path d="M1529 1123.5C1529 1116.6 1534.6 1111 1541.5 1111L1695.5 1111C1702.4 1111 1708 1116.6 1708 1123.5L1708 1173.5C1708 1180.4 1702.4 1186 1695.5 1186L1541.5 1186C1534.6 1186 1529 1180.4 1529 1173.5Z" fill="#EB99A1" fill-rule="evenodd"/><text fill="#FFFFFF" font-family="Arial,Arial_MSFontService,sans-serif" font-weight="400" font-size="41" transform="matrix(1 0 0 1 1564.64 1164)">HTTP</text><path d="M1465.5 1009.04 1783.1 1009.04C1789.43 1009.04 1794.56 1014.17 1794.56 1020.5 1794.56 1026.83 1789.43 1031.96 1783.1 1031.96L1465.5 1031.96C1459.17 1031.96 1454.04 1026.83 1454.04 1020.5 1454.04 1014.17 1459.17 1009.04 1465.5 1009.04ZM1771.64 986.125 1840.39 1020.5 1771.64 1054.88Z" fill="#DA4453"/><path d="M1529 996.5C1529 989.597 1534.6 984 1541.5 984L1695.5 984C1702.4 984 1708 989.597 1708 996.5L1708 1046.5C1708 1053.4 1702.4 1059 1695.5 1059L1541.5 1059C1534.6 1059 1529 1053.4 1529 1046.5Z" fill="#DA4453" fill-rule="evenodd"/><text fill="#FFFFFF" font-family="Arial,Arial_MSFontService,sans-serif" font-weight="400" font-size="41" transform="matrix(1 0 0 1 1550.89 1037)">HTTPS</text><path d="M1465.5 886.042 1465.52 886.042C1471.85 886.042 1476.98 891.172 1476.98 897.5 1476.98 903.828 1471.85 908.958 1465.52 908.958L1465.5 908.958C1459.17 908.958 1454.04 903.828 1454.04 897.5 1454.04 891.172 1459.17 886.042 1465.5 886.042ZM1511.36 886.042 1511.38 886.042C1517.71 886.042 1522.84 891.172 1522.84 897.5 1522.84 903.828 1517.71 908.958 1511.38 908.958L1511.36 908.958C1505.03 908.958 1499.9 903.828 1499.9 897.5 1499.9 891.172 1505.03 886.042 1511.36 886.042ZM1557.21 886.042 1557.24 886.042C1563.56 886.042 1568.69 891.172 1568.69 897.5 1568.69 903.828 1563.56 908.958 1557.24 908.958L1557.21 908.958C1550.88 908.958 1545.75 903.828 1545.75 897.5 1545.75 891.172 1550.88 886.042 1557.21 886.042ZM1603.07 886.042 1603.09 886.042C1609.42 886.042 1614.55 891.172 1614.55 897.5 1614.55 903.828 1609.42 908.959 1603.09 908.958L1603.07 908.958C1596.74 908.958 1591.61 903.828 1591.61 897.5 1591.61 891.172 1596.74 886.042 1603.07 886.042ZM1648.92 886.042 1648.95 886.042C1655.28 886.042 1660.41 891.172 1660.41 897.5 1660.41 903.828 1655.28 908.959 1648.95 908.959L1648.92 908.959C1642.6 908.959 1637.47 903.828 1637.47 897.5 1637.47 891.172 1642.6 886.042 1648.92 886.042ZM1694.78 886.042 1694.8 886.042C1701.13 886.042 1706.26 891.172 1706.26 897.5 1706.26 903.829 1701.13 908.959 1694.8 908.959L1694.78 908.959C1688.45 908.959 1683.32 903.829 1683.32 897.5 1683.32 891.172 1688.45 886.042 1694.78 886.042ZM1740.64 886.042 1740.66 886.042C1746.99 886.042 1752.12 891.172 1752.12 897.5 1752.12 903.829 1746.99 908.959 1740.66 908.959L1740.64 908.959C1734.31 908.959 1729.18 903.829 1729.18 897.5 1729.18 891.172 1734.31 886.042 1740.64 886.042ZM1771.64 863.125 1840.39 897.5 1771.64 931.875Z" fill="#7F7F7F"/><path d="M1529 873.5C1529 866.597 1534.6 861 1541.5 861L1695.5 861C1702.4 861 1708 866.597 1708 873.5L1708 923.5C1708 930.404 1702.4 936 1695.5 936L1541.5 936C1534.6 936 1529 930.404 1529 923.5Z" fill="#7F7F7F" fill-rule="evenodd"/><text fill="#F0F0F0" font-family="Arial,Arial_MSFontService,sans-serif" font-weight="400" font-size="41" transform="matrix(1 0 0 1 1576.1 914)">SSH</text></g></svg>