<svg width="2851" height="586" xmlns="http://www.w3.org/2000/svg" xmlns:xlink="http://www.w3.org/1999/xlink" xml:space="preserve" overflow="hidden"><defs><clipPath id="clip0"><path d="M2603.49 685.555C2593.53 685.555 2585.5 693.578 2585.5 703.541L2585.5 924.935C2585.5 934.901 2593.53 942.923 2603.49 942.923L2820.84 942.923C2830.8 942.923 2838.83 934.901 2838.83 924.935L2838.83 703.541C2838.83 693.578 2830.8 685.555 2820.84 685.555Z"/></clipPath><linearGradient x1="135.165" y1="8.57864" x2="135.165" y2="261.899" gradientUnits="userSpaceOnUse" spreadMethod="pad" id="stroke1"><stop offset="0" stop-color="#E8E8E8"/><stop offset="0.165222" stop-color="#E9E9E9" stop-opacity="0"/><stop offset="1" stop-color="#E9E9E9" stop-opacity="0"/></linearGradient><linearGradient x1="134.989" y1="41.6685" x2="134.989" y2="276.599" gradientUnits="userSpaceOnUse" spreadMethod="pad" id="stroke2"><stop offset="0" stop-color="#494949"/><stop offset="1" stop-color="#FFFFFF"/></linearGradient><clipPath id="clip3"><path d="M2603.49 871.56C2593.53 871.56 2585.5 879.588 2585.5 889.559L2585.5 1049.76C2585.5 1059.73 2593.53 1067.76 2603.49 1067.76L2820.84 1067.76C2830.8 1067.76 2838.83 1059.73 2838.83 1049.76L2838.83 889.559C2838.83 879.588 2830.8 871.56 2820.84 871.56Z"/></clipPath><linearGradient x1="135.165" y1="8.57864" x2="135.165" y2="261.899" gradientUnits="userSpaceOnUse" spreadMethod="pad" id="stroke4"><stop offset="0" stop-color="#E8E8E8"/><stop offset="0.165222" stop-color="#E9E9E9" stop-opacity="0"/><stop offset="1" stop-color="#E9E9E9" stop-opacity="0"/></linearGradient><linearGradient x1="134.989" y1="41.6685" x2="134.989" y2="276.599" gradientUnits="userSpaceOnUse" spreadMethod="pad" id="stroke5"><stop offset="0" stop-color="#491616"/><stop offset="1" stop-color="#EEEEEE"/></linearGradient><radialGradient cx="270.08" cy="197.85" r="143.18" gradientUnits="userSpaceOnUse" spreadMethod="pad" id="fill6" gradientTransform="matrix(1.64209 -0.0316973 0.0258505 1.33917 -238.234 21.5261)"><stop offset="0" stop-color="#C74615"/><stop offset="1" stop-color="#6E260B"/></radialGradient><linearGradient x1="-51.124" y1="135.988" x2="288.466" y2="135.988" gradientUnits="userSpaceOnUse" spreadMethod="pad" id="fill7"><stop offset="0" stop-color="#3B1E05"/><stop offset="1" stop-color="#3B1E05" stop-opacity="0"/></linearGradient><linearGradient x1="120.915" y1="224.099" x2="154.204" y2="79.4634" gradientUnits="userSpaceOnUse" spreadMethod="pad" id="fill8"><stop offset="0" stop-color="#DC0000"/><stop offset="1" stop-color="#FFB200"/></linearGradient><linearGradient x1="17.33" y1="36.718" x2="187.134" y2="240.218" gradientUnits="userSpaceOnUse" spreadMethod="pad" id="fill9"><stop offset="0" stop-color="#FFFFFF"/><stop offset="1" stop-color="#FFFFFF" stop-opacity="0"/></linearGradient><linearGradient x1="139.603" y1="217.726" x2="126.965" y2="143.041" gradientUnits="userSpaceOnUse" spreadMethod="pad" id="fill10"><stop offset="0" stop-color="#DC0000"/><stop offset="1" stop-color="#FFB200"/></linearGradient><linearGradient x1="191.357" y1="89.603" x2="205.244" y2="89.603" gradientUnits="userSpaceOnUse" spreadMethod="pad" id="fill11"><stop offset="0" stop-color="#FFFFFF" stop-opacity="0.44928"/><stop offset="1" stop-color="#FFFFFF" stop-opacity="0"/></linearGradient><linearGradient x1="185.357" y1="219.98" x2="222.072" y2="144.79" gradientUnits="userSpaceOnUse" spreadMethod="pad" id="fill12"><stop offset="0" stop-color="#DC0000"/><stop offset="1" stop-color="#FFB200"/></linearGradient><linearGradient x1="284.162" y1="137.524" x2="185.687" y2="223.228" gradientUnits="userSpaceOnUse" spreadMethod="pad" id="fill13"><stop offset="0" stop-color="#FFFFFF"/><stop offset="1" stop-color="#FFFFFF" stop-opacity="0"/></linearGradient><linearGradient x1="216.443" y1="159.265" x2="232.088" y2="159.265" gradientUnits="userSpaceOnUse" spreadMethod="pad" id="fill14"><stop offset="0" stop-color="#FFFFFF" stop-opacity="0.44928"/><stop offset="1" stop-color="#FFFFFF" stop-opacity="0"/></linearGradient><linearGradient x1="151.227" y1="251.962" x2="166.373" y2="139.772" gradientUnits="userSpaceOnUse" spreadMethod="pad" id="fill15"><stop offset="0" stop-color="#DC0000"/><stop offset="1" stop-color="#FFB200"/></linearGradient><linearGradient x1="128.063" y1="53.9938" x2="143.018" y2="53.9938" gradientUnits="userSpaceOnUse" spreadMethod="pad" id="fill16"><stop offset="0" stop-color="#FFFFFF" stop-opacity="0.44928"/><stop offset="1" stop-color="#FFFFFF" stop-opacity="0"/></linearGradient><linearGradient x1="106.604" y1="51.6399" x2="172.567" y2="206.006" gradientUnits="userSpaceOnUse" spreadMethod="pad" id="fill17"><stop offset="0" stop-color="#FFFFFF"/><stop offset="1" stop-color="#FFFFFF" stop-opacity="0"/></linearGradient><linearGradient x1="62.3644" y1="91.4236" x2="114.56" y2="239.781" gradientUnits="userSpaceOnUse" spreadMethod="pad" id="fill18"><stop offset="0" stop-color="#FFFFFF"/><stop offset="1" stop-color="#FFFFFF" stop-opacity="0"/></linearGradient><linearGradient x1="98.7644" y1="183.046" x2="125.955" y2="64.9065" gradientUnits="userSpaceOnUse" spreadMethod="pad" id="fill19"><stop offset="0" stop-color="#DC0000"/><stop offset="1" stop-color="#FFB200"/></linearGradient><linearGradient x1="14.1553" y1="29.9917" x2="152.853" y2="196.213" gradientUnits="userSpaceOnUse" spreadMethod="pad" id="fill20"><stop offset="0" stop-color="#FFFFFF"/><stop offset="1" stop-color="#FFFFFF" stop-opacity="0"/></linearGradient><linearGradient x1="114.029" y1="177.84" x2="103.706" y2="116.838" gradientUnits="userSpaceOnUse" spreadMethod="pad" id="fill21"><stop offset="0" stop-color="#DC0000"/><stop offset="1" stop-color="#FFB200"/></linearGradient><linearGradient x1="156.302" y1="73.1886" x2="167.645" y2="73.1886" gradientUnits="userSpaceOnUse" spreadMethod="pad" id="fill22"><stop offset="0" stop-color="#FFFFFF" stop-opacity="0.44928"/><stop offset="1" stop-color="#FFFFFF" stop-opacity="0"/></linearGradient><linearGradient x1="151.401" y1="179.682" x2="181.391" y2="118.266" gradientUnits="userSpaceOnUse" spreadMethod="pad" id="fill23"><stop offset="0" stop-color="#DC0000"/><stop offset="1" stop-color="#FFB200"/></linearGradient><linearGradient x1="232.106" y1="112.331" x2="151.671" y2="182.335" gradientUnits="userSpaceOnUse" spreadMethod="pad" id="fill24"><stop offset="0" stop-color="#FFFFFF"/><stop offset="1" stop-color="#FFFFFF" stop-opacity="0"/></linearGradient><linearGradient x1="176.793" y1="130.09" x2="189.572" y2="130.09" gradientUnits="userSpaceOnUse" spreadMethod="pad" id="fill25"><stop offset="0" stop-color="#FFFFFF" stop-opacity="0.44928"/><stop offset="1" stop-color="#FFFFFF" stop-opacity="0"/></linearGradient><linearGradient x1="123.524" y1="205.805" x2="135.895" y2="114.167" gradientUnits="userSpaceOnUse" spreadMethod="pad" id="fill26"><stop offset="0" stop-color="#DC0000"/><stop offset="1" stop-color="#FFB200"/></linearGradient><linearGradient x1="104.603" y1="44.1027" x2="116.818" y2="44.1027" gradientUnits="userSpaceOnUse" spreadMethod="pad" id="fill27"><stop offset="0" stop-color="#FFFFFF" stop-opacity="0.44928"/><stop offset="1" stop-color="#FFFFFF" stop-opacity="0"/></linearGradient><linearGradient x1="87.0751" y1="42.18" x2="140.954" y2="168.268" gradientUnits="userSpaceOnUse" spreadMethod="pad" id="fill28"><stop offset="0" stop-color="#FFFFFF"/><stop offset="1" stop-color="#FFFFFF" stop-opacity="0"/></linearGradient><linearGradient x1="50.9399" y1="74.6757" x2="93.5738" y2="195.855" gradientUnits="userSpaceOnUse" spreadMethod="pad" id="fill29"><stop offset="0" stop-color="#FFFFFF"/><stop offset="1" stop-color="#FFFFFF" stop-opacity="0"/></linearGradient></defs><g transform="translate(-21 -555)"><g><g><g><path d="M243.84 6.55687C253.773 6.55687 261.825 14.6091 261.825 24.542L261.825 141.656C261.825 151.589 253.773 159.641 243.84 159.641L26.4902 159.641C16.5572 159.641 8.50502 151.589 8.50502 141.656L8.50502 24.542C8.50502 14.6091 16.5572 6.55687 26.4902 6.55687Z" fill="#949494" transform="matrix(1 0 0 1 2577 679)"/><g clip-path="url(#clip0)"><path d="M26.4912 6.55506C16.5274 6.55506 8.50476 14.5777 8.50476 24.5414L8.50476 245.935C8.50476 255.901 16.5274 263.922 26.4912 263.922L243.838 263.922C253.801 263.922 261.825 255.901 261.825 245.935L261.825 24.5414C261.825 14.5777 253.801 6.55506 243.838 6.55506Z" stroke="url(#stroke1)" stroke-width="8.40624" fill="none" transform="matrix(1 0 0 1 2577 679)"/></g><path d="M188.81 33.3057C188.81 40.3844 183.071 46.1228 175.993 46.1228 168.914 46.1228 163.176 40.3844 163.176 33.3058 163.176 26.2271 168.914 20.4887 175.993 20.4887 183.071 20.4887 188.81 26.2271 188.81 33.3057Z" fill="#363C40" transform="matrix(1 0 0 1 2577 679)"/><path d="M188.81 33.3057C188.81 40.3844 183.071 46.1228 175.993 46.1228 168.914 46.1228 163.176 40.3844 163.176 33.3058 163.176 26.2271 168.914 20.4887 175.993 20.4887 183.071 20.4887 188.81 26.2271 188.81 33.3057Z" fill="#363C40" transform="matrix(1 0 0 1 2605.58 679)"/><path d="M188.81 33.3057C188.81 40.3844 183.071 46.1228 175.993 46.1228 168.914 46.1228 163.176 40.3844 163.176 33.3058 163.176 26.2271 168.914 20.4887 175.993 20.4887 183.071 20.4887 188.81 26.2271 188.81 33.3057Z" fill="#363C40" transform="matrix(1 0 0 1 2634.16 679)"/><path d="M241.784 59.9098C248.816 59.9098 254.517 65.6107 254.517 72.6432L254.517 139.793C254.517 146.826 248.816 152.526 241.784 152.526L28.0132 152.526C20.9808 152.526 15.2799 146.826 15.2799 139.793L15.2799 72.6432C15.2799 65.6107 20.9808 59.9098 28.0132 59.9098Z" stroke="url(#stroke2)" stroke-width="4.41328" fill="#120C0C" transform="matrix(1 0 0 1 2577 679)"/></g></g></g><path d="M2252.5 764.042 2252.52 764.042C2258.85 764.042 2263.98 769.172 2263.98 775.5 2263.98 781.828 2258.85 786.958 2252.52 786.958L2252.5 786.958C2246.17 786.958 2241.04 781.828 2241.04 775.5 2241.04 769.172 2246.17 764.042 2252.5 764.042ZM2298.36 764.042 2298.38 764.042C2304.71 764.042 2309.84 769.172 2309.84 775.5 2309.84 781.828 2304.71 786.958 2298.38 786.958L2298.36 786.958C2292.03 786.958 2286.9 781.828 2286.9 775.5 2286.9 769.172 2292.03 764.042 2298.36 764.042ZM2344.21 764.042 2344.24 764.042C2350.56 764.042 2355.69 769.172 2355.69 775.5 2355.69 781.828 2350.56 786.958 2344.24 786.958L2344.21 786.958C2337.88 786.958 2332.75 781.828 2332.75 775.5 2332.75 769.172 2337.88 764.042 2344.21 764.042ZM2390.07 764.042 2390.09 764.042C2396.42 764.042 2401.55 769.172 2401.55 775.5 2401.55 781.828 2396.42 786.958 2390.09 786.958L2390.07 786.958C2383.74 786.958 2378.61 781.828 2378.61 775.5 2378.61 769.172 2383.74 764.042 2390.07 764.042ZM2435.93 764.042 2435.95 764.042C2442.28 764.042 2447.41 769.172 2447.41 775.5 2447.41 781.828 2442.28 786.959 2435.95 786.959L2435.93 786.959C2429.6 786.959 2424.47 781.828 2424.47 775.5 2424.47 769.172 2429.6 764.042 2435.93 764.042ZM2481.78 764.042 2481.8 764.042C2488.13 764.042 2493.26 769.172 2493.26 775.5 2493.26 781.829 2488.13 786.959 2481.8 786.959L2481.78 786.959C2475.45 786.959 2470.32 781.829 2470.32 775.5 2470.32 769.172 2475.45 764.042 2481.78 764.042ZM2496.1 752.584 2541.94 775.5 2496.1 798.417Z" fill="#7F7F7F"/><path d="M2250.5 914.042 2505.56 914.042C2511.89 914.042 2517.02 919.172 2517.02 925.5 2517.02 931.828 2511.89 936.959 2505.56 936.959L2250.5 936.958C2244.17 936.958 2239.04 931.828 2239.04 925.5 2239.04 919.172 2244.17 914.042 2250.5 914.042ZM2494.1 902.583 2539.94 925.5 2494.1 948.417Z" fill="#DA4453"/><g><g><g><path d="M38.7667 19.6961 232.599 131.606 232.599 265.896 38.7667 153.988Z" fill-rule="evenodd" transform="matrix(1 0 0 1.00264 137.09 694.921)"/><path d="M232.599 265.896 116.3 333.043-77.5331 221.133 38.7667 153.988Z" fill="#F2F2F2" fill-rule="evenodd" transform="matrix(1 0 0 1.00264 137.09 694.921)"/><path d="M-77.5331 221.133-77.5331 230.086 116.3 341.995 116.3 333.043Z" fill="#E6E6E6" fill-rule="evenodd" transform="matrix(1 0 0 1.00264 137.09 694.921)"/><path d="M116.3 341.995 232.599 274.851 232.599 265.896 116.3 333.043Z" fill="#CCCCCC" fill-rule="evenodd" transform="matrix(1 0 0 1.00264 137.09 694.921)"/><path d="M232.599 131.606 240.353 127.129 46.52 15.2197 38.7667 19.6961Z" fill="#E6E6E6" fill-rule="evenodd" transform="matrix(1 0 0 1.00264 137.09 694.921)"/><path d="M38.7667 162.94 217.093 265.896 155.066 301.707-23.2599 198.751 38.7667 162.94Z" fill="#B3B3B3" fill-rule="evenodd" transform="matrix(1 0 0 1.00264 137.09 694.921)"/><path d="M38.7667 243.515 77.5331 265.896 46.52 283.803 7.75331 261.422Z" fill="#B3B3B3" fill-rule="evenodd" transform="matrix(1 0 0 1.00264 137.09 694.921)"/><path d="M46.52 33.1251 224.846 136.082 224.846 252.468 46.52 149.511Z" fill="#00A1E5" fill-rule="evenodd" transform="matrix(1 0 0 1.00264 137.09 694.921)"/><path d="M232.599 131.606 240.353 127.129 240.353 270.374 232.599 274.851Z" fill="#CCCCCC" fill-rule="evenodd" transform="matrix(1 0 0 1.00264 137.09 694.921)"/></g></g></g><g><g><g><path d="M370.032 148C373.167 153.141 372.164 398.429 368.089 408.082 364.892 415.73 261.336 501.797 255.945 504.054 185.925 503.615 138.723 478.102 130.887 464.625 127.878 447.7 130.448 186.74 133.269 181.286 135.777 176.522 268.231 129.069 272.87 127.941 277.07 127.001 366.459 142.296 370.032 148Z" fill="#C7C7C7" transform="matrix(-1 0 0 1.00165 2311.69 561.484)"/><path d="M364.955 153.078 361.695 154.457 358.436 155.899 355.176 157.341 351.854 158.908 348.531 160.475 345.209 162.105 341.887 163.734 338.502 165.427 335.117 167.119 331.732 168.875 328.284 170.63 324.899 172.448 321.451 174.266 318.003 176.084 311.045 179.845 304.025 183.606 297.004 187.367 289.92 191.191 282.774 194.952 275.628 198.713 268.482 202.411 264.909 204.229 261.336 206.047 257.7 207.802 254.127 209.558 252.434 209.181 250.679 208.743 247.169 207.928 243.533 207.05 239.835 206.235 236.074 205.358 232.25 204.48 228.426 203.602 224.477 202.725 220.59 201.847 216.641 200.907 208.68 199.152 200.719 197.397 196.707 196.519 192.758 195.641 188.871 194.826 184.985 194.012 181.161 193.197 177.4 192.382 173.639 191.567 170.003 190.815 166.43 190.062 164.675 189.749 162.92 189.373 161.227 189.059 159.535 188.683 157.842 188.37 156.212 188.056 154.582 187.743 153.015 187.367 151.448 187.116 149.944 186.803 148.439 186.489 146.935 186.239 145.493 185.988 144.114 185.674 142.735 185.424 141.418 185.236 140.102 184.985 138.848 184.734 142.108 185.737 145.368 186.74 148.69 187.743 152.075 188.683 155.523 189.686 158.97 190.627 162.543 191.63 166.054 192.57 169.627 193.573 173.263 194.513 180.534 196.456 187.868 198.337 195.265 200.28 202.662 202.223 209.996 204.104 217.268 206.047 220.904 206.987 224.477 207.99 228.05 208.931 231.56 209.934 235.008 210.874 238.456 211.877 241.841 212.817 245.163 213.82 248.423 214.823 251.682 215.826 251.745 219.587 251.87 223.411 251.933 227.235 251.996 231.184 252.058 235.196 252.184 239.208 252.246 243.282 252.309 247.42 252.372 251.62 252.434 255.819 252.497 260.082 252.497 264.407 252.56 268.733 252.622 273.121 252.685 277.509 252.685 281.959 252.748 286.41 252.748 290.923 252.811 295.437 252.873 300.013 252.936 309.165 252.999 318.38 252.999 327.72 253.061 337.06 253.187 355.803 253.249 374.608 253.312 383.949 253.375 393.226 253.437 402.441 253.5 411.593 253.563 416.169 253.563 420.682 253.625 425.196 253.688 429.646 253.688 434.097 253.751 438.548 253.814 442.873 253.876 447.261 253.876 451.524 253.939 455.786 254.002 459.986 254.064 464.186 254.127 468.323 254.19 472.398 254.252 476.472 254.378 480.422 254.44 484.371 254.503 488.257 254.628 492.081 254.691 495.842 254.754 492.018 254.816 488.195 254.816 484.245 254.879 480.296 254.942 476.284 255.005 472.21 255.067 468.073 255.13 463.873 255.193 459.673 255.255 455.41 255.318 451.085 255.443 446.759 255.506 442.371 255.569 437.921 255.631 433.47 255.694 428.957 255.757 424.443 255.882 419.867 255.945 415.291 256.008 410.715 256.196 401.438 256.384 392.098 256.509 382.632 256.697 373.167 257.073 354.173 257.387 335.179 257.575 325.714 257.763 316.311 257.888 306.971 258.076 297.631 258.139 293.055 258.264 288.479 258.327 283.903 258.39 279.389 258.452 274.939 258.515 270.425 258.578 266.037 258.703 261.649 258.766 257.261 258.828 252.999 258.891 248.736 258.954 244.473 259.016 240.336 259.079 236.199 259.142 232.124 259.204 228.112 259.267 224.101 259.267 220.214 259.33 216.328 259.393 212.566 266.288 208.868 273.121 205.17 279.953 201.597 286.786 197.961 293.556 194.388 300.263 190.752 306.971 187.179 313.678 183.543 320.26 179.907 326.842 176.272 333.361 172.51 339.818 168.749 343.015 166.869 346.149 164.926 349.346 162.982 352.48 161.039 355.615 159.096 358.749 157.09 361.821 155.084Z" stroke="#FFFFFF" stroke-width="0.0626855" stroke-opacity="0.54118" fill="#FFFFFF" fill-opacity="0.54118" transform="matrix(-1 0 0 1.00165 2311.69 561.484)"/><path d="M151.699 415.479 152.326 416.357 152.953 417.172 153.642 417.987 154.394 418.802 155.147 419.554 155.899 420.306 156.776 421.058 157.591 421.811 158.469 422.563 159.409 423.252 160.349 423.942 161.352 424.631 162.293 425.321 163.358 425.948 164.361 426.575 165.427 427.264 166.555 427.828 167.684 428.455 168.812 429.019 169.94 429.521 171.131 430.085 172.322 430.587 173.513 431.088 174.704 431.59 177.212 432.53 179.719 433.407 182.289 434.16 184.859 434.849 187.492 435.476 190.062 436.04 192.695 436.542 195.265 436.918 197.835 437.294 200.405 437.482 201.722 437.607 202.976 437.67 204.167 437.733 205.42 437.733 206.674 437.733 207.865 437.733 209.056 437.67 210.247 437.607 211.375 437.545 212.566 437.482 213.632 437.357 214.76 437.169 215.826 437.043 216.892 436.855 217.957 436.604 218.96 436.354 219.901 436.103 220.841 435.852 221.781 435.539 222.722 435.225 222.596 435.163 222.533 435.163 222.22 435.037 221.844 434.975 221.405 434.849 220.904 434.724 220.277 434.536 219.65 434.348 218.898 434.16 218.083 433.909 217.205 433.721 216.265 433.47 215.262 433.157 214.259 432.906 213.131 432.592 212.002 432.279 210.811 431.966 209.558 431.59 208.304 431.276 206.987 430.9 205.608 430.524 204.229 430.148 202.85 429.772 201.408 429.333 199.904 428.957 196.895 428.142 193.824 427.264 190.689 426.387 187.555 425.572 184.421 424.631 181.286 423.817 178.215 422.939 175.143 422.124 173.701 421.685 172.197 421.309 170.755 420.87 169.376 420.494 167.997 420.118 166.681 419.742 165.364 419.366 164.111 419.052 162.92 418.676 161.729 418.363 160.6 418.049 159.535 417.736 158.532 417.485 157.591 417.172 156.651 416.921 155.836 416.67 155.084 416.482 154.332 416.294 153.705 416.106 153.141 415.918 152.702 415.793 152.263 415.667 151.95 415.542 151.824 415.542Z" stroke="#FFFFFF" stroke-width="0.0626855" stroke-opacity="0.16078" fill="#000000" fill-opacity="0.16078" transform="matrix(-1 0 0 1.00165 2311.69 561.484)"/><path d="M216.516 381.943 157.842 359.313 157.278 359.564 156.776 359.815 156.275 360.065 155.899 360.379 155.523 360.755 155.147 361.131 154.833 361.57 154.52 361.946 154.269 362.385 154.018 362.824 153.83 363.262 153.642 363.764 153.454 364.265 153.329 364.704 153.141 365.644 153.015 366.585 152.89 367.462 152.89 367.838 152.89 368.277 152.89 368.591 152.89 368.967 152.89 369.28 152.89 369.531 152.89 369.782 152.953 370.032 152.953 370.158 152.953 370.283 152.953 370.346 152.953 370.409 162.105 373.605 162.167 373.668 162.23 373.731 162.293 373.794 162.355 373.919 162.481 374.044 162.543 374.232 162.732 374.42 162.857 374.608 163.045 374.859 163.233 375.11 163.421 375.361 163.672 375.674 163.923 375.925 164.173 376.301 164.487 376.552 165.114 377.304 165.74 377.993 166.555 378.746 167.37 379.498 168.248 380.313 169.188 381.065 170.254 381.88 171.319 382.632 172.51 383.384 173.701 384.074 175.018 384.763 176.397 385.39 177.086 385.641 177.776 385.955 178.528 386.205 179.28 386.456 180.095 386.644 180.848 386.832 181.663 387.02 182.477 387.208 183.292 387.334 184.107 387.396 184.985 387.522 185.862 387.584 186.74 387.584 187.68 387.584 188.621 387.584 189.561 387.522 190.501 387.396 191.441 387.271 192.444 387.146 193.447 386.957 194.45 386.707 195.453 386.456 196.519 386.143 197.585 385.766 197.647 385.766 197.773 385.829 197.961 385.829 198.337 385.892 198.713 385.955 199.152 386.017 199.653 386.08 200.217 386.143 200.844 386.205 201.534 386.268 202.286 386.331 203.038 386.393 203.79 386.393 204.605 386.456 206.235 386.456 207.113 386.393 207.928 386.331 208.805 386.268 209.62 386.143 210.435 386.017 211.187 385.829 211.94 385.641 212.692 385.453 213.319 385.14 214.008 384.826 214.572 384.45 215.074 384.074 215.575 383.572 215.763 383.322 215.951 383.071 216.14 382.82 216.265 382.569 216.39 382.256Z" stroke="#FFFFFF" stroke-width="0.0626855" stroke-opacity="0.38824" fill="#FFFFFF" fill-opacity="0.38824" transform="matrix(-1 0 0 1.00165 2311.69 561.484)"/><path d="M216.014 374.295C196.519 369.217 177.024 364.203 157.529 359.125 156.776 361.883 156.714 365.832 157.905 367.901 160.851 369.343 166.806 370.471 169.752 371.913 178.278 380.125 185.737 380.814 199.34 379.686 204.605 380.752 209.871 381.629 215.074 382.695 216.704 379.498 217.143 378.182 216.014 374.295Z" fill="#606060" transform="matrix(-1 0 0 1.00165 2311.69 561.484)"/><path d="M367.086 151.323 253.437 215.074 253.876 500.23 365.143 406.578Z" stroke="#FFFFFF" stroke-width="0.0626855" stroke-opacity="0.4" fill="#FFFFFF" fill-opacity="0.4" transform="matrix(-1 0 0 1.00165 2311.69 561.484)"/><path d="M158.281 433.533 158.908 434.348 159.597 435.1 160.224 435.915 160.914 436.604 161.603 437.357 162.293 438.046 163.045 438.736 163.797 439.363 164.549 439.989 165.302 440.616 166.117 441.243 166.869 441.807 167.684 442.371 168.499 442.873 170.191 443.939 171.946 444.879 173.701 445.756 175.457 446.571 177.275 447.261 179.092 447.95 180.973 448.515 182.854 449.016 184.671 449.518 186.552 449.894 188.433 450.207 190.313 450.458 192.194 450.646 194.074 450.771 195.892 450.897 197.71 450.897 199.528 450.834 201.22 450.709 202.976 450.583 204.668 450.395 206.298 450.082 207.865 449.768 209.37 449.392 210.874 449.016 212.253 448.515 212.128 448.452 211.877 448.452 211.626 448.327 211.313 448.264 210.937 448.139 210.435 448.013 209.934 447.888 209.37 447.762 208.743 447.574 208.116 447.386 207.426 447.198 206.674 447.01 205.859 446.759 205.044 446.571 204.167 446.321 203.226 446.07 202.286 445.819 201.346 445.506 200.343 445.255 199.34 444.942 198.274 444.691 197.146 444.377 194.952 443.751 192.695 443.124 190.313 442.497 187.931 441.87 185.549 441.18 180.785 439.864 178.466 439.237 176.146 438.548 173.89 437.921 172.824 437.67 171.758 437.357 170.693 437.043 169.69 436.792 168.687 436.479 167.746 436.228 166.806 435.978 165.928 435.727 165.051 435.476 164.236 435.225 163.484 435.037 162.794 434.849 162.042 434.661 161.415 434.473 160.851 434.285 160.349 434.16 159.848 433.972 159.409 433.909 159.033 433.784 158.72 433.658 158.469 433.595Z" stroke="#FFFFFF" stroke-width="0.0626855" stroke-opacity="0.16078" fill="#000000" fill-opacity="0.16078" transform="matrix(-1 0 0 1.00165 2311.69 561.484)"/><path d="M167.997 451.273 168.749 452.213 169.502 453.091 170.316 453.968 171.194 454.72 172.072 455.535 172.949 456.225 173.89 456.914 174.893 457.604 175.833 458.168 176.898 458.732 177.901 459.297 178.967 459.735 180.095 460.174 181.161 460.613 182.289 460.926 183.418 461.24 184.546 461.553 185.737 461.741 186.865 461.992 188.056 462.117 189.185 462.243 190.376 462.305 191.567 462.305 192.758 462.305 193.886 462.243 195.077 462.117 196.206 461.992 197.397 461.804 198.525 461.553 199.653 461.302 200.782 460.989 201.847 460.613 201.785 460.613 201.659 460.55 201.471 460.55 201.22 460.488 201.032 460.425 200.719 460.299 200.405 460.237 200.029 460.111 199.653 460.049 199.277 459.923 198.838 459.798 198.337 459.673 197.835 459.547 197.334 459.359 196.77 459.234 196.206 459.108 195.015 458.732 193.761 458.419 192.382 458.043 191.003 457.667 189.561 457.291 188.119 456.852 185.11 456.037 182.101 455.222 180.66 454.783 179.218 454.407 177.776 454.031 176.46 453.655 175.143 453.279 173.952 452.903 173.388 452.777 172.824 452.589 172.26 452.464 171.758 452.338 171.257 452.213 170.818 452.088 170.379 451.962 170.003 451.837 169.627 451.712 169.313 451.586 169 451.524 168.687 451.461 168.499 451.398 168.311 451.335 168.122 451.273Z" stroke="#FFFFFF" stroke-width="0.0626855" stroke-opacity="0.16078" fill="#000000" fill-opacity="0.16078" transform="matrix(-1 0 0 1.00165 2311.69 561.484)"/><path d="M147.687 204.292 141.92 205.107 140.854 341.322 230.181 366.334 232.375 359.062 146.559 336.182Z" stroke="#FFFFFF" stroke-width="0.0626855" stroke-opacity="0.43922" fill="#FCFCFC" fill-opacity="0.43922" transform="matrix(-1 0 0 1.00165 2311.69 561.484)"/><path d="M231.936 254.816 231.811 258.64 147.812 234.444Z" stroke="#FFFFFF" stroke-width="0.0626855" stroke-opacity="0.23137" fill="#000000" fill-opacity="0.23137" transform="matrix(-1 0 0 1.00165 2311.69 561.484)"/><path d="M233.19 282.523 233.002 286.347 149.066 262.151Z" stroke="#FFFFFF" stroke-width="0.0626855" stroke-opacity="0.23137" fill="#000000" fill-opacity="0.23137" transform="matrix(-1 0 0 1.00165 2311.69 561.484)"/><path d="M231.936 308.162 231.811 311.986 147.812 287.789Z" stroke="#FFFFFF" stroke-width="0.0626855" stroke-opacity="0.23137" fill="#000000" fill-opacity="0.23137" transform="matrix(-1 0 0 1.00165 2311.69 561.484)"/><path d="M231.936 333.361 231.811 337.185 147.812 312.926Z" stroke="#FFFFFF" stroke-width="0.0626855" stroke-opacity="0.23137" fill="#000000" fill-opacity="0.23137" transform="matrix(-1 0 0 1.00165 2311.69 561.484)"/><path d="M148 207.426 231.497 228.301 230.808 366.021 231.497 366.021 232.187 366.021 232.877 227.799 232.877 227.235 232.375 227.109 148.314 206.11 148.188 206.799ZM231.999 228.426 231.497 228.301 231.497 227.799 232.187 227.799Z" fill="#9E9E9E" transform="matrix(-1 0 0 1.00165 2311.69 561.484)"/></g></g></g><path d="M472.5 995.042 790.101 995.042C796.429 995.042 801.559 1000.17 801.559 1006.5 801.559 1012.83 796.429 1017.96 790.101 1017.96L472.5 1017.96C466.172 1017.96 461.042 1012.83 461.042 1006.5 461.042 1000.17 466.172 995.042 472.5 995.042ZM778.643 972.125 847.393 1006.5 778.643 1040.88Z" fill="#EB99A1"/><path d="M1793 1000.5C1793 970.953 1816.95 947 1846.5 947 1876.05 947 1900 970.953 1900 1000.5 1900 1030.05 1876.05 1054 1846.5 1054 1816.95 1054 1793 1030.05 1793 1000.5Z" fill="#EB99A1" fill-rule="evenodd"/><text fill="#F0F0F0" font-family="Arial,Arial_MSFontService,sans-serif" font-weight="400" font-size="46" transform="matrix(1 0 0 1 1820.91 1018)">80</text><path d="M1792 878C1792 848.177 1816.18 824 1846 824 1875.82 824 1900 848.177 1900 878 1900 907.823 1875.82 932 1846 932 1816.18 932 1792 907.823 1792 878Z" fill="#DA4453" fill-rule="evenodd"/><text fill="#F0F0F0" font-family="Arial,Arial_MSFontService,sans-serif" font-weight="400" font-size="46" transform="matrix(1 0 0 1 1808.3 896)">443</text><path d="M1791 753C1791 723.177 1815.18 699 1845 699 1874.82 699 1899 723.177 1899 753 1899 782.823 1874.82 807 1845 807 1815.18 807 1791 782.823 1791 753Z" fill="#7F7F7F" fill-rule="evenodd"/><text fill="#F0F0F0" font-family="Arial,Arial_MSFontService,sans-serif" font-weight="400" font-size="46" transform="matrix(1 0 0 1 1819.67 770)">22</text><path d="M536 982.667C536 975.671 541.671 970 548.667 970L702.333 970C709.329 970 715 975.671 715 982.667L715 1033.33C715 1040.33 709.329 1046 702.333 1046L548.667 1046C541.671 1046 536 1040.33 536 1033.33Z" fill="#EB99A1" fill-rule="evenodd"/><text fill="#FFFFFF" font-family="Arial,Arial_MSFontService,sans-serif" font-weight="400" font-size="41" transform="matrix(1 0 0 1 571.653 1023)">HTTP</text><path d="M472.5 868.042 790.101 868.042C796.429 868.042 801.559 873.172 801.559 879.5 801.559 885.829 796.429 890.959 790.101 890.959L472.5 890.958C466.172 890.958 461.042 885.828 461.042 879.5 461.042 873.172 466.172 868.042 472.5 868.042ZM778.643 845.125 847.393 879.501 778.643 913.875Z" fill="#DA4453"/><path d="M536 855.5C536 848.596 541.596 843 548.5 843L702.5 843C709.404 843 715 848.596 715 855.5L715 905.5C715 912.404 709.404 918 702.5 918L548.5 918C541.596 918 536 912.403 536 905.5Z" fill="#DA4453" fill-rule="evenodd"/><text fill="#FFFFFF" font-family="Arial,Arial_MSFontService,sans-serif" font-weight="400" font-size="41" transform="matrix(1 0 0 1 557.903 896)">HTTPS</text><path d="M472.5 745.042 790.101 745.042C796.429 745.042 801.559 750.172 801.559 756.5 801.559 762.829 796.429 767.959 790.101 767.959L472.5 767.958C466.172 767.958 461.042 762.828 461.042 756.5 461.042 750.172 466.172 745.042 472.5 745.042ZM778.643 722.125 847.393 756.5 778.643 790.875Z" fill="#00A1E5"/><path d="M536 732.667C536 725.671 541.671 720 548.667 720L702.333 720C709.329 720 715 725.671 715 732.667L715 783.334C715 790.329 709.329 796.001 702.333 796.001L548.667 796.001C541.671 796.001 536 790.329 536 783.334Z" fill="#00A1E5" fill-rule="evenodd"/><text fill="#FFFFFF" font-family="Arial,Arial_MSFontService,sans-serif" font-weight="400" font-size="41" transform="matrix(1 0 0 1 583.112 773)">SSH</text><text fill="#DA4453" font-family="Arial,Arial_MSFontService,sans-serif" font-weight="400" font-size="64" transform="matrix(1 0 0 1 2586.89 637)">Services</text><path d="M2281 749.5C2281 742.596 2286.6 737 2293.5 737L2446.5 737C2453.4 737 2459 742.596 2459 749.5L2459 799.5C2459 806.404 2453.4 812 2446.5 812L2293.5 812C2286.6 812 2281 806.403 2281 799.5Z" fill="#7F7F7F" fill-rule="evenodd"/><text fill="#F0F0F0" font-family="Arial,Arial_MSFontService,sans-serif" font-weight="400" font-size="41" transform="matrix(1 0 0 1 2327.48 789)">SSH</text><g><g><g><path d="M243.84 6.55687C253.773 6.55687 261.825 14.6091 261.825 24.542L261.825 184.622C261.825 194.555 253.773 202.607 243.84 202.607L26.4902 202.607C16.5572 202.607 8.50502 194.555 8.50502 184.622L8.50502 24.542C8.50502 14.6091 16.5572 6.55687 26.4902 6.55687Z" fill="#DA4453" transform="matrix(1 0 0 1.00073 2577 865)"/><g clip-path="url(#clip3)"><path d="M26.4912 6.55506C16.5274 6.55506 8.50476 14.5777 8.50476 24.5414L8.50476 184.621C8.50476 194.585 16.5274 202.608 26.4912 202.608L243.838 202.608C253.801 202.608 261.825 194.585 261.825 184.621L261.825 24.5414C261.825 14.5777 253.801 6.55506 243.838 6.55506Z" stroke="url(#stroke4)" stroke-width="8.40624" fill="none" transform="matrix(1 0 0 1.00073 2577 865)"/></g><path d="M188.81 33.3057C188.81 40.3844 183.071 46.1228 175.993 46.1228 168.914 46.1228 163.176 40.3844 163.176 33.3058 163.176 26.2271 168.914 20.4887 175.993 20.4887 183.071 20.4887 188.81 26.2271 188.81 33.3057Z" fill="#40363A" transform="matrix(1 0 0 1.00073 2577 865)"/><path d="M188.81 33.3057C188.81 40.3844 183.071 46.1228 175.993 46.1228 168.914 46.1228 163.176 40.3844 163.176 33.3058 163.176 26.2271 168.914 20.4887 175.993 20.4887 183.071 20.4887 188.81 26.2271 188.81 33.3057Z" fill="#40363A" transform="matrix(1 0 0 1.00073 2605.58 865)"/><path d="M188.81 33.3057C188.81 40.3844 183.071 46.1228 175.993 46.1228 168.914 46.1228 163.176 40.3844 163.176 33.3058 163.176 26.2271 168.914 20.4887 175.993 20.4887 183.071 20.4887 188.81 26.2271 188.81 33.3057Z" fill="#40363A" transform="matrix(1 0 0 1.00073 2634.16 865)"/><path d="M241.784 59.9098C248.816 59.9098 254.517 65.6107 254.517 72.6432L254.517 182.311C254.517 189.343 248.816 195.044 241.784 195.044L28.0132 195.044C20.9808 195.044 15.2799 189.343 15.2799 182.311L15.2799 72.6432C15.2799 65.6107 20.9808 59.9098 28.0132 59.9098Z" stroke="url(#stroke5)" stroke-width="4.41328" fill="#120C0C" transform="matrix(1 0 0 1.00073 2577 865)"/></g></g></g><text fill="#D9D8DC" font-family="Arial,Arial_MSFontService,sans-serif" font-weight="400" font-size="50" transform="matrix(1 0 0 1 2629.7 974)">nginx</text><text fill="#D9D8DC" font-family="Arial,Arial_MSFontService,sans-serif" font-weight="400" font-size="37" transform="matrix(1 0 0 1 2760.9 974)">or</text><text fill="#D9D8DC" font-family="Arial,Arial_MSFontService,sans-serif" font-weight="400" font-size="50" transform="matrix(1 0 0 1 2628.85 1035)">apache</text><path d="M2281 899.5C2281 892.596 2286.6 887 2293.5 887L2446.5 887C2453.4 887 2459 892.596 2459 899.5L2459 949.5C2459 956.404 2453.4 962 2446.5 962L2293.5 962C2286.6 962 2281 956.403 2281 949.5Z" fill="#DA4453" fill-rule="evenodd"/><text fill="#FFFFFF" font-family="Arial,Arial_MSFontService,sans-serif" font-weight="400" font-size="41" transform="matrix(1 0 0 1 2302.27 940)">HTTPS</text><path d="M2250.5 1011.04 2505.56 1011.04C2511.89 1011.04 2517.02 1016.17 2517.02 1022.5 2517.02 1028.83 2511.89 1033.96 2505.56 1033.96L2250.5 1033.96C2244.17 1033.96 2239.04 1028.83 2239.04 1022.5 2239.04 1016.17 2244.17 1011.04 2250.5 1011.04ZM2494.1 999.584 2539.94 1022.5 2494.1 1045.42Z" fill="#EB99A1"/><path d="M2284 998.5C2284 991.596 2289.6 986 2296.5 986L2450.5 986C2457.4 986 2463 991.596 2463 998.5L2463 1048.5C2463 1055.4 2457.4 1061 2450.5 1061L2296.5 1061C2289.6 1061 2284 1055.4 2284 1048.5Z" fill="#EB99A1" fill-rule="evenodd"/><text fill="#FFFFFF" font-family="Arial,Arial_MSFontService,sans-serif" font-weight="400" font-size="41" transform="matrix(1 0 0 1 2319.6 1038)">HTTP</text><text fill="#DA4453" font-family="Arial,Arial_MSFontService,sans-serif" font-weight="400" font-size="64" transform="matrix(1 0 0 1 1954.04 637)">Server</text><text fill="#DA4453" font-family="Arial,Arial_MSFontService,sans-serif" font-weight="400" font-size="64" transform="matrix(1 0 0 1 60.3988 637)">Your</text><text fill="#DA4453" font-family="Arial,Arial_MSFontService,sans-serif" font-weight="400" font-size="64" transform="matrix(1 0 0 1 207.478 637)">Laptop</text><text fill="#D9D8DC" font-family="Arial,Arial_MSFontService,sans-serif" font-weight="400" font-size="50" transform="matrix(1 0 0 1 2639.82 804)">SSHD</text><g><g><g><path d="M-25.4228 115.364C-39.1126 117.193-39.2482 133.187-44.9828 142.915-49.6724 154.782-50.4088 152.666-50.2718 163.479-50.1023 218.439-50.6113 273.436-50.0165 328.373-45.4572 343.229-28.4136 337.176-16.8953 338.433 82.2266 338.26 181.379 338.772 280.478 338.177 295.334 333.621 289.28 316.574 290.538 305.061L290.538 158.592C286.268 146.025 280.207 133.706 275.207 121.207 266.382 111.403 251.872 116.764 240.133 115.379 151.613 115.371 63.0934 115.409-25.419 115.364Z" fill="url(#fill6)" transform="matrix(1.00153 2.30382e-18 -2.30382e-18 1 988.461 617.866)"/><path d="M255.877 115.612C250.207 115.717 244.326 116.478 239.01 115.846 150.49 115.838 61.9851 115.876-26.5349 115.823-40.2248 117.66-40.3769 133.676-46.1123 143.404-49.2123 151.243-50.5895 152.967-51.1241 156.371L288.468 156.371C284.282 144.73 278.733 133.292 274.094 121.681 269.268 116.32 262.724 115.484 255.88 115.612Z" fill="url(#fill7)" transform="matrix(1.00153 0 0 1 988.461 617.866)"/><path d="M-50.341 274.023 290.682 274.023-50.341 274.023ZM-20.4712 274.091-20.4712 337.755-20.4712 274.091ZM90.6381 274.091 90.6381 337.755 90.6381 274.091Z" stroke="#FFFFFF" stroke-width="3.86224" stroke-linecap="round" stroke-opacity="0.57658" fill-rule="evenodd" transform="matrix(1.00153 0 0 1 988.461 617.866)"/><path d="M35.728 210.781 35.728 274.46" stroke="#FFFFFF" stroke-width="3.86488" stroke-opacity="0.57658" fill="none" fill-rule="evenodd" transform="matrix(1.00153 0 0 1 988.461 617.866)"/><path d="M151.025 210.781 151.025 274.46" stroke="#FFFFFF" stroke-width="3.86488" stroke-opacity="0.57658" fill="none" fill-rule="evenodd" transform="matrix(1.00153 0 0 1 988.461 617.866)"/><path d="M262.646 210.02 262.646 273.7" stroke="#FFFFFF" stroke-width="3.86488" stroke-opacity="0.57658" fill="none" fill-rule="evenodd" transform="matrix(1.00153 0 0 1 988.461 617.866)"/><path d="M206.481 273.323 206.481 337.01" stroke="#FFFFFF" stroke-width="3.86488" stroke-opacity="0.57658" fill="none" fill-rule="evenodd" transform="matrix(1.00153 0 0 1 988.461 617.866)"/><path d="M-50.8395 210.841 290.869 210.841" stroke="#FFFFFF" stroke-width="3.94718" stroke-opacity="0.56471" fill="none" transform="matrix(1.00153 0 0 1 988.461 617.866)"/><path d="M-50.7988 157.304 290.224 157.304-50.7988 157.304Z" stroke="#FFFFFF" stroke-width="3.86224" stroke-linecap="round" stroke-opacity="0.57658" fill="none" fill-rule="evenodd" transform="matrix(1.00153 0 0 1 988.461 617.866)"/><path d="M90.2368 158.818 90.2368 212.294" stroke="#FFFFFF" stroke-width="3.54163" stroke-opacity="0.57658" fill="none" fill-rule="evenodd" transform="matrix(1.00153 0 0 1 988.461 617.866)"/><path d="M-20.4463 155.972-20.4463 212.279" stroke="#FFFFFF" stroke-width="3.63432" stroke-opacity="0.57658" fill="none" fill-rule="evenodd" transform="matrix(1.00153 0 0 1 988.461 617.866)"/><path d="M206.331 154.842 206.331 211.15" stroke="#FFFFFF" stroke-width="3.63432" stroke-opacity="0.57658" fill="none" fill-rule="evenodd" transform="matrix(1.00153 0 0 1 988.461 617.866)"/><path d="M427.702 70.0592C417.626 83.2873 413.351 100.185 414.635 116.667 415.596 124.719 411.315 132.221 408.263 139.419 402.657 150.147 397.583 161.863 399.115 174.264 398.671 181.403 395.499 174.204 395.835 170.608 394.316 160.505 393.664 150.026 395.734 140.011 394.692 130.271 392.225 119.712 384.18 113.306 386.566 124.874 389.671 137.907 383.904 148.951 381.841 152.654 377.209 153.669 376.242 158.112 366.536 175.118 365.803 196.318 373.176 214.325 374.709 218.425 376.712 222.337 378.446 226.357 373.035 223.265 367.1 221.174 361.871 217.787 369.117 238.993 382.882 259.85 404.62 268.104 413.17 271.741 422.493 272.42 431.52 273.851 451.315 280.035 475.882 275.975 488.943 258.748 496.619 248.78 498.749 235.33 496.135 223.184 492.68 230.174 486.691 235.841 478.954 237.635 480.736 228.662 478.027 219.682 473.389 211.999 468.381 203.812 467.205 193.454 471.198 184.602 477.26 171.32 481.845 155.242 474.78 141.416 472.596 135.037 471.063 138.949 469.954 143.473 465.336 157.669 456.02 169.747 445.474 180.105 446.2 165.62 451.255 151.915 453.405 137.679 454.629 130.426 453.224 123.146 451.705 116.122 450.67 108.231 442.443 104.185 438.974 97.4229 432.79 88.4361 430.734 77.2581 430.371 66.529 429.483 67.7067 428.589 68.8829 427.702 70.0592Z" fill="#000000" fill-rule="evenodd" fill-opacity="0.40541" transform="matrix(1.00153 0 0 1 743.716 710)"/><path d="M90.95 178.136C103.95 216.57 124.524 236.95 161.406 239.282 201.971 252.282 239.632 225.691 228.951 183.963 224.098 192.89 220.993 197.743 212.651 200.263 215.952 177.168 194.792 173.283 205.076 148.44 212.261 133.108 216.53 114.281 203.913 98.9419 198.677 116.411 192.271 128.06 179.46 140.871 180.818 119.517 192.076 102.242 185.281 82.0573 186.249 68.4729 163.926 68.8561 163.738 27.3199 149.569 45.1779 143.546 58.9585 145.684 86.1306 140.441 108.07 127.63 116.022 129.962 139.708 128.02 126.507 126.662 115.054 129.377 105.348 127.825 93.316 126.272 83.0252 114.24 74.4888 117.93 89.4309 122.199 111.948 109.582 117.574 106.087 124.76 88.6176 149.408 107.835 188.037 102.209 184.736 96.5759 183.769 90.95 178.136Z" stroke="#FFFF00" stroke-width="1.44938" stroke-opacity="0.50382" fill="url(#fill8)" fill-rule="evenodd" transform="matrix(1.00153 0 0 1 1043.05 746.129)"/><path d="M159.51 35.683C149.435 48.9144 145.16 65.8119 146.443 82.2858 147.405 90.345 143.123 97.8463 140.071 105.045 134.466 115.773 129.391 127.489 130.923 139.883 130.486 147.028 127.314 139.829 127.643 136.233 126.124 126.131 125.472 115.645 127.549 105.637 126.5 95.8971 124.034 85.3374 115.988 78.9317 118.381 90.4929 121.486 103.526 115.719 114.576 113.649 118.28 109.024 119.288 108.056 123.738 98.3437 140.744 97.6178 161.943 104.985 179.951 106.517 184.051 108.52 187.963 110.254 191.982 104.85 188.89 98.9083 186.793 93.6857 183.412 100.925 204.612 114.697 225.476 136.435 233.73 144.978 237.367 154.301 238.045 163.335 239.477 183.13 245.661 207.697 241.601 220.757 224.374 228.427 214.406 230.558 200.956 227.95 188.81 224.488 195.8 218.499 201.466 210.762 203.261 212.544 194.288 209.835 185.301 205.197 177.625 200.196 169.438 199.013 159.08 203.012 150.228 209.069 136.946 213.653 120.868 206.595 107.041 204.411 100.656 202.871 104.575 201.762 109.098 197.151 123.294 187.828 135.373 177.282 145.731 178.015 131.246 183.069 117.541 185.214 103.304 186.444 96.0516 185.032 88.7722 183.513 81.7481 182.478 73.8569 174.257 69.8038 170.782 63.0479 164.599 54.0585 162.542 42.8858 162.179 32.1541 161.292 33.3304 160.404 34.5067 159.51 35.683Z" fill="url(#fill9)" fill-rule="evenodd" transform="matrix(1.00153 0 0 1 1043.05 746.129)"/><path d="M157.332 233.455C126.467 200.848 121.224 178.136 141.611 156.593 164.511 115.833 158.885 90.2106 142.189 65.7507 157.911 119.907 123.556 154.845 112.493 170.567 105.892 150.187 111.525 141.449 120.646 116.411 102.787 135.823 91.9179 159.309 98.5185 181.631 110.55 215.212 138.888 222.586 157.332 233.455Z" stroke="#FFFF00" stroke-width="1.44938" stroke-opacity="0.50382" fill="url(#fill10)" fill-rule="evenodd" transform="matrix(1.00153 0 0 1 1043.05 746.129)"/><path d="M194.785 110.248C190.645 98.216 194.026 95.6416 197.649 90.3853 201.386 88.9268 200.236 83.852 202.28 72.5462 205.365 85.1627 213.659 90.9029 194.785 110.248Z" stroke="#FFFF00" stroke-width="1.44938" stroke-opacity="0.50382" fill="#FFD700" fill-rule="evenodd" transform="matrix(1.00153 0 0 1 1043.05 746.129)"/><path d="M199.437 70.5701C198.173 75.9339 198.744 81.8422 196.412 86.8498 190.934 91.0306 188.548 98.7941 190.947 105.388 191.693 110.913 193.421 111.868 196.486 106.82 203.026 100.091 209.149 90.4458 205.426 80.8003 203.745 75.8801 202.273 70.886 200.398 66.031 200.075 67.5453 199.752 69.0577 199.437 70.5701Z" fill="url(#fill11)" fill-rule="evenodd" transform="matrix(1.00153 0 0 1 1043.05 746.129)"/><path d="M221.383 183.963C232.056 173.673 229.926 169.21 228.951 161.836 225.846 158.341 229.731 153.683 233.609 140.871 223.715 152.325 212.066 153.878 221.383 183.963Z" stroke="#FFFF00" stroke-width="1.44938" stroke-opacity="0.50382" fill="#FFD700" fill-rule="evenodd" transform="matrix(1.00153 0 0 1 1043.05 746.129)"/><path d="M171.307 233.455C183.338 226.666 186.639 205.311 188.191 181.631 191.102 158.724 196.929 135.823 235.357 132.133 219.635 144.75 206.824 160.277 212.651 189.2 211.099 231.324 179.843 229.771 171.307 233.455Z" stroke="#FFFF00" stroke-width="1.44938" stroke-opacity="0.50382" fill="url(#fill12)" fill-rule="evenodd" transform="matrix(1.00153 0 0 1 1043.05 746.129)"/><path d="M230.927 128.786C214.54 131.112 197.649 140.959 192.843 157.682 185.12 178.586 189.388 202.374 178.862 222.451 174.862 224.186 175.837 231.64 180.777 230.181 195.236 227.56 208.968 217.511 212.631 202.77 216.16 192.527 214.157 181.698 213.78 171.179 214.264 155.928 223.097 142.169 234.691 132.758 236.721 129.834 233.334 128.853 230.927 128.786Z" fill="url(#fill13)" fill-rule="evenodd" transform="matrix(1.00153 0 0 1 1043.05 746.129)"/><path d="M231.129 136.778C224.528 143.768 214.943 150.308 215.179 161.056 214.688 168.759 217.43 176.099 219.138 183.493 224.871 178.022 231.384 170.897 229.287 162.266 229.267 158.468 226.404 155.141 228.655 151.438 230.813 145.57 233.071 139.735 234.577 133.646 233.428 134.687 232.278 135.729 231.129 136.778Z" fill="url(#fill14)" fill-rule="evenodd" transform="matrix(1.00153 0 0 1 1043.05 746.129)"/><path d="M150.342 217.733C148.789 199.1 146.652 185.704 170.144 168.82 209.929 141.066 190.329 124.955 165.486 96.0315 172.859 124.76 161.016 147.66 150.927 162.999 144.326 172.51 121.419 191.915 150.342 217.733Z" stroke="#FFFF00" stroke-width="1.44938" stroke-opacity="0.50382" fill="url(#fill15)" fill-rule="evenodd" transform="matrix(1.00153 0 0 1 1043.05 746.129)"/><path d="M135.165 81.049C145.912 68.6746 143.15 63.5816 141.396 55.0613 137.665 51.1339 141.483 45.5691 144.541 30.5436 134.755 44.2382 122.125 46.5162 135.165 81.049Z" stroke="#FFFF00" stroke-width="1.44938" stroke-opacity="0.50382" fill="#FFD700" fill-rule="evenodd" transform="matrix(1.00153 0 0 1 1043.05 746.129)"/><path d="M141.967 27.9067C135.709 36.0896 126.218 43.6407 126.716 54.982 126.648 64.4124 130.365 73.2117 133.141 82.0573 138.814 75.5844 144.85 67.3571 142.323 58.2326 142.343 54.6217 139.816 51.8188 139.742 48.4083 141.127 40.3592 143.983 32.5836 145.113 24.4619 144.064 25.61 143.015 26.7587 141.967 27.9067Z" fill="url(#fill16)" fill-rule="evenodd" transform="matrix(1.00153 0 0 1 1043.05 746.129)"/><path d="M164.881 91.2188C169.189 110.799 164.753 131.434 154.845 148.635 148.695 160.465 136.563 169.525 135.407 183.594 133.551 195.861 142.39 206.084 150.577 214.002 153.911 218.197 151.054 208.282 151.505 205.963 150.174 193.898 152.244 180.361 161.977 172.086 172.819 161.54 188.279 154.234 193.468 139.077 196.983 125.694 187.62 113.696 179.46 104.192 174.54 98.2227 169.351 92.4892 164.189 86.7221 164.424 88.221 164.652 89.7199 164.881 91.2188Z" fill="url(#fill17)" fill-rule="evenodd" transform="matrix(1.00153 0 0 1 1043.05 746.129)"/><path d="M145.328 73.8435C145.751 83.1059 148.386 92.2741 147.176 101.624 146.114 123.442 136.529 143.97 123.288 161.05 120.834 164.538 118.219 167.912 115.685 171.347 112.304 160.075 113.83 147.916 118.388 137.221 120.787 131.501 122.474 125.566 123.355 119.423 110.705 130.964 101.772 146.692 98.6328 163.537 96.0853 179.11 101.563 195.121 111.894 206.824 124.881 222.149 143.56 230.759 161.668 238.455 151.411 224.031 137.127 211.011 134.096 192.775 132.012 182.189 136.18 171.569 143.136 163.651 151.095 152.715 156.049 139.715 158.993 126.581 162.817 109.488 159.752 90.997 150.409 76.1759 148.104 74.4888 143.983 65.6317 145.328 73.8435Z" fill="url(#fill18)" fill-rule="evenodd" transform="matrix(1.00153 0 0 1 1043.05 746.129)"/><path d="M74.2888 145.503C84.907 176.896 101.713 193.543 131.838 195.448 164.972 206.066 195.734 184.347 187.01 150.263 183.046 157.554 180.509 161.518 173.696 163.577 176.391 144.713 159.108 141.539 167.508 121.247 173.377 108.724 176.864 93.3456 166.558 80.8168 162.281 95.086 157.049 104.601 146.585 115.065 147.694 97.6225 156.89 83.5125 151.339 67.0252 152.13 55.9294 133.897 56.2423 133.743 22.3152 122.169 36.9017 117.25 48.1579 118.996 70.3523 114.714 88.2726 104.249 94.7675 106.154 114.115 104.568 103.332 103.459 93.9769 105.677 86.049 104.408 76.2214 103.14 67.8158 93.3126 60.8432 96.3268 73.048 99.8131 91.4404 89.5079 96.0358 86.6529 101.905 72.3837 122.038 88.0804 153.59 83.485 150.895 78.8842 150.104 74.2888 145.503Z" stroke="#FFFF00" stroke-width="1.18387" stroke-opacity="0.50382" fill="url(#fill19)" fill-rule="evenodd" transform="matrix(-1.00153 0 0 1 1388.09 785.042)"/><path d="M130.29 29.1462C122.06 39.9538 118.568 53.7558 119.617 67.2119 120.402 73.7947 116.904 79.9219 114.412 85.8019 109.833 94.5644 105.688 104.134 106.939 114.258 106.583 120.094 103.991 114.214 104.26 111.277 103.019 103.025 102.487 94.4601 104.183 86.2851 103.327 78.3297 101.312 69.7045 94.7401 64.4722 96.6946 73.9155 99.2311 84.5611 94.5205 93.5871 92.8295 96.6123 89.0522 97.4358 88.2616 101.07 80.3281 114.961 79.7352 132.277 85.7525 146.986 87.0043 150.335 88.6404 153.53 90.0569 156.813 85.6427 154.288 80.7893 152.575 76.5234 149.813 82.4364 167.129 93.686 184.171 111.441 190.913 118.42 193.883 126.035 194.438 133.414 195.607 149.582 200.658 169.649 197.342 180.317 183.271 186.581 175.129 188.322 164.143 186.192 154.222 183.364 159.932 178.472 164.56 172.153 166.026 173.608 158.696 171.395 151.356 167.607 145.086 163.522 138.399 162.556 129.938 165.823 122.708 170.769 111.859 174.514 98.726 168.749 87.4325 166.965 82.2168 165.707 85.4176 164.801 89.1126 161.035 100.708 153.42 110.574 144.806 119.035 145.404 107.203 149.533 96.0083 151.284 84.38 152.289 78.4559 151.136 72.51 149.895 66.7727 149.05 60.3271 142.335 57.0164 139.497 51.4982 134.446 44.1555 132.766 35.0296 132.469 26.2638 131.745 27.2246 131.02 28.1854 130.29 29.1462Z" fill="url(#fill20)" fill-rule="evenodd" transform="matrix(-1.00153 0 0 1 1388.09 785.042)"/><path d="M128.511 190.688C103.299 164.055 99.017 145.503 115.669 127.907 134.374 94.6138 129.779 73.6849 116.141 53.7058 128.983 97.9409 100.922 126.479 91.8852 139.321 86.4937 122.675 91.0946 115.537 98.5449 95.086 83.9572 110.942 75.0794 130.125 80.4709 148.358 90.2985 175.787 113.445 181.81 128.511 190.688Z" stroke="#FFFF00" stroke-width="1.18387" stroke-opacity="0.50382" fill="url(#fill21)" fill-rule="evenodd" transform="matrix(-1.00153 0 0 1 1388.09 785.042)"/><path d="M159.103 90.0514C155.721 80.2238 158.482 78.121 161.441 73.8277 164.494 72.6363 163.555 68.4911 165.224 59.2565 167.744 69.5617 174.519 74.2504 159.103 90.0514Z" stroke="#FFFF00" stroke-width="1.18387" stroke-opacity="0.50382" fill="#FFD700" fill-rule="evenodd" transform="matrix(-1.00153 0 0 1 1388.09 785.042)"/><path d="M162.902 57.6423C161.87 62.0236 162.336 66.8495 160.431 70.9398 155.957 74.3547 154.008 80.696 155.968 86.0819 156.577 90.5949 157.988 91.3746 160.492 87.2514 165.834 81.7556 170.835 73.8771 167.794 65.9985 166.421 61.9797 165.219 57.9004 163.687 53.9348 163.423 55.1717 163.16 56.407 162.902 57.6423Z" fill="url(#fill22)" fill-rule="evenodd" transform="matrix(-1.00153 0 0 1 1388.09 785.042)"/><path d="M180.828 150.263C189.546 141.858 187.806 138.212 187.01 132.189 184.473 129.334 187.646 125.53 190.814 115.065 182.733 124.42 173.218 125.689 180.828 150.263Z" stroke="#FFFF00" stroke-width="1.18387" stroke-opacity="0.50382" fill="#FFD700" fill-rule="evenodd" transform="matrix(-1.00153 0 0 1 1388.09 785.042)"/><path d="M139.925 190.688C149.753 185.143 152.448 167.7 153.717 148.358 156.094 129.647 160.854 110.942 192.242 107.928 179.4 118.233 168.936 130.915 173.696 154.54 172.427 188.948 146.898 187.679 139.925 190.688Z" stroke="#FFFF00" stroke-width="1.18387" stroke-opacity="0.50382" fill="url(#fill23)" fill-rule="evenodd" transform="matrix(-1.00153 0 0 1 1388.09 785.042)"/><path d="M188.624 105.194C175.238 107.093 161.441 115.136 157.516 128.796 151.208 145.871 154.694 165.301 146.096 181.7 142.829 183.117 143.625 189.206 147.661 188.014 159.47 185.873 170.687 177.665 173.679 165.625 176.562 157.258 174.925 148.413 174.618 139.821 175.013 127.363 182.228 116.125 191.698 108.438 193.356 106.05 190.589 105.248 188.624 105.194Z" fill="url(#fill24)" fill-rule="evenodd" transform="matrix(-1.00153 0 0 1 1388.09 785.042)"/><path d="M188.788 111.721C183.397 117.431 175.568 122.773 175.76 131.552 175.359 137.844 177.599 143.84 178.994 149.879 183.677 145.41 188.997 139.59 187.284 132.541 187.268 129.439 184.929 126.721 186.768 123.696 188.53 118.903 190.375 114.137 191.605 109.163 190.666 110.014 189.727 110.865 188.788 111.721Z" fill="url(#fill25)" fill-rule="evenodd" transform="matrix(-1.00153 0 0 1 1388.09 785.042)"/><path d="M122.801 177.846C121.533 162.627 119.787 151.685 138.975 137.894 171.472 115.224 155.462 102.064 135.17 78.4395 141.193 101.905 131.519 120.61 123.279 133.139 117.887 140.908 99.1762 156.758 122.801 177.846Z" stroke="#FFFF00" stroke-width="1.18387" stroke-opacity="0.50382" fill="url(#fill26)" fill-rule="evenodd" transform="matrix(-1.00153 0 0 1 1388.09 785.042)"/><path d="M110.404 66.2017C119.183 56.0941 116.926 51.9341 115.493 44.9746 112.446 41.7667 115.565 37.2213 118.063 24.9483 110.069 36.1342 99.7527 37.9949 110.404 66.2017Z" stroke="#FFFF00" stroke-width="1.18387" stroke-opacity="0.50382" fill="#FFD700" fill-rule="evenodd" transform="matrix(-1.00153 0 0 1 1388.09 785.042)"/><path d="M115.96 22.7945C110.849 29.4784 103.096 35.6461 103.503 44.9099 103.448 52.6127 106.484 59.8 108.751 67.0252 113.385 61.7381 118.315 55.018 116.251 47.565 116.267 44.6156 114.203 42.3261 114.143 39.5404 115.274 32.9658 117.607 26.6146 118.529 19.9807 117.673 20.9185 116.816 21.8568 115.96 22.7945Z" fill="url(#fill27)" fill-rule="evenodd" transform="matrix(-1.00153 0 0 1 1388.09 785.042)"/><path d="M134.676 74.5085C138.196 90.5016 134.572 107.357 126.479 121.406 121.456 131.069 111.546 138.47 110.601 149.961 109.086 159.981 116.306 168.332 122.993 174.799 125.716 178.225 123.383 170.127 123.751 168.233 122.664 158.378 124.355 147.32 132.305 140.562 141.16 131.948 153.788 125.98 158.026 113.599 160.898 102.668 153.25 92.8679 146.585 85.1047 142.566 80.2293 138.327 75.5461 134.111 70.8355 134.303 72.0598 134.49 73.2841 134.676 74.5085Z" fill="url(#fill28)" fill-rule="evenodd" transform="matrix(-1.00153 0 0 1 1388.09 785.042)"/><path d="M118.705 60.3161C119.051 67.8817 121.203 75.3704 120.215 83.0074 119.347 100.829 111.518 117.596 100.703 131.547 98.6986 134.396 96.5629 137.152 94.493 139.958 91.7314 130.751 92.9777 120.819 96.7001 112.084 98.6601 107.412 100.038 102.564 100.757 97.5456 90.4247 106.972 83.1282 119.82 80.5642 133.578 78.4834 146.299 82.958 159.377 91.3965 168.936 102.004 181.453 117.261 188.486 132.052 194.773 123.674 182.991 112.007 172.356 109.531 157.461 107.829 148.814 111.233 140.139 116.915 133.672 123.416 124.739 127.462 114.121 129.867 103.393 132.991 89.431 130.487 74.3273 122.856 62.2212 120.973 60.8432 117.607 53.6086 118.705 60.3161Z" fill="url(#fill29)" fill-rule="evenodd" transform="matrix(-1.00153 0 0 1 1388.09 785.042)"/></g></g></g><text fill="#DA4453" font-family="Arial,Arial_MSFontService,sans-serif" font-weight="400" font-size="64" transform="matrix(1 0 0 1 881.922 637)">"dumb" Firewall</text><text fill="#D9D8DC" font-family="Arial,Arial_MSFontService,sans-serif" font-weight="400" font-size="50" transform="matrix(1 0 0 1 1026.61 1038)">block all</text><text fill="#D9D8DC" font-family="Arial,Arial_MSFontService,sans-serif" font-weight="400" font-size="50" transform="matrix(1 0 0 1 869.63 1099)">allow</text><text fill="#DA4453" font-family="Arial,Arial_MSFontService,sans-serif" font-weight="400" font-size="50" transform="matrix(1 0 0 1 999.109 1099)">TCP</text><text fill="#EB99A1" font-family="Arial,Arial_MSFontService,sans-serif" font-weight="400" font-size="50" transform="matrix(1 0 0 1 1114.27 1099)">80</text><text fill="#D9D8DC" font-family="Arial,Arial_MSFontService,sans-serif" font-weight="400" font-size="50" transform="matrix(1 0 0 1 1184.16 1099)">and </text><text fill="#EB99A1" font-family="Arial,Arial_MSFontService,sans-serif" font-weight="400" font-size="50" transform="matrix(1 0 0 1 1282.13 1099)">443</text><path d="M1380.5 995.042 1698.1 995.042C1704.43 995.042 1709.56 1000.17 1709.56 1006.5 1709.56 1012.83 1704.43 1017.96 1698.1 1017.96L1380.5 1017.96C1374.17 1017.96 1369.04 1012.83 1369.04 1006.5 1369.04 1000.17 1374.17 995.042 1380.5 995.042ZM1686.64 972.125 1755.39 1006.5 1686.64 1040.88Z" fill="#EB99A1"/><path d="M1444 982.667C1444 975.671 1449.67 970 1456.67 970L1610.33 970C1617.33 970 1623 975.671 1623 982.667L1623 1033.33C1623 1040.33 1617.33 1046 1610.33 1046L1456.67 1046C1449.67 1046 1444 1040.33 1444 1033.33Z" fill="#EB99A1" fill-rule="evenodd"/><text fill="#FFFFFF" font-family="Arial,Arial_MSFontService,sans-serif" font-weight="400" font-size="41" transform="matrix(1 0 0 1 1479.84 1023)">HTTP</text><path d="M1380.5 868.042 1698.1 868.042C1704.43 868.042 1709.56 873.172 1709.56 879.5 1709.56 885.829 1704.43 890.959 1698.1 890.959L1380.5 890.958C1374.17 890.958 1369.04 885.828 1369.04 879.5 1369.04 873.172 1374.17 868.042 1380.5 868.042ZM1686.64 845.125 1755.39 879.501 1686.64 913.875Z" fill="#DA4453"/><path d="M1444 855.5C1444 848.596 1449.6 843 1456.5 843L1610.5 843C1617.4 843 1623 848.596 1623 855.5L1623 905.5C1623 912.403 1617.4 918 1610.5 918L1456.5 918C1449.6 918 1444 912.403 1444 905.5Z" fill="#DA4453" fill-rule="evenodd"/><text fill="#FFFFFF" font-family="Arial,Arial_MSFontService,sans-serif" font-weight="400" font-size="41" transform="matrix(1 0 0 1 1466.09 896)">HTTPS</text><path d="M1380.5 745.042 1380.52 745.042C1386.85 745.042 1391.98 750.172 1391.98 756.5 1391.98 762.828 1386.85 767.958 1380.52 767.958L1380.5 767.958C1374.17 767.958 1369.04 762.828 1369.04 756.5 1369.04 750.172 1374.17 745.042 1380.5 745.042ZM1426.36 745.042 1426.38 745.042C1432.71 745.042 1437.84 750.172 1437.84 756.5 1437.84 762.828 1432.71 767.958 1426.38 767.958L1426.36 767.958C1420.03 767.958 1414.9 762.828 1414.9 756.5 1414.9 750.172 1420.03 745.042 1426.36 745.042ZM1472.21 745.042 1472.24 745.042C1478.56 745.042 1483.69 750.172 1483.69 756.5 1483.69 762.828 1478.56 767.959 1472.24 767.959L1472.21 767.959C1465.88 767.959 1460.75 762.828 1460.75 756.5 1460.75 750.172 1465.88 745.042 1472.21 745.042ZM1518.07 745.042 1518.09 745.042C1524.42 745.042 1529.55 750.172 1529.55 756.5 1529.55 762.829 1524.42 767.959 1518.09 767.959L1518.07 767.959C1511.74 767.959 1506.61 762.828 1506.61 756.5 1506.61 750.172 1511.74 745.042 1518.07 745.042ZM1563.93 745.042 1563.95 745.042C1570.28 745.042 1575.41 750.172 1575.41 756.5 1575.41 762.829 1570.28 767.959 1563.95 767.959L1563.93 767.959C1557.6 767.959 1552.47 762.829 1552.47 756.5 1552.47 750.172 1557.6 745.042 1563.93 745.042ZM1609.78 745.042 1609.8 745.042C1616.13 745.042 1621.26 750.172 1621.26 756.5 1621.26 762.829 1616.13 767.959 1609.8 767.959L1609.78 767.959C1603.45 767.959 1598.32 762.829 1598.32 756.5 1598.32 750.172 1603.45 745.042 1609.78 745.042ZM1655.64 745.042 1655.66 745.042C1661.99 745.042 1667.12 750.172 1667.12 756.5 1667.12 762.829 1661.99 767.959 1655.66 767.959L1655.64 767.959C1649.31 767.959 1644.18 762.829 1644.18 756.5 1644.18 750.172 1649.31 745.042 1655.64 745.042ZM1686.64 722.125 1755.39 756.5 1686.64 790.875Z" fill="#7F7F7F"/><path d="M1444 732.667C1444 725.671 1449.67 720 1456.67 720L1610.33 720C1617.33 720 1623 725.671 1623 732.667L1623 783.334C1623 790.329 1617.33 796 1610.33 796L1456.67 796C1449.67 796 1444 790.329 1444 783.334Z" fill="#7F7F7F" fill-rule="evenodd"/><text fill="#F0F0F0" font-family="Arial,Arial_MSFontService,sans-serif" font-weight="400" font-size="41" transform="matrix(1 0 0 1 1491.3 773)">SSH</text></g></svg>