<svg xmlns="http://www.w3.org/2000/svg" xml:space="preserve" width="2339" height="654" overflow="hidden"><defs><linearGradient id="e" x1="-51.1" x2="288.5" y1="136" y2="136" gradientUnits="userSpaceOnUse" spreadMethod="pad"><stop offset="0" stop-color="#3B1E05"/><stop offset="1" stop-color="#3B1E05" stop-opacity="0"/></linearGradient><linearGradient id="f" x1="120.9" x2="154.2" y1="224.1" y2="79.5" gradientUnits="userSpaceOnUse" spreadMethod="pad"><stop offset="0" stop-color="#DC0000"/><stop offset="1" stop-color="#FFB200"/></linearGradient><linearGradient id="g" x1="17.3" x2="187.1" y1="36.7" y2="240.2" gradientUnits="userSpaceOnUse" spreadMethod="pad"><stop offset="0" stop-color="#FFF"/><stop offset="1" stop-color="#FFF" stop-opacity="0"/></linearGradient><linearGradient id="h" x1="139.6" x2="127" y1="217.7" y2="143" gradientUnits="userSpaceOnUse" spreadMethod="pad"><stop offset="0" stop-color="#DC0000"/><stop offset="1" stop-color="#FFB200"/></linearGradient><linearGradient id="i" x1="191.4" x2="205.2" y1="89.6" y2="89.6" gradientUnits="userSpaceOnUse" spreadMethod="pad"><stop offset="0" stop-color="#FFF" stop-opacity=".4"/><stop offset="1" stop-color="#FFF" stop-opacity="0"/></linearGradient><linearGradient id="j" x1="185.4" x2="222.1" y1="220" y2="144.8" gradientUnits="userSpaceOnUse" spreadMethod="pad"><stop offset="0" stop-color="#DC0000"/><stop offset="1" stop-color="#FFB200"/></linearGradient><linearGradient id="k" x1="284.2" x2="185.7" y1="137.5" y2="223.2" gradientUnits="userSpaceOnUse" spreadMethod="pad"><stop offset="0" stop-color="#FFF"/><stop offset="1" stop-color="#FFF" stop-opacity="0"/></linearGradient><linearGradient id="l" x1="216.4" x2="232.1" y1="159.3" y2="159.3" gradientUnits="userSpaceOnUse" spreadMethod="pad"><stop offset="0" stop-color="#FFF" stop-opacity=".4"/><stop offset="1" stop-color="#FFF" stop-opacity="0"/></linearGradient><linearGradient id="m" x1="151.2" x2="166.4" y1="252" y2="139.8" gradientUnits="userSpaceOnUse" spreadMethod="pad"><stop offset="0" stop-color="#DC0000"/><stop offset="1" stop-color="#FFB200"/></linearGradient><linearGradient id="n" x1="128.1" x2="143" y1="54" y2="54" gradientUnits="userSpaceOnUse" spreadMethod="pad"><stop offset="0" stop-color="#FFF" stop-opacity=".4"/><stop offset="1" stop-color="#FFF" stop-opacity="0"/></linearGradient><linearGradient id="o" x1="106.6" x2="172.6" y1="51.6" y2="206" gradientUnits="userSpaceOnUse" spreadMethod="pad"><stop offset="0" stop-color="#FFF"/><stop offset="1" stop-color="#FFF" stop-opacity="0"/></linearGradient><linearGradient id="p" x1="62.4" x2="114.6" y1="91.4" y2="239.8" gradientUnits="userSpaceOnUse" spreadMethod="pad"><stop offset="0" stop-color="#FFF"/><stop offset="1" stop-color="#FFF" stop-opacity="0"/></linearGradient><linearGradient id="q" x1="98.8" x2="126" y1="183" y2="64.9" gradientUnits="userSpaceOnUse" spreadMethod="pad"><stop offset="0" stop-color="#DC0000"/><stop offset="1" stop-color="#FFB200"/></linearGradient><linearGradient id="r" x1="14.2" x2="152.9" y1="30" y2="196.2" gradientUnits="userSpaceOnUse" spreadMethod="pad"><stop offset="0" stop-color="#FFF"/><stop offset="1" stop-color="#FFF" stop-opacity="0"/></linearGradient><linearGradient id="s" x1="114" x2="103.7" y1="177.8" y2="116.8" gradientUnits="userSpaceOnUse" spreadMethod="pad"><stop offset="0" stop-color="#DC0000"/><stop offset="1" stop-color="#FFB200"/></linearGradient><linearGradient id="t" x1="156.3" x2="167.6" y1="73.2" y2="73.2" gradientUnits="userSpaceOnUse" spreadMethod="pad"><stop offset="0" stop-color="#FFF" stop-opacity=".4"/><stop offset="1" stop-color="#FFF" stop-opacity="0"/></linearGradient><linearGradient id="u" x1="151.4" x2="181.4" y1="179.7" y2="118.3" gradientUnits="userSpaceOnUse" spreadMethod="pad"><stop offset="0" stop-color="#DC0000"/><stop offset="1" stop-color="#FFB200"/></linearGradient><linearGradient id="v" x1="232.1" x2="151.7" y1="112.3" y2="182.3" gradientUnits="userSpaceOnUse" spreadMethod="pad"><stop offset="0" stop-color="#FFF"/><stop offset="1" stop-color="#FFF" stop-opacity="0"/></linearGradient><linearGradient id="w" x1="176.8" x2="189.6" y1="130.1" y2="130.1" gradientUnits="userSpaceOnUse" spreadMethod="pad"><stop offset="0" stop-color="#FFF" stop-opacity=".4"/><stop offset="1" stop-color="#FFF" stop-opacity="0"/></linearGradient><linearGradient id="x" x1="123.5" x2="135.9" y1="205.8" y2="114.2" gradientUnits="userSpaceOnUse" spreadMethod="pad"><stop offset="0" stop-color="#DC0000"/><stop offset="1" stop-color="#FFB200"/></linearGradient><linearGradient id="y" x1="104.6" x2="116.8" y1="44.1" y2="44.1" gradientUnits="userSpaceOnUse" spreadMethod="pad"><stop offset="0" stop-color="#FFF" stop-opacity=".4"/><stop offset="1" stop-color="#FFF" stop-opacity="0"/></linearGradient><linearGradient id="z" x1="87.1" x2="141" y1="42.2" y2="168.3" gradientUnits="userSpaceOnUse" spreadMethod="pad"><stop offset="0" stop-color="#FFF"/><stop offset="1" stop-color="#FFF" stop-opacity="0"/></linearGradient><linearGradient id="A" x1="50.9" x2="93.6" y1="74.7" y2="195.9" gradientUnits="userSpaceOnUse" spreadMethod="pad"><stop offset="0" stop-color="#FFF"/><stop offset="1" stop-color="#FFF" stop-opacity="0"/></linearGradient><clipPath id="a"><path d="M1417 1191h521v289h-521z"/></clipPath><clipPath id="b"><path d="M1417 1191h521v289h-521z"/></clipPath><clipPath id="c"><path d="M1417 1191h521v289h-521z"/></clipPath><radialGradient id="d" cx="270.1" cy="197.8" r="143.2" gradientTransform="matrix(1.6 0 0 1.3 -238.2 21.5)" gradientUnits="userSpaceOnUse" spreadMethod="pad"><stop offset="0" stop-color="#C74615"/><stop offset="1" stop-color="#6E260B"/></radialGradient></defs><path fill="#EB99A1" d="M1429 299.3h362.7a13.8 13.8 0 0 1 0 27.4H1429a13.8 13.8 0 0 1 0-27.4Zm349-27.6 82.5 41.3-82.5 41.3Z"/><g fill-rule="evenodd"><path d="m174.1 120.4 199.5 114.9V373L174 258.2Z"/><path fill="#F2F2F2" d="m373.6 373-119.7 69L54.4 327.1l119.7-68.9Z"/><path fill="#E6E6E6" d="M54.4 327.1v9.2L254 451.2V442Z"/><path fill="#CCC" d="m253.9 451.2 119.7-69v-9.1l-119.7 69Z"/><path fill="#E6E6E6" d="m373.6 235.3 8-4.6L182 115.8l-8 4.6Z"/><path fill="#B3B3B3" d="m174.1 267.4 183.5 105.7-63.8 36.7-183.5-105.6 63.8-36.8Zm0 82.7 40 23-32 18.4-39.9-23Z"/><path fill="#00A1E5" d="m182.1 134.2 183.5 105.7v119.4L182.1 253.6Z"/><path fill="#CCC" d="m373.6 235.3 8-4.6v147l-8 4.6Z"/></g><text fill="#DA4453" font-family="Arial,Arial_MSFontService,sans-serif" font-size="64" font-weight="400" transform="translate(49.8 82)">Your</text><text fill="#DA4453" font-family="Arial,Arial_MSFontService,sans-serif" font-size="64" font-weight="400" transform="translate(196.9 82)">Laptop</text><text fill="#D9D8DC" font-family="Arial,Arial_MSFontService,sans-serif" font-size="50" font-weight="400" transform="translate(1864 551)">example.com</text><text fill="#D9D8DC" font-family="Arial,Arial_MSFontService,sans-serif" font-size="50" font-weight="400" transform="translate(2163.7 551)">:</text><text fill="#EB99A1" font-family="Arial,Arial_MSFontService,sans-serif" font-size="50" font-weight="400" transform="translate(2177.4 551)">443</text><text fill="#D9D8DC" font-family="Arial,Arial_MSFontService,sans-serif" font-size="50" font-weight="400" transform="translate(1869.8 612)">203.0.113.11:</text><text fill="#EB99A1" font-family="Arial,Arial_MSFontService,sans-serif" font-size="50" font-weight="400" transform="translate(2177.4 612)">443</text><g clip-path="url(#a)" transform="translate(-540 -1000)"><g clip-path="url(#b)"><g clip-path="url(#c)"><path fill="url(#d)" d="M-25.4 115.4c-13.7 1.8-13.8 17.8-19.6 27.5-4.7 11.9-5.4 9.8-5.3 20.6.2 55-.3 110 .3 164.9 4.5 14.8 21.6 8.8 33.1 10 99.1-.1 198.3.4 297.4-.2 14.8-4.6 8.8-21.6 10-33.1V158.6c-4.2-12.6-10.3-24.9-15.3-37.4-8.8-9.8-23.3-4.4-35-5.8H-25.5Z" transform="translate(1566.5 1075.9)"/><path fill="url(#e)" d="M255.9 115.6c-5.7.1-11.6.9-16.9.2H-26.5c-13.7 1.9-13.9 17.9-19.6 27.6-3.1 7.8-4.5 9.6-5 13h339.6c-4.2-11.7-9.8-23.1-14.4-34.7-4.8-5.4-11.4-6.2-18.2-6Z" transform="translate(1566.5 1075.9)"/><path fill-rule="evenodd" stroke="#FFF" stroke-linecap="round" stroke-opacity=".6" stroke-width="3.9" d="M1516.2 1349.9h341-341Zm29.8 0v63.8-63.8Zm111.1 0v63.8-63.8Z"/><path fill="none" stroke="#FFF" stroke-opacity=".6" stroke-width="3.9" d="M1602.2 1286.7v63.7m115.3-63.7v63.7m111.6-64.5v63.7m-56.1-.4v63.7m-257.3-126.2h341.7"/><path fill="none" stroke="#FFF" stroke-linecap="round" stroke-opacity=".6" stroke-width="3.9" d="M1515.7 1233.2h341-341Z"/><path fill="none" stroke="#FFF" stroke-opacity=".6" stroke-width="3.5" d="M1656.7 1234.7v53.5"/><path fill="none" stroke="#FFF" stroke-opacity=".6" stroke-width="3.6" d="M1546.1 1231.9v56.3m226.7-57.5v56.3"/><path fill-opacity=".4" fill-rule="evenodd" d="M1750 1238a68.2 68.2 0 0 0-13 46.7c1 8-3.3 15.5-6.4 22.7-5.6 10.7-10.7 22.5-9.2 34.9-.4 7.1-3.6-.1-3.2-3.7a87.4 87.4 0 0 1-.1-30.6c-1-9.7-3.6-20.3-11.6-26.7 2.4 11.6 5.5 24.6-.3 35.7-2 3.7-6.7 4.7-7.7 9.1a64.9 64.9 0 0 0-3 56.2c1.5 4.1 3.5 8 5.2 12-5.4-3-11.3-5.1-16.6-8.5 7.3 21.2 21 42 42.9 50.3 8.5 3.6 17.9 4.3 26.9 5.8 19.8 6.1 44.4 2 57.5-15.2 7.7-10 9.8-23.4 7.2-35.5-3.4 7-9.4 12.6-17.2 14.4 1.8-9-1-18-5.6-25.6-5-8.2-6.2-18.5-2.2-27.4 6.1-13.3 10.7-29.4 3.6-43.2-2.2-6.4-3.7-2.5-4.8 2a93 93 0 0 1-24.5 36.7c.7-14.5 5.8-28.2 8-42.4a57 57 0 0 0-1.8-21.6c-1-7.9-9.3-12-12.7-18.7-6.2-9-8.3-20.1-8.7-30.9l-2.6 3.6Z"/><path fill="url(#f)" fill-rule="evenodd" stroke="#FF0" stroke-opacity=".5" stroke-width="1.4" d="M91 178.1c13 38.5 33.5 58.8 70.4 61.2 40.6 13 78.2-13.6 67.6-55.3-4.9 8.9-8 13.7-16.3 16.3 3.3-23.1-18-27-7.6-51.9 7.2-15.3 11.4-34.1-1.2-49.5a90 90 0 0 1-24.4 42c1.3-21.4 12.6-38.7 5.8-58.8 1-13.6-21.4-13.2-21.6-54.8a72.1 72.1 0 0 0-18 58.8c-5.3 22-18 30-15.7 53.6-2-13.2-3.3-24.6-.6-34.4-1.6-12-3.1-22.3-15.2-30.8 3.7 15 8 37.4-4.6 43-3.5 7.3-21 32-1.8 70.5-5.6-3.3-11.2-4.2-16.9-9.9Z" transform="translate(1621 1204.1)"/><path fill="url(#g)" fill-rule="evenodd" d="M159.5 35.7a68.3 68.3 0 0 0-13 46.6c.9 8-3.4 15.5-6.4 22.7-5.6 10.8-10.7 22.5-9.2 34.9-.4 7.1-3.6 0-3.3-3.7a87.5 87.5 0 0 1 0-30.6C126.4 96 124 85.3 116 79c2.4 11.6 5.5 24.6-.3 35.7-2 3.7-6.7 4.7-7.6 9.1A65 65 0 0 0 105 180c1.5 4.2 3.5 8 5.3 12-5.5-3-11.4-5.1-16.6-8.5 7.2 21.2 21 42 42.7 50.3 8.6 3.7 17.9 4.3 27 5.8 19.7 6.2 44.3 2.1 57.4-15.1 7.6-10 9.8-23.4 7.1-35.6-3.4 7-9.4 12.7-17.1 14.5 1.7-9-1-18-5.6-25.7-5-8.2-6.2-18.5-2.2-27.4 6-13.3 10.7-29.3 3.6-43.2-2.2-6.3-3.7-2.4-4.8 2.1a92.9 92.9 0 0 1-24.5 36.6c.7-14.5 5.8-28.2 8-42.4a57 57 0 0 0-1.8-21.6c-1-7.8-9.2-11.9-12.7-18.7-6.2-9-8.3-20.1-8.6-30.8-1 1.1-1.8 2.3-2.7 3.5Z" transform="translate(1621 1204.1)"/><path fill="url(#h)" fill-rule="evenodd" stroke="#FF0" stroke-opacity=".5" stroke-width="1.4" d="M157.3 233.5c-30.8-32.7-36-55.4-15.7-77 23-40.7 17.3-66.3.6-90.7 15.7 54.1-18.6 89-29.7 104.8-6.6-20.4-1-29.2 8.1-54.2-17.8 19.4-28.7 43-22 65.2 12 33.6 40.3 41 58.7 51.9Z" transform="translate(1621 1204.1)"/><path fill="gold" fill-rule="evenodd" stroke="#FF0" stroke-opacity=".5" stroke-width="1.4" d="M1815.8 1314.3c-4.2-12-.8-14.6 2.8-19.8 3.8-1.5 2.6-6.5 4.7-17.9 3 12.7 11.4 18.4-7.5 37.7Z"/><path fill="url(#i)" fill-rule="evenodd" d="M199.4 70.6c-1.2 5.3-.7 11.2-3 16.2-5.5 4.2-7.9 12-5.5 18.6.8 5.5 2.5 6.5 5.6 1.4 6.5-6.7 12.6-16.4 9-26-1.8-5-3.2-10-5.1-14.8l-1 4.6Z" transform="translate(1621 1204.1)"/><path fill="gold" fill-rule="evenodd" stroke="#FF0" stroke-opacity=".5" stroke-width="1.4" d="M1842.4 1388.1c10.7-10.3 8.5-14.8 7.6-22.2-3.2-3.5.7-8.1 4.6-21-9.9 11.5-21.5 13-12.2 43.2Z"/><path fill="url(#j)" fill-rule="evenodd" stroke="#FF0" stroke-opacity=".5" stroke-width="1.4" d="M171.3 233.5c12-6.8 15.3-28.2 16.9-51.9 2.9-22.9 8.7-45.8 47.2-49.5-15.8 12.6-28.6 28.2-22.7 57.1-1.6 42.1-32.9 40.6-41.4 44.3Z" transform="translate(1621 1204.1)"/><path fill="url(#k)" fill-rule="evenodd" d="M231 128.8c-16.5 2.3-33.4 12.2-38.2 28.9-7.7 20.9-3.4 44.7-14 64.8-4 1.7-3 9.1 2 7.7 14.4-2.6 28.2-12.7 31.8-27.4 3.6-10.3 1.6-21.1 1.2-31.6a53 53 0 0 1 20.9-38.4c2-3-1.4-4-3.8-4Z" transform="translate(1621 1204.1)"/><path fill="url(#l)" fill-rule="evenodd" d="M231.1 136.8c-6.6 7-16.2 13.5-16 24.3-.4 7.7 2.3 15 4 22.4 5.8-5.5 12.3-12.6 10.2-21.2 0-3.8-2.9-7.2-.6-10.9 2.1-5.8 4.4-11.7 5.9-17.8l-3.5 3.2Z" transform="translate(1621 1204.1)"/><path fill="url(#m)" fill-rule="evenodd" stroke="#FF0" stroke-opacity=".5" stroke-width="1.4" d="M150.3 217.7c-1.5-18.6-3.6-32 19.8-48.9 39.8-27.7 20.2-43.8-4.6-72.8 7.4 28.8-4.5 51.7-14.6 67-6.6 9.5-29.5 29-.6 54.7Z" transform="translate(1621 1204.1)"/><path fill="gold" fill-rule="evenodd" stroke="#FF0" stroke-opacity=".5" stroke-width="1.4" d="M1756.2 1285.1c10.7-12.3 8-17.4 6.2-26-3.7-3.9 0-9.4 3.1-24.5-9.7 13.7-22.4 16-9.3 50.5Z"/><path fill="url(#n)" fill-rule="evenodd" d="M142 28c-6.3 8-15.8 15.6-15.3 27 0 9.4 3.7 18.2 6.4 27 5.7-6.4 11.8-14.6 9.2-23.8 0-3.6-2.5-6.4-2.6-9.8 1.4-8 4.3-15.8 5.4-24L142 28Z" transform="translate(1621 1204.1)"/><path fill="url(#o)" fill-rule="evenodd" d="M164.9 91.2a81.3 81.3 0 0 1-10 57.4c-6.2 11.9-18.3 21-19.5 35-1.8 12.3 7 22.5 15.2 30.4 3.3 4.2.5-5.7 1-8-1.4-12.1.6-25.6 10.4-34 10.8-10.5 26.3-17.8 31.5-33 3.5-13.3-5.9-25.3-14-34.8-5-6-10.2-11.7-15.3-17.5l.7 4.5Z" transform="translate(1621 1204.1)"/><path fill="url(#p)" fill-rule="evenodd" d="M145.3 73.8c.5 9.3 3 18.5 1.9 27.8a107 107 0 0 1-24 59.4c-2.4 3.5-5 7-7.5 10.3a50.6 50.6 0 0 1 2.7-34c2.4-5.8 4-11.7 5-17.9a80.3 80.3 0 0 0-24.8 44.1 53.3 53.3 0 0 0 13.3 43.3c13 15.3 31.7 24 49.8 31.7C151.4 224 137 211 134 192.8c-2-10.6 2-21.2 9-29.1 8-11 13-24 15.9-37.1 3.8-17.1.8-35.6-8.6-50.4-2.3-1.7-6.4-10.6-5-2.4Z" transform="translate(1621 1204.1)"/><path fill="url(#q)" fill-rule="evenodd" stroke="#FF0" stroke-opacity=".5" stroke-width="1.2" d="M74.3 145.5c10.6 31.4 27.4 48 57.5 50 33.2 10.6 64-11.2 55.2-45.2-4 7.3-6.5 11.2-13.3 13.3 2.7-18.9-14.6-22-6.2-42.4 5.9-12.5 9.4-27.9-1-40.4a73.5 73.5 0 0 1-20 34.3c1.2-17.5 10.4-31.6 4.8-48 .8-11.2-17.4-10.9-17.6-44.8a59 59 0 0 0-14.7 48c-4.3 18-14.8 24.5-12.8 43.8a70.2 70.2 0 0 1-.5-28c-1.3-9.9-2.6-18.3-12.4-25.3 3 12.2 6.5 30.6-3.8 35.2-2.8 6-17.1 26-1.4 57.6-4.6-2.7-9.2-3.5-13.8-8.1Z" transform="matrix(-1 0 0 1 1966 1243)"/><path fill="url(#r)" fill-rule="evenodd" d="M130.3 29.1a55.8 55.8 0 0 0-10.7 38.1c.8 6.6-2.7 12.7-5.2 18.6a49.3 49.3 0 0 0-7.5 28.5c-.3 5.8-3 0-2.6-3a71.4 71.4 0 0 1-.1-25c-.9-8-2.9-16.6-9.5-21.8 2 9.4 4.5 20-.2 29-1.7 3.1-5.4 4-6.2 7.6a53 53 0 0 0-2.5 45.9c1.2 3.3 2.8 6.5 4.3 9.8-4.5-2.5-9.3-4.2-13.6-7 6 17.3 17.2 34.4 35 41.1 7 3 14.5 3.5 22 4.7 16 5 36.1 1.7 46.8-12.3 6.3-8.2 8-19.2 5.9-29a21.4 21.4 0 0 1-14 11.7c1.4-7.3-.8-14.6-4.6-21-4-6.6-5-15-1.8-22.3 5-10.8 8.7-24 3-35.3-1.8-5.2-3-2-4 1.7a75.9 75.9 0 0 1-20 30c.6-11.9 4.7-23 6.5-34.7 1-6-.2-11.9-1.4-17.6-.8-6.5-7.6-9.8-10.4-15.3a47 47 0 0 1-7-25.2l-2.2 2.8Z" transform="matrix(-1 0 0 1 1966 1243)"/><path fill="url(#s)" fill-rule="evenodd" stroke="#FF0" stroke-opacity=".5" stroke-width="1.2" d="M128.5 190.7c-25.2-26.6-29.5-45.2-12.8-62.8 18.7-33.3 14-54.2.4-74.2C129 98 101 126.5 92 139.3c-5.4-16.6-.8-23.8 6.6-44.2-14.5 15.8-23.4 35-18 53.3 9.8 27.4 33 33.4 48 42.3Z" transform="matrix(-1 0 0 1 1966 1243)"/><path fill="gold" fill-rule="evenodd" stroke="#FF0" stroke-opacity=".5" stroke-width="1.2" d="M1806.9 1333c3.4-9.8.6-11.9-2.3-16.2-3-1.2-2.2-5.3-3.8-14.5-2.5 10.3-9.3 15 6.1 30.8Z"/><path fill="url(#t)" fill-rule="evenodd" d="M162.9 57.6c-1 4.4-.6 9.2-2.5 13.3a13.6 13.6 0 0 0-4.4 15.2c.6 4.5 2 5.3 4.5 1.2 5.3-5.5 10.3-13.4 7.3-21.3-1.4-4-2.6-8.1-4.1-12l-.8 3.6Z" transform="matrix(-1 0 0 1 1966 1243)"/><path fill="gold" fill-rule="evenodd" stroke="#FF0" stroke-opacity=".5" stroke-width="1.2" d="M1785.2 1393.3c-8.7-8.4-7-12-6.2-18.1 2.5-2.9-.6-6.7-3.8-17.1 8 9.3 17.6 10.6 10 35.2Z"/><path fill="url(#u)" fill-rule="evenodd" stroke="#FF0" stroke-opacity=".5" stroke-width="1.2" d="M140 190.7c9.8-5.6 12.4-23 13.7-42.3 2.4-18.8 7.2-37.5 38.5-40.5-12.8 10.3-23.3 23-18.5 46.6-1.3 34.4-26.8 33.2-33.8 36.2Z" transform="matrix(-1 0 0 1 1966 1243)"/><path fill="url(#v)" fill-rule="evenodd" d="M188.6 105.2c-13.4 1.9-27.2 10-31 23.6-6.4 17-3 36.5-11.5 52.9-3.3 1.4-2.5 7.5 1.6 6.3 11.8-2.1 23-10.3 26-22.4 2.9-8.3 1.2-17.2 1-25.8a43.4 43.4 0 0 1 17-31.4c1.7-2.4-1.1-3.2-3-3.2Z" transform="matrix(-1 0 0 1 1966 1243)"/><path fill="url(#w)" fill-rule="evenodd" d="M188.8 111.7c-5.4 5.7-13.2 11-13 19.9-.4 6.2 1.8 12.2 3.2 18.3 4.7-4.5 10-10.3 8.3-17.4 0-3-2.4-5.8-.5-8.8 1.7-4.8 3.6-9.6 4.8-14.5l-2.8 2.5Z" transform="matrix(-1 0 0 1 1966 1243)"/><path fill="url(#x)" fill-rule="evenodd" stroke="#FF0" stroke-opacity=".5" stroke-width="1.2" d="M122.8 177.8c-1.3-15.2-3-26.1 16.2-40 32.5-22.6 16.5-35.7-3.8-59.4 6 23.5-3.7 42.2-12 54.7-5.3 7.8-24 23.7-.4 44.7Z" transform="matrix(-1 0 0 1 1966 1243)"/><path fill="gold" fill-rule="evenodd" stroke="#FF0" stroke-opacity=".5" stroke-width="1.2" d="M1855.6 1309.2c-8.8-10.1-6.5-14.3-5-21.2 3-3.2-.2-7.8-2.7-20 8 11.1 18.3 13 7.7 41.2Z"/><path fill="url(#y)" fill-rule="evenodd" d="M116 22.8c-5.2 6.7-12.9 12.8-12.5 22.1 0 7.7 3 14.9 5.3 22.1 4.6-5.3 9.5-12 7.5-19.4 0-3-2.1-5.3-2.2-8 1.2-6.6 3.5-13 4.4-19.6l-2.5 2.8Z" transform="matrix(-1 0 0 1 1966 1243)"/><path fill="url(#z)" fill-rule="evenodd" d="M134.7 74.5c3.5 16-.1 32.9-8.2 47-5 9.6-15 17-15.9 28.5-1.5 10 5.7 18.3 12.4 24.8 2.7 3.4.4-4.7.8-6.6-1.1-9.8.6-20.9 8.5-27.6 8.9-8.7 21.5-14.6 25.7-27 2.9-11-4.8-20.7-11.4-28.5-4-4.9-8.3-9.6-12.5-14.3l.6 3.7Z" transform="matrix(-1 0 0 1 1966 1243)"/><path fill="url(#A)" fill-rule="evenodd" d="M118.7 60.3c.4 7.6 2.5 15 1.5 22.7a87.5 87.5 0 0 1-19.5 48.5l-6.2 8.5a41.3 41.3 0 0 1 2.2-28c2-4.6 3.3-9.4 4-14.5a65.6 65.6 0 0 0-20.1 36A43.6 43.6 0 0 0 91.4 169c10.6 12.6 25.9 19.6 40.7 25.9-8.4-11.8-20-22.4-22.6-37.3a28.3 28.3 0 0 1 7.4-23.8c6.5-9 10.6-19.6 13-30.3 3-14 .6-29-7-41.2-2-1.4-5.3-8.6-4.2-1.9Z" transform="matrix(-1 0 0 1 1966 1243)"/></g></g></g><path fill="#EB99A1" d="M494 299.3h347a13.7 13.7 0 1 1 0 27.4H494a13.8 13.8 0 0 1 0-27.4Zm333.3-27.6 82.5 41.3-82.5 41.3Z"/><text fill="#DA4453" font-family="Arial,Arial_MSFontService,sans-serif" font-size="64" font-weight="400" transform="translate(1840.7 82)">WebApp</text><text fill="#DA4453" font-family="Arial,Arial_MSFontService,sans-serif" font-size="64" font-weight="400" transform="translate(2103 82)">Server</text><text fill="#DA4453" font-family="Arial,Arial_MSFontService,sans-serif" font-size="64" font-weight="400" transform="translate(911.7 83)">„</text><text fill="#DA4453" font-family="Arial,Arial_MSFontService,sans-serif" font-size="64" font-weight="400" transform="translate(932.9 83)">Dumb</text><text fill="#DA4453" font-family="Arial,Arial_MSFontService,sans-serif" font-size="64" font-weight="400" transform="translate(1103.6 83)">“ Firewall</text><text fill="#D9D8DC" font-family="Arial,Arial_MSFontService,sans-serif" font-size="50" font-weight="400" transform="translate(1052.2 550)">block all</text><text fill="#D9D8DC" font-family="Arial,Arial_MSFontService,sans-serif" font-size="50" font-weight="400" transform="translate(895.3 611)">allow</text><text fill="#DA4453" font-family="Arial,Arial_MSFontService,sans-serif" font-size="50" font-weight="400" transform="translate(1024.7 611)">TCP</text><text fill="#EB99A1" font-family="Arial,Arial_MSFontService,sans-serif" font-size="50" font-weight="400" transform="translate(1139.9 611)">80</text><text fill="#D9D8DC" font-family="Arial,Arial_MSFontService,sans-serif" font-size="50" font-weight="400" transform="translate(1209.8 611)">and </text><text fill="#EB99A1" font-family="Arial,Arial_MSFontService,sans-serif" font-size="50" font-weight="400" transform="translate(1307.8 611)">443</text><text fill="#D9D8DC" font-family="Arial,Arial_MSFontService,sans-serif" font-size="50" font-weight="400" transform="translate(628.7 430)">SSH</text><text fill="#D9D8DC" font-family="Arial,Arial_MSFontService,sans-serif" font-size="50" font-weight="400" transform="translate(1564.8 430)">SSH</text><path fill="#C7C7C7" d="M1957.5 148.4c-3 4.8-2 235.7 1.8 244.8 3 7.2 100.7 88.1 105.8 90.3 66-.4 110.5-24.5 117.9-37.1 2.8-16 .4-261.5-2.3-266.7-2.3-4.4-127.2-49.1-131.6-50.2-4-.8-88.3 13.5-91.6 19Z"/><path fill="#FFF" fill-opacity=".5" stroke="#FFF" stroke-opacity=".5" stroke-width=".1" d="m1963 153.1 3 1.3 3.1 1.4 3 1.4 3.2 1.4 3.1 1.5 3.1 1.5 3.2 1.6 3.2 1.6 3.1 1.6 3.2 1.6 3.3 1.7 3.2 1.7 3.2 1.7 3.3 1.7 6.5 3.5 6.6 3.6 6.6 3.5 6.7 3.6 6.7 3.6 6.7 3.5 6.8 3.5 3.3 1.7 3.4 1.7 3.4 1.6 3.4 1.7 1.6-.4 1.6-.4 3.3-.7 3.4-.9 3.5-.7 3.5-.9 3.6-.8 3.6-.8 3.8-.8 3.6-.9 3.7-.8 7.5-1.7 7.5-1.6 3.8-.9 3.7-.8 3.7-.8 3.6-.7 3.6-.8 3.6-.8 3.5-.7 3.4-.7 3.4-.7 1.6-.3 1.7-.4 1.6-.3 1.6-.3 1.6-.3 1.5-.3 1.5-.3 1.5-.4 1.5-.2 1.4-.3 1.4-.3 1.4-.2 1.4-.3 1.3-.3 1.3-.2 1.2-.2 1.3-.2 1.1-.3-3 1-3 1-3.2.9-3.2.9-3.3.9-3.2.9-3.4 1-3.3.8-3.3 1-3.4.8-6.9 1.9-6.9 1.7-7 1.9-7 1.8-6.8 1.8-6.9 1.8-3.4.9-3.3 1-3.4.8-3.3 1-3.2.8-3.3 1-3.2.9-3.1 1-3 .9-3.1.9-.1 3.5-.1 3.6v3.6l-.1 3.8v3.7l-.2 3.8v3.8l-.1 4v3.9l-.1 4-.1 4v8l-.1 4.2v8.3l-.1 4.2v4.3l-.1 4.2v4.3l-.1 8.6v17.5l-.1 8.8-.2 17.6v26.5l-.1 8.7v8.7l-.2 8.6v12.8l-.1 4.2v8.4l-.1 4-.1 4.2v8l-.1 4v4l-.1 3.8-.1 3.8v3.9l-.2 3.7v7.4l-.2 3.6v3.5l-.1-3.6v-7.3l-.1-3.7-.1-3.8v-3.8l-.1-4v-3.9l-.1-4-.1-4v-4l-.2-4v-4.2l-.1-4.2V417l-.1-4.2v-4.3l-.2-4.3v-4.3l-.1-4.3-.2-8.7-.2-8.8v-9l-.3-8.8-.3-18-.3-17.8-.2-8.9-.2-8.8V298l-.3-8.8v-4.3l-.1-4.3v-4.3l-.2-4.3v-8.4l-.1-4.2-.1-4-.1-4.2v-4l-.1-4v-4l-.1-4-.1-3.8v-3.9l-.1-3.7v-7.5l-.1-3.6v-3.6l-6.6-3.4-6.4-3.5-6.4-3.4-6.5-3.4-6.3-3.4-6.4-3.4-6.3-3.4-6.3-3.4-6.2-3.4-6.2-3.4-6.1-3.6-6-3.5-3-1.8-3-1.8-3-1.8-3-1.9-3-1.8-2.9-1.9-2.9-1.9Z"/><path fill-opacity=".2" stroke="#FFF" stroke-opacity=".2" stroke-width=".1" d="m2163.6 400.1-.5.8-.6.8-.7.7-.7.8-.7.7-.7.7-.8.7-.8.7-.8.7-1 .7-.8.6-1 .7-.8.6-1 .6-1 .6-1 .7-1 .5-1 .6-1.2.5-1 .5-1.1.5-1.2.5-1 .5-1.2.4-2.4 1-2.3.7-2.4.8-2.5.6-2.4.6-2.5.5-2.4.5-2.4.4-2.5.3-2.4.2-1.2.1h-1.2l-1.1.1h-4.6l-1.1-.1h-1.1l-1.1-.1-1-.1-1-.2-1.1-.1-1-.2-1-.2-1-.3-.8-.2-1-.3-.8-.2-.9-.3.1-.1.4-.1h.3l.5-.2.4-.1.6-.2.6-.2.7-.1.8-.3.8-.2.9-.2 1-.3.9-.2 1-.3 1.1-.3 1.1-.3 1.2-.4 1.2-.3 1.2-.3 1.3-.4 1.3-.3 1.3-.4 1.4-.4 1.4-.3 2.8-.8 3-.8 2.9-.9 3-.7 2.9-1 3-.7 2.8-.8 2.9-.8 1.3-.4 1.5-.3 1.3-.4 1.3-.4 1.3-.4 1.2-.3 1.3-.4 1.2-.3 1-.3 1.2-.3 1-.3 1-.3 1-.2.9-.3.9-.3.8-.2.7-.2.7-.2.6-.1.5-.2.4-.1.4-.1.3-.2h.1Z"/><path fill="#FFF" fill-opacity=".4" stroke="#FFF" stroke-opacity=".4" stroke-width=".1" d="m2102.7 368.5 55.2-21.3.5.3.5.2.4.2.4.3.3.4.4.3.3.4.3.4.2.4.3.4.1.4.2.5.2.5.1.4.2.9.1.9.1.8v2.7l-8.6 3-.1.1-.1.1v.2h-.2v.3l-.2.1-.2.2-.1.3-.2.2-.2.2-.2.3-.3.3-.2.3-.3.2-.6.8-.6.6-.7.7-.8.7-.8.8-1 .7-1 .8-1 .7-1 .7-1.2.6-1.2.7-1.3.6-.6.2-.7.3-.7.2-.7.3-.8.1-.7.2-.7.2-.8.2h-.8l-.8.2h-.8l-.8.1h-3.5l-.9-.1-.9-.2h-.9l-1-.3-.9-.2-1-.2-1-.3-1-.4h-.3l-.3.1h-.4l-.4.2h-1l-.6.1h-.6l-.8.1-.7.1h-4.6l-.8-.1-.8-.1-.7-.1-.7-.2-.7-.2-.7-.2-.6-.3-.7-.3-.5-.3-.5-.4-.5-.4-.1-.3-.2-.2-.2-.3-.1-.2-.1-.3Z"/><path fill="#606060" d="M2102.7 361.4 2158 347c.7 2.6.7 6.3-.4 8.2-2.8 1.4-8.4 2.5-11.2 3.8-8 7.7-15 8.4-27.9 7.3l-14.8 2.9c-1.5-3-2-4.3-.9-8Z"/><path fill="#FFF" fill-opacity=".4" stroke="#FFF" stroke-opacity=".4" stroke-width=".1" d="m1961 151.5 107 60-.5 268.3-104.7-88.1Z"/><path fill-opacity=".2" stroke="#FFF" stroke-opacity=".2" stroke-width=".1" d="m2157.4 417.1-.5.7-.7.7-.6.8-.6.7-.7.7-.6.6-.7.7-.7.6-.7.5-.8.6-.7.6-.7.6-.8.5-.8.5-1.6 1-1.6.8-1.7.9-1.6.7-1.7.7-1.7.6-1.8.6-1.8.4-1.7.5-1.8.4-1.7.3-1.8.2-1.8.2h-1.7l-1.7.2h-3.5l-1.6-.2h-1.6l-1.6-.3-1.5-.3-1.5-.3-1.4-.3-1.4-.4-1.3-.4v-.1h.3l.3-.1h.2l.4-.2.5-.1.4-.1.6-.1.6-.2.6-.2.6-.2.7-.2.8-.2.7-.2.9-.2.9-.2.8-.3 1-.3.9-.2 1-.3 1-.2 1-.3 2-.6 2.2-.6 2.2-.6 2.3-.6 2.2-.6 4.5-1.3 2.2-.6 2.1-.6 2.2-.6 1-.2 1-.3 1-.3 1-.3.9-.3.8-.2 1-.2.8-.3.8-.2.8-.2.7-.2.6-.2.7-.2.6-.1.5-.2.5-.1.5-.2h.4l.3-.2.3-.1h.3Zm-9 16.7-.8.8-.7.9-.8.8-.8.7-.8.8-.8.6-1 .7-.9.6-.9.5-1 .6-1 .5-1 .4-1 .4-1 .4-1 .3-1.1.3-1 .3-1.2.2-1 .2-1.2.2h-1l-1.1.1h-3.4l-1-.1-1.1-.2-1.2-.1-1-.3-1-.2-1.1-.3-1-.4h.5l.2-.1.3-.1.3-.1.4-.1h.3l.4-.2.4-.1.5-.1.4-.2.5-.1.5-.1.6-.2 1-.3 1.3-.3 1.3-.4 1.3-.3 1.3-.4 1.4-.4 2.8-.8 2.8-.7 1.4-.4 1.4-.4 1.3-.3 1.2-.4 1.3-.4 1.1-.3.5-.1.6-.2.5-.1.5-.1.4-.2h.5l.4-.2.3-.1.4-.1.3-.1.3-.1h.3l.1-.1h.2l.2-.1Z"/><path fill="#FCFCFC" fill-opacity=".4" stroke="#FFF" stroke-opacity=".4" stroke-width=".1" d="m2167.4 201.3 5.4.8 1 128.2-84 23.5-2-6.8 80.7-21.5Z"/><path fill-opacity=".2" stroke="#FFF" stroke-opacity=".2" stroke-width=".1" d="m2088.1 248.9.2 3.6 79-22.8ZM2087 275l.1 3.6 79-22.8Zm1.1 24.1.2 3.6 79-22.8Zm0 23.7.2 3.6 79-22.8Z"/><path fill="#9E9E9E" d="M2166.9 204.3 2088 224l.7 129.6h-1.2l-.7-130.1v-.5l.5-.1 79.3-19.8v.6Zm-79.3 19.8.5-.1v-.5h-.6Z"/></svg>