<svg xmlns="http://www.w3.org/2000/svg" xml:space="preserve" width="1651" height="682" overflow="hidden"><path fill="#EB99A1" d="M499 327.3h607a13.8 13.8 0 0 1 0 27.4H499a13.8 13.8 0 0 1 0-27.4Zm593.2-27.6 82.5 41.3-82.5 41.3Z"/><g fill-rule="evenodd"><path d="m173.7 149.4 199 114.9V402l-199-114.9Z"/><path fill="#F2F2F2" d="m372.7 402-119.4 69-199-114.8 119.4-69Z"/><path fill="#E6E6E6" d="M54.4 356.2v9.1l199 114.9V471Z"/><path fill="#CCC" d="m253.3 480.2 119.4-69v-9.1l-119.4 69Z"/><path fill="#E6E6E6" d="m372.7 264.3 8-4.6-199-114.9-8 4.6Z"/><path fill="#B3B3B3" d="m173.7 296.4 183 105.7-63.6 36.7-183-105.6 63.6-36.8Zm0 82.7 39.8 23-31.8 18.4-39.8-23Z"/><path fill="#00A1E5" d="m181.7 163.2 183 105.6v119.5l-183-105.7Z"/><path fill="#CCC" d="m372.7 264.3 8-4.6v147l-8 4.6Z"/></g><text fill="#D9D8DC" font-family="Arial,Arial_MSFontService,sans-serif" font-size="50" font-weight="400" transform="translate(762.5 433)">SSH</text><text fill="#D9D8DC" font-family="Arial,Arial_MSFontService,sans-serif" font-size="50" font-weight="400" transform="translate(1206.1 579)">example.com</text><text fill="#D9D8DC" font-family="Arial,Arial_MSFontService,sans-serif" font-size="50" font-weight="400" transform="translate(1505.8 579)">:</text><text fill="#EB99A1" font-family="Arial,Arial_MSFontService,sans-serif" font-size="50" font-weight="400" transform="translate(1519.5 579)">22</text><text fill="#D9D8DC" font-family="Arial,Arial_MSFontService,sans-serif" font-size="50" font-weight="400" transform="translate(1211.8 640)">203.0.113.11:</text><text fill="#EB99A1" font-family="Arial,Arial_MSFontService,sans-serif" font-size="50" font-weight="400" transform="translate(1519.5 640)">22</text><text fill="#DA4453" font-family="Arial,Arial_MSFontService,sans-serif" font-size="64" font-weight="400" transform="translate(49.6 82)">Your</text><text fill="#DA4453" font-family="Arial,Arial_MSFontService,sans-serif" font-size="64" font-weight="400" transform="translate(196.7 82)">Laptop</text><text fill="#DA4453" font-family="Arial,Arial_MSFontService,sans-serif" font-size="64" font-weight="400" transform="translate(1160.8 82)">WebApp</text><text fill="#DA4453" font-family="Arial,Arial_MSFontService,sans-serif" font-size="64" font-weight="400" transform="translate(1423.2 82)">Server</text><path fill="#C7C7C7" d="M1270.7 143.7c-3.2 5.1-2.2 250.2 1.9 259.8 3.2 7.6 106.8 93.6 112.1 95.9 70-.5 117.3-26 125.1-39.4 3-17 .4-277.6-2.4-283-2.5-4.8-135-52.2-139.6-53.4-4.2-1-93.6 14.4-97.1 20Z"/><path fill="#FFF" fill-opacity=".5" stroke="#FFF" stroke-opacity=".5" stroke-width=".1" d="m1276.1 148.8 3.3 1.3 3.2 1.4 3.3 1.5 3.3 1.6 3.3 1.5 3.3 1.6 3.3 1.7 3.4 1.7 3.4 1.7 3.4 1.7 3.4 1.8 3.4 1.8 3.5 1.8 3.4 1.8 7 3.8 7 3.7 7 3.8 7 3.8 7.2 3.8 7.1 3.7 7.2 3.7 3.6 1.8 3.5 1.8 3.7 1.8 3.5 1.8 1.7-.4 1.8-.5 3.5-.8 3.6-.9 3.7-.8 3.8-.8 3.8-1 3.8-.8 4-.9 3.8-.9 4-.9 8-1.7 7.9-1.8 4-.9 4-.9 3.8-.8 3.9-.8 3.8-.8 3.8-.8 3.7-.8 3.7-.8 3.5-.7 1.8-.3 1.7-.4 1.7-.3 1.7-.4 1.7-.3 1.6-.3 1.7-.3 1.5-.4 1.6-.3 1.5-.3 1.5-.3 1.5-.2 1.5-.3 1.3-.3 1.4-.3 1.3-.1 1.3-.3 1.3-.2-3.3 1-3.2 1-3.3 1-3.4.9-3.5 1-3.4 1-3.6 1-3.5.9-3.6 1-3.6 1-7.3 1.9-7.3 1.8-7.4 2-7.4 2-7.3 1.8-7.3 2-3.6.9-3.6 1-3.5 1-3.5 1-3.5.9-3.4 1-3.4 1-3.3 1-3.3 1-3.2 1-.1 3.7-.1 3.8v3.8l-.1 4-.1 4-.1 4-.1 4v4.2l-.1 4.2v4.2l-.1 4.2v4.3l-.1 4.4v4.4l-.1 4.3v4.5l-.1 4.4v9l-.1 4.6v9.2l-.2 9.2v18.6l-.1 18.8-.1 18.7v9.4l-.1 9.2v9.2l-.2 9.2v13.6l-.1 4.4v4.5l-.1 4.4v4.3l-.1 4.4v8.5l-.2 4.2v8.4l-.1 4-.1 4.1-.1 4v3.9l-.2 3.9v3.8l-.1 3.8-.1-3.9v-7.8l-.1-3.9v-4l-.2-4v-8.4l-.1-4.2-.1-4.2v-4.4l-.2-4.3v-4.3l-.1-4.4v-4.6l-.1-4.5-.1-4.5-.1-4.5v-4.6l-.2-4.6-.1-9.3-.2-9.3-.2-9.4-.1-9.5-.4-19-.3-19-.2-9.4-.2-9.4-.1-9.3-.2-9.4v-4.5l-.2-4.6v-4.6l-.1-4.5-.1-4.4V266l-.1-4.4-.1-4.4-.1-4.4v-4.3l-.1-4.2-.1-4.3v-4.1l-.1-4.1v-4.1l-.1-4-.1-4v-7.9l-.1-3.7-7-3.7-6.8-3.7-6.8-3.6-6.8-3.6-6.8-3.6-6.7-3.6-6.7-3.6-6.7-3.6-6.5-3.7-6.6-3.6-6.5-3.8-6.5-3.7-3.2-1.9-3.1-2-3.2-1.9-3.1-2-3.2-1.9-3.1-2-3-2Z"/><path fill-opacity=".2" stroke="#FFF" stroke-opacity=".2" stroke-width=".1" d="m1489.1 410.8-.6 1-.6.8-.7.8-.7.8-.8.7-.7.8-1 .7-.7.8-1 .7-.9.7-.9.7-1 .7-1 .7-1 .6-1 .7-1 .6-1.2.6-1.1.6-1.1.6-1.2.5-1.2.6-1.2.5-1.1.5-1.2.5-2.5 1-2.5.8-2.6.7-2.6.7-2.6.6-2.6.6-2.6.5-2.6.4-2.5.4-2.6.2h-1.3l-1.3.1-1.2.1h-4.9l-1.1-.1h-1.2l-1.2-.1-1-.2-1.1-.2h-1.1l-1-.3-1.1-.2-1-.3-1-.2-1-.3-.9-.3-.9-.3h.1l.4-.2h.4l.4-.2.5-.1.6-.2.7-.2.7-.2.8-.2 1-.2.8-.3 1-.3 1-.2 1.2-.3 1.1-.3 1.2-.4 1.2-.3 1.3-.3 1.3-.4 1.4-.4 1.4-.4 1.3-.4 1.5-.4 1.5-.4 3-.8 3-.9 3.2-.8 3.1-.8 3.2-1 3-.8 3.2-.9 3-.8 1.5-.4 1.5-.4 1.4-.4 1.4-.4 1.4-.4 1.3-.4 1.3-.3 1.3-.4 1.1-.3 1.2-.3 1.2-.4 1-.3 1-.2 1-.3.9-.3.8-.2.8-.2.7-.2.6-.2.6-.2.4-.1.5-.1.3-.2h.1Z"/><path fill="#FFF" fill-opacity=".4" stroke="#FFF" stroke-opacity=".4" stroke-width=".1" d="m1424.4 377.4 58.6-22.6.6.2.5.3.5.2.4.3.3.4.4.4.3.4.3.4.3.4.2.5.2.4.2.5.2.5.1.4.2 1 .1 1 .2.8v2.3l-.1.3v.3l-9.1 3.2-.1.1-.1.1-.1.2h-.1v.3l-.3.2-.1.1-.2.3-.2.2-.2.3-.2.3-.3.3-.2.3-.3.3-.7.7-.6.7-.8.8-.8.7-.9.8-1 .8-1 .8-1 .8-1.2.7-1.2.7-1.3.7-1.4.6-.7.3-.7.3-.8.2-.7.3-.8.2-.8.2-.8.1-.8.2-.8.2h-.8l-.9.1-.9.1h-3.7l-1-.2-.9-.1-1-.1-1-.2-1-.3-1-.2-1-.3-1-.4h-.5l-.3.1h-.4l-.5.1-.5.1h-.5l-.6.1h-.7l-.8.2h-5.6l-.9-.1-.8-.1-.8-.2-.8-.2-.7-.1-.8-.2-.6-.3-.7-.4-.6-.3-.5-.4-.5-.5-.2-.3-.1-.2-.2-.3-.2-.2v-.3Z"/><path fill="#606060" d="m1424.7 369.7 58.5-15.1c.7 2.7.8 6.7-.4 8.8-3 1.4-9 2.5-11.9 4-8.5 8.2-16 8.9-29.6 7.7l-15.7 3c-1.6-3.2-2-4.5-1-8.4Z"/><path fill="#FFF" fill-opacity=".4" stroke="#FFF" stroke-opacity=".4" stroke-width=".1" d="m1274 147 113.5 63.7-.4 284.8-111.2-93.5Z"/><path fill-opacity=".2" stroke="#FFF" stroke-opacity=".2" stroke-width=".1" d="m1482.6 428.9-.7.8-.6.8-.7.8-.7.7-.6.7-.7.7-.8.7-.7.6-.8.7-.7.6-.9.6-.7.6-.8.5-.8.5-1.7 1.1-1.8 1-1.7.8-1.8.8-1.8.7-1.8.7-1.9.6-1.9.5-1.8.5-1.9.4-1.8.3-2 .2-1.8.2-1.9.1-1.8.2h-1.8l-1.8-.1-1.7-.1-1.8-.2-1.7-.1-1.6-.4-1.6-.3-1.5-.4-1.5-.3-1.3-.5h.3l.3-.2h.3l.4-.2.5-.1.5-.2h.5l.7-.3.6-.2.7-.1.7-.2.8-.3.9-.2.8-.2 1-.3 1-.2.9-.3 1-.3 1-.3 1-.2 1.1-.4 2.2-.6 2.3-.6 2.4-.6 2.4-.7 2.3-.7 4.8-1.3 2.3-.6 2.3-.7 2.3-.6 1-.3 1.1-.3 1-.3 1-.2 1-.3 1-.3 1-.3.8-.2 1-.3.7-.2.8-.2.7-.2.7-.2.6-.2.6-.1.5-.2.5-.2h.4l.4-.1.3-.2h.3Zm-9.7 17.7-.8 1-.7.8-.8 1-1 .7-.8.8-.9.7-1 .7-1 .7-.9.5-1 .6-1 .5-1 .5-1.2.4-1 .5-1.2.3-1.1.3-1.2.3-1.2.2-1 .2-1.3.2h-1.1l-1.2.2h-2.4l-1.1-.1-1.2-.1-1.1-.2-1.2-.1-1.1-.3-1.2-.3-1-.3-1.1-.3.1-.1h.5l.2-.1.3-.2h.3l.4-.1.3-.1.4-.1.5-.2h.5l.5-.2.5-.2.5-.1.6-.1 1.2-.4 1.2-.3 1.4-.4 1.4-.4 1.4-.4 1.5-.4 3-.8 3-.8 1.4-.5 1.5-.3 1.4-.4 1.3-.4 1.3-.4 1.2-.3.6-.2.5-.2h.6l.5-.2.5-.1.4-.2h.5l.4-.2.3-.1.4-.2h.6l.2-.1.2-.1h.1Z"/><path fill="#FCFCFC" fill-opacity=".4" stroke="#FFF" stroke-opacity=".4" stroke-width=".1" d="m1493.2 199.8 5.7 1 1 136-89.2 25-2.1-7.3 85.7-22.8Z"/><path fill-opacity=".2" stroke="#FFF" stroke-opacity=".2" stroke-width=".1" d="m1409 250.4.1 3.8 84-24.2Zm-1.3 27.6.2 3.9 83.9-24.2Zm1.3 25.7.1 3.8 84-24.2Zm0 25.1.1 3.9 84-24.3Z"/><path fill="#9E9E9E" d="m1492.7 203-83.5 20.9.7 137.6h-1.4l-.7-138.1v-.6l.5-.1 84-21 .2.7Zm-84 21 .5-.1v-.5h-.7Z"/></svg>