<svg width="1974" height="523" xmlns="http://www.w3.org/2000/svg" xmlns:xlink="http://www.w3.org/1999/xlink" xml:space="preserve" overflow="hidden"><defs><clipPath id="clip0"><path d="M1724.49 112.555C1714.53 112.555 1706.5 120.578 1706.5 130.541L1706.5 351.935C1706.5 361.901 1714.53 369.923 1724.49 369.923L1941.84 369.923C1951.8 369.923 1959.83 361.901 1959.83 351.935L1959.83 130.541C1959.83 120.578 1951.8 112.555 1941.84 112.555Z"/></clipPath><linearGradient x1="135.165" y1="8.57864" x2="135.165" y2="261.899" gradientUnits="userSpaceOnUse" spreadMethod="pad" id="stroke1"><stop offset="0" stop-color="#E8E8E8"/><stop offset="0.165222" stop-color="#E9E9E9" stop-opacity="0"/><stop offset="1" stop-color="#E9E9E9" stop-opacity="0"/></linearGradient><linearGradient x1="134.989" y1="41.6685" x2="134.989" y2="276.599" gradientUnits="userSpaceOnUse" spreadMethod="pad" id="stroke2"><stop offset="0" stop-color="#163149"/><stop offset="1" stop-color="#EEEEEE"/></linearGradient><clipPath id="clip3"><path d="M1725.39 299.528C1715.47 299.528 1707.47 307.517 1707.47 317.439L1707.47 476.85C1707.47 486.772 1715.47 494.762 1725.39 494.762L1941.93 494.762C1951.86 494.762 1959.85 486.772 1959.85 476.85L1959.85 317.439C1959.85 307.517 1951.86 299.528 1941.93 299.528Z"/></clipPath><linearGradient x1="134.6" y1="8.54281" x2="134.6" y2="260.805" gradientUnits="userSpaceOnUse" spreadMethod="pad" id="stroke4"><stop offset="0" stop-color="#E8E8E8"/><stop offset="0.165222" stop-color="#E9E9E9" stop-opacity="0"/><stop offset="1" stop-color="#E9E9E9" stop-opacity="0"/></linearGradient><linearGradient x1="134.425" y1="41.4944" x2="134.425" y2="275.444" gradientUnits="userSpaceOnUse" spreadMethod="pad" id="stroke5"><stop offset="0" stop-color="#491616"/><stop offset="1" stop-color="#EEEEEE"/></linearGradient></defs><g transform="translate(-19 18)"><g><g><g><path d="M243.84 6.55687C253.773 6.55687 261.825 14.6091 261.825 24.542L261.825 141.656C261.825 151.589 253.773 159.641 243.84 159.641L26.4902 159.641C16.5572 159.641 8.50502 151.589 8.50502 141.656L8.50502 24.542C8.50502 14.6091 16.5572 6.55687 26.4902 6.55687Z" fill="#00A1E5" transform="matrix(1 0 0 1 1698 106)"/><g clip-path="url(#clip0)"><path d="M26.4912 6.55506C16.5274 6.55506 8.50476 14.5777 8.50476 24.5414L8.50476 245.935C8.50476 255.901 16.5274 263.922 26.4912 263.922L243.838 263.922C253.801 263.922 261.825 255.901 261.825 245.935L261.825 24.5414C261.825 14.5777 253.801 6.55506 243.838 6.55506Z" stroke="url(#stroke1)" stroke-width="8.40624" fill="none" transform="matrix(1 0 0 1 1698 106)"/></g><path d="M188.81 33.3057C188.81 40.3844 183.071 46.1228 175.993 46.1228 168.914 46.1228 163.176 40.3844 163.176 33.3058 163.176 26.2271 168.914 20.4887 175.993 20.4887 183.071 20.4887 188.81 26.2271 188.81 33.3057Z" fill="#363C40" transform="matrix(1 0 0 1 1698 106)"/><path d="M188.81 33.3057C188.81 40.3844 183.071 46.1228 175.993 46.1228 168.914 46.1228 163.176 40.3844 163.176 33.3058 163.176 26.2271 168.914 20.4887 175.993 20.4887 183.071 20.4887 188.81 26.2271 188.81 33.3057Z" fill="#363C40" transform="matrix(1 0 0 1 1726.58 106)"/><path d="M188.81 33.3057C188.81 40.3844 183.071 46.1228 175.993 46.1228 168.914 46.1228 163.176 40.3844 163.176 33.3058 163.176 26.2271 168.914 20.4887 175.993 20.4887 183.071 20.4887 188.81 26.2271 188.81 33.3057Z" fill="#363C40" transform="matrix(1 0 0 1 1755.16 106)"/><path d="M241.784 59.9098C248.816 59.9098 254.517 65.6107 254.517 72.6432L254.517 139.793C254.517 146.826 248.816 152.526 241.784 152.526L28.0132 152.526C20.9808 152.526 15.2799 146.826 15.2799 139.793L15.2799 72.6432C15.2799 65.6107 20.9808 59.9098 28.0132 59.9098Z" stroke="url(#stroke2)" stroke-width="4.41328" fill="#120C0C" transform="matrix(1 0 0 1 1698 106)"/></g></g></g><path d="M1373.5 191.042 1628.56 191.042C1634.89 191.042 1640.02 196.172 1640.02 202.5 1640.02 208.829 1634.89 213.959 1628.56 213.959L1373.5 213.958C1367.17 213.958 1362.04 208.828 1362.04 202.5 1362.04 196.172 1367.17 191.042 1373.5 191.042ZM1617.1 179.584 1662.94 202.5 1617.1 225.417Z" fill="#00A1E5"/><path d="M1371.5 341.042 1626.56 341.042C1632.89 341.042 1638.02 346.172 1638.02 352.5 1638.02 358.828 1632.89 363.958 1626.56 363.958L1371.5 363.958C1365.17 363.958 1360.04 358.828 1360.04 352.5 1360.04 346.172 1365.17 341.042 1371.5 341.042ZM1615.1 329.583 1660.94 352.5 1615.1 375.417Z" fill="#DA4453"/><g><g><g><path d="M173.857 142.589 367.69 254.498 367.69 388.789 173.857 276.88Z" fill-rule="evenodd"/><path d="M367.69 388.789 251.39 455.935 57.5574 344.026 173.857 276.88Z" fill="#F2F2F2" fill-rule="evenodd"/><path d="M57.5574 344.026 57.5574 352.978 251.39 464.887 251.39 455.935Z" fill="#E6E6E6" fill-rule="evenodd"/><path d="M251.39 464.887 367.69 397.743 367.69 388.789 251.39 455.935Z" fill="#CCCCCC" fill-rule="evenodd"/><path d="M367.69 254.498 375.443 250.022 181.61 138.112 173.857 142.589Z" fill="#E6E6E6" fill-rule="evenodd"/><path d="M173.857 285.833 352.183 388.789 290.157 424.599 111.83 321.644 173.857 285.833Z" fill="#B3B3B3" fill-rule="evenodd"/><path d="M173.857 366.407 212.623 388.789 181.61 406.695 142.844 384.314Z" fill="#B3B3B3" fill-rule="evenodd"/><path d="M181.61 156.018 359.936 258.974 359.936 375.36 181.61 272.403Z" fill="#00A1E5" fill-rule="evenodd"/><path d="M367.69 254.498 375.443 250.022 375.443 393.266 367.69 397.743Z" fill="#CCCCCC" fill-rule="evenodd"/></g></g></g><g><g><g><path d="M369.669 147.855C372.8 152.99 371.798 398.037 367.727 407.681 364.533 415.321 261.079 501.304 255.693 503.558 185.742 503.12 138.587 477.632 130.759 464.168 127.753 447.26 130.32 186.556 133.138 181.108 135.643 176.349 267.967 128.943 272.602 127.815 276.797 126.876 366.099 142.156 369.669 147.855Z" fill="#C7C7C7" transform="matrix(-1.00098 0 0 1 1432.69 -10.1835)"/><path d="M364.596 152.927 361.34 154.305 358.083 155.746 354.827 157.186 351.508 158.751 348.189 160.317 344.87 161.945 341.551 163.574 338.169 165.264 334.787 166.955 331.405 168.709 327.961 170.462 324.579 172.278 321.135 174.094 317.691 175.91 310.74 179.668 303.726 183.425 296.712 187.183 289.635 191.003 282.496 194.76 275.357 198.518 268.218 202.212 264.648 204.029 261.079 205.845 257.447 207.598 253.877 209.352 252.186 208.976 250.433 208.537 246.926 207.723 243.294 206.847 239.599 206.033 235.841 205.156 232.021 204.279 228.201 203.402 224.256 202.526 220.373 201.649 216.428 200.709 208.475 198.956 200.522 197.203 196.514 196.326 192.568 195.449 188.686 194.635 184.803 193.821 180.983 193.007 177.226 192.193 173.468 191.379 169.836 190.627 166.266 189.876 164.513 189.562 162.759 189.187 161.069 188.874 159.378 188.498 157.687 188.185 156.059 187.872 154.43 187.558 152.865 187.183 151.299 186.932 149.796 186.619 148.293 186.306 146.79 186.055 145.35 185.805 143.972 185.492 142.595 185.241 141.279 185.053 139.964 184.803 138.712 184.553 141.968 185.554 145.225 186.556 148.544 187.558 151.925 188.498 155.37 189.5 158.814 190.439 162.384 191.441 165.891 192.38 169.46 193.382 173.092 194.322 180.357 196.263 187.684 198.142 195.073 200.083 202.463 202.025 209.79 203.903 217.054 205.845 220.686 206.784 224.256 207.786 227.826 208.725 231.333 209.727 234.777 210.667 238.221 211.669 241.603 212.608 244.922 213.61 248.178 214.612 251.435 215.614 251.497 219.371 251.623 223.191 251.685 227.011 251.748 230.957 251.811 234.965 251.936 238.973 251.998 243.043 252.061 247.176 252.124 251.372 252.186 255.568 252.249 259.826 252.249 264.147 252.312 268.468 252.374 272.852 252.437 277.236 252.437 281.682 252.499 286.128 252.499 290.637 252.562 295.146 252.625 299.718 252.687 308.861 252.75 318.067 252.75 327.398 252.813 336.728 252.938 355.453 253 374.24 253.063 383.571 253.126 392.839 253.188 402.045 253.251 411.188 253.314 415.76 253.314 420.269 253.376 424.778 253.439 429.224 253.439 433.67 253.501 438.117 253.564 442.438 253.627 446.821 253.627 451.08 253.689 455.338 253.752 459.534 253.814 463.73 253.877 467.863 253.94 471.933 254.002 476.004 254.128 479.949 254.19 483.895 254.253 487.777 254.378 491.597 254.441 495.355 254.503 491.535 254.566 487.715 254.566 483.769 254.629 479.824 254.691 475.816 254.754 471.746 254.816 467.612 254.879 463.417 254.942 459.221 255.004 454.962 255.067 450.641 255.192 446.32 255.255 441.937 255.317 437.49 255.38 433.044 255.443 428.535 255.505 424.026 255.631 419.455 255.693 414.883 255.756 410.312 255.944 401.043 256.132 391.712 256.257 382.256 256.445 372.8 256.82 353.825 257.134 334.85 257.321 325.394 257.509 316 257.635 306.669 257.822 297.338 257.885 292.767 258.01 288.195 258.073 283.623 258.136 279.115 258.198 274.668 258.261 270.159 258.323 265.776 258.449 261.392 258.511 257.008 258.574 252.75 258.637 248.491 258.699 244.233 258.762 240.1 258.824 235.967 258.887 231.896 258.95 227.888 259.012 223.88 259.012 219.998 259.075 216.115 259.138 212.357 266.026 208.663 272.852 204.968 279.678 201.398 286.504 197.766 293.268 194.197 299.968 190.564 306.669 186.995 313.37 183.363 319.945 179.73 326.521 176.098 333.034 172.341 339.484 168.583 342.678 166.705 345.809 164.763 349.003 162.822 352.134 160.881 355.265 158.939 358.396 156.935 361.465 154.931Z" stroke="#FFFFFF" stroke-width="0.0626239" stroke-opacity="0.54118" fill="#FFFFFF" fill-opacity="0.54118" transform="matrix(-1.00098 0 0 1 1432.69 -10.1835)"/><path d="M151.55 415.071 152.176 415.948 152.802 416.762 153.491 417.576 154.243 418.39 154.994 419.141 155.746 419.893 156.622 420.644 157.436 421.396 158.313 422.147 159.252 422.836 160.192 423.525 161.194 424.214 162.133 424.903 163.198 425.529 164.2 426.155 165.264 426.844 166.392 427.408 167.519 428.034 168.646 428.598 169.773 429.099 170.963 429.662 172.153 430.163 173.343 430.664 174.533 431.165 177.038 432.105 179.543 432.981 182.11 433.733 184.678 434.422 187.308 435.048 189.876 435.612 192.506 436.113 195.073 436.488 197.641 436.864 200.208 437.052 201.524 437.177 202.776 437.24 203.966 437.302 205.218 437.302 206.471 437.302 207.661 437.302 208.851 437.24 210.04 437.177 211.168 437.115 212.357 437.052 213.422 436.927 214.549 436.739 215.614 436.614 216.679 436.426 217.743 436.175 218.745 435.925 219.684 435.674 220.624 435.424 221.563 435.111 222.503 434.797 222.377 434.735 222.315 434.735 222.002 434.61 221.626 434.547 221.187 434.422 220.686 434.296 220.06 434.109 219.434 433.921 218.683 433.733 217.868 433.482 216.992 433.294 216.052 433.044 215.05 432.731 214.048 432.48 212.921 432.167 211.794 431.854 210.604 431.541 209.352 431.165 208.099 430.852 206.784 430.476 205.406 430.101 204.029 429.725 202.651 429.349 201.21 428.911 199.707 428.535 196.702 427.721 193.633 426.844 190.502 425.967 187.371 425.153 184.239 424.214 181.108 423.4 178.04 422.523 174.971 421.709 173.531 421.271 172.028 420.895 170.587 420.457 169.21 420.081 167.832 419.705 166.517 419.329 165.202 418.954 163.949 418.641 162.759 418.265 161.57 417.952 160.442 417.639 159.378 417.325 158.376 417.075 157.436 416.762 156.497 416.511 155.683 416.261 154.931 416.073 154.18 415.885 153.554 415.697 152.99 415.509 152.552 415.384 152.113 415.259 151.8 415.134 151.675 415.134Z" stroke="#FFFFFF" stroke-width="0.0626239" stroke-opacity="0.16078" fill="#000000" fill-opacity="0.16078" transform="matrix(-1.00098 0 0 1 1432.69 -10.1835)"/><path d="M216.303 381.567 157.687 358.96 157.123 359.21 156.622 359.461 156.121 359.711 155.746 360.025 155.37 360.4 154.994 360.776 154.681 361.214 154.368 361.59 154.117 362.029 153.867 362.467 153.679 362.905 153.491 363.406 153.303 363.907 153.178 364.346 152.99 365.285 152.865 366.224 152.74 367.101 152.74 367.477 152.74 367.915 152.74 368.228 152.74 368.604 152.74 368.917 152.74 369.168 152.74 369.418 152.802 369.669 152.802 369.794 152.802 369.919 152.802 369.982 152.802 370.044 161.945 373.238 162.008 373.301 162.071 373.363 162.133 373.426 162.196 373.551 162.321 373.677 162.384 373.864 162.572 374.052 162.697 374.24 162.885 374.491 163.073 374.741 163.26 374.992 163.511 375.305 163.761 375.555 164.012 375.931 164.325 376.182 164.951 376.933 165.577 377.622 166.392 378.373 167.206 379.125 168.082 379.939 169.022 380.69 170.086 381.505 171.151 382.256 172.341 383.008 173.531 383.696 174.846 384.385 176.224 385.011 176.912 385.262 177.601 385.575 178.353 385.826 179.104 386.076 179.918 386.264 180.67 386.452 181.484 386.64 182.298 386.828 183.112 386.953 183.926 387.015 184.803 387.141 185.68 387.203 186.556 387.203 187.496 387.203 188.435 387.203 189.375 387.141 190.314 387.015 191.253 386.89 192.255 386.765 193.257 386.577 194.259 386.327 195.261 386.076 196.326 385.763 197.39 385.387 197.453 385.387 197.578 385.45 197.766 385.45 198.142 385.512 198.518 385.575 198.956 385.638 199.457 385.7 200.021 385.763 200.647 385.826 201.336 385.888 202.087 385.951 202.839 386.013 203.59 386.013 204.404 386.076 206.033 386.076 206.909 386.013 207.723 385.951 208.6 385.888 209.414 385.763 210.228 385.638 210.98 385.45 211.731 385.262 212.483 385.074 213.109 384.761 213.798 384.448 214.361 384.072 214.862 383.696 215.363 383.195 215.551 382.945 215.739 382.694 215.927 382.444 216.052 382.193 216.178 381.88Z" stroke="#FFFFFF" stroke-width="0.0626239" stroke-opacity="0.38824" fill="#FFFFFF" fill-opacity="0.38824" transform="matrix(-1.00098 0 0 1 1432.69 -10.1835)"/><path d="M215.802 373.927C196.326 368.855 176.85 363.845 157.374 358.772 156.622 361.528 156.56 365.473 157.749 367.539 160.693 368.98 166.642 370.107 169.585 371.547 178.102 379.751 185.554 380.44 199.144 379.313 204.404 380.377 209.665 381.254 214.862 382.319 216.491 379.125 216.929 377.81 215.802 373.927Z" fill="#606060" transform="matrix(-1.00098 0 0 1 1432.69 -10.1835)"/><path d="M366.725 151.174 253.188 214.862 253.627 499.738 364.784 406.178Z" stroke="#FFFFFF" stroke-width="0.0626239" stroke-opacity="0.4" fill="#FFFFFF" fill-opacity="0.4" transform="matrix(-1.00098 0 0 1 1432.69 -10.1835)"/><path d="M158.125 433.107 158.751 433.921 159.44 434.672 160.067 435.486 160.755 436.175 161.444 436.927 162.133 437.616 162.885 438.304 163.636 438.931 164.388 439.557 165.139 440.183 165.953 440.809 166.705 441.373 167.519 441.937 168.333 442.438 170.024 443.502 171.777 444.442 173.531 445.318 175.284 446.132 177.1 446.821 178.916 447.51 180.795 448.074 182.674 448.575 184.49 449.076 186.369 449.451 188.247 449.765 190.126 450.015 192.005 450.203 193.883 450.328 195.7 450.453 197.516 450.453 199.332 450.391 201.023 450.266 202.776 450.14 204.467 449.952 206.095 449.639 207.661 449.326 209.164 448.95 210.667 448.575 212.044 448.074 211.919 448.011 211.669 448.011 211.418 447.886 211.105 447.823 210.729 447.698 210.228 447.573 209.727 447.447 209.164 447.322 208.537 447.134 207.911 446.946 207.222 446.759 206.471 446.571 205.657 446.32 204.843 446.132 203.966 445.882 203.027 445.631 202.087 445.381 201.148 445.068 200.146 444.817 199.144 444.504 198.079 444.254 196.952 443.941 194.76 443.314 192.506 442.688 190.126 442.062 187.746 441.436 185.367 440.747 180.607 439.432 178.29 438.805 175.973 438.117 173.719 437.49 172.654 437.24 171.589 436.927 170.525 436.614 169.523 436.363 168.521 436.05 167.581 435.799 166.642 435.549 165.765 435.298 164.889 435.048 164.075 434.797 163.323 434.61 162.634 434.422 161.883 434.234 161.256 434.046 160.693 433.858 160.192 433.733 159.691 433.545 159.252 433.482 158.877 433.357 158.564 433.232 158.313 433.169Z" stroke="#FFFFFF" stroke-width="0.0626239" stroke-opacity="0.16078" fill="#000000" fill-opacity="0.16078" transform="matrix(-1.00098 0 0 1 1432.69 -10.1835)"/><path d="M167.832 450.829 168.583 451.769 169.335 452.645 170.149 453.522 171.026 454.273 171.902 455.088 172.779 455.776 173.719 456.465 174.721 457.154 175.66 457.718 176.725 458.281 177.727 458.845 178.791 459.283 179.918 459.722 180.983 460.16 182.11 460.473 183.237 460.786 184.365 461.099 185.554 461.287 186.682 461.538 187.872 461.663 188.999 461.788 190.189 461.851 191.379 461.851 192.568 461.851 193.696 461.788 194.885 461.663 196.013 461.538 197.203 461.35 198.33 461.099 199.457 460.849 200.584 460.536 201.649 460.16 201.586 460.16 201.461 460.097 201.273 460.097 201.023 460.035 200.835 459.972 200.522 459.847 200.208 459.784 199.833 459.659 199.457 459.596 199.081 459.471 198.643 459.346 198.142 459.221 197.641 459.096 197.14 458.908 196.576 458.782 196.013 458.657 194.823 458.281 193.57 457.968 192.193 457.593 190.815 457.217 189.375 456.841 187.934 456.403 184.928 455.589 181.922 454.774 180.482 454.336 179.042 453.96 177.601 453.585 176.286 453.209 174.971 452.833 173.781 452.457 173.218 452.332 172.654 452.144 172.09 452.019 171.589 451.894 171.088 451.769 170.65 451.643 170.212 451.518 169.836 451.393 169.46 451.268 169.147 451.142 168.834 451.08 168.521 451.017 168.333 450.954 168.145 450.892 167.957 450.829Z" stroke="#FFFFFF" stroke-width="0.0626239" stroke-opacity="0.16078" fill="#000000" fill-opacity="0.16078" transform="matrix(-1.00098 0 0 1 1432.69 -10.1835)"/><path d="M147.542 204.091 141.78 204.905 140.716 340.987 229.955 365.974 232.147 358.709 146.415 335.852Z" stroke="#FFFFFF" stroke-width="0.0626239" stroke-opacity="0.43922" fill="#FCFCFC" fill-opacity="0.43922" transform="matrix(-1.00098 0 0 1 1432.69 -10.1835)"/><path d="M231.708 254.566 231.583 258.386 147.667 234.213Z" stroke="#FFFFFF" stroke-width="0.0626239" stroke-opacity="0.23137" fill="#000000" fill-opacity="0.23137" transform="matrix(-1.00098 0 0 1 1432.69 -10.1835)"/><path d="M232.961 282.246 232.773 286.066 148.92 261.893Z" stroke="#FFFFFF" stroke-width="0.0626239" stroke-opacity="0.23137" fill="#000000" fill-opacity="0.23137" transform="matrix(-1.00098 0 0 1 1432.69 -10.1835)"/><path d="M231.708 307.859 231.583 311.679 147.667 287.506Z" stroke="#FFFFFF" stroke-width="0.0626239" stroke-opacity="0.23137" fill="#000000" fill-opacity="0.23137" transform="matrix(-1.00098 0 0 1 1432.69 -10.1835)"/><path d="M231.708 333.034 231.583 336.854 147.667 312.618Z" stroke="#FFFFFF" stroke-width="0.0626239" stroke-opacity="0.23137" fill="#000000" fill-opacity="0.23137" transform="matrix(-1.00098 0 0 1 1432.69 -10.1835)"/><path d="M147.855 207.222 231.27 228.076 230.581 365.661 231.27 365.661 231.959 365.661 232.648 227.575 232.648 227.011 232.147 226.886 148.168 205.907 148.043 206.596ZM231.771 228.201 231.27 228.076 231.27 227.575 231.959 227.575Z" fill="#9E9E9E" transform="matrix(-1.00098 0 0 1 1432.69 -10.1835)"/></g></g></g><path d="M470.5 422.042 788.101 422.042C794.429 422.042 799.559 427.172 799.559 433.5 799.559 439.829 794.429 444.959 788.101 444.959L470.5 444.958C464.172 444.958 459.042 439.828 459.042 433.5 459.042 427.172 464.172 422.042 470.5 422.042ZM776.643 399.125 845.393 433.5 776.643 467.875Z" fill="#EB99A1"/><path d="M882 428.5C882 398.953 905.953 375 935.5 375 965.047 375 989 398.953 989 428.5 989 458.047 965.047 482 935.5 482 905.953 482 882 458.047 882 428.5Z" fill="#EB99A1" fill-rule="evenodd"/><text fill="#F0F0F0" font-family="Arial,Arial_MSFontService,sans-serif" font-weight="400" font-size="46" transform="matrix(1 0 0 1 910.307 446)">80</text><path d="M882 305C882 275.177 905.953 251 935.5 251 965.047 251 989 275.177 989 305 989 334.823 965.047 359 935.5 359 905.953 359 882 334.823 882 305Z" fill="#DA4453" fill-rule="evenodd"/><text fill="#F0F0F0" font-family="Arial,Arial_MSFontService,sans-serif" font-weight="400" font-size="46" transform="matrix(1 0 0 1 897.704 323)">443</text><path d="M880 180C880 150.177 904.177 126 934 126 963.823 126 988 150.177 988 180 988 209.823 963.823 234 934 234 904.177 234 880 209.823 880 180Z" fill="#00A1E5" fill-rule="evenodd"/><text fill="#F0F0F0" font-family="Arial,Arial_MSFontService,sans-serif" font-weight="400" font-size="46" transform="matrix(1 0 0 1 909.071 198)">22</text><path d="M534 410.5C534 403.597 539.596 398 546.5 398L700.5 398C707.404 398 713 403.597 713 410.5L713 460.5C713 467.404 707.403 473 700.5 473L546.5 473C539.596 473 534 467.404 534 460.5Z" fill="#EB99A1" fill-rule="evenodd"/><text fill="#FFFFFF" font-family="Arial,Arial_MSFontService,sans-serif" font-weight="400" font-size="41" transform="matrix(1 0 0 1 569.688 450)">HTTP</text><path d="M470.5 295.042 788.101 295.042C794.429 295.042 799.559 300.172 799.559 306.5 799.559 312.829 794.429 317.959 788.101 317.959L470.5 317.958C464.172 317.958 459.042 312.828 459.042 306.5 459.042 300.172 464.172 295.042 470.5 295.042ZM776.643 272.125 845.393 306.5 776.643 340.875Z" fill="#DA4453"/><path d="M534 282.667C534 275.671 539.671 270 546.666 270L700.333 270C707.329 270 713 275.671 713 282.667L713 333.334C713 340.329 707.329 346 700.333 346L546.666 346C539.671 346 534 340.329 534 333.334Z" fill="#DA4453" fill-rule="evenodd"/><text fill="#FFFFFF" font-family="Arial,Arial_MSFontService,sans-serif" font-weight="400" font-size="41" transform="matrix(1 0 0 1 555.938 323)">HTTPS</text><path d="M470.5 172.042 788.101 172.042C794.429 172.042 799.559 177.172 799.559 183.5 799.559 189.829 794.429 194.959 788.101 194.959L470.5 194.958C464.172 194.958 459.042 189.828 459.042 183.5 459.042 177.172 464.172 172.042 470.5 172.042ZM776.643 149.125 845.393 183.5 776.643 217.875Z" fill="#00A1E5"/><path d="M534 160.5C534 153.597 539.596 148 546.5 148L700.5 148C707.404 148 713 153.597 713 160.5L713 210.5C713 217.404 707.403 223 700.5 223L546.5 223C539.596 223 534 217.404 534 210.5Z" fill="#00A1E5" fill-rule="evenodd"/><text fill="#FFFFFF" font-family="Arial,Arial_MSFontService,sans-serif" font-weight="400" font-size="41" transform="matrix(1 0 0 1 581.146 201)">SSH</text><text fill="#DA4453" font-family="Arial,Arial_MSFontService,sans-serif" font-weight="400" font-size="64" transform="matrix(1 0 0 1 1708.11 64)">Services</text><path d="M1402 176.5C1402 169.596 1407.6 164 1414.5 164L1567.5 164C1574.4 164 1580 169.596 1580 176.5L1580 226.5C1580 233.404 1574.4 239 1567.5 239L1414.5 239C1407.6 239 1402 233.403 1402 226.5Z" fill="#00A1E5" fill-rule="evenodd"/><text fill="#FFFFFF" font-family="Arial,Arial_MSFontService,sans-serif" font-weight="400" font-size="41" transform="matrix(1 0 0 1 1448.69 217)">SSH</text><g><g><g><path d="M242.822 6.52949C252.713 6.52949 260.732 14.5481 260.732 24.4395L260.732 183.851C260.732 193.742 252.713 201.761 242.822 201.761L26.3796 201.761C16.4881 201.761 8.4695 193.742 8.4695 183.851L8.4695 24.4395C8.4695 14.5481 16.4881 6.52949 26.3796 6.52949Z" fill="#DA4453" transform="matrix(1.00046 0 0 1 1699 293)"/><g clip-path="url(#clip3)"><path d="M26.3806 6.52769C16.4584 6.52769 8.46925 14.5168 8.46925 24.4389L8.46925 183.85C8.46925 193.772 16.4584 201.762 26.3806 201.762L242.82 201.762C252.741 201.762 260.732 193.772 260.732 183.85L260.732 24.4389C260.732 14.5168 252.741 6.52769 242.82 6.52769Z" stroke="url(#stroke4)" stroke-width="8.37114" fill="none" transform="matrix(1.00046 0 0 1 1699 293)"/></g><path d="M188.021 33.1667C188.021 40.2158 182.307 45.9302 175.258 45.9302 168.209 45.9302 162.494 40.2158 162.494 33.1667 162.494 26.1176 168.209 20.4032 175.258 20.4032 182.307 20.4032 188.021 26.1176 188.021 33.1667Z" fill="#40363A" transform="matrix(1.00046 0 0 1 1699 293)"/><path d="M188.021 33.1667C188.021 40.2158 182.307 45.9302 175.258 45.9302 168.209 45.9302 162.494 40.2158 162.494 33.1667 162.494 26.1176 168.209 20.4032 175.258 20.4032 182.307 20.4032 188.021 26.1176 188.021 33.1667Z" fill="#40363A" transform="matrix(1.00046 0 0 1 1727.48 293)"/><path d="M188.021 33.1667C188.021 40.2158 182.307 45.9302 175.258 45.9302 168.209 45.9302 162.494 40.2158 162.494 33.1667 162.494 26.1176 168.209 20.4032 175.258 20.4032 182.307 20.4032 188.021 26.1176 188.021 33.1667Z" fill="#40363A" transform="matrix(1.00046 0 0 1 1755.95 293)"/><path d="M240.774 59.6597C247.777 59.6597 253.455 65.3368 253.455 72.3398L253.455 181.55C253.455 188.553 247.777 194.23 240.774 194.23L27.8963 194.23C20.8932 194.23 15.2161 188.553 15.2161 181.55L15.2161 72.3398C15.2161 65.3368 20.8932 59.6597 27.8963 59.6597Z" stroke="url(#stroke5)" stroke-width="4.39485" fill="#120C0C" transform="matrix(1.00046 0 0 1 1699 293)"/></g></g></g><text fill="#D9D8DC" font-family="Arial,Arial_MSFontService,sans-serif" font-weight="400" font-size="50" transform="matrix(1 0 0 1 1750.92 402)">n</text><text fill="#D9D8DC" font-family="Arial,Arial_MSFontService,sans-serif" font-weight="400" font-size="50" transform="matrix(1 0 0 1 1778.99 402)">ginx</text><text fill="#D9D8DC" font-family="Arial,Arial_MSFontService,sans-serif" font-weight="400" font-size="37" transform="matrix(1 0 0 1 1882.11 402)">or</text><text fill="#D9D8DC" font-family="Arial,Arial_MSFontService,sans-serif" font-weight="400" font-size="50" transform="matrix(1 0 0 1 1750.07 463)">apache</text><path d="M1402 327.5C1402 320.596 1407.6 315 1414.5 315L1567.5 315C1574.4 315 1580 320.596 1580 327.5L1580 377.5C1580 384.404 1574.4 390 1567.5 390L1414.5 390C1407.6 390 1402 384.403 1402 377.5Z" fill="#DA4453" fill-rule="evenodd"/><text fill="#FFFFFF" font-family="Arial,Arial_MSFontService,sans-serif" font-weight="400" font-size="41" transform="matrix(1 0 0 1 1423.48 367)">HTTPS</text><path d="M1371.5 438.042 1626.56 438.042C1632.89 438.042 1638.02 443.172 1638.02 449.5 1638.02 455.829 1632.89 460.959 1626.56 460.959L1371.5 460.958C1365.17 460.958 1360.04 455.828 1360.04 449.5 1360.04 443.172 1365.17 438.042 1371.5 438.042ZM1615.1 426.584 1660.94 449.5 1615.1 472.417Z" fill="#EB99A1"/><path d="M1405 425.5C1405 418.596 1410.6 413 1417.5 413L1571.5 413C1578.4 413 1584 418.596 1584 425.5L1584 475.5C1584 482.403 1578.4 488 1571.5 488L1417.5 488C1410.6 488 1405 482.403 1405 475.5Z" fill="#EB99A1" fill-rule="evenodd"/><text fill="#FFFFFF" font-family="Arial,Arial_MSFontService,sans-serif" font-weight="400" font-size="41" transform="matrix(1 0 0 1 1440.81 466)">HTTP</text><text fill="#DA4453" font-family="Arial,Arial_MSFontService,sans-serif" font-weight="400" font-size="64" transform="matrix(1 0 0 1 1075.26 64)">Server</text><text fill="#DA4453" font-family="Arial,Arial_MSFontService,sans-serif" font-weight="400" font-size="64" transform="matrix(1 0 0 1 58.4337 64)">Your</text><text fill="#DA4453" font-family="Arial,Arial_MSFontService,sans-serif" font-weight="400" font-size="64" transform="matrix(1 0 0 1 205.513 64)">Laptop</text><text fill="#D9D8DC" font-family="Arial,Arial_MSFontService,sans-serif" font-weight="400" font-size="50" transform="matrix(1 0 0 1 1761.04 231)">SSHD</text></g></svg>