<svg xmlns="http://www.w3.org/2000/svg" xml:space="preserve" width="1974" height="523" overflow="hidden"><defs><linearGradient id="b" x1="135.16" x2="135.16" y1="8.58" y2="261.9" gradientUnits="userSpaceOnUse" spreadMethod="pad"><stop offset="0" stop-color="#E8E8E8"/><stop offset=".17" stop-color="#E9E9E9" stop-opacity="0"/><stop offset="1" stop-color="#E9E9E9" stop-opacity="0"/></linearGradient><linearGradient id="c" x1="134.99" x2="134.99" y1="41.67" y2="276.6" gradientUnits="userSpaceOnUse" spreadMethod="pad"><stop offset="0" stop-color="#163149"/><stop offset="1" stop-color="#EEE"/></linearGradient><linearGradient id="e" x1="134.6" x2="134.6" y1="8.54" y2="260.81" gradientUnits="userSpaceOnUse" spreadMethod="pad"><stop offset="0" stop-color="#E8E8E8"/><stop offset=".17" stop-color="#E9E9E9" stop-opacity="0"/><stop offset="1" stop-color="#E9E9E9" stop-opacity="0"/></linearGradient><linearGradient id="f" x1="134.43" x2="134.43" y1="41.49" y2="275.44" gradientUnits="userSpaceOnUse" spreadMethod="pad"><stop offset="0" stop-color="#491616"/><stop offset="1" stop-color="#EEE"/></linearGradient><clipPath id="a"><path d="M1724.49 112.56a17.95 17.95 0 0 0-17.99 17.98v221.4c0 9.96 8.03 17.98 17.99 17.98h217.35c9.96 0 17.99-8.02 17.99-17.99V130.55c0-9.96-8.03-17.98-17.99-17.98Z"/></clipPath><clipPath id="d"><path d="M1725.39 299.53a17.88 17.88 0 0 0-17.92 17.9v159.42c0 9.92 8 17.91 17.92 17.91h216.54c9.93 0 17.92-7.99 17.92-17.91V317.44c0-9.92-7.99-17.91-17.92-17.91Z"/></clipPath></defs><path fill="#00A1E5" d="M1922.84 130.56c9.93 0 17.99 8.05 17.99 17.98v117.12c0 9.93-8.06 17.98-17.99 17.98h-217.35a17.98 17.98 0 0 1-17.98-17.98V148.54c0-9.93 8.05-17.98 17.98-17.98Z"/><g clip-path="url(#a)" transform="translate(-19 18)"><path fill="none" stroke="url(#b)" stroke-width="8.41" d="M26.5 6.56a17.95 17.95 0 0 0-18 17.98v221.4c0 9.96 8.03 17.98 18 17.98h217.34c9.96 0 17.98-8.02 17.98-17.99V24.55c0-9.96-8.02-17.98-17.98-17.98Z" transform="translate(1698 106)"/></g><path fill="#363C40" d="M1867.81 157.3a12.82 12.82 0 1 1-25.63 0 12.82 12.82 0 0 1 25.63 0Zm28.58 0a12.82 12.82 0 1 1-25.63 0 12.82 12.82 0 0 1 25.63 0Zm28.58 0a12.82 12.82 0 1 1-25.63 0 12.82 12.82 0 0 1 25.63 0Z"/><path fill="#120C0C" stroke="url(#c)" stroke-width="4.41" d="M241.78 59.91c7.04 0 12.74 5.7 12.74 12.73v67.15c0 7.04-5.7 12.74-12.74 12.74H28.01c-7.03 0-12.73-5.7-12.73-12.74V72.64c0-7.03 5.7-12.73 12.73-12.73Z" transform="translate(1679 124)"/><path fill="#00A1E5" d="M1354.5 209.04h255.06a11.46 11.46 0 1 1 0 22.92H1354.5a11.46 11.46 0 1 1 0-22.92Zm243.6-11.46 45.84 22.92-45.84 22.92Z"/><path fill="#DA4453" d="M1352.5 359.04h255.06a11.46 11.46 0 1 1 0 22.92H1352.5a11.46 11.46 0 1 1 0-22.92Zm243.6-11.46 45.84 22.92-45.84 22.92Z"/><g fill-rule="evenodd"><path d="m154.86 160.59 193.83 111.9v134.3L154.86 294.88Z"/><path fill="#F2F2F2" d="m348.69 406.79-116.3 67.14-193.83-111.9 116.3-67.15Z"/><path fill="#E6E6E6" d="M38.56 362.03v8.95l193.83 111.9v-8.94Z"/><path fill="#CCC" d="m232.39 482.89 116.3-67.15v-8.95l-116.3 67.14Z"/><path fill="#E6E6E6" d="m348.69 272.5 7.75-4.48-193.83-111.9-7.75 4.47Z"/><path fill="#B3B3B3" d="M154.86 303.83 333.18 406.8l-62.02 35.8L92.83 339.65l62.03-35.8Zm0 80.57 38.76 22.39-31.01 17.9-38.77-22.38Z"/><path fill="#00A1E5" d="m162.61 174.02 178.33 102.95v116.39L162.6 290.4Z"/><path fill="#CCC" d="m348.69 272.5 7.75-4.48v143.25l-7.75 4.47Z"/></g><path fill="#C7C7C7" d="M1043.66 155.67c-3.14 5.14-2.13 250.18 1.94 259.83 3.2 7.64 106.76 93.62 112.15 95.87 70.02-.43 117.22-25.92 125.05-39.39 3.01-16.9.44-277.6-2.38-283.06-2.5-4.75-134.96-52.16-139.6-53.29-4.2-.94-93.59 14.34-97.16 20.04Z"/><path fill="#FFF" fill-opacity=".54" stroke="#FFF" stroke-opacity=".54" stroke-width=".06" d="m364.6 152.93-3.26 1.38-3.26 1.44-3.25 1.44-3.32 1.56-3.32 1.57-3.32 1.63-3.32 1.62-3.38 1.7-3.38 1.69-3.39 1.75-3.44 1.75-3.38 1.82-3.44 1.81-3.45 1.82-6.95 3.76-7.01 3.76-7.02 3.75-7.07 3.82-7.14 3.76-7.14 3.76-7.14 3.7-3.57 1.8-3.57 1.82-3.63 1.76-3.57 1.75-1.7-.37-1.75-.44-3.5-.82-3.64-.87-3.7-.82-3.75-.87-3.82-.88-3.82-.88-3.94-.87-3.89-.88-3.94-.94-7.96-1.75-7.95-1.76-4-.87-3.95-.88-3.88-.81-3.89-.82-3.82-.81-3.75-.82-3.76-.81-3.63-.75-3.57-.75-1.76-.32-1.75-.37-1.7-.32-1.68-.37-1.7-.31-1.62-.32-1.63-.31-1.56-.38-1.57-.25-1.5-.31-1.5-.31-1.51-.25-1.44-.25-1.38-.32-1.38-.25-1.31-.19-1.32-.25-1.25-.25 3.26 1 3.25 1 3.32 1 3.39.95 3.44 1 3.44.94 3.57 1 3.51.94 3.57 1 3.63.94 7.27 1.94 7.32 1.88 7.4 1.94 7.38 1.94 7.33 1.88 7.26 1.94 3.64.94 3.57 1 3.57.94 3.5 1 3.45.95 3.44 1 3.38.94 3.32 1 3.26 1 3.25 1 .07 3.76.12 3.82.06 3.82.07 3.95.06 4 .13 4.01.06 4.07.06 4.14.06 4.2.07 4.19.06 4.26v4.32l.06 4.32.06 4.38.07 4.39v4.44l.06 4.45v4.5l.06 4.52.06 4.57.07 9.14.06 9.2v9.34l.06 9.33.13 18.72.06 18.79.06 9.33.07 9.27.06 9.2.06 9.15.06 4.57v4.5l.07 4.52.06 4.44v4.45l.06 4.45.06 4.32.07 4.38v4.26l.06 4.26.06 4.2.06 4.19.07 4.13.06 4.07.06 4.07.13 3.95.06 3.94.06 3.89.13 3.82.06 3.75.06-3.81.07-3.83v-3.94l.06-3.95.06-4 .06-4.07.07-4.14.06-4.2.06-4.19.06-4.26.07-4.32.12-4.32.06-4.38.07-4.45.06-4.45.06-4.5.06-4.51.13-4.57.06-4.58.07-4.57.18-9.27.2-9.33.12-9.45.19-9.46.37-18.98.31-18.97.2-9.46.18-9.39.13-9.33.18-9.33.06-4.57.13-4.57.06-4.58.07-4.5.06-4.45.06-4.51.06-4.38.13-4.39.06-4.38.06-4.26.07-4.26.06-4.26.06-4.13.06-4.13.07-4.07.06-4.01.06-4.01V220l.06-3.88.07-3.76 6.89-3.7 6.82-3.7 6.83-3.56 6.82-3.63 6.77-3.57 6.7-3.64 6.7-3.56 6.7-3.64 6.57-3.63 6.58-3.63 6.51-3.76 6.45-3.76 3.2-1.88 3.13-1.94 3.2-1.94 3.12-1.94 3.13-1.94 3.14-2 3.06-2Z" transform="matrix(-1.001 0 0 1 1413.69 7.82)"/><path fill-opacity=".16" stroke="#FFF" stroke-opacity=".16" stroke-width=".06" d="m151.55 415.07.63.88.62.81.7.82.74.81.75.75.76.75.87.75.82.76.87.75.94.69.94.69 1 .68.94.7 1.07.62 1 .63 1.06.68 1.13.57 1.13.62 1.13.57 1.12.5 1.2.56 1.18.5 1.2.5 1.18.5 2.5.94 2.51.88 2.57.75 2.57.7 2.63.62 2.57.56 2.63.5 2.56.38 2.57.37 2.57.2 1.31.12 1.26.06 1.19.06h3.7l1.18-.06 1.19-.06 1.13-.06 1.19-.07 1.06-.12 1.13-.2 1.06-.12 1.07-.18 1.06-.25 1-.25.94-.26.94-.25.94-.3.94-.32-.12-.06h-.06l-.32-.13-.37-.06-.44-.13-.5-.12-.63-.2-.63-.18-.75-.19-.81-.25-.88-.19-.94-.25-1-.3-1-.26-1.13-.31-1.13-.32-1.19-.3-1.25-.38-1.25-.32-1.32-.37-1.37-.38-1.38-.38-1.38-.37-1.44-.44-1.5-.38-3-.8-3.08-.89-3.13-.87-3.13-.82-3.13-.94-3.13-.81-3.07-.88-3.07-.81-1.44-.44-1.5-.38-1.44-.43-1.38-.38-1.38-.38-1.31-.37-1.32-.38-1.25-.3-1.2-.38-1.18-.32-1.13-.31-1.06-.31-1-.25-.94-.32-.94-.25-.82-.25-.75-.19-.75-.19-.63-.18-.56-.2-.44-.12-.44-.12-.31-.13h-.13Z" transform="matrix(-1.001 0 0 1 1413.69 7.82)"/><path fill="#FFF" fill-opacity=".39" stroke="#FFF" stroke-opacity=".39" stroke-width=".06" d="m216.3 381.57-58.61-22.61-.57.25-.5.25-.5.25-.37.31-.38.38-.38.38-.3.43-.32.38-.25.44-.25.44-.2.43-.18.5-.19.5-.12.45-.19.94-.13.93-.12.88v2.32l.06.25v.37l9.14 3.2.07.06.06.06.06.07.07.12.12.13.06.18.2.2.12.18.19.25.18.25.19.25.25.31.25.25.25.38.31.25.63.75.63.7.81.74.82.75.87.82.94.75 1.07.81 1.06.76 1.2.75 1.18.69 1.32.69 1.37.62.7.25.68.31.75.26.75.25.82.18.75.2.81.18.82.19.81.12.82.06.87.13.88.06h2.76l.94-.06.93-.13.94-.12 1-.13 1-.18 1-.25 1.01-.25 1.07-.32 1.06-.37h.06l.13.06h.19l.37.06.38.06.44.07.5.06.56.06.63.07.69.06.75.06.75.06h.75l.81.07h1.63l.88-.07.81-.06.88-.06.81-.13.82-.12.75-.19.75-.19.75-.19.63-.3.69-.32.56-.38.5-.37.5-.5.2-.25.18-.26.19-.25.12-.25.13-.31Z" transform="matrix(-1.001 0 0 1 1413.69 7.82)"/><path fill="#606060" d="M1197.68 381.74c19.5-5.07 38.99-10.08 58.48-15.15.75 2.75.82 6.7-.37 8.77-2.95 1.44-8.9 2.56-11.85 4-8.53 8.2-15.99 8.9-29.59 7.77-5.26 1.06-10.53 1.94-15.73 3-1.63-3.19-2.07-4.5-.94-8.39Z"/><path fill="#FFF" fill-opacity=".4" stroke="#FFF" stroke-opacity=".4" stroke-width=".06" d="m366.73 151.17-113.54 63.7.44 284.87 111.15-93.56Z" transform="matrix(-1.001 0 0 1 1413.69 7.82)"/><path fill-opacity=".16" stroke="#FFF" stroke-opacity=".16" stroke-width=".06" d="m158.13 433.1.62.82.69.75.63.82.69.69.68.75.7.69.75.68.75.63.75.63.75.62.81.63.76.56.8.57.82.5 1.7 1.06 1.75.94 1.75.88 1.75.81 1.82.7 1.82.68 1.88.56 1.87.5 1.82.5 1.88.38 1.88.31 1.88.25 1.88.2 1.87.12 1.82.12h1.82l1.81-.06 1.7-.12 1.75-.13 1.69-.19 1.63-.31 1.56-.31 1.5-.38 1.5-.38 1.38-.5-.12-.06h-.25l-.25-.12-.31-.07-.38-.12-.5-.13-.5-.12-.57-.13-.62-.19-.63-.18-.69-.2-.75-.18-.81-.25-.82-.19-.87-.25-.94-.25-.94-.25-.94-.31-1-.25-1-.32-1.07-.25-1.13-.3-2.19-.64-2.25-.62-2.38-.63-2.38-.62-2.38-.7-4.76-1.3-2.32-.63-2.32-.7-2.25-.62-1.07-.25-1.06-.31-1.06-.32-1-.25-1-.31-.95-.25-.94-.25-.88-.25-.87-.25-.81-.25-.76-.19-.69-.19-.75-.19-.62-.18-.57-.2-.5-.12-.5-.19-.44-.06-.37-.12-.32-.13-.25-.06Zm9.7 17.73.75.94.75.88.82.87.88.75.87.82.88.69.94.69 1 .68.94.57 1.06.56 1 .57 1.07.43 1.13.44 1.06.44 1.13.31 1.13.32 1.13.3 1.18.2 1.13.25 1.2.12 1.12.13 1.19.06h2.38l1.13-.06 1.19-.13 1.12-.12 1.2-.19 1.12-.25 1.13-.25 1.12-.31 1.07-.38h-.06l-.13-.06h-.19l-.25-.06-.19-.07-.3-.12-.32-.07-.38-.12-.37-.06-.38-.13-.44-.12-.5-.13-.5-.12-.5-.2-.56-.12-.57-.12-1.19-.38-1.25-.31-1.38-.38-1.38-.37-1.44-.38-1.44-.44-3-.81-3-.82-1.45-.43-1.44-.38-1.44-.38-1.31-.37-1.32-.38-1.19-.37-.56-.13-.57-.19-.56-.12-.5-.13-.5-.12-.44-.13-.44-.12-.37-.13-.38-.12-.31-.13-.32-.06-.3-.06-.2-.07-.19-.06-.18-.06Z" transform="matrix(-1.001 0 0 1 1413.69 7.82)"/><path fill="#FCFCFC" fill-opacity=".44" stroke="#FFF" stroke-opacity=".44" stroke-width=".06" d="m147.54 204.1-5.76.8-1.06 136.1 89.24 24.98 2.19-7.26-85.74-22.86Z" transform="matrix(-1.001 0 0 1 1413.69 7.82)"/><path fill-opacity=".23" stroke="#FFF" stroke-opacity=".23" stroke-width=".06" d="m231.7 254.57-.12 3.82-83.91-24.18Zm1.26 27.68-.19 3.82-83.85-24.18Zm-1.26 25.61-.12 3.82-83.91-24.17Zm0 25.17-.12 3.82-83.91-24.23Z" transform="matrix(-1.001 0 0 1 1413.69 7.82)"/><path fill="#9E9E9E" d="m1265.69 215.04-83.5 20.85.7 137.59h-1.39l-.69-138.09v-.56l.5-.13 84.07-20.98.12.7Zm-84 20.98.5-.13v-.5h-.69Z"/><path fill="#EB99A1" d="M451.5 440.04h317.6a11.46 11.46 0 0 1 0 22.92H451.5a11.46 11.46 0 0 1 0-22.92Zm306.14-22.92 68.75 34.38-68.75 34.38Z"/><path fill="#EB99A1" fill-rule="evenodd" d="M863 446.5a53.5 53.5 0 1 1 107 0 53.5 53.5 0 0 1-107 0Z"/><text fill="#F0F0F0" font-family="Arial,Arial_MSFontService,sans-serif" font-size="46" font-weight="400" transform="translate(891.3 464)">80</text><path fill="#DA4453" fill-rule="evenodd" d="M863 323c0-29.82 23.95-54 53.5-54s53.5 24.18 53.5 54-23.95 54-53.5 54-53.5-24.18-53.5-54Z"/><text fill="#F0F0F0" font-family="Arial,Arial_MSFontService,sans-serif" font-size="46" font-weight="400" transform="translate(878.7 341)">443</text><path fill="#00A1E5" fill-rule="evenodd" d="M861 198a54 54 0 1 1 108 0 54 54 0 0 1-108 0Z"/><text fill="#F0F0F0" font-family="Arial,Arial_MSFontService,sans-serif" font-size="46" font-weight="400" transform="translate(890.07 216)">22</text><path fill="#EB99A1" fill-rule="evenodd" d="M515 428.5c0-6.9 5.6-12.5 12.5-12.5h154c6.9 0 12.5 5.6 12.5 12.5v50c0 6.9-5.6 12.5-12.5 12.5h-154c-6.9 0-12.5-5.6-12.5-12.5Z"/><text fill="#FFF" font-family="Arial,Arial_MSFontService,sans-serif" font-size="41" font-weight="400" transform="translate(550.69 468)">HTTP</text><path fill="#DA4453" d="M451.5 313.04h317.6a11.46 11.46 0 0 1 0 22.92H451.5a11.46 11.46 0 0 1 0-22.92Zm306.14-22.92 68.75 34.38-68.75 34.38Z"/><path fill="#DA4453" fill-rule="evenodd" d="M515 300.67c0-7 5.67-12.67 12.67-12.67h153.66c7 0 12.67 5.67 12.67 12.67v50.66c0 7-5.67 12.67-12.67 12.67H527.67c-7 0-12.67-5.67-12.67-12.67Z"/><text fill="#FFF" font-family="Arial,Arial_MSFontService,sans-serif" font-size="41" font-weight="400" transform="translate(536.94 341)">HTTPS</text><path fill="#00A1E5" d="M451.5 190.04h317.6a11.46 11.46 0 0 1 0 22.92H451.5a11.46 11.46 0 0 1 0-22.92Zm306.14-22.91 68.75 34.37-68.75 34.38Z"/><path fill="#00A1E5" fill-rule="evenodd" d="M515 178.5c0-6.9 5.6-12.5 12.5-12.5h154c6.9 0 12.5 5.6 12.5 12.5v50c0 6.9-5.6 12.5-12.5 12.5h-154c-6.9 0-12.5-5.6-12.5-12.5Z"/><text fill="#FFF" font-family="Arial,Arial_MSFontService,sans-serif" font-size="41" font-weight="400" transform="translate(562.15 219)">SSH</text><text fill="#DA4453" font-family="Arial,Arial_MSFontService,sans-serif" font-size="64" font-weight="400" transform="translate(1689.11 82)">Services</text><path fill="#00A1E5" fill-rule="evenodd" d="M1383 194.5c0-6.9 5.6-12.5 12.5-12.5h153c6.9 0 12.5 5.6 12.5 12.5v50c0 6.9-5.6 12.5-12.5 12.5h-153c-6.9 0-12.5-5.6-12.5-12.5Z"/><text fill="#FFF" font-family="Arial,Arial_MSFontService,sans-serif" font-size="41" font-weight="400" transform="translate(1429.69 235)">SSH</text><path fill="#DA4453" d="M1922.93 317.53c9.9 0 17.92 8.02 17.92 17.91v159.41a17.9 17.9 0 0 1-17.92 17.91H1706.4c-9.9 0-17.92-8.02-17.92-17.9V335.43c0-9.9 8.03-17.91 17.92-17.91Z"/><g clip-path="url(#d)" transform="translate(-19 18)"><path fill="none" stroke="url(#e)" stroke-width="8.37" d="M26.38 6.53a17.87 17.87 0 0 0-17.91 17.9v159.42c0 9.92 7.99 17.91 17.91 17.91h216.44c9.92 0 17.91-7.99 17.91-17.91V24.44c0-9.92-7.99-17.91-17.91-17.91Z" transform="translate(1699 293)"/></g><path fill="#40363A" d="M1868.1 344.17a12.77 12.77 0 1 1-25.52 0 12.77 12.77 0 0 1 25.53 0Zm28.49 0a12.77 12.77 0 1 1-25.53 0 12.77 12.77 0 0 1 25.53 0Zm28.47 0a12.77 12.77 0 1 1-25.53 0 12.77 12.77 0 0 1 25.53 0Z"/><path fill="#120C0C" stroke="url(#f)" stroke-width="4.39" d="M240.77 59.66c7 0 12.69 5.68 12.69 12.68v109.21c0 7-5.68 12.68-12.69 12.68H27.9c-7 0-12.68-5.68-12.68-12.68V72.34c0-7 5.67-12.68 12.68-12.68Z" transform="translate(1680 311)"/><text fill="#D9D8DC" font-family="Arial,Arial_MSFontService,sans-serif" font-size="50" font-weight="400" transform="translate(1731.92 420)">n</text><text fill="#D9D8DC" font-family="Arial,Arial_MSFontService,sans-serif" font-size="50" font-weight="400" transform="translate(1759.99 420)">ginx</text><text fill="#D9D8DC" font-family="Arial,Arial_MSFontService,sans-serif" font-size="37" font-weight="400" transform="translate(1863.11 420)">or</text><text fill="#D9D8DC" font-family="Arial,Arial_MSFontService,sans-serif" font-size="50" font-weight="400" transform="translate(1731.07 481)">apache</text><path fill="#DA4453" fill-rule="evenodd" d="M1383 345.5c0-6.9 5.6-12.5 12.5-12.5h153c6.9 0 12.5 5.6 12.5 12.5v50c0 6.9-5.6 12.5-12.5 12.5h-153c-6.9 0-12.5-5.6-12.5-12.5Z"/><text fill="#FFF" font-family="Arial,Arial_MSFontService,sans-serif" font-size="41" font-weight="400" transform="translate(1404.48 385)">HTTPS</text><path fill="#EB99A1" d="M1352.5 456.04h255.06a11.46 11.46 0 1 1 0 22.92H1352.5a11.46 11.46 0 1 1 0-22.92Zm243.6-11.46 45.84 22.92-45.84 22.92Z"/><path fill="#EB99A1" fill-rule="evenodd" d="M1386 443.5c0-6.9 5.6-12.5 12.5-12.5h154c6.9 0 12.5 5.6 12.5 12.5v50c0 6.9-5.6 12.5-12.5 12.5h-154c-6.9 0-12.5-5.6-12.5-12.5Z"/><text fill="#FFF" font-family="Arial,Arial_MSFontService,sans-serif" font-size="41" font-weight="400" transform="translate(1421.81 484)">HTTP</text><text fill="#DA4453" font-family="Arial,Arial_MSFontService,sans-serif" font-size="64" font-weight="400" transform="translate(1056.26 82)">Server</text><text fill="#DA4453" font-family="Arial,Arial_MSFontService,sans-serif" font-size="64" font-weight="400" transform="translate(39.43 82)">Your</text><text fill="#DA4453" font-family="Arial,Arial_MSFontService,sans-serif" font-size="64" font-weight="400" transform="translate(186.51 82)">Laptop</text><text fill="#D9D8DC" font-family="Arial,Arial_MSFontService,sans-serif" font-size="50" font-weight="400" transform="translate(1742.04 249)">SSHD</text></svg>