<svg width="1974" height="523" xmlns="http://www.w3.org/2000/svg" xmlns:xlink="http://www.w3.org/1999/xlink" xml:space="preserve" overflow="hidden"><defs><clipPath id="clip0"><path d="M1830.49 188.555C1820.53 188.555 1812.5 196.578 1812.5 206.541L1812.5 427.936C1812.5 437.9 1820.53 445.923 1830.49 445.923L2047.84 445.923C2057.8 445.923 2065.83 437.9 2065.83 427.936L2065.83 206.541C2065.83 196.578 2057.8 188.555 2047.84 188.555Z"/></clipPath><linearGradient x1="1939.17" y1="190.578" x2="1939.17" y2="443.899" gradientUnits="userSpaceOnUse" spreadMethod="pad" id="stroke1"><stop offset="0" stop-color="#E8E8E8"/><stop offset="0.165222" stop-color="#E9E9E9" stop-opacity="0"/><stop offset="1" stop-color="#E9E9E9" stop-opacity="0"/></linearGradient><linearGradient x1="1938.99" y1="223.668" x2="1938.99" y2="458.599" gradientUnits="userSpaceOnUse" spreadMethod="pad" id="stroke2"><stop offset="0" stop-color="#163149"/><stop offset="1" stop-color="#EEEEEE"/></linearGradient><clipPath id="clip3"><path d="M1831.39 374.56C1821.47 374.56 1813.47 382.588 1813.47 392.559L1813.47 552.756C1813.47 562.727 1821.47 570.755 1831.39 570.755L2047.93 570.755C2057.86 570.755 2065.85 562.727 2065.85 552.756L2065.85 392.559C2065.85 382.588 2057.86 374.56 2047.93 374.56Z"/></clipPath><linearGradient x1="134.663" y1="8.54676" x2="134.663" y2="260.926" gradientUnits="userSpaceOnUse" spreadMethod="pad" id="stroke4"><stop offset="0" stop-color="#E8E8E8"/><stop offset="0.165222" stop-color="#E9E9E9" stop-opacity="0"/><stop offset="1" stop-color="#E9E9E9" stop-opacity="0"/></linearGradient><linearGradient x1="134.487" y1="41.5135" x2="134.487" y2="275.571" gradientUnits="userSpaceOnUse" spreadMethod="pad" id="stroke5"><stop offset="0" stop-color="#491616"/><stop offset="1" stop-color="#EEEEEE"/></linearGradient></defs><g transform="translate(-125 -58)"><g><g><g><path d="M2047.84 188.557C2057.77 188.557 2065.83 196.609 2065.83 206.542L2065.83 323.656C2065.83 333.589 2057.77 341.641 2047.84 341.641L1830.49 341.641C1820.56 341.641 1812.51 333.589 1812.51 323.656L1812.51 206.542C1812.51 196.609 1820.56 188.557 1830.49 188.557Z" fill="#00A1E5"/><g clip-path="url(#clip0)"><path d="M1830.49 188.555C1820.53 188.555 1812.5 196.578 1812.5 206.541L1812.5 427.936C1812.5 437.9 1820.53 445.923 1830.49 445.923L2047.84 445.923C2057.8 445.923 2065.83 437.9 2065.83 427.936L2065.83 206.541C2065.83 196.578 2057.8 188.555 2047.84 188.555Z" stroke="url(#stroke1)" stroke-width="8.40626" fill="none"/></g><path d="M1992.81 215.306C1992.81 222.384 1987.07 228.123 1979.99 228.123 1972.91 228.123 1967.18 222.384 1967.18 215.306 1967.18 208.227 1972.91 202.489 1979.99 202.489 1987.07 202.489 1992.81 208.227 1992.81 215.306Z" fill="#363C40"/><path d="M2021.39 215.306C2021.39 222.384 2015.65 228.123 2008.57 228.123 2001.5 228.123 1995.76 222.384 1995.76 215.306 1995.76 208.227 2001.5 202.489 2008.57 202.489 2015.65 202.489 2021.39 208.227 2021.39 215.306Z" fill="#363C40"/><path d="M2049.97 215.306C2049.97 222.384 2044.23 228.123 2037.16 228.123 2030.08 228.123 2024.34 222.384 2024.34 215.306 2024.34 208.227 2030.08 202.489 2037.16 202.489 2044.23 202.489 2049.97 208.227 2049.97 215.306Z" fill="#363C40"/><path d="M2045.78 241.91C2052.82 241.91 2058.52 247.611 2058.52 254.643L2058.52 321.793C2058.52 328.826 2052.82 334.526 2045.78 334.526L1832.01 334.526C1824.98 334.526 1819.28 328.826 1819.28 321.793L1819.28 254.643C1819.28 247.611 1824.98 241.91 1832.01 241.91Z" stroke="url(#stroke2)" stroke-width="4.41328" fill="#120C0C"/></g></g></g><path d="M1479.5 267.042 1734.56 267.042C1740.89 267.042 1746.02 272.172 1746.02 278.5 1746.02 284.829 1740.89 289.959 1734.56 289.959L1479.5 289.958C1473.17 289.958 1468.04 284.828 1468.04 278.5 1468.04 272.172 1473.17 267.042 1479.5 267.042ZM1723.1 255.584 1768.94 278.5 1723.1 301.417Z" fill="#00A1E5"/><path d="M1477.5 417.042 1732.56 417.042C1738.89 417.042 1744.02 422.172 1744.02 428.5 1744.02 434.829 1738.89 439.959 1732.56 439.959L1477.5 439.958C1471.17 439.958 1466.04 434.828 1466.04 428.5 1466.04 422.172 1471.17 417.042 1477.5 417.042ZM1721.1 405.584 1766.94 428.501 1721.1 451.417Z" fill="#DA4453"/><g><g><g><path d="M279.857 218.589 473.69 330.498 473.69 464.789 279.857 352.88Z" fill-rule="evenodd"/><path d="M473.69 464.789 357.39 531.935 163.557 420.025 279.857 352.88Z" fill="#F2F2F2" fill-rule="evenodd"/><path d="M163.557 420.025 163.557 428.978 357.39 540.887 357.39 531.935Z" fill="#E6E6E6" fill-rule="evenodd"/><path d="M357.39 540.887 473.69 473.743 473.69 464.789 357.39 531.935Z" fill="#CCCCCC" fill-rule="evenodd"/><path d="M473.69 330.498 481.443 326.022 287.61 214.112 279.857 218.589Z" fill="#E6E6E6" fill-rule="evenodd"/><path d="M279.857 361.833 458.183 464.789 396.157 500.599 217.83 397.644 279.857 361.833Z" fill="#B3B3B3" fill-rule="evenodd"/><path d="M279.857 442.407 318.623 464.789 287.61 482.695 248.844 460.314Z" fill="#B3B3B3" fill-rule="evenodd"/><path d="M287.61 232.018 465.936 334.974 465.936 451.36 287.61 348.403Z" fill="#00A1E5" fill-rule="evenodd"/><path d="M473.69 330.498 481.443 326.022 481.443 469.266 473.69 473.743Z" fill="#CCCCCC" fill-rule="evenodd"/></g></g></g><g><g><g><path d="M369.668 147.855C372.799 152.99 371.797 398.037 367.727 407.681 364.533 415.321 261.079 501.303 255.693 503.558 185.742 503.12 138.586 477.632 130.758 464.168 127.753 447.259 130.32 186.556 133.138 181.108 135.643 176.349 267.967 128.942 272.601 127.815 276.797 126.876 366.099 142.156 369.668 147.855Z" fill="#C7C7C7" transform="matrix(-1.00099 0 0 1 1538.69 65.8169)"/><path d="M364.596 152.927 361.339 154.305 358.083 155.745 354.826 157.186 351.507 158.751 348.188 160.317 344.869 161.945 341.55 163.573 338.169 165.264 334.787 166.955 331.405 168.709 327.961 170.462 324.579 172.278 321.135 174.094 317.691 175.91 310.739 179.668 303.725 183.425 296.712 187.183 289.635 191.003 282.496 194.76 275.357 198.517 268.218 202.212 264.648 204.028 261.079 205.844 257.446 207.598 253.877 209.351 252.186 208.976 250.433 208.537 246.926 207.723 243.293 206.846 239.599 206.032 235.841 205.156 232.021 204.279 228.201 203.402 224.256 202.525 220.373 201.649 216.428 200.709 208.475 198.956 200.521 197.202 196.513 196.326 192.568 195.449 188.686 194.635 184.803 193.821 180.983 193.007 177.225 192.192 173.468 191.378 169.836 190.627 166.266 189.875 164.513 189.562 162.759 189.186 161.068 188.873 159.378 188.498 157.687 188.185 156.059 187.871 154.43 187.558 152.865 187.183 151.299 186.932 149.796 186.619 148.293 186.306 146.79 186.055 145.35 185.805 143.972 185.492 142.594 185.241 141.279 185.053 139.964 184.803 138.712 184.552 141.968 185.554 145.225 186.556 148.544 187.558 151.925 188.498 155.37 189.5 158.814 190.439 162.384 191.441 165.89 192.38 169.46 193.382 173.092 194.322 180.357 196.263 187.684 198.142 195.073 200.083 202.463 202.024 209.79 203.903 217.054 205.844 220.686 206.784 224.256 207.786 227.825 208.725 231.332 209.727 234.777 210.666 238.221 211.668 241.603 212.608 244.922 213.61 248.178 214.612 251.435 215.614 251.497 219.371 251.622 223.191 251.685 227.011 251.748 230.957 251.81 234.964 251.936 238.972 251.998 243.043 252.061 247.176 252.123 251.372 252.186 255.568 252.249 259.826 252.249 264.147 252.311 268.468 252.374 272.852 252.437 277.236 252.437 281.682 252.499 286.128 252.499 290.637 252.562 295.146 252.624 299.717 252.687 308.861 252.75 318.066 252.75 327.397 252.812 336.728 252.938 355.453 253 374.24 253.063 383.571 253.125 392.839 253.188 402.045 253.251 411.188 253.313 415.759 253.313 420.268 253.376 424.777 253.439 429.224 253.439 433.67 253.501 438.116 253.564 442.437 253.626 446.821 253.626 451.079 253.689 455.338 253.752 459.533 253.814 463.729 253.877 467.862 253.939 471.933 254.002 476.004 254.127 479.949 254.19 483.894 254.253 487.777 254.378 491.597 254.44 495.354 254.503 491.534 254.566 487.714 254.566 483.769 254.628 479.824 254.691 475.816 254.754 471.745 254.816 467.612 254.879 463.416 254.941 459.22 255.004 454.962 255.067 450.641 255.192 446.32 255.255 441.936 255.317 437.49 255.38 433.044 255.442 428.535 255.505 424.026 255.63 419.454 255.693 414.883 255.756 410.311 255.943 401.043 256.131 391.712 256.257 382.256 256.444 372.799 256.82 353.824 257.133 334.849 257.321 325.393 257.509 316 257.634 306.669 257.822 297.338 257.885 292.766 258.01 288.195 258.073 283.623 258.135 279.114 258.198 274.668 258.261 270.159 258.323 265.775 258.448 261.392 258.511 257.008 258.574 252.75 258.636 248.491 258.699 244.233 258.762 240.1 258.824 235.966 258.887 231.896 258.949 227.888 259.012 223.88 259.012 219.997 259.075 216.115 259.137 212.357 266.026 208.662 272.852 204.968 279.678 201.398 286.504 197.766 293.267 194.196 299.968 190.564 306.669 186.995 313.369 183.362 319.945 179.73 326.52 176.098 333.033 172.341 339.484 168.583 342.677 166.705 345.809 164.763 349.002 162.822 352.134 160.881 355.265 158.939 358.396 156.935 361.465 154.931Z" stroke="#FFFFFF" stroke-width="0.0626238" stroke-opacity="0.54118" fill="#FFFFFF" fill-opacity="0.54118" transform="matrix(-1.00099 0 0 1 1538.69 65.8169)"/><path d="M151.55 415.071 152.176 415.947 152.802 416.761 153.491 417.576 154.242 418.39 154.994 419.141 155.745 419.893 156.622 420.644 157.436 421.396 158.313 422.147 159.252 422.836 160.192 423.525 161.194 424.214 162.133 424.902 163.198 425.529 164.2 426.155 165.264 426.844 166.391 427.407 167.519 428.034 168.646 428.597 169.773 429.098 170.963 429.662 172.153 430.163 173.343 430.664 174.533 431.165 177.037 432.104 179.542 432.981 182.11 433.732 184.678 434.421 187.308 435.048 189.875 435.611 192.506 436.112 195.073 436.488 197.641 436.864 200.208 437.051 201.523 437.177 202.776 437.239 203.966 437.302 205.218 437.302 206.471 437.302 207.661 437.302 208.85 437.239 210.04 437.177 211.167 437.114 212.357 437.051 213.422 436.926 214.549 436.738 215.614 436.613 216.678 436.425 217.743 436.175 218.745 435.924 219.684 435.674 220.624 435.423 221.563 435.11 222.502 434.797 222.377 434.734 222.314 434.734 222.001 434.609 221.626 434.547 221.187 434.421 220.686 434.296 220.06 434.108 219.434 433.92 218.682 433.732 217.868 433.482 216.991 433.294 216.052 433.044 215.05 432.73 214.048 432.48 212.921 432.167 211.794 431.854 210.604 431.541 209.351 431.165 208.099 430.852 206.784 430.476 205.406 430.1 204.028 429.725 202.651 429.349 201.21 428.91 199.707 428.535 196.701 427.721 193.633 426.844 190.502 425.967 187.37 425.153 184.239 424.214 181.108 423.4 178.039 422.523 174.971 421.709 173.531 421.27 172.028 420.895 170.587 420.456 169.21 420.08 167.832 419.705 166.517 419.329 165.202 418.953 163.949 418.64 162.759 418.264 161.569 417.951 160.442 417.638 159.378 417.325 158.376 417.074 157.436 416.761 156.497 416.511 155.683 416.26 154.931 416.073 154.18 415.885 153.554 415.697 152.99 415.509 152.552 415.384 152.113 415.258 151.8 415.133 151.675 415.133Z" stroke="#FFFFFF" stroke-width="0.0626238" stroke-opacity="0.16078" fill="#000000" fill-opacity="0.16078" transform="matrix(-1.00099 0 0 1 1538.69 65.8169)"/><path d="M216.303 381.567 157.687 358.96 157.123 359.21 156.622 359.461 156.121 359.711 155.745 360.024 155.37 360.4 154.994 360.776 154.681 361.214 154.368 361.59 154.117 362.028 153.867 362.467 153.679 362.905 153.491 363.406 153.303 363.907 153.178 364.345 152.99 365.285 152.865 366.224 152.739 367.101 152.739 367.476 152.739 367.915 152.739 368.228 152.739 368.604 152.739 368.917 152.739 369.167 152.739 369.418 152.802 369.668 152.802 369.794 152.802 369.919 152.802 369.981 152.802 370.044 161.945 373.238 162.008 373.3 162.07 373.363 162.133 373.426 162.196 373.551 162.321 373.676 162.384 373.864 162.571 374.052 162.697 374.24 162.885 374.49 163.072 374.741 163.26 374.991 163.511 375.304 163.761 375.555 164.012 375.931 164.325 376.181 164.951 376.933 165.577 377.622 166.391 378.373 167.206 379.124 168.082 379.939 169.022 380.69 170.086 381.504 171.151 382.256 172.341 383.007 173.531 383.696 174.846 384.385 176.223 385.011 176.912 385.262 177.601 385.575 178.353 385.825 179.104 386.076 179.918 386.264 180.67 386.451 181.484 386.639 182.298 386.827 183.112 386.952 183.926 387.015 184.803 387.14 185.68 387.203 186.556 387.203 187.496 387.203 188.435 387.203 189.374 387.14 190.314 387.015 191.253 386.89 192.255 386.765 193.257 386.577 194.259 386.326 195.261 386.076 196.326 385.763 197.39 385.387 197.453 385.387 197.578 385.449 197.766 385.449 198.142 385.512 198.517 385.575 198.956 385.637 199.457 385.7 200.02 385.763 200.647 385.825 201.336 385.888 202.087 385.95 202.838 386.013 203.59 386.013 204.404 386.076 206.032 386.076 206.909 386.013 207.723 385.95 208.6 385.888 209.414 385.763 210.228 385.637 210.98 385.449 211.731 385.262 212.483 385.074 213.109 384.761 213.798 384.448 214.361 384.072 214.862 383.696 215.363 383.195 215.551 382.945 215.739 382.694 215.927 382.444 216.052 382.193 216.177 381.88Z" stroke="#FFFFFF" stroke-width="0.0626238" stroke-opacity="0.38824" fill="#FFFFFF" fill-opacity="0.38824" transform="matrix(-1.00099 0 0 1 1538.69 65.8169)"/><path d="M215.802 373.927C196.326 368.854 176.85 363.844 157.374 358.772 156.622 361.527 156.559 365.473 157.749 367.539 160.693 368.979 166.642 370.107 169.585 371.547 178.102 379.751 185.554 380.44 199.144 379.312 204.404 380.377 209.664 381.254 214.862 382.318 216.49 379.124 216.929 377.809 215.802 373.927Z" fill="#606060" transform="matrix(-1.00099 0 0 1 1538.69 65.8169)"/><path d="M366.725 151.174 253.188 214.862 253.626 499.738 364.784 406.178Z" stroke="#FFFFFF" stroke-width="0.0626238" stroke-opacity="0.4" fill="#FFFFFF" fill-opacity="0.4" transform="matrix(-1.00099 0 0 1 1538.69 65.8169)"/><path d="M158.125 433.106 158.751 433.92 159.44 434.672 160.066 435.486 160.755 436.175 161.444 436.926 162.133 437.615 162.885 438.304 163.636 438.93 164.387 439.556 165.139 440.183 165.953 440.809 166.705 441.373 167.519 441.936 168.333 442.437 170.024 443.502 171.777 444.441 173.531 445.318 175.284 446.132 177.1 446.821 178.916 447.51 180.795 448.073 182.674 448.574 184.49 449.075 186.368 449.451 188.247 449.764 190.126 450.015 192.005 450.202 193.883 450.328 195.699 450.453 197.515 450.453 199.332 450.39 201.022 450.265 202.776 450.14 204.467 449.952 206.095 449.639 207.661 449.326 209.163 448.95 210.666 448.574 212.044 448.073 211.919 448.011 211.668 448.011 211.418 447.885 211.105 447.823 210.729 447.698 210.228 447.572 209.727 447.447 209.163 447.322 208.537 447.134 207.911 446.946 207.222 446.758 206.471 446.57 205.657 446.32 204.842 446.132 203.966 445.881 203.026 445.631 202.087 445.38 201.148 445.067 200.146 444.817 199.144 444.504 198.079 444.253 196.952 443.94 194.76 443.314 192.506 442.688 190.126 442.061 187.746 441.435 185.366 440.746 180.607 439.431 178.29 438.805 175.973 438.116 173.718 437.49 172.654 437.239 171.589 436.926 170.525 436.613 169.523 436.363 168.521 436.049 167.581 435.799 166.642 435.549 165.765 435.298 164.888 435.048 164.074 434.797 163.323 434.609 162.634 434.421 161.883 434.233 161.256 434.046 160.693 433.858 160.192 433.732 159.691 433.545 159.252 433.482 158.877 433.357 158.563 433.231 158.313 433.169Z" stroke="#FFFFFF" stroke-width="0.0626238" stroke-opacity="0.16078" fill="#000000" fill-opacity="0.16078" transform="matrix(-1.00099 0 0 1 1538.69 65.8169)"/><path d="M167.832 450.829 168.583 451.768 169.335 452.645 170.149 453.522 171.026 454.273 171.902 455.087 172.779 455.776 173.718 456.465 174.72 457.154 175.66 457.717 176.724 458.281 177.726 458.845 178.791 459.283 179.918 459.721 180.983 460.16 182.11 460.473 183.237 460.786 184.364 461.099 185.554 461.287 186.682 461.537 187.871 461.663 188.999 461.788 190.188 461.851 191.378 461.851 192.568 461.851 193.695 461.788 194.885 461.663 196.012 461.537 197.202 461.35 198.33 461.099 199.457 460.849 200.584 460.535 201.649 460.16 201.586 460.16 201.461 460.097 201.273 460.097 201.022 460.034 200.835 459.972 200.521 459.847 200.208 459.784 199.833 459.659 199.457 459.596 199.081 459.471 198.643 459.346 198.142 459.22 197.641 459.095 197.14 458.907 196.576 458.782 196.012 458.657 194.823 458.281 193.57 457.968 192.192 457.592 190.815 457.216 189.374 456.841 187.934 456.402 184.928 455.588 181.922 454.774 180.482 454.336 179.041 453.96 177.601 453.584 176.286 453.208 174.971 452.833 173.781 452.457 173.217 452.332 172.654 452.144 172.09 452.019 171.589 451.893 171.088 451.768 170.65 451.643 170.211 451.518 169.836 451.392 169.46 451.267 169.147 451.142 168.834 451.079 168.521 451.017 168.333 450.954 168.145 450.891 167.957 450.829Z" stroke="#FFFFFF" stroke-width="0.0626238" stroke-opacity="0.16078" fill="#000000" fill-opacity="0.16078" transform="matrix(-1.00099 0 0 1 1538.69 65.8169)"/><path d="M147.542 204.091 141.78 204.905 140.716 340.987 229.955 365.973 232.146 358.709 146.414 335.851Z" stroke="#FFFFFF" stroke-width="0.0626238" stroke-opacity="0.43922" fill="#FCFCFC" fill-opacity="0.43922" transform="matrix(-1.00099 0 0 1 1538.69 65.8169)"/><path d="M231.708 254.566 231.583 258.386 147.667 234.213Z" stroke="#FFFFFF" stroke-width="0.0626238" stroke-opacity="0.23137" fill="#000000" fill-opacity="0.23137" transform="matrix(-1.00099 0 0 1 1538.69 65.8169)"/><path d="M232.961 282.245 232.773 286.066 148.919 261.893Z" stroke="#FFFFFF" stroke-width="0.0626238" stroke-opacity="0.23137" fill="#000000" fill-opacity="0.23137" transform="matrix(-1.00099 0 0 1 1538.69 65.8169)"/><path d="M231.708 307.859 231.583 311.679 147.667 287.506Z" stroke="#FFFFFF" stroke-width="0.0626238" stroke-opacity="0.23137" fill="#000000" fill-opacity="0.23137" transform="matrix(-1.00099 0 0 1 1538.69 65.8169)"/><path d="M231.708 333.033 231.583 336.853 147.667 312.618Z" stroke="#FFFFFF" stroke-width="0.0626238" stroke-opacity="0.23137" fill="#000000" fill-opacity="0.23137" transform="matrix(-1.00099 0 0 1 1538.69 65.8169)"/><path d="M147.855 207.222 231.27 228.076 230.581 365.66 231.27 365.66 231.959 365.66 232.647 227.575 232.647 227.011 232.146 226.886 148.168 205.907 148.043 206.596ZM231.771 228.201 231.27 228.076 231.27 227.575 231.959 227.575Z" fill="#9E9E9E" transform="matrix(-1.00099 0 0 1 1538.69 65.8169)"/></g></g></g><path d="M576.5 498.042 894.101 498.042C900.429 498.042 905.559 503.172 905.559 509.5 905.559 515.828 900.429 520.959 894.101 520.959L576.5 520.958C570.172 520.958 565.042 515.828 565.042 509.5 565.042 503.172 570.172 498.042 576.5 498.042ZM882.642 475.125 951.392 509.5 882.642 543.875Z" fill="#EB99A1"/><path d="M988 504C988 474.729 1011.95 451 1041.5 451 1071.05 451 1095 474.729 1095 504 1095 533.271 1071.05 557 1041.5 557 1011.95 557 988 533.271 988 504Z" fill="#EB99A1" fill-rule="evenodd"/><text fill="#F0F0F0" font-family="Arial,Arial_MSFontService,sans-serif" font-weight="400" font-size="46" transform="matrix(1 0 0 1 1016.32 522)">80</text><path d="M988 381C988 351.177 1011.95 327 1041.5 327 1071.05 327 1095 351.177 1095 381 1095 410.823 1071.05 435 1041.5 435 1011.95 435 988 410.823 988 381Z" fill="#DA4453" fill-rule="evenodd"/><text fill="#F0F0F0" font-family="Arial,Arial_MSFontService,sans-serif" font-weight="400" font-size="46" transform="matrix(1 0 0 1 1003.71 399)">443</text><path d="M986 256C986 226.177 1010.18 202 1040 202 1069.82 202 1094 226.177 1094 256 1094 285.823 1069.82 310 1040 310 1010.18 310 986 285.823 986 256Z" fill="#00A1E5" fill-rule="evenodd"/><text fill="#F0F0F0" font-family="Arial,Arial_MSFontService,sans-serif" font-weight="400" font-size="46" transform="matrix(1 0 0 1 1015.08 274)">22</text><path d="M640 486.5C640 479.596 645.596 474 652.5 474L806.5 474C813.404 474 819 479.596 819 486.5L819 536.5C819 543.404 813.404 549 806.5 549L652.5 549C645.596 549 640 543.404 640 536.5Z" fill="#EB99A1" fill-rule="evenodd"/><text fill="#FFFFFF" font-family="Arial,Arial_MSFontService,sans-serif" font-weight="400" font-size="41" transform="matrix(1 0 0 1 675.697 526)">HTTP</text><path d="M576.5 371.042 894.101 371.042C900.429 371.042 905.559 376.172 905.559 382.5 905.559 388.829 900.429 393.959 894.101 393.959L576.5 393.958C570.172 393.958 565.042 388.828 565.042 382.5 565.042 376.172 570.172 371.042 576.5 371.042ZM882.642 348.125 951.392 382.5 882.642 416.875Z" fill="#DA4453"/><path d="M640 358.667C640 351.671 645.671 346 652.667 346L806.333 346C813.329 346 819 351.671 819 358.667L819 409.333C819 416.329 813.329 422 806.333 422L652.667 422C645.671 422 640 416.329 640 409.333Z" fill="#DA4453" fill-rule="evenodd"/><text fill="#FFFFFF" font-family="Arial,Arial_MSFontService,sans-serif" font-weight="400" font-size="41" transform="matrix(1 0 0 1 661.947 399)">HTTPS</text><path d="M576.5 248.042 894.101 248.042C900.429 248.042 905.559 253.172 905.559 259.5 905.559 265.829 900.429 270.959 894.101 270.959L576.5 270.958C570.172 270.958 565.042 265.828 565.042 259.5 565.042 253.172 570.172 248.042 576.5 248.042ZM882.642 225.125 951.392 259.5 882.642 293.875Z" fill="#00A1E5"/><path d="M640 236.5C640 229.597 645.596 224 652.5 224L806.5 224C813.404 224 819 229.597 819 236.5L819 286.5C819 293.404 813.404 299 806.5 299L652.5 299C645.596 299 640 293.404 640 286.5Z" fill="#00A1E5" fill-rule="evenodd"/><text fill="#FFFFFF" font-family="Arial,Arial_MSFontService,sans-serif" font-weight="400" font-size="41" transform="matrix(1 0 0 1 687.155 276)">SSH</text><text fill="#DA4453" font-family="Arial,Arial_MSFontService,sans-serif" font-weight="400" font-size="64" transform="matrix(1 0 0 1 1814.12 140)">Services</text><path d="M1508 252.5C1508 245.596 1513.6 240 1520.5 240L1673.5 240C1680.4 240 1686 245.596 1686 252.5L1686 302.5C1686 309.403 1680.4 315 1673.5 315L1520.5 315C1513.6 315 1508 309.403 1508 302.5Z" fill="#00A1E5" fill-rule="evenodd"/><text fill="#FFFFFF" font-family="Arial,Arial_MSFontService,sans-serif" font-weight="400" font-size="41" transform="matrix(1 0 0 1 1554.7 293)">SSH</text><g><g><g><path d="M242.934 6.5325C252.83 6.5325 260.852 14.5548 260.852 24.4508L260.852 183.936C260.852 193.832 252.83 201.854 242.934 201.854L26.3917 201.854C16.4957 201.854 8.47342 193.832 8.47342 183.936L8.47342 24.4508C8.47342 14.5548 16.4957 6.53249 26.3917 6.53249Z" fill="#DA4453" transform="matrix(1 0 0 1.00446 1805 368)"/><g clip-path="url(#clip3)"><path d="M26.3927 6.5307C16.466 6.5307 8.47315 14.5235 8.47315 24.4503L8.47315 183.935C8.47315 193.862 16.466 201.855 26.3927 201.855L242.932 201.855C252.859 201.855 260.852 193.862 260.852 183.935L260.852 24.4503C260.852 14.5235 252.859 6.5307 242.932 6.5307Z" stroke="url(#stroke4)" stroke-width="8.375" fill="none" transform="matrix(1 0 0 1.00446 1805 368)"/></g><path d="M188.108 33.1821C188.108 40.2344 182.391 45.9515 175.339 45.9515 168.286 45.9515 162.569 40.2344 162.569 33.1821 162.569 26.1297 168.286 20.4127 175.339 20.4127 182.391 20.4127 188.108 26.1297 188.108 33.1821Z" fill="#40363A" transform="matrix(1 0 0 1.00446 1805 368)"/><path d="M188.108 33.1821C188.108 40.2344 182.391 45.9515 175.339 45.9515 168.286 45.9515 162.569 40.2344 162.569 33.1821 162.569 26.1297 168.286 20.4127 175.339 20.4127 182.391 20.4127 188.108 26.1297 188.108 33.1821Z" fill="#40363A" transform="matrix(1 0 0 1.00446 1833.48 368)"/><path d="M188.108 33.1821C188.108 40.2344 182.391 45.9515 175.339 45.9515 168.286 45.9515 162.569 40.2344 162.569 33.1821 162.569 26.1297 168.286 20.4127 175.339 20.4127 182.391 20.4127 188.108 26.1297 188.108 33.1821Z" fill="#40363A" transform="matrix(1 0 0 1.00446 1861.95 368)"/><path d="M240.885 59.6873C247.891 59.6873 253.571 65.367 253.571 72.3733L253.571 181.633C253.571 188.64 247.891 194.32 240.885 194.32L27.9091 194.32C20.9028 194.32 15.2231 188.64 15.2231 181.633L15.2231 72.3733C15.2231 65.367 20.9028 59.6873 27.9091 59.6873Z" stroke="url(#stroke5)" stroke-width="4.39688" fill="#120C0C" transform="matrix(1 0 0 1.00446 1805 368)"/></g></g></g><text fill="#D9D8DC" font-family="Arial,Arial_MSFontService,sans-serif" font-weight="400" font-size="50" transform="matrix(1 0 0 1 1878.42 478)">nginx</text><text fill="#D9D8DC" font-family="Arial,Arial_MSFontService,sans-serif" font-weight="400" font-size="50" transform="matrix(1 0 0 1 1856.08 539)">apache</text><path d="M1508 402.667C1508 395.671 1513.67 390 1520.67 390L1673.33 390C1680.33 390 1686 395.671 1686 402.667L1686 453.334C1686 460.329 1680.33 466 1673.33 466L1520.67 466C1513.67 466 1508 460.329 1508 453.333Z" fill="#DA4453" fill-rule="evenodd"/><text fill="#FFFFFF" font-family="Arial,Arial_MSFontService,sans-serif" font-weight="400" font-size="41" transform="matrix(1 0 0 1 1529.49 443)">HTTPS</text><path d="M1477.5 514.042 1732.56 514.042C1738.89 514.042 1744.02 519.172 1744.02 525.5 1744.02 531.829 1738.89 536.959 1732.56 536.959L1477.5 536.958C1471.17 536.958 1466.04 531.828 1466.04 525.5 1466.04 519.172 1471.17 514.042 1477.5 514.042ZM1721.1 502.584 1766.94 525.5 1721.1 548.417Z" fill="#EB99A1"/><path d="M1511 501.5C1511 494.597 1516.6 489 1523.5 489L1677.5 489C1684.4 489 1690 494.597 1690 501.5L1690 551.5C1690 558.404 1684.4 564 1677.5 564L1523.5 564C1516.6 564 1511 558.403 1511 551.5Z" fill="#EB99A1" fill-rule="evenodd"/><text fill="#FFFFFF" font-family="Arial,Arial_MSFontService,sans-serif" font-weight="400" font-size="41" transform="matrix(1 0 0 1 1546.82 542)">HTTP</text><text fill="#DA4453" font-family="Arial,Arial_MSFontService,sans-serif" font-weight="400" font-size="64" transform="matrix(1 0 0 1 1181.27 140)">Server</text><text fill="#DA4453" font-family="Arial,Arial_MSFontService,sans-serif" font-weight="400" font-size="64" transform="matrix(1 0 0 1 164.443 140)">Your</text><text fill="#DA4453" font-family="Arial,Arial_MSFontService,sans-serif" font-weight="400" font-size="64" transform="matrix(1 0 0 1 311.522 140)">Laptop</text><text fill="#D9D8DC" font-family="Arial,Arial_MSFontService,sans-serif" font-weight="400" font-size="50" transform="matrix(1 0 0 1 1867.05 307)">SSHD</text></g></svg>