<svg xmlns="http://www.w3.org/2000/svg" xmlns:xlink="http://www.w3.org/1999/xlink" xml:space="preserve" width="2850" height="559" overflow="hidden"><defs><linearGradient id="g" x1="135.2" x2="135.2" y1="8.6" y2="261.9" gradientUnits="userSpaceOnUse" spreadMethod="pad"><stop offset="0" stop-color="#E8E8E8"/><stop offset=".2" stop-color="#E9E9E9" stop-opacity="0"/><stop offset="1" stop-color="#E9E9E9" stop-opacity="0"/></linearGradient><linearGradient id="h" x1="135" x2="135" y1="41.7" y2="276.6" gradientUnits="userSpaceOnUse" spreadMethod="pad"><stop offset="0" stop-color="#494949"/><stop offset="1" stop-color="#FFF"/></linearGradient><linearGradient id="j" x1="134.7" x2="134.7" y1="8.5" y2="260.9" gradientUnits="userSpaceOnUse" spreadMethod="pad"><stop offset="0" stop-color="#E8E8E8"/><stop offset=".2" stop-color="#E9E9E9" stop-opacity="0"/><stop offset="1" stop-color="#E9E9E9" stop-opacity="0"/></linearGradient><linearGradient id="k" x1="134.5" x2="134.5" y1="41.5" y2="275.6" gradientUnits="userSpaceOnUse" spreadMethod="pad"><stop offset="0" stop-color="#491616"/><stop offset="1" stop-color="#EEE"/></linearGradient><linearGradient id="m" x1="-50.9" x2="287.5" y1="135.5" y2="135.5" gradientUnits="userSpaceOnUse" spreadMethod="pad"><stop offset="0" stop-color="#3B1E05"/><stop offset="1" stop-color="#3B1E05" stop-opacity="0"/></linearGradient><linearGradient id="aL" x1="14.81" x2="27.2" y1="21.7" y2="56.93" gradientUnits="userSpaceOnUse" spreadMethod="pad"><stop offset="0" stop-color="#FFF"/><stop offset="1" stop-color="#FFF" stop-opacity="0"/></linearGradient><linearGradient id="aJ" x1="25.31" x2="40.97" y1="12.26" y2="48.91" gradientUnits="userSpaceOnUse" spreadMethod="pad"><stop offset="0" stop-color="#FFF"/><stop offset="1" stop-color="#FFF" stop-opacity="0"/></linearGradient><linearGradient id="aH" x1="30.4" x2="33.95" y1="12.82" y2="12.82" gradientUnits="userSpaceOnUse" spreadMethod="pad"><stop offset="0" stop-color="#FFF" stop-opacity=".45"/><stop offset="1" stop-color="#FFF" stop-opacity="0"/></linearGradient><linearGradient id="aE" x1="35.9" x2="39.5" y1="59.82" y2="33.18" gradientUnits="userSpaceOnUse" spreadMethod="pad"><stop offset="0" stop-color="#DC0000"/><stop offset="1" stop-color="#FFB200"/></linearGradient><linearGradient id="aC" x1="51.39" x2="55.1" y1="37.81" y2="37.81" gradientUnits="userSpaceOnUse" spreadMethod="pad"><stop offset="0" stop-color="#FFF" stop-opacity=".45"/><stop offset="1" stop-color="#FFF" stop-opacity="0"/></linearGradient><linearGradient id="aA" x1="67.46" x2="44.08" y1="32.65" y2="53" gradientUnits="userSpaceOnUse" spreadMethod="pad"><stop offset="0" stop-color="#FFF"/><stop offset="1" stop-color="#FFF" stop-opacity="0"/></linearGradient><linearGradient id="ay" x1="44.01" x2="52.72" y1="52.23" y2="34.37" gradientUnits="userSpaceOnUse" spreadMethod="pad"><stop offset="0" stop-color="#DC0000"/><stop offset="1" stop-color="#FFB200"/></linearGradient><linearGradient id="av" x1="45.43" x2="48.73" y1="21.27" y2="21.27" gradientUnits="userSpaceOnUse" spreadMethod="pad"><stop offset="0" stop-color="#FFF" stop-opacity=".45"/><stop offset="1" stop-color="#FFF" stop-opacity="0"/></linearGradient><linearGradient id="as" x1="33.14" x2="30.14" y1="51.69" y2="33.96" gradientUnits="userSpaceOnUse" spreadMethod="pad"><stop offset="0" stop-color="#DC0000"/><stop offset="1" stop-color="#FFB200"/></linearGradient><linearGradient id="aq" x1="4.11" x2="44.43" y1="8.72" y2="57.03" gradientUnits="userSpaceOnUse" spreadMethod="pad"><stop offset="0" stop-color="#FFF"/><stop offset="1" stop-color="#FFF" stop-opacity="0"/></linearGradient><linearGradient id="ao" x1="28.71" x2="36.61" y1="53.2" y2="18.87" gradientUnits="userSpaceOnUse" spreadMethod="pad"><stop offset="0" stop-color="#DC0000"/><stop offset="1" stop-color="#FFB200"/></linearGradient><linearGradient id="am" x1="18.13" x2="33.3" y1="26.57" y2="69.69" gradientUnits="userSpaceOnUse" spreadMethod="pad"><stop offset="0" stop-color="#FFF"/><stop offset="1" stop-color="#FFF" stop-opacity="0"/></linearGradient><linearGradient id="ak" x1="30.99" x2="50.16" y1="15.01" y2="59.88" gradientUnits="userSpaceOnUse" spreadMethod="pad"><stop offset="0" stop-color="#FFF"/><stop offset="1" stop-color="#FFF" stop-opacity="0"/></linearGradient><linearGradient id="ai" x1="37.22" x2="41.57" y1="15.69" y2="15.69" gradientUnits="userSpaceOnUse" spreadMethod="pad"><stop offset="0" stop-color="#FFF" stop-opacity=".45"/><stop offset="1" stop-color="#FFF" stop-opacity="0"/></linearGradient><linearGradient id="af" x1="43.96" x2="48.36" y1="73.23" y2="40.63" gradientUnits="userSpaceOnUse" spreadMethod="pad"><stop offset="0" stop-color="#DC0000"/><stop offset="1" stop-color="#FFB200"/></linearGradient><linearGradient id="ad" x1="62.91" x2="67.46" y1="46.29" y2="46.29" gradientUnits="userSpaceOnUse" spreadMethod="pad"><stop offset="0" stop-color="#FFF" stop-opacity=".45"/><stop offset="1" stop-color="#FFF" stop-opacity="0"/></linearGradient><linearGradient id="ab" x1="82.59" x2="53.97" y1="39.97" y2="64.88" gradientUnits="userSpaceOnUse" spreadMethod="pad"><stop offset="0" stop-color="#FFF"/><stop offset="1" stop-color="#FFF" stop-opacity="0"/></linearGradient><linearGradient id="Z" x1="53.88" x2="64.55" y1="63.94" y2="42.08" gradientUnits="userSpaceOnUse" spreadMethod="pad"><stop offset="0" stop-color="#DC0000"/><stop offset="1" stop-color="#FFB200"/></linearGradient><linearGradient id="W" x1="55.62" x2="59.66" y1="26.04" y2="26.04" gradientUnits="userSpaceOnUse" spreadMethod="pad"><stop offset="0" stop-color="#FFF" stop-opacity=".45"/><stop offset="1" stop-color="#FFF" stop-opacity="0"/></linearGradient><linearGradient id="T" x1="40.58" x2="36.9" y1="63.28" y2="41.58" gradientUnits="userSpaceOnUse" spreadMethod="pad"><stop offset="0" stop-color="#DC0000"/><stop offset="1" stop-color="#FFB200"/></linearGradient><linearGradient id="R" x1="5.04" x2="54.39" y1="10.67" y2="69.82" gradientUnits="userSpaceOnUse" spreadMethod="pad"><stop offset="0" stop-color="#FFF"/><stop offset="1" stop-color="#FFF" stop-opacity="0"/></linearGradient><linearGradient id="P" x1="35.14" x2="44.82" y1="65.14" y2="23.1" gradientUnits="userSpaceOnUse" spreadMethod="pad"><stop offset="0" stop-color="#DC0000"/><stop offset="1" stop-color="#FFB200"/></linearGradient><linearGradient xlink:href="#a" id="aO" x1="765.04" x2="765.04" y1="581.32" y2="545.7" gradientTransform="matrix(1.186 0 0 1.186 -130.76 -102.74)" gradientUnits="userSpaceOnUse"/><linearGradient id="a"><stop offset="0" stop-color="#9c9c9c"/><stop offset="1" stop-color="#fff"/></linearGradient><linearGradient id="aQ" x1="298.59" x2="298.59" y1="445.73" y2="117.73" gradientTransform="matrix(.626 0 0 .626 -92.31 681.98)" gradientUnits="userSpaceOnUse"><stop offset="0" stop-color="#999"/><stop offset="1" stop-color="#e6e6e6"/></linearGradient><linearGradient xlink:href="#a" id="aR" x1="130.63" x2="142.95" y1="143.61" y2="111.65" gradientTransform="matrix(1.735 0 0 1.735 -90.47 708.86)" gradientUnits="userSpaceOnUse"/><linearGradient id="c"><stop offset="0" stop-color="#666"/><stop offset="1" stop-color="#fff"/></linearGradient><linearGradient id="d" x1="33.47" x2="141.56" y1="854.68" y2="854.68" gradientUnits="userSpaceOnUse"><stop offset="0" stop-color="#fff"/><stop offset="1" stop-color="#4d4d4d"/></linearGradient><linearGradient id="e" x1="87.52" x2="87.52" y1="829.03" y2="887.91" gradientUnits="userSpaceOnUse"><stop offset="0" stop-color="#fff"/><stop offset="1" stop-color="#4d4d4d"/></linearGradient><linearGradient xlink:href="#a" id="aW" x1="164.58" x2="143.01" y1="171.58" y2="143.57" gradientUnits="userSpaceOnUse"/><linearGradient id="aX" x1="763.36" x2="763.24" y1="570.19" y2="545.38" gradientTransform="matrix(1.186 0 0 1.186 -101.41 -96.45)" gradientUnits="userSpaceOnUse"><stop offset="0" stop-color="#d88000"/><stop offset=".31" stop-color="#ffe1b5"/><stop offset=".71" stop-color="#ec9c1a"/><stop offset="1" stop-color="#885600"/></linearGradient><clipPath id="f"><path d="M2784.5 667.6c-10 0-18 8-18 18v221.3c0 10 8 18 18 18h217.3c10 0 18-8 18-18V685.5c0-10-8-18-18-18Z"/></clipPath><clipPath id="i"><path d="M2784.4 853.6c-10 0-18 8-18 18v160.2c0 10 8 18 18 18h216.5c10 0 18-8 18-18V871.6c0-10-8-18-18-18Z"/></clipPath><clipPath id="n"><path d="M1313 754h142v218h-142z"/></clipPath><clipPath id="o"><path d="M1317 761h135v209h-135z"/></clipPath><clipPath id="p"><path d="M1319 794h62v168h-62z"/></clipPath><clipPath id="q"><path d="M1416 801h15v39h-15z"/></clipPath><clipPath id="r"><path d="M1413 795h17v44h-17z"/></clipPath><clipPath id="s"><path d="M1441 869h17v45h-17z"/></clipPath><clipPath id="t"><path d="M1394 860h67v102h-67z"/></clipPath><clipPath id="u"><path d="M1400 857h59v102h-59z"/></clipPath><clipPath id="v"><path d="M1438 862h20v50h-20z"/></clipPath><clipPath id="w"><path d="M1359 824h58v124h-58z"/></clipPath><clipPath id="x"><path d="M1352 759h17v52h-17z"/></clipPath><clipPath id="y"><path d="M1350 753h18v58h-18z"/></clipPath><clipPath id="z"><path d="M1358 816h60v127h-60z"/></clipPath><clipPath id="A"><path d="M1321 799h64v168h-64z"/></clipPath><clipPath id="B"><path d="M1379 788h115v178h-115z"/></clipPath><clipPath id="C"><path d="M1381 794h110v171h-110z"/></clipPath><clipPath id="D"><path d="M1439 821h51v137h-51z"/></clipPath><clipPath id="E"><path d="M1398 827h13v32h-13z"/></clipPath><clipPath id="F"><path d="M1399 822h14v35h-14z"/></clipPath><clipPath id="G"><path d="M1376 882h14v37h-14z"/></clipPath><clipPath id="H"><path d="M1374 875h54v83h-54z"/></clipPath><clipPath id="I"><path d="M1376 873h48v82h-48z"/></clipPath><clipPath id="J"><path d="M1376 877h16v40h-16z"/></clipPath><clipPath id="K"><path d="M1410 846h47v101h-47z"/></clipPath><clipPath id="L"><path d="M1449 792h14v43h-14z"/></clipPath><clipPath id="M"><path d="M1449 788h15v47h-15z"/></clipPath><clipPath id="N"><path d="M1409 838h49v105h-49z"/></clipPath><clipPath id="O"><path d="M1436 825h52v137h-52z"/></clipPath><filter id="aM" width="1" height="1" x="0" y="0" color-interpolation-filters="sRGB"><feColorMatrix result="color1" type="hueRotate" values="192"/><feColorMatrix result="color2" type="saturate" values="1"/></filter><filter id="aK" width="1" height="1" x="0" y="0" color-interpolation-filters="sRGB"><feColorMatrix result="color1" type="hueRotate" values="192"/><feColorMatrix result="color2" type="saturate" values="1"/></filter><filter id="aI" width="1" height="1" x="0" y="0" color-interpolation-filters="sRGB"><feColorMatrix result="color1" type="hueRotate" values="192"/><feColorMatrix result="color2" type="saturate" values="1"/></filter><filter id="aG" width="1.1" height="1.04" x="-.05" y="-.01" color-interpolation-filters="sRGB"><feColorMatrix result="color1" type="hueRotate" values="192"/><feColorMatrix result="color2" type="saturate" values="1"/></filter><filter id="aF" width="1.03" height="1.02" x="-.01" y="0" color-interpolation-filters="sRGB"><feColorMatrix result="color1" type="hueRotate" values="192"/><feColorMatrix result="color2" type="saturate" values="1"/></filter><filter id="aD" width="1" height="1" x="0" y="0" color-interpolation-filters="sRGB"><feColorMatrix result="color1" type="hueRotate" values="192"/><feColorMatrix result="color2" type="saturate" values="1"/></filter><filter id="aB" width="1" height="1" x="0" y="0" color-interpolation-filters="sRGB"><feColorMatrix result="color1" type="hueRotate" values="192"/><feColorMatrix result="color2" type="saturate" values="1"/></filter><filter id="az" width="1.04" height="1.02" x="-.01" y="-.01" color-interpolation-filters="sRGB"><feColorMatrix result="color1" type="hueRotate" values="192"/><feColorMatrix result="color2" type="saturate" values="1"/></filter><filter id="ax" width="1.09" height="1.04" x="-.05" y="-.01" color-interpolation-filters="sRGB"><feColorMatrix result="color1" type="hueRotate" values="192"/><feColorMatrix result="color2" type="saturate" values="1"/></filter><filter id="aw" width="1" height="1" x="0" y="0" color-interpolation-filters="sRGB"><feColorMatrix result="color1" type="hueRotate" values="192"/><feColorMatrix result="color2" type="saturate" values="1"/></filter><filter id="au" width="1.1" height="1.04" x="-.05" y="0" color-interpolation-filters="sRGB"><feColorMatrix result="color1" type="hueRotate" values="192"/><feColorMatrix result="color2" type="saturate" values="1"/></filter><filter id="at" width="1.02" height="1.01" x="-.01" y="0" color-interpolation-filters="sRGB"><feColorMatrix result="color1" type="hueRotate" values="192"/><feColorMatrix result="color2" type="saturate" values="1"/></filter><filter id="ar" width="1" height="1" x="0" y="0" color-interpolation-filters="sRGB"><feColorMatrix result="color1" type="hueRotate" values="192"/><feColorMatrix result="color2" type="saturate" values="1"/></filter><filter id="ap" width="1.01" height="1.01" x="0" y="-.01" color-interpolation-filters="sRGB"><feColorMatrix result="color1" type="hueRotate" values="192"/><feColorMatrix result="color2" type="saturate" values="1"/></filter><filter id="an" width="1" height="1" x="0" y="0" color-interpolation-filters="sRGB"><feColorMatrix result="color1" type="hueRotate" values="192"/><feColorMatrix result="color2" type="saturate" values="1"/></filter><filter id="al" width="1" height="1" x="0" y="0" color-interpolation-filters="sRGB"><feColorMatrix result="color1" type="hueRotate" values="192"/><feColorMatrix result="color2" type="saturate" values="1"/></filter><filter id="aj" width="1" height="1" x="0" y="0" color-interpolation-filters="sRGB"><feColorMatrix result="color1" type="hueRotate" values="192"/><feColorMatrix result="color2" type="saturate" values="1"/></filter><filter id="ah" width="1.1" height="1.04" x="-.05" y="-.01" color-interpolation-filters="sRGB"><feColorMatrix result="color1" type="hueRotate" values="192"/><feColorMatrix result="color2" type="saturate" values="1"/></filter><filter id="ag" width="1.03" height="1.02" x="-.01" y="0" color-interpolation-filters="sRGB"><feColorMatrix result="color1" type="hueRotate" values="192"/><feColorMatrix result="color2" type="saturate" values="1"/></filter><filter id="ae" width="1" height="1" x="0" y="0" color-interpolation-filters="sRGB"><feColorMatrix result="color1" type="hueRotate" values="192"/><feColorMatrix result="color2" type="saturate" values="1"/></filter><filter id="ac" width="1" height="1" x="0" y="0" color-interpolation-filters="sRGB"><feColorMatrix result="color1" type="hueRotate" values="192"/><feColorMatrix result="color2" type="saturate" values="1"/></filter><filter id="aa" width="1.04" height="1.02" x="-.01" y="-.01" color-interpolation-filters="sRGB"><feColorMatrix result="color1" type="hueRotate" values="192"/><feColorMatrix result="color2" type="saturate" values="1"/></filter><filter id="Y" width="1.09" height="1.04" x="-.05" y="-.01" color-interpolation-filters="sRGB"><feColorMatrix result="color1" type="hueRotate" values="192"/><feColorMatrix result="color2" type="saturate" values="1"/></filter><filter id="X" width="1" height="1" x="0" y="0" color-interpolation-filters="sRGB"><feColorMatrix result="color1" type="hueRotate" values="192"/><feColorMatrix result="color2" type="saturate" values="1"/></filter><filter id="V" width="1.1" height="1.04" x="-.05" y="0" color-interpolation-filters="sRGB"><feColorMatrix result="color1" type="hueRotate" values="192"/><feColorMatrix result="color2" type="saturate" values="1"/></filter><filter id="U" width="1.02" height="1.01" x="-.01" y="0" color-interpolation-filters="sRGB"><feColorMatrix result="color1" type="hueRotate" values="192"/><feColorMatrix result="color2" type="saturate" values="1"/></filter><filter id="S" width="1" height="1" x="0" y="0" color-interpolation-filters="sRGB"><feColorMatrix result="color1" type="hueRotate" values="192"/><feColorMatrix result="color2" type="saturate" values="1"/></filter><filter id="Q" width="1.01" height="1.01" x="0" y="-.01" color-interpolation-filters="sRGB"><feColorMatrix result="color1" type="hueRotate" values="192"/><feColorMatrix result="color2" type="saturate" values="1"/></filter><filter id="aN" width="1.12" height="1.12" x="-.06" y="-.06" color-interpolation-filters="sRGB"><feGaussianBlur stdDeviation="5.73"/></filter><radialGradient id="l" cx="270.1" cy="197.8" r="143.2" gradientTransform="matrix(1.636 -.032 .026 1.335 -237.4 21.5)" gradientUnits="userSpaceOnUse" spreadMethod="pad"><stop offset="0" stop-color="#C74615"/><stop offset="1" stop-color="#6E260B"/></radialGradient><radialGradient id="aP" cx="87.46" cy="939.89" r="56.46" gradientTransform="matrix(1.87 0 0 1.869 -79.65 -806.4)" gradientUnits="userSpaceOnUse"><stop offset="0" stop-color="#d5f6ff"/><stop offset="1" stop-color="#0098be"/></radialGradient><radialGradient xlink:href="#c" id="b" cx="87.52" cy="851.13" r="54.05" gradientTransform="matrix(1.562 0 0 .844 -49.22 156.4)" gradientUnits="userSpaceOnUse"/><radialGradient xlink:href="#c" id="aV" cx="165.08" cy="171.85" r="11.28" gradientTransform="matrix(2.795 .749 -.93 3.47 -136.57 -548.09)" gradientUnits="userSpaceOnUse"/><mask id="aS" maskUnits="userSpaceOnUse"><path fill="url(#b)" fill-rule="evenodd" d="M84.1 829.08c-25.16 1.24-47.93 22.02-50.63 47.25 12.1 10.75 30.81 16.08 45.25 6.84 8.66-5.61 15.87-14.3 26.69-15.72 12.9-2.42 25.77 3.03 36.15 10.32-2.27-26.84-27.24-49.44-54.19-48.72-1.09 0-2.18-.03-3.28.03z" opacity=".79"/></mask><mask id="aT" maskUnits="userSpaceOnUse"><path fill="url(#d)" fill-rule="evenodd" d="M84.1 829.08c-25.16 1.24-47.93 22.02-50.63 47.25 12.1 10.75 30.81 16.08 45.25 6.84 8.66-5.61 15.87-14.3 26.69-15.72 12.9-2.42 25.77 3.03 36.15 10.32-2.27-26.84-27.24-49.44-54.19-48.72-1.09 0-2.18-.03-3.28.03z"/></mask><mask id="aU" maskUnits="userSpaceOnUse"><path fill="url(#e)" fill-rule="evenodd" d="M84.1 829.08c-25.16 1.24-47.93 22.02-50.63 47.25 12.1 10.75 30.81 16.08 45.25 6.84 8.66-5.61 15.87-14.3 26.69-15.72 12.9-2.42 25.77 3.03 36.15 10.32-2.27-26.84-27.24-49.44-54.19-48.72-1.09 0-2.18-.03-3.28.03z"/></mask></defs><path fill="#949494" d="M2799.8 130.6c10 0 18 8 18 18v117c0 10-8 18-18 18h-217.3c-10 0-18-8-18-18v-117c0-10 8-18 18-18Z"/><g clip-path="url(#f)" transform="translate(-202 -537)"><path fill="none" stroke="url(#g)" stroke-width="8.4" d="M26.5 6.6c-10 0-18 8-18 18v221.3c0 10 8 18 18 18h217.3c10 0 18-8 18-18V24.5c0-10-8-18-18-18Z" transform="translate(2758 661)"/></g><path fill="#363C40" d="M2744.8 157.3a12.8 12.8 0 1 1-25.6 0 12.8 12.8 0 0 1 25.6 0Zm28.6 0a12.8 12.8 0 1 1-25.6 0 12.8 12.8 0 0 1 25.6 0Zm28.6 0a12.8 12.8 0 1 1-25.7 0 12.8 12.8 0 0 1 25.7 0Z"/><path fill="#120C0C" stroke="url(#h)" stroke-width="4.4" d="M241.8 60c7 0 12.7 5.6 12.7 12.6v67.2c0 7-5.7 12.7-12.7 12.7H28c-7 0-12.7-5.7-12.7-12.7V72.6C15.3 65.6 21 60 28 60Z" transform="translate(2556 124)"/><path fill="#7F7F7F" d="M2230.5 209a11.5 11.5 0 1 1 0 23 11.5 11.5 0 1 1 0-23Zm45.9 0a11.5 11.5 0 1 1 0 23 11.5 11.5 0 1 1 0-23Zm45.8 0a11.5 11.5 0 0 1 0 23 11.5 11.5 0 1 1 0-23Zm45.9 0a11.5 11.5 0 1 1 0 23 11.5 11.5 0 1 1 0-23Zm45.8 0a11.5 11.5 0 1 1 0 23 11.5 11.5 0 0 1 0-23Zm45.9 0a11.5 11.5 0 1 1 0 23 11.5 11.5 0 1 1 0-23Zm14.3-11.4 45.8 22.9-45.8 23Z"/><path fill="#DA4453" d="M2228.5 359h255a11.5 11.5 0 1 1 0 23h-255a11.5 11.5 0 1 1 0-23Zm243.6-11.4 45.8 22.9-45.8 23Z"/><g fill-rule="evenodd"><path d="m154.2 160.6 194.4 111.9v134.3l-194.4-112Z"/><path fill="#F2F2F2" d="M348.6 406.8 232 473.9 37.6 362l116.6-67Z"/><path fill="#E6E6E6" d="M37.6 362v9L232 482.9v-9Z"/><path fill="#CCC" d="m232 482.9 116.6-67.2v-9L232 474Z"/><path fill="#E6E6E6" d="m348.6 272.5 7.8-4.5L162 156.1l-7.8 4.5Z"/><path fill="#B3B3B3" d="m154.2 303.8 178.8 103-62.1 35.8L92 339.6l62.1-35.8Zm0 80.6 39 22.4-31.2 17.9-38.9-22.4Z"/><path fill="#00A1E5" d="m162 174 178.8 103v116.4L162 290.4Z"/><path fill="#CCC" d="m348.6 272.5 7.8-4.5v143.3l-7.8 4.4Z"/></g><path fill="#C7C7C7" d="M1920.7 155.7c-3.2 5.1-2.2 250.2 1.9 259.8 3.2 7.6 106.8 93.6 112.1 95.9 70-.5 117.3-26 125.1-39.4 3-17 .4-277.6-2.4-283-2.5-4.8-135-52.2-139.6-53.4-4.2-1-93.6 14.4-97.1 20Z"/><path fill="#FFF" fill-opacity=".5" stroke="#FFF" stroke-opacity=".5" stroke-width=".1" d="m364.6 153-3.3 1.3-3.2 1.4-3.3 1.5-3.3 1.6-3.3 1.5-3.3 1.6-3.3 1.7-3.4 1.7-3.4 1.7-3.4 1.7-3.4 1.8-3.4 1.8-3.5 1.8-3.4 1.8-7 3.8-7 3.7-7 3.8-7 3.8-7.2 3.8-7.1 3.7-7.2 3.7-3.6 1.8-3.5 1.8-3.7 1.8-3.5 1.8-1.7-.4-1.8-.5-3.5-.8-3.6-.9-3.7-.8-3.8-.8-3.8-1-3.8-.8-4-.9-3.8-.9-4-.9-8-1.7-7.9-1.8-4-.9-4-.9-3.8-.8-3.9-.8-3.8-.8-3.8-.8-3.7-.8-3.7-.8-3.5-.7-1.8-.3-1.7-.4-1.7-.3-1.7-.4-1.7-.3-1.6-.3-1.7-.3-1.5-.4-1.6-.3-1.5-.3-1.5-.3-1.5-.2-1.5-.3-1.3-.3-1.4-.3-1.3-.1-1.3-.3-1.3-.2 3.3 1 3.2 1 3.3 1 3.4.9 3.5 1 3.4 1 3.6 1 3.5.9 3.6 1 3.6 1 7.3 1.9 7.3 1.8 7.4 2 7.4 2 7.3 1.8 7.3 2 3.6.9 3.6 1 3.5 1 3.5 1 3.5.9 3.4 1 3.4 1 3.3 1 3.3 1 3.2 1 .1 3.7.1 3.8v3.8l.1 4 .1 4 .1 4 .1 4v4.2l.1 4.2v4.2l.1 4.2v4.3l.1 4.4v4.4l.1 4.3v4.5l.1 4.4v9l.1 4.6v9.2l.2 9.2v18.6l.1 18.8.1 18.7v9.4l.1 9.2v9.2l.2 9.2v13.6l.1 4.4v4.5l.1 4.4v4.3l.1 4.4v8.5l.2 4.2v8.4l.1 4 .1 4.1.1 4v3.9l.2 3.9v3.8l.1 3.8.1-3.9v-7.8l.1-3.9v-4l.2-4v-8.4l.1-4.2.1-4.2v-4.4l.2-4.3V442l.1-4.4V433l.1-4.5.1-4.5.1-4.5v-4.6l.2-4.6.1-9.3.2-9.3.2-9.4.1-9.5.4-19 .3-19 .2-9.4.2-9.4.1-9.3.2-9.4v-4.5l.2-4.6v-4.6l.1-4.5.1-4.4v-4.5l.1-4.4.1-4.4.1-4.4v-4.3l.1-4.2.1-4.3v-4.1l.1-4.1v-4.1l.1-4 .1-4V216l.1-3.7 7-3.7 6.8-3.7 6.8-3.6 6.8-3.6 6.8-3.6 6.7-3.6 6.7-3.6 6.7-3.6 6.5-3.7 6.6-3.6 6.5-3.8 6.5-3.7 3.2-1.9 3.1-2 3.2-1.9 3.1-2 3.2-1.9 3.1-2 3-2Z" transform="matrix(-1.001 0 0 1 2290.7 7.8)"/><path fill-opacity=".2" stroke="#FFF" stroke-opacity=".2" stroke-width=".1" d="m151.6 415 .6 1 .6.8.7.8.7.8.8.7.7.8 1 .7.7.8 1 .7.9.7.9.7 1 .7 1 .7 1 .6 1 .7 1 .6 1.2.6 1.1.6 1.1.6 1.2.5 1.2.6 1.2.5 1.1.5 1.2.5 2.5 1 2.5.8 2.6.7 2.6.7 2.6.6 2.6.6 2.6.5 2.6.4 2.5.4 2.6.2h1.3l1.3.1 1.2.1h4.9l1.1-.1h1.2l1.2-.1 1-.2 1.1-.2h1.1l1-.3 1.1-.2 1-.3 1-.2 1-.3.9-.3.9-.3h-.1l-.4-.2h-.4l-.4-.2-.5-.1-.6-.2-.7-.2-.7-.2-.8-.2-1-.2-.8-.3-1-.3-1-.2-1.2-.3-1.1-.3-1.2-.4-1.2-.3-1.3-.3-1.3-.4-1.4-.4-1.4-.4-1.3-.4-1.5-.4-1.5-.4-3-.8-3-.9-3.2-.8-3.1-.8-3.2-1-3-.8-3.2-.9-3-.8-1.5-.4-1.5-.4-1.4-.4-1.4-.4-1.4-.4-1.3-.4-1.3-.3-1.3-.4-1.1-.3-1.2-.3-1.2-.4-1-.3-1-.2-1-.3-.9-.3-.8-.2-.8-.2-.7-.2-.6-.2-.6-.2-.4-.1-.5-.1-.3-.2h-.1Z" transform="matrix(-1.001 0 0 1 2290.7 7.8)"/><path fill="#FFF" fill-opacity=".4" stroke="#FFF" stroke-opacity=".4" stroke-width=".1" d="M216.3 381.6 157.7 359l-.6.2-.5.3-.5.2-.4.3-.3.4-.4.4-.3.4-.3.4-.3.4-.2.5-.2.4-.2.5-.2.5-.1.4-.2 1-.1 1-.2.8v2.3l.1.3v.3l9.1 3.2.1.1.1.1.1.2h.1v.3l.3.2.1.1.2.3.2.2.2.3.2.3.3.3.2.3.3.3.7.7.6.7.8.8.8.7.9.8 1 .8 1 .8 1 .8 1.2.7 1.2.7 1.3.7 1.4.6.7.3.7.3.8.2.7.3.8.2.8.2.8.1.8.2.8.2h.8l.9.1.9.1h3.7l1-.2.9-.1 1-.1 1-.2 1-.3 1-.2 1-.3 1-.4h.5l.3.1h.4l.5.1.5.1h.5l.6.1h.7l.8.2h5.6l.9-.1.8-.1.8-.2.8-.2.7-.1.8-.2.6-.3.7-.4.6-.3.5-.4.5-.5.2-.3.1-.2.2-.3.2-.2v-.3Z" transform="matrix(-1.001 0 0 1 2290.7 7.8)"/><path fill="#606060" d="m2074.7 381.7 58.5-15.1c.7 2.7.8 6.7-.4 8.8-3 1.4-9 2.5-11.9 4-8.5 8.2-16 8.9-29.6 7.7l-15.7 3c-1.6-3.2-2-4.5-1-8.4Z"/><path fill="#FFF" fill-opacity=".4" stroke="#FFF" stroke-opacity=".4" stroke-width=".1" d="m366.7 151.2-113.5 63.7.4 284.8 111.2-93.5Z" transform="matrix(-1.001 0 0 1 2290.7 7.8)"/><path fill-opacity=".2" stroke="#FFF" stroke-opacity=".2" stroke-width=".1" d="m158.1 433.1.7.8.6.8.7.8.7.7.6.7.7.7.8.7.7.6.8.7.7.6.9.6.7.6.8.5.8.5 1.7 1.1 1.8 1 1.7.8 1.8.8 1.8.7 1.8.7 1.9.6 1.9.5 1.8.5 1.9.4 1.8.3 2 .2 1.8.2 1.9.1 1.8.2h1.8l1.8-.1 1.7-.1 1.8-.2 1.7-.1 1.6-.4 1.6-.3 1.5-.4 1.5-.3 1.3-.5h-.3l-.3-.2h-.3l-.4-.2-.5-.1-.5-.2h-.5l-.7-.3-.6-.2-.7-.1-.7-.2-.8-.3-.9-.2-.8-.2-1-.3-1-.2-.9-.3-1-.3-1-.3-1-.2-1.1-.4-2.2-.6-2.3-.6-2.4-.6-2.4-.7-2.3-.7-4.8-1.3-2.3-.6-2.3-.7-2.3-.6-1-.3-1.1-.3-1-.3-1-.2-1-.3-1-.3-1-.3-.8-.2-1-.3-.7-.2-.8-.2-.7-.2-.7-.2-.6-.2-.6-.1-.5-.2-.5-.2h-.4l-.4-.1-.3-.2h-.3Zm9.7 17.7.8 1 .7.8.8 1 1 .7.8.8.9.7 1 .7 1 .7.9.5 1 .6 1 .5 1 .5 1.2.4 1 .5 1.2.3 1.1.3 1.2.3 1.2.2 1 .2 1.3.2h1.1l1.2.2h2.4l1.1-.1 1.2-.1 1.1-.2 1.2-.1 1.1-.3 1.2-.3 1-.3 1.1-.3-.1-.1h-.5l-.2-.1-.3-.2h-.3l-.4-.1-.3-.1-.4-.1-.5-.2h-.5l-.5-.2-.5-.2-.5-.1-.6-.1-1.2-.4-1.2-.3-1.4-.4-1.4-.4-1.4-.4-1.5-.4-3-.8-3-.8-1.4-.5-1.5-.3-1.4-.4-1.3-.4-1.3-.4-1.2-.3-.6-.2-.5-.2h-.6l-.5-.2-.5-.1-.4-.2h-.5l-.4-.2-.3-.1-.4-.2h-.6l-.2-.1-.2-.1h-.1Z" transform="matrix(-1.001 0 0 1 2290.7 7.8)"/><path fill="#FCFCFC" fill-opacity=".4" stroke="#FFF" stroke-opacity=".4" stroke-width=".1" d="m147.5 204-5.7 1-1 136 89.2 25 2.1-7.3-85.7-22.8Z" transform="matrix(-1.001 0 0 1 2290.7 7.8)"/><path fill-opacity=".2" stroke="#FFF" stroke-opacity=".2" stroke-width=".1" d="m231.7 254.6-.1 3.8-84-24.2Zm1.3 27.6-.2 3.9-83.9-24.2Zm-1.3 25.7-.1 3.8-84-24.2Zm0 25.1-.1 3.9-84-24.3Z" transform="matrix(-1.001 0 0 1 2290.7 7.8)"/><path fill="#9E9E9E" d="m2142.7 215-83.5 20.9.7 137.6h-1.4l-.7-138.1v-.6l.5-.1 84-21 .2.7Zm-84 21 .5-.1v-.5h-.7Z"/><path fill="#EB99A1" d="M450.5 440h317.6a11.5 11.5 0 0 1 0 23H450.5a11.5 11.5 0 0 1 0-23Zm306.1-22.9 68.8 34.4-68.8 34.4Z"/><path fill="#EB99A1" fill-rule="evenodd" d="M1771 446c0-29.3 24-53 53.5-53a53.3 53.3 0 0 1 53.5 53c0 29.3-24 53-53.5 53a53.3 53.3 0 0 1-53.5-53Z"/><text fill="#F0F0F0" font-family="Arial,Arial_MSFontService,sans-serif" font-size="46" font-weight="400" transform="translate(1799.5 464)">80</text><path fill="#DA4453" fill-rule="evenodd" d="M1771 323a54 54 0 1 1 108 0 54 54 0 0 1-108 0Z"/><text fill="#F0F0F0" font-family="Arial,Arial_MSFontService,sans-serif" font-size="46" font-weight="400" transform="translate(1786.9 341)">443</text><path fill="#7F7F7F" fill-rule="evenodd" d="M1769 198a54 54 0 1 1 108 0 54 54 0 0 1-108 0Z"/><text fill="#F0F0F0" font-family="Arial,Arial_MSFontService,sans-serif" font-size="46" font-weight="400" transform="translate(1798.2 216)">22</text><path fill="#EB99A1" fill-rule="evenodd" d="M515 428.5c0-6.9 5.6-12.5 12.5-12.5h153c6.9 0 12.5 5.6 12.5 12.5v50c0 6.9-5.6 12.5-12.5 12.5h-153c-6.9 0-12.5-5.6-12.5-12.5Z"/><text fill="#FFF" font-family="Arial,Arial_MSFontService,sans-serif" font-size="41" font-weight="400" transform="translate(550.2 468)">HTTP</text><path fill="#DA4453" d="M450.5 313h317.6a11.5 11.5 0 0 1 0 23H450.5a11.5 11.5 0 0 1 0-23Zm306.1-22.9 68.8 34.4-68.8 34.4Z"/><path fill="#DA4453" fill-rule="evenodd" d="M515 300.7c0-7 5.7-12.7 12.7-12.7h152.6c7 0 12.7 5.7 12.7 12.7v50.6c0 7-5.7 12.7-12.7 12.7H527.7c-7 0-12.7-5.7-12.7-12.7Z"/><text fill="#FFF" font-family="Arial,Arial_MSFontService,sans-serif" font-size="41" font-weight="400" transform="translate(536.5 341)">HTTPS</text><path fill="#00A1E5" d="M450.5 190h317.6a11.5 11.5 0 0 1 0 23H450.5a11.5 11.5 0 0 1 0-23Zm306.1-22.9 68.8 34.4-68.8 34.4Z"/><path fill="#00A1E5" fill-rule="evenodd" d="M515 178.5c0-6.9 5.6-12.5 12.5-12.5h153c6.9 0 12.5 5.6 12.5 12.5v50c0 6.9-5.6 12.5-12.5 12.5h-153c-6.9 0-12.5-5.6-12.5-12.5Z"/><text fill="#FFF" font-family="Arial,Arial_MSFontService,sans-serif" font-size="41" font-weight="400" transform="translate(561.7 218)">SSH</text><text fill="#DA4453" font-family="Arial,Arial_MSFontService,sans-serif" font-size="64" font-weight="400" transform="translate(2565.5 82)">Services</text><path fill="#7F7F7F" fill-rule="evenodd" d="M2259 194.5c0-6.9 5.6-12.5 12.5-12.5h154c6.9 0 12.5 5.6 12.5 12.5v50c0 6.9-5.6 12.5-12.5 12.5h-154c-6.9 0-12.5-5.6-12.5-12.5Z"/><text fill="#F0F0F0" font-family="Arial,Arial_MSFontService,sans-serif" font-size="41" font-weight="400" transform="translate(2306 235)">SSH</text><path fill="#DA4453" d="M2799 316.6c9.8 0 17.9 8 17.9 18v160.2c0 9.9-8 18-18 18h-216.5c-9.9 0-18-8.1-18-18V334.6c0-10 8.1-18 18-18Z"/><g clip-path="url(#i)" transform="translate(-202 -537)"><path fill="none" stroke="url(#j)" stroke-width="8.4" d="M26.4 6.5c-10 0-18 8-18 18v159.4c0 10 8 18 18 18h216.5c10 0 18-8 18-18V24.5c0-10-8-18-18-18Z" transform="matrix(1 0 0 1.004 2758 847)"/></g><path fill="#40363A" d="M2744.1 343.3a12.8 12.8 0 1 1-25.6 0 12.8 12.8 0 0 1 25.6 0Zm28.5 0a12.8 12.8 0 1 1-25.6 0 12.8 12.8 0 0 1 25.6 0Zm28.4 0a12.8 12.8 0 1 1-25.5 0 12.8 12.8 0 0 1 25.6 0Z"/><path fill="#120C0C" stroke="url(#k)" stroke-width="4.4" d="M240.9 59.7c7 0 12.7 5.7 12.7 12.7v109.2c0 7-5.7 12.7-12.7 12.7h-213c-7 0-12.7-5.7-12.7-12.7V72.4c0-7 5.7-12.7 12.7-12.7Z" transform="matrix(1 0 0 1.004 2556 310)"/><text
     fill="#d9d8dc"
     font-family="Arial, Arial_MSFontService, sans-serif"
     font-size="41.029px"
     font-weight="400"
     id="text49"
     x="2592.0557"
     y="411.07922"
     style="stroke-width:0.82058">nginx</text><text
     fill="#d9d8dc"
     font-family="Arial, Arial_MSFontService, sans-serif"
     font-size="30.3615px"
     font-weight="400"
     id="text51"
     x="2706.2722"
     y="411.07922"
     style="stroke-width:0.82058">or</text><text
     fill="#d9d8dc"
     font-family="Arial, Arial_MSFontService, sans-serif"
     font-size="41.029px"
     font-weight="400"
     id="text49-4"
     x="2623.4199"
     y="449.47498"
     style="stroke-width:0.82058">caddy</text><text
     fill="#d9d8dc"
     font-family="Arial, Arial_MSFontService, sans-serif"
     font-size="30.3615px"
     font-weight="400"
     id="text51-8"
     x="2738.0923"
     y="449.47498"
     style="stroke-width:0.82058">or</text><text
     fill="#d9d8dc"
     font-family="Arial, Arial_MSFontService, sans-serif"
     font-size="41.029px"
     font-weight="400"
     id="text52"
     x="2654.0864"
     y="485.75198"
     style="stroke-width:0.82058">apache</text><path fill="#DA4453" fill-rule="evenodd" d="M2259 344.7c0-7 5.7-12.7 12.7-12.7h153.6c7 0 12.7 5.7 12.7 12.7v50.6c0 7-5.7 12.7-12.7 12.7h-153.6c-7 0-12.7-5.7-12.7-12.7Z"/><text fill="#FFF" font-family="Arial,Arial_MSFontService,sans-serif" font-size="41" font-weight="400" transform="translate(2280.8 385)">HTTPS</text><path fill="#EB99A1" d="M2228.5 456h255a11.5 11.5 0 1 1 0 23h-255a11.5 11.5 0 1 1 0-23Zm243.6-11.4 45.8 22.9-45.8 23Z"/><path fill="#EB99A1" fill-rule="evenodd" d="M2263 443.5c0-6.9 5.6-12.5 12.5-12.5h153c6.9 0 12.5 5.6 12.5 12.5v50c0 6.9-5.6 12.5-12.5 12.5h-153c-6.9 0-12.5-5.6-12.5-12.5Z"/><text fill="#FFF" font-family="Arial,Arial_MSFontService,sans-serif" font-size="41" font-weight="400" transform="translate(2298.2 484)">HTTP</text><text fill="#DA4453" font-family="Arial,Arial_MSFontService,sans-serif" font-size="64" font-weight="400" transform="translate(1932.6 82)">Server</text><text fill="#DA4453" font-family="Arial,Arial_MSFontService,sans-serif" font-size="64" font-weight="400" transform="translate(39 82)">Your</text><text fill="#DA4453" font-family="Arial,Arial_MSFontService,sans-serif" font-size="64" font-weight="400" transform="translate(186 82)">Laptop</text><text fill="#D9D8DC" font-family="Arial,Arial_MSFontService,sans-serif" font-size="50" font-weight="400" transform="translate(2618.4 249)">SSHD</text><path fill="url(#l)" d="M-25.3 115c-13.7 1.8-13.8 17.7-19.5 27.4-4.7 11.8-5.4 9.7-5.3 20.5.2 54.8-.3 109.6.3 164.3 4.5 14.8 21.5 8.8 33 10 98.7-.1 197.6.4 296.3-.2 14.8-4.5 8.8-21.5 10-33V158c-4.2-12.5-10.3-24.8-15.2-37.2-8.8-9.8-23.3-4.4-35-5.8H-25.3Z" transform="matrix(1.005 0 0 1 966.5 64.3)"/><path fill="url(#m)" d="M255 115.2c-5.7.1-11.5.9-16.8.2H-26.4c-13.7 1.9-13.8 17.8-19.6 27.5-3 7.8-4.4 9.5-5 13h338.5c-4.2-11.7-9.7-23-14.4-34.6-4.8-5.4-11.3-6.2-18.1-6Z" transform="matrix(1.005 0 0 1 966.5 64.3)"/><path fill-rule="evenodd" stroke="#FFF" stroke-linecap="round" stroke-opacity=".6" stroke-width="3.8" d="M-50.2 273h339.9Zm29.8.1v63.5Zm110.7 0v63.5Z" transform="matrix(1.005 0 0 1 966.5 64.3)"/><path fill="none" stroke="#FFF" stroke-opacity=".6" stroke-width="3.9" d="M35.6 210v63.5M150.5 210v63.5m111.2-64.2v63.5m-55.9-.4v63.4M-50.7 210.1H290" transform="matrix(1.005 0 0 1 966.5 64.3)"/><path fill="none" stroke="#FFF" stroke-linecap="round" stroke-opacity=".6" stroke-width="3.8" d="M-50.6 156.8h339.8Z" transform="matrix(1.005 0 0 1 966.5 64.3)"/><path fill="none" stroke="#FFF" stroke-opacity=".6" stroke-width="3.5" d="M90 158.3v53.3" transform="matrix(1.005 0 0 1 966.5 64.3)"/><path fill="none" stroke="#FFF" stroke-opacity=".6" stroke-width="3.6" d="M-20.4 155.4v56.1m226-57.2v56.1" transform="matrix(1.005 0 0 1 966.5 64.3)"/><g clip-path="url(#n)" transform="translate(-202 -537)"><use xlink:href="#j" width="100%" height="100%" transform="translate(1313 754)"/></g><g clip-path="url(#o)" transform="translate(-202 -537)"><use xlink:href="#l" width="100%" height="100%" transform="translate(1317 761)"/></g><g clip-path="url(#p)" transform="translate(-202 -537)"><use xlink:href="#n" width="100%" height="100%" transform="translate(1319 794)"/></g><g clip-path="url(#q)" transform="translate(-202 -537)"><use xlink:href="#p" width="100%" height="100%" transform="translate(1416 801)"/></g><g clip-path="url(#r)" transform="translate(-202 -537)"><use xlink:href="#r" width="100%" height="100%" transform="translate(1413 795)"/></g><g clip-path="url(#s)" transform="translate(-202 -537)"><use xlink:href="#t" width="100%" height="100%" transform="translate(1441 869)"/></g><g clip-path="url(#t)" transform="translate(-202 -537)"><use xlink:href="#v" width="100%" height="100%" transform="translate(1394 860)"/></g><g clip-path="url(#u)" transform="translate(-202 -537)"><use xlink:href="#x" width="100%" height="100%" transform="translate(1400 857)"/></g><g clip-path="url(#v)" transform="translate(-202 -537)"><use xlink:href="#z" width="100%" height="100%" transform="translate(1438 862)"/></g><g clip-path="url(#w)" transform="translate(-202 -537)"><use xlink:href="#B" width="100%" height="100%" transform="translate(1359 824)"/></g><g clip-path="url(#x)" transform="translate(-202 -537)"><use xlink:href="#D" width="100%" height="100%" transform="translate(1352 759)"/></g><g clip-path="url(#y)" transform="translate(-202 -537)"><use xlink:href="#F" width="100%" height="100%" transform="translate(1350 753)"/></g><g clip-path="url(#z)" transform="translate(-202 -537)"><use xlink:href="#H" width="100%" height="100%" transform="translate(1358 816)"/></g><g clip-path="url(#A)" transform="translate(-202 -537)"><use xlink:href="#J" width="100%" height="100%" transform="translate(1321 799)"/></g><g clip-path="url(#B)" transform="translate(-202 -537)"><use xlink:href="#L" width="100%" height="100%" transform="translate(1379 788)"/></g><g clip-path="url(#C)" transform="translate(-202 -537)"><use xlink:href="#N" width="100%" height="100%" transform="translate(1381 794)"/></g><g clip-path="url(#D)" transform="translate(-202 -537)"><use xlink:href="#P" width="100%" height="100%" transform="translate(1439 821)"/></g><g clip-path="url(#E)" transform="translate(-202 -537)"><use xlink:href="#R" width="100%" height="100%" transform="translate(1398 827)"/></g><g clip-path="url(#F)" transform="translate(-202 -537)"><use xlink:href="#T" width="100%" height="100%" transform="translate(1399 822)"/></g><g clip-path="url(#G)" transform="translate(-202 -537)"><use xlink:href="#V" width="100%" height="100%" transform="translate(1376 882)"/></g><g clip-path="url(#H)" transform="translate(-202 -537)"><use xlink:href="#X" width="100%" height="100%" transform="translate(1374 875)"/></g><g clip-path="url(#I)" transform="translate(-202 -537)"><use xlink:href="#Z" width="100%" height="100%" transform="translate(1376 873)"/></g><g clip-path="url(#J)" transform="translate(-202 -537)"><use xlink:href="#ab" width="100%" height="100%" transform="translate(1376 877)"/></g><g clip-path="url(#K)" transform="translate(-202 -537)"><use xlink:href="#ad" width="100%" height="100%" transform="translate(1410 846)"/></g><g clip-path="url(#L)" transform="translate(-202 -537)"><use xlink:href="#af" width="100%" height="100%" transform="translate(1449 792)"/></g><g clip-path="url(#M)" transform="translate(-202 -537)"><use xlink:href="#ah" width="100%" height="100%" transform="translate(1449 788)"/></g><g clip-path="url(#N)" transform="translate(-202 -537)"><use xlink:href="#aj" width="100%" height="100%" transform="translate(1409 838)"/></g><g clip-path="url(#O)" transform="translate(-202 -537)"><use xlink:href="#al" width="100%" height="100%" transform="translate(1436 825)"/></g><text fill="#DA4453" font-family="Arial,Arial_MSFontService,sans-serif" font-size="64" font-weight="400" transform="translate(878 82)">Smart</text><text fill="#DA4453" font-family="Arial,Arial_MSFontService,sans-serif" font-size="64" font-weight="400" transform="translate(1066.5 82)">Firewall</text><text fill="#DA4453" font-family="Arial,Arial_MSFontService,sans-serif" font-size="41" font-weight="400" transform="translate(846 474)">Inspect packets</text><text fill="#D9D8DC" font-family="Arial,Arial_MSFontService,sans-serif" font-size="41" font-weight="400" transform="translate(1132.5 474)">,</text><text fill="#D9D8DC" font-family="Arial,Arial_MSFontService,sans-serif" font-size="41" font-weight="400" transform="translate(1155.5 474)">only allow</text><text fill="#D9D8DC" font-family="Arial,Arial_MSFontService,sans-serif" font-size="41" font-weight="400" transform="translate(884 524)">„normal internet traffic“</text><path fill="#EB99A1" d="M1358.5 440h317.6a11.5 11.5 0 1 1 0 23h-317.6a11.5 11.5 0 1 1 0-23Zm306.1-22.9 68.8 34.4-68.8 34.4Z"/><path fill="#EB99A1" fill-rule="evenodd" d="M1423 428.5c0-6.9 5.6-12.5 12.5-12.5h154c6.9 0 12.5 5.6 12.5 12.5v50c0 6.9-5.6 12.5-12.5 12.5h-154c-6.9 0-12.5-5.6-12.5-12.5Z"/><text fill="#FFF" font-family="Arial,Arial_MSFontService,sans-serif" font-size="41" font-weight="400" transform="translate(1458.4 468)">HTTP</text><path fill="#DA4453" d="M1358.5 313h317.6a11.5 11.5 0 1 1 0 23h-317.6a11.5 11.5 0 1 1 0-23Zm306.1-22.9 68.8 34.4-68.8 34.4Z"/><path fill="#DA4453" fill-rule="evenodd" d="M1423 300.7c0-7 5.7-12.7 12.7-12.7h153.6c7 0 12.7 5.7 12.7 12.7v50.6c0 7-5.7 12.7-12.7 12.7h-153.6c-7 0-12.7-5.7-12.7-12.7Z"/><text fill="#FFF" font-family="Arial,Arial_MSFontService,sans-serif" font-size="41" font-weight="400" transform="translate(1444.7 341)">HTTPS</text><path fill="#7F7F7F" d="M1358.5 190a11.5 11.5 0 1 1 0 23 11.5 11.5 0 1 1 0-23Zm45.9 0a11.5 11.5 0 1 1 0 23 11.5 11.5 0 1 1 0-23Zm45.8 0a11.5 11.5 0 0 1 0 23 11.5 11.5 0 1 1 0-23Zm45.9 0a11.5 11.5 0 1 1 0 23 11.5 11.5 0 1 1 0-23Zm45.8 0a11.5 11.5 0 1 1 0 23 11.5 11.5 0 1 1 0-23Zm45.9 0a11.5 11.5 0 1 1 0 23 11.5 11.5 0 1 1 0-23Zm45.8 0a11.5 11.5 0 1 1 0 23 11.5 11.5 0 1 1 0-23Zm31-22.9 68.8 34.4-68.8 34.4Z"/><path fill="#7F7F7F" fill-rule="evenodd" d="M1423 178.5c0-6.9 5.6-12.5 12.5-12.5h154c6.9 0 12.5 5.6 12.5 12.5v50c0 6.9-5.6 12.5-12.5 12.5h-154c-6.9 0-12.5-5.6-12.5-12.5Z"/><text fill="#F0F0F0" font-family="Arial,Arial_MSFontService,sans-serif" font-size="41" font-weight="400" transform="translate(1469.9 218)">SSH</text><path fill-opacity=".41" fill-rule="evenodd" d="M1148.94 236c-9.59 12.57-13.65 28.6-12.43 44.25.91 7.65-3.16 14.77-6.06 21.6-5.34 10.19-10.17 21.3-8.71 33.08-.42 6.78-3.44-.06-3.12-3.47-1.45-9.6-2.07-19.54-.1-29.05-1-9.24-3.34-19.27-11-25.35 2.27 10.98 5.23 23.36-.26 33.84-1.96 3.52-6.37 4.48-7.3 8.7-9.23 16.14-9.93 36.27-2.9 53.36 1.45 3.9 3.36 7.6 5 11.42-5.14-2.93-10.8-4.92-15.77-8.13 6.9 20.13 20 39.93 40.69 47.76 8.13 3.46 17 4.1 25.6 5.46 18.84 5.87 42.22 2.02 54.65-14.34 7.3-9.46 9.33-22.23 6.84-33.76-3.29 6.64-8.99 12.02-16.35 13.72 1.7-8.52-.88-17.04-5.3-24.34-4.76-7.77-5.88-17.6-2.08-26 5.77-12.61 10.13-27.88 3.4-41-2.07-6.06-3.53-2.34-4.58 1.95-4.4 13.48-13.26 24.94-23.3 34.78.69-13.76 5.5-26.77 7.55-40.28 1.16-6.89-.18-13.8-1.62-20.46-.99-7.5-8.82-11.34-12.12-17.75-5.88-8.54-7.84-19.15-8.19-29.33l-2.53 3.35z"/><path fill="url(#P)" fill-rule="evenodd" stroke="#ff0" stroke-opacity=".5" stroke-width=".42" d="M26.44 51.78c3.77 11.17 9.75 17.1 20.47 17.77 11.8 3.78 22.74-3.95 19.64-16.08-1.41 2.6-2.32 4-4.74 4.74.96-6.71-5.2-7.84-2.2-15.06 2.09-4.46 3.33-9.93-.34-14.4-1.52 5.09-3.38 8.47-7.1 12.2.39-6.21 3.66-11.23 1.68-17.1.28-3.95-6.2-3.84-6.26-15.9-4.12 5.18-5.87 9.19-5.25 17.08-1.52 6.38-5.24 8.7-4.57 15.58-.56-3.84-.95-7.17-.17-9.99-.45-3.5-.9-6.49-4.4-8.97 1.08 4.34 2.32 10.89-1.35 12.52-1.01 2.1-6.1 9.26-.5 20.48-1.64-.96-3.28-1.24-4.91-2.87z" filter="url(#Q)" transform="matrix(3.274 0 0 3.266 1026.34 203.8)"/><path fill="url(#R)" fill-rule="evenodd" d="M46.36 10.37a19.86 19.86 0 0 0-3.8 13.55c.28 2.34-.96 4.52-1.85 6.61-1.63 3.12-3.1 6.53-2.66 10.13-.12 2.07-1.05-.02-.95-1.06-.44-2.94-.63-5.99-.03-8.9-.3-2.83-1.02-5.9-3.36-7.76.7 3.36 1.6 7.15-.08 10.36-.6 1.08-1.94 1.37-2.22 2.67a18.88 18.88 0 0 0-.9 16.33c.45 1.2 1.03 2.33 1.54 3.5-1.57-.9-3.3-1.5-4.82-2.49 2.1 6.16 6.1 12.23 12.43 14.63 2.48 1.05 5.19 1.25 7.81 1.67 5.76 1.8 12.9.61 16.7-4.4 2.22-2.9 2.84-6.8 2.09-10.33a7.63 7.63 0 0 1-5 4.2c.52-2.6-.27-5.22-1.62-7.45a8.6 8.6 0 0 1-.63-7.97c1.76-3.86 3.09-8.53 1.04-12.55-.64-1.85-1.08-.71-1.4.6-1.35 4.13-4.06 7.64-7.12 10.65.21-4.21 1.68-8.2 2.3-12.33.36-2.11-.05-4.23-.5-6.27-.3-2.3-2.68-3.47-3.7-5.43-1.79-2.62-2.39-5.86-2.5-8.98-.25.34-.5.68-.77 1.02z" filter="url(#S)" transform="matrix(3.274 0 0 3.266 1026.34 203.8)"/><path fill="url(#T)" fill-rule="evenodd" stroke="#ff0" stroke-opacity=".5" stroke-width=".42" d="M45.73 67.86c-8.97-9.48-10.5-16.08-4.57-22.35 6.66-11.84 5.02-19.29.17-26.4 4.57 15.74-5.42 25.9-8.63 30.47-1.92-5.93-.28-8.47 2.37-15.74-5.2 5.64-8.35 12.46-6.43 18.95 3.5 9.76 11.73 11.9 17.09 15.07z" filter="url(#U)" transform="matrix(3.274 0 0 3.266 1026.34 203.8)"/><path fill="gold" fill-rule="evenodd" stroke="#ff0" stroke-opacity=".5" stroke-width=".42" d="M56.62 32.04c-1.2-3.5-.22-4.24.83-5.77 1.08-.42.75-1.9 1.34-5.18.9 3.66 3.31 5.33-2.17 10.95z" filter="url(#V)" transform="matrix(3.274 0 0 3.266 1026.34 203.8)"/><path fill="url(#W)" fill-rule="evenodd" d="M57.97 20.51c-.37 1.56-.2 3.28-.88 4.73a4.84 4.84 0 0 0-1.59 5.4c.22 1.6.72 1.88 1.61.4 1.9-1.95 3.68-4.75 2.6-7.55-.49-1.43-.92-2.89-1.46-4.3l-.28 1.32z" filter="url(#X)" transform="matrix(3.274 0 0 3.266 1026.34 203.8)"/><path fill="gold" fill-rule="evenodd" stroke="#ff0" stroke-opacity=".5" stroke-width=".42" d="M64.35 53.47c3.1-3 2.48-4.29 2.2-6.43-.9-1.02.22-2.37 1.35-6.1-2.88 3.33-6.26 3.79-3.55 12.53z" filter="url(#Y)" transform="matrix(3.274 0 0 3.266 1026.34 203.8)"/><path fill="url(#Z)" fill-rule="evenodd" stroke="#ff0" stroke-opacity=".5" stroke-width=".42" d="M49.8 67.86c3.49-1.98 4.45-8.18 4.9-15.07.85-6.66 2.54-13.31 13.7-14.38-4.56 3.66-8.29 8.18-6.6 16.58-.44 12.25-9.53 11.8-12 12.87z" filter="url(#aa)" transform="matrix(3.274 0 0 3.266 1026.34 203.8)"/><path fill="url(#ab)" fill-rule="evenodd" d="M67.12 37.43c-4.76.68-9.67 3.54-11.07 8.4-2.24 6.08-1 13-4.06 18.83-1.17.5-.88 2.67.55 2.24 4.2-.76 8.2-3.68 9.26-7.96 1.03-2.98.45-6.13.34-9.19.14-4.43 2.7-8.43 6.07-11.16.6-.85-.39-1.14-1.09-1.16z" filter="url(#ac)" transform="matrix(3.274 0 0 3.266 1026.34 203.8)"/><path fill="url(#ad)" fill-rule="evenodd" d="M67.18 39.76c-1.92 2.03-4.7 3.93-4.64 7.05-.14 2.24.66 4.37 1.15 6.52 1.67-1.59 3.56-3.66 2.95-6.17 0-1.1-.83-2.07-.18-3.14.63-1.7 1.28-3.4 1.72-5.17l-1 .9z" filter="url(#ae)" transform="matrix(3.274 0 0 3.266 1026.34 203.8)"/><path fill="url(#af)" fill-rule="evenodd" stroke="#ff0" stroke-opacity=".5" stroke-width=".42" d="M43.7 63.29c-.45-5.42-1.07-9.31 5.75-14.22C61.02 41 55.32 36.32 48.1 27.9c2.14 8.35-1.3 15-4.23 19.47-1.92 2.76-8.58 8.4-.17 15.9z" filter="url(#ag)" transform="matrix(3.274 0 0 3.266 1026.34 203.8)"/><path fill="gold" fill-rule="evenodd" stroke="#ff0" stroke-opacity=".5" stroke-width=".42" d="M39.29 23.56c3.12-3.6 2.32-5.08 1.8-7.56-1.08-1.14.03-2.75.92-7.12-2.84 3.98-6.51 4.64-2.72 14.68z" filter="url(#ah)" transform="matrix(3.274 0 0 3.266 1026.34 203.8)"/><path fill="url(#ai)" fill-rule="evenodd" d="M41.26 8.11c-1.82 2.38-4.57 4.57-4.43 7.87-.02 2.74 1.06 5.3 1.87 7.87 1.65-1.88 3.4-4.27 2.67-6.92 0-1.05-.73-1.87-.75-2.86.4-2.34 1.23-4.6 1.56-6.96l-.92 1z" filter="url(#aj)" transform="matrix(3.274 0 0 3.266 1026.34 203.8)"/><path fill="url(#ak)" fill-rule="evenodd" d="M47.92 26.51c1.26 5.7-.03 11.7-2.91 16.7-1.8 3.43-5.32 6.06-5.65 10.15-.54 3.57 2.03 6.54 4.4 8.84.98 1.22.15-1.66.28-2.34-.4-3.5.21-7.44 3.04-9.84 3.15-3.07 7.64-5.2 9.15-9.6 1.02-3.89-1.7-7.37-4.07-10.14-1.43-1.73-2.94-3.4-4.44-5.07l.2 1.3z" filter="url(#al)" transform="matrix(3.274 0 0 3.266 1026.34 203.8)"/><path fill="url(#am)" fill-rule="evenodd" d="M42.24 21.46c.12 2.7.89 5.36.54 8.08-.31 6.34-3.1 12.3-6.95 17.27-.7 1.01-1.47 2-2.2 3a14.7 14.7 0 0 1 .78-9.93c.7-1.66 1.19-3.38 1.44-5.17a23.34 23.34 0 0 0-7.18 12.82c-.74 4.53.85 9.18 3.85 12.58 3.78 4.46 9.2 6.96 14.47 9.2-2.98-4.2-7.13-7.98-8.01-13.28-.61-3.08.6-6.16 2.62-8.46a29.07 29.07 0 0 0 4.61-10.78 19.68 19.68 0 0 0-2.5-14.65c-.66-.49-1.86-3.06-1.47-.68z" filter="url(#an)" transform="matrix(3.274 0 0 3.266 1026.34 203.8)"/><path fill="url(#ao)" fill-rule="evenodd" stroke="#ff0" stroke-opacity=".5" stroke-width=".34" d="M21.6 42.3c3.08 9.12 7.96 13.95 16.72 14.5 9.63 3.1 18.57-3.22 16.04-13.12-1.16 2.11-1.9 3.27-3.87 3.86.78-5.48-4.24-6.4-1.8-12.3 1.7-3.64 2.72-8.1-.28-11.75-1.24 4.15-2.76 6.91-5.8 9.95.32-5.07 3-9.17 1.38-13.96.23-3.22-5.07-3.13-5.12-13-3.36 4.25-4.79 7.52-4.28 13.97-1.25 5.2-4.29 7.1-3.74 12.72-.46-3.14-.78-5.85-.13-8.16-.37-2.86-.74-5.3-3.6-7.33.88 3.55 1.9 8.9-1.1 10.23-.83 1.7-4.98 7.56-.42 16.73-1.33-.78-2.67-1.01-4-2.35z" filter="url(#ap)" transform="matrix(-3.274 0 0 3.266 1354.21 240.74)"/><path fill="url(#aq)" fill-rule="evenodd" d="M37.87 8.47a16.22 16.22 0 0 0-3.1 11.07c.23 1.9-.8 3.69-1.52 5.4-1.33 2.55-2.53 5.33-2.17 8.27-.1 1.7-.85-.01-.78-.87-.36-2.4-.51-4.88-.02-7.26-.25-2.31-.83-4.82-2.74-6.34.56 2.74 1.3 5.84-.07 8.46-.49.88-1.59 1.12-1.82 2.18a15.42 15.42 0 0 0-.73 13.34c.37.98.84 1.9 1.26 2.86-1.29-.74-2.7-1.23-3.94-2.04 1.72 5.04 4.99 10 10.15 11.95 2.03.86 4.24 1.02 6.39 1.36 4.7 1.47 10.53.5 13.63-3.58a10.39 10.39 0 0 0 1.7-8.44 6.23 6.23 0 0 1-4.07 3.43c.42-2.13-.22-4.27-1.32-6.09a7.03 7.03 0 0 1-.52-6.5c1.44-3.16 2.52-6.97.85-10.26-.52-1.51-.89-.58-1.15.5-1.1 3.36-3.3 6.23-5.81 8.69.17-3.44 1.37-6.7 1.88-10.07.3-1.73-.04-3.45-.4-5.12-.25-1.88-2.2-2.84-3.02-4.44-1.47-2.14-1.96-4.79-2.05-7.34l-.63.84z" filter="url(#ar)" transform="matrix(-3.274 0 0 3.266 1354.21 240.74)"/><path fill="url(#as)" fill-rule="evenodd" stroke="#ff0" stroke-opacity=".5" stroke-width=".34" d="M37.35 55.42c-7.33-7.74-8.57-13.13-3.73-18.24 5.44-9.68 4.1-15.76.14-21.57 3.73 12.86-4.43 21.15-7.05 24.88-1.57-4.83-.23-6.9 1.93-12.85-4.24 4.6-6.82 10.18-5.25 15.48 2.86 7.97 9.58 9.72 13.96 12.3z" filter="url(#at)" transform="matrix(-3.274 0 0 3.266 1354.21 240.74)"/><path fill="gold" fill-rule="evenodd" stroke="#ff0" stroke-opacity=".5" stroke-width=".34" d="M46.24 26.17c-.98-2.85-.18-3.46.68-4.71.9-.35.62-1.55 1.1-4.24.74 3 2.7 4.36-1.78 8.95z" filter="url(#au)" transform="matrix(-3.274 0 0 3.266 1354.21 240.74)"/><path fill="url(#av)" fill-rule="evenodd" d="M47.35 16.75c-.3 1.28-.17 2.68-.72 3.87a3.95 3.95 0 0 0-1.3 4.4c.18 1.31.59 1.54 1.32.34 1.55-1.6 3-3.89 2.12-6.18-.4-1.17-.75-2.35-1.2-3.5l-.22 1.07z" filter="url(#aw)" transform="matrix(-3.274 0 0 3.266 1354.21 240.74)"/><path fill="gold" fill-rule="evenodd" stroke="#ff0" stroke-opacity=".5" stroke-width=".34" d="M52.56 43.68c2.53-2.45 2.03-3.5 1.8-5.26-.74-.83.18-1.93 1.1-4.98-2.35 2.72-5.11 3.1-2.9 10.24z" filter="url(#ax)" transform="matrix(-3.274 0 0 3.266 1354.21 240.74)"/><path fill="url(#ay)" fill-rule="evenodd" stroke="#ff0" stroke-opacity=".5" stroke-width=".34" d="M40.67 55.42c2.86-1.6 3.64-6.68 4-12.3.7-5.44 2.08-10.87 11.2-11.75-3.73 3-6.77 6.68-5.38 13.55-.37 10-7.8 9.63-9.82 10.5z" filter="url(#az)" transform="matrix(-3.274 0 0 3.266 1354.21 240.74)"/><path fill="url(#aA)" fill-rule="evenodd" d="M54.82 30.58c-3.89.55-7.9 2.89-9.04 6.86-1.83 4.96-.82 10.6-3.32 15.37-.95.41-.71 2.18.46 1.84 3.43-.62 6.7-3.01 7.56-6.51.84-2.43.36-5 .27-7.5.12-3.62 2.22-6.89 4.97-9.12.48-.7-.32-.93-.9-.94z" filter="url(#aB)" transform="matrix(-3.274 0 0 3.266 1354.21 240.74)"/><path fill="url(#aC)" fill-rule="evenodd" d="M54.87 32.47c-1.56 1.66-3.84 3.22-3.78 5.77-.12 1.83.53 3.57.94 5.32 1.36-1.3 2.9-2.99 2.4-5.04 0-.9-.68-1.69-.14-2.57.5-1.39 1.04-2.78 1.4-4.22l-.82.74z" filter="url(#aD)" transform="matrix(-3.274 0 0 3.266 1354.21 240.74)"/><path fill="url(#aE)" fill-rule="evenodd" stroke="#ff0" stroke-opacity=".5" stroke-width=".34" d="M35.7 51.7c-.38-4.43-.88-7.61 4.7-11.62 9.44-6.59 4.79-10.41-1.11-17.28 1.75 6.82-1.06 12.26-3.46 15.9-1.57 2.26-7 6.86-.14 13z" filter="url(#aF)" transform="matrix(-3.274 0 0 3.266 1354.21 240.74)"/><path fill="gold" fill-rule="evenodd" stroke="#ff0" stroke-opacity=".5" stroke-width=".34" d="M32.09 19.24c2.55-2.94 1.9-4.14 1.48-6.17-.89-.93.02-2.25.75-5.82-2.33 3.25-5.33 3.8-2.23 12z" filter="url(#aG)" transform="matrix(-3.274 0 0 3.266 1354.21 240.74)"/><path fill="url(#aH)" fill-rule="evenodd" d="M33.7 6.63c-1.48 1.94-3.73 3.73-3.62 6.42-.01 2.24.87 4.33 1.53 6.43 1.35-1.54 2.78-3.49 2.18-5.65 0-.86-.6-1.53-.61-2.34.33-1.9 1-3.75 1.27-5.68l-.75.82z" filter="url(#aI)" transform="matrix(-3.274 0 0 3.266 1354.21 240.74)"/><path fill="url(#aJ)" fill-rule="evenodd" d="M39.14 21.66c1.03 4.65-.03 9.54-2.38 13.63-1.46 2.8-4.34 4.96-4.61 8.3-.44 2.91 1.66 5.34 3.6 7.22.79 1 .11-1.36.22-1.91-.32-2.87.17-6.08 2.49-8.04 2.57-2.5 6.24-4.24 7.47-7.84.84-3.18-1.39-6.03-3.32-8.28-1.17-1.42-2.4-2.78-3.63-4.15l.16 1.07z" filter="url(#aK)" transform="matrix(-3.274 0 0 3.266 1354.21 240.74)"/><path fill="url(#aL)" fill-rule="evenodd" d="M34.5 17.53c.1 2.2.73 4.38.44 6.6-.25 5.18-2.53 10.05-5.67 14.1-.58.83-1.2 1.63-1.8 2.45a12 12 0 0 1 .64-8.1 17.2 17.2 0 0 0 1.18-4.23c-3 2.74-5.13 6.48-5.87 10.48-.6 3.7.7 7.5 3.15 10.27 3.08 3.64 7.51 5.69 11.81 7.51-2.43-3.42-5.82-6.51-6.54-10.84-.5-2.52.5-5.04 2.14-6.92a23.74 23.74 0 0 0 3.77-8.8c.9-4.06.18-8.45-2.04-11.96-.55-.4-1.53-2.5-1.2-.56z" filter="url(#aM)" transform="matrix(-3.274 0 0 3.266 1354.21 240.74)"/><path fill-rule="evenodd" d="M83.88 810.02A72.86 72.86 0 0 0 11 882.9a72.86 72.86 0 0 0 109.31 63.12 18.46 18.46 0 0 0 18.25 4.03l11.78 11.78a11.2 11.2 0 0 0 2.6 6.81l-2.35 2.35 67.85 67.84 2.65-2.65c2 1.91 4.73 3.12 7.72 3.12a11.18 11.18 0 0 0 8.03-18.9l2.5-2.5-67.8-67.82-2.85 2.82a11.19 11.19 0 0 0-7.06-2.63l-11.38-11.37a18.48 18.48 0 0 0-3.66-18.85 72.89 72.89 0 0 0-62.72-110.03zm0 5.97c5.44.01 10.9.7 16.18 2 25.9 6.02 46.4 29 50.06 55.25 4.12 25.72-8.73 52.82-30.8 66.47-23.2 15-55.44 12.95-76.91-4.25-20.58-15.85-29.96-44.24-23.38-69.28 6.96-28.85 35.18-50.69 64.85-50.2zm61.59 105.88c-.37.6-.73 1.2-1.13 1.78a78.27 78.27 0 0 1-2.46 3.4c-.57.75-1.13 1.5-1.72 2.23a66.8 66.8 0 0 1-2.32 2.62 70.94 70.94 0 0 0 7.63-10.03z" filter="url(#aN)" transform="matrix(.995 0 0 1.016 831.8 -624.55)"/><g transform="matrix(.995 0 0 1.016 831.8 -624.55)"><path fill="url(#aO)" fill-rule="evenodd" d="M763.72 557.65h26.1v16.16h-26.1z" transform="rotate(45)"/><path fill="url(#aP)" fill-rule="evenodd" d="M83.87 815.99c-29.66-.5-57.87 21.35-64.83 50.2-6.57 25.04 2.77 53.43 23.35 69.28 21.47 17.2 53.75 19.23 76.94 4.24 22.07-13.65 34.93-40.74 30.81-66.47-3.66-26.25-24.19-49.24-50.09-55.26a68.06 68.06 0 0 0-16.18-1.99z" opacity=".4"/><path fill="url(#aQ)" fill-rule="evenodd" d="M83.87 810.02A72.87 72.87 0 0 0 11 882.9a72.9 72.9 0 0 0 145.8 0 72.9 72.9 0 0 0-72.92-72.88zm0 5.97c2.31 0 4.61.14 6.86.37 2.25.23 4.46.55 6.64 1 2.18.45 4.32 1.02 6.41 1.67 2.1.65 4.15 1.38 6.15 2.22a66.1 66.1 0 0 1 11.35 6.2 67.26 67.26 0 0 1 9.9 8.15 67.47 67.47 0 0 1 8.19 9.9 66.87 66.87 0 0 1 6.15 11.38c.85 2 1.61 4.02 2.26 6.11a67.43 67.43 0 0 1 2.67 13.09 68.05 68.05 0 0 1 0 13.68c-.22 2.25-.59 4.46-1.03 6.64a66.4 66.4 0 0 1-1.64 6.4 66.63 66.63 0 0 1-12.27 22.66 67.5 67.5 0 0 1-4.33 4.74 67.45 67.45 0 0 1-9.9 8.2 66.87 66.87 0 0 1-5.52 3.33 66.1 66.1 0 0 1-31.89 8.08c-2.3 0-4.57-.1-6.82-.33a67.42 67.42 0 0 1-35.73-14.94 67.5 67.5 0 0 1-12.9-14.23 67.28 67.28 0 0 1-6.2-11.35 66.4 66.4 0 0 1-2.22-6.15 66.53 66.53 0 0 1-1.67-6.41A66.63 66.63 0 0 1 17 882.9a67.32 67.32 0 0 1 1.33-13.5A66.52 66.52 0 0 1 20 863a65.66 65.66 0 0 1 12.27-22.66 66.97 66.97 0 0 1 25.58-19.09c2-.84 4.06-1.57 6.15-2.22a65.8 65.8 0 0 1 6.38-1.67c2.18-.45 4.42-.77 6.67-1 2.25-.23 4.51-.37 6.82-.37z"/><path fill="url(#aR)" fill-rule="evenodd" d="M120.28 945.99c3.3 3.06 7.7 4.97 12.57 4.97a18.58 18.58 0 0 0 18.57-18.58c0-4.78-1.88-9.09-4.86-12.38-.72 1.22-1.43 2.46-2.22 3.64a73.47 73.47 0 0 1-4.19 5.63 73.01 73.01 0 0 1-9.9 9.86 72.84 72.84 0 0 1-5.6 4.19c-1.4.95-2.9 1.82-4.37 2.67z"/><g mask="url(#aS)" transform="matrix(1.186 0 0 1.186 -19.81 -165.12)"><g mask="url(#aT)" opacity=".79"><path fill="#fff" fill-rule="evenodd" d="M84.1 829.08c-25.16 1.24-47.93 22.02-50.63 47.25 12.1 10.75 30.81 16.08 45.25 6.84 8.66-5.61 15.87-14.3 26.69-15.72 12.9-2.42 25.77 3.03 36.15 10.32-2.27-26.84-27.24-49.44-54.19-48.72-1.09 0-2.18-.03-3.28.03z" mask="url(#aU)"/></g></g><g mask="url(#aS)" transform="matrix(1.186 0 0 1.186 -19.81 -165.12)"><g mask="url(#aT)" opacity=".79"><path fill="#fff" fill-rule="evenodd" d="M84.1 829.08c-25.16 1.24-47.93 22.02-50.63 47.25 12.1 10.75 30.81 16.08 45.25 6.84 8.66-5.61 15.87-14.3 26.69-15.72 12.9-2.42 25.77 3.03 36.15 10.32-2.27-26.84-27.24-49.44-54.19-48.72-1.09 0-2.18-.03-3.28.03z" mask="url(#aU)"/></g></g><circle cx="153.8" cy="154.35" r="10.78" fill="url(#aV)" fill-rule="evenodd" transform="translate(2.3 801.68) scale(1.035)"/><circle cx="153.8" cy="154.35" r="10.78" fill="url(#aW)" fill-rule="evenodd" transform="translate(69.62 868.37) scale(1.035)"/><path fill="url(#aX)" fill-rule="evenodd" d="M793.08 550.52h95.93v29.58h-95.93z" transform="rotate(45)"/></g></svg>