<svg width="2851" height="586" xmlns="http://www.w3.org/2000/svg" xmlns:xlink="http://www.w3.org/1999/xlink" xml:space="preserve" overflow="hidden"><defs><clipPath id="clip0"><path d="M2603.49 1460.43C2593.53 1460.43 2585.51 1468.3 2585.51 1478.08L2585.51 1635.13C2585.51 1644.91 2593.53 1652.78 2603.49 1652.78L2820.84 1652.78C2830.8 1652.78 2838.83 1644.91 2838.83 1635.13L2838.83 1478.08C2838.83 1468.3 2830.8 1460.43 2820.84 1460.43Z"/></clipPath><linearGradient x1="132.611" y1="8.41654" x2="132.611" y2="256.951" gradientUnits="userSpaceOnUse" spreadMethod="pad" id="stroke1"><stop offset="0" stop-color="#E8E8E8"/><stop offset="0.165222" stop-color="#E9E9E9" stop-opacity="0"/><stop offset="1" stop-color="#E9E9E9" stop-opacity="0"/></linearGradient><linearGradient x1="132.438" y1="40.8814" x2="132.438" y2="271.373" gradientUnits="userSpaceOnUse" spreadMethod="pad" id="stroke2"><stop offset="0" stop-color="#494949"/><stop offset="1" stop-color="#E8E8E8"/></linearGradient><clipPath id="clip3"><rect x="840" y="1320" width="519" height="290"/></clipPath><clipPath id="clip4"><rect x="840" y="1320" width="519" height="290"/></clipPath><clipPath id="clip5"><rect x="840" y="1320" width="519" height="290"/></clipPath><radialGradient cx="270.08" cy="197.85" r="143.18" gradientUnits="userSpaceOnUse" spreadMethod="pad" id="fill6" gradientTransform="matrix(1.64209 -0.0316973 0.0258505 1.33917 -238.234 21.5261)"><stop offset="0" stop-color="#C74615"/><stop offset="1" stop-color="#6E260B"/></radialGradient><linearGradient x1="-51.124" y1="135.988" x2="288.466" y2="135.988" gradientUnits="userSpaceOnUse" spreadMethod="pad" id="fill7"><stop offset="0" stop-color="#3B1E05"/><stop offset="1" stop-color="#3B1E05" stop-opacity="0"/></linearGradient><linearGradient x1="120.915" y1="224.099" x2="154.204" y2="79.4634" gradientUnits="userSpaceOnUse" spreadMethod="pad" id="fill8"><stop offset="0" stop-color="#DC0000"/><stop offset="1" stop-color="#FFB200"/></linearGradient><linearGradient x1="17.33" y1="36.718" x2="187.134" y2="240.218" gradientUnits="userSpaceOnUse" spreadMethod="pad" id="fill9"><stop offset="0" stop-color="#FFFFFF"/><stop offset="1" stop-color="#FFFFFF" stop-opacity="0"/></linearGradient><linearGradient x1="139.603" y1="217.726" x2="126.965" y2="143.041" gradientUnits="userSpaceOnUse" spreadMethod="pad" id="fill10"><stop offset="0" stop-color="#DC0000"/><stop offset="1" stop-color="#FFB200"/></linearGradient><linearGradient x1="191.357" y1="89.603" x2="205.244" y2="89.603" gradientUnits="userSpaceOnUse" spreadMethod="pad" id="fill11"><stop offset="0" stop-color="#FFFFFF" stop-opacity="0.44928"/><stop offset="1" stop-color="#FFFFFF" stop-opacity="0"/></linearGradient><linearGradient x1="185.357" y1="219.98" x2="222.072" y2="144.79" gradientUnits="userSpaceOnUse" spreadMethod="pad" id="fill12"><stop offset="0" stop-color="#DC0000"/><stop offset="1" stop-color="#FFB200"/></linearGradient><linearGradient x1="284.162" y1="137.524" x2="185.687" y2="223.228" gradientUnits="userSpaceOnUse" spreadMethod="pad" id="fill13"><stop offset="0" stop-color="#FFFFFF"/><stop offset="1" stop-color="#FFFFFF" stop-opacity="0"/></linearGradient><linearGradient x1="216.443" y1="159.265" x2="232.088" y2="159.265" gradientUnits="userSpaceOnUse" spreadMethod="pad" id="fill14"><stop offset="0" stop-color="#FFFFFF" stop-opacity="0.44928"/><stop offset="1" stop-color="#FFFFFF" stop-opacity="0"/></linearGradient><linearGradient x1="151.227" y1="251.962" x2="166.373" y2="139.772" gradientUnits="userSpaceOnUse" spreadMethod="pad" id="fill15"><stop offset="0" stop-color="#DC0000"/><stop offset="1" stop-color="#FFB200"/></linearGradient><linearGradient x1="128.063" y1="53.9938" x2="143.018" y2="53.9938" gradientUnits="userSpaceOnUse" spreadMethod="pad" id="fill16"><stop offset="0" stop-color="#FFFFFF" stop-opacity="0.44928"/><stop offset="1" stop-color="#FFFFFF" stop-opacity="0"/></linearGradient><linearGradient x1="106.604" y1="51.6399" x2="172.567" y2="206.006" gradientUnits="userSpaceOnUse" spreadMethod="pad" id="fill17"><stop offset="0" stop-color="#FFFFFF"/><stop offset="1" stop-color="#FFFFFF" stop-opacity="0"/></linearGradient><linearGradient x1="62.3644" y1="91.4236" x2="114.56" y2="239.781" gradientUnits="userSpaceOnUse" spreadMethod="pad" id="fill18"><stop offset="0" stop-color="#FFFFFF"/><stop offset="1" stop-color="#FFFFFF" stop-opacity="0"/></linearGradient><linearGradient x1="98.7644" y1="183.046" x2="125.955" y2="64.9065" gradientUnits="userSpaceOnUse" spreadMethod="pad" id="fill19"><stop offset="0" stop-color="#DC0000"/><stop offset="1" stop-color="#FFB200"/></linearGradient><linearGradient x1="14.1553" y1="29.9917" x2="152.853" y2="196.213" gradientUnits="userSpaceOnUse" spreadMethod="pad" id="fill20"><stop offset="0" stop-color="#FFFFFF"/><stop offset="1" stop-color="#FFFFFF" stop-opacity="0"/></linearGradient><linearGradient x1="114.029" y1="177.84" x2="103.706" y2="116.838" gradientUnits="userSpaceOnUse" spreadMethod="pad" id="fill21"><stop offset="0" stop-color="#DC0000"/><stop offset="1" stop-color="#FFB200"/></linearGradient><linearGradient x1="156.302" y1="73.1886" x2="167.645" y2="73.1886" gradientUnits="userSpaceOnUse" spreadMethod="pad" id="fill22"><stop offset="0" stop-color="#FFFFFF" stop-opacity="0.44928"/><stop offset="1" stop-color="#FFFFFF" stop-opacity="0"/></linearGradient><linearGradient x1="151.401" y1="179.682" x2="181.391" y2="118.266" gradientUnits="userSpaceOnUse" spreadMethod="pad" id="fill23"><stop offset="0" stop-color="#DC0000"/><stop offset="1" stop-color="#FFB200"/></linearGradient><linearGradient x1="232.106" y1="112.331" x2="151.671" y2="182.335" gradientUnits="userSpaceOnUse" spreadMethod="pad" id="fill24"><stop offset="0" stop-color="#FFFFFF"/><stop offset="1" stop-color="#FFFFFF" stop-opacity="0"/></linearGradient><linearGradient x1="176.793" y1="130.09" x2="189.572" y2="130.09" gradientUnits="userSpaceOnUse" spreadMethod="pad" id="fill25"><stop offset="0" stop-color="#FFFFFF" stop-opacity="0.44928"/><stop offset="1" stop-color="#FFFFFF" stop-opacity="0"/></linearGradient><linearGradient x1="123.524" y1="205.805" x2="135.895" y2="114.167" gradientUnits="userSpaceOnUse" spreadMethod="pad" id="fill26"><stop offset="0" stop-color="#DC0000"/><stop offset="1" stop-color="#FFB200"/></linearGradient><linearGradient x1="104.603" y1="44.1027" x2="116.818" y2="44.1027" gradientUnits="userSpaceOnUse" spreadMethod="pad" id="fill27"><stop offset="0" stop-color="#FFFFFF" stop-opacity="0.44928"/><stop offset="1" stop-color="#FFFFFF" stop-opacity="0"/></linearGradient><linearGradient x1="87.0751" y1="42.18" x2="140.954" y2="168.268" gradientUnits="userSpaceOnUse" spreadMethod="pad" id="fill28"><stop offset="0" stop-color="#FFFFFF"/><stop offset="1" stop-color="#FFFFFF" stop-opacity="0"/></linearGradient><linearGradient x1="50.9399" y1="74.6757" x2="93.5738" y2="195.855" gradientUnits="userSpaceOnUse" spreadMethod="pad" id="fill29"><stop offset="0" stop-color="#FFFFFF"/><stop offset="1" stop-color="#FFFFFF" stop-opacity="0"/></linearGradient></defs><g transform="translate(-21 -1142)"><path d="M2252.5 1351.04 2507.56 1351.04C2513.89 1351.04 2519.02 1356.17 2519.02 1362.5 2519.02 1368.83 2513.89 1373.96 2507.56 1373.96L2252.5 1373.96C2246.17 1373.96 2241.04 1368.83 2241.04 1362.5 2241.04 1356.17 2246.17 1351.04 2252.5 1351.04ZM2496.1 1339.58 2541.94 1362.5 2496.1 1385.42Z" fill="#00A1E5"/><path d="M2250.5 1501.04 2250.52 1501.04C2256.85 1501.04 2261.98 1506.17 2261.98 1512.5 2261.98 1518.83 2256.85 1523.96 2250.52 1523.96L2250.5 1523.96C2244.17 1523.96 2239.04 1518.83 2239.04 1512.5 2239.04 1506.17 2244.17 1501.04 2250.5 1501.04ZM2296.36 1501.04 2296.38 1501.04C2302.71 1501.04 2307.84 1506.17 2307.84 1512.5 2307.84 1518.83 2302.71 1523.96 2296.38 1523.96L2296.36 1523.96C2290.03 1523.96 2284.9 1518.83 2284.9 1512.5 2284.9 1506.17 2290.03 1501.04 2296.36 1501.04ZM2342.21 1501.04 2342.24 1501.04C2348.56 1501.04 2353.69 1506.17 2353.69 1512.5 2353.69 1518.83 2348.56 1523.96 2342.24 1523.96L2342.21 1523.96C2335.88 1523.96 2330.75 1518.83 2330.75 1512.5 2330.75 1506.17 2335.88 1501.04 2342.21 1501.04ZM2388.07 1501.04 2388.09 1501.04C2394.42 1501.04 2399.55 1506.17 2399.55 1512.5 2399.55 1518.83 2394.42 1523.96 2388.09 1523.96L2388.07 1523.96C2381.74 1523.96 2376.61 1518.83 2376.61 1512.5 2376.61 1506.17 2381.74 1501.04 2388.07 1501.04ZM2433.93 1501.04 2433.95 1501.04C2440.28 1501.04 2445.41 1506.17 2445.41 1512.5 2445.41 1518.83 2440.28 1523.96 2433.95 1523.96L2433.93 1523.96C2427.6 1523.96 2422.47 1518.83 2422.47 1512.5 2422.47 1506.17 2427.6 1501.04 2433.93 1501.04ZM2479.78 1501.04 2479.8 1501.04C2486.13 1501.04 2491.26 1506.17 2491.26 1512.5 2491.26 1518.83 2486.13 1523.96 2479.8 1523.96L2479.78 1523.96C2473.45 1523.96 2468.32 1518.83 2468.32 1512.5 2468.32 1506.17 2473.45 1501.04 2479.78 1501.04ZM2494.1 1489.58 2539.94 1512.5 2494.1 1535.42Z" fill="#7F7F7F"/><g><g><g><path d="M38.7667 19.6961 232.599 131.606 232.599 265.896 38.7667 153.988Z" fill-rule="evenodd" transform="matrix(1 0 0 1.00264 137.09 1281.92)"/><path d="M232.599 265.896 116.3 333.043-77.5331 221.133 38.7667 153.988Z" fill="#F2F2F2" fill-rule="evenodd" transform="matrix(1 0 0 1.00264 137.09 1281.92)"/><path d="M-77.5331 221.133-77.5331 230.086 116.3 341.995 116.3 333.043Z" fill="#E6E6E6" fill-rule="evenodd" transform="matrix(1 0 0 1.00264 137.09 1281.92)"/><path d="M116.3 341.995 232.599 274.851 232.599 265.896 116.3 333.043Z" fill="#CCCCCC" fill-rule="evenodd" transform="matrix(1 0 0 1.00264 137.09 1281.92)"/><path d="M232.599 131.606 240.353 127.129 46.52 15.2197 38.7667 19.6961Z" fill="#E6E6E6" fill-rule="evenodd" transform="matrix(1 0 0 1.00264 137.09 1281.92)"/><path d="M38.7667 162.94 217.093 265.896 155.066 301.707-23.2599 198.751 38.7667 162.94Z" fill="#B3B3B3" fill-rule="evenodd" transform="matrix(1 0 0 1.00264 137.09 1281.92)"/><path d="M38.7667 243.515 77.5331 265.896 46.52 283.803 7.75331 261.422Z" fill="#B3B3B3" fill-rule="evenodd" transform="matrix(1 0 0 1.00264 137.09 1281.92)"/><path d="M46.52 33.1251 224.846 136.082 224.846 252.468 46.52 149.511Z" fill="#00A1E5" fill-rule="evenodd" transform="matrix(1 0 0 1.00264 137.09 1281.92)"/><path d="M232.599 131.606 240.353 127.129 240.353 270.374 232.599 274.851Z" fill="#CCCCCC" fill-rule="evenodd" transform="matrix(1 0 0 1.00264 137.09 1281.92)"/></g></g></g><g><g><g><path d="M369.669 147.855C372.8 152.99 371.798 398.037 367.727 407.681 364.533 415.321 261.079 501.304 255.693 503.558 185.742 503.12 138.587 477.632 130.759 464.168 127.753 447.26 130.32 186.556 133.138 181.108 135.643 176.349 267.967 128.943 272.602 127.815 276.797 126.876 366.099 142.156 369.669 147.855Z" fill="#C7C7C7" transform="matrix(-1.00098 0 0 1 2311.69 1149.82)"/><path d="M364.596 152.927 361.34 154.305 358.083 155.746 354.827 157.186 351.508 158.751 348.189 160.317 344.87 161.945 341.551 163.574 338.169 165.264 334.787 166.955 331.405 168.709 327.961 170.462 324.579 172.278 321.135 174.094 317.691 175.91 310.74 179.668 303.726 183.425 296.712 187.183 289.635 191.003 282.496 194.76 275.357 198.518 268.218 202.212 264.648 204.029 261.079 205.845 257.447 207.598 253.877 209.352 252.186 208.976 250.433 208.537 246.926 207.723 243.294 206.847 239.599 206.033 235.841 205.156 232.021 204.279 228.201 203.402 224.256 202.526 220.373 201.649 216.428 200.709 208.475 198.956 200.522 197.203 196.514 196.326 192.568 195.449 188.686 194.635 184.803 193.821 180.983 193.007 177.226 192.193 173.468 191.379 169.836 190.627 166.266 189.876 164.513 189.562 162.759 189.187 161.069 188.874 159.378 188.498 157.687 188.185 156.059 187.872 154.43 187.558 152.865 187.183 151.299 186.932 149.796 186.619 148.293 186.306 146.79 186.055 145.35 185.805 143.972 185.492 142.595 185.241 141.279 185.053 139.964 184.803 138.712 184.553 141.968 185.554 145.225 186.556 148.544 187.558 151.925 188.498 155.37 189.5 158.814 190.439 162.384 191.441 165.891 192.38 169.46 193.382 173.092 194.322 180.357 196.263 187.684 198.142 195.073 200.083 202.463 202.025 209.79 203.903 217.054 205.845 220.686 206.784 224.256 207.786 227.826 208.725 231.333 209.727 234.777 210.667 238.221 211.669 241.603 212.608 244.922 213.61 248.178 214.612 251.435 215.614 251.497 219.371 251.623 223.191 251.685 227.011 251.748 230.957 251.811 234.965 251.936 238.973 251.998 243.043 252.061 247.176 252.124 251.372 252.186 255.568 252.249 259.826 252.249 264.147 252.312 268.468 252.374 272.852 252.437 277.236 252.437 281.682 252.499 286.128 252.499 290.637 252.562 295.146 252.625 299.718 252.687 308.861 252.75 318.067 252.75 327.398 252.813 336.728 252.938 355.453 253 374.24 253.063 383.571 253.126 392.839 253.188 402.045 253.251 411.188 253.314 415.76 253.314 420.269 253.376 424.778 253.439 429.224 253.439 433.67 253.501 438.117 253.564 442.438 253.627 446.821 253.627 451.08 253.689 455.338 253.752 459.534 253.814 463.73 253.877 467.863 253.94 471.933 254.002 476.004 254.128 479.949 254.19 483.895 254.253 487.777 254.378 491.597 254.441 495.355 254.503 491.535 254.566 487.715 254.566 483.769 254.629 479.824 254.691 475.816 254.754 471.746 254.816 467.612 254.879 463.417 254.942 459.221 255.004 454.962 255.067 450.641 255.192 446.32 255.255 441.937 255.317 437.49 255.38 433.044 255.443 428.535 255.505 424.026 255.631 419.455 255.693 414.883 255.756 410.312 255.944 401.043 256.132 391.712 256.257 382.256 256.445 372.8 256.82 353.825 257.134 334.85 257.321 325.394 257.509 316 257.635 306.669 257.822 297.338 257.885 292.767 258.01 288.195 258.073 283.623 258.136 279.115 258.198 274.668 258.261 270.159 258.323 265.776 258.449 261.392 258.511 257.008 258.574 252.75 258.637 248.491 258.699 244.233 258.762 240.1 258.824 235.967 258.887 231.896 258.95 227.888 259.012 223.88 259.012 219.998 259.075 216.115 259.138 212.357 266.026 208.663 272.852 204.968 279.678 201.398 286.504 197.766 293.268 194.197 299.968 190.564 306.669 186.995 313.37 183.363 319.945 179.73 326.521 176.098 333.034 172.341 339.484 168.583 342.678 166.705 345.809 164.763 349.003 162.822 352.134 160.881 355.265 158.939 358.396 156.935 361.465 154.931Z" stroke="#FFFFFF" stroke-width="0.0626239" stroke-opacity="0.54118" fill="#FFFFFF" fill-opacity="0.54118" transform="matrix(-1.00098 0 0 1 2311.69 1149.82)"/><path d="M151.55 415.071 152.176 415.948 152.802 416.762 153.491 417.576 154.243 418.39 154.994 419.141 155.746 419.893 156.622 420.644 157.436 421.396 158.313 422.147 159.252 422.836 160.192 423.525 161.194 424.214 162.133 424.903 163.198 425.529 164.2 426.155 165.264 426.844 166.392 427.408 167.519 428.034 168.646 428.598 169.773 429.099 170.963 429.662 172.153 430.163 173.343 430.664 174.533 431.165 177.038 432.105 179.543 432.981 182.11 433.733 184.678 434.422 187.308 435.048 189.876 435.612 192.506 436.113 195.073 436.488 197.641 436.864 200.208 437.052 201.524 437.177 202.776 437.24 203.966 437.302 205.218 437.302 206.471 437.302 207.661 437.302 208.851 437.24 210.04 437.177 211.168 437.115 212.357 437.052 213.422 436.927 214.549 436.739 215.614 436.614 216.679 436.426 217.743 436.175 218.745 435.925 219.684 435.674 220.624 435.424 221.563 435.111 222.503 434.797 222.377 434.735 222.315 434.735 222.002 434.61 221.626 434.547 221.187 434.422 220.686 434.296 220.06 434.109 219.434 433.921 218.683 433.733 217.868 433.482 216.992 433.294 216.052 433.044 215.05 432.731 214.048 432.48 212.921 432.167 211.794 431.854 210.604 431.541 209.352 431.165 208.099 430.852 206.784 430.476 205.406 430.101 204.029 429.725 202.651 429.349 201.21 428.911 199.707 428.535 196.702 427.721 193.633 426.844 190.502 425.967 187.371 425.153 184.239 424.214 181.108 423.4 178.04 422.523 174.971 421.709 173.531 421.271 172.028 420.895 170.587 420.457 169.21 420.081 167.832 419.705 166.517 419.329 165.202 418.954 163.949 418.641 162.759 418.265 161.57 417.952 160.442 417.639 159.378 417.325 158.376 417.075 157.436 416.762 156.497 416.511 155.683 416.261 154.931 416.073 154.18 415.885 153.554 415.697 152.99 415.509 152.552 415.384 152.113 415.259 151.8 415.134 151.675 415.134Z" stroke="#FFFFFF" stroke-width="0.0626239" stroke-opacity="0.16078" fill="#000000" fill-opacity="0.16078" transform="matrix(-1.00098 0 0 1 2311.69 1149.82)"/><path d="M216.303 381.567 157.687 358.96 157.123 359.21 156.622 359.461 156.121 359.711 155.746 360.025 155.37 360.4 154.994 360.776 154.681 361.214 154.368 361.59 154.117 362.029 153.867 362.467 153.679 362.905 153.491 363.406 153.303 363.907 153.178 364.346 152.99 365.285 152.865 366.224 152.74 367.101 152.74 367.477 152.74 367.915 152.74 368.228 152.74 368.604 152.74 368.917 152.74 369.168 152.74 369.418 152.802 369.669 152.802 369.794 152.802 369.919 152.802 369.982 152.802 370.044 161.945 373.238 162.008 373.301 162.071 373.363 162.133 373.426 162.196 373.551 162.321 373.677 162.384 373.864 162.572 374.052 162.697 374.24 162.885 374.491 163.073 374.741 163.26 374.992 163.511 375.305 163.761 375.555 164.012 375.931 164.325 376.182 164.951 376.933 165.577 377.622 166.392 378.373 167.206 379.125 168.082 379.939 169.022 380.69 170.086 381.505 171.151 382.256 172.341 383.008 173.531 383.696 174.846 384.385 176.224 385.011 176.912 385.262 177.601 385.575 178.353 385.826 179.104 386.076 179.918 386.264 180.67 386.452 181.484 386.64 182.298 386.828 183.112 386.953 183.926 387.015 184.803 387.141 185.68 387.203 186.556 387.203 187.496 387.203 188.435 387.203 189.375 387.141 190.314 387.015 191.253 386.89 192.255 386.765 193.257 386.577 194.259 386.327 195.261 386.076 196.326 385.763 197.39 385.387 197.453 385.387 197.578 385.45 197.766 385.45 198.142 385.512 198.518 385.575 198.956 385.638 199.457 385.7 200.021 385.763 200.647 385.826 201.336 385.888 202.087 385.951 202.839 386.013 203.59 386.013 204.404 386.076 206.033 386.076 206.909 386.013 207.723 385.951 208.6 385.888 209.414 385.763 210.228 385.638 210.98 385.45 211.731 385.262 212.483 385.074 213.109 384.761 213.798 384.448 214.361 384.072 214.862 383.696 215.363 383.195 215.551 382.945 215.739 382.694 215.927 382.444 216.052 382.193 216.178 381.88Z" stroke="#FFFFFF" stroke-width="0.0626239" stroke-opacity="0.38824" fill="#FFFFFF" fill-opacity="0.38824" transform="matrix(-1.00098 0 0 1 2311.69 1149.82)"/><path d="M215.802 373.927C196.326 368.855 176.85 363.845 157.374 358.772 156.622 361.528 156.56 365.473 157.749 367.539 160.693 368.98 166.642 370.107 169.585 371.547 178.102 379.751 185.554 380.44 199.144 379.313 204.404 380.377 209.665 381.254 214.862 382.319 216.491 379.125 216.929 377.81 215.802 373.927Z" fill="#606060" transform="matrix(-1.00098 0 0 1 2311.69 1149.82)"/><path d="M366.725 151.174 253.188 214.862 253.627 499.738 364.784 406.178Z" stroke="#FFFFFF" stroke-width="0.0626239" stroke-opacity="0.4" fill="#FFFFFF" fill-opacity="0.4" transform="matrix(-1.00098 0 0 1 2311.69 1149.82)"/><path d="M158.125 433.107 158.751 433.921 159.44 434.672 160.067 435.486 160.755 436.175 161.444 436.927 162.133 437.616 162.885 438.304 163.636 438.931 164.388 439.557 165.139 440.183 165.953 440.809 166.705 441.373 167.519 441.937 168.333 442.438 170.024 443.502 171.777 444.442 173.531 445.318 175.284 446.132 177.1 446.821 178.916 447.51 180.795 448.074 182.674 448.575 184.49 449.076 186.369 449.451 188.247 449.765 190.126 450.015 192.005 450.203 193.883 450.328 195.7 450.453 197.516 450.453 199.332 450.391 201.023 450.266 202.776 450.14 204.467 449.952 206.095 449.639 207.661 449.326 209.164 448.95 210.667 448.575 212.044 448.074 211.919 448.011 211.669 448.011 211.418 447.886 211.105 447.823 210.729 447.698 210.228 447.573 209.727 447.447 209.164 447.322 208.537 447.134 207.911 446.946 207.222 446.759 206.471 446.571 205.657 446.32 204.843 446.132 203.966 445.882 203.027 445.631 202.087 445.381 201.148 445.068 200.146 444.817 199.144 444.504 198.079 444.254 196.952 443.941 194.76 443.314 192.506 442.688 190.126 442.062 187.746 441.436 185.367 440.747 180.607 439.432 178.29 438.805 175.973 438.117 173.719 437.49 172.654 437.24 171.589 436.927 170.525 436.614 169.523 436.363 168.521 436.05 167.581 435.799 166.642 435.549 165.765 435.298 164.889 435.048 164.075 434.797 163.323 434.61 162.634 434.422 161.883 434.234 161.256 434.046 160.693 433.858 160.192 433.733 159.691 433.545 159.252 433.482 158.877 433.357 158.564 433.232 158.313 433.169Z" stroke="#FFFFFF" stroke-width="0.0626239" stroke-opacity="0.16078" fill="#000000" fill-opacity="0.16078" transform="matrix(-1.00098 0 0 1 2311.69 1149.82)"/><path d="M167.832 450.829 168.583 451.769 169.335 452.645 170.149 453.522 171.026 454.273 171.902 455.088 172.779 455.776 173.719 456.465 174.721 457.154 175.66 457.718 176.725 458.281 177.727 458.845 178.791 459.283 179.918 459.722 180.983 460.16 182.11 460.473 183.237 460.786 184.365 461.099 185.554 461.287 186.682 461.538 187.872 461.663 188.999 461.788 190.189 461.851 191.379 461.851 192.568 461.851 193.696 461.788 194.885 461.663 196.013 461.538 197.203 461.35 198.33 461.099 199.457 460.849 200.584 460.536 201.649 460.16 201.586 460.16 201.461 460.097 201.273 460.097 201.023 460.035 200.835 459.972 200.522 459.847 200.208 459.784 199.833 459.659 199.457 459.596 199.081 459.471 198.643 459.346 198.142 459.221 197.641 459.096 197.14 458.908 196.576 458.782 196.013 458.657 194.823 458.281 193.57 457.968 192.193 457.593 190.815 457.217 189.375 456.841 187.934 456.403 184.928 455.589 181.922 454.774 180.482 454.336 179.042 453.96 177.601 453.585 176.286 453.209 174.971 452.833 173.781 452.457 173.218 452.332 172.654 452.144 172.09 452.019 171.589 451.894 171.088 451.769 170.65 451.643 170.212 451.518 169.836 451.393 169.46 451.268 169.147 451.142 168.834 451.08 168.521 451.017 168.333 450.954 168.145 450.892 167.957 450.829Z" stroke="#FFFFFF" stroke-width="0.0626239" stroke-opacity="0.16078" fill="#000000" fill-opacity="0.16078" transform="matrix(-1.00098 0 0 1 2311.69 1149.82)"/><path d="M147.542 204.091 141.78 204.905 140.716 340.987 229.955 365.974 232.147 358.709 146.415 335.852Z" stroke="#FFFFFF" stroke-width="0.0626239" stroke-opacity="0.43922" fill="#FCFCFC" fill-opacity="0.43922" transform="matrix(-1.00098 0 0 1 2311.69 1149.82)"/><path d="M231.708 254.566 231.583 258.386 147.667 234.213Z" stroke="#FFFFFF" stroke-width="0.0626239" stroke-opacity="0.23137" fill="#000000" fill-opacity="0.23137" transform="matrix(-1.00098 0 0 1 2311.69 1149.82)"/><path d="M232.961 282.246 232.773 286.066 148.92 261.893Z" stroke="#FFFFFF" stroke-width="0.0626239" stroke-opacity="0.23137" fill="#000000" fill-opacity="0.23137" transform="matrix(-1.00098 0 0 1 2311.69 1149.82)"/><path d="M231.708 307.859 231.583 311.679 147.667 287.506Z" stroke="#FFFFFF" stroke-width="0.0626239" stroke-opacity="0.23137" fill="#000000" fill-opacity="0.23137" transform="matrix(-1.00098 0 0 1 2311.69 1149.82)"/><path d="M231.708 333.034 231.583 336.854 147.667 312.618Z" stroke="#FFFFFF" stroke-width="0.0626239" stroke-opacity="0.23137" fill="#000000" fill-opacity="0.23137" transform="matrix(-1.00098 0 0 1 2311.69 1149.82)"/><path d="M147.855 207.222 231.27 228.076 230.581 365.661 231.27 365.661 231.959 365.661 232.648 227.575 232.648 227.011 232.147 226.886 148.168 205.907 148.043 206.596ZM231.771 228.201 231.27 228.076 231.27 227.575 231.959 227.575Z" fill="#9E9E9E" transform="matrix(-1.00098 0 0 1 2311.69 1149.82)"/></g></g></g><path d="M472.5 1582.04 790.101 1582.04C796.429 1582.04 801.559 1587.17 801.559 1593.5 801.559 1599.83 796.429 1604.96 790.101 1604.96L472.5 1604.96C466.172 1604.96 461.042 1599.83 461.042 1593.5 461.042 1587.17 466.172 1582.04 472.5 1582.04ZM778.643 1559.13 847.393 1593.5 778.643 1627.88Z" fill="#EB99A1"/><path d="M1793 1588C1793 1558.73 1816.95 1535 1846.5 1535 1876.05 1535 1900 1558.73 1900 1588 1900 1617.27 1876.05 1641 1846.5 1641 1816.95 1641 1793 1617.27 1793 1588Z" fill="#7F7F7F" fill-rule="evenodd"/><text fill="#A6A6A6" font-family="Arial,Arial_MSFontService,sans-serif" font-weight="400" font-size="46" transform="matrix(1 0 0 1 1820.91 1606)">80</text><path d="M1792 1465C1792 1435.18 1816.18 1411 1846 1411 1875.82 1411 1900 1435.18 1900 1465 1900 1494.82 1875.82 1519 1846 1519 1816.18 1519 1792 1494.82 1792 1465Z" fill="#7F7F7F" fill-rule="evenodd"/><text fill="#A6A6A6" font-family="Arial,Arial_MSFontService,sans-serif" font-weight="400" font-size="46" transform="matrix(1 0 0 1 1808.3 1483)">443</text><path d="M1791 1340C1791 1310.18 1815.18 1286 1845 1286 1874.82 1286 1899 1310.18 1899 1340 1899 1369.82 1874.82 1394 1845 1394 1815.18 1394 1791 1369.82 1791 1340Z" fill="#00A1E5" fill-rule="evenodd"/><text fill="#F0F0F0" font-family="Arial,Arial_MSFontService,sans-serif" font-weight="400" font-size="46" transform="matrix(1 0 0 1 1807.07 1358)">443</text><path d="M536 1569.67C536 1562.67 541.671 1557 548.667 1557L702.333 1557C709.329 1557 715 1562.67 715 1569.67L715 1620.33C715 1627.33 709.329 1633 702.333 1633L548.667 1633C541.671 1633 536 1627.33 536 1620.33Z" fill="#EB99A1" fill-rule="evenodd"/><text fill="#FFFFFF" font-family="Arial,Arial_MSFontService,sans-serif" font-weight="400" font-size="41" transform="matrix(1 0 0 1 571.653 1610)">HTTP</text><path d="M472.5 1455.04 790.101 1455.04C796.429 1455.04 801.559 1460.17 801.559 1466.5 801.559 1472.83 796.429 1477.96 790.101 1477.96L472.5 1477.96C466.172 1477.96 461.042 1472.83 461.042 1466.5 461.042 1460.17 466.172 1455.04 472.5 1455.04ZM778.643 1432.13 847.393 1466.5 778.643 1500.88Z" fill="#DA4453"/><path d="M536 1442.5C536 1435.6 541.596 1430 548.5 1430L702.5 1430C709.404 1430 715 1435.6 715 1442.5L715 1492.5C715 1499.4 709.404 1505 702.5 1505L548.5 1505C541.596 1505 536 1499.4 536 1492.5Z" fill="#DA4453" fill-rule="evenodd"/><text fill="#FFFFFF" font-family="Arial,Arial_MSFontService,sans-serif" font-weight="400" font-size="41" transform="matrix(1 0 0 1 557.903 1483)">HTTPS</text><path d="M472.5 1332.04 790.101 1332.04C796.429 1332.04 801.559 1337.17 801.559 1343.5 801.559 1349.83 796.429 1354.96 790.101 1354.96L472.5 1354.96C466.172 1354.96 461.042 1349.83 461.042 1343.5 461.042 1337.17 466.172 1332.04 472.5 1332.04ZM778.643 1309.13 847.393 1343.5 778.643 1377.88Z" fill="#00A1E5"/><path d="M536 1320.5C536 1313.6 541.596 1308 548.5 1308L702.5 1308C709.404 1308 715 1313.6 715 1320.5L715 1370.5C715 1377.4 709.404 1383 702.5 1383L548.5 1383C541.596 1383 536 1377.4 536 1370.5Z" fill="#00A1E5" fill-rule="evenodd"/><text fill="#FFFFFF" font-family="Arial,Arial_MSFontService,sans-serif" font-weight="400" font-size="41" transform="matrix(1 0 0 1 583.112 1360)">SSH</text><text fill="#DA4453" font-family="Arial,Arial_MSFontService,sans-serif" font-weight="400" font-size="64" transform="matrix(1 0 0 1 2586.89 1224)">Services</text><path d="M2281 1336.5C2281 1329.6 2286.6 1324 2293.5 1324L2446.5 1324C2453.4 1324 2459 1329.6 2459 1336.5L2459 1386.5C2459 1393.4 2453.4 1399 2446.5 1399L2293.5 1399C2286.6 1399 2281 1393.4 2281 1386.5Z" fill="#00A1E5" fill-rule="evenodd"/><text fill="#F0F0F0" font-family="Arial,Arial_MSFontService,sans-serif" font-weight="400" font-size="41" transform="matrix(1 0 0 1 2327.48 1376)">SSH</text><g><g><g><path d="M239.233 6.43298C248.978 6.43298 256.878 14.3331 256.878 24.0783L256.878 181.134C256.878 190.879 248.978 198.779 239.233 198.779L25.9897 198.779C16.2444 198.779 8.34434 190.879 8.34434 181.134L8.34434 24.0783C8.34434 14.3331 16.2444 6.43298 25.9897 6.43298Z" fill="#949494" transform="matrix(1.01926 0 0 1 2577 1454)"/><g clip-path="url(#clip0)"><path d="M25.9907 6.43122C16.2151 6.43122 8.34407 14.3023 8.34407 24.0777L8.34407 181.133C8.34407 190.909 16.2151 198.78 25.9907 198.78L239.231 198.78C249.006 198.78 256.878 190.909 256.878 181.133L256.878 24.0777C256.878 14.3023 249.006 6.43122 239.231 6.43122Z" stroke="url(#stroke1)" stroke-width="8.24743" fill="none" transform="matrix(1.01926 0 0 1 2577 1454)"/></g><path d="M185.242 32.6765C185.242 39.6214 179.613 45.2515 172.668 45.2515 165.723 45.2515 160.093 39.6214 160.093 32.6765 160.093 25.7316 165.723 20.1016 172.668 20.1016 179.613 20.1016 185.242 25.7316 185.242 32.6765Z" fill="#363C40" transform="matrix(1.01926 0 0 1 2577 1454)"/><path d="M185.242 32.6765C185.242 39.6214 179.613 45.2515 172.668 45.2515 165.723 45.2515 160.093 39.6214 160.093 32.6765 160.093 25.7316 165.723 20.1016 172.668 20.1016 179.613 20.1016 185.242 25.7316 185.242 32.6765Z" fill="#363C40" transform="matrix(1.01926 0 0 1 2605.58 1454)"/><path d="M185.242 32.6765C185.242 39.6214 179.613 45.2515 172.668 45.2515 165.723 45.2515 160.093 39.6214 160.093 32.6765 160.093 25.7316 165.723 20.1016 172.668 20.1016 179.613 20.1016 185.242 25.7316 185.242 32.6765Z" fill="#363C40" transform="matrix(1.01926 0 0 1 2634.16 1454)"/><path d="M237.216 58.778C244.116 58.778 249.709 64.3712 249.709 71.2709L249.709 178.866C249.709 185.766 244.116 191.359 237.216 191.359L27.484 191.359C20.5844 191.359 14.9912 185.766 14.9912 178.866L14.9912 71.2709C14.9912 64.3712 20.5844 58.778 27.484 58.778Z" stroke="url(#stroke2)" stroke-width="4.3299" fill="#120C0C" transform="matrix(1.01926 0 0 1 2577 1454)"/></g></g></g><path d="M2281 1486.67C2281 1479.67 2286.67 1474 2293.67 1474L2446.33 1474C2453.33 1474 2459 1479.67 2459 1486.67L2459 1537.33C2459 1544.33 2453.33 1550 2446.33 1550L2293.67 1550C2286.67 1550 2281 1544.33 2281 1537.33Z" fill="#7F7F7F" fill-rule="evenodd"/><path d="M2250.5 1598.04 2250.52 1598.04C2256.85 1598.04 2261.98 1603.17 2261.98 1609.5 2261.98 1615.83 2256.85 1620.96 2250.52 1620.96L2250.5 1620.96C2244.17 1620.96 2239.04 1615.83 2239.04 1609.5 2239.04 1603.17 2244.17 1598.04 2250.5 1598.04ZM2296.36 1598.04 2296.38 1598.04C2302.71 1598.04 2307.84 1603.17 2307.84 1609.5 2307.84 1615.83 2302.71 1620.96 2296.38 1620.96L2296.36 1620.96C2290.03 1620.96 2284.9 1615.83 2284.9 1609.5 2284.9 1603.17 2290.03 1598.04 2296.36 1598.04ZM2342.21 1598.04 2342.24 1598.04C2348.56 1598.04 2353.69 1603.17 2353.69 1609.5 2353.69 1615.83 2348.56 1620.96 2342.24 1620.96L2342.21 1620.96C2335.88 1620.96 2330.75 1615.83 2330.75 1609.5 2330.75 1603.17 2335.88 1598.04 2342.21 1598.04ZM2388.07 1598.04 2388.09 1598.04C2394.42 1598.04 2399.55 1603.17 2399.55 1609.5 2399.55 1615.83 2394.42 1620.96 2388.09 1620.96L2388.07 1620.96C2381.74 1620.96 2376.61 1615.83 2376.61 1609.5 2376.61 1603.17 2381.74 1598.04 2388.07 1598.04ZM2433.93 1598.04 2433.95 1598.04C2440.28 1598.04 2445.41 1603.17 2445.41 1609.5 2445.41 1615.83 2440.28 1620.96 2433.95 1620.96L2433.93 1620.96C2427.6 1620.96 2422.47 1615.83 2422.47 1609.5 2422.47 1603.17 2427.6 1598.04 2433.93 1598.04ZM2479.78 1598.04 2479.8 1598.04C2486.13 1598.04 2491.26 1603.17 2491.26 1609.5 2491.26 1615.83 2486.13 1620.96 2479.8 1620.96L2479.78 1620.96C2473.45 1620.96 2468.32 1615.83 2468.32 1609.5 2468.32 1603.17 2473.45 1598.04 2479.78 1598.04ZM2494.1 1586.58 2539.94 1609.5 2494.1 1632.42Z" fill="#7F7F7F"/><path d="M2284 1585.5C2284 1578.6 2289.6 1573 2296.5 1573L2450.5 1573C2457.4 1573 2463 1578.6 2463 1585.5L2463 1635.5C2463 1642.4 2457.4 1648 2450.5 1648L2296.5 1648C2289.6 1648 2284 1642.4 2284 1635.5Z" fill="#7F7F7F" fill-rule="evenodd"/><text fill="#DA4453" font-family="Arial,Arial_MSFontService,sans-serif" font-weight="400" font-size="64" transform="matrix(1 0 0 1 1954.04 1224)">Server</text><text fill="#DA4453" font-family="Arial,Arial_MSFontService,sans-serif" font-weight="400" font-size="64" transform="matrix(1 0 0 1 60.3988 1224)">Your</text><text fill="#DA4453" font-family="Arial,Arial_MSFontService,sans-serif" font-weight="400" font-size="64" transform="matrix(1 0 0 1 207.478 1224)">Laptop</text><text fill="#D9D8DC" font-family="Arial,Arial_MSFontService,sans-serif" font-weight="400" font-size="50" transform="matrix(1 0 0 1 2639.82 1391)">SSHD</text><g clip-path="url(#clip3)"><g clip-path="url(#clip4)"><g clip-path="url(#clip5)"><path d="M-25.4228 115.364C-39.1126 117.193-39.2482 133.187-44.9828 142.915-49.6724 154.782-50.4088 152.666-50.2718 163.479-50.1023 218.439-50.6113 273.436-50.0165 328.373-45.4572 343.229-28.4136 337.176-16.8953 338.433 82.2266 338.26 181.379 338.772 280.478 338.177 295.334 333.621 289.28 316.574 290.538 305.061L290.538 158.592C286.268 146.025 280.207 133.706 275.207 121.207 266.382 111.403 251.872 116.764 240.133 115.379 151.613 115.371 63.0934 115.409-25.419 115.364Z" fill="url(#fill6)" transform="matrix(1.00153 2.30382e-18 -2.30382e-18 1 988.461 1204.87)"/><path d="M255.877 115.612C250.207 115.717 244.326 116.478 239.01 115.846 150.49 115.838 61.9851 115.876-26.5349 115.823-40.2248 117.66-40.3769 133.676-46.1123 143.404-49.2123 151.243-50.5895 152.967-51.1241 156.371L288.468 156.371C284.282 144.73 278.733 133.292 274.094 121.681 269.268 116.32 262.724 115.484 255.88 115.612Z" fill="url(#fill7)" transform="matrix(1.00153 0 0 1 988.461 1204.87)"/><path d="M-50.341 274.023 290.682 274.023-50.341 274.023ZM-20.4712 274.091-20.4712 337.755-20.4712 274.091ZM90.6381 274.091 90.6381 337.755 90.6381 274.091Z" stroke="#FFFFFF" stroke-width="3.86224" stroke-linecap="round" stroke-opacity="0.57658" fill-rule="evenodd" transform="matrix(1.00153 0 0 1 988.461 1204.87)"/><path d="M35.728 210.781 35.728 274.46" stroke="#FFFFFF" stroke-width="3.86488" stroke-opacity="0.57658" fill="none" fill-rule="evenodd" transform="matrix(1.00153 0 0 1 988.461 1204.87)"/><path d="M151.025 210.781 151.025 274.46" stroke="#FFFFFF" stroke-width="3.86488" stroke-opacity="0.57658" fill="none" fill-rule="evenodd" transform="matrix(1.00153 0 0 1 988.461 1204.87)"/><path d="M262.646 210.02 262.646 273.7" stroke="#FFFFFF" stroke-width="3.86488" stroke-opacity="0.57658" fill="none" fill-rule="evenodd" transform="matrix(1.00153 0 0 1 988.461 1204.87)"/><path d="M206.481 273.323 206.481 337.01" stroke="#FFFFFF" stroke-width="3.86488" stroke-opacity="0.57658" fill="none" fill-rule="evenodd" transform="matrix(1.00153 0 0 1 988.461 1204.87)"/><path d="M-50.8395 210.841 290.869 210.841" stroke="#FFFFFF" stroke-width="3.94718" stroke-opacity="0.56471" fill="none" transform="matrix(1.00153 0 0 1 988.461 1204.87)"/><path d="M-50.7988 157.304 290.224 157.304-50.7988 157.304Z" stroke="#FFFFFF" stroke-width="3.86224" stroke-linecap="round" stroke-opacity="0.57658" fill="none" fill-rule="evenodd" transform="matrix(1.00153 0 0 1 988.461 1204.87)"/><path d="M90.2368 158.818 90.2368 212.294" stroke="#FFFFFF" stroke-width="3.54163" stroke-opacity="0.57658" fill="none" fill-rule="evenodd" transform="matrix(1.00153 0 0 1 988.461 1204.87)"/><path d="M-20.4463 155.972-20.4463 212.279" stroke="#FFFFFF" stroke-width="3.63432" stroke-opacity="0.57658" fill="none" fill-rule="evenodd" transform="matrix(1.00153 0 0 1 988.461 1204.87)"/><path d="M206.331 154.842 206.331 211.15" stroke="#FFFFFF" stroke-width="3.63432" stroke-opacity="0.57658" fill="none" fill-rule="evenodd" transform="matrix(1.00153 0 0 1 988.461 1204.87)"/><path d="M427.702 70.0592C417.626 83.2873 413.351 100.185 414.635 116.667 415.596 124.719 411.315 132.221 408.263 139.419 402.657 150.147 397.583 161.863 399.115 174.264 398.671 181.403 395.499 174.204 395.835 170.608 394.316 160.505 393.664 150.026 395.734 140.011 394.692 130.271 392.225 119.712 384.18 113.306 386.566 124.874 389.671 137.907 383.904 148.951 381.841 152.654 377.209 153.669 376.242 158.112 366.536 175.118 365.803 196.318 373.176 214.325 374.709 218.425 376.712 222.337 378.446 226.357 373.035 223.265 367.1 221.174 361.871 217.787 369.117 238.993 382.882 259.85 404.62 268.104 413.17 271.741 422.493 272.42 431.52 273.851 451.315 280.035 475.882 275.975 488.943 258.748 496.619 248.78 498.749 235.33 496.135 223.184 492.68 230.174 486.691 235.841 478.954 237.635 480.736 228.662 478.027 219.682 473.389 211.999 468.381 203.812 467.205 193.454 471.198 184.602 477.26 171.32 481.845 155.242 474.78 141.416 472.596 135.037 471.063 138.949 469.954 143.473 465.336 157.669 456.02 169.747 445.474 180.105 446.2 165.62 451.255 151.915 453.405 137.679 454.629 130.426 453.224 123.146 451.705 116.122 450.67 108.231 442.443 104.185 438.974 97.4229 432.79 88.4361 430.734 77.2581 430.371 66.529 429.483 67.7067 428.589 68.8829 427.702 70.0592Z" fill="#000000" fill-rule="evenodd" fill-opacity="0.40541" transform="matrix(1.00153 0 0 1 743.716 1297)"/><path d="M90.95 178.136C103.95 216.57 124.524 236.95 161.406 239.282 201.971 252.282 239.632 225.691 228.951 183.963 224.098 192.89 220.993 197.743 212.651 200.263 215.952 177.168 194.792 173.283 205.076 148.44 212.261 133.108 216.53 114.281 203.913 98.9419 198.677 116.411 192.271 128.06 179.46 140.871 180.818 119.517 192.076 102.242 185.281 82.0573 186.249 68.4729 163.926 68.8561 163.738 27.3199 149.569 45.1779 143.546 58.9585 145.684 86.1306 140.441 108.07 127.63 116.022 129.962 139.708 128.02 126.507 126.662 115.054 129.377 105.348 127.825 93.316 126.272 83.0252 114.24 74.4888 117.93 89.4309 122.199 111.948 109.582 117.574 106.087 124.76 88.6176 149.408 107.835 188.037 102.209 184.736 96.5759 183.769 90.95 178.136Z" stroke="#FFFF00" stroke-width="1.44938" stroke-opacity="0.50382" fill="url(#fill8)" fill-rule="evenodd" transform="matrix(1.00153 0 0 1 1043.05 1333.13)"/><path d="M159.51 35.683C149.435 48.9144 145.16 65.8119 146.443 82.2858 147.405 90.345 143.123 97.8463 140.071 105.045 134.466 115.773 129.391 127.489 130.923 139.883 130.486 147.028 127.314 139.829 127.643 136.233 126.124 126.131 125.472 115.645 127.549 105.637 126.5 95.8971 124.034 85.3374 115.988 78.9317 118.381 90.4929 121.486 103.526 115.719 114.576 113.649 118.28 109.024 119.288 108.056 123.738 98.3437 140.744 97.6178 161.943 104.985 179.951 106.517 184.051 108.52 187.963 110.254 191.982 104.85 188.89 98.9083 186.793 93.6857 183.412 100.925 204.612 114.697 225.476 136.435 233.73 144.978 237.367 154.301 238.045 163.335 239.477 183.13 245.661 207.697 241.601 220.757 224.374 228.427 214.406 230.558 200.956 227.95 188.81 224.488 195.8 218.499 201.466 210.762 203.261 212.544 194.288 209.835 185.301 205.197 177.625 200.196 169.438 199.013 159.08 203.012 150.228 209.069 136.946 213.653 120.868 206.595 107.041 204.411 100.656 202.871 104.575 201.762 109.098 197.151 123.294 187.828 135.373 177.282 145.731 178.015 131.246 183.069 117.541 185.214 103.304 186.444 96.0516 185.032 88.7722 183.513 81.7481 182.478 73.8569 174.257 69.8038 170.782 63.0479 164.599 54.0585 162.542 42.8858 162.179 32.1541 161.292 33.3304 160.404 34.5067 159.51 35.683Z" fill="url(#fill9)" fill-rule="evenodd" transform="matrix(1.00153 0 0 1 1043.05 1333.13)"/><path d="M157.332 233.455C126.467 200.848 121.224 178.136 141.611 156.593 164.511 115.833 158.885 90.2106 142.189 65.7507 157.911 119.907 123.556 154.845 112.493 170.567 105.892 150.187 111.525 141.449 120.646 116.411 102.787 135.823 91.9179 159.309 98.5185 181.631 110.55 215.212 138.888 222.586 157.332 233.455Z" stroke="#FFFF00" stroke-width="1.44938" stroke-opacity="0.50382" fill="url(#fill10)" fill-rule="evenodd" transform="matrix(1.00153 0 0 1 1043.05 1333.13)"/><path d="M194.785 110.248C190.645 98.216 194.026 95.6416 197.649 90.3853 201.386 88.9268 200.236 83.852 202.28 72.5462 205.365 85.1627 213.659 90.9029 194.785 110.248Z" stroke="#FFFF00" stroke-width="1.44938" stroke-opacity="0.50382" fill="#FFD700" fill-rule="evenodd" transform="matrix(1.00153 0 0 1 1043.05 1333.13)"/><path d="M199.437 70.5701C198.173 75.9339 198.744 81.8422 196.412 86.8498 190.934 91.0306 188.548 98.7941 190.947 105.388 191.693 110.913 193.421 111.868 196.486 106.82 203.026 100.091 209.149 90.4458 205.426 80.8003 203.745 75.8801 202.273 70.886 200.398 66.031 200.075 67.5453 199.752 69.0577 199.437 70.5701Z" fill="url(#fill11)" fill-rule="evenodd" transform="matrix(1.00153 0 0 1 1043.05 1333.13)"/><path d="M221.383 183.963C232.056 173.673 229.926 169.21 228.951 161.836 225.846 158.341 229.731 153.683 233.609 140.871 223.715 152.325 212.066 153.878 221.383 183.963Z" stroke="#FFFF00" stroke-width="1.44938" stroke-opacity="0.50382" fill="#FFD700" fill-rule="evenodd" transform="matrix(1.00153 0 0 1 1043.05 1333.13)"/><path d="M171.307 233.455C183.338 226.666 186.639 205.311 188.191 181.631 191.102 158.724 196.929 135.823 235.357 132.133 219.635 144.75 206.824 160.277 212.651 189.2 211.099 231.324 179.843 229.771 171.307 233.455Z" stroke="#FFFF00" stroke-width="1.44938" stroke-opacity="0.50382" fill="url(#fill12)" fill-rule="evenodd" transform="matrix(1.00153 0 0 1 1043.05 1333.13)"/><path d="M230.927 128.786C214.54 131.112 197.649 140.959 192.843 157.682 185.12 178.586 189.388 202.374 178.862 222.451 174.862 224.186 175.837 231.64 180.777 230.181 195.236 227.56 208.968 217.511 212.631 202.77 216.16 192.527 214.157 181.698 213.78 171.179 214.264 155.928 223.097 142.169 234.691 132.758 236.721 129.834 233.334 128.853 230.927 128.786Z" fill="url(#fill13)" fill-rule="evenodd" transform="matrix(1.00153 0 0 1 1043.05 1333.13)"/><path d="M231.129 136.778C224.528 143.768 214.943 150.308 215.179 161.056 214.688 168.759 217.43 176.099 219.138 183.493 224.871 178.022 231.384 170.897 229.287 162.266 229.267 158.468 226.404 155.141 228.655 151.438 230.813 145.57 233.071 139.735 234.577 133.646 233.428 134.687 232.278 135.729 231.129 136.778Z" fill="url(#fill14)" fill-rule="evenodd" transform="matrix(1.00153 0 0 1 1043.05 1333.13)"/><path d="M150.342 217.733C148.789 199.1 146.652 185.704 170.144 168.82 209.929 141.066 190.329 124.955 165.486 96.0315 172.859 124.76 161.016 147.66 150.927 162.999 144.326 172.51 121.419 191.915 150.342 217.733Z" stroke="#FFFF00" stroke-width="1.44938" stroke-opacity="0.50382" fill="url(#fill15)" fill-rule="evenodd" transform="matrix(1.00153 0 0 1 1043.05 1333.13)"/><path d="M135.165 81.049C145.912 68.6746 143.15 63.5816 141.396 55.0613 137.665 51.1339 141.483 45.5691 144.541 30.5436 134.755 44.2382 122.125 46.5162 135.165 81.049Z" stroke="#FFFF00" stroke-width="1.44938" stroke-opacity="0.50382" fill="#FFD700" fill-rule="evenodd" transform="matrix(1.00153 0 0 1 1043.05 1333.13)"/><path d="M141.967 27.9067C135.709 36.0896 126.218 43.6407 126.716 54.982 126.648 64.4124 130.365 73.2117 133.141 82.0573 138.814 75.5844 144.85 67.3571 142.323 58.2326 142.343 54.6217 139.816 51.8188 139.742 48.4083 141.127 40.3592 143.983 32.5836 145.113 24.4619 144.064 25.61 143.015 26.7587 141.967 27.9067Z" fill="url(#fill16)" fill-rule="evenodd" transform="matrix(1.00153 0 0 1 1043.05 1333.13)"/><path d="M164.881 91.2188C169.189 110.799 164.753 131.434 154.845 148.635 148.695 160.465 136.563 169.525 135.407 183.594 133.551 195.861 142.39 206.084 150.577 214.002 153.911 218.197 151.054 208.282 151.505 205.963 150.174 193.898 152.244 180.361 161.977 172.086 172.819 161.54 188.279 154.234 193.468 139.077 196.983 125.694 187.62 113.696 179.46 104.192 174.54 98.2227 169.351 92.4892 164.189 86.7221 164.424 88.221 164.652 89.7199 164.881 91.2188Z" fill="url(#fill17)" fill-rule="evenodd" transform="matrix(1.00153 0 0 1 1043.05 1333.13)"/><path d="M145.328 73.8435C145.751 83.1059 148.386 92.2741 147.176 101.624 146.114 123.442 136.529 143.97 123.288 161.05 120.834 164.538 118.219 167.912 115.685 171.347 112.304 160.075 113.83 147.916 118.388 137.221 120.787 131.501 122.474 125.566 123.355 119.423 110.705 130.964 101.772 146.692 98.6328 163.537 96.0853 179.11 101.563 195.121 111.894 206.824 124.881 222.149 143.56 230.759 161.668 238.455 151.411 224.031 137.127 211.011 134.096 192.775 132.012 182.189 136.18 171.569 143.136 163.651 151.095 152.715 156.049 139.715 158.993 126.581 162.817 109.488 159.752 90.997 150.409 76.1759 148.104 74.4888 143.983 65.6317 145.328 73.8435Z" fill="url(#fill18)" fill-rule="evenodd" transform="matrix(1.00153 0 0 1 1043.05 1333.13)"/><path d="M74.2888 145.503C84.907 176.896 101.713 193.543 131.838 195.448 164.972 206.066 195.734 184.347 187.01 150.263 183.046 157.554 180.509 161.518 173.696 163.577 176.391 144.713 159.108 141.539 167.508 121.247 173.377 108.724 176.864 93.3456 166.558 80.8168 162.281 95.086 157.049 104.601 146.585 115.065 147.694 97.6225 156.89 83.5125 151.339 67.0252 152.13 55.9294 133.897 56.2423 133.743 22.3152 122.169 36.9017 117.25 48.1579 118.996 70.3523 114.714 88.2726 104.249 94.7675 106.154 114.115 104.568 103.332 103.459 93.9769 105.677 86.049 104.408 76.2214 103.14 67.8158 93.3126 60.8432 96.3268 73.048 99.8131 91.4404 89.5079 96.0358 86.6529 101.905 72.3837 122.038 88.0804 153.59 83.485 150.895 78.8842 150.104 74.2888 145.503Z" stroke="#FFFF00" stroke-width="1.18387" stroke-opacity="0.50382" fill="url(#fill19)" fill-rule="evenodd" transform="matrix(-1.00153 0 0 1 1388.09 1372.04)"/><path d="M130.29 29.1462C122.06 39.9538 118.568 53.7558 119.617 67.2119 120.402 73.7947 116.904 79.9219 114.412 85.8019 109.833 94.5644 105.688 104.134 106.939 114.258 106.583 120.094 103.991 114.214 104.26 111.277 103.019 103.025 102.487 94.4601 104.183 86.2851 103.327 78.3297 101.312 69.7045 94.7401 64.4722 96.6946 73.9155 99.2311 84.5611 94.5205 93.5871 92.8295 96.6123 89.0522 97.4358 88.2616 101.07 80.3281 114.961 79.7352 132.277 85.7525 146.986 87.0043 150.335 88.6404 153.53 90.0569 156.813 85.6427 154.288 80.7893 152.575 76.5234 149.813 82.4364 167.129 93.686 184.171 111.441 190.913 118.42 193.883 126.035 194.438 133.414 195.607 149.582 200.658 169.649 197.342 180.317 183.271 186.581 175.129 188.322 164.143 186.192 154.222 183.364 159.932 178.472 164.56 172.153 166.026 173.608 158.696 171.395 151.356 167.607 145.086 163.522 138.399 162.556 129.938 165.823 122.708 170.769 111.859 174.514 98.726 168.749 87.4325 166.965 82.2168 165.707 85.4176 164.801 89.1126 161.035 100.708 153.42 110.574 144.806 119.035 145.404 107.203 149.533 96.0083 151.284 84.38 152.289 78.4559 151.136 72.51 149.895 66.7727 149.05 60.3271 142.335 57.0164 139.497 51.4982 134.446 44.1555 132.766 35.0296 132.469 26.2638 131.745 27.2246 131.02 28.1854 130.29 29.1462Z" fill="url(#fill20)" fill-rule="evenodd" transform="matrix(-1.00153 0 0 1 1388.09 1372.04)"/><path d="M128.511 190.688C103.299 164.055 99.017 145.503 115.669 127.907 134.374 94.6138 129.779 73.6849 116.141 53.7058 128.983 97.9409 100.922 126.479 91.8852 139.321 86.4937 122.675 91.0946 115.537 98.5449 95.086 83.9572 110.942 75.0794 130.125 80.4709 148.358 90.2985 175.787 113.445 181.81 128.511 190.688Z" stroke="#FFFF00" stroke-width="1.18387" stroke-opacity="0.50382" fill="url(#fill21)" fill-rule="evenodd" transform="matrix(-1.00153 0 0 1 1388.09 1372.04)"/><path d="M159.103 90.0514C155.721 80.2238 158.482 78.121 161.441 73.8277 164.494 72.6363 163.555 68.4911 165.224 59.2565 167.744 69.5617 174.519 74.2504 159.103 90.0514Z" stroke="#FFFF00" stroke-width="1.18387" stroke-opacity="0.50382" fill="#FFD700" fill-rule="evenodd" transform="matrix(-1.00153 0 0 1 1388.09 1372.04)"/><path d="M162.902 57.6423C161.87 62.0236 162.336 66.8495 160.431 70.9398 155.957 74.3547 154.008 80.696 155.968 86.0819 156.577 90.5949 157.988 91.3746 160.492 87.2514 165.834 81.7556 170.835 73.8771 167.794 65.9985 166.421 61.9797 165.219 57.9004 163.687 53.9348 163.423 55.1717 163.16 56.407 162.902 57.6423Z" fill="url(#fill22)" fill-rule="evenodd" transform="matrix(-1.00153 0 0 1 1388.09 1372.04)"/><path d="M180.828 150.263C189.546 141.858 187.806 138.212 187.01 132.189 184.473 129.334 187.646 125.53 190.814 115.065 182.733 124.42 173.218 125.689 180.828 150.263Z" stroke="#FFFF00" stroke-width="1.18387" stroke-opacity="0.50382" fill="#FFD700" fill-rule="evenodd" transform="matrix(-1.00153 0 0 1 1388.09 1372.04)"/><path d="M139.925 190.688C149.753 185.143 152.448 167.7 153.717 148.358 156.094 129.647 160.854 110.942 192.242 107.928 179.4 118.233 168.936 130.915 173.696 154.54 172.427 188.948 146.898 187.679 139.925 190.688Z" stroke="#FFFF00" stroke-width="1.18387" stroke-opacity="0.50382" fill="url(#fill23)" fill-rule="evenodd" transform="matrix(-1.00153 0 0 1 1388.09 1372.04)"/><path d="M188.624 105.194C175.238 107.093 161.441 115.136 157.516 128.796 151.208 145.871 154.694 165.301 146.096 181.7 142.829 183.117 143.625 189.206 147.661 188.014 159.47 185.873 170.687 177.665 173.679 165.625 176.562 157.258 174.925 148.413 174.618 139.821 175.013 127.363 182.228 116.125 191.698 108.438 193.356 106.05 190.589 105.248 188.624 105.194Z" fill="url(#fill24)" fill-rule="evenodd" transform="matrix(-1.00153 0 0 1 1388.09 1372.04)"/><path d="M188.788 111.721C183.397 117.431 175.568 122.773 175.76 131.552 175.359 137.844 177.599 143.84 178.994 149.879 183.677 145.41 188.997 139.59 187.284 132.541 187.268 129.439 184.929 126.721 186.768 123.696 188.53 118.903 190.375 114.137 191.605 109.163 190.666 110.014 189.727 110.865 188.788 111.721Z" fill="url(#fill25)" fill-rule="evenodd" transform="matrix(-1.00153 0 0 1 1388.09 1372.04)"/><path d="M122.801 177.846C121.533 162.627 119.787 151.685 138.975 137.894 171.472 115.224 155.462 102.064 135.17 78.4395 141.193 101.905 131.519 120.61 123.279 133.139 117.887 140.908 99.1762 156.758 122.801 177.846Z" stroke="#FFFF00" stroke-width="1.18387" stroke-opacity="0.50382" fill="url(#fill26)" fill-rule="evenodd" transform="matrix(-1.00153 0 0 1 1388.09 1372.04)"/><path d="M110.404 66.2017C119.183 56.0941 116.926 51.9341 115.493 44.9746 112.446 41.7667 115.565 37.2213 118.063 24.9483 110.069 36.1342 99.7527 37.9949 110.404 66.2017Z" stroke="#FFFF00" stroke-width="1.18387" stroke-opacity="0.50382" fill="#FFD700" fill-rule="evenodd" transform="matrix(-1.00153 0 0 1 1388.09 1372.04)"/><path d="M115.96 22.7945C110.849 29.4784 103.096 35.6461 103.503 44.9099 103.448 52.6127 106.484 59.8 108.751 67.0252 113.385 61.7381 118.315 55.018 116.251 47.565 116.267 44.6156 114.203 42.3261 114.143 39.5404 115.274 32.9658 117.607 26.6146 118.529 19.9807 117.673 20.9185 116.816 21.8568 115.96 22.7945Z" fill="url(#fill27)" fill-rule="evenodd" transform="matrix(-1.00153 0 0 1 1388.09 1372.04)"/><path d="M134.676 74.5085C138.196 90.5016 134.572 107.357 126.479 121.406 121.456 131.069 111.546 138.47 110.601 149.961 109.086 159.981 116.306 168.332 122.993 174.799 125.716 178.225 123.383 170.127 123.751 168.233 122.664 158.378 124.355 147.32 132.305 140.562 141.16 131.948 153.788 125.98 158.026 113.599 160.898 102.668 153.25 92.8679 146.585 85.1047 142.566 80.2293 138.327 75.5461 134.111 70.8355 134.303 72.0598 134.49 73.2841 134.676 74.5085Z" fill="url(#fill28)" fill-rule="evenodd" transform="matrix(-1.00153 0 0 1 1388.09 1372.04)"/><path d="M118.705 60.3161C119.051 67.8817 121.203 75.3704 120.215 83.0074 119.347 100.829 111.518 117.596 100.703 131.547 98.6986 134.396 96.5629 137.152 94.493 139.958 91.7314 130.751 92.9777 120.819 96.7001 112.084 98.6601 107.412 100.038 102.564 100.757 97.5456 90.4247 106.972 83.1282 119.82 80.5642 133.578 78.4834 146.299 82.958 159.377 91.3965 168.936 102.004 181.453 117.261 188.486 132.052 194.773 123.674 182.991 112.007 172.356 109.531 157.461 107.829 148.814 111.233 140.139 116.915 133.672 123.416 124.739 127.462 114.121 129.867 103.393 132.991 89.431 130.487 74.3273 122.856 62.2212 120.973 60.8432 117.607 53.6086 118.705 60.3161Z" fill="url(#fill29)" fill-rule="evenodd" transform="matrix(-1.00153 0 0 1 1388.09 1372.04)"/></g></g></g><text fill="#DA4453" font-family="Arial,Arial_MSFontService,sans-serif" font-weight="400" font-size="64" transform="matrix(1 0 0 1 881.922 1224)">"dumb" Firewall</text><text fill="#D9D8DC" font-family="Arial,Arial_MSFontService,sans-serif" font-weight="400" font-size="50" transform="matrix(1 0 0 1 1026.61 1625)">block all</text><text fill="#D9D8DC" font-family="Arial,Arial_MSFontService,sans-serif" font-weight="400" font-size="50" transform="matrix(1 0 0 1 869.63 1686)">allow</text><text fill="#DA4453" font-family="Arial,Arial_MSFontService,sans-serif" font-weight="400" font-size="50" transform="matrix(1 0 0 1 999.109 1686)">TCP</text><text fill="#EB99A1" font-family="Arial,Arial_MSFontService,sans-serif" font-weight="400" font-size="50" transform="matrix(1 0 0 1 1114.27 1686)">80</text><text fill="#D9D8DC" font-family="Arial,Arial_MSFontService,sans-serif" font-weight="400" font-size="50" transform="matrix(1 0 0 1 1184.16 1686)">and </text><text fill="#EB99A1" font-family="Arial,Arial_MSFontService,sans-serif" font-weight="400" font-size="50" transform="matrix(1 0 0 1 1282.13 1686)">443</text><path d="M1380.5 1582.04 1698.1 1582.04C1704.43 1582.04 1709.56 1587.17 1709.56 1593.5 1709.56 1599.83 1704.43 1604.96 1698.1 1604.96L1380.5 1604.96C1374.17 1604.96 1369.04 1599.83 1369.04 1593.5 1369.04 1587.17 1374.17 1582.04 1380.5 1582.04ZM1686.64 1559.13 1755.39 1593.5 1686.64 1627.88Z" fill="#EB99A1"/><path d="M1444 1569.67C1444 1562.67 1449.67 1557 1456.67 1557L1610.33 1557C1617.33 1557 1623 1562.67 1623 1569.67L1623 1620.33C1623 1627.33 1617.33 1633 1610.33 1633L1456.67 1633C1449.67 1633 1444 1627.33 1444 1620.33Z" fill="#EB99A1" fill-rule="evenodd"/><text fill="#FFFFFF" font-family="Arial,Arial_MSFontService,sans-serif" font-weight="400" font-size="41" transform="matrix(1 0 0 1 1479.84 1610)">HTTP</text><path d="M1380.5 1455.04 1698.1 1455.04C1704.43 1455.04 1709.56 1460.17 1709.56 1466.5 1709.56 1472.83 1704.43 1477.96 1698.1 1477.96L1380.5 1477.96C1374.17 1477.96 1369.04 1472.83 1369.04 1466.5 1369.04 1460.17 1374.17 1455.04 1380.5 1455.04ZM1686.64 1432.13 1755.39 1466.5 1686.64 1500.88Z" fill="#DA4453"/><path d="M1444 1442.5C1444 1435.6 1449.6 1430 1456.5 1430L1610.5 1430C1617.4 1430 1623 1435.6 1623 1442.5L1623 1492.5C1623 1499.4 1617.4 1505 1610.5 1505L1456.5 1505C1449.6 1505 1444 1499.4 1444 1492.5Z" fill="#DA4453" fill-rule="evenodd"/><text fill="#FFFFFF" font-family="Arial,Arial_MSFontService,sans-serif" font-weight="400" font-size="41" transform="matrix(1 0 0 1 1466.09 1483)">HTTPS</text><path d="M1380.5 1332.04 1698.1 1332.04C1704.43 1332.04 1709.56 1337.17 1709.56 1343.5 1709.56 1349.83 1704.43 1354.96 1698.1 1354.96L1380.5 1354.96C1374.17 1354.96 1369.04 1349.83 1369.04 1343.5 1369.04 1337.17 1374.17 1332.04 1380.5 1332.04ZM1686.64 1309.13 1755.39 1343.5 1686.64 1377.88Z" fill="#00A1E5"/><path d="M1444 1320.5C1444 1313.6 1449.6 1308 1456.5 1308L1610.5 1308C1617.4 1308 1623 1313.6 1623 1320.5L1623 1370.5C1623 1377.4 1617.4 1383 1610.5 1383L1456.5 1383C1449.6 1383 1444 1377.4 1444 1370.5Z" fill="#00A1E5" fill-rule="evenodd"/><text fill="#F0F0F0" font-family="Arial,Arial_MSFontService,sans-serif" font-weight="400" font-size="41" transform="matrix(1 0 0 1 1491.3 1360)">SSH</text><text fill="#404040" font-family="Arial,Arial_MSFontService,sans-serif" font-weight="400" font-size="50" transform="matrix(1 0 0 1 2629.7 1561)">nginx</text><text fill="#404040" font-family="Arial,Arial_MSFontService,sans-serif" font-weight="400" font-size="37" transform="matrix(1 0 0 1 2760.9 1561)">or</text><text fill="#404040" font-family="Arial,Arial_MSFontService,sans-serif" font-weight="400" font-size="50" transform="matrix(1 0 0 1 2628.85 1622)">apache</text></g></svg>