<svg xmlns="http://www.w3.org/2000/svg" xml:space="preserve" width="2052" height="551" overflow="hidden"><defs><linearGradient id="b" x1="135.16" x2="135.16" y1="8.58" y2="261.9" gradientUnits="userSpaceOnUse" spreadMethod="pad"><stop offset="0" stop-color="#E8E8E8"/><stop offset=".17" stop-color="#E9E9E9" stop-opacity="0"/><stop offset="1" stop-color="#E9E9E9" stop-opacity="0"/></linearGradient><linearGradient id="c" x1="134.99" x2="134.99" y1="41.67" y2="276.6" gradientUnits="userSpaceOnUse" spreadMethod="pad"><stop offset="0" stop-color="#491616"/><stop offset="1" stop-color="#EEE"/></linearGradient><linearGradient id="e" x1="135.16" x2="135.16" y1="8.58" y2="261.9" gradientUnits="userSpaceOnUse" spreadMethod="pad"><stop offset="0" stop-color="#E8E8E8"/><stop offset=".17" stop-color="#E9E9E9" stop-opacity="0"/><stop offset="1" stop-color="#E9E9E9" stop-opacity="0"/></linearGradient><linearGradient id="f" x1="134.99" x2="134.99" y1="41.67" y2="276.6" gradientUnits="userSpaceOnUse" spreadMethod="pad"><stop offset="0" stop-color="#163149"/><stop offset="1" stop-color="#EEE"/></linearGradient><clipPath id="a"><path d="M3330.49 2163.56a17.95 17.95 0 0 0-17.98 18v160.2c0 9.97 8.02 18 17.98 18h217.35c9.96 0 17.99-8.03 17.99-18v-160.2c0-9.97-8.03-18-17.99-18Z"/></clipPath><clipPath id="d"><path d="M3906.49 2185.56a17.95 17.95 0 0 0-17.99 17.98v221.4c0 9.96 8.03 17.98 17.99 17.98h217.35c9.96 0 17.99-8.02 17.99-17.98v-221.4c0-9.96-8.03-17.98-17.99-17.98Z"/></clipPath></defs><path fill="#C7C7C7" d="M572.66 154.72c-3.14 5.15-2.13 250.85 1.94 260.52 3.2 7.66 106.75 93.86 112.15 96.13 70.02-.44 117.22-26 125.05-39.5 3.01-16.95.44-278.34-2.38-283.8-2.5-4.78-134.96-52.3-139.6-53.44-4.2-.94-93.59 14.38-97.16 20.1Z"/><path fill="#FFF" fill-opacity=".54" stroke="#FFF" stroke-opacity=".54" stroke-width=".06" d="m364.95 153.08-3.25 1.38-3.26 1.44-3.26 1.44-3.33 1.57-3.32 1.56-3.32 1.63-3.32 1.63-3.39 1.7-3.38 1.69-3.39 1.75-3.45 1.76-3.38 1.82-3.45 1.82-3.45 1.81-6.95 3.76-7.03 3.77-7.02 3.76-7.08 3.82-7.15 3.76-7.14 3.76-7.15 3.7-3.57 1.82-3.57 1.82-3.64 1.75-3.57 1.76-1.7-.38-1.75-.44-3.51-.81-3.64-.88-3.7-.81-3.76-.88-3.82-.88-3.82-.88-3.95-.88-3.89-.87-3.95-.94-7.96-1.76-7.96-1.75-4.01-.88-3.95-.88-3.89-.81L185 194l-3.83-.81-3.76-.82-3.76-.81-3.64-.75-3.57-.76-1.75-.31-1.76-.38-1.7-.31-1.69-.38-1.69-.31-1.63-.31-1.63-.32-1.57-.37-1.56-.25-1.5-.32-1.51-.31-1.5-.25-1.45-.25-1.38-.32-1.38-.25-1.31-.18-1.32-.25-1.25-.26 3.26 1 3.26 1.01 3.32 1 3.38.94 3.45 1 3.45.95 3.57 1 3.51.94 3.58 1 3.63.94 7.27 1.95 7.34 1.88 7.4 1.94 7.4 1.94 7.33 1.88 7.27 1.95 3.63.94 3.58 1 3.57.94 3.51 1 3.45.94 3.45 1 3.38.95 3.32 1 3.26 1 3.26 1 .06 3.77.13 3.82.06 3.83.07 3.94.06 4.02.12 4 .07 4.08.06 4.14.06 4.2.06 4.2.07 4.26v4.33l.06 4.32.06 4.4.06 4.38v4.45l.07 4.45v4.51l.06 4.52.06 4.57.07 9.16.06 9.21v9.34l.06 9.34.13 18.74.06 18.8.06 9.35.06 9.28.07 9.21.06 9.15.06 4.58v4.51l.06 4.52.07 4.45v4.45l.06 4.45.06 4.32.07 4.4v4.25l.06 4.27.06 4.2.06 4.2.07 4.13.06 4.08.06 4.07.13 3.95.06 3.95.06 3.89.13 3.82.06 3.76.06-3.82.07-3.82v-3.95l.06-3.95.06-4.02.06-4.07.07-4.14.06-4.2.06-4.2.06-4.26.07-4.33.12-4.32.07-4.39.06-4.45.06-4.45.06-4.51.07-4.52.12-4.57.06-4.58.07-4.58.19-9.27.18-9.34.13-9.47.19-9.46.37-19 .32-19 .19-9.46.18-9.4.13-9.34.19-9.34.06-4.57.12-4.58.07-4.58.06-4.51.06-4.45.06-4.51.07-4.4.12-4.38.07-4.39.06-4.26.06-4.26.06-4.27.07-4.13.06-4.14.06-4.08.06-4 .07-4.02v-3.89l.06-3.88.06-3.76 6.9-3.7 6.83-3.7 6.83-3.57 6.84-3.64 6.77-3.57 6.7-3.64 6.71-3.57 6.7-3.64 6.59-3.63 6.58-3.64 6.52-3.76 6.46-3.76 3.2-1.88 3.13-1.94 3.2-1.95 3.13-1.94 3.13-1.94 3.14-2.01 3.07-2Z" transform="matrix(-1 0 0 1 942.69 6.48)"/><path fill-opacity=".16" stroke="#FFF" stroke-opacity=".16" stroke-width=".06" d="m151.7 415.48.63.88.62.81.7.82.74.81.76.75.75.76.88.75.81.75.88.75.94.7.94.68 1 .7.94.68 1.07.63 1 .63 1.07.68 1.13.57 1.12.63 1.13.56 1.13.5 1.2.56 1.18.5 1.2.5 1.18.51 2.51.94 2.5.88 2.58.75 2.57.69 2.63.63 2.57.56 2.63.5 2.57.38 2.58.37 2.56.2 1.32.12 1.26.06 1.19.06h3.7l1.19-.06 1.19-.06 1.13-.06 1.19-.07 1.06-.12 1.13-.2 1.07-.12 1.06-.19 1.07-.25 1-.25.94-.25.94-.25.94-.31.94-.31-.12-.07h-.07l-.31-.12-.38-.06-.44-.13-.5-.13-.62-.18-.63-.2-.75-.18-.82-.25-.88-.19-.94-.25-1-.31-1-.25-1.13-.32-1.13-.31-1.19-.31-1.25-.38-1.26-.31-1.31-.38-1.38-.38-1.38-.37-1.38-.38-1.44-.44-1.5-.37-3.01-.82-3.08-.88-3.13-.87-3.13-.82-3.14-.94-3.13-.81-3.07-.88-3.08-.82-1.44-.44-1.5-.37-1.44-.44-1.38-.38-1.38-.37-1.32-.38-1.32-.37-1.25-.32-1.19-.37-1.2-.32-1.12-.31-1.06-.31-1-.25-.95-.32-.94-.25-.81-.25-.76-.19-.75-.19-.63-.18-.56-.2-.44-.12-.44-.12-.31-.13h-.13Z" transform="matrix(-1 0 0 1 942.69 6.48)"/><path fill="#FFF" fill-opacity=".39" stroke="#FFF" stroke-opacity=".39" stroke-width=".06" d="m216.52 381.94-58.68-22.63-.56.25-.5.25-.5.25-.38.32-.38.38-.37.37-.32.44-.31.38-.25.44-.25.43-.19.44-.19.5-.19.5-.12.44-.19.94-.13.94-.12.88V369.78l.06.25v.38l9.16 3.2.06.06.06.06.06.06.06.13.13.12.06.2.2.18.12.19.18.25.2.25.18.25.25.31.25.25.25.38.32.25.62.75.63.7.81.75.82.75.88.81.94.75 1.06.82 1.07.75 1.19.75 1.2.7 1.3.68 1.39.63.69.25.69.31.75.25.75.26.81.18.76.2.81.18.82.19.81.12.82.07.88.12.87.06h2.76l.94-.06.94-.12.94-.13 1-.12 1-.2 1.01-.24 1-.25 1.07-.32 1.06-.37h.07l.12.06h.2l.37.06.37.06.44.07.5.06.57.06.62.06.7.07.75.06.75.06h.75l.81.07h1.64l.87-.07.82-.06.88-.06.81-.13.81-.12.76-.2.75-.18.75-.19.63-.31.69-.31.56-.38.5-.38.5-.5.2-.25.18-.25.19-.25.13-.25.12-.31Z" transform="matrix(-1 0 0 1 942.69 6.48)"/><path fill="#606060" d="M726.68 381.4c19.5-5.1 38.99-10.12 58.48-15.2.75 2.76.82 6.72-.37 8.79-2.95 1.44-8.9 2.57-11.85 4.02-8.53 8.22-15.99 8.91-29.59 7.78-5.26 1.07-10.53 1.95-15.73 3.02-1.63-3.2-2.07-4.52-.94-8.42Z"/><path fill="#FFF" fill-opacity=".4" stroke="#FFF" stroke-opacity=".4" stroke-width=".06" d="m367.09 151.32-113.65 63.75.44 285.16 111.26-93.65Z" transform="matrix(-1 0 0 1 942.69 6.48)"/><path fill-opacity=".16" stroke="#FFF" stroke-opacity=".16" stroke-width=".06" d="m158.28 433.53.63.82.69.75.62.81.7.7.68.75.7.69.74.69.76.62.75.63.75.63.82.62.75.57.81.56.82.5 1.7 1.07 1.75.94 1.75.88 1.76.81 1.81.7 1.82.68 1.88.56 1.88.5 1.82.5 1.88.38 1.88.32 1.88.25 1.88.19 1.88.12 1.82.13h1.82l1.82-.07 1.69-.12 1.76-.13 1.69-.19 1.63-.3 1.56-.32 1.51-.38 1.5-.37 1.38-.5-.12-.07h-.25l-.25-.12-.32-.07-.37-.12-.5-.13-.5-.12-.57-.13-.63-.19-.62-.18-.7-.2-.75-.18-.81-.25-.82-.19-.87-.25-.94-.25-.94-.25-.94-.31-1-.25-1.01-.32-1.07-.25-1.12-.31-2.2-.63-2.25-.63-2.39-.62-2.38-.63-2.38-.69-4.77-1.32-2.31-.62-2.32-.7-2.26-.62-1.07-.25-1.06-.31-1.07-.32-1-.25-1-.31-.94-.25-.94-.25-.88-.25-.88-.25-.81-.25-.76-.2-.69-.18-.75-.19-.63-.19-.56-.19-.5-.12-.5-.19-.44-.06-.38-.13-.31-.12-.25-.06ZM168 451.27l.75.94.75.88.82.88.87.75.88.81.88.7.94.68 1 .7.94.56 1.07.56 1 .57 1.07.44 1.13.43 1.06.44 1.13.32 1.13.31 1.13.31 1.19.2 1.13.24 1.19.13 1.13.12 1.19.06h2.38l1.13-.06 1.19-.12 1.13-.13 1.19-.19 1.13-.25 1.12-.25 1.13-.31 1.07-.38h-.06l-.13-.06h-.19l-.25-.06-.19-.06-.31-.13-.31-.06-.38-.13-.38-.06-.37-.13-.44-.12-.5-.13-.5-.12-.5-.2-.57-.12-.56-.12-1.2-.38-1.25-.31-1.38-.38-1.38-.37-1.44-.38-1.44-.44-3.01-.81-3-.82-1.45-.44-1.44-.37-1.44-.38-1.32-.38-1.32-.37-1.19-.38-.56-.12-.57-.2-.56-.12-.5-.12-.5-.13-.44-.12-.44-.13-.38-.12-.37-.13-.32-.12-.31-.07-.31-.06-.2-.06-.18-.06-.19-.07Z" transform="matrix(-1 0 0 1 942.69 6.48)"/><path fill="#FCFCFC" fill-opacity=".44" stroke="#FFF" stroke-opacity=".44" stroke-width=".06" d="m147.69 204.3-5.77.8-1.07 136.22 89.33 25.01 2.2-7.27-85.82-22.88Z" transform="matrix(-1 0 0 1 942.69 6.48)"/><path fill-opacity=".23" stroke="#FFF" stroke-opacity=".23" stroke-width=".06" d="m231.94 254.82-.13 3.82-84-24.2ZM233.19 282.52l-.19 3.83-83.93-24.2ZM231.94 308.16l-.13 3.83-84-24.2ZM231.94 333.36l-.13 3.82-84-24.25Z" transform="matrix(-1 0 0 1 942.69 6.48)"/><path fill="#9E9E9E" d="m794.69 214.25-83.5 20.9.7 137.95h-1.39l-.69-138.45v-.56l.5-.13 84.07-21.03.12.69Zm-84 21.03.5-.12v-.5h-.69Z"/><path fill="#EB99A1" fill-rule="evenodd" d="M433 445.5a53.5 53.5 0 1 1 107 0 53.5 53.5 0 0 1-107 0Z"/><text fill="#F0F0F0" font-family="Arial,Arial_MSFontService,sans-serif" font-size="46" font-weight="400" transform="translate(461.35 463)">80</text><path fill="#DA4453" fill-rule="evenodd" d="M433 274a54 54 0 1 1 108 0 54 54 0 0 1-108 0Z"/><text fill="#F0F0F0" font-family="Arial,Arial_MSFontService,sans-serif" font-size="46" font-weight="400" transform="translate(448.75 292)">443</text><text fill="#DA4453" font-family="Arial,Arial_MSFontService,sans-serif" font-size="64" font-weight="400" transform="translate(1345.62 82)">Services</text><path fill="#DA4453" d="M1450.84 266.56a18 18 0 0 1 17.99 18v160.2a18 18 0 0 1-17.99 18h-217.35a18 18 0 0 1-17.98-18v-160.2a18 18 0 0 1 17.98-18Z"/><g clip-path="url(#a)" transform="translate(-2097 -1897)"><path fill="none" stroke="url(#b)" stroke-width="8.41" d="M26.5 6.56a17.95 17.95 0 0 0-18 17.98v160.08c0 9.97 8.03 17.99 18 17.99h217.34c9.96 0 17.98-8.03 17.98-17.99V24.54c0-9.96-8.02-17.98-17.98-17.98Z" transform="translate(3304 2157)"/></g><path fill="#40363A" d="M1395.81 293.33a12.82 12.82 0 1 1-25.64 0 12.82 12.82 0 0 1 25.64 0ZM1424.39 293.33a12.82 12.82 0 1 1-25.64 0 12.82 12.82 0 0 1 25.64 0ZM1452.97 293.33a12.82 12.82 0 1 1-25.64 0 12.82 12.82 0 0 1 25.64 0Z"/><path fill="#120C0C" stroke="url(#c)" stroke-width="4.41" d="M241.78 59.91c7.04 0 12.74 5.7 12.74 12.73v109.67c0 7.03-5.7 12.73-12.74 12.73H28.01c-7.03 0-12.73-5.7-12.73-12.73V72.64c0-7.03 5.7-12.73 12.73-12.73Z" transform="translate(1207 260)"/><text
     fill="#d9d8dc"
     font-family="Arial, Arial_MSFontService, sans-serif"
     font-size="41.029px"
     font-weight="400"
     id="text49-9"
     x="1241.765"
     y="360.56534"
     style="stroke-width:0.82058">nginx</text><text
     fill="#d9d8dc"
     font-family="Arial, Arial_MSFontService, sans-serif"
     font-size="30.3615px"
     font-weight="400"
     id="text51"
     x="1351.9816"
     y="360.56534"
     style="stroke-width:0.82058">or</text><text
     fill="#d9d8dc"
     font-family="Arial, Arial_MSFontService, sans-serif"
     font-size="41.029px"
     font-weight="400"
     id="text49-4"
     x="1273.1293"
     y="398.96109"
     style="stroke-width:0.82058">caddy</text><text
     fill="#d9d8dc"
     font-family="Arial, Arial_MSFontService, sans-serif"
     font-size="30.3615px"
     font-weight="400"
     id="text51-8"
     x="1391.8016"
     y="398.96109"
     style="stroke-width:0.82058">or</text><text
     fill="#d9d8dc"
     font-family="Arial, Arial_MSFontService, sans-serif"
     font-size="41.029px"
     font-weight="400"
     id="text52"
     x="1303.7958"
     y="435.2381"
     style="stroke-width:0.82058">apache</text><text fill="#DA4453" font-family="Arial,Arial_MSFontService,sans-serif" font-size="64" font-weight="400" transform="translate(581.46 82)">Server</text><path fill="#EB99A1" d="M11.5 440.04h343.34a11.46 11.46 0 1 1 0 22.92H11.5a11.46 11.46 0 1 1 0-22.92Zm331.88-22.91 68.75 34.37-68.75 34.38Z"/><path fill="#EB99A1" fill-rule="evenodd" d="M57 427.5c0-6.9 5.6-12.5 12.5-12.5h154c6.9 0 12.5 5.6 12.5 12.5v50c0 6.9-5.6 12.5-12.5 12.5h-154c-6.9 0-12.5-5.6-12.5-12.5Z"/><text fill="#FFF" font-family="Arial,Arial_MSFontService,sans-serif" font-size="41" font-weight="400" transform="translate(92.79 468)">HTTP</text><path fill="#00A1E5" d="M2026.84 288.56c9.93 0 17.99 8.05 17.99 17.98v117.12c0 9.93-8.06 17.98-17.99 17.98h-217.35a17.98 17.98 0 0 1-17.98-17.98V306.54c0-9.93 8.05-17.98 17.98-17.98Z"/><g clip-path="url(#d)" transform="translate(-2097 -1897)"><path fill="none" stroke="url(#e)" stroke-width="8.41" d="M26.5 6.56a17.95 17.95 0 0 0-18 17.98v221.4c0 9.96 8.03 17.98 18 17.98h217.34c9.96 0 17.98-8.02 17.98-17.99V24.55c0-9.96-8.02-17.98-17.98-17.98Z" transform="translate(3880 2179)"/></g><path fill="#363C40" d="M1971.81 315.3a12.82 12.82 0 1 1-25.63 0 12.82 12.82 0 0 1 25.63 0ZM2000.39 315.3a12.82 12.82 0 1 1-25.63 0 12.82 12.82 0 0 1 25.63 0ZM2028.97 315.3a12.82 12.82 0 1 1-25.63 0 12.82 12.82 0 0 1 25.63 0Z"/><path fill="#120C0C" stroke="url(#f)" stroke-width="4.41" d="M241.78 59.91c7.04 0 12.74 5.7 12.74 12.73v67.15c0 7.04-5.7 12.74-12.74 12.74H28.01c-7.03 0-12.73-5.7-12.73-12.74V72.64c0-7.03 5.7-12.73 12.73-12.73Z" transform="translate(1783 282)"/><text fill="#D9D8DC" font-family="Arial,Arial_MSFontService,sans-serif" font-size="50" font-weight="400" transform="translate(1845.44 408)">SSHD</text><path fill="none" stroke="#DA4453" stroke-linecap="round" stroke-linejoin="round" stroke-miterlimit="10" stroke-width="22.92" d="M11.5 330.5h283.09"/><path fill="#DA4453" fill-rule="evenodd" d="M57 302.67c0-7 5.67-12.67 12.67-12.67h153.66c7 0 12.67 5.67 12.67 12.67v50.66c0 7-5.67 12.67-12.67 12.67H69.67c-7 0-12.67-5.67-12.67-12.67Z"/><text fill="#FFF" font-family="Arial,Arial_MSFontService,sans-serif" font-size="41" font-weight="400" transform="translate(78.98 343)">HTTP</text><text fill="#FFF" font-family="Arial,Arial_MSFontService,sans-serif" font-size="41" font-weight="400" transform="translate(186.69 343)">S</text><path fill="none" stroke="#DA4453" stroke-linecap="round" stroke-linejoin="round" stroke-miterlimit="10" stroke-width="22.92" d="M11.5 212.5h283.09"/><path fill="#00A1E5" fill-rule="evenodd" stroke="#DA4453" stroke-miterlimit="8" stroke-width="13.75" d="M62 187.5A11.5 11.5 0 0 1 73.5 176h146a11.5 11.5 0 0 1 11.5 11.5v46a11.5 11.5 0 0 1-11.5 11.5h-146A11.5 11.5 0 0 1 62 233.5Z"/><text fill="#FFF" font-family="Arial,Arial_MSFontService,sans-serif" font-size="41" font-weight="400" transform="translate(104.19 226)">SSH</text><path fill="none" stroke="#DA4453" stroke-linecap="round" stroke-linejoin="round" stroke-miterlimit="10" stroke-width="22.92" d="m295.5 328.31.1-68.81M295.64 267.01l-.14-54.51"/><path fill="#DA4453" d="M295.5 259.04h59.45a11.46 11.46 0 1 1 0 22.92H295.5a11.46 11.46 0 1 1 0-22.92Zm47.99-22.92 68.75 34.38-68.75 34.38Z"/><path fill="#00A1E5" d="M1504.5 364.04h228.75a11.46 11.46 0 1 1 0 22.92H1504.5a11.46 11.46 0 1 1 0-22.92Zm217.29-11.46 45.83 22.92-45.83 22.92Z"/><path fill="#00A1E5" fill-rule="evenodd" d="M1542 349.5c0-6.9 5.6-12.5 12.5-12.5h122c6.9 0 12.5 5.6 12.5 12.5v50c0 6.9-5.6 12.5-12.5 12.5h-122c-6.9 0-12.5-5.6-12.5-12.5Z"/><text fill="#F0F0F0" font-family="Arial,Arial_MSFontService,sans-serif" font-size="41" font-weight="400" transform="translate(1573.31 389)">SSH</text><path fill="#DA4453" d="M873.5 304.04h286.86a11.46 11.46 0 1 1 0 22.92H873.5a11.46 11.46 0 1 1 0-22.92Zm275.4-11.46 45.83 22.92-45.83 22.92Z"/><path fill="#DA4453" fill-rule="evenodd" d="M905 289.5c0-6.9 5.6-12.5 12.5-12.5h153c6.9 0 12.5 5.6 12.5 12.5v50c0 6.9-5.6 12.5-12.5 12.5h-153c-6.9 0-12.5-5.6-12.5-12.5Z"/><text fill="#FFF" font-family="Arial,Arial_MSFontService,sans-serif" font-size="41" font-weight="400" transform="translate(926.18 330)">HTTPS</text><path fill="#EB99A1" d="M873.5 410.04h286.86a11.46 11.46 0 1 1 0 22.92H873.5a11.46 11.46 0 1 1 0-22.92Zm275.4-11.46 45.83 22.92-45.83 22.92Z"/><path fill="#EB99A1" fill-rule="evenodd" d="M908 397.5c0-6.9 5.6-12.5 12.5-12.5h154c6.9 0 12.5 5.6 12.5 12.5v50c0 6.9-5.6 12.5-12.5 12.5h-154c-6.9 0-12.5-5.6-12.5-12.5Z"/><text fill="#FFF" font-family="Arial,Arial_MSFontService,sans-serif" font-size="41" font-weight="400" transform="translate(943.5 437)">HTTP</text><path fill="none" stroke="#DA4453" stroke-linecap="round" stroke-linejoin="round" stroke-miterlimit="10" stroke-width="22.92" d="M874.5 205.5h238.61"/><path fill="#00A1E5" fill-rule="evenodd" stroke="#DA4453" stroke-miterlimit="8" stroke-width="13.75" d="M910 181.5a11.5 11.5 0 0 1 11.5-11.5h142a11.5 11.5 0 0 1 11.5 11.5v46a11.5 11.5 0 0 1-11.5 11.5h-142a11.5 11.5 0 0 1-11.5-11.5Z"/><text fill="#F0F0F0" font-family="Arial,Arial_MSFontService,sans-serif" font-size="41" font-weight="400" transform="translate(950.12 220)">SSH</text><path fill="none" stroke="#DA4453" stroke-linecap="round" stroke-linejoin="round" stroke-miterlimit="10" stroke-width="22.92" d="M1117.5 304.2v-96.7"/></svg>