
<svg xmlns="http://www.w3.org/2000/svg" xmlns:xlink="http://www.w3.org/1999/xlink" width="3.9ex" height="2.3ex" aria-hidden="true" style="vertical-align:-.566ex" viewBox="0 -750 1728 1000"><defs><path id="a" d="M94 612q78 4 117 20t73 46h23V73h123V0H88v73h125v244l-1 243q-2-2-15-6t-42-8-59-6l-13-1v73h11Z"/><path id="c" d="M166 404q28 20 75 35t96 16h4q69 0 110-85 32-63 32-148 0-94-50-163T306-10q-24 0-46 5T222 7t-28 14-18 12-8 5v-232H75v638h90v-20l1-20Zm224-182q0 65-36 109t-88 45-89-36l-9-8V118q32-52 89-52 56 0 94 46t39 110Z"/><path id="d" d="M187 229 6 444h101l120-150 117 150h49l49-1q-3-6-143-175l-32-39L460 0H359l-65 88-32 43-26 35-9 11L100 0H0l47 58 93 113q47 56 47 58Z"/></defs><g fill="currentColor" stroke="currentColor" stroke-width="0" data-mml-node="math"><g data-mml-node="mstyle"><g data-mjx-texclass="ORD" data-mml-node="TeXAtom"><g data-mml-node="mtable"><g data-mml-node="mtr"><g data-mml-node="mtd"><use xlink:href="#a" data-c="1D7E3" data-mml-node="mn" transform="scale(1 -1)"/><g data-mml-node="mtext" transform="matrix(1 0 0 -1 500 0)"><use xlink:href="#b" data-c="A0"/><use xlink:href="#c" data-c="1D5C9" transform="translate(250)"/><use xlink:href="#d" data-c="1D5D1" transform="translate(767)"/></g></g></g></g></g></g></g></svg>