<svg xmlns="http://www.w3.org/2000/svg" xmlns:xlink="http://www.w3.org/1999/xlink" width="18.2ex" height="3.1ex" aria-hidden="true" style="vertical-align:-.982ex" viewBox="0 -934 8030 1368"><defs><path id="d" d="m263 249 52-119 102-238q51-119 53-120l255 530 257 537q7 11 19 11 7 0 12-6t7-12v-6L741 243 540-176l-71-148q-10-21-16-24-4-2-17-2l-12 1L315-96 205 156l-34-26-34-26-26 26 152 119Z"/><path id="a" d="M94 612q78 4 117 20t73 46h23V73h123V0H88v73h125v244l-1 243q-2-2-15-6t-42-8-59-6l-13-1v73h11Z"/><path id="b" d="M222 599q-32 0-56-14t-38-35-20-41-11-35-4-15l-26 33-25 34 5 13q25 69 73 103t105 35q79 0 130-33 94-65 94-190 0-81-88-164l-46-40q-36-30-116-106l-62-59 156 1h156V0H50v79l166 163q68 60 101 107t34 107q0 61-36 102t-93 41Z"/><path id="c" d="M56 237v13l14 20h299v150l1 150q10 13 19 13 13 0 20-15V270h298q15-8 15-20t-15-20H409V-68q-8-14-18-14h-4q-12 0-18 14v298H70q-14 7-14 20Z"/><path id="e" d="M56 350q0 13 14 20h637q15-8 15-20 0-11-14-19l-318-1H72q-16 5-16 20Zm0-200q0 15 16 20h636q14-10 14-20 0-12-15-20H70q-14 7-14 20Z"/><path id="f" d="M95 178q-6 0-14 8t-9 14 31 30 66 50 38 29q2 2 5 2h1q6 0 14-17t54-117l31-69 85-185 104 213 206 429q103 216 107 221 6 14 20 14 7 0 12-6t7-12v-6L620 293 385-193q-4-7-19-7-9 0-12 3L256 15l-96 210-16-11-31-24q-16-12-18-12Z"/><path id="h" d="M166 404q28 20 75 35t96 16h4q69 0 110-85 32-63 32-148 0-94-50-163T306-10q-24 0-46 5T222 7t-28 14-18 12-8 5v-232H75v638h90v-20l1-20Zm224-182q0 65-36 109t-88 45-89-36l-9-8V118q32-52 89-52 56 0 94 46t39 110Z"/><path id="i" d="M187 229 6 444h101l120-150 117 150h49l49-1q-3-6-143-175l-32-39L460 0H359l-65 88-32 43-26 35-9 11L100 0H0l47 58 93 113q47 56 47 58Z"/></defs><g fill="currentColor" stroke="currentColor" stroke-width="0" data-mml-node="math"><g data-mml-node="mstyle"><g data-mjx-texclass="ORD" data-mml-node="TeXAtom"><g data-mml-node="mtable"><g data-mml-node="mtr"><g data-mml-node="mtd"><g data-mml-node="msqrt"><g data-mml-node="msup"><use xlink:href="#a" data-c="1D7E3" data-mml-node="mn" transform="matrix(1 0 0 -1 1020 184)"/><g data-mjx-texclass="ORD" data-mml-node="TeXAtom"><use xlink:href="#b" data-c="1D7E4" data-mml-node="mn" transform="matrix(.707 0 0 -.707 1553 -105)"/></g></g><use xlink:href="#c" data-c="2B" data-mml-node="mo" transform="matrix(1 0 0 -1 2179 184)"/><g data-mml-node="msup"><use xlink:href="#a" data-c="1D7E3" data-mml-node="mn" transform="matrix(1 0 0 -1 3179 184)"/><g data-mjx-texclass="ORD" data-mml-node="TeXAtom"><use xlink:href="#b" data-c="1D7E4" data-mml-node="mn" transform="matrix(.707 0 0 -.707 3712 -105)"/></g></g><use xlink:href="#d" data-c="221A" data-mml-node="mo" transform="matrix(1 0 0 -1 0 -24)"/><path stroke="none" d="M1020-814h3096v-60H1020z"/></g><use xlink:href="#e" data-c="3D" data-mml-node="mo" transform="matrix(1 0 0 -1 4393 184)"/><g data-mml-node="msqrt"><use xlink:href="#b" data-c="1D7E4" data-mml-node="mn" transform="matrix(1 0 0 -1 6302 184)"/><use xlink:href="#f" data-c="221A" data-mml-node="mo" transform="matrix(1 0 0 -1 5449 30)"/><path stroke="none" d="M6302-710h500v-60h-500z"/></g><g data-mml-node="mtext" transform="matrix(1 0 0 -1 6802 184)"><use xlink:href="#g" data-c="A0"/><use xlink:href="#h" data-c="1D5C9" transform="translate(250)"/><use xlink:href="#i" data-c="1D5D1" transform="translate(767)"/></g></g></g></g></g></g></g></svg>