<svg xmlns="http://www.w3.org/2000/svg" viewBox="0 0 4453 2860">
  <defs>
    <clipPath id="p">
      <path d="M2172 2224c-13 12-26 14-38 17l-240 52-14 4v4h18c135-3 269-7 404-9 35-1 69 0 104 1l37 5a52 52 0 01-31 15c-33 6-66 12-99 15l-375 44-70 8c3 11 11 10 16 12 70 23 141 45 211 69 53 17 105 37 161 57-18 7-32 3-47 0-109-20-217-47-323-78l-297-88c-12-4-25-7-36-13-8-4-15-10-20-18-12-19-1-36 22-37l107-9 310-35 185-16z" class="d"/>
    </clipPath>
    <clipPath id="r">
      <path d="M1314 2488c29 4 57 7 85 12 102 18 203 35 305 55 89 16 177 35 266 54 29 6 56 15 84 26l-13 2c-133-12-266-25-399-43-85-11-171-17-257-25l-79-7c4 9 12 11 17 13l260 133 70 38c4 2 9 4 12 7s7 8 6 11-7 7-11 7a99 99 0 01-25-5c-99-35-199-68-298-104-102-36-203-75-305-113l-20-8c-22-8-33-24-41-44-6-18-1-27 18-29l131-11 216-15c61-2 124-2 185-3 7 0 14 2 21 5-75 23-152 26-228 37z" class="e"/>
    </clipPath>
    <clipPath id="t">
      <path d="M498 1954l-369-263s6-41 8-68c0-6 66-205 66-205l35-232 119-237 115-102 98-86 15-15-2-3c-4 2-9 4-12 7l-82 64-56 41a19 19 0 01-14 4l134-154-3-3-59 30c2-7 1-12 3-14a72 72 0 0114-14c9-7 18-14 28-19 40-17 104-72 104-72l588-447 662-18s84 38 91 43c19 12 62 53 81 54a100 100 0 0156 26c18 17 49 67 84 65 135 8 202 54 202 54l353 39s336 168 337 172c7 23 13 48 17 72 4 26 18 45 35 63 8 8 11 16 9 27l-18 2c0 3-2 8-1 11 45 145 39 391-254 511l3-13c-66 29-144 90-211 96-3-11 8-13 11-22-60 26-227-5-309 357-8 46-29 86-59 122l-48 59z" class="k"/>
    </clipPath>
    <clipPath id="y">
      <path d="M3462 1105c-7 26-51 175-55 202s-6 56-9 85a9775 9775 0 00-7 121c0 46-3 92-9 137-1 7-4 14-6 20-11 0-15-6-17-14l-8-55-7-125-1-56-4-85a43 43 0 00-5-17c-16-32-20-67-23-102-2-19-4-38-11-57-9-23-9-47-13-73 79 6 159 15 175 19z" class="m"/>
    </clipPath>
    <clipPath id="aa">
      <path d="M3455 1473c-3-6-6-11-7-17-4-24-8-48-10-71-1-17 2-33 2-50l-8-108c-2 0-12-115-9-128 23 3 29 3 97 14-1 20-9 41-12 60-6 39-19 76-22 116-4 56-12 112-19 168-1 5-5 11-7 16z" class="n"/>
    </clipPath>
    <clipPath id="ac">
      <path d="M4033 1258c-8 31-8 58-7 85a353 353 0 01-10 91c-2 9-1 17-2 26l-6 33c-2 5-7 12-11 13-8 1-11-7-12-13-3-11-5-23-6-34v-62l-7-147v-40c0-4 2-8 4-15l78 20z" class="o"/>
    </clipPath>
    <clipPath id="ae">
      <path d="M4025 1208l101 23c17 4 17 6 12 22-4 12-9 25-12 38-4 15-7 31-8 47l-4 107-4 106-3 27-9 69a52 52 0 01-7 21c-6 9-15 9-20-2a37 37 0 01-4-11l-3-36-5-71-4-104v-96c-1-30-12-58-22-90z" class="p"/>
    </clipPath>
    <clipPath id="ag">
      <path d="M3741 1152l-13 77c-2 15-5 29-6 44-2 47-4 94-3 141 0 38-7 75-10 113-2 17-2 34-3 52l-8 65c-1 12-9 20-20 25-11-4-14-14-14-23-1-56-17-111-14-167 1-18-3-37-7-55-4-24-4-47-2-72s0-47-1-71l-3-40-7-109c39 7 75 9 111 20z" class="q"/>
    </clipPath>
    <clipPath id="ai">
      <path d="M4301 1530c-2-5-5-10-5-16-3-41-7-82-8-123-1-33 3-121 3-121l48 14-4 35-13 155a398 398 0 01-7 43c-1 5-5 9-8 14-1 3-5 3-6-1z" class="r"/>
    </clipPath>
    <clipPath id="ak">
      <path fill="url(#n)" stroke="#000" stroke-miterlimit="10" stroke-width="4" d="M2729 998l43-18c59-27 136-75 158-79 0 0 14-6 33 0s413 94 413 94l261 60 182 45 224 62 66 21s148 45 283 103l45 22-83-18-329-83s-150-40-418-81-299-39-299-39l-257-19-94-2c-29 0-76-17-76-17z"/>
    </clipPath>
    <clipPath id="an">
      <path d="M145 1590s5-24 9-4c0 0-32 98-5 93 0 0 30-26 55 10 0 1 24 84 59 6 0 0 34-46 82-8 0 0 14 6 5-46s44-65 44-65-29-21-4-61c0 0 9-11 20 8 0 0 7-43 53-41 0 0 30 3 18 49 0 0-32 53-10 80 0 0 46 22 33 76s-6 92 34 83 78 47 70 62c0 0 22 6 38-34s71-22 68 7c0 0 37 11 50-28 0 0-3-40 25-44s29 31 24 50 35 21 35 21 10 2 4 19 4 92 27 86c0 0 18 8 32-8l10-45-11-12s-23 22-32-5c-13-38 33-115 68-69 0 0 15-26 46-18 0 0-5-97 54-81 0 0-8-149 44-161s22 107 22 107 34 31 26 77-19 40-40 34c0 0-13 42 18 70 0 0 3 8 17 4 0 0 17-28 63-8 0 0 38-6 45 11 0 0 28 12 53-47 0 0 27-63 70-59s40 81 29 115c0 0 14 17 38 4s42 3 42 3 37-9 43-23 40-31 61-21 45 41 87 54c50 15 58-46 68-49 0 0 17-7 24-5 0 0 16-107 44-117s29 65 29 65 47-83 28-158c0 0-34-3-16-55 0 0 29-45 40 0 0 0 43-39 71-9 0 0 32 4 30 62-2 42 40 30 40 30s28-2 25 28-8 131 37 122 55-24 67-19l64 28c29 13 41-116 41-116s-51-35-15-64c43-36 48 31 52 36 0 0 31 17 34 39s2 80-11 115l8 8s6 54-42 99c0 0-53 80-101 62 0 0-37 24-47 36l-30 38s24 24-138 86c0 0-28 60-63 56 0 0-27 59-61 77 0 0 0 10-15 23l-147 49c-212 49-179 142-232 123 0 0-143 219-366 73 0 0-131 39-213-18s-162-70-162-70-65-6-93-45c0 0-26 6-46-13 0 0-124-131-142-227 0 0-34-12-40-52 0 0-33-32-16-44l-12-9s-114 31-152-96c0 0-26-22-28-51l-13-8s-17-47-17-70a109 109 0 01-13-33s8-25-1-36c0 0-30-37 6-131z" class="f"/>
    </clipPath>
    <clipPath id="ao">
      <ellipse cx="785.5" cy="1373" class="g" rx="38.9" ry="21" transform="rotate(-80 785 1373)"/>
    </clipPath>
    <clipPath id="ap">
      <ellipse cx="572.8" cy="1687" class="g" rx="27.4" ry="19.7" transform="rotate(-80 573 1687)"/>
    </clipPath>
    <clipPath id="aq">
      <ellipse cx="1493.4" cy="1530.4" class="g" rx="18.2" ry="17.5" transform="rotate(-46 1493 1530)"/>
    </clipPath>
    <clipPath id="ar">
      <ellipse cx="832.5" cy="1433.5" class="g" rx="21" ry="13" transform="rotate(-83 833 1434)"/>
    </clipPath>
    <clipPath id="as">
      <ellipse cx="271.3" cy="1474.8" class="h" rx="11.7" ry="7.4" transform="rotate(-83 272 1475)"/>
    </clipPath>
    <clipPath id="at">
      <ellipse cx="1254.5" cy="1017.5" class="i" rx="17" ry="22"/>
    </clipPath>
    <clipPath id="ay">
      <path d="M1622 1486s31 5 29 41-21 38-29 29c0 0-8 66-56 65-40-1-33-35-33-35s9-81-4-126c0 0 0-44 40-49 55-8 53 75 53 75z" class="j"/>
    </clipPath>
    <clipPath id="az">
      <path d="M613 1587c-10-2-37-16-11-56 3-39 65-38 41 35 0 0 34-8 43 11-1 1 10 134-57 127-53-6-34-110-16-117z" class="j"/>
    </clipPath>
    <clipPath id="ba">
      <path d="M241 1648s-41 6-26-61 65-38 60-31 8-23-3 69c0 0-4 24-31 23z" class="g"/>
    </clipPath>
    <clipPath id="bb">
      <path d="M613 1924s-19 57 23 100" class="l"/>
    </clipPath>
    <clipPath id="bc">
      <path d="M633 1906c11 35 59 51 21 101-22 29-21-101-21-101z" class="l"/>
    </clipPath>
    <radialGradient id="a" cx="2656.8" cy="839.9" r="308.4" gradientTransform="matrix(1.08 .32 -.3 1.16 -107 -953)" gradientUnits="userSpaceOnUse">
      <stop offset="0" stop-color="#fff"/>
      <stop offset=".5" stop-color="#858585"/>
      <stop offset="1"/>
    </radialGradient>
    <radialGradient id="b" cx="2182.4" cy="1272.3" r="308.4" gradientTransform="matrix(.52 -.68 1.02 .35 -392 2467)" gradientUnits="userSpaceOnUse">
      <stop offset="0" stop-color="#fff"/>
      <stop offset=".1" stop-color="#ececec"/>
      <stop offset=".3" stop-color="#a5a5a5"/>
      <stop offset=".5" stop-color="#6a6a6a"/>
      <stop offset=".6" stop-color="#3c3c3c"/>
      <stop offset=".8" stop-color="#1b1b1b"/>
      <stop offset=".9" stop-color="#070707"/>
      <stop offset="1"/>
    </radialGradient>
    <radialGradient id="c" cx="2235.9" cy="2006.9" r="308.4" gradientTransform="matrix(.64 .41 -.27 .98 1883 -2183)" gradientUnits="userSpaceOnUse">
      <stop offset=".2" stop-color="#fff"/>
      <stop offset=".2" stop-color="#ebebeb"/>
      <stop offset=".4" stop-color="#a5a5a5"/>
      <stop offset=".5" stop-color="#6a6a6a"/>
      <stop offset=".7" stop-color="#3c3c3c"/>
      <stop offset=".8" stop-color="#1b1b1b"/>
      <stop offset=".9" stop-color="#070707"/>
      <stop offset="1"/>
    </radialGradient>
    <radialGradient id="f" cx="1531.6" cy="1724.7" r="2018.5" gradientTransform="rotate(-4 14620 1267) scale(1 .47)" gradientUnits="userSpaceOnUse">
      <stop offset="0" stop-color="#bdd7e6"/>
      <stop offset=".1" stop-color="#b4cedd"/>
      <stop offset=".2" stop-color="#9db6c5"/>
      <stop offset=".4" stop-color="#768e9e"/>
      <stop offset=".5" stop-color="#647b8b"/>
      <stop offset=".7" stop-color="#667d8d"/>
      <stop offset=".8" stop-color="#6c8494"/>
      <stop offset=".9" stop-color="#7790a0"/>
      <stop offset=".9" stop-color="#86a1b2"/>
      <stop offset="1" stop-color="#9ab7c8"/>
      <stop offset="1" stop-color="#adccde"/>
    </radialGradient>
    <radialGradient id="g" cx="1905.7" cy="963.7" r="1428" gradientTransform="rotate(-16 3109 789) scale(1 .64)" gradientUnits="userSpaceOnUse">
      <stop offset="0" stop-color="#5c3c29"/>
      <stop offset=".3" stop-color="#593a28"/>
      <stop offset=".6" stop-color="#4e3223"/>
      <stop offset=".8" stop-color="#3d251b"/>
      <stop offset="1" stop-color="#2d1a14"/>
    </radialGradient>
    <radialGradient id="h" cx="3405.9" cy="1119.7" r="526.6" gradientTransform="rotate(88 2977 705) scale(1 .26)" gradientUnits="userSpaceOnUse">
      <stop offset="0" stop-color="#9bcfdb"/>
      <stop offset=".1" stop-color="#92bace"/>
      <stop offset=".4" stop-color="#869ebc"/>
      <stop offset=".5" stop-color="#8294b6"/>
      <stop offset=".5" stop-color="#7c90b1"/>
      <stop offset=".6" stop-color="#6884a2"/>
      <stop offset=".7" stop-color="#5a7b98"/>
      <stop offset=".8" stop-color="#517692"/>
      <stop offset="1" stop-color="#4f7490"/>
    </radialGradient>
    <radialGradient id="i" cx="3490.3" cy="1150.2" r="269.1" gradientTransform="matrix(-.1908 .98163 -.46136 -.08968 4682 -2174)" gradientUnits="userSpaceOnUse">
      <stop offset="0" stop-color="#9bcfdb"/>
      <stop offset=".2" stop-color="#80a7bd"/>
      <stop offset=".4" stop-color="#6b86a5"/>
      <stop offset=".5" stop-color="#637a9c"/>
      <stop offset=".6" stop-color="#5a7797"/>
      <stop offset=".8" stop-color="#527592"/>
      <stop offset="1" stop-color="#4f7490"/>
    </radialGradient>
    <radialGradient id="j" cx="4015.8" cy="1229.9" r="325.4" gradientTransform="matrix(-.06 1 -.15 -.01 4438 -2768)" gradientUnits="userSpaceOnUse">
      <stop offset="0" stop-color="#4f7490"/>
      <stop offset=".2" stop-color="#517692"/>
      <stop offset=".3" stop-color="#5a7b98"/>
      <stop offset=".4" stop-color="#6884a2"/>
      <stop offset=".5" stop-color="#7c90b1"/>
      <stop offset=".5" stop-color="#8294b6"/>
      <stop offset=".6" stop-color="#869ebc"/>
      <stop offset=".9" stop-color="#92bace"/>
      <stop offset="1" stop-color="#9bcfdb"/>
    </radialGradient>
    <radialGradient id="k" cx="4087.9" cy="1248.4" r="442.3" fx="4097.5" fy="1147.5" gradientTransform="rotate(90 3617 776) scale(1 .24)" gradientUnits="userSpaceOnUse">
      <stop offset="0" stop-color="#a6d4df"/>
      <stop offset="0" stop-color="#a0ccda"/>
      <stop offset=".3" stop-color="#7592b0"/>
      <stop offset=".4" stop-color="#596d96"/>
      <stop offset=".5" stop-color="#4f5f8c"/>
      <stop offset=".5" stop-color="#4f608c"/>
      <stop offset=".6" stop-color="#4f6b8e"/>
      <stop offset=".7" stop-color="#4f7290"/>
      <stop offset="1" stop-color="#4f7490"/>
    </radialGradient>
    <radialGradient id="l" cx="3705.5" cy="1179.6" r="442.4" fx="3696.2" gradientTransform="matrix(0 1 -.5 0 4295 -2526)" gradientUnits="userSpaceOnUse">
      <stop offset="0" stop-color="#97c8d7"/>
      <stop offset=".1" stop-color="#76a2b7"/>
      <stop offset=".2" stop-color="#59819b"/>
      <stop offset=".3" stop-color="#4e7490"/>
      <stop offset=".4" stop-color="#5b7f9f"/>
      <stop offset=".5" stop-color="#6a8db0"/>
      <stop offset=".6" stop-color="#7394bb"/>
      <stop offset=".8" stop-color="#7697be"/>
    </radialGradient>
    <radialGradient id="m" cx="4314.7" cy="1330.2" r="219.1" gradientTransform="matrix(0 1 -.1 0 4448 -2984)" gradientUnits="userSpaceOnUse">
      <stop offset="0" stop-color="#5c7297"/>
      <stop offset=".8" stop-color="#7a9ac0"/>
      <stop offset="1" stop-color="#9bcfdb"/>
    </radialGradient>
    <radialGradient id="au" cx="1418.1" cy="267.7" r="370" fx="1613.6" fy="113.6" gradientUnits="userSpaceOnUse">
      <stop offset="0" stop-color="#dfebf2"/>
      <stop offset=".3" stop-color="#bed7e5"/>
      <stop offset=".6" stop-color="#adccde"/>
    </radialGradient>
    <radialGradient id="av" cx="1359.8" cy="814.3" r="152.4" fx="1381.5" fy="785.4" gradientTransform="matrix(1 0 0 .55 0 369)" gradientUnits="userSpaceOnUse">
      <stop offset=".4" stop-color="#dfebf2"/>
      <stop offset=".6" stop-color="#d2e3ed"/>
      <stop offset="1" stop-color="#afcddf"/>
      <stop offset="1" stop-color="#adccde"/>
    </radialGradient>
    <radialGradient id="aw" cx="2699.1" cy="436" r="156.5" gradientTransform="rotate(14 1594 301) scale(1 .37)" gradientUnits="userSpaceOnUse">
      <stop offset="0" stop-color="#dfebf2"/>
      <stop offset=".3" stop-color="#d5e5ee"/>
      <stop offset=".8" stop-color="#bad4e3"/>
      <stop offset="1" stop-color="#adccde"/>
    </radialGradient>
    <radialGradient id="ax" cx="285.1" cy="1171.5" r="149" fx="297.5" fy="1067" gradientUnits="userSpaceOnUse">
      <stop offset="0" stop-color="#dfebf2"/>
      <stop offset=".2" stop-color="#d0e1ec"/>
      <stop offset=".4" stop-color="#bcd5e4"/>
      <stop offset=".7" stop-color="#b1cee0"/>
      <stop offset="1" stop-color="#adccde"/>
    </radialGradient>
    <linearGradient id="d" x1="1822.5" x2="2179.4" y1="2082.2" y2="2573.4" gradientUnits="userSpaceOnUse">
      <stop offset=".3" stop-color="#453634"/>
      <stop offset=".4" stop-color="#483936"/>
      <stop offset=".4" stop-color="#51413d"/>
      <stop offset=".5" stop-color="#614f48"/>
      <stop offset=".5" stop-color="#6f5b51"/>
    </linearGradient>
    <linearGradient id="e" x1="1419.4" x2="1598.3" y1="2310" y2="2801.4" gradientUnits="userSpaceOnUse">
      <stop offset=".5" stop-color="#453634"/>
      <stop offset=".5" stop-color="#483936"/>
      <stop offset=".6" stop-color="#51413d"/>
      <stop offset=".6" stop-color="#614f48"/>
      <stop offset=".6" stop-color="#6f5b51"/>
    </linearGradient>
    <linearGradient id="n" x1="2729" x2="4437" y1="1103.2" y2="1103.2" gradientUnits="userSpaceOnUse">
      <stop offset="0" stop-color="#725647"/>
      <stop offset="1" stop-color="#7b7b7b"/>
    </linearGradient>
    <linearGradient id="al" x1="2742.2" x2="4415.5" y1="1076.5" y2="1076.5" gradientUnits="userSpaceOnUse">
      <stop offset="0" stop-color="#cab2a2"/>
      <stop offset="1" stop-color="#afccdd"/>
    </linearGradient>
    <mask id="u" width="879" height="813" x="2112" y="471" maskUnits="userSpaceOnUse">
      <ellipse cx="2511.2" cy="877" fill="url(#a)" rx="345.8" ry="371.2" transform="rotate(-30 2515 877)"/>
    </mask>
    <mask id="v" width="736" height="806" x="1698" y="1007" maskUnits="userSpaceOnUse">
      <ellipse cx="2040.4" cy="1416.6" fill="url(#b)" rx="353.6" ry="236.1" transform="rotate(-67 2039 1417)"/>
    </mask>
    <mask id="w" width="709" height="712.5" x="2399" y="419" maskUnits="userSpaceOnUse">
      <ellipse cx="2774.4" cy="707.5" fill="url(#c)" rx="214.9" ry="327.8" transform="rotate(-39 2773 708)"/>
    </mask>
    <style>
      .d{fill:url(#d)}.e{fill:url(#e)}.f{fill:url(#f)}.g{fill:#677f8f}.h{fill:#aeccdd}.i{fill:#6e8595}.j{fill:#adccde}.k{fill:url(#g)}.l{fill:#2d1a14}.m{fill:url(#h)}.n{fill:url(#i)}.o{fill:url(#j)}.p{fill:url(#k)}.q{fill:url(#l)}.r{fill:url(#m)}.be,.bf,.bg,.bl,.bm{stroke:#000}.aa,.ac,.ae,.ag,.ah,.ai,.al,.am,.ao,.ap,.aq,.as,.au,.aw,.ax,.ay,.ba,.bb,.be,.bf,.bg,.bl,.bm,.bo,.y{stroke-miterlimit:10}.ac,.bf{stroke-width:4px}.u,.w{letter-spacing:-.06em}.aa,.ac,.ae,.ag,.ah,.ai,.al,.am,.ao,.ap,.aq,.as,.au,.aw,.ax,.ay,.ba,.bb,.be,.bf,.bg,.bl,.bm,.bo,.y{fill:none}.aa,.ac,.ae,.y{stroke:#221b19}.bl,.y{stroke-width:5px}.aa,.bg{stroke-width:6px}.ab{fill:#221b19}.ae,.be{stroke-width:7px}.ag,.ah,.ai,.al,.am,.ao,.au{stroke:#4b3021}.ag,.ah,.ai,.al,.am,.ao,.ap,.aq,.as,.au,.aw,.ax,.ay,.ba,.bb,.be,.bf,.bg,.bl,.bm,.bo{stroke-linecap:round}.ag,.bb{stroke-width:20px}.ah{stroke-width:13px}.ai{stroke-width:18px}.aw{stroke-width:17px}.al,.ay{stroke-width:14px}.am,.as,.ba{stroke-width:19px}.ao,.aq{stroke-width:16px}.ap,.aq,.as{stroke:#382419}.ap,.au,.ax,.bo{stroke-width:15px}.aw,.ax,.ay,.ba,.bb{stroke:#657c8c}.bd{fill:#657c8c}.bm{stroke-width:9px}.bn{fill:#311d16}.bo{stroke:#311d16}.bs{fill:#87634a}.bx{fill:#fff}.bz{fill:#eff7f9}.ck{fill:#647b8b}.cq{fill:#adcbdd}.cx{fill:#6a8190}
    </style>
  </defs>
  <text font-family="ArialMT,Arial" font-size="60.4" transform="translate(832 1054)">
    Original<tspan x="208" y="0" class="u"> </tspan><tspan x="222" y="0">Artwork by illustrator ‘Janko_M</tspan><tspan x="1061" y="0" letter-spacing="0em">’</tspan><tspan x="0" y="73">https://ww</tspan><tspan x="269" y="73" class="u">w</tspan><tspan x="309" y="73">.fiver</tspan><tspan x="440" y="73" class="w">r</tspan><tspan x="457" y="73">.com/janko_m</tspan><tspan x="0" y="218" class="u">V</tspan><tspan x="37" y="218">ector version hand-traced by Wladislav</tspan><tspan x="1078" y="218" class="w"> </tspan><tspan x="1092" y="218">Artsimovich</tspan><tspan x="0" y="290">contact (at) frost.kiwi</tspan>
  </text>
  <path d="M2172 2224c-13 12-26 14-38 17l-240 52-14 4v4h18c135-3 269-7 404-9 35-1 69 0 104 1l37 5a52 52 0 01-31 15c-33 6-66 12-99 15l-375 44-70 8c3 11 11 10 16 12 70 23 141 45 211 69 53 17 105 37 161 57-18 7-32 3-47 0-109-20-217-47-323-78l-297-88c-12-4-25-7-36-13-8-4-15-10-20-18-12-19-1-36 22-37l107-9 310-35 185-16z" class="d"/>
  <g clip-path="url(#p)">
    <path d="M2336 2286s-24 13-23 54M2232 2342s-4-44 18-56M2166 2356s-16-54 16-70M2083 2362s-6-77 28-73M2007 2369s-33-71 31-78M2011 2273s6-50 26-49" class="y"/>
    <path fill="none" stroke="#221b19" stroke-miterlimit="10" stroke-width="3" d="M1951 2285s-15-25 3-54"/>
    <path d="M1864 2290c-11-40 10-52 10-52" class="y"/>
    <path d="M1922 2378s-23-76 23-83" class="aa"/>
    <path d="M1833 2362a73 73 0 013-37 52 52 0 014-9 39 39 0 016-7 24 24 0 018-6 21 21 0 0110-1 30 30 0 00-14 10 44 44 0 00-5 7v2l-1 2-1 2-1 2a156 156 0 00-5 17l-4 18zM1780 2342a35 35 0 00-24 4 44 44 0 00-9 7 63 63 0 00-8 9l-1 1-1 1-2 3-3 5-3 6-2 5-10 24a114 114 0 015-25 28 28 0 011-3l1-3a64 64 0 013-6l2-3 1-3 2-3 1-1 1-2a60 60 0 019-10 43 43 0 0111-7 32 32 0 0113-2 26 26 0 0113 3z" class="ab"/>
    <path d="M1845 2365s-50-9-45 66M2072 2502s16-53 50-48M1983 2473s4-44 47-46" class="aa"/>
    <path d="M1890 2448s-5-42 52-53M2142 2522s5-32 42-45" class="ac"/>
    <path d="M1859 2376l26 7 488-40 114-47-291 29s-137 20-364 24c-57 1 27 27 27 27zM1818 2295l91 4 236-49 64-30-136 17c-26 4-183 36-183 36s-39 8-72 22zM1580 2320l199 69 179 57 212 58 73 18-83 37-642-218 62-21z" class="ab"/>
  </g>
  <path d="M1314 2488c29 4 57 7 85 12 102 18 203 35 305 55 89 16 177 35 266 54 29 6 56 15 84 26l-13 2c-133-12-266-25-399-43-85-11-171-17-257-25l-79-7c4 9 12 11 17 13l260 133 70 38c4 2 9 4 12 7s7 8 6 11-7 7-11 7a99 99 0 01-25-5c-99-35-199-68-298-104-102-36-203-75-305-113l-20-8c-22-8-33-24-41-44-6-18-1-27 18-29l131-11 216-15c61-2 124-2 185-3 7 0 14 2 21 5-75 23-152 26-228 37z" class="e"/>
  <g clip-path="url(#r)">
    <path d="M1820 2628s16-54 66-52" class="y"/>
    <path d="M1717 2613s-18-47 33-57M1614 2599s-22-53 33-70" class="aa"/>
    <path d="M1506 2589s-34-62 32-80M1383 2574s1-92 43-80M1565 2752s4-48 33-53M1482 2721s-6-54 42-62M1385 2688s-12-61 58-68M1317 2671s-18-92 56-82M1119 2593s-5-63 48-76" class="ae"/>
    <path d="M1190 2657a200 200 0 0112-37 196 196 0 0118-34 121 121 0 0112-16 73 73 0 0116-12 47 47 0 019-5 34 34 0 0110-1 30 30 0 0110 2 33 33 0 019 4c-6-2-12-3-18-2s-12 4-17 7a78 78 0 00-13 12l-6 8-5 7a378 378 0 00-20 33l-17 34zM1274 2522l709 99 177 37-703-43-151-53s-44-28-32-40zM1399 2453l218-17-63 33-163 3 8-19z" class="ab"/>
    <path d="M1000 2503l209 85s99 33 261 93l200 80 104 99-892-331z" class="ab"/>
  </g>
  <path fill="#4b3021" d="M2290 392v-9-9-18l-3-36a227 227 0 00-7-35 133 133 0 00-7-17 63 63 0 00-10-15 63 63 0 0115 12 125 125 0 0112 15 234 234 0 0119 34 399 399 0 0124 63l1 5 1 2v3z"/>
  <path d="M3039 260s92 129 90 189M3218 700s68-168-42-343M3259 433c18 49 20 95 20 95M3232 786s107-106 110-165M3242 863s157-84 152-154" class="ag"/>
  <path d="M3193 778c26 71 17 110 17 110M3122 606s27 57 28 97" class="ah"/>
  <path d="M3025 514s45 3 68 121M2812 388s42 8 88 83" class="ai"/>
  <path fill="none" stroke="#4b3021" stroke-linecap="round" stroke-miterlimit="10" stroke-width="21" d="M2705 342s25 17 49 62"/>
  <path fill="none" stroke="#4b3021" stroke-linecap="round" stroke-miterlimit="10" stroke-width="17" d="M2393 347s46 5 86 30"/>
  <path d="M2230 285s35 36 47 86" class="al"/>
  <path d="M1996 113s60 16 111 118" class="am"/>
  <path fill="none" stroke="#4b3021" stroke-linecap="round" stroke-miterlimit="10" stroke-width="22" d="M1744 15s165 69 180 166"/>
  <path d="M1602 10l57 52M1204 48s101-18 229 45M1043 203l47-13" class="am"/>
  <path d="M952 300l44-21" class="al"/>
  <path d="M635 356s111-52 141-45" class="ao"/>
  <path d="M705 361s65-25 127-16M776 402l68-9" class="ai"/>
  <path d="M658 488s109-60 150-56M528 641s30-27 111-58M310 917s41-29 82-35M198 1045s39-48 76-73" class="ap"/>
  <path d="M113 1361s43-95 116-143M161 1461l53-117" class="aq"/>
  <path fill="none" stroke="#382419" stroke-linecap="round" stroke-miterlimit="10" stroke-width="14" d="M154 1395s32-84 63-95"/>
  <path d="M10 1701s12-95 98-158M102 1751s-1-82 43-161" class="as"/>
  <path d="M47 1729s2-28 18-81" class="aq"/>
  <path d="M2819 1370s13-35 55-71" class="ao"/>
  <path fill="none" stroke="#4b3021" stroke-linecap="round" stroke-miterlimit="10" stroke-width="12" d="M2586 1487s-19-30-3-75"/>
  <path d="M2496 1494s-26-33-4-75M2451 1693s-55-189-5-230M2391 1833s24-75 23-140" class="au"/>
  <path fill="none" stroke="#4b3021" stroke-linecap="round" stroke-miterlimit="10" stroke-width="10" d="M2467 1560a66 66 0 013 29"/>
  <path d="M2551 1560s-22-22-24-92M2527 1672l-31-114" class="al"/>
  <path d="M218 2013s-40-23-16-115M286 2140s-12-119 51-139" class="aw"/>
  <path d="M353 2125s6-43 33-83" class="ax"/>
  <path d="M323 2115s5-75 32-109M102 1857s47-50 50-116" class="ay"/>
  <path fill="none" stroke="#657c8c" stroke-linecap="round" stroke-miterlimit="10" stroke-width="11" d="M171 1914s9-62-2-80"/>
  <path d="M426 2260s14 115 102 154M434 2212s70 99 121 139" class="ba"/>
  <path d="M641 2437s18 48 117 115" class="aw"/>
  <path d="M680 2386s19 54 99 77" class="ax"/>
  <path d="M654 2417s29 17 66 53M1038 2544s27 5 62 0" class="bb"/>
  <path d="M945 2495s34 22 74 22" class="aw"/>
  <path fill="none" stroke="#657c8c" stroke-linecap="round" stroke-miterlimit="10" stroke-width="16" d="M906 2514s47 27 95 41"/>
  <path d="M1395 2491a85 85 0 0011-8 100 100 0 0011-9 97 97 0 0016-21 85 85 0 005-12 82 82 0 003-12 90 90 0 002-23 20 20 0 1141-3 25 25 0 01-1 7l-1 1a122 122 0 01-13 30 116 116 0 01-10 13 107 107 0 01-11 11 113 113 0 01-26 17 143 143 0 01-13 5 98 98 0 01-14 4zM1929 2081v1h2v1h1l2 2 1 1 2 2 3 3 2 3a81 81 0 018 12 92 92 0 019 26 108 108 0 011 26 119 119 0 01-5 23l-1 5-2 5-1 3-1 2-2 5-3 5-2 5-2 5-2 2-1 2a283 283 0 01-24 34 279 279 0 0010-39v-5l1-5v-4l1-5v-7-3l-1-4v-5a76 76 0 00-3-17 56 56 0 00-7-14 37 37 0 00-9-9 27 27 0 00-5-3h-1a4 4 0 00-1-1v1a31 31 0 1130-54z" class="bd"/>
  <path d="M1602 2339s125 28 218-97" class="bb"/>
  <path d="M3033 259a399 399 0 0150 67 522 522 0 0127 49 201 201 0 0117 53 146 146 0 012 28 542 542 0 00-17-52l-21-51a561 561 0 00-27-48 547 547 0 00-31-45 1 1 0 010-1zM3169 357a223 223 0 0138 56l2 5 3 5 2 6 2 5 2 5 2 5 2 6 2 5 2 5 1 6c1 4 3 7 3 11l2 5 1 6 2 11 4 23v5l1 6 1 11v46a55 55 0 01-1 5v6l-1 11a425 425 0 01-21 88l3-11 1-5 1-3 1-3 2-11 2-5 1-6 2-11 1-5 1-6v-5l1-3v-3l1-11 1-11v-6l1-5v-29a27 27 0 00-1-2v-14l-2-12v-5l-1-6-4-22-2-10-2-6-1-5-3-11-2-5-2-6-2-5-1-5-2-5-2-6-2-5-2-5-3-5-2-5-10-20a326 326 0 00-23-39z"/>
  <path d="M3254 427s32 59 20 104M3338 618s15 45-112 163" class="be"/>
  <path d="M3397 704s42 48-158 156M3215 890s7-44-19-115M3118 605s24 27 36 100M3022 517s30 1 56 70M2809 390s34 2 69 64M2700 342s25 19 41 53" class="bf"/>
  <path d="M2389 347s49 0 90 38" class="bg"/>
  <path d="M1738 15a154 154 0 0115 5l15 5a306 306 0 0128 13 322 322 0 0134 20l6 5 7 5 6 4a294 294 0 0124 21 263 263 0 0121 24l5 6 4 6 5 7 2 3 2 3 4 7 4 7 2 4 1 3 3 7-4-6-3-3-2-3-5-6-5-6-2-3-3-3-5-6-10-11-5-6-6-5a35 35 0 00-3-3l-3-2-5-5-6-6-6-5-5-4-6-5-6-5-7-5-12-9a762 762 0 00-79-48zM2554 1560h-2l-1-1-2-1-1-1a30 30 0 01-5-5l-1-1v-2l-2-3-4-5-2-6-3-7-2-6-1-3v-2l-1-1-5-26v-10-4a149 149 0 011-13h1a101 101 0 013 13v3l1 3 1 7 2 13v3l1 3 1 6v2l1 2v3l2 6 1 6 3 6 2 6 2 3v1l1 2a27 27 0 004 5l1 1 1 1a4 4 0 002 1l1 1zM2821 1371l4-11 2-5 3-6a215 215 0 0111-20c4-7 7-14 13-20a56 56 0 014-4l2-2 3-2 2-2a22 22 0 012-1 54 54 0 016-3l-14 19-3 4-4 5-3 4a50 50 0 00-4 5l-3 4-3 5-3 5-3 5-12 20z"/>
  <path fill="none" stroke="#492e21" stroke-linecap="round" stroke-miterlimit="10" stroke-width="11" d="M1953 172s73 9 139 127"/>
  <path d="M498 1954l-369-263s6-41 8-68c0-6 66-205 66-205l35-232 119-237 115-102 98-86 15-15-2-3c-4 2-9 4-12 7l-82 64-56 41a19 19 0 01-14 4l134-154-3-3-59 30c2-7 1-12 3-14a72 72 0 0114-14c9-7 18-14 28-19 40-17 104-72 104-72l588-447 662-18s84 38 91 43c19 12 62 53 81 54a100 100 0 0156 26c18 17 49 67 84 65 135 8 202 54 202 54l353 39s336 168 337 172c7 23 13 48 17 72 4 26 18 45 35 63 8 8 11 16 9 27l-18 2c0 3-2 8-1 11 45 145 39 391-254 511l3-13c-66 29-144 90-211 96-3-11 8-13 11-22-60 26-227-5-309 357-8 46-29 86-59 122l-48 59z" class="k"/>
  <g clip-path="url(#t)">
    <path fill="#35231e" d="M2725 999c293 191 451 420 451 420l120-415z"/>
  </g>
  <path fill="none" stroke="#000" stroke-linecap="round" stroke-miterlimit="10" stroke-width="12" d="M2058 299s-30-110-204-152"/>
  <path d="M1992 112a161 161 0 0121 8 211 211 0 0119 10l18 12a189 189 0 0117 15l4 4 4 4 4 4 3 4a93 93 0 0112 19l1 3 2 2 2 5a109 109 0 013 11 87 87 0 013 22h-2l-19-37-3-5-3-4-2-4-3-5-3-4-3-4-4-4a45 45 0 00-3-4 162 162 0 00-15-15 197 197 0 00-16-14 210 210 0 00-18-12l-10-5-9-5zM2227 285a39 39 0 0110 5l5 4 2 2a21 21 0 012 2 41 41 0 014 4 51 51 0 013 5l3 6 2 5a114 114 0 019 21v3l1 3 1 6 2 11h-1l-2-5-1-3v-1l-1-2-4-10-2-5-2-5-2-3-1-2-1-2a18 18 0 00-2-3 74 74 0 00-6-9l-2-2-2-2-3-4-3-5-3-4-7-10zM2447 1694a718 718 0 01-28-121l-4-31a204 204 0 010-31 144 144 0 016-31 86 86 0 016-15 62 62 0 019-13l1 1a120 120 0 00-7 29 272 272 0 00-3 30v30l1 30 3 31 5 30 12 60zM2493 1500a101 101 0 01-10-17 129 129 0 01-10-29 40 40 0 010-10 43 43 0 012-10 32 32 0 016-9v28a75 75 0 001 10l2 9 2 9a149 149 0 008 18zM2386 1833l9-38 4-19a579 579 0 005-38l2-19a269 269 0 002-38 78 78 0 015 19 129 129 0 011 20 140 140 0 01-2 19l-1 10-2 10-5 19-5 18-6 19-6 18zM2467 1558a30 30 0 013 4 19 19 0 001 2v2l1 2 1 2a36 36 0 011 5v4a18 18 0 010 5 17 17 0 01-5 8 19 19 0 01-1-2 15 15 0 001-3v-2a13 13 0 000-2l1-8v-4l-1-2v-2a40 40 0 00-2-9zM2496 1553l12 30 5 15 3 8 2 8 5 15a125 125 0 014 16l1 8 1 8a113 113 0 010 17c-5-10-8-20-11-31l-2-8-2-7-3-16-2-8-2-8-4-16-8-31z"/>
  <path d="M2587 1488s-19-65 0-78" class="bl"/>
  <path d="M2675 1365a380 380 0 0047-15l23-10a233 233 0 0023-11 222 222 0 0021-14l5-3 5-4 2-2 3-2 5-4 4-4 3-2 2-2 5-5 4-4 17-19a259 259 0 01-33 39l-4 4-3 3-2 2-5 4-5 4a255 255 0 01-21 14l-6 4-5 3-6 3-5 3a169 169 0 01-24 10 182 182 0 01-25 7 122 122 0 01-26 2zM2882 1287a701 701 0 00123-76l14-12a252 252 0 0034-41 140 140 0 009-16 102 102 0 006-17 100 100 0 003-36 91 91 0 010 37 118 118 0 01-14 34 181 181 0 01-21 30 199 199 0 01-27 26 366 366 0 01-93 57l-34 14zM95 1756a146 146 0 01-2-23 217 217 0 011-23 190 190 0 013-22l6-22a307 307 0 0115-43 233 233 0 0122-40l-5 10-2 5-3 5-8 21-1 3-1 3-2 5-3 11-3 10-2 11-4 22-3 23-4 22-4 22zM40 1734a109 109 0 010-13l1-12 3-13 3-12a293 293 0 0111-36 43 43 0 017-11 32 32 0 00-3 6 99 99 0 00-5 18l-3 12-2 12-2 12-3 13-3 12-4 12zM2 1705l3-26a169 169 0 017-25 157 157 0 0112-24l14-22a286 286 0 0133-40 300 300 0 0140-33l1 1a345 345 0 00-36 36l-16 20-7 11-7 11a238 238 0 00-12 22l-11 23c-7 15-14 30-20 47z"/>
  <path d="M107 1362s31-93 125-150" class="bg"/>
  <path d="M157 1399s32-81 57-85M161 1458s17-58 59-102" class="bf"/>
  <path d="M326 1032l5-9 5-9a248 248 0 0127-31l7-7 8-7 4-3 4-3 9-6a185 185 0 0117-11l5-3 5-2 4-2 5-1 5-2h3a23 23 0 012-1l3-1h2l5-1a199 199 0 00-35 20l-16 11-4 3-4 3-7 7a620 620 0 00-30 27l-29 28z"/>
  <path d="M357 967s40-39 91-58" class="bg"/>
  <path d="M307 921a81 81 0 0110-9l10-8 6-3 6-3 11-5 12-5 12-5 7-2 6-2 6-2 6-1 1 1a157 157 0 00-24 9l-23 12-11 7a110 110 0 01-11 6l-12 6a118 118 0 01-12 4zM194 1047a71 71 0 016-12l2-3 2-2 4-6 2-2 3-2 2-3 3-2 10-9c6-6 13-11 21-16l2-2 3-2 6-3 11-7 1 1-6 4-5 4-5 4-3 2-2 2-5 4-5 5-10 8-9 10-4 4-5 5-18 19zM424 849a92 92 0 0110-15l2-3 3-4 6-6 6-7 3-3 3-3 6-6 3-3 3-3 7-6 4-3 3-2 14-11 14-10 15-9 7-5 8-5 14-9 8-5 7-4 15-9 31-17 15-8 16-7v1l-15 9-14 8-30 19-14 9-8 5-7 5-14 10-7 5-7 5-14 10-13 11-4 2-3 3-7 6-13 10-14 11-3 3-3 3-7 5-13 12-12 12zM491 729a91 91 0 0112-15l7-6 4-3 3-3 4-3 4-3 4-3 4-2 8-4 9-5a311 311 0 0134-15l5-2 4-1 9-3 18-5v1l-8 3-5 2-2 1-2 1-9 4-4 2-4 2-8 4-8 4-4 2-4 3-8 4-8 5-8 5-7 6-8 5-4 2-4 3-7 5-16 10zM523 642a51 51 0 016-7l3-3 3-2 3-3 4-2 7-5 7-4 8-4 8-3 8-3 7-3 8-3 4-2 4-1 8-3 17-4 16-4-16 6-15 6-8 3-4 2-4 2-7 3-8 4-4 1-3 2-8 4-7 4-7 4-8 4-7 3-15 8zM747 416a34 34 0 015-4 25 25 0 012-2l3-2a52 52 0 016-3l3-2 3-1a91 91 0 0125-5l6-1h7l6 1 7 1 3 1 3 1 6 2a61 61 0 016 2l6 3-13 1h-18l-6 1h-12a378 378 0 00-48 7zM651 490a17 17 0 013-4l2-2 2-2a18 18 0 012-2l3-1 2-2 2-1 5-3 4-3 10-5a402 402 0 0139-17l10-4 10-4 10-3 10-3a394 394 0 0142-10l-39 17-20 8-10 3-10 4-39 15-5 2-5 2-5 2-5 3-2 1-3 1-2 1-2 1-3 1-2 2a15 15 0 00-4 3zM638 361a81 81 0 0115-14l4-3 5-3 8-6 10-4 2-1 2-1 5-2 5-2 5-1 5-2 5-1 10-3h2l3-1 5-1 5-1h2l3-1 10-1a46 46 0 015-1l5-1 10-1 21-1v1l-10 2-5 1a40 40 0 00-5 0l-10 2-5 1-5 2-10 2h-2l-3 1-5 2-4 1-3 1h-2l-10 4-9 3-5 2-4 2-9 4-5 2-4 2-36 18zM705 359a77 77 0 0116-9 121 121 0 0119-6 100 100 0 0119-3 303 303 0 0156 6 191 191 0 0136 12l-1 1a225 225 0 00-36-8l-18-2h-18a156 156 0 00-18 2l-18 3-37 5zM979 194a24 24 0 015-4 25 25 0 015-1 15 15 0 016 0 33 33 0 005 1l10 1h5a16 16 0 005-1h1a16 16 0 01-5 4 47 47 0 01-5 2 66 66 0 01-11 3l-5 1a12 12 0 01-6 0 23 23 0 01-5-2 17 17 0 01-5-3zM943 303a29 29 0 015-5 45 45 0 016-4 22 22 0 016-3l7-2 7-2 6-2 13-3 1 1-12 7-6 3-6 4-6 3a25 25 0 01-6 3 37 37 0 01-7 1 31 31 0 01-7 0z"/>
  <path d="M1047 199l35-9M1204 44s165-2 230 49" class="bm"/>
  <path d="M1596 8s13 25 48 42" class="bl"/>
  <path d="M723 568s40-6 63-24 69-37 109-33c0 0 13-10 25-7 0 0 15-42 52-12 0 0 32 9 50-4l15 22s50 11 55-71c2-36 77-57 77-57s53-6 54-24-78-17-78-17 115-21 136-29c0 0 55 10 100-16 0 0 24-13 84-23 25-4 27-38 114-25l37 49s-58 8 12 42c45 22 138-15 130-102-7-75 159-50 159-50s19 23 24-13l-125-53-764 147zM934 1029s40 9 69-15c0 0 119 17 106-21-22-63 62 15 73-34 0 0-2-59 56-59 0 0 46 37 86 8l10 21s-45 15 2 25c72 15 89-60 89-60s22-4 40 3 25-14 25-14l-32-37s136 83 138 88c0 0-49-31-33 4 0 0 15 16 35 19 0 0 79 57 73 18l-63-82-146-109-300 58zM1427 1832s146-145 222-31c0 0 23 14 55-7 0 0 8-32 25-25 1 1 12-25 9-50 0 0 14-86 70-71 0 0 21-44 18-74 0 0-16-14 2-53 30-67 65-12 65-12l-27 389zM1356 1354s-34-8-17-24l46 17s4 35-29 7zM1276 1373s94-5 16-133c0 0-36 107-63 132-17 15 45 80 47 1zM697 1562s55 194-65 151z" class="bn"/>
  <path d="M1871 1520s62-164 106-120-106 120-106 120zM1681 642s87 1 74 44-74-44-74-44zM2418 395s-8 18 64 45c0 0 25 10 46 31 0 0 70 13 76 21s31-9 2-24-113-73-113-73zM2815 592s36-27-13-42l-19 68s29 41 32-26z" class="bn"/>
  <path d="M2662 483s-41-15-28 16 122 89 154 17c0 0 35-13 61 37s108 26 108 26l-14 50s-26 36 24 38c41 3 46-69 46-69s27 4 37 9c0 0 48 31 38 10s-26-44-26-44l-144-75-144-54z" class="bn"/>
  <ellipse cx="1548.5" cy="498.5" class="bn" rx="17" ry="24"/>
  <ellipse cx="1713.5" cy="529.5" class="bn" rx="8" ry="10" transform="rotate(-19 1714 530)"/>
  <path d="M1149 721s36 12 20 22-20-22-20-22z" class="bn"/>
  <path d="M1643 815s44-14 113-15M1624 563l54 20" class="bo"/>
  <path fill="none" stroke="#311d16" stroke-linecap="round" stroke-miterlimit="10" stroke-width="10" d="M1673 334s59 9 94 7"/>
  <path d="M1679 1776a97 97 0 01-5-24v-13a81 81 0 012-13 104 104 0 014-12 32 32 0 017-12 39 39 0 0111-7l3-2 3-1h7l1 1-4 5-2 3-1 2-6 9-2 2-1 2a16 16 0 01-2 2l-1 2a52 52 0 00-6 10 94 94 0 00-3 11 103 103 0 00-2 11 111 111 0 00-2 11 118 118 0 000 12zM1670 1448a120 120 0 01-1-17v-9-8l1-9 1-8v-4l1-5 2-8 3-17 2-8 3-8 2-4 1-4 4-7 4-8 5-7-4 17-2 8-2 8c0 3-2 5-3 8l-1 4-1 4-5 15-2 9-1 4-1 4-2 8-1 8a186 186 0 00-2 33zM1398 1380l-3 7a11 11 0 00-1 1v2l-2 3-2 3-2 2a37 37 0 00-5 5l-4 6-2 3-2 2-2 3-2 3-3 7-1-1 1-7a36 36 0 011-3l1-4 1-3 1-4 4-7 3-6a22 22 0 012-3 33 33 0 012-3l2-1 1-2a38 38 0 014-2 19 19 0 017-2zM1585 803a19 19 0 015-2 22 22 0 016-1 15 15 0 015 0 48 48 0 006 1l5 2 6 1 10 3v1l-11 1h-11a53 53 0 00-5 1 17 17 0 01-6-1 26 26 0 01-5-2 21 21 0 01-5-3zM1440 663l-16 3-7 1-8 1-8 1a30 30 0 01-8 1 54 54 0 01-8-2 33 33 0 01-8-3v-1a32 32 0 018-3 55 55 0 018-2 30 30 0 017-1l8 1 8 1h8l16 2zM1355 572a73 73 0 0015 1h12l4-1c5 0 10-2 15-1a71 71 0 018 0 40 40 0 018 2l1 1a42 42 0 01-16 6 37 37 0 01-8 0h-8l-4-1h-4l-4-1h-4l-16-5zM972 847a623 623 0 0131-29l11-9 10-9a78 78 0 0112-8l6-4 7-3a55 55 0 017-2 22 22 0 014-1h3l1 1-5 5-6 5-5 4-5 5-6 4-6 4-6 3-6 4-23 15-23 16z" class="bn"/>
  <path fill="none" stroke="#311d16" stroke-linecap="round" stroke-miterlimit="10" stroke-width="27" d="M840 883s-104 121-106 159"/>
  <path d="M868 761l5-11 2-5 3-5 3-5a19 19 0 013-4 27 27 0 014-4 19 19 0 017-2 19 19 0 010 7 30 30 0 01-2 5 17 17 0 01-4 5l-4 4-4 4-4 4-9 7zM1719 831l16-2 9-1h8l8-1a18 18 0 018 1 30 30 0 017 4 27 27 0 017 7v2a30 30 0 01-9 5 36 36 0 01-8 2 18 18 0 01-8-1l-8-3-7-3-8-2-15-6zM1465 304l25-10 26-9 51-15a1051 1051 0 01106-24 826 826 0 01108-10h14l13 1 28 3a144 144 0 0126 8l2 1h1l3 2 4 1 3 2 2 2 3 2a56 56 0 015 5 80 80 0 00-24-10 177 177 0 00-26-3l-27-1-13 1h-7l-6 1h-7l-7 1-13 1-26 3-27 4-26 5-105 19-106 20z" class="bn"/>
  <path d="M1387 331a413 413 0 0150-56 653 653 0 0157-49l8-6 3-3 4-3 8-5 8-5a445 445 0 0166-37 376 376 0 0136-14 313 313 0 0137-10 274 274 0 0138-5l10-1h10l9 1 10 1c6 0 13 1 19 3l5 1 5 1 9 2a195 195 0 0136 15l4 2 4 2 4 3a35 35 0 014 3l8 5 4 3 4 3 4 2 3 4 8 6 7 6 3 4 3 3c9 9 17 19 24 29l-7-6-3-4-4-3-6-6-8-6-3-3-4-3-7-5-8-5-4-3-4-2-3-3-4-2-8-4-9-4-4-2-4-2-8-4-9-3-8-2-9-2-9-2-4-1-5-1-18-2a238 238 0 00-35 1 302 302 0 00-105 28l-33 16a683 683 0 00-63 37 946 946 0 00-116 93zM1207 974a181 181 0 012-20l4-19a226 226 0 0112-37l4-9 5-9a153 153 0 0111-17 139 139 0 0113-16l7-7 4-3 4-4a126 126 0 0137-20 139 139 0 0142-7h16l5 1a174 174 0 0120 4 244 244 0 0139 12 373 373 0 0136 18l8 6 9 5 16 11 8 6 8 6 7 6 8 6 7 7 8 6 7 7 7 6c19 18 36 37 53 56l13 15 3 4 3 4 6 7 6 8 5 8 12 16-15-13-14-13-29-25-59-49-7-6-7-6-8-5-7-6-8-6-8-5-7-5-8-5-16-10-8-5-8-5-16-8-4-2-2-1-2-1-9-4a257 257 0 00-34-12l-17-3a143 143 0 00-17-2 120 120 0 00-34 4 106 106 0 00-16 6l-8 4-3 2a37 37 0 00-4 2l-4 3-3 2-7 6-3 3-2 1-1 2-4 3-3 3-3 4-3 3-5 7-6 8-5 8a319 319 0 00-31 69zM944 614a249 249 0 016-37l5-19 5-18a401 401 0 0131-70 348 348 0 0146-63 290 290 0 0160-51 250 250 0 0174-32l10-2 5-1h5l5-1 5-1h5l2-1h40l2 1h10l5 1 5 1 19 3a310 310 0 0137 11l9 4 9 3 4 2 5 2 8 4 9 5 8 4 16 10-18-4-10-2-9-1-9-2-4-1-5-1-9-1-9-1-36-4h-37l-2 1h-9l-4 1-9 1-9 1a290 290 0 00-33 8 262 262 0 00-62 28 319 319 0 00-54 43 468 468 0 00-46 53 686 686 0 00-41 61c-12 21-24 42-35 65zM1566 322l14-6 15-5 31-8a565 565 0 0162-12l15-2 8-1h8l32-1a243 243 0 0132 2l8 2 4 1 3 1 4 1 4 1 4 2 3 2a191 191 0 00-31-2 454 454 0 00-38 3l-8 1-8 1-8 1-15 2-8 1-7 1-62 8-62 7z" class="bn"/>
  <g mask="url(#u)">
    <ellipse cx="2551" cy="877" class="bs" rx="439.5" ry="406.5"/>
  </g>
  <path fill="#ae8668" d="M2438 928l15-5-2-11c-15-36-17-73-3-111-1-28 18-45 37-62a134 134 0 0180-33h31c-3-12-16-11-22-17 17-2 33 15 54 6l30 25 4-13 5 2c6 8 12 15 15 24 14 37 30 74 34 114 2 20 4 41-13 58l-2 5c-1 25-16 44-33 60-23 24-49 45-81 56a14 14 0 01-9 0c23-15 47-28 62-57-46 9-87 28-131 28l38-12c-36-21-76-30-109-57z"/>
  <g mask="url(#v)">
    <ellipse cx="2065.5" cy="1409.5" class="bs" rx="368" ry="403"/>
  </g>
  <g mask="url(#w)">
    <ellipse cx="2753.8" cy="777.5" fill="#321e18" rx="340.5" ry="367.5" transform="rotate(-46 2752 778)"/>
  </g>
  <ellipse cx="2573.3" cy="840.6" rx="108.8" ry="126.2" transform="rotate(-66 2572 841)"/>
  <ellipse cx="2684.1" cy="887.4" rx="14.9" ry="23.8" transform="rotate(-66 2683 888)"/>
  <circle cx="2605.5" cy="814.5" r="20" class="bx"/>
  <circle cx="2495.5" cy="850.5" r="6" class="bx"/>
  <path d="M1452 540a157 157 0 0119-10l20-7a244 244 0 0142-9 241 241 0 0186 7l5 1 6 2 5 1 5 2 5 2 5 2 10 4a289 289 0 0138 21l4 3a51 51 0 015 3l9 6 4 3 4 4 8 7 3 1 2 2 4 4 7 7 16 15-16-14-8-7-5-3-2-2-2-2-8-6-4-4-5-3-9-6-4-3-5-3-4-2-3-2-2-1-9-5a106 106 0 00-10-5l-5-2-2-1-2-1-10-5-5-2-5-1-5-2-5-2-6-1-5-2-10-2-10-2-3-1h-3l-5-1h-5l-6-1a242 242 0 00-42 0 261 261 0 00-42 8 208 208 0 00-40 15zM1447 518a58 58 0 018-8 103 103 0 0110-7 112 112 0 0121-10 140 140 0 0146-8h6l6 1h9l3 1 5 1 6 1 12 2a243 243 0 0144 16l-11-4-11-3-12-3-11-3-6-1-2-1-3-1-6-1h-6l-11-1-6-1h-12l-5 1h-9l-3 1a134 134 0 00-22 5l-3 1-3 1-5 2-5 2-6 3a91 91 0 00-9 6 81 81 0 00-9 8zM1682 354a203 203 0 0131 1l31 4a319 319 0 0160 18 303 303 0 0128 14l14 7 7 4 6 4a345 345 0 0149 39 469 469 0 00-51-36l-6-4-7-4-14-7-6-4-7-3-8-3-3-2-4-1a306 306 0 00-29-11 348 348 0 00-60-13 244 244 0 00-31-3zM1711 330a93 93 0 0118-3 126 126 0 0118 0 139 139 0 0136 8l4 2h2l2 1 5 2 4 2a169 169 0 0143 33 255 255 0 00-29-21l-8-5-3-2-4-2a151 151 0 00-17-7 138 138 0 00-17-6 136 136 0 00-18-3 138 138 0 00-18-1 101 101 0 00-18 2zM2195 416a98 98 0 006 18 97 97 0 0010 16c7 10 17 19 28 24a88 88 0 0035 10 159 159 0 0038-3l-9 2-10 2-4 1h-19l-5-1h-5l-2-1h-3l-4-1-5-2a36 36 0 01-4-2l-3-1a15 15 0 00-2-1 72 72 0 01-15-11 79 79 0 01-13-15 92 92 0 01-9-17l-3-9a77 77 0 01-2-9zM2893 810a198 198 0 003-29 275 275 0 00-1-29 253 253 0 00-35-108 281 281 0 00-35-46l10 10 10 11 4 6 5 6 2 2 2 3 4 7 4 6 1 3 2 3 4 7 3 6a224 224 0 0110 27 253 253 0 017 28 235 235 0 014 29 216 216 0 010 29l-1 15a118 118 0 01-3 14zM2443 659a163 163 0 0124-39 151 151 0 0134-31l2-1 3-2 5-2 5-3 5-2 2-1 1-1 3-1h2l3-1 6-2 5-1a125 125 0 0146-1h-6l-5-1h-12a129 129 0 00-22 4 132 132 0 00-41 18l-5 3-5 3-4 4-4 3a186 186 0 00-16 16 201 201 0 00-14 18 174 174 0 00-12 20zM796 599l17-11 18-11c6-4 12-6 19-9l9-4 9-4 5-2 5-2 5-2 4-2 20-7 5-1 5-2 10-2 10-3 10-2a745 745 0 00-151 64zM528 857l11-12 6-6 7-6a274 274 0 0119-16l7-5a235 235 0 0129-16l8-4 8-3 4-1 4-2 8-2-8 3-4 2-3 1-8 4-7 4-4 2-4 2-7 4-7 4-7 5-7 5-7 5-6 5-7 5-25 22zM596 831l29-22a244 244 0 0132-16l9-3 4-2 4-1 9-3 9-2 4-2 4-1 9-1 2-1h3l4-1 9-1-9 2-4 1h-2l-3 1-8 2-5 1-4 2-8 2-9 3-4 2-4 1-9 4-8 3-8 4-8 4-4 2-4 2a239 239 0 00-30 20zM596 865a467 467 0 01152-89l10-4 11-3 10-3 3-1 3-1 5-1 6-2 5-1 11-2c7-1 14-3 22-3l5-1h3l3-1h11a52 52 0 015-1h17l11 1h11l6 1 5 1 11 1-11-1-6-1h-44l-5 1-11 1h-5l-6 1-22 4-11 2-5 1-5 1-5 2-3 1h-3l-10 3-11 4-10 4a502 502 0 00-153 86zM958 919a179 179 0 0024-7c8-2 15-5 23-9a231 231 0 0042-25 201 201 0 0018-16 218 218 0 0017-18l4-5 2-2 2-3 3-5 4-5 6-10 3-6 3-5a196 196 0 01-25 43l-8 9-4 5-5 4-1 1-1 1-2 2-5 5-5 4-4 3a220 220 0 01-21 14 210 210 0 01-46 20l-12 3-12 2zM1034 857a1062 1062 0 0073-103l11-18 11-19a249 249 0 0125-34 237 237 0 0132-28 194 194 0 0118-11 198 198 0 0119-10 182 182 0 0120-6 114 114 0 0121-4 90 90 0 00-10 2l-11 2a172 172 0 00-19 8 195 195 0 00-19 9l-18 12-4 3-4 3-8 7-15 15a258 258 0 00-25 34l-10 18-3 5-3 4-5 9a830 830 0 01-76 102zM1296 891a186 186 0 0120-8l21-7 11-2 10-2 11-2 11-1 11-1h33a264 264 0 01124 40c6 5 13 8 18 13l5 3 2 2 1 1 1 1 9 7 4 3 4 4 8 8a18 18 0 012 1l1 2 4 4 8 8-8-7-4-4-2-2-2-2-8-7-4-4-5-3-8-7-1-1h-1l-3-2-4-3-5-3a17 17 0 00-2-2l-2-1-9-6c-13-7-26-14-39-19a261 261 0 00-41-13 282 282 0 00-43-7 315 315 0 00-87 6 267 267 0 00-41 13zM1599 606a579 579 0 0066 42 635 635 0 0070 34 459 459 0 0075 23l9 2 10 2 5 1h5l4 1h5c13 2 26 2 39 2l-19 1h-10l-10-1h-10l-5-1-4-1-10-1-10-2a414 414 0 01-75-22l-36-17-35-18a513 513 0 01-64-45z"/>
  <path d="M1654 637a578 578 0 00125 30 554 554 0 0064 5h33l32-2-8 1h-4l-4 1h-8l-8 1h-8l-8 1h-17a502 502 0 01-128-18 532 532 0 01-61-19zM1335 1178a212 212 0 0136-45 123 123 0 0115-12 289 289 0 00-39 42l-12 15zM356 1193a226 226 0 0135-65 279 279 0 0133-36l4-4 5-4 9-8a262 262 0 0142-26l-6 3-5 3-10 7c-7 4-13 10-19 15a331 331 0 00-65 72l-13 21a222 222 0 00-10 22zM404 1154l7-12 9-11 17-21a380 380 0 0186-68l12-7 6-4 6-3 12-6 13-5a509 509 0 00-48 27l-6 3-6 4-11 8-11 8-5 4-3 2-2 2a397 397 0 00-59 57 255 255 0 00-17 22zM2126 411a405 405 0 0031 42 323 323 0 0036 36 233 233 0 0020 16 135 135 0 0023 12 84 84 0 0025 6 76 76 0 0012-1h3l3-1 7-1h3l1-1h2l6-1 3-1 4-1 6-2 12-3 12-5 49-18 24-8 7-2 6-1 13-3 13-2 3-1h3l6-1 7-1h6l13-1-13 1-6 1-6 1-7 1-3 1h-3l-13 3a374 374 0 00-49 15l-24 9-24 10a292 292 0 01-51 14l-6 2h-6a66 66 0 01-14 1 87 87 0 01-25-7 135 135 0 01-24-12 177 177 0 01-20-16 297 297 0 01-36-38 449 449 0 01-29-43zM2422 739a231 231 0 0019-23 98 98 0 008-12 35 35 0 003-7 20 20 0 000-3 12 12 0 011-4 64 64 0 017-14l9-12a203 203 0 0121-22 187 187 0 0150-33 145 145 0 0128-9 129 129 0 0130-2 141 141 0 00-57 13 181 181 0 00-26 15 206 206 0 00-23 18 218 218 0 00-21 22 175 175 0 00-13 18 43 43 0 00-3 6 10 10 0 000 4 18 18 0 01-1 4 40 40 0 01-3 7 98 98 0 01-9 12 263 263 0 01-20 22zM2617 628c7-1 14 0 21 2a110 110 0 0121 8l5 2 5 3 2 2 2 1 5 3 4 3 3 2 1 1 1 1 4 3 2 2 2 2 16 16 7 8 7 9 7 9 6 9 3 4 1 3 2 2 6 9c15 26 27 52 37 80l5 10 3 10 7 21 3 11 2 5 2 5 3 11 2 10-3-10-3-10-2-6-2-5-4-10-7-21-4-10-4-10-5-10-4-10-2-5-3-5-4-10-3-5-2-5-5-10-1-2-2-2-2-5-3-5-3-5-6-9-1-2-1-3-3-4-13-18a264 264 0 00-29-33l-2-2-2-1-4-4-1-1-1-1-2-1-5-4-4-3-2-1-3-2-4-3-5-2a111 111 0 00-20-9 96 96 0 00-11-3 50 50 0 00-10 0zM1705 719a405 405 0 0037 17 553 553 0 0079 26l5 1a47 47 0 005 2l10 2 11 2h2l3 1h5a379 379 0 0041 5h10l11 1 21-1 20-1 11-2h5l5-1 10-2 10-2 5-1 5-2 10-3a303 303 0 01-81 17l-5 1h-37a390 390 0 01-42-4l-5-1-3-1h-2l-10-2-11-2-10-3a512 512 0 01-115-47zM1929 1042l10-14 12-12a323 323 0 0126-23 306 306 0 0128-20l29-17 8-3 8-4 4-1 4-2 4-1 4-2 8-3 4-1 4-1 17-5a293 293 0 0167-8l-8 1-8 1-9 1h-2l-2 1h-4l-9 2-8 1-8 2-9 2-16 5-4 1-4 2-8 3-31 13a375 375 0 00-57 36l-27 21a260 260 0 00-23 25zM1945 1213l3-10 4-10 9-18a328 328 0 0122-35 370 370 0 0156-61 408 408 0 0167-48l9-5 10-5 18-9 5-2 5-2 9-4 19-7-9 4-5 2-4 2-10 4-4 2-5 3-18 9-9 5-9 6-4 2-5 3-8 5-9 6-4 3-4 3-9 6-8 7-4 3-4 3-3 3-4 4-30 28a375 375 0 00-26 32 369 369 0 00-23 34 253 253 0 00-18 37zM2233 884a74 74 0 019-9 87 87 0 0111-8 92 92 0 0125-9 93 93 0 0126-2 122 122 0 0126 4 146 146 0 0125 10l6 3 6 3 11 7 5 4 6 4 5 4 5 4 5 4 5 5 10 9a192 192 0 0043 30l5 3 6 2 13 5 3 1h3l6 2a114 114 0 0013 1 120 120 0 0026 0 141 141 0 0060-25 116 116 0 0011-8 121 121 0 01-21 16 137 137 0 01-24 12 125 125 0 01-25 7 118 118 0 01-27 1l-13-2-7-1-1-1h-2l-3-1-13-4-6-3-6-3a198 198 0 01-43-30l-10-9-5-4-5-5-5-4-5-4-5-4-6-3-11-7a64 64 0 00-5-4l-6-3-6-3-3-1-3-1-3-1-3-2-6-2a118 118 0 00-26-4 94 94 0 00-26 1 86 86 0 00-24 9 79 79 0 00-12 7 74 74 0 00-9 9zM1374 233a235 235 0 0179-18 192 192 0 0127 0 163 163 0 0127 5l3 1 2 1h1l7 2 6 3 3 1 4 2c16 7 31 19 43 32l-5-4-3-3-3-2-5-4-5-4-3-2-3-2-6-3-5-3-2-1-1-1-4-1-3-2-3-1-6-2-6-2-2-1h-2l-3-1a148 148 0 00-26-5 220 220 0 00-54 2l-27 5a235 235 0 00-25 8zM1225 319a256 256 0 0133-5l16-1h17a260 260 0 0133 2l8 1 4 1 4 1 4 1 4 1 8 2-8-1-4-1-4-1h-4l-4-1-8-1h-9l-8-1h-49l-33 3zM1256 386a2 2 0 011-2v-1h1a17 17 0 013-2 34 34 0 017-2l3-1h4a43 43 0 017 0 54 54 0 01-7 2l-3 1-4 1-6 1-3 1h-1l-1 1a3 3 0 00-1 1zM1071 374l2-1 1-1 4-2 3-2 4-1 3-2 4-1 3-2 4-1 8-2 7-2 4-1 4-1 7-1a550 550 0 0161-8l8-1h8l8-1h69l31 2h-46l-16 1h-15l-16 1h-15l-8 1h-7l-31 3-8 1-3 1h-4l-8 1-4 1-3 1-8 1-4 1-3 1-8 1-7 2-4 1-4 1-3 1-4 2-4 1-3 1-4 2-1 1a10 10 0 00-2 1zM791 629a1123 1123 0 01246-105 411 411 0 0144-8l5-1h6l11-1h22a236 236 0 00-44 4c-15 2-29 6-43 9a836 836 0 00-85 28 1234 1234 0 00-82 35l-41 19-39 20zM1784 518a113 113 0 0114-4l14-2a179 179 0 0130 0 183 183 0 0156 14l7 3 7 3 6 4 6 3 3 2 4 2 6 4 5 5 3 2 3 3 6 4 5 5 10 11 5 5 5 6 9 12a285 285 0 00-41-42l-3-2-3-2-6-4-6-4-3-2-3-2-6-4-7-3-6-4c-2-2-5-2-7-2a173 173 0 00-27-10 194 194 0 00-29-5 201 201 0 00-29 0 155 155 0 00-28 4z"/>
  <path d="M2258 744a243 243 0 01-27 2l-27-1a259 259 0 01-53-10 179 179 0 01-49-23 140 140 0 01-39-38 125 125 0 01-7-12l-3-6-3-6-3-6-3-6-2-3-1-2-4-6a254 254 0 00-32-43 206 206 0 00-42-34 192 192 0 00-23-13l-13-4a100 100 0 00-13-4 124 124 0 0126 8 188 188 0 0124 12 205 205 0 0142 33l5 5 5 5 4 6 2 2 2 3 4 5 4 6 4 6 4 5 3 6 2 3 1 3 4 6 3 6 3 6 3 6 7 12a137 137 0 0037 37c15 10 31 18 48 23a270 270 0 0053 10 303 303 0 0041 2l13-1zM1978 518a149 149 0 0125 12c5 2 9 4 12 7l12 8 10 10 3 2 2 3 5 5a103 103 0 018 11 86 86 0 016 13 128 128 0 00-7-12l-3-3-2-2-2-3-2-3-10-9-10-9a225 225 0 00-23-16 273 273 0 00-24-14zM2844 733a431 431 0 00-14-44l-18-43a447 447 0 00-23-41 403 403 0 00-50-63l-4-4-4-4a257 257 0 00-37-28 244 244 0 00-86-33 226 226 0 0123 4l2 1 3 1 6 1 11 4a231 231 0 0142 19 254 254 0 0171 62c19 24 35 51 48 80a461 461 0 0118 43l7 22 5 23zM1950 1707a93 93 0 0012-7 135 135 0 0012-9 164 164 0 0020-20 197 197 0 0016-23l2-3 1-4 2-3a32 32 0 002-3l3-6 2-7 3-6 2-7 3-7 2-6 1-4 1-3 1-7 2-7 1-3v-4l1-7 1-3 1-4v-7l1-2v-5l1-7v-14l1-7c1-38 5-76 14-113l4-14 2-7 1-3 1-4a233 233 0 0111-26 156 156 0 0114-25 88 88 0 0110-11 55 55 0 0111-9 53 53 0 00-11 10 85 85 0 00-9 11 166 166 0 00-13 25 272 272 0 00-10 26l-2 3v4l-2 7-4 13a526 526 0 00-9 56l-4 57-1 7v7l-1 7v7l-1 4v4l-1 7v3l-1 4-1 7-1 3-1 4-1 7-2 7a36 36 0 01-1 3l-1 4a228 228 0 01-10 27l-3 6-3 6-2 4-2 3-1 3-2 3a176 176 0 01-17 23 155 155 0 01-21 20 109 109 0 01-24 15zM1414 255a168 168 0 0123-4 248 248 0 0148 1 269 269 0 0147 9l11 4 5 2 6 2a211 211 0 0141 24 326 326 0 00-43-20 306 306 0 00-45-13 362 362 0 00-93-5zM1576 1577a96 96 0 0011-10 131 131 0 0010-11 157 157 0 0016-25 225 225 0 0020-56l2-7 1-8 1-3v-4l1-7 3-30a421 421 0 00-3-59l-1-15-2-15v-15l-1-15v-15l1-8v-11l1-4 1-7 1-8v-3l1-4a213 213 0 017-29 169 169 0 0112-28l2-4a21 21 0 012-3l2-3 2-3 1-2 1-1 2-3 3-3 1-2 1-1a97 97 0 0111-11l3-2 3-2a45 45 0 016-4 51 51 0 00-6 4l-3 2-3 3a105 105 0 00-10 11l-1 1-1 2-3 3-2 3-1 1-1 2-2 3-1 3-2 4-2 3a182 182 0 00-11 28 220 220 0 00-6 28l-1 4v4l-1 7-1 8v7l-1 8v37l1 15 2 14 1 15a415 415 0 012 60l-2 30-1 8-1 4-1 3-1 8-2 7a224 224 0 01-9 29 199 199 0 01-13 27 167 167 0 01-17 25c-6 7-14 15-22 20zM1683 1342l19-25 17-25 18-26a509 509 0 0024-39l7-14 7-14 7-14 12-28a240 240 0 008-30 198 198 0 01-7 30l-2 8-2 7-6 15a328 328 0 01-29 55q-16 27-34 52a645 645 0 01-39 48zM1761 1563l11-11a202 202 0 0028-34 201 201 0 0014-26 197 197 0 0011-28 130 130 0 01-8 29l-2 3-2 4a464 464 0 00-10 19 174 174 0 01-19 24 135 135 0 01-11 10 105 105 0 01-12 10zM1698 1574l-4-12-3-12a235 235 0 01-3-25 227 227 0 013-50l1-6 1-6 3-13 3-12 2-6 2-5 5-12 3-6 3-5 1-3 2-3 3-5 6-11a319 319 0 00-20 45l-2 6-2 6-4 12-2 12-2 6a29 29 0 000 3l-1 3-1 13-1 6v6a257 257 0 002 50 186 186 0 005 24zM1774 1528l5-4 4-5 8-10a138 138 0 0013-23c7-16 12-32 15-49l1-6 1-7v-3l1-3v-7l1-6v-7l1-6v-7-19-13l-1-6-1-13a479 479 0 01-1-52 333 333 0 016-52 241 241 0 017-26 175 175 0 0110-24 127 127 0 0113-22c6-7 12-13 19-18a50 50 0 00-5 4l-5 5a100 100 0 00-8 10 138 138 0 00-13 22 200 200 0 00-8 24l-7 25a353 353 0 00-5 52 497 497 0 001 51l1 13 1 7v39l-1 7v6l-1 7-1 6v3l-1 4-1 6-1 6a217 217 0 01-7 26 195 195 0 01-9 24 149 149 0 01-14 22 84 84 0 01-18 19zM1769 876a592 592 0 0062 10 535 535 0 0062 3 348 348 0 0062-7l8-2h4l3-1 4-1 4-2 7-2a241 241 0 0029-12 190 190 0 01-28 15 242 242 0 01-30 10l-7 2h-4l-4 1-8 1-8 1a370 370 0 01-63 2l-8-1h-8a395 395 0 01-47-8 290 290 0 01-30-9zM1761 851l15 2 14 1 30 1h29l8-1h7l15-1a344 344 0 01-29 6l-15 1h-15a213 213 0 01-30-2 141 141 0 01-15-3 88 88 0 01-14-4zM1498 1140a161 161 0 0113-17 262 262 0 0129-31l3-3 4-4 4-3 4-4 9-6 4-3 4-3 17-12 9-6 9-5 19-10-17 12-9 6-4 3-4 3-9 6-2 2-2 1-4 3-8 7-8 6-4 4-4 3-4 3-4 4-16 14-7 7-4 4-4 3-14 16zM1541 1289a185 185 0 017-25l3-7 2-6 3-6 3-6 2-6 3-6 3-6 4-6 3-5 2-3 1-3 7-11 8-11 4-6 4-5 8-10 9-11 4-4 4-5 10-10 2-2 2-3 5-4 10-9-9 10-4 5-2 2-3 3-8 10-4 5-4 5-9 10-7 11-4 5-4 6-7 10-8 11-1 3-2 3-3 6-4 5-3 6-3 6-3 6-3 6-3 5-3 6-2 6a260 260 0 00-10 25zM949 1408l1-5 1-5 1-5 1-5 2-5 2-5 1-4a39 39 0 012-5l4-9 5-9 10-18 3-4 1-3 2-2 5-8 6-8 6-9 13-15 14-15-11 17-6 8-6 8-22 34-19 35-5 9-2 5-2 4-2 5-2 4-3 10zM1073 1243a296 296 0 00-18 25 395 395 0 00-57 142 453 453 0 00-6 62 289 289 0 012-62l1-8 1-8 2-7 1-8 1-4 1-4 2-7 3-8 2-7 12-29a293 293 0 0115-28 280 280 0 0117-26 199 199 0 0121-23zM1095 1445a92 92 0 01-3-14 159 159 0 011-42 200 200 0 015-27 275 275 0 018-27 256 256 0 0112-25l4-6 1-3 2-3 4-6 4-6a276 276 0 0135-43 519 519 0 00-31 45l-14 24-3 7-1 3-2 3-2 6-3 6a253 253 0 00-15 53 228 228 0 00-3 27v14a128 128 0 001 14zM1187 1269a481 481 0 00-25 52 395 395 0 00-19 55c-3 9-5 18-6 28a248 248 0 00-4 28v29l1 8 1 7v3l1 4 1 7-4-14v-4l-1-3-1-7a191 191 0 01-2-30 252 252 0 019-58l8-28a374 374 0 0125-53 262 262 0 0116-24zM427 1528a1 1 0 010-1v-1l2-1 4-3 8-5a126 126 0 0015-12 167 167 0 0023-29 235 235 0 0018-32 325 325 0 0013-35 449 449 0 0017-73l9-75a559 559 0 01-5 75 478 478 0 01-15 74 313 313 0 01-14 36 213 213 0 01-19 33 152 152 0 01-25 28 114 114 0 01-16 12l-8 4-4 2-2 1-1 1v1zM590 1344a28 28 0 007-2 58 58 0 007-4 74 74 0 0012-10 138 138 0 0020-25 250 250 0 0016-27l3-8 3-7 6-15a463 463 0 0019-60l18-62 4-15 3-8 3-7 5-15 3-8 3-7c8-20 16-39 27-58s22-37 37-52a143 143 0 0125-21 78 78 0 017-4l1-1 2-1 4-2 3-2 4-1 7-3-7 3-3 2-4 2-3 2-2 1-2 1-6 4a152 152 0 00-24 22 222 222 0 00-19 25l-4 7-4 6-4 7-4 7a527 527 0 00-26 58 967 967 0 00-39 121l-9 31-2 8c0 3-2 5-3 7l-6 15-13 29a239 239 0 01-16 28l-2 2-1 1-2 3-3 3-2 4a111 111 0 01-11 11 85 85 0 01-13 10 44 44 0 01-8 3 25 25 0 01-7 2zM590 1238a53 53 0 0011-8 25 25 0 002-2l3-2 4-5 3-2 2-3 4-5 8-10c3-3 5-8 7-12l1-1 1-2 1-2 4-6 6-12 7-12-4 13-5 13-3 6-1 3-1 2-1 1-3 6-4 6-2 3-1 1-1 1-5 6-4 5-5 5a29 29 0 01-3 2l-3 2-3 2-3 2a43 43 0 01-12 5zM815 1234v-9-9a155 155 0 012-18l4-18 3-9 1-4 2-4a232 232 0 0115-33 282 282 0 0120-31l6-7 6-6 3-4 3-3 3-3 4-4 13-12 7-6 7-5a342 342 0 0162-38 506 506 0 00-59 41l-7 6-6 6-13 12-6 7-4 3-3 3-5 7-6 7a294 294 0 00-20 30 263 263 0 00-16 31 215 215 0 00-11 35l-2 8-1 5v4a134 134 0 00-2 18z"/>
  <path d="M819 1280a109 109 0 010-13l1-12a195 195 0 014-26 233 233 0 017-24l10-24a274 274 0 0126-44 267 267 0 0134-38 491 491 0 00-30 41l-2 2-1 3-4 5-3 6a60 60 0 00-3 5l-3 6-3 5-2 3-1 3-3 5a277 277 0 00-27 97zM1551 1219a369 369 0 0125-46 439 439 0 0130-44 387 387 0 0135-39l20-17a246 246 0 0122-15l-20 17-4 4-5 5-5 5-4 4a586 586 0 00-65 82l-29 44zM1683 1298l19-26 18-26 17-26 4-7 3-7 2-3 2-4 4-7-2 8-1 4-2 3-3 8-3 7a240 240 0 01-16 28 263 263 0 01-20 25l-5 6-5 6-12 11zM1372 1610a211 211 0 0022-19l10-10 5-6 2-3 3-2a240 240 0 0016-24l4-6 4-6 6-13 6-14 5-13 4-14 2-7 2-7a329 329 0 006-58 226 226 0 01-2 59l-1 7-1 4a21 21 0 01-1 3l-4 14-5 15-5 13a219 219 0 01-15 26 215 215 0 01-18 24 187 187 0 01-21 20 139 139 0 01-24 17zM1404 1734a11 11 0 010-2v-12a115 115 0 012-15l2-6a68 68 0 012-7l3-7 2-7 3-6 3-6 7-13 4-6 3-6 8-12 2-3 1-2 1-1 5-6 8-11 9-11 5-5 2-3 3-2 9-11 5-5 3-2 2-3 21-19-19 21-2 3-2 2-5 6-9 11-2 2-2 3-5 6-8 11-9 11-4 6-1 1-1 1-2 3-8 12-7 12-7 12-3 6-3 6-3 7-3 6-5 13-2 7v2a14 14 0 00-1 1v4a66 66 0 00-2 14zM1353 1704a131 131 0 01-3-21v-21a338 338 0 013-41l1-5 1-5 2-11 4-20 2-10 1-5 1-3 1-2v-5l1-5 1-5v-5a242 242 0 000-41l-2-20-2-11-1-5-1-5a485 485 0 00-24-78 306 306 0 0117 38 365 365 0 0112 39c6 27 10 55 7 83v6a50 50 0 01-1 5l-1 5-1 5v3l-1 2-1 5-3 10-4 20-2 10-1 5-1 5a435 435 0 00-6 67v5a90 90 0 001 11zM1251 1722a219 219 0 008-31 291 291 0 006-62l-1-16-1-8-1-8v-4l-1-3-1-8-2-8-1-8-4-15-3-7-2-8a419 419 0 00-25-58 276 276 0 0129 57l3 7 3 8 4 15a243 243 0 016 32 259 259 0 010 64 238 238 0 01-6 31c-3 10-6 20-11 30zM811 1722a111 111 0 01-3-15l-1-8-1-7a196 196 0 011-31l1-4v-4l1-7 2-8 1-3 1-4 2-8 3-7 1-3 2-4 3-7-2 8-1 3v4l-2 7-2 8v4l-1 3-1 8-2 15a423 423 0 00-2 60zM853 1616a17 17 0 00-1 3 19 19 0 00-2 3v3l-1 4-1 6v7a9 9 0 000 1v22l1 3c2 18 6 35 10 53l7 25 3 13 1 4 1 3 2 6 4 13 1 6 3 7 7 26-10-25-3-6-2-7-5-12-8-26-7-26-1-3v-4l-2-6-1-7-1-6-2-14-2-13v-7-8-11a9 9 0 000-1l1-7 2-7 1-3 1-1v-2l2-3a14 14 0 012-3zM2188 1018a207 207 0 0124-10l12-4 13-3 6-1 7-1 13-2h26l7 1 3 1 3 1 3 1 3 1 6 1 7 2 6 1a87 87 0 0012 0 81 81 0 0025-4 78 78 0 0022-13c-6 6-13 11-21 15a80 80 0 01-12 5 73 73 0 01-14 2h-13l-6-1-7-1-6-2-3-1-3-1h-3l-4-1-6-1a151 151 0 00-25-1 239 239 0 00-25 3 347 347 0 00-50 13zM2414 992a150 150 0 0033 25 136 136 0 0038 14 126 126 0 0021 2 115 115 0 0020-1 129 129 0 0039-13 173 173 0 0017-10 200 200 0 0016-13 277 277 0 0030-28l25-33 7-8a40 40 0 018-7 46 46 0 0119-7 49 49 0 00-10 3 44 44 0 00-9 5 32 32 0 00-7 7l-6 8a348 348 0 01-25 34l-7 7-3 4-4 4-4 4-3 3-8 7a187 187 0 01-17 13 182 182 0 01-18 11 130 130 0 01-40 13 114 114 0 01-21 1 121 121 0 01-20-3 130 130 0 01-39-16 157 157 0 01-17-12 128 128 0 01-15-14z"/>
  <path d="M2296 952a69 69 0 0128-15 61 61 0 0121-2l6 1h2l3 1a73 73 0 0119 9l3 1 1 1 1 1 4 3 4 3 5 3a211 211 0 0078 31l11 2h5l5 1a167 167 0 0021-1l11-1 5-1 5-1 5-1 6-1 10-4 2-1 3-1 2-1 2-1 10-5a156 156 0 0034-26 156 156 0 01-34 27l-4 3-5 2-3 1-2 1-2 1-3 1-10 4-5 2-5 1a45 45 0 01-6 1l-5 1-11 1a153 153 0 01-21 1l-5-1h-6l-10-2-6-1h-2l-3-1-5-1-5-1a207 207 0 01-40-16 179 179 0 01-18-11l-5-3-4-4-4-3-1-1h-1l-3-2a72 72 0 00-19-9l-2-1h-3l-5-1a61 61 0 00-10 0 52 52 0 00-11 1 69 69 0 00-10 4 72 72 0 00-9 5 52 52 0 00-9 6zM2121 1277a68 68 0 011-9v-4l1-5a35 35 0 011-4l1-5 2-4a30 30 0 011-4l3-9 4-8 8-16a300 300 0 0119-31l11-14 12-13-10 15-9 15-18 31-4 8-4 7-4 8-4 8c-2 2-2 6-3 9l-2 4-1 4-2 4-1 4-2 9zM2141 1289a94 94 0 012-24 145 145 0 018-23 134 134 0 0111-22 111 111 0 0115-19l-3 5-3 6-3 5-2 5a349 349 0 00-25 67zM2296 1219l8-16 5-8 5-7a270 270 0 0122-29 242 242 0 0127-26l7-5 7-6 4-2 4-2 8-5-7 6-4 3-3 3-7 6-6 6a505 505 0 00-70 82zM2382 1219a56 56 0 015-17l2-4 2-4 3-3 3-4a77 77 0 016-7 64 64 0 017-5 61 61 0 0115-9l-12 12-6 6-3 4-1 1-2 2a202 202 0 00-19 28zM2511 1251a201 201 0 015-22l8-21a336 336 0 0119-40l3-5 2-5 6-9 7-9 6-9a314 314 0 0130-34l8-7 9-8 2-1 2-2 4-3 5-4a46 46 0 014-3l10-7 9-5 3-2a14 14 0 012-1l5-3 5-3 5-2 10-5 2-1 2-1h1l5-2 11-4 10-4 5-2 6-1 11-3 2-1h3l5-2 11-2-11 3-5 1-3 1-2 1-11 3a47 47 0 00-5 2l-5 2-11 3-10 5-5 2h-1l-2 1-2 1-10 5-5 3-5 2-5 3-2 1-2 2-10 6-9 6a297 297 0 00-34 28 329 329 0 00-30 33 348 348 0 00-24 37 342 342 0 00-20 40 270 270 0 00-14 42z"/>
  <path d="M2641 1124a314 314 0 0129-24 324 324 0 0131-21 234 234 0 0134-16c11-5 23-8 36-9a162 162 0 00-36 11 214 214 0 00-33 17 320 320 0 00-31 20l-30 22zM2305 1637l5-11 5-12 8-23a344 344 0 0012-48l3-24 1-12v-13l-1-12v-12l-1-6-1-6-1-13a684 684 0 010-99c2-17 6-33 13-48a85 85 0 0114-21l2-2 1-2 1-1 2-2 3-2a64 64 0 0111-6 68 68 0 00-19 16 87 87 0 00-12 21 137 137 0 00-8 23 200 200 0 00-4 24v6l-1 7v12a508 508 0 001 49l2 25 1 12 1 6v6l1 4v34l-1 12-2 13-2 12a286 286 0 01-22 71 199 199 0 01-12 22zM2551 1318l9-7 4-3 4-4 9-7 8-7 32-31 8-8 8-8 15-16 7-8 7-9 8-8 7-8 7-9 4-4 4-4 4-4 4-4 8-8a302 302 0 0136-26 311 311 0 0160-30 193 193 0 0121-7l-10 4-11 4-19 10a392 392 0 00-38 23c-25 16-47 36-66 58l-7 9-7 8-8 9-4 4-3 4-16 16-8 8-8 7c-10 11-22 21-33 30l-9 7-9 6a193 193 0 01-18 13zM2534 1343l45-34 45-36 43-36 22-19 10-9 11-10 10-9 6-5 5-5 6-4 6-4 3-2 3-2 6-4a337 337 0 0150-27 483 483 0 0153-20l28-7 28-6a452 452 0 00-55 15 468 468 0 00-53 20c-34 16-66 37-94 63l-10 10-11 9-5 5-5 4-11 10-22 18-11 9-11 9-46 34-23 17-23 16zM2716 1235l61-25 31-13 30-14 59-31 7-4 7-5 7-4 4-3 3-2a226 226 0 0026-21c-7 9-15 16-24 23a324 324 0 01-27 20l-29 17-30 15a491 491 0 01-62 26 1185 1185 0 01-63 21zM2935 795a284 284 0 007 33 214 214 0 0011 32 160 160 0 008 15l4 7 2 3 3 4a144 144 0 0023 24 91 91 0 01-27-22l-5-6-5-8-4-7-4-8a147 147 0 01-11-33 139 139 0 01-2-17 110 110 0 010-17zM2972 630a125 125 0 018 15l7 15a228 228 0 0111 32 191 191 0 014 34 136 136 0 01-2 34 307 307 0 00-3-34 327 327 0 00-5-32 401 401 0 00-20-64zM2978 754a60 60 0 013 10l3 9 1 10a100 100 0 011 10 31 31 0 01-5-9 46 46 0 01-3-10 57 57 0 01-1-10 36 36 0 011-10zM3000 627a71 71 0 016 10 115 115 0 016 11 131 131 0 017 24l1 6 1 6a105 105 0 010 13 81 81 0 01-4 25 196 196 0 000-25l-1-6-1-6a243 243 0 00-15-58zM487 1655l8-7 4-4 4-3 7-8 7-7 28-32 25-33 7-8 6-8 13-17a664 664 0 01-22 36 436 436 0 01-32 42l-7 8-7 8-7 7-4 4-4 3-4 4-4 3-5 3-4 3a90 90 0 01-9 6zM468 1629l7-8 8-7 14-15 15-14 15-15-2 5-3 4-3 5-3 4a164 164 0 01-14 16 173 173 0 01-16 13 138 138 0 01-18 12zM529 1764a104 104 0 01-3-15l-1-14a156 156 0 013-30 146 146 0 014-15 112 112 0 015-14 98 98 0 0116-25 202 202 0 00-12 27l-2 7-1 4-1 3-3 14a254 254 0 00-4 29l-1 29zM588 1803a191 191 0 01-6-22 250 250 0 01-5-69l1-6 1-6v-5l1-3v-3a171 171 0 016-23 148 148 0 019-21l3-5 3-5 6-9-2 5-2 2-1 3-2 5-2 5-2 5-2 6-2 5-1 6-1 2-1 3-1 6-1 5-1 6a240 240 0 00-3 45v22a436 436 0 005 46zM638 1746a227 227 0 017 29 297 297 0 014 30 170 170 0 011 31 71 71 0 01-3 15 30 30 0 01-4 7 19 19 0 01-2 3 12 12 0 01-3 2 14 14 0 004-6 35 35 0 002-7 101 101 0 001-15 324 324 0 00-4-59l-3-30z"/>
  <path d="M3462 1105c-7 26-51 175-55 202s-6 56-9 85a9775 9775 0 00-7 121c0 46-3 92-9 137-1 7-4 14-6 20-11 0-15-6-17-14l-8-55-7-125-1-56-4-85a43 43 0 00-5-17c-16-32-20-67-23-102-2-19-4-38-11-57-9-23-9-47-13-73 79 6 159 15 175 19z" class="m"/>
  <g clip-path="url(#y)">
    <path d="M3404 1598s-71 49-9 74 9-74 9-74zM3391 1590s-20-15-19-22c9-61 9-135 9-135l-9-18 10-36-5-6 12-65s-17 2-10-13c54-115 134-205 134-205z" class="bz"/>
  </g>
  <path d="M3455 1473c-3-6-6-11-7-17-4-24-8-48-10-71-1-17 2-33 2-50l-8-108c-2 0-12-115-9-128 23 3 29 3 97 14-1 20-9 41-12 60-6 39-19 76-22 116-4 56-12 112-19 168-1 5-5 11-7 16z" class="n"/>
  <g clip-path="url(#aa)">
    <path d="M3447 1475s25-43 12-102 0-63 0-63 21-37 27-23-14 21-14 21-2 27 15 38c6 4-19 10-19 29-2 34 16 91 16 91zM3467 1226l-3-8 8-9s14-49 16 13-19 56-19 56c-3-7-7-13-7-16-2-6 2-22 5-36z" class="bz"/>
  </g>
  <path d="M4033 1258c-8 31-8 58-7 85a353 353 0 01-10 91c-2 9-1 17-2 26l-6 33c-2 5-7 12-11 13-8 1-11-7-12-13-3-11-5-23-6-34v-62l-7-147v-40c0-4 2-8 4-15l78 20z" class="o"/>
  <g clip-path="url(#ac)">
    <path d="M3959 1227s57 79 7 205zM4014 1475s-22-25-1-103l-10-54s7-46 6-68c0 0-2-5 2-7v-7s-13-6 1-10c0 0-8-14 5-16s1 17 1 17l12 16z" class="bz"/>
  </g>
  <path d="M4025 1208l101 23c17 4 17 6 12 22-4 12-9 25-12 38-4 15-7 31-8 47l-4 107-4 106-3 27-9 69a52 52 0 01-7 21c-6 9-15 9-20-2a37 37 0 01-4-11l-3-36-5-71-4-104v-96c-1-30-12-58-22-90z" class="p"/>
  <g clip-path="url(#ae)">
    <path d="M4033 1192s10 70 26 133l3 67s10 10 6 18-6 31-10 167l-27-250-6-125zM4088 1674s-2-60 2-100c0 0 7-27 4-54l2-51s-12 3-6-37c0 0 11-31 4-56 0 0-2-5 6-39l4-61s-9-16 5-23l18-48 5 29s-25 42-6 90l-7 329z" class="bz"/>
  </g>
  <path d="M3741 1152l-13 77c-2 15-5 29-6 44-2 47-4 94-3 141 0 38-7 75-10 113-2 17-2 34-3 52l-8 65c-1 12-9 20-20 25-11-4-14-14-14-23-1-56-17-111-14-167 1-18-3-37-7-55-4-24-4-47-2-72s0-47-1-71l-3-40-7-109c39 7 75 9 111 20z" class="q"/>
  <g clip-path="url(#ag)">
    <path d="M3743 1164s-36-7-39 46l4 16-20 58s53 17-5 105c0 0-2 12 15 12 0 0-13 22-2 79 0 0-13 23-7 34 0 0-24 5-4 19 0 0-11 31-8 47s21 30-11 94 59-32 59-32z" class="bz"/>
    <path d="M3633 1360l21-7s-11 37 0 99-9 26 11 143-90-24-90-24z" class="bz"/>
  </g>
  <path d="M4301 1530c-2-5-5-10-5-16-3-41-7-82-8-123-1-33 3-121 3-121l48 14-4 35-13 155a398 398 0 01-7 43c-1 5-5 9-8 14-1 3-5 3-6-1z" class="r"/>
  <g clip-path="url(#ai)">
    <path d="M4283 1283s20 4 12 37c0 0 4 92-12 103zM4305 1555s11-45 6-69c0 0-1-19 7-28 0 0 0-42 11-55 0 0-10-35 9-36 0 0-19-22-6-50 0 0 4-6-9-11 0 0-10-39 4-37l28 20-10 203z" class="bz"/>
  </g>
  <path d="M3116 961l-5-6-6-6-5-6-2-3-3-4a286 286 0 01-18-26 230 230 0 01-15-29 197 197 0 01-11-31 248 248 0 01-5-32 251 251 0 01-2-32l1-32a70 70 0 00-3-15 53 53 0 00-6-14l1-1a43 43 0 0110 13 58 58 0 013 8 55 55 0 012 8c2 11 2 22 2 33l1 31a190 190 0 004 31 209 209 0 009 31 233 233 0 0013 29c10 18 22 36 36 52z"/>
  <path fill="url(#n)" d="M2729 998l43-18c59-27 136-75 158-79 0 0 14-6 33 0s413 94 413 94l261 60 182 45 224 62 66 21s148 45 283 103l45 22-83-18-329-83s-150-40-418-81-299-39-299-39l-257-19-94-2c-29 0-76-17-76-17z"/>
  <g clip-path="url(#ak)">
    <path fill="url(#al)" d="M2738 996s60-6 101-4c0 0 298 28 336 36s322 50 378 65 201 37 423 89 449 126 449 126l-53-99-1458-363z"/>
  </g>
  <path fill="none" stroke="#000" stroke-miterlimit="10" stroke-width="4" d="M2729 998l43-18c59-27 136-75 158-79 0 0 14-6 33 0s413 94 413 94l261 60 182 45 224 62 66 21s148 45 283 103l45 22-83-18-329-83s-150-40-418-81-299-39-299-39l-257-19-94-2c-29 0-76-17-76-17z"/>
  <path d="M145 1590s5-24 9-4c0 0-32 98-5 93 0 0 30-26 55 10 0 1 24 84 59 6 0 0 34-46 82-8 0 0 14 6 5-46s44-65 44-65-29-21-4-61c0 0 9-11 20 8 0 0 7-43 53-41 0 0 30 3 18 49 0 0-32 53-10 80 0 0 46 22 33 76s-6 92 34 83 78 47 70 62c0 0 22 6 38-34s71-22 68 7c0 0 37 11 50-28 0 0-3-40 25-44s29 31 24 50 35 21 35 21 10 2 4 19 4 92 27 86c0 0 18 8 32-8l10-45-11-12s-23 22-32-5c-13-38 33-115 68-69 0 0 15-26 46-18 0 0-5-97 54-81 0 0-8-149 44-161s22 107 22 107 34 31 26 77-19 40-40 34c0 0-13 42 18 70 0 0 3 8 17 4 0 0 17-28 63-8 0 0 38-6 45 11 0 0 28 12 53-47 0 0 27-63 70-59s40 81 29 115c0 0 14 17 38 4s42 3 42 3 37-9 43-23 40-31 61-21 45 41 87 54c50 15 58-46 68-49 0 0 17-7 24-5 0 0 16-107 44-117s29 65 29 65 47-83 28-158c0 0-34-3-16-55 0 0 29-45 40 0 0 0 43-39 71-9 0 0 32 4 30 62-2 42 40 30 40 30s28-2 25 28-8 131 37 122 55-24 67-19l64 28c29 13 41-116 41-116s-51-35-15-64c43-36 48 31 52 36 0 0 31 17 34 39s2 80-11 115l8 8s6 54-42 99c0 0-53 80-101 62 0 0-37 24-47 36l-30 38s24 24-138 86c0 0-28 60-63 56 0 0-27 59-61 77 0 0 0 10-15 23l-147 49c-212 49-179 142-232 123 0 0-143 219-366 73 0 0-131 39-213-18s-162-70-162-70-65-6-93-45c0 0-26 6-46-13 0 0-124-131-142-227 0 0-34-12-40-52 0 0-33-32-16-44l-12-9s-114 31-152-96c0 0-26-22-28-51l-13-8s-17-47-17-70a109 109 0 01-13-33s8-25-1-36c0 0-30-37 6-131z" class="f"/>
  <g clip-path="url(#an)">
    <path d="M972 1733s21 29 30 9c0 0 2-52 34-59 0 0 7 21 17 10s15-141 15-141 14-57 71-37l-3-77-126 100zM1154 1711s-18 19-58 2c0 0-41 28 22 75 0 0-3 28 19 26s35-22 35-22 15 10 18 22c0 0 16 12 21-20l15-24s14 66 55 32 59-139 125-73l56-53zM1499 1793s-51 51-3 34 38-61 107-45l-10-46zM1608 1763s-5 35 1 40 32 35 47 79c0 0 30 26 38-32 0 0 28 30 25-83zM1734 1751s3 60 27 61 3-128 56-146-46-56-46-56z" class="ck"/>
    <path d="M1841 1660s-15 47 0 53 57-78 30-155c0 0-31 2-18-38s120-49 120-49l-188-10z" class="ck"/>
    <path d="M446 1497s7-59 53-23c0 0 77 292-13 270-28-7-12-74-12-74s-37-33-37-101c0 0-58-30 9-72z" class="j"/>
    <ellipse cx="590.9" cy="1787.4" class="j" rx="27.6" ry="47.5" transform="rotate(-7 594 1795)"/>
    <ellipse cx="695.7" cy="1756.9" class="j" rx="22.5" ry="47.5" transform="rotate(-7 700 1764)"/>
    <ellipse cx="943" cy="1733" class="j" rx="47.5" ry="50.5"/>
    <ellipse cx="853" cy="1817.5" class="j" rx="46" ry="13.5" transform="rotate(-86 853 1818)"/>
    <ellipse cx="822" cy="1755.5" class="j" rx="31.5" ry="67"/>
  </g>
  <ellipse cx="1571.5" cy="1955.5" class="ck" rx="11" ry="17"/>
  <ellipse cx="1921.5" cy="1809.5" class="ck" rx="18" ry="12" transform="rotate(-85 1920 1809)"/>
  <ellipse cx="1900.5" cy="1795.4" class="ck" rx="6.7" ry="4.5" transform="rotate(-56 1899 1795)"/>
  <ellipse cx="1404" cy="2361" class="j" rx="15.6" ry="12" transform="rotate(-70 1405 2362)"/>
  <path d="M1385 2257s-47 49-14 81 62-58 59-84c-4-29-44-50-45 3z" class="j"/>
  <ellipse cx="561.5" cy="2079.5" class="j" rx="28.8" ry="40.5" transform="rotate(-15 561 2077)"/>
  <ellipse cx="608.5" cy="2109.5" class="j" rx="14.9" ry="18.3" transform="rotate(-15 607 2107)"/>
  <ellipse cx="785.5" cy="1373" class="g" rx="38.9" ry="21" transform="rotate(-80 785 1373)"/>
  <g clip-path="url(#ao)">
    <ellipse cx="776.3" cy="1359.8" class="h" rx="38.9" ry="21" transform="rotate(-80 776 1360)"/>
  </g>
  <ellipse cx="572.8" cy="1687" class="g" rx="27.4" ry="19.7" transform="rotate(-80 573 1687)"/>
  <g clip-path="url(#ap)">
    <ellipse cx="563.7" cy="1677.2" class="h" rx="27.4" ry="19.7" transform="rotate(-80 563 1677)"/>
  </g>
  <ellipse cx="1493.4" cy="1530.4" class="g" rx="18.2" ry="17.5" transform="rotate(-46 1493 1530)"/>
  <g clip-path="url(#aq)">
    <ellipse cx="1486" cy="1521.5" class="h" rx="17.9" ry="23.3" transform="rotate(-30 1487 1522)"/>
  </g>
  <ellipse cx="832.5" cy="1433.5" class="g" rx="21" ry="13" transform="rotate(-83 833 1434)"/>
  <g clip-path="url(#ar)">
    <ellipse cx="829.5" cy="1431.5" class="h" rx="21" ry="13" transform="rotate(-83 830 1432)"/>
  </g>
  <ellipse cx="271.3" cy="1474.8" class="h" rx="11.7" ry="7.4" transform="rotate(-83 272 1475)"/>
  <g clip-path="url(#as)">
    <ellipse cx="278.6" cy="1483.7" class="g" rx="7.4" ry="11.7"/>
  </g>
  <ellipse cx="803.5" cy="1464.5" class="h" rx="11" ry="9" transform="rotate(-67 802 1464)"/>
  <ellipse cx="1323" cy="514" class="cq" rx="41.5" ry="47.5"/>
  <circle cx="1359.5" cy="478.5" r="20" class="cq"/>
  <ellipse cx="1588.5" cy="547.5" class="cq" rx="27" ry="22" transform="rotate(-79 1595 548)"/>
  <ellipse cx="1615.5" cy="506.5" class="cq" rx="12" ry="10" transform="rotate(-79 1615 507)"/>
  <ellipse cx="1254.5" cy="1017.5" class="i" rx="17" ry="22"/>
  <g clip-path="url(#at)">
    <ellipse cx="1247" cy="999.5" class="cq" rx="18.5" ry="23"/>
  </g>
  <path fill="url(#au)" d="M660 597l14-20c4-5 9-10 9-15-1-23 14-36 29-49l59-45 9-12c14-1 5-13-11-19-4-13 3-22 11-30 21-23 49-36 78-45 16-6 33-9 50-13 17 20 33 18 40-7a146 146 0 0128-52c3-6 7-13 12-18 23-24 49-46 70-73 32-39 71-64 121-73 17-3 35-3 53-5 22-3 152-10 188-38a75 75 0 0118-12c19-7 38-16 57-21 24-6 48-10 72-14 6-1 12-3 18-2 32 3 65 7 97 12 16 2 33 4 45 16 4 3 19 29 33 23l10-1h-1c31-1 59 8 81 30a78 78 0 0129 15c9 3 18 4 25 9 25 16 48 33 71 50 2 1 3 4 7 10l-15-5c-5-3-12-4-16-8-49-43-108-45-169-39a152 152 0 01-45-2c-8 25-21 48-17 78 7 56-45 102-96 88-12-3-21-9-29-17-3-9-22-40-31-50-2-2-2-5-3-7a7 7 0 000-2c-5-48-5-48-54-41-40 6-49 15-54 54-3 30-28 42-54 24-7-5-12-13-23-14-9 13-24 21-39 27-28 11-53 8-75-14-19-20-22-20-47-8-17 9-35 11-54 4-4-2-9-5-15-1-2 17 15 22 22 32 7 7 14 11 24 13 13 3 27 7 35 21-4 18-19 22-35 23-22 3-45-4-67-3-8 0-16-1-26 1 4 14-4 22-14 26-31 14-37 36-31 67s-10 51-43 52c-3-2-7-3-10-6-16-16-15-16-32-22-2-9-3-18 6-24 6-7 1-16 3-23s4-15 3-25c-13 9-23 18-31 30-11 18-28 30-46 39-26 14-54 6-66 16-50 42-106 75-160 112-6 3-11 8-18 3z"/>
  <path fill="url(#av)" d="M1149 822c2-8 2-17 7-22 16-15 33-30 52-42 15-11 34-12 52-8 13 3 23 0 33-8 14-12 30-18 49-17l14-1c14-6 25 0 34 10 4 4 9 5 15 5 23-2 46-1 69-2 27-1 45 12 58 35 2 2 4 5 3 9-3 12 3 18 15 20 16 4 26 16 34 31-3 8-13 16 2 23 10 6 19 14 29 19 13 8 23 17 25 33 6 13 2 30 18 37 14 5 20 15 20 29-22-3-38-17-54-30-9-8-5-22 2-36-39-16-72-43-108-63a65 65 0 00-21-6c-7-1-16-3-20 5s4 13 10 17c7 5 0 9-1 14-3 2-7 4-9 2-23-10-48-7-72-11-4 3-4 8-6 12-8 34-35 54-69 52-7 0-13-2-17-8l-6-18c-3-5 0-11-4-17-20 0-39 11-59 11-16-8-11-21-10-34-4-6-7-14-16-13s-11 8-13 15c-9 27-27 50-31 79-3 17-17 20-29 7-7-9-14-13-22-2-7 9-15 8-25 7-16-3-21 2-19 19l13 7c6 6 8 12-4 12-3 1-5 0-8-1-46-20-84-5-121 24-3 2-7 6-12 3 1-3 1-7 3-9l48-57 5-2c13-7 24-15 21-33-1-5 4-8 8-11l1-1 85-35c24 0 28-33 31-50z"/>
  <path fill="url(#aw)" d="M2654 376c58-16 110-6 152 39l7 7c9 10 19 15 32 8 4-2 9-2 13-3 11 0 22-2 32 1l2 1c20 6 14 29 23 41 9 2 11-6 16-9h16c6 7 0 16 4 25 12-12 1-30 13-41 4 1 10 1 12 4l24 33c8 11 9 24 10 37 1 25 4 28 29 34 37 2 63 32 59 68-7-1-10-6-12-12-13-23-33-33-59-34-15-1-30 0-46-3-7 19-8 37-14 55s-13 20-32 16c-8-10-11-21-11-33v-22c0-9-8-12-15-14-23-6-32-21-31-44 0-10-27-22-40-27-25-10-43-24-51-52-3-11-23-7-20-1 10 23 3 40-12 57s-32 21-54 16c-28-5-41-29-61-43-5-4-10-7-14-12-2-3-2-8-3-12-11-14-19-31-39-35-13 4-13 4-9 20-16 10-29 0-39-11s-20-28-41-18a5 5 0 01-4 0c-25-19-57-16-85-24l-2-3c6-8 12-17 20-23 4-3 11-4 17-4l63 4 42 3c10 0 20 2 30-5 7-6 15-3 20 6 10 6 11 22 23 24s20-12 31-15a7 7 0 014 1z"/>
  <path fill="url(#ax)" d="M264 1047c3-6 5-13 10-18l65-68c8-8 19-13 29-20 4 8-1 13-5 18-14 18-26 37-43 52 5 18-1 37 11 53 14 7 13 21 15 34-3 5-2 11-4 17-7 23-14 28-38 22-8 20-7 40 0 59 5 13 9 26 9 39-1 9-3 18-16 13l3 57c2 11 1 23-13 28-2-5-6-9-7-13l-4-47c0-5 1-11-7-12-11-9-6-20-7-31 2 35-2 70 2 104 2 14 3 28-2 41-4 12-10 19-23 14-3-7-6-13-7-20l-2-27c-10 4-7 15-10 23-4 13 1 30-17 37l-2-47c0-12 2-24 3-35 5-6 8-12 4-20 0-29-3-58 8-86 6-18 12-37 28-50 20-5 22-9 20-30l-7-48c-1-8-2-17 2-23 4-5 1-11 5-16z"/>
  <path d="M1168 297c-20-3-27-18-33-34 8-8 16-9 24-4 18 11 36 7 53-1l4-2c24-14 29-13 48 8 21 23 41 27 71 15l16-7c12-4 20-11 18-26 13 3 22 10 29 18 11 13 25 10 39 8 8-2 10-10 11-17l3-26c3-22 18-36 39-39l45-6c15-2 27 6 30 22v27l-4 3c-13-19-15-20-36-13a115 115 0 01-17 4c-17 3-29 11-36 27-11 26-32 35-59 28-13-4-26-3-38 3l-17 7c-25 11-49 9-74-1-18-7-38-8-55-1-20 9-40 9-61 7z" class="i"/>
  <path d="M1236 1400c-9-1-10-8-12-14l-6-28c-18-5-21-19-22-36v-21c1-7 2-18 5-25 11-23 31-40 51-54 18-12 39-2 46 18l14 37c5 20 3 39-8 57-13 19-31 17-49 8-11 10-8 22-9 34-2 9 3 20-10 24z" class="cq"/>
  <path d="M1595 293c4 1 9 1 13 3 34 22 70 14 91-20 13-21 22-42 14-68a24 24 0 010-14l22-63c13 17 30 12 45 9 24-4 47-5 71 1l6 1c35-7 60 15 86 30 9 5 16 14 24 21-11-4-23-7-32-13a83 83 0 00-46-15l-42-3c-19-3-38-3-56 6-8 4-17 5-25 8-19 6-30 18-32 38l-4 40c-6 52-38 79-91 76-9 0-18-3-24-11s-19-13-20-26zM660 597l12-6 87-56c28-19 55-40 81-61 7-6 10-17 14-26 3-6 4-13 8-19l5 26c4 13 12 18 24 12s22-11 31-18c12-10 26-19 30-36 0-2 2-3 4-4l31-26c1 22-3 41-9 61l-3 1c0-8-4-12-10-7-7 7-14 8-23 9a23 23 0 00-21 15c-9 27-31 32-54 32-14-1-26 2-37 10l-35 25c-18 12-35 25-54 34-35 18-69 38-98 65l-17 13h-6c5-15 20-21 27-33 2 0 3-2 4-4a9 9 0 004-3 30 30 0 005-4zM2640 480c11-5 17 5 21 10 11 18 27 24 46 29 15 4 28 1 38-10 6-5 11-13 16-20 8-11 8-23 2-36s-8-23-13-36c27 8 39 18 45 41 4 16 15 26 29 33l34 15 8-20c9 2 13 7 14 15l3 36c1 20 5 25 24 31 8 3 16 5 22 10s3 10-5 10l-38-14c-9-3-15-9-18-19-2-7-7-12-11-18a61 61 0 00-44-32c-5 0-9-6-14-10l-18-14-4 13c-8 29-43 57-80 37-23-12-43-28-57-51zM1011 497l18-8c16-6 25-20 22-37l-4-28c-6-17 2-28 15-37l36-24-14-11c7-9 16-8 24-7l76 4c18 2 32-5 43-18l15 1a79 79 0 01-61 33 263 263 0 01-39 0c-15-1-26 5-37 13l-28 22c-10 7-15 15-14 28s3 27 2 40c-3 28-27 40-54 29zM1487 861c-3-2-7-2-9-4-5-5-9-12-4-18 3-4 12-9 16-7 17 4 33 10 48 18 18 10 33 22 50 33l35 18c5 3 9 9 13 13l-2 4-9-3v25l53 33c-1 3-1 5-3 7s-4 1-5 0c-33-21-73-32-101-62 5-6 9-2 14-1 8 3 15 9 23 11 2 0 5 1 6-2a16 16 0 010-2c6-11-2-17-10-20-27-9-49-27-73-42-11-7-24-13-36-18-3-2-8-1-16-3l10 20zM287 1333c10-11 8-23 7-36l-3-69 4-1 8 21c2-5 5-8 4-11-2-13-3-26-8-38-12-26-4-50-2-76l6 2c18 18 24 16 33-7l10-20c4 18-4 34-10 49-4 10-7 10-25 9-2 13-2 27 2 40a344 344 0 018 39c2 14 0 27-10 37-6 7-7 14-6 22a249 249 0 010 26c-1 9-4 16-14 16a10 10 0 00-4-3zM2935 643c23-3 24-3 29-25l11-53 35 4 26 1c29 2 47 18 58 44l4 7c0 7 5 13-5 19-4-6-9-13-12-20-9-22-26-34-50-36h-47l-1 22c-2 11-3 23-6 33s-11 16-21 17-18-2-21-13zM2404 385l55 4c5 1 9 4 14 7l27 15 9-18 26 28c10 14 23 21 40 20 2 1 3 3 5 3l6 3 10 5 3 2c6 5 11 10 3 18a120 120 0 00-52-18c-12-1-21-6-29-16s-15-13-26-16c-13-3-26-9-39-14-9-4-19 2-28-3-4-4-9-1-12-4h-1c-2-3-5-2-8-4-4-3-8-6-3-12zM1313 921c9 4 19 5 29 1l11-3c33-10 33-10 42-44l8-25h4l7 13 3 1c20-5 39-2 57 8 4 2 8 1 12 2l15 12-2 2c-6-1-12-2-18-5-19-7-39-6-59-5-10 0-14 4-16 13-10 40-32 47-66 48-13 1-23-5-27-18zM1438 71c-47 53-108 63-175 56l-31-6c4-1 9-4 13-4 65-6 128-19 188-44l5-2zM1079 975c-5-3-11-5-9-13s13-13 21-13l9 3 10 4 14-17c7-8 13-8 19 1l11 16c13 0 17-9 17-18-1-13 4-22 9-32l22-49c3-7 7-15 16-15s17 8 20 18l-4 3c-8-4-13-1-17 6-12 23-29 44-33 72-2 18-18 25-35 18a42 42 0 00-15-3l-26 1c-13-1-25 3-29 18zM947 1020l11-8c12-16 29-23 47-27h4c28-13 54-7 80 6h5l-2-9c8 3 11 9 7 17s-10 8-17 6a68 68 0 01-13-4c-19-9-38-8-57-2-25 7-51 13-69 36l-4-4 8-11zM1236 1400l4-24c1-11 1-21 4-31 1-5 7-11 11-12s8 7 14 11c23 1 36-10 39-36l4-31c10 20 7 55-8 70-11 13-21 13-35 1l-5-3c-10 5-7 14-8 21l-4 31c-1 4-6 7-10 9l-6-6zM239 1389c15-5 19-8 20-25 1-21-1-43-2-64l-1-6c2-21 2-41-1-62 0-5 4-11 7-16 2-2 7 0 14 0-9 16-10 30-7 45l3 93c1 8 2 16 1 24s-5 16-14 20-16-2-20-9z" class="i"/>
  <path d="M1340 1336c-13-9-15-18-8-31s17-19 27-16c12 4 19 18 18 37l10 5c6 6 6 17 0 22s-13 5-19-2l-14-11c0-3 2-5 5-8-7 2-13 6-19 4z" class="cq"/>
  <path d="M259 1064l10 69c1 8 2 16 0 23-4 16-11 18-26 8a299 299 0 0113-99 24 24 0 002-2zM331 1064c-13-11-16-26-13-44l-11-9c29-17 44-44 61-70 10-5 11 3 9 9s-7 11-11 16l-20 25a89 89 0 00-15 73zM976 290l-1 4c-13 18-19 38-25 59-4 14-19 19-32 15-10-3-11-10-10-19l3-1c3-2 6-4 10-4 16-7 27-17 36-32 5-8 12-15 19-22zM1149 822c4 30 7 59-10 87l-9 10c-13-17 3-26 9-38l-22-9 2-3c17-11 24-29 30-47zM203 1402c11-11 10-26 12-39s8-26 19-36l-4 15-5 27a255 255 0 01-17 59c-15-8-5-18-5-26z" class="i"/>
  <path d="M2764 609c-8-20-3-31 19-40l18 15a16 16 0 012 6c4 13-1 24-14 29-11 4-20 1-25-10z" class="cq"/>
  <path d="M769 437l3-4h29l15-2c4 0 8 3 10 6s-1 8-4 10a267 267 0 01-33 16c-2 0-6-4-9-6l-11-20zM3039 553c-22 6-33-1-35-23l-4-48 22 48 17 23zM1244 897c14-6 28-14 45-13 4 0 9-6 15-11 8 10 9 19 3 30-17-3-34-7-52-2-3 1-7-2-11-4zM2654 376l-23 18c-11 8-16 7-23-4l-12-24c3 0 6 0 9 2 15 10 32 10 49 8zM2931 461l-1 8c-4 4-8 10-12 10s-8-7-11-11a15 15 0 01-2-10c1-12-6-21-13-29 11 1 18 9 25 17l14 15zM2964 445l-1 29c-1 9-3 19-14 25-10-13-4-26-2-39l3-12c3-7 8-7 14-3zM1032 909c-2 5-5 11-4 16 1 18-2 24-19 27a38 38 0 01-6 0c-1-21 7-37 29-43zM300 1381c10 2 13 10 12 18-1 10-4 21-8 31s-9 8-18-1c4-16 5-33 14-48zM2764 609l9 5c16 5 26-1 27-18a117 117 0 00-1-11c5-2 7 0 8 4 3 10 2 20-4 28s-14 11-23 9-16-6-16-17z" class="i"/>
  <path d="M2807 589l-8-4h1c-9-9-10-21-13-33 11-7 16-7 24 0s10 17 5 24l-9 13z" class="cq"/>
  <path d="M1760 85c-3 3-6 7-10 9-7 5-14 3-17-6s-4-17-5-26z" class="i"/>
  <path d="M300 1381c0 17 2 35-13 48-14-18-7-41 13-48z" class="cq"/>
  <path d="M2584 421c4-1 9-3 12-1 16 6 23 21 27 36zM1550 801c-6 3-13 7-18 0-3-4-2-10-2-16l2-13zM1586 855h-11c-8-3-9-10-3-16l12-7c11 6 4 15 2 23zM2788 552c10 9 11 21 12 33-11 0-17-5-17-16zM1658 944c-17-5-17-6-18-21v-16l4 4c1 13 7 23 14 33zM1340 1336l29-15c4 4 3 9-1 13s-9 4-14 6zM1879 129l-29-15c14-4 22 4 29 15z" class="i"/>
  <path d="M1612 931c-14 4-22-5-29-14l30 6c1 3 0 6-1 8z" class="cq"/>
  <path d="M208 1300c6 12 6 15-4 20zM1769 85h1v-2l-1 2zM1033 907a1 1 0 00-2 2zM1682 228c-7 6-12 12-17 13-21 6-42 14-67 16 3-6 4-10 7-12 17-19 40-21 64-23 3 0 6 3 13 6zM1552 161c-2-3-7-7-8-12-1-7 7-15 14-16 6 0 11 2 12 8s-9 19-18 20zM240 1207l-4 12c-1 1-6 0-7-1-3-7 0-11 11-11zM302 1088l-2 11-7-1 2-11zM1237 1282c9 10 7 17 3 23-2 3-7 6-10 5-5-1-7-7-4-13s7-8 11-15z" class="i"/>
  <path d="M1622 1486s31 5 29 41-21 38-29 29c0 0-8 66-56 65-40-1-33-35-33-35s9-81-4-126c0 0 0-44 40-49 55-8 53 75 53 75z" class="j"/>
  <g clip-path="url(#ay)">
    <path d="M1629 1552c12-7 14-17 15-28s-1-20-12-25c-2-2-6-21-6-21l64-3-69 160-47-11a219 219 0 0016-29c5-11 8-22 11-32 5-20 9-22 28-11z" class="cx"/>
  </g>
  <ellipse cx="1573" cy="1479" class="g" rx="18.5" ry="14.5" transform="rotate(-80 1575 1487)"/>
  <circle cx="1561.5" cy="1499.5" r="9" class="g"/>
  <circle cx="1582.5" cy="1481.5" r="11" class="h"/>
  <path d="M613 1587c-10-2-37-16-11-56 3-39 65-38 41 35 0 0 34-8 43 11-1 1 10 134-57 127-53-6-34-110-16-117z" class="j"/>
  <g clip-path="url(#az)">
    <path d="M667 1719s-44-3-51-12c10-10 22-28 31-38s15-25 17-39l5-43-27-10c-9-3-11-8-10-16l3-12c3-12-1-41-13-56 15 5 100 17 100 17zM611 1587c-49 28-55-73-11-56-1 18-5 32 11 56z" class="cx"/>
  </g>
  <ellipse cx="208.5" cy="1547.5" class="g" rx="29" ry="17" transform="rotate(-75 208 1547)"/>
  <path d="M241 1648s-41 6-26-61 65-38 60-31 8-23-3 69c0 0-4 24-31 23z" class="g"/>
  <g clip-path="url(#ba)">
    <path d="M236 1568s17-29 32 0c0 0-8 37-3 51s-11 44-19 38-40 3-22-58c0 0 5-27 12-31z" class="h"/>
  </g>
  <path d="M2354 1606s8 17 24-4 11-66-24-65c0 0-18-1 0 69z" class="ck"/>
  <path d="M1595 2344a130 130 0 0016 3 186 186 0 0033 0h9l4-1 4-1a219 219 0 0063-20l7-4 8-4 7-5 3-2 4-2 13-10 7-5 6-5 4-2 3-3 6-5 7-6 6-5 6-6 7-5 12-12 1 1a347 347 0 01-21 27l-6 6-6 6-6 6-3 3-3 3-7 5-7 6-7 4-7 5-4 2-4 2-7 4-8 4-8 4a235 235 0 01-32 12 212 212 0 01-33 6l-5 1h-12a181 181 0 01-34-2 117 117 0 01-17-4zM1914 2254l11-16 5-8 5-8c6-11 12-22 16-34a131 131 0 005-19l1-4 1-5v-5-5a106 106 0 00-6-37l1-1a107 107 0 018 38v15l-1 5a126 126 0 01-4 19l-7 19a132 132 0 01-9 17l-3 4-2 4-6 8a113 113 0 01-14 14zM1394 2491l12-6 12-5 11-6a102 102 0 0011-6 106 106 0 0020-17 89 89 0 008-10l1-3 2-2a52 52 0 003-6 68 68 0 01-5 12 80 80 0 01-7 11 93 93 0 01-9 10 105 105 0 01-10 9l-11 7a78 78 0 01-12 6 93 93 0 01-13 4 72 72 0 01-13 3zM430 2253a455 455 0 0037 90 197 197 0 0013 21 56 56 0 004 5l3 4 4 5 4 4 3 3 2 2 4 4 5 4 5 3a122 122 0 0021 12 91 91 0 01-23-9 108 108 0 01-20-15 140 140 0 01-17-19l-7-10c-3-3-4-7-6-11a231 231 0 01-11-22 283 283 0 01-16-47 226 226 0 01-5-24zM307 2015l-2 1-1 2-1 1-1 1-1 1a66 66 0 00-4 8l-2 4-1 1v2l-2 4-1 4-1 4-1 5-2 8-1 8-1 9-1 4v4l-1 8v15a15 15 0 000 2l-1 9v8l-1 18h-1l-2-17a16 16 0 01-1-3v-6-9-8-9l2-9a83 83 0 011-8l1-9 2-8 2-8 2-4 1-5 2-4 2-4 1-2 1-1 2-4 4-7a35 35 0 016-7zM215 2020a23 23 0 01-7-4 41 41 0 01-6-6 60 60 0 01-9-14 74 74 0 01-4-16 149 149 0 01-2-16 194 194 0 010-33 306 306 0 014-32h1a381 381 0 00-2 40v8l1 8v4l1 4a115 115 0 003 16l4 15a78 78 0 007 14 56 56 0 004 6 29 29 0 006 5z"/>
  <ellipse cx="714.7" cy="2027.3" class="l" rx="18.7" ry="27" transform="rotate(-3 706 2004)"/>
  <path d="M613 1924s-19 57 23 100" class="l"/>
  <g clip-path="url(#bb)">
    <path d="M645 1890a145 145 0 013 21l1 21a207 207 0 01-2 21 182 182 0 01-4 21 159 159 0 01-7 20 121 121 0 01-10 18 105 105 0 01-7 9l-2 2-1 2-4 4a89 89 0 01-17 12 145 145 0 0014-15l4-4 1-2 1-2a38 38 0 003-4l3-5a170 170 0 009-18l1-5 2-5 1-2v-2l2-5a259 259 0 007-41l1-20 1-21z"/>
  </g>
  <path d="M633 1906c11 35 59 51 21 101-22 29-21-101-21-101z" class="l"/>
  <g clip-path="url(#bc)">
    <path d="M645 1890a147 147 0 013 21 210 210 0 01-1 42 180 180 0 01-4 21 154 154 0 01-7 20 127 127 0 01-11 19l-6 8-2 2-1 2-4 4a85 85 0 01-17 12 134 134 0 0014-14l3-5a15 15 0 002-1l1-3 3-4 3-4a181 181 0 008-19l2-4 2-5 1-3v-2l2-5a273 273 0 007-40 464 464 0 002-42z"/>
  </g>
  <path fill="#7894a3" d="M1948 1635c-33-10-90 61 3 136s29-127-3-136z"/>
  <ellipse cx="2475" cy="781" rx="32.5" ry="16.5" transform="rotate(-30 2476 779)"/>
</svg>
