<svg width="4090" height="1049" xmlns="http://www.w3.org/2000/svg" xmlns:xlink="http://www.w3.org/1999/xlink" xml:space="preserve" overflow="hidden"><g transform="translate(-69 -649)"><rect x="69.0001" y="692" width="780" height="779" fill="#00A1E5"/><text fill="#FFFFFF" font-family="Aptos,Aptos_MSFontService,sans-serif" font-weight="400" font-size="147" transform="matrix(1 0 0 1 276.917 1129)">1024²</text><rect x="1044" y="887" width="389" height="389" fill="#00A1E5"/><text fill="#FFFFFF" font-family="Aptos,Aptos_MSFontService,sans-serif" font-weight="400" font-size="110" transform="matrix(1 0 0 1 1131.3 1118)">512²</text><rect x="1628" y="984" width="195" height="195" fill="#00A1E5"/><text fill="#FFFFFF" font-family="Aptos,Aptos_MSFontService,sans-serif" font-weight="400" font-size="73" transform="matrix(1 0 0 1 1654.68 1106)">256²</text><rect x="2015" y="982" width="195" height="194" fill="#F4C8CC"/><text fill="#FFFFFF" font-family="Aptos,Aptos_MSFontService,sans-serif" font-weight="400" font-size="73" transform="matrix(1 0 0 1 2041.03 1103)">256²</text><rect x="2404" y="982" width="195" height="194" fill="#DA4453"/><text fill="#FFFFFF" font-family="Aptos,Aptos_MSFontService,sans-serif" font-weight="400" font-size="73" transform="matrix(1 0 0 1 2430.88 1103)">256²</text><rect x="2794" y="881" width="390" height="390" fill="#DA4453"/><text fill="#FFFFFF" font-family="Aptos,Aptos_MSFontService,sans-serif" font-weight="400" font-size="110" transform="matrix(1 0 0 1 2882.08 1112)">512²</text><rect x="3379" y="692" width="780" height="779" fill="#DA4453"/><text fill="#FFFFFF" font-family="Aptos,Aptos_MSFontService,sans-serif" font-weight="400" font-size="147" transform="matrix(1 0 0 1 3587.01 1129)">1024²</text><path d="M1498 1075.13 1541.63 1075.13 1541.63 1088.88 1498 1088.88ZM1534.75 1061.38 1576 1082 1534.75 1102.63Z" fill="#D9D8DC"/><path d="M908 1076.13 951.63 1076.13 951.63 1089.88 908 1089.88ZM944.755 1062.38 986.005 1083 944.754 1103.63Z" fill="#D9D8DC"/><path d="M1881 1075.13 1924.63 1075.13 1924.63 1088.88 1881 1088.88ZM1917.75 1061.38 1959 1082 1917.75 1102.63Z" fill="#D9D8DC"/><path d="M2269 1069.12 2312.63 1069.13 2312.63 1082.88 2269 1082.87ZM2305.75 1055.38 2347 1076 2305.75 1096.62Z" fill="#D9D8DC"/><path d="M2659 1069.12 2702.63 1069.13 2702.63 1082.88 2659 1082.87ZM2695.75 1055.38 2737 1076 2695.75 1096.62Z" fill="#D9D8DC"/><path d="M3246 1069.12 3289.63 1069.13 3289.63 1082.88 3246 1082.87ZM3282.75 1055.38 3324 1076 3282.75 1096.62Z" fill="#D9D8DC"/><text fill="#D9D8DC" font-family="Aptos,Aptos_MSFontService,sans-serif" font-weight="400" font-size="110" transform="matrix(1 0 0 1 1822.37 784)">Blur</text><text fill="#D9D8DC" font-family="Aptos,Aptos_MSFontService,sans-serif" font-weight="400" font-size="92" transform="matrix(1 0 0 1 1791.25 899)">Pass 1</text><text fill="#D9D8DC" font-family="Aptos,Aptos_MSFontService,sans-serif" font-weight="400" font-size="110" transform="matrix(1 0 0 1 2219.79 784)">Blur</text><text fill="#D9D8DC" font-family="Aptos,Aptos_MSFontService,sans-serif" font-weight="400" font-size="92" transform="matrix(1 0 0 1 2188.67 899)">Pass 2</text><text fill="#D9D8DC" font-family="Aptos,Aptos_MSFontService,sans-serif" font-weight="400" font-size="110" transform="matrix(1 0 0 1 1222.78 1411)">Downsample</text><text fill="#D9D8DC" font-family="Aptos,Aptos_MSFontService,sans-serif" font-weight="400" font-size="110" transform="matrix(1 0 0 1 2993.99 1601)">Upsample</text><text fill="#D9D8DC" font-family="Aptos,Aptos_MSFontService,sans-serif" font-weight="400" font-size="110" transform="matrix(1 0 0 1 2413.06 1414)">Upsample</text><text fill="#D9D8DC" font-family="Aptos,Aptos_MSFontService,sans-serif" font-weight="400" font-size="110" transform="matrix(1 0 0 1 625.08 1601)">Downsample</text></g></svg>