<svg xmlns="http://www.w3.org/2000/svg" viewBox="0 -52.3 898.1 898.1">
	<path fill="none" stroke="#587b7f" stroke-miterlimit="10" stroke-width="25.6" d="M828.1 396.8a384 384 0 0 1-768 0" paint-order="fill stroke markers"/>
	<path fill="none" stroke="#587b7f" stroke-dasharray="51.2, 51.2" stroke-miterlimit="10" stroke-width="16" d="m60.1 396.8 284.6 371m483.4-371-483.4 371" paint-order="fill stroke markers"/>
	<path fill="none" stroke="#8dab7f" stroke-dasharray="1, 0" stroke-linecap="round" stroke-miterlimit="10" stroke-width="25.6" d="M60.1 396.8a384 384 0 0 1 768 0" paint-order="fill stroke markers" style="display:inline;stroke-linecap:butt;stroke-linejoin:miter;stroke-dasharray:none"/>
	<path fill="none" stroke="#8dab7f" stroke-dasharray="1, 0" stroke-linecap="round" stroke-miterlimit="10" stroke-width="16" d="m55.3 396.8 489.4-369m288.2 369-288.2-369m-489.4 369h777.6" paint-order="fill stroke markers" style="stroke-dasharray:none"/>
	<path fill="#eae8ff" d="M.1 505.8v-75.4q.3-1.4 1.3-2.4t3-1q4 0 4.3 3.6 1 34.6 21.7 53.8 20.4 19 55.2 19 21 0 34-15.2 13-15 13-35 0-18.9-10.9-32.2-4.6-6-10.3-9.8-5.8-3.9-9.3-5-3.5-1.3-10.1-3-43.4-10.4-46.2-11.6-20.7-7-33.2-24.7Q0 349.2 0 327.5q0-28 19.8-48 19.7-19.7 48.3-19.7 14.4 0 26.4 4.5 12 4.5 17 8.6t12.7 11.5l12.1-20q2.7-4.6 5.3-4.6 2.7 0 3.3 1.6.6 1.6.6 6.7v70.4l-.1 5.3q-.2 1.4-1.3 2.3-1.1.8-3.2.8-3.4 0-4.3-4-9.7-73.2-68.1-73.2-20 0-33.1 13.4-13 13.4-13 32.4 0 15.3 9.5 28 9.5 12.5 25.8 16.4l44.8 10.8q22.3 5.3 37.4 25 15 20 15 45.7 0 29.8-19.4 51.3-19.4 21.5-49.6 21.5-21.7 0-38.5-7.2-16.6-7.2-25.7-17.2-7 11.6-11.6 18.1l-1 1.7q-2.8 4.6-5.3 4.6-2.8 0-3.3-1.7t-.4-6.7zm207.3-18.2q-23.2-22.9-23.2-56.1t22.7-57.6q22.6-24.3 55.1-24.3 31.8 0 54.6 24.1 22.8 24.2 22.8 57.9 0 33-23 55.9t-54.7 22.9q-31.1 0-54.3-22.8zm5.9-59q0 34 8.9 49.5 13.7 23.4 39.8 23.4 13 0 23.8-7 10.9-7 16.9-18.8 7.7-15.4 7.7-47 0-33.7-9.3-48.6-13.6-22.7-39.4-22.7-11.3 0-22.3 6-11 5.8-17.7 17.4-8.4 15.4-8.4 47.9zm149.2 77.8v-10.6q12.6 0 20.7-2.5 8-2.5 11-7.2t3.7-7.8q.7-3.2.7-8.5v-175q0-10-4.4-13.3-4.4-3.1-23.3-3.1h-8.4v-11h59.1q6.3 0 8 1.2 1.8 1 4.3 6.5l76 196 76.5-197q1.7-5 3.3-5.8 1.6-.9 8.3-.9h59.1v11h-8.3q-19 0-23.4 3.1-4.3 3.2-4.3 13.3v184.4q0 10 4.3 13.3 4.4 3.3 23.4 3.3h8.3v10.7q-13-1-50-1-37.5 0-50.5 1v-10.7h8.6q19 0 23.2-3.2 4.3-3.2 4.3-13.4V278.3h-.3l-86 221.5q-2.4 6.6-6.3 6.6-4.3 0-7-7.7L408.6 281h-.3v188.8q0 5.3.7 8.5.7 3.1 3.7 7.8 3 4.7 11 7.2t20.7 2.5v10.7q-36.8-1-41-1-4.2 0-40.9 1zm520.9 0H681.6v-10.6h8.3q19 0 23.4-3.2 4.3-3.2 4.3-13.4V295.7q0-10-4.4-13.2-4.5-3.2-23.3-3.2h-8.3v-11h197l9.8 78.9h-8.8q-2.4-20-5.5-31.6-3.2-11.5-10.8-20.4-7.6-8.9-20-12.4t-32.4-3.5h-45q-12 0-14.6 2.5-2.6 2.5-2.6 11.5v84h31.5q24 0 31-8.4 6.7-8.4 6.7-32.5h9V429h-9q0-23.7-6.8-32.3-6.8-8.5-31-8.5h-31.4v93.5q0 9 2.7 11.5 2.6 2.5 14.4 2.5h46.7q15 0 26-2t18.7-6.8q7.7-4.9 13-10.5 5.2-5.7 8.8-15.9 3.7-10.1 5.8-19.5 2.2-9.4 4.6-24.8h8.7z" paint-order="stroke fill markers"/>
</svg>