<svg xmlns="http://www.w3.org/2000/svg" xmlns:xlink="http://www.w3.org/1999/xlink" viewBox="0 0 115.6 119.6"><defs><linearGradient id="linear-gradient" x1="-23.9" x2="-23.9" y1="74.5" y2="53.3" gradientTransform="rotate(-1 -464.4 -1726)" gradientUnits="userSpaceOnUse"><stop offset="0" stop-color="#dbffff"/><stop offset="1" stop-color="#339ed3"/></linearGradient><linearGradient id="linear-gradient-2" x1="66.4" x2="66.4" y1="59.2" y2="11.2" gradientTransform="rotate(10.7 54.7 104)" gradientUnits="userSpaceOnUse"><stop offset="0" stop-color="#ff523a" stop-opacity="0"/><stop offset=".1" stop-color="#ff513a" stop-opacity="0"/><stop offset=".2" stop-color="#ff5038" stop-opacity=".1"/><stop offset=".4" stop-color="#ff4e37" stop-opacity=".2"/><stop offset=".6" stop-color="#ff4a34" stop-opacity=".4"/><stop offset=".7" stop-color="#ff4631" stop-opacity=".7"/><stop offset=".9" stop-color="#ff402d" stop-opacity=".9"/><stop offset="1" stop-color="#ff3f2c"/></linearGradient><linearGradient xlink:href="#linear-gradient" id="linear-gradient-3" x1=".7" x2=".7" y1="70.8" y2="49.8"/><linearGradient xlink:href="#linear-gradient" id="linear-gradient-4" x1="-13" x2="-13" y1="70.8" y2="49.8"/><linearGradient xlink:href="#linear-gradient" id="linear-gradient-5" x1="-26.3" x2="-26.3" y1="71" y2="49.8"/><linearGradient xlink:href="#linear-gradient" id="linear-gradient-6" x1="-21.5" x2="-21.5" y1="71" y2="49.5"/><linearGradient xlink:href="#linear-gradient" id="linear-gradient-7" x1="67" x2="67" y1="101.6" y2="68" gradientTransform="rotate(10.7 54.7 104)"/><linearGradient xlink:href="#linear-gradient" id="linear-gradient-8" x1="64" x2="64" y1="10" y2="19.5" gradientTransform="rotate(10.7 54.7 104)"/><style>.cls-2{fill:#3c7bd6}.cls-3{fill:#fff}.cls-4{fill:#755b46}.cls-5{fill:#4c1a09}.cls-6{fill:none;stroke-width:.6px;stroke:#4c1a09;stroke-linecap:round;stroke-linejoin:round}.cls-7{fill:#b7eae8}.cls-9{fill:#5b2307}</style></defs><g id="Layer_2" data-name="Layer 2"><g id="Layer_1-2" data-name="Layer 1"><path fill="url(#linear-gradient)" d="M8.8 61.8c-.4 0-.6-.5-1.2-5.4l-.6-4-1-6v-.2l.2-.1a17 17 0 0 1 4.4-1.4c.6 0 .8.2.9.5.2.7-.4 3.2-1 6l-.4 1.6-.3 4c-.3 4.4-.4 4.8-.8 4.9Z"/><path d="M10.6 45c.3 0 .5 0 .5.3.3 1-1 5.8-1.3 7.5s-.5 8.6-1 8.7c-.4 0-1-6.5-1.5-9.2l-1-6a17.2 17.2 0 0 1 4.3-1.3m0-.6A16.7 16.7 0 0 0 6 45.8l-.4.2v.5l1.1 6 .6 4C8 61.6 8.1 62 9 62c.7-.1.8-.6 1-5.2a43.5 43.5 0 0 1 .7-5.6c.7-3 1.2-5.3 1-6.2 0-.2-.3-.7-1.1-.7Z" class="cls-2"/><path d="M10.6 45.6a41 41 0 0 1-1 5.5l-.4 1.5-.4 4.2v1.1l-.2-1.6-.6-4-1-5.5a14.1 14.1 0 0 1 3.6-1.1m0-.6a17.2 17.2 0 0 0-4.3 1.3s.6 3.4 1 6 1.1 9.1 1.6 9.1c.4 0 .5-7 .9-8.7s1.6-6.5 1.4-7.4c-.1-.2-.3-.3-.6-.3Z" class="cls-3"/><path d="M68.3 119a1.2 1.2 0 0 1-1.2-.7c-.8-1.7 1.6-4.9 3.7-7.1l-2 .7a17.3 17.3 0 0 1-4.2 1.4.8.8 0 0 1-.7-.4c-.2-.6.2-1 .8-1.6 3-2.5 10.3-5.6 11-5.9 1-.6 7.8-5 10.3-5a1.3 1.3 0 0 1 1.1.5 1.4 1.4 0 0 1 .2 1.2c-.6 2.7-4.3 13-7.4 13h-.1a1.5 1.5 0 0 1-1.2-.7c-.5-.8-.3-2.2.1-3.3l-.8.8c-4.2 3.9-7.8 7.1-9.6 7.1Z" class="cls-4"/><path d="M86 101c.6 0 1 .3.8 1-.8 3.5-4.5 12.5-6.9 12.5-2.4-.2.4-5.6.4-5.6-1.8 1.3-9.6 9.6-12 9.6a.6.6 0 0 1-.6-.4c-1.1-2.3 5.8-8.8 5.8-8.8l-2 1c-1.7.5-5.9 2.5-6.8 2.5-.4 0-.3-.3.5-1 3-2.6 10.9-5.9 10.9-5.9s7.6-5 10-5m0-1.2c-2.6 0-9 4.2-10.6 5.1-1 .5-8.2 3.5-11.1 6-.6.5-1.4 1.3-1 2.3a1.4 1.4 0 0 0 1.3.8 14.4 14.4 0 0 0 4-1.3c-1.6 2.1-2.8 4.4-2 6a1.8 1.8 0 0 0 1.6 1c1.8 0 4.5-2.2 9.5-6.8a3.2 3.2 0 0 0 .3 1.8 2.1 2.1 0 0 0 1.7 1h.2c3.9 0 7.7-12 8-13.4a2 2 0 0 0-.4-1.7 2 2 0 0 0-1.5-.7Z" class="cls-5"/><path d="M67.8 115.2s3.3-1.2 4.5 1.7m-2.1-5.1s5.4-2.5 6.5 1m-9.5-3.1a2.1 2.1 0 0 1 .9 2.5m10.4-.3s2.4-2.9 5.3-1.3m-11.3-3.1a1.5 1.5 0 0 1 2 .7s4-2 6.3-.5c0 0 3.1-3.2 5.3-1.7" class="cls-6"/><path d="M31.6 97.3a1.7 1.7 0 0 1-1.4-.5 1 1 0 0 1-.2-.8c.2-.9 1.6-1.6 3.1-2.2l-4.1-.3-4.6-.3a2 2 0 0 1-2-1.8 2 2 0 0 1 1.8-2 29 29 0 0 1 4.8-.2c-3-1.7-3.3-2.6-3.1-3.2 0-.3.4-.9 1.7-.9a6 6 0 0 1 1.5.3 79.8 79.8 0 0 1 8 3c.3.2 8 3.6 7.5 5.9-.2 1.2-2.4 1.4-5 1.7l-2 .3-1.8.3a24.5 24.5 0 0 1-4.3.7Z" class="cls-4"/><path d="M27.6 85.8a5.8 5.8 0 0 1 1.4.2 81 81 0 0 1 7.9 3c3.8 1.6 7.4 4 7.2 5s-4.2 1.3-6.5 1.6a51.7 51.7 0 0 1-6 1c-.7 0-1-.1-1-.5.4-1.4 5.5-2.7 5.5-2.7-2.7-.4-9.7-.7-11.5-1s-2-2-.2-2.5a31.7 31.7 0 0 1 4.6 0h5.1l-4-.8c-4.5-2.4-4-3.4-2.5-3.4m0-1.2c-1.7 0-2.1 1-2.3 1.4-.2.9.3 1.7 1.7 2.7a15.8 15.8 0 0 0-3 .2 2.5 2.5 0 0 0 .4 5l4.6.3 1.9.1a3 3 0 0 0-1.5 1.6 1.6 1.6 0 0 0 .3 1.4 2.3 2.3 0 0 0 1.9.7 24.6 24.6 0 0 0 4.3-.7l1.9-.3 2-.3c2.9-.3 5.1-.5 5.5-2.2.5-2.6-5.4-5.4-8-6.5a78.6 78.6 0 0 0-8-3.1 6.8 6.8 0 0 0-1.6-.3Z" class="cls-5"/><path d="M26.9 89.3A3 3 0 0 1 27 93m4-3.5s3 1.2 1.3 4M30.4 86s1 1.5-1 3.2m4.3 4.5a2.5 2.5 0 0 1 1.8 3m-1.3-9.4c0 .2 1.4 1 .7 2.6 0 0 2.7.8 2 3.2 0 0 2.9.7 2.3 2.9" class="cls-6"/><path d="M48.4 96c-2.8 0-7.9-.6-11.1-4.5A10.6 10.6 0 0 1 36 80a.6.6 0 0 1 .5-.3h.2c8.5 3 13.4 14.9 13.6 15.4a.6.6 0 0 1 0 .5.6.6 0 0 1-.4.3 14.3 14.3 0 0 1-1.5.1Z" class="cls-7"/><path d="M36.5 80.2c8.3 3 13.2 15.1 13.2 15.1h-1.4c-2.4 0-7.4-.4-10.6-4.2-4.2-5-1.2-10.9-1.2-10.9m0-1.2a1.2 1.2 0 0 0-1 .7c-.2.2-3.4 6.6 1.3 12.2 3.4 4 8.7 4.7 11.6 4.7h1.5a1.2 1.2 0 0 0 .9-.7 1.2 1.2 0 0 0 0-1c-.2-.5-5.2-12.7-14-15.8a1.4 1.4 0 0 0-.3 0Z" class="cls-2"/><path fill="#a36731" d="M74.6 100.8a39 39 0 0 1-10.8-1.5c-23-6.7-30.5-21.2-30-29.4a27.3 27.3 0 0 1 2.6-9.5 3.6 3.6 0 0 1-1.5.5 1.2 1.2 0 0 1-1-.5 2.5 2.5 0 0 1-.1-2.2 13 13 0 0 1 3.8-5.5 6.8 6.8 0 0 1-1.9.5 1 1 0 0 1-.9-.4 1.6 1.6 0 0 1-.2-1.4c.5-2.1 3.6-3.6 4.8-4.1a40.7 40.7 0 0 1 2.4-17.1 28.4 28.4 0 0 1 13.6-14.8c-1.2-.5-2.1-1.2-2.1-2 0-.6.4-1.3 2-1.7a10.4 10.4 0 0 1 2.1-.2l1.6.1c-.9-.5-1.5-1.1-1.5-1.7 0-.4.2-.9 1.1-1.2a3.6 3.6 0 0 1 1.3-.2 11.3 11.3 0 0 1 5.4 2 2 2 0 0 1 0-1.5 1 1 0 0 1 .9-.5c1.4 0 3.1 2.3 3.8 3.3a30.7 30.7 0 0 1 27.2 27.4c1 6.6 5.3 10.4 10 14.8a29 29 0 0 1 7.8 12 .8.8 0 0 1-.2.8.8.8 0 0 1-.6.3 1.1 1.1 0 0 1-.3-.1 19.4 19.4 0 0 1 .3 7.3.8.8 0 0 1-.8.7 1.2 1.2 0 0 1-.5-.2c.4 3.3-.7 7.2-1.7 7.9a44.7 44.7 0 0 0-4.8 5.5c-.3.7-14.1 12.6-31.8 12.6Z"/><path d="M59.9 9c3 0 7 3.3 7 3.3s-2-3.2-.7-3.2 3.3 3.3 3.3 3.3c22 3.5 26 20.1 27.1 26.9s5.3 10.6 10.2 15.1a28.6 28.6 0 0 1 7.5 11.8c0 .2 0 .3-.2.3a4.9 4.9 0 0 1-1.5-.9c1.6 2.8 1 8 1 8.6a.2.2 0 0 1-.3.2c-.4 0-1.5-1.1-1.5-1.1 1.2 3.3-.2 8.3-1 8.9a43 43 0 0 0-5 5.8c-.2.5-13.7 12.2-31.2 12.2A38.2 38.2 0 0 1 64 98.7C41.5 92.2 33.9 78 34.5 70a26.3 26.3 0 0 1 4.9-13.4 10.2 10.2 0 0 0-2.7 3 4.3 4.3 0 0 1-1.9.8c-.5 0-.9-.5-.5-2 1-3.5 5.7-6.8 5.7-6.8-1.6.1-3.4 1-4.3 1-.5 0-.7-.2-.5-1 .5-2.2 4.8-3.9 4.8-3.9s-1.1-7.1 2.3-17.2S57 15.2 57 15.2c-3-.6-4.4-2.3-1.5-2.9a9.9 9.9 0 0 1 2-.2 30.5 30.5 0 0 1 5.8.8S56 10.3 59 9.3a3 3 0 0 1 1-.2m0-1.2a4.2 4.2 0 0 0-1.4.2A1.9 1.9 0 0 0 57 10a1.6 1.6 0 0 0 .4 1 11.2 11.2 0 0 0-2 .2c-2.3.4-2.6 1.6-2.6 2.2a2.5 2.5 0 0 0 1.4 2 30 30 0 0 0-13 14.7A41.9 41.9 0 0 0 38.8 47c-1.5.7-4.2 2.2-4.7 4.4a2.2 2.2 0 0 0 .3 1.9 1.7 1.7 0 0 0 1.4.6 11.1 11.1 0 0 0-2.6 4.2 3.1 3.1 0 0 0 .2 2.8 1.8 1.8 0 0 0 1.5.7 3.4 3.4 0 0 0 .4 0 28 28 0 0 0-2 8.4c-.6 8.3 7 23.2 30.3 30a39.4 39.4 0 0 0 11 1.5 49.1 49.1 0 0 0 32.4-13 .6.6 0 0 1 0 .1 46.5 46.5 0 0 1 4.5-5.3c1.2-.8 2.2-4.3 2-7.6a1.4 1.4 0 0 0 1.3-1.2 21.6 21.6 0 0 0-.1-6.8 1.3 1.3 0 0 0 .6-.4 1.4 1.4 0 0 0 .3-1.2 29.7 29.7 0 0 0-7.9-12.5c-4.7-4.3-8.8-8-9.8-14.4a31.6 31.6 0 0 0-27.6-27.8c-.9-1.3-2.5-3.3-4-3.4a1.6 1.6 0 0 0-1.7 1.4 10.3 10.3 0 0 0-4.7-1.5Z" class="cls-9"/><path fill="#8e5424" d="M105.8 88a43 43 0 0 1 5-5.8c.8-.6 2.2-5.6 1-9 0 0 1.6 1.7 1.7 1s.7-5.8-.9-8.6c0 0 2 1.4 1.8.6a28.6 28.6 0 0 0-7.5-11.8 49.5 49.5 0 0 1-6.7-6.9s6.2 9.8 4.3 17.6-4.9 4-4.9 4l-5.8-4.7s1 6.3-2.8 7.7-4.4-.9-4.4-.9.4 4-4.2 4.2-16.3-2.1-21.2-4-11.4-5.5-11.3-9.4-.6-4.6-.6-4.6-6.3 5.8-6.2 2.4a12 12 0 0 1 1.4-5.7s-4.7 1.9-4 .2a21.8 21.8 0 0 1 2.2-3.5 13 13 0 0 1-2.9-3c-.9.3-4.1 1.8-4.6 3.7-.5 2.3 2.3.2 4.8 0 0 0-4.7 3.3-5.7 6.8s2.4 1.2 2.4 1.2a10.2 10.2 0 0 1 2.7-3 26.3 26.3 0 0 0-5 13.5C34 78 41.6 92.2 64 98.7s41.6-10.1 41.8-10.7Z"/><path fill="#b08136" d="M95.6 82.6c-10.3-3.4-29-15-24.5-24.6s11.7-5.2 17-17.1S81.9 19 71.6 18.5s-17 8.2-17.5 8.8-5.4-.3-7.2-1-.6-2.7-.5-2.8a21.8 21.8 0 0 0-4 7c-3.5 10-2.3 17.3-2.3 17.3s-4.3 1.6-4.8 3.9 2.3 0 4.8 0c0 0-4.8 3.3-5.7 6.8s2.3 1.1 2.3 1.1a10.2 10.2 0 0 1 2.7-3 26.3 26.3 0 0 0-5 13.4C34 78 41.6 92.2 64 98.7c18.8 5.5 35.3-5.3 40.3-9.3a14.5 14.5 0 0 0-8.7-6.8Z"/><path fill="#8f662b" d="m66.5 99.3 1.3.3.7.1 1.3.2h.7l1.2.2h6.8l1.2-.2h.6l1.2-.2.5-.1 1.5-.3h.2l1.6-.4h.4l1.2-.4.5-.2 1-.3.6-.2 1-.4.5-.1 1.2-.5h.2l1.4-.7h.2l1-.6.5-.2.8-.4.5-.2.7-.4.4-.3.8-.4.3-.2 1-.6.3-.2.7-.4.4-.2.5-.4.4-.2.4-.3.4-.3.3-.2.4-.3 1-.8a14.3 14.3 0 0 0-8.6-6.8 59 59 0 0 1-14.2-7.2 82.3 82.3 0 0 1-20.3-4c-4.9-2-11.3-5.5-11.2-9.3s-.6-4.6-.6-4.6-6.3 5.8-6.2 2.4a12 12 0 0 1 1.4-5.7s-4.7 1.8-4 .2a21.8 21.8 0 0 1 2.2-3.5 13 13 0 0 1-2.9-3.1h-.2l-.3.1-.2.1H39l-.3.1-.1.1-.3.1-.1.1-.3.2h-.1l-.3.3h-.1l-.8.6-.4.3v.1l-.3.3-.3.3v.2a2.1 2.1 0 0 0-.2.2v.1a2 2 0 0 0-.2.4c-.5 2.3 2.3.2 4.8 0 0 0-4.7 3.3-5.7 6.8s2.4 1.2 2.4 1.2a10.2 10.2 0 0 1 2.7-3 26.3 26.3 0 0 0-5 13.5C34 78 41.6 92.2 64 98.7l2 .5Z"/><path fill="url(#linear-gradient-2)" d="M69.6 12.8s-2-3.3-3.4-3.3.6 3.2.6 3.2-5.1-4.2-8-3 4.5 3.6 4.5 3.6-5-1.2-7.8-.6-1.5 2.3 1.5 3c0 0-11.2 5-14.7 15s-2.2 17.4-2.2 17.4-4.3 1.6-4.8 3.9 2.3 0 4.8 0c0 0-4.8 3.3-5.7 6.8s2.3 1.1 2.3 1.1a10.2 10.2 0 0 1 2.7-3 26.2 26.2 0 0 0-4.9 13.4C34 78.4 41.5 92.5 64 99s41.6-10 41.8-10.6a42.5 42.5 0 0 1 5-5.8c.8-.6 2.2-5.6 1-9 0 0 1.6 1.7 1.7 1s.7-5.8-.9-8.6c0 0 2 1.4 1.8.6a28.6 28.6 0 0 0-7.5-11.8c-5-4.5-9.2-8.4-10.3-15.1s-5.1-23.5-27-26.9Z"/><path fill="#d2001e" d="M2.3 43a.6.6 0 0 1-.6-.3.6.6 0 0 1 .2-.8c.2-.1 16.1-11.4 35.4-11.4h1.2c6.7 1.9 18 5.4 18.5 7a.8.8 0 0 1-.1.7c-.5.7-3.3 1-20 1.7-13.7.7-30.7 1.6-34.5 3a.5.5 0 0 1-.1.1Z"/><path d="M37.3 31h1s19.1 5.5 18.1 6.8-47.4 2-54.1 4.6c0 0 15.7-11.3 35-11.3m0-1.2c-19.4 0-35 11-35.7 11.5a1.2 1.2 0 0 0-.4 1.6 1.2 1.2 0 0 0 1 .6 1.3 1.3 0 0 0 .5 0c3.7-1.5 21.4-2.3 34.3-3 18.3-.9 19.7-1.1 20.4-2a1.4 1.4 0 0 0 .2-1.3c-.2-.6-.7-2.1-19-7.4a1 1 0 0 0-.3 0Z" class="cls-9"/><path fill="#a18f70" d="M1.6 43.2a.6.6 0 0 1-.6-.5.6.6 0 0 1 .4-.7 146 146 0 0 1 40.4-5.4 142.5 142.5 0 0 1 15.3.8.6.6 0 0 1 .5.3.6.6 0 0 1 0 .6c-1 1.5-6.9 3.6-8 4a.8.8 0 0 1-.2 0h-.1c-2.7-.6-7.2-.9-13.4-.9-14.7 0-34 1.7-34.3 1.7Z"/><path d="M41.8 37.2A142.4 142.4 0 0 1 57 38c-1 1.3-7.7 3.8-7.7 3.8a72.5 72.5 0 0 0-13.5-1c-14.9 0-34.3 1.8-34.3 1.8a143 143 0 0 1 40.1-5.4m0-1.2a145 145 0 0 0-40.5 5.4 1.2 1.2 0 0 0-.8 1.4 1.2 1.2 0 0 0 1.2 1h.1c.2 0 19.6-1.7 34.2-1.7A70 70 0 0 1 49 43h.3a1.5 1.5 0 0 0 .4 0c2.3-1 7.3-2.9 8.3-4.4a1.2 1.2 0 0 0-.8-2 142 142 0 0 0-15.5-.7Z" class="cls-9"/><path fill="url(#linear-gradient-3)" d="M32.3 61.9a.4.4 0 0 1-.3-.1c-.5-.5-.6-2.6-.5-6.7v-1.7a4.1 4.1 0 0 0-.4-1 3 3 0 0 1-.4-1.6c.1-.5 0-6.2-.1-9.9v-.2h.2a7.8 7.8 0 0 1 2.1-.3 23.3 23.3 0 0 1 2.6.2h.3v.3l-.8 7.4a6.7 6.7 0 0 1-.8 2.4 3 3 0 0 0-.4 1.4c0 .1-.2 9.6-1.4 9.8Z"/><path d="M32.9 40.7a21 21 0 0 1 2.5.2s-.6 5.3-.8 7.4-1.2 2.6-1.1 3.8-.5 9.4-1.2 9.5c-.8 0-.4-7.5-.5-8.2s-1-1.7-.8-2.5-.1-10-.1-10a7.7 7.7 0 0 1 2-.2m0-.6a8 8 0 0 0-2.2.2l-.5.2v.4c.2 3.5.3 9.3.2 9.9a3 3 0 0 0 .4 1.8 3.6 3.6 0 0 1 .3.8v1.7c0 4.8.1 6.3.6 6.8a.7.7 0 0 0 .5.3h.1c.6-.1 1-.5 1.4-4.9.2-2.2.4-4.5.3-5.2a3 3 0 0 1 .4-1.3 6.9 6.9 0 0 0 .8-2.5l.8-7.4v-.6h-.5A20.9 20.9 0 0 0 33 40Z" class="cls-2"/><path fill="url(#linear-gradient-4)" d="M18.7 61.8c-.7 0-1-1-1.1-4-.1-2.3-.5-4.6-.6-5.2-.5-.4-.7-1.6-.8-3.6-.1-1.7-1-7.3-1-7.4v-.2l.3-.1a48.7 48.7 0 0 1 6.7-.9c.8 0 1.3.1 1.5.4a.5.5 0 0 1 0 .5 58 58 0 0 0-.5 6.2c-.3 6-.4 6-.8 6s-.6-.7-.8-3V50l-1-4a36.9 36.9 0 0 0-.1 4 19.5 19.5 0 0 1-.7 4.3c0 .3 0 1.4-.2 2.6-.2 4.3-.3 4.8-.8 4.9Z"/><path d="M22.2 40.7c.8 0 1.4.1 1.3.5-.5 1.2-.7 12-1.1 12-.4 0-.5-2.4-.6-3.3l-1.3-5.8s-.5 4.7-.4 5.9a18.5 18.5 0 0 1-.6 4.3c-.2.8-.3 7.1-.7 7.2-.5 0-.8-1-1-3.6l-.5-5.4c-.5-.3-.7-1.8-.8-3.5s-1-7.4-1-7.4a48.5 48.5 0 0 1 6.7-.9m0-.6a46.9 46.9 0 0 0-6.8 1h-.6l.1.6s.9 5.7 1 7.3c.1 2 .3 3.3.9 3.8 0 .7.4 2.9.5 5.1.1 2.7.4 4.2 1.4 4.2h.2c.6-.1.8-.7 1-5.2l.2-2.5a19 19 0 0 0 .6-4.4 18.1 18.1 0 0 1 0-2l.5 2v.6c.2 2.1.4 3.2 1.2 3.2s.8-.1 1.1-6.2a59.4 59.4 0 0 1 .5-6.2.8.8 0 0 0-.1-.8c-.3-.3-.8-.5-1.7-.5Z" class="cls-2"/><path fill="url(#linear-gradient-5)" d="M6.4 58.3c-.5 0-.6-.4-1.3-5.4l-.5-4-1.1-6v-.2l.2-.1c.1 0 3.1-1.4 4.5-1.4.6 0 .8.3.8.5.2.7-.3 3.2-1 6l-.4 1.6-.3 4c-.3 4.5-.4 4.9-.8 5Z"/><path d="M8.1 41.5c.3 0 .5.1.6.3.2 1-1 5.8-1.4 7.5s-.5 8.6-.9 8.7c-.5 0-1-6.5-1.5-9.1l-1.1-6A17.2 17.2 0 0 1 8 41.5m0-.6a16.5 16.5 0 0 0-4.5 1.4l-.5.2.1.5 1 6c.3 1 .5 2.5.7 4 .6 5.1.8 5.6 1.5 5.6h.1c.7-.1.8-.6 1-5.2.1-1.6.2-3.3.4-4l.3-1.5c.7-3 1.2-5.4 1-6.3 0-.2-.3-.7-1.1-.7Z" class="cls-2"/><path d="m32.9 41.3 1.9.1a325 325 0 0 0-.8 6.8 5.9 5.9 0 0 1-.7 2.2 3.7 3.7 0 0 0-.4 1.8c0 1-.2 4.3-.5 6.6v-5.5a4.3 4.3 0 0 0-.4-1.2 2.5 2.5 0 0 1-.3-1.1l-.2-9.6a8.4 8.4 0 0 1 1.4 0m0-.7a7.7 7.7 0 0 0-2 .2s.3 9.2.2 10 .6 1.8.7 2.5-.2 8.2.5 8.2c.8 0 1.2-8.2 1.2-9.4s1-1.9 1.1-3.9.9-7.4.9-7.4a21 21 0 0 0-2.6-.2Zm-10.7.6h.6c-.2 1-.3 3-.5 6.2v1.3L21 44l-.6-2.5a16.5 16.5 0 0 1 1.7-.1m-2 .1-.3 2.6c0 .2-.5 4.8-.4 6a18 18 0 0 1-.5 4 23.6 23.6 0 0 0-.2 2.8l-.2 2.4v-1.4a54.6 54.6 0 0 0-.6-5.5l-.1-.3-.3-.1c-.2-.2-.4-.7-.5-3 0-1.4-.7-5.4-.9-6.9a64 64 0 0 1 4-.6m2-.7a48.5 48.5 0 0 0-6.7.8s.9 5.7 1 7.4.3 3.3.8 3.5c0 0 .5 2.6.6 5.4s.4 3.6.8 3.6c.5 0 .6-6.3.9-7.2a18.5 18.5 0 0 0 .6-4.3c-.1-1.1.3-5.9.3-5.9l1.3 5.9c.1.9.2 3.2.6 3.2.4 0 .6-10.7 1-12 .2-.3-.3-.4-1.2-.4Zm-14 1.3a42.2 42.2 0 0 1-1 5.5l-.4 1.6a40.5 40.5 0 0 0-.3 4.1l-.1 1.2-.2-1.7a75.3 75.3 0 0 0-1.6-9.5 14.1 14.1 0 0 1 3.6-1.2m0-.6A17.2 17.2 0 0 0 3.8 43s.5 3.4 1 6 1.2 9 1.6 9c.4 0 .5-7 .9-8.7s1.6-6.5 1.4-7.5c0-.2-.3-.3-.6-.3Z" class="cls-3"/><path fill="url(#linear-gradient-6)" d="M11.3 58.2c-.5 0-.6-.5-1.2-5.4A76.8 76.8 0 0 0 8 41.7v-.3h.3a24.6 24.6 0 0 1 3.7-.5c1.2 0 1.8.2 1.9.7.2.8-.4 3.2-1 6l-.4 1.6-.3 4c-.3 4.5-.4 4.9-.8 5Z"/><path d="M12 41.2c.8 0 1.5.1 1.6.5.2 1-1 5.8-1.4 7.5s-.4 8.6-.9 8.7c-.4 0-1-6.5-1.5-9.1l-1.5-7.2a25.6 25.6 0 0 1 3.7-.4m0-.6a26.6 26.6 0 0 0-3.8.4l-.6.1.1.6L9.2 49l.6 4c.6 5.1.8 5.6 1.5 5.6h.1c.7-.1.8-.6 1-5.2a47.6 47.6 0 0 1 .7-5.6c.7-3 1.2-5.4 1-6.2s-1.3-.9-2.2-.9Z" class="cls-2"/><path d="M12 41.8a3.2 3.2 0 0 1 1 .2 37.2 37.2 0 0 1-1 5.5l-.4 1.6a41.1 41.1 0 0 0-.3 4.1l-.1 1.2-.2-1.6-.6-4-1.3-6.6a21.7 21.7 0 0 1 2.9-.4m0-.6a25.6 25.6 0 0 0-3.7.4s1 4.5 1.5 7.2 1 9 1.5 9 .6-7 1-8.6 1.5-6.5 1.3-7.5c-.1-.3-.8-.5-1.6-.5Zm20.8 4.3c0 .7-.3 1.3-.8 1.3s-.7-.5-.8-1.3.4-1.3.8-1.3.8.6.8 1.3Zm-14.5 1.1c0 1-.3 2-.8 2s-.8-.9-.9-2 .4-1.8.8-1.8.9.8 1 1.8Z" class="cls-3"/><path fill="#ceb891" d="M58.2 37.4a.6.6 0 0 1-.2 0c-19.5-6-40.4-6.8-51.2-6.8H1.2a.6.6 0 0 1-.6-.4.6.6 0 0 1 .4-.7 85.6 85.6 0 0 1 24-3 140.8 140.8 0 0 1 27.5 2.7.6.6 0 0 1 .4.4c1.3 4 5.5 6.7 5.6 6.7a.6.6 0 0 1 .2.8.6.6 0 0 1-.5.3Z"/><path d="M25.1 27a139.5 139.5 0 0 1 27.3 2.8c1.4 4.2 5.8 7 5.8 7-19.9-6-41.5-6.8-51.4-6.8l-5.6.1a85.9 85.9 0 0 1 24-3m0-1.2a86.6 86.6 0 0 0-24.3 3 1.2 1.2 0 0 0 .3 2.4s2.1-.1 5.6-.1c10.7 0 31.6.8 51 6.8a1 1 0 0 0 .4 0 1.2 1.2 0 0 0 .6-2.2s-4-2.7-5.3-6.4a1.2 1.2 0 0 0-.8-.8A142.1 142.1 0 0 0 25 25.8Z" class="cls-9"/><path d="M52.4 29.8s-28.6-6.4-51.2.3l2.2-.1c13.3-3.5 44.2-.2 46 .4s6.7 5.8 6.7 5.8h.2c.6.3 1.2.4 1.9.6 0 0-4.5-2.8-5.8-7Z" class="cls-3"/><path d="M78.8 105.6c-5.4 0-7-2-7.5-3-2.2-.3-14-2.2-23.7-8.6-8.7-5.8-10.3-8.6-11.3-10.3a5.9 5.9 0 0 0-.5-.9 5.7 5.7 0 0 1-1.1-3.3 3.1 3.1 0 0 0-.1-.6h-.1c-2-2.8-2.7-5.3-2.2-7.6l.3-2c.5-3 1.1-6.6 3.5-6.6a2.9 2.9 0 0 1 1.3.4.6.6 0 0 1 .3.7c-.2.7-.4 2.9.5 4 1.5 1.5 5.4 5 7.4 5.2h.6c1.3 0 1.3-.4 1.5-1.1.2-1 1-3.5 3.1-3.6h.2a2.2 2.2 0 0 1 2.2 2v.2l.4.3a8.5 8.5 0 0 1 2.5 2.6 22.5 22.5 0 0 0 5.1 5.3 3.5 3.5 0 0 0 1.7.9h.1a10.8 10.8 0 0 0 .4-1.2c.6-2.1.8-2.7 1.3-2.9l.5-.2a3 3 0 0 1 1.2-.5.9.9 0 0 1 .4.1c.2.1.4.3.9 2.5a3.4 3.4 0 0 1 1.1-.2 3.3 3.3 0 0 1 1.8.5 26.4 26.4 0 0 0 5.1 2.7c.6 0 6.5 1.4 7.2 2a15.8 15.8 0 0 0 2.2 1.4c1.3-1.4 2.8-2.7 4-2.7l1.7-.1a11 11 0 0 0 1.2-4c-.2-1.6-.5-3.6 1.2-4.6a2 2 0 0 1 1-.3c1.4 0 2.7 1.7 3.4 3.2.7 1.7 1.2 2.7.7 3.6a18 18 0 0 0-.8 2.7 15.2 15.2 0 0 0 5.3 1c.2-.9.5-2.4 1.8-2.6a5.7 5.7 0 0 1 1 0 3.8 3.8 0 0 1 2.2.4l.2.3c.4-4 1-4.1 1.3-4.2a1.2 1.2 0 0 1 .4 0c.7 0 1.5.5 2.2 1.5.6.9 1.3 2.7.9 3.6a14.5 14.5 0 0 1-3 3.6 7.3 7.3 0 0 0-2 3.8c-.2 1.1-1.7 2-3 2.6a6.9 6.9 0 0 0-1 .6c0 .1-12 11.9-21 13.2a28.4 28.4 0 0 1-4 .4ZM51.4 73.3a1 1 0 0 0-.9 1c-.2 1.3-.3 3.7.5 4.8a1 1 0 0 0 .8.4h.2a1.9 1.9 0 0 0 1.6-1.2c.5-1.1.3-2.9-1.4-4.6a1 1 0 0 0-.8-.4Z" class="cls-7"/><path d="M36 63.3a2.2 2.2 0 0 1 1 .3s-.6 3 .8 4.5 5.4 5.2 7.8 5.4h.6c1.7 0 1.9-.8 2-1.6s1-3 2.6-3h.2c1.5 0 1.5 1.4 1.7 1.8s2 1.2 3 3a23 23 0 0 0 5.2 5.5 4.2 4.2 0 0 0 2.1 1 .7.7 0 0 0 .7-.4c.3-.7.9-3.5 1.3-3.7a9.2 9.2 0 0 1 1.5-.6 16.9 16.9 0 0 1 .8 2.8 2.9 2.9 0 0 1 1.6-.5 2.7 2.7 0 0 1 1.4.5c1.6 1 4.6 2.7 5.4 2.8a43 43 0 0 1 7 1.7 11.2 11.2 0 0 0 2.6 1.7c.3-.2 2.5-2.7 3.9-2.8h2s1.6-3.4 1.4-4.8-.4-3.2 1-4a1.3 1.3 0 0 1 .6-.2c1.1 0 2.2 1.4 2.8 2.8.8 1.7 1.1 2.4.8 3a23.3 23.3 0 0 0-1 3.4 14.8 14.8 0 0 0 6.2 1.2h.4s0-2.3 1.3-2.6a6 6 0 0 1 1 0 3.5 3.5 0 0 1 1.7.3l1.1 1.3s.3-5 1-5.1a1 1 0 0 1 .2 0c.6 0 1.3.6 1.8 1.3a4.2 4.2 0 0 1 .8 3 13.8 13.8 0 0 1-2.8 3.4 7.8 7.8 0 0 0-2.2 4.1c-.3 1.2-3.3 2.3-3.9 2.9s-12 11.7-20.6 13a27 27 0 0 1-4 .3c-5.3 0-6.8-2.1-7-3 0 0-13.2-1.6-23.8-8.6s-10.6-9.5-11.8-11-.8-3.4-1.1-3.8-3-3.7-2.2-7.2c.6-3 1-8 3.2-8M52 80c2.3 0 3.9-3.6.6-6.9a1.6 1.6 0 0 0-1.1-.5A1.6 1.6 0 0 0 50 74c-.3 1.5-.5 5.8 1.8 6h.2M36.1 62c-2.8 0-3.5 3.8-4 7.2l-.3 1.9c-.6 2.4.2 5.1 2.3 8v.4a6.2 6.2 0 0 0 1.2 3.6 6.5 6.5 0 0 1 .5.8c1 1.7 2.7 4.6 11.5 10.5a63.1 63.1 0 0 0 23.7 8.7c.7 1.2 2.6 3 7.8 3a28 28 0 0 0 4.2-.4c9.2-1.3 21.2-13.2 21.3-13.4s.6-.3 1-.5c1.2-.7 3-1.6 3.1-3a6.7 6.7 0 0 1 1.9-3.4 14.2 14.2 0 0 0 3-3.8c.6-1.2-.2-3.3-.9-4.2a3.7 3.7 0 0 0-2.7-1.8 2 2 0 0 0-.5 0c-.6.2-1.2.4-1.7 3.8a6 6 0 0 0-1.8-.3 7 7 0 0 0-1.2 0 3 3 0 0 0-2.2 2.7 14.9 14.9 0 0 1-4-.8 14.4 14.4 0 0 1 .5-2c.7-1.2.1-2.4-.7-4.1s-2.2-3.5-4-3.5a2.5 2.5 0 0 0-1.2.3c-2 1.2-1.7 3.7-1.5 5.2a9.6 9.6 0 0 1-1 3.4H89c-1.3 0-2.8 1.2-4.1 2.6l-1.7-1.2c-1-.7-6.9-2-7.5-2a30 30 0 0 1-4.9-2.6 3.8 3.8 0 0 0-2-.7 3.7 3.7 0 0 0-.7.1c-.5-2-.7-2-1.1-2.3a1.4 1.4 0 0 0-.7-.1 3.5 3.5 0 0 0-1.5.5l-.4.2c-.8.3-1 1.2-1.7 3.3l-.2.6a6.7 6.7 0 0 1-1-.6 21.7 21.7 0 0 1-5-5.2 9 9 0 0 0-2.6-2.7l-.3-.2a2.7 2.7 0 0 0-2.7-2.4h-.2c-2.3.1-3.4 2.7-3.7 4 0 .6-.1.6-.9.6h-.5c-1.6-.1-5.2-3-7-5-.7-.8-.5-2.8-.3-3.4a1.2 1.2 0 0 0-.7-1.3A3.4 3.4 0 0 0 36 62ZM52 79a.5.5 0 0 1-.4-.2c-.7-.8-.7-3.1-.4-4.3 0-.2 0-.5.3-.5a.4.4 0 0 1 .3.2c1.5 1.5 1.7 3 1.3 4a1.3 1.3 0 0 1-1.1.8Z" class="cls-2"/><path fill="url(#linear-gradient-7)" d="M109.4 77c-.6.2-1 5.1-1 5.1l-1-1.3a4.3 4.3 0 0 0-2.7-.2c-1.3.2-1.4 2.5-1.4 2.5a15.8 15.8 0 0 1-5.8-.9s-.2 4-2.3 6-13.8 1.6-18.8 3.3-16.8-2.2-24.7-7-11.4-7.8-11.1-13.8a31.3 31.3 0 0 1-2.8-2.6c-1.4-1.5-.7-4.5-.7-4.5-3.2-1.7-3.5 4.3-4.2 7.8s1.9 6.8 2.2 7.2-.1 2.4 1.1 3.8 1.1 4 11.7 11 23.8 8.7 23.8 8.7c.4 1 2.4 3.9 11 2.6s20.1-12.5 20.7-13 3.6-1.7 3.8-3a7.8 7.8 0 0 1 2.2-4 13.8 13.8 0 0 0 2.8-3.4 4.2 4.2 0 0 0-.8-3c-.6-.8-1.3-1.5-2-1.3Z"/><path d="M36 64a1.1 1.1 0 0 1 .4 0c-.1 1-.3 3.2 1 4.5s5.5 5.4 8.1 5.6h.7c2.3 0 2.5-1.3 2.7-2s.8-2.5 2-2.6h.1c.7 0 .9.3 1 1a2.6 2.6 0 0 0 0 .4c.2.3.5.5 1 .8a7.1 7.1 0 0 1 2 2.3 24 24 0 0 0 5.4 5.7 4.7 4.7 0 0 0 2.5 1 1.3 1.3 0 0 0 1.2-.8 13 13 0 0 0 .4-1.2 14.4 14.4 0 0 1 .7-2.1l.5-.3.4-.2.5 2.3a.6.6 0 0 0 .4.4.6.6 0 0 0 .2 0 .6.6 0 0 0 .4 0 2.4 2.4 0 0 1 1.2-.5 2 2 0 0 1 1.1.4c.2.1 4.4 2.7 5.7 2.9a48.5 48.5 0 0 1 6.5 1.6c2.3 1.8 2.8 1.8 3 1.8a.7.7 0 0 0 .5-.1l.3-.4c1.5-1.5 2.5-2.3 3.1-2.3h2a.6.6 0 0 0 .5-.4c.2-.4 1.7-3.5 1.5-5.1s-.3-2.8.6-3.3a.7.7 0 0 1 .4-.2c.7 0 1.7 1 2.3 2.5s1 2.1.7 2.5a21.7 21.7 0 0 0-1 3.5.6.6 0 0 0 .4.7 15.4 15.4 0 0 0 6.5 1.3h.4a.6.6 0 0 0 .6-.6c0-.6.3-1.9.9-2a4.5 4.5 0 0 1 .8 0 3.5 3.5 0 0 1 1.3.2l1 1.2a.6.6 0 0 0 .5.2.6.6 0 0 0 .2 0 .6.6 0 0 0 .4-.5 22.1 22.1 0 0 1 .7-4.6c.2 0 .7.3 1.2 1a3.9 3.9 0 0 1 .7 2.5 13.4 13.4 0 0 1-2.7 3 8.6 8.6 0 0 0-2.4 4.6c0 .5-1.5 1.3-2.3 1.7a6 6 0 0 0-1.3.8c-.1.1-11.7 11.6-20.3 12.9a27.1 27.1 0 0 1-4 .3c-5.4 0-6.3-2.3-6.4-2.5a.6.6 0 0 0-.5-.4c-.1 0-13.1-1.7-23.5-8.5-8.5-5.6-10-8.3-11-9.9a6.9 6.9 0 0 0-.6-1.1 4.7 4.7 0 0 1-.8-2.6 2.4 2.4 0 0 0-.3-1.2l-.1-.2c-1.8-2.4-2.5-4.6-2-6.5l.3-2c.4-2.4 1-5.6 2.3-5.6m16 16.8a3 3 0 0 0 2.8-2c.6-1.4.4-3.7-1.7-5.9a2.3 2.3 0 0 0-1.6-.7 2.2 2.2 0 0 0-2.2 1.9c-.2 1-.4 4.2.8 5.8a2.3 2.3 0 0 0 1.6 1h.3M36.1 63.2c-2.3 0-2.6 5-3.2 8.1-.8 3.5 1.9 6.8 2.2 7.2s-.1 2.4 1.1 3.8 1.1 4 11.7 11 23.8 8.7 23.8 8.7c.3.8 1.8 3 7 3a27 27 0 0 0 4-.3c8.7-1.3 20.1-12.5 20.7-13s3.6-1.8 3.8-3a7.8 7.8 0 0 1 2.2-4.2 13.8 13.8 0 0 0 2.8-3.3 4.2 4.2 0 0 0-.8-3c-.5-.7-1.1-1.4-1.7-1.4a1 1 0 0 0-.3 0c-.6.2-1 5.2-1 5.2l-1-1.3a3.5 3.5 0 0 0-1.8-.4 6 6 0 0 0-1 0c-1.2.3-1.3 2.7-1.3 2.7h-.3a14.8 14.8 0 0 1-6.2-1.3 23.3 23.3 0 0 1 1-3.3c.3-.7 0-1.4-.8-3.1-.6-1.4-1.7-2.8-2.8-2.8a1.3 1.3 0 0 0-.7.2c-1.3.8-1 2.6-.9 4s-1.4 4.7-1.4 4.7l-2 .1c-1.4.1-3.6 2.6-3.8 2.8a.1.1 0 0 1-.1 0 11.2 11.2 0 0 1-2.7-1.7 43 43 0 0 0-7-1.7 23 23 0 0 1-5.3-2.8 2.7 2.7 0 0 0-1.5-.4 2.9 2.9 0 0 0-1.5.5 16.9 16.9 0 0 0-.8-2.9 9.2 9.2 0 0 0-1.6.7c-.4.1-1 3-1.3 3.6a.7.7 0 0 1-.7.4 4.2 4.2 0 0 1-2-1 23 23 0 0 1-5.3-5.5c-1-1.8-2.8-2.5-3-3S52.4 69 51 69c-1.7 0-2.5 2.2-2.7 3s-.3 1.6-2 1.6h-.6c-2.4-.2-6.4-4-7.8-5.4s-.7-4.5-.7-4.5a2.2 2.2 0 0 0-1-.3ZM52 80.1h-.2c-2.3-.1-2.2-4.5-1.9-6a1.6 1.6 0 0 1 1.5-1.3 1.6 1.6 0 0 1 1.2.4c3.3 3.3 1.6 7-.6 7Z" class="cls-7"/><path d="M98 82.4a10.3 10.3 0 0 1-1.2-.5 23.3 23.3 0 0 1 1-3.4c.3-.6 0-1.4-.8-3s-2.2-3.4-3.5-2.6-1.1 2.5-1 4-1.4 4.7-1.4 4.7h-2c-1.4 0-3.5 2.6-3.8 2.8s-2.2-1.2-2.7-1.6a43 43 0 0 0-7-1.8 23 23 0 0 1-5.3-2.8 2.8 2.8 0 0 0-3 0 16.9 16.9 0 0 0-.8-2.8l-1.6.6c-.4.1-1 3-1.3 3.7s-1.2.5-2.7-.5a23 23 0 0 1-5.3-5.5c-1-1.8-2.8-2.6-3-3s-.2-1.9-1.8-1.8-2.4 2.2-2.6 3-.3 1.8-2.6 1.6-6.4-4-7.9-5.4-.6-4.5-.6-4.5a2.5 2.5 0 0 0-.8-.3c-2.2 6.2 6.8 10 7.9 10.7s3.7-.2 3.7-.2 1.7-3.4 2.9-3.5S52 72 52.6 72s3.8 3.5 5.4 6 5.7 3.6 5.7 3.6l2-2.8c1-1.2 2.6 1.4 3 1.5a3.7 3.7 0 0 1 3 .8c1 1.1 4.8 1.1 7.5 2a23.6 23.6 0 0 1 5.8 3.1s1.7-1.2 3-2.4a4.1 4.1 0 0 1 3.5-.6s2.1-4.8 2.1-6.5.4-4.1 2-1.9-.2 7.3-.2 7.3Z" class="cls-3"/><path fill="#b7eae8" stroke="#3c7bd6" stroke-linecap="round" stroke-linejoin="round" stroke-width="1.2" d="M99.5 67.2c-1.5-.3-3.6-1.2-3.8-.7s2.7 5.1 3.4 6.1 3.8 1 4.1-.7a4.4 4.4 0 0 0-3.7-4.7Z"/><path fill="url(#linear-gradient-8)" d="M82.3 24.6a1.8 1.8 0 0 1-.6-.1c-1.3-.5-1.7-2-2-3l-.3-.8-.2-.3a4.2 4.2 0 0 0-2.2-2.5 13.6 13.6 0 0 0-3-.7c-1.6-.3-3-.5-3.8-1.3a2 2 0 0 1-.6-2 2.6 2.6 0 0 1 1.4-1.8 6.8 6.8 0 0 1 2-.2 13.5 13.5 0 0 1 6.5 1.9 16 16 0 0 0 3 1l3 1c1.7.9 3.4 3.4 4.3 4.7l.5.6c.6 1 1 1.7 1 2.3a1 1 0 0 1-.6.7 1.5 1.5 0 0 1-.7.2 4.5 4.5 0 0 1-2.7-1.4 7.7 7.7 0 0 0-2.7-.9 4.5 4.5 0 0 1-.5 1.4 2 2 0 0 1-1.8 1.2Z"/><path d="M73 12.5a12.8 12.8 0 0 1 6.1 1.7c.8.7 4.4 1.5 6.1 2.2s3.5 3.5 4.3 4.7 1.5 2.1.9 2.5a.8.8 0 0 1-.4 0 3.9 3.9 0 0 1-2.3-1.2c-.7-.6-3.7-1.1-3.7-1.1 0 1.2-.7 2.7-1.7 2.7a1.3 1.3 0 0 1-.4-.1c-1.3-.5-1.6-2.6-2-3.5a5 5 0 0 0-2.7-3c-1.9-1-5.6-.8-6.7-1.9s0-2.6.6-2.8a6.5 6.5 0 0 1 1.8-.2m0-1.2a7.7 7.7 0 0 0-2.1.3 3.1 3.1 0 0 0-1.8 2.2 2.7 2.7 0 0 0 .8 2.6c.9.8 2.5 1 4.1 1.4a13 13 0 0 1 2.9.6 3.7 3.7 0 0 1 2 2.2v.3c.2.2.2.5.3.7.4 1.2 1 2.8 2.4 3.4a2.3 2.3 0 0 0 .9.2 2.7 2.7 0 0 0 2.3-1.5 5 5 0 0 0 .4-1 6.8 6.8 0 0 1 1.8.6 5 5 0 0 0 3.1 1.6 2 2 0 0 0 1-.3 1.6 1.6 0 0 0 .8-1c.2-1-.3-1.8-1-2.8l-.3-.4-.1-.2c-1-1.4-2.7-4-4.6-4.9l-3-1a20.3 20.3 0 0 1-2.9-1 14 14 0 0 0-7-2Z" class="cls-2"/><path d="M76 13.9c2.4 1.2 4 2.3 5.6 2.5s9.2 6.2 8.3 7.2a1 1 0 0 0 .4 0c.7-.4-.1-1.4-.9-2.6s-2.5-3.8-4.2-4.6-5.3-1.5-6.1-2.2-5-2.3-8-1.5a1.6 1.6 0 0 0-.8.7 9 9 0 0 1 5.7.5ZM102 71c-.3.3-1 .1-1.6-.4s-1-1.1-.8-1.5 1-.2 1.7.3 1 1.2.7 1.5Z" class="cls-3"/><path fill="#703c16" d="M86 48.7a10.5 10.5 0 0 0 .7 2.6 7.8 7.8 0 0 0 1.6 2.4c.6.5 1.4-.4.9-.9a7.6 7.6 0 0 1-.9-1l-.3-.5a2.1 2.1 0 0 1-.2-.3.6.6 0 0 1 0-.1v-.1a9.7 9.7 0 0 1-.6-2.4.6.6 0 0 0-.7-.5.6.6 0 0 0-.5.8Zm4.3.3a13 13 0 0 0 2.8 3.1.6.6 0 0 0 .8-.2.6.6 0 0 0-.2-.8c0 .1 0 0 0 0l-.2-.1-.1-.1-.4-.4-.7-.8s-.2-.2 0 0l-.2-.3-.3-.4-.4-.6a.6.6 0 0 0-.9-.3.6.6 0 0 0-.2.9Zm16.9 12a12.5 12.5 0 0 1 2.7 10.3c-.1.8 1 1.1 1.2.3a13.8 13.8 0 0 0-3-11.5c-.5-.6-1.4.2-.9.8Zm-1.7 6.2a3.6 3.6 0 0 1 .5 3.7.6.6 0 0 0 .2.9.6.6 0 0 0 .9-.3 4.9 4.9 0 0 0 .4-2.6 5.1 5.1 0 0 0-1.1-2.6.6.6 0 0 0-.9 0 .6.6 0 0 0 0 .9ZM94 48.9l.6.9v-.1a2.6 2.6 0 0 1 .2.3.7.7 0 0 0 .3.2.6.6 0 0 0 .5 0 .7.7 0 0 0 .3-.4.6.6 0 0 0-.1-.4l-.7-1v.2l-.1-.3a.7.7 0 0 0-.4-.3.6.6 0 0 0-.4 0 .6.6 0 0 0-.3.4.5.5 0 0 0 0 .5ZM75 61.6c-.7 3 1.7 5.2 4 6.5a.6.6 0 0 0 .6-1c-1.8-1-4-2.8-3.3-5.1a.6.6 0 0 0-1.2-.3Z"/><path fill="#fff" stroke="#4c1a09" stroke-linecap="round" stroke-linejoin="round" stroke-width="1.2" d="m61.9 28.6 25.9-.6S86.6 44.8 71 43.9c-12.3-.8-9.2-15.3-9.2-15.3Z"/><path d="M91.1 2.1A3 3 0 0 0 89 4.8c-.1 1.1.8 1.8 1.5 2.6a6.3 6.3 0 0 1 1.6 3.1c.1 1.1-1.4 2-2 2.7s.3 1.5.9.9c.7-.9 1.8-1.5 2.2-2.6s-.2-2.3-.7-3.3a10.2 10.2 0 0 0-.8-1.3l-1.1-1.2a1.2 1.2 0 0 1-.3-1.2 1.7 1.7 0 0 1 1.3-1.2c.7-.2.4-1.4-.3-1.2Zm-7 10.1A4.3 4.3 0 0 0 86 9.5a4.3 4.3 0 0 0-1.2-3.2 9.9 9.9 0 0 1-1.6-2.4 3.7 3.7 0 0 1 .6-3c.4-.7-.7-1.3-1-.6a5.7 5.7 0 0 0-.9 3 4.6 4.6 0 0 0 1 2.4 10.7 10.7 0 0 1 1.9 2.7 2.5 2.5 0 0 1-1.2 2.8c-.6.4 0 1.5.6 1ZM78 9.7a4.7 4.7 0 0 0 .5-3.8 12.7 12.7 0 0 0-.9-1.8 1.4 1.4 0 0 1 0-1.6c.4-.6-.6-1.2-1-.6a2.2 2.2 0 0 0-.3 1.9 11.3 11.3 0 0 0 .8 1.8 4 4 0 0 1 .4 1.7 4 4 0 0 1-.5 1.8c-.4.7.7 1.3 1 .6Z" class="cls-2"/></g></g></svg>