<svg xmlns="http://www.w3.org/2000/svg" xmlns:xlink="http://www.w3.org/1999/xlink" height="80px" viewBox="0 0 220.2 199.3"><defs><linearGradient id="linear-gradient" x1="138" x2="138" y1="17.8" y2="36" gradientTransform="rotate(4 313.8 89.2)" gradientUnits="userSpaceOnUse"><stop offset="0" stop-color="#dbffff"/><stop offset="1" stop-color="#339ed3"/></linearGradient><linearGradient xlink:href="#linear-gradient" id="linear-gradient-2" x1="143.8" x2="143.8" y1="192.1" y2="128.1"/><linearGradient id="linear-gradient-3" x1="5" x2="5" y1="87.2" y2="46.9" gradientTransform="rotate(2 -968.2 232.5)" gradientUnits="userSpaceOnUse"><stop offset="0" stop-color="#dbffff"/><stop offset="1" stop-color="#1376a6"/></linearGradient><linearGradient xlink:href="#linear-gradient-3" id="linear-gradient-4" x1="55.4" x2="55.4" y1="71.7" y2="31.7" gradientTransform="rotate(-4 680 -5.4)"/><linearGradient xlink:href="#linear-gradient-3" id="linear-gradient-5" x1="33" x2="33" y1="90.9" y2="50.9" gradientTransform="rotate(2 -948.8 224.3)"/><style>.cls-1{fill:#5b2307}.cls-10,.cls-3,.cls-5,.cls-6{stroke-linecap:round;stroke-linejoin:round}.cls-3{fill:#a36731;stroke:#5b2307;stroke-width:2.4429px}.cls-18{fill:#fff}.cls-10,.cls-5,.cls-6{stroke:#4c1a09;fill:none}.cls-5{stroke-width:1.2346px}.cls-6{stroke-width:1.3426px}.cls-24{fill:#3c7bd6}.cls-10{stroke-width:1.1478px}.cls-27{fill:#b7eae8}.cls-28{fill:#4c1a09}.cls-29{fill:#331404}.cls-30{fill:#ffd67d}.cls-35{fill:#703c16}.cls-36{fill:#755b46}.cls-41{fill:#3a164a;mix-blend-mode:multiply;opacity:.45}</style></defs><g fill="none" style="isolation:isolate"><g id="Layer_2" data-name="Layer 2"><g id="Layer_1-2" data-name="Layer 1"><path d="M50.4 179.6c-2.8 0-5.4-1-6.9-1.8-8.8-6.2-19.2-25.4-17.4-32.3.7-2.2 2-2.6 2.7-2.6 2.5 0 5.8 4.7 8.4 9.2-1-7.7-1.5-17.9 1.9-20 .4-.3.9-.4 1.3-.4 3.5 0 6 7 10 21.9l.4 1.2c.7-4.2 2-8.5 4.8-8.5.5 0 1 .1 1.3.3 5 2.4 3 20.3 1.3 27-1 3.9-3.7 6-7.8 6Z" class="cls-36"/><path d="M40.4 133c4.3 0 9.1 23.7 11 28.2 0 0 .6-13.6 4.2-13.6l.8.1c3.6 1.8 2.7 17.2.6 25.6-1 3.9-3.8 5.1-6.6 5.1a13 13 0 0 1-6.2-1.7c-8.3-5.7-18.6-24.6-16.9-30.8.4-1.2.9-1.7 1.5-1.7 3.5 0 10.8 15 10.8 15s-4.3-23.3.2-26l.6-.3m0-2.5c-.7 0-1.3.2-2 .6-2 1.3-3.8 4.2-2.9 16.1-3.2-4.7-5.1-5.4-6.7-5.4-.9 0-3 .3-3.9 3.5-2 7.9 9.3 27.6 17.9 33.5l.1.1c1.7 1 4.5 2 7.5 2 4.6 0 7.9-2.5 9-7 1-4 4.7-25.1-2-28.3-.5-.3-1.1-.4-1.8-.4-2.6 0-4 2.4-4.9 4.8-3.8-13.7-6.3-19.5-10.3-19.5Z" class="cls-28"/><path d="M37 138.3s4.3 5.6 9.5 1.9M37.6 151.3s6.5 4.2 12.4.6M27.6 154s5.9 4.3 8.4-4.1" class="cls-5"/><path stroke="#4c1a09" stroke-linecap="round" stroke-linejoin="round" stroke-width="1.1" d="M51.3 153.7s3.9 5.6 8.8 2.2"/><path d="M34 166.7s4.5-1 5.3-4c0 0 8.4 8 12-.5 0 0 4.7 5.3 8.6 2.5" class="cls-5"/><path d="M89.3 188.9c-1 0-1.6-.6-1.8-1.6-.4-1.7 1.4-4.1 3.5-6.3l-7.3 2.9-8 3.1-1.7.3c-1.6 0-3-.8-3.4-2.2-.5-1.5 0-3 1.5-4.2a60 60 0 0 1 8.1-4.4c-5.4-.3-7.8-1.3-8-3.1-.1-1.9 2.5-3 5-3.6 4.6-.8 15.7-1.2 16.2-1.2h3.2c4.1 0 13.7.3 14.5 3.6.6 2.4-3 4.6-7 7.2a71 71 0 0 0-3.3 2l-2.9 2.2c-4 3.2-6.8 5.3-8.6 5.3Z" class="cls-36"/><path d="M96.6 169.7c6.8 0 13 1 13.4 2.8.5 2.1-6.2 5.5-9.9 8-3 2.2-8.7 7.2-10.8 7.2-.4 0-.6-.2-.7-.6-.5-2.6 7.2-9.1 7.2-9.1-4.9 1.6-17.2 6.8-20.5 8a4 4 0 0 1-1.3.2c-2.5 0-3.4-2.7-1.2-4.4 2.6-2 16.8-8.3 16.7-8.4l-7.6 2c-12.4-.4-8.9-3.6-4.4-4.4 4.4-1 16-1.2 16-1.2l3.1-.1m0-2.3h-3.3c-.4 0-11.7.4-16.3 1.3-3.9.8-6 2.5-6 4.8.2 2.1 2.3 3.2 5.2 3.7-2.2 1.1-4 2.1-4.8 2.8-1.8 1.4-2.6 3.6-1.9 5.5.6 1.8 2.4 3 4.5 3 .6 0 1.3-.1 2-.4 1.5-.5 4.6-1.7 8.1-3.2l3.4-1.3c-1 1.4-1.4 2.8-1.1 4a3 3 0 0 0 3 2.4c2 0 4.9-2 9.3-5.4l2.8-2.2 3.1-2c4.7-3 8.4-5.3 7.7-8.4-.8-3-6-4.6-15.7-4.6Z" class="cls-28"/><path d="M76.6 178.4s4 1.5 3.4 6.5M83.8 175.5s6-.6 5.4 5.5M79.7 169.8s3 1.8 1.2 6.3M92 180.3s4.2-.8 5.4 3.9M87.5 169c.2.4 3.1.5 3.3 3.9 0 0 5.3-1 6.2 3.8 0 0 5.4-1.2 6.1 3" class="cls-10"/><path d="M105.1 175.6c-3.2 0-6.2-.7-8.9-1.9-12-5.4-11.8-18.6-11.8-18.7 0-.6.5-1 1-1.2l2.8-.1c16.1 0 32.6 14.7 33.3 15.3a1.1 1.1 0 0 1-.2 1.9c-.3.1-7.5 4.7-16.2 4.7Z" class="cls-27"/><path d="M88.2 154.8c15.9 0 32.5 15 32.5 15s-7.1 4.6-15.6 4.6c-2.7 0-5.6-.5-8.4-1.7-11.5-5.2-11.1-17.7-11.1-17.7l2.6-.2m0-2.2-2.9.1c-1.1.1-2 1-2 2.2 0 .6-.3 14.1 12.4 19.9 2.9 1.3 6 2 9.4 2 9 0 16.5-4.8 16.8-5a2.3 2.3 0 0 0 .4-3.6c-.8-.7-17.5-15.6-34.1-15.6Z" class="cls-24"/><path fill="#a36731" d="M141.5 174c-3.9 0-7.8-.4-11.6-1-45-7.2-62.6-32.9-63.3-48.4a52 52 0 0 1 2.5-18.5c-.9.6-2 1.3-3.2 1.3-.7 0-1.3-.3-1.7-.8-.7-.8-1-2-.6-4 .6-4.2 3.5-8.4 6-11.3h-.1c-1.5.8-2.8 1.4-3.8 1.4a2 2 0 0 1-1.5-.7c-.7-.7-.6-1.7-.6-2.4.5-4.2 5.9-7.7 8-9-.7-3.3-3.1-15.5.5-32.8a55.3 55.3 0 0 1 22.2-31.1c-2.2-.6-4.2-1.7-4.4-3.4-.1-1 .4-2.5 3.5-3.6 1.7-.5 4-.9 6.8-1-1.7-.8-3-1.8-3-2.9-.2-.7 0-1.7 1.6-2.5 1-.6 2.2-.8 3.6-.8 3.2 0 6.8 1.3 9.5 2.6-.4-1-.7-2-.3-2.8.2-.7.8-1 1.6-1.1h.3c2.6 0 6.2 3.9 7.5 5.4C158.5 8 173.2 32 178.9 51.7c3.5 12.3 12.3 18.4 22.4 25.6 11 7.7 17 19.7 17.4 21 .2.7 0 1.2-.2 1.5-.2.2-.6.6-1.3.6h-.4A37 37 0 0 1 219 114c0 .9-.7 1.4-1.6 1.4l-.8-.1c1.5 6 .3 13.7-1.3 15.2a83.9 83.9 0 0 0-7.7 11.6c-.4 1.6-28 31.7-66.2 31.7Z"/><path d="M113.5 2.3c2.5 0 7 5.4 7 5.4A57.6 57.6 0 0 1 177.7 52c3.6 12.5 12.4 18.9 22.9 26.2a54.2 54.2 0 0 1 16.9 20.5c0 .4-.1.5-.4.5-1 0-3-1.1-3-1.1 3.7 4.8 3.8 14.6 3.7 16 0 .2-.1.3-.4.3-.8 0-3-1.7-3-1.7 3 5.9 1.5 15.8.1 17-1.4 1.3-7.8 11-8 12.2-.3 1-27.2 30.9-65.1 30.9-3.7 0-7.5-.3-11.4-1-43.9-7-61.6-31.9-62.4-47.2C67 109.2 73.8 98 73.8 98c-2.8 2.5-4.4 6.2-4.4 6.2s-2 2-3.5 2c-1 0-1.6-.9-1.2-3.6 1-6.8 9.2-14.2 9.2-14.2-3.2.6-6.6 3-8.2 3-.7 0-1-.5-1-1.8.6-4.4 8.3-8.5 8.3-8.5s-4-13.3.2-33.2c4.1-19.8 24-32 24-32-5.6-.5-8.7-3.4-3.4-5.2 2.5-.8 6-1 8.9-1 3.2 0 5.9.3 5.9.3s-14.4-3-9.2-5.8c.9-.5 2-.7 3-.7 5.5 0 12.8 4.6 12.8 4.6s-4.4-5.7-1.9-5.9h.2m0-2.3a4 4 0 0 0-.4 0 3 3 0 0 0-2.6 1.8c-.1.2-.3.7-.3 1.3-2.4-1-5.2-1.8-7.8-1.8-1.5 0-3 .3-4.1 1C96 3.5 95.9 5 96 6c0 .3.1 1 .9 1.8-1.5.2-2.8.5-3.8.9-4 1.3-4.5 3.5-4.3 4.7.2 1.5 1.3 2.7 3 3.6A55.3 55.3 0 0 0 71 47.6a80 80 0 0 0-.5 32.5c-2.7 1.6-7.4 5.1-7.9 9.3 0 .6-.2 2.2.8 3.4.6.7 1.5 1 2.4 1h.6a21.3 21.3 0 0 0-3.9 8.6c-.2 1.4-.3 3.6.9 5 .7.7 1.6 1.1 2.6 1.1.5 0 1 0 1.3-.2-1.2 4.5-2 10-1.8 16.4.8 15.8 18.6 42.1 64.3 49.4 3.9.7 7.9 1 11.8 1 20.3 0 37.3-8.4 48-15.5 10.6-7 18.9-15.4 19.3-17.2v.2c.5-1.4 6.2-10 7.3-11.2 2-1.6 3.1-8.6 2-14.8 1.2-.2 2-1.2 2.1-2.4 0-.1.2-7-1.8-13 .4 0 .7-.4 1-.7.3-.4.7-1.3.4-2.5A55.6 55.6 0 0 0 202 76.4c-10-7-18.6-13.1-22-25a67 67 0 0 0-14.8-27.2 60.6 60.6 0 0 0-43.7-18.7c-1.8-2.1-5.2-5.5-8-5.5Z" class="cls-1"/><path fill="#8e5424" d="M206.6 141.9c.2-1.2 6.6-11 8-12.2 1.4-1.2 2.8-11.1 0-17 0 0 3.2 2.7 3.3 1.3.1-1.3 0-11-3.8-16 0 0 4 2.2 3.5.7-.5-1.6-6.5-13-17-20.5a96.5 96.5 0 0 1-14.2-11.4s14 17 12.3 32c-1.7 15.1-8.3 9-8.3 9l-12-7.6s3.4 11.6-3.5 15c-7 3.5-8.6-.5-8.6-.5s1.8 7.5-6.9 8.8a148 148 0 0 1-41-2.6c-9.8-2.5-22.7-7.6-23.5-15-.8-7.3-2-8.5-2-8.5s-10.6 12.4-11.4 6c-.7-6.4 1.4-11 1.4-11s-8.4 4.6-7.3 1.2c1-3.4 3.2-7 3.2-7s-3.3-1.8-6.2-5.2c-1.6 1-7.4 4.5-7.8 8.3-.5 4.4 4.4-.3 9-1.2 0 0-8 7.4-9 14.2-1 6.8 4.6 1.6 4.6 1.6s1.6-3.7 4.4-6.2c0 0-6.8 11-6 26.5.7 15.3 18.4 40.2 62.3 47.3 43.8 7 76.2-28.9 76.5-30Z"/><path fill="#bd852d" d="M186 134c-20.3-4-58-21.5-52-40.7 6-19.1 20.9-12.6 28-36.3 7-23.7-16.9-39.6-36.3-38.4-19.5 1.3-30.2 19.6-31 20.8-1 1.3-10.3.7-13.8-.3s-1.8-5-1.7-5.1a41.7 41.7 0 0 0-6 14c-4.1 20-.2 33.2-.2 33.2s-7.7 4.1-8.2 8.5c-.5 4.4 4.4-.3 9-1.2 0 0-8 7.4-9 14.2-1 6.8 4.6 1.6 4.6 1.6s1.6-3.7 4.4-6.2c0 0-6.8 11-6 26.5.7 15.3 18.4 40.2 62.3 47.3 36.7 5.8 65.4-18.4 73.9-27a27 27 0 0 0-18-10.9Z"/><path fill="#91682c" d="M135 172.5a80 80 0 0 0 10.1.2h1.1l3.2-.4h.3l3.5-.5 1-.1 2.4-.5 1-.2 2.3-.6c.4 0 .7-.2 1.1-.3l2.2-.6 1-.3 2.7-.9h.3l3-1.2a85 85 0 0 0 2.9-1.2l1-.4a89.8 89.8 0 0 0 4.7-2.3l.8-.4 2.1-1.2.4-.2 2.5-1.4.4-.3 2-1.2.6-.5a112.6 112.6 0 0 0 3.7-2.4l.7-.5 1.4-1 .5-.5 1.8-1.4.5-.3 1.1-1 .7-.6a146.4 146.4 0 0 0 2.2-2l.7-.5.5-.5.7-.7.2-.1 1.7-1.7a27 27 0 0 0-18-10.8c-8-1.5-18.7-5.2-28.4-10.3-9.7 1-30-.4-39.2-2.8-9.8-2.5-22.7-7.6-23.5-15-.8-7.3-2-8.5-2-8.5s-10.6 12.4-11.4 6c-.7-6.4 1.4-11 1.4-11s-8.4 4.6-7.3 1.2c1-3.4 3.2-7 3.2-7s-3.3-1.8-6.2-5.2l-.4.2-.1.1a31 31 0 0 0-.9.5l-.1.2c-.2 0-.3.2-.5.3l-.2.1-.5.3-.2.2-.5.4-.2.1-.6.5-.1.1-1.4 1.3-.1.2-.5.5-.1.2a9.4 9.4 0 0 0-.8 1.3l-.2.2-.2.6v.2l-.2.8c-.5 4.4 4.4-.3 9-1.2 0 0-8 7.4-9 14.2-1 6.8 4.6 1.6 4.6 1.6s1.6-3.7 4.4-6.2c0 0-6.8 11-6 26.5.7 15.3 18.4 40.2 62.3 47.3l3.8.5h1.2Z"/><path fill="#f7d33c" d="M132 69.1h-1c-5.2-.3-10-3-13.3-7.4-3.4-4.4-5-10-4.7-15.9.8-11.7 9.4-20.9 19.7-20.9h1.1c5.2.4 10 3 13.3 7.5 3.4 4.4 5 10 4.6 15.9C151 60 142.4 69 132.1 69Z"/><path d="M132.7 26.1h1c10 .7 17.6 10.6 16.9 22.1-.7 11.1-8.9 19.8-18.5 19.8h-1c-10-.7-17.6-10.6-17-22.1.8-11.2 9-19.8 18.6-19.8m0-2.3c-10.9 0-20 9.6-20.8 22-.8 12.7 7.7 23.7 19 24.4h1.2c10.9 0 20-9.6 20.8-21.9.4-6-1.3-12-4.9-16.6a19.3 19.3 0 0 0-15.3-7.9Z" class="cls-1"/><path fill="#ed9935" d="M133.7 26.1c-10-.6-18.8 8.2-19.5 19.8-.3 5.1 1 10 3.5 13.8 0-.1 4.5-10.4 15.6-10.1 10.1.3 11.7 9.3 11.8 12.2 3.1-3.6 5.2-8.3 5.5-13.6.7-11.5-6.8-21.4-16.9-22Z"/><path d="M142.2 52c-.5 7.9-6.4 13.9-13.3 13.4-6.8-.4-12-7.1-11.4-15 .5-7.8 6.4-13.8 13.3-13.4 6.8.5 12 7.2 11.4 15Z" class="cls-28"/><path d="M120.7 32.7c-4 3.2-5.3 8.6-2.6 11.9 2.6 3.2 8 3.3 12.1 0s5.3-8.6 2.7-12c-2.6-3.2-8.1-3.2-12.2 0ZM143.7 58.5c0 .7-1.4 1.2-3 1.1-1.6 0-2.8-.8-2.7-1.5 0-.7 1.3-1.2 2.9-1.1 1.6.1 2.8.8 2.8 1.5Z" class="cls-18"/><path fill="#bd852d" stroke="#5b2307" stroke-linecap="round" stroke-linejoin="round" stroke-width="2.3" d="M125.5 72.1S128.3 66 137 65c8.9-1 11.6 3.3 11.6 3.3"/><path fill="url(#linear-gradient)" d="M147 27.7h-1c-2.3-.7-3.6-3.4-4.4-5.3l-.8-1.4-.2-.5c-1-1.5-2-3.3-5-4.2-1.4-.4-3.6-.5-5.7-.6-3-.1-6-.3-7.6-1.4a3.9 3.9 0 0 1-1.6-3.7C121 9 122 7.3 123 6.9c1.7-.7 3.8-1 6.1-1 4.3 0 9 1.1 10.4 2 .7.5 3.6 1 6 1.4l5.7 1.2c3.6 1 7.3 5.4 9.3 7.7l1 1.1c1.4 1.6 2.5 2.8 2.3 4.1 0 .4-.2 1-.9 1.4a3 3 0 0 1-1.7.5 9 9 0 0 1-5-2c-.5-.5-3-.9-5.3-1 0 1.6-.6 3.3-1.4 4.3-.7.7-1.6 1.1-2.5 1.1Z"/><path d="M129.1 7a24 24 0 0 1 9.8 2c1.6 1 8.5 1.6 12 2.6 3.4 1 7.4 5.8 9 7.8 1.8 2 3.6 3.7 2.4 4.5-.3.2-.7.3-1 .3a8 8 0 0 1-4.4-1.8c-1.3-1.1-7.2-1.4-7.2-1.4.4 2.5-.7 5.6-2.7 5.6h-.7c-2.5-.8-3.5-4.6-4.5-6.2-1-1.6-2.1-4-5.8-5.2-3.7-1.1-10.6-.1-13-1.9-2.4-1.7-.6-5 .5-5.4 1.7-.7 3.6-1 5.6-1m0-2.2c-2.5 0-4.7.3-6.5 1.1-1.5.6-2.8 2.6-3 4.6a5 5 0 0 0 2 4.8c2 1.4 5 1.5 8.2 1.6 2 .1 4.2.2 5.5.6 2.5.8 3.4 2.3 4.3 3.7 0 .2.2.3.3.5l.6 1.3c1 2.1 2.3 5 5.2 5.8l1.3.2c1.2 0 2.4-.6 3.3-1.6.9-1 1.4-2.3 1.7-3.8 1.6.2 3 .4 3.5.7 1.4 1.1 3.7 2.3 5.7 2.3a4 4 0 0 0 2.4-.7c.7-.5 1.2-1.3 1.3-2.2.3-1.8-1-3.3-2.6-5l-.6-.7-.3-.4c-2.1-2.4-6-7-9.9-8-1.6-.5-3.7-1-5.8-1.3-2-.3-5-.9-5.6-1.2-1.5-1-6.3-2.3-11-2.3Z" class="cls-24"/><path d="M133 9c4.7 1.7 8 3.4 11.1 3.4 3.1 0 18.8 9.5 17.3 11.7.4 0 .6 0 .9-.2 1.2-.8-.6-2.6-2.3-4.5-1.7-2-5.7-6.8-9.1-7.8-3.5-1-10.4-1.7-12-2.7-1.7-1-10-3.2-15.4-1-.4.2-1 .8-1.3 1.5 1.3-.5 6.5-2 10.8-.4Z" class="cls-18"/><path d="M155.6 181.7c-7 0-9.7-2.7-10.7-4.2-4.3 0-27-1-46.8-10.7C80.3 158 76.6 153 74.4 150a12 12 0 0 0-1.3-1.5c-2-1.9-2.5-4.3-2.8-6 0-.4-.2-1-.3-1 0 0 0-.2-.2-.3-4.3-4.6-6.3-9.2-6-13.6l.3-3.7c.2-6.3.5-13.4 5.4-13.4.7 0 1.4.1 2 .4.6.2.9.7.8 1.2-.1 1.5-.1 5.6 2 7.3 3 2.6 11 8.1 15 8.1h.2c3.4 0 3.5-1 3.6-2.5 0-1.8 1.2-6.7 5-7.4h1c2.7 0 3.6 2.3 4 3.3v.2l1 .5c1.3.8 3.6 2 5.3 4.3 2.2 2.9 7.7 7.2 10.8 8.9 2 1 3 1.2 3.3 1.2h.3l.5-2.4c.6-4 .9-5.3 1.8-5.7l.8-.6c1-.7 1.8-1.1 2.4-1.1h.6c.4.3.8.4 2.2 4.6a6.3 6.3 0 0 1 5.5 0c4.1 1.8 9.2 3.8 10.4 3.8h.1c1.5 0 12.4 1 13.9 1.9 2.1 1.2 3.7 2 4.5 2.2v-.1c2.2-2.8 4.6-5.6 6.9-6l3-.5c.9-2.5 1.8-6.4 1.4-7.9-.7-2.9-1.7-6.8 1.2-9 .7-.4 1.4-.7 2.2-.7 2.7 0 5.2 2.7 6.7 5.1 2 3.1 3 4.8 2.2 6.7-.3.6-.6 3.2-.8 5.3a27.6 27.6 0 0 0 10.3.6c0-1.7.4-4.6 2.8-5.3 1.3-.4 2.5-.5 3.3-.5.7 0 2 0 2.7.6l.5.4c-.2-7.6 1-8 1.5-8.3l1-.2c1.3 0 2.7.8 4.3 2.5 1.3 1.4 3 4.6 2.5 6.5-.5 1.7-2.9 5.3-4.8 7.5-2 2.2-2.8 5.5-2.9 7.6-.1 2.2-2.8 4-4.9 5.6-.7.5-1.6 1.1-1.8 1.4-.2.2-19.9 25.2-36.5 29.9a44.5 44.5 0 0 1-11.7 1.8ZM100.7 127c-.7 0-1.6.5-1.7 2-.2 2.5.4 7.1 2 9 .5.4 1 .6 1.6.6h.1c1.4 0 2.5-1 3-2.6.7-2.2 0-5.6-3.7-8.5a2 2 0 0 0-1.3-.5Z" class="cls-27"/><path d="M69.5 111.7c.5 0 1 0 1.7.3 0 0-.7 5.8 2.3 8.3 3 2.5 11.3 8.4 15.9 8.4h.1c4.5-.2 4.6-2 4.7-3.6.1-1.6 1-5.8 4.1-6.3l.8-.1c2.4 0 2.7 2.4 3 3 .5.8 4 1.7 6.4 4.9 2.4 3.2 8.1 7.6 11.2 9.2 1.6.9 3 1.3 3.8 1.3.8 0 1.3-.3 1.5-1 .4-1.4.8-6.8 1.6-7.2.7-.4 2.2-1.6 2.7-1.6h.1a32 32 0 0 1 2.1 5.2s1.4-1.3 3.5-1.3c.7 0 1.4.2 2.2.5a50.6 50.6 0 0 0 10.9 4c1.9 0 12.2 1.1 13.3 1.7 1 .6 4.4 2.6 5.4 2.6l.2-.1c.5-.5 4-5.7 6.6-6.1l3.8-.7s2.2-6.6 1.6-9.2c-.7-2.6-1.7-6 .7-7.7.5-.4 1-.5 1.5-.5 2 0 4.3 2.2 5.7 4.5 1.9 3 2.6 4.4 2.1 5.6-.5 1.3-1 6.6-1 6.6s3.3 1.1 8.2 1.1c1.4 0 3 0 4.6-.3 0 0-.4-4.5 1.9-5.2 1-.3 2.1-.4 3-.4 1 0 1.8.1 2 .3l2.5 2.2s-.6-9.4.6-10h.6c1.1 0 2.4 1 3.5 2 1.3 1.4 2.5 4.3 2.2 5.5-.4 1.3-2.5 4.6-4.6 7-2 2.4-3 6-3.1 8.4-.2 2.4-5.5 5-6.5 6.3-1 1.2-20 25-36 29.5a43 43 0 0 1-11.3 1.8c-7 0-9.4-2.8-10-4.2-1.1 0-25.7-.1-47-10.6C77 155 76.5 150 74 147.7c-2.6-2.5-2.3-6.2-3-7-.7-.7-6.5-6.3-6-13 .6-6.1 0-16 4.6-16m33.1 28h.2c4.4-.2 7-7.7-.1-13.2-.6-.5-1.3-.7-2-.7-1.4 0-2.7 1-2.9 3-.1 2.8.5 10.9 4.8 10.9m-33-30.3c-6 0-6.4 8-6.7 14.4l-.2 3.7c-.4 4.8 1.7 9.7 6.3 14.5l.2.8c.3 1.6.9 4.4 3.1 6.5l1.2 1.4c2.2 3 6 8.2 24.1 17.1a121 121 0 0 0 46.7 10.9c1.4 1.7 4.5 4.2 11.3 4.2 3.4 0 7.5-.7 12-2 17-4.7 37-30 37.1-30.2l1.6-1.2c2.3-1.6 5.2-3.7 5.4-6.4 0-2.1 1-5.1 2.6-7 2-2.3 4.5-6 5-8 .6-2.3-1.3-6-2.8-7.5-1.7-1.9-3.5-2.8-5-2.8-.6 0-1.1 0-1.6.3-1.8.7-2.1 3-2.1 7.2v.2a12.8 12.8 0 0 0-5.7.3c-2.4.7-3.4 3-3.6 5.4a29 29 0 0 1-8-.5c.2-1.8.5-3.5.7-4 1-2.4-.4-4.5-2.3-7.7-.8-1.3-3.8-5.6-7.7-5.6-1 0-2 .3-2.9 1-3.6 2.6-2.3 7.2-1.6 10 .3 1-.3 4-1.1 6.7l-2.4.4c-2.5.4-4.9 3-7.1 5.8l-3.5-1.8c-2-1.1-13.3-2-14.5-2h-.2c-1-.1-5.6-2-9.7-3.9a7.5 7.5 0 0 0-5.4-.3c-1.3-3.6-1.8-3.8-2.5-4-.3-.2-.6-.3-1-.3-1 0-1.8.5-3 1.4l-.8.5c-1.4.7-1.8 2.4-2.4 6.5l-.2 1.3a41.1 41.1 0 0 1-12.6-9.5 16.7 16.7 0 0 0-5.7-4.6l-.5-.3c-.4-1-1.6-4-5-4l-1.1.2c-4.4.7-6 5.9-6 8.5l-.2 1s-.4.3-2.4.4c-3.3 0-10.5-4.6-14.4-7.8-1.7-1.4-1.7-5.2-1.5-6.4 0-1-.5-2-1.5-2.4a7 7 0 0 0-2.5-.4Zm33 28c-.2 0-.4 0-.7-.4-1.4-1.4-2-5.7-1.8-8 0-.4.2-1 .6-1l.6.3c3.3 2.6 3.9 5.5 3.3 7.3-.3.8-1 1.7-2 1.8Z" class="cls-24"/><path fill="url(#linear-gradient-2)" d="M210.8 120.2c-1.2.5-.6 10-.6 10s-2-2-2.5-2.3c-.4-.3-2.7-.6-5 .1s-2 5.2-2 5.2c-5 .8-9 .1-11-.4s.4 7.6-3.1 11.7-25.7 6.4-34.8 10.7c-9 4.3-32.1 0-48.2-7-16-7.1-23.3-12.3-24.2-23.7a60.3 60.3 0 0 1-5.9-4.2c-3-2.5-2.3-8.3-2.3-8.3-6.5-2.4-5.6 9-6.2 15.7-.6 6.7 5.2 12.3 6 13 .6.8.3 4.5 3 7 2.5 2.4 2.9 7.3 24.6 18 21.8 10.8 47 10.7 47 10.7.8 2 5.4 6.8 21.4 2.4s35-28.3 36-29.5c.9-1.2 6.2-4 6.4-6.3a15 15 0 0 1 3.1-8.4c2.1-2.4 4.2-5.7 4.6-7 .3-1.2-1-4-2.2-5.4-1.3-1.4-2.9-2.5-4-2Z"/><path d="M69.5 112.8h.5c0 2 .1 6.2 2.8 8.4 2.7 2.2 11.5 8.6 16.6 8.6h.2c5-.1 5.6-2.5 5.7-4.6.1-1.5 1-5 3.2-5.3h.6c1 0 1.4.5 1.8 1.7 0 .3.2.5.3.7.3.5.9.9 1.8 1.4 1.2.7 3.2 1.7 4.6 3.6a45 45 0 0 0 11.5 9.5 10 10 0 0 0 4.4 1.5c1.3 0 2.3-.7 2.6-1.9l.4-2.5.8-4.1.9-.6.7-.4 1.5 4a1.1 1.1 0 0 0 2 .6s1-1 2.6-1a4 4 0 0 1 1.7.4 54.4 54.4 0 0 0 11.3 4h.1c2 0 11.6 1.1 12.7 1.6 3 1.8 5 2.7 6 2.7.5 0 .8-.2 1-.4l.6-.7c2.4-3.2 4.2-5 5.4-5.1l3.8-.6c.4-.1.7-.4.8-.8.3-.7 2.4-7 1.7-9.9-.8-3-1.3-5.3.3-6.5.2-.2.5-.3.8-.3 1.4 0 3.3 1.7 4.8 4 1.6 2.7 2.3 4 2 4.6-.6 1.4-1 6-1.1 6.9 0 .5.3 1 .8 1.2a32.5 32.5 0 0 0 13.3.9c.6-.2 1-.7 1-1.3-.2-1.1 0-3.7 1-4a9.3 9.3 0 0 1 4.1-.2 90 90 0 0 1 2.3 2 1.1 1.1 0 0 0 2-.9c-.3-3.4-.2-7.6.1-8.8.5 0 1.4.5 2.5 1.8 1.2 1.2 2.1 3.7 2 4.3-.3 1-2.2 4.1-4.3 6.6a16 16 0 0 0-3.5 9c0 1-2.6 2.9-4 3.8-1 .8-1.8 1.4-2.2 1.9-.2.2-19.4 24.6-35.3 29-4.3 1.2-8 1.8-11.1 1.8-7.2 0-8.8-3.1-9-3.5-.2-.4-.6-.6-1-.6-1.1 0-25.4-.2-46.4-10.5-17.4-8.6-20.9-13.3-23-16.1l-1.5-1.9a8.7 8.7 0 0 1-2.2-4.7c-.2-1-.3-1.7-.7-2.1l-.3-.3c-3.9-4.1-5.7-8.1-5.4-12l.3-3.7c.2-4.7.4-11.2 3.1-11.2m33.1 28h.2c2.3 0 4.3-1.7 5-4.2 1-3 .3-7.3-4.4-11-.8-.6-1.7-1-2.7-1-2.2 0-3.9 1.7-4 4.1-.1 2 0 8 2.7 10.7.9 1 2 1.4 3.2 1.4M69.5 111.7c-4.6 0-4 9.9-4.5 16-.6 6.7 5.2 12.3 6 13 .6.8.3 4.5 3 7 2.5 2.4 2.9 7.3 24.6 18a118.9 118.9 0 0 0 47 10.7c.6 1.4 3 4.2 10 4.2 3 0 6.7-.5 11.4-1.8 16-4.5 35-28.3 36-29.5.9-1.2 6.2-4 6.4-6.3a15 15 0 0 1 3.1-8.4c2.1-2.4 4.2-5.7 4.6-7 .3-1.2-1-4-2.2-5.4-1.1-1.2-2.4-2.1-3.5-2.1h-.6c-1.2.6-.6 10-.6 10s-2-1.9-2.5-2.2c-.2-.2-1-.3-2-.3-.9 0-2 0-3 .4-2.3.7-2 5.2-2 5.2-1.6.3-3.1.3-4.5.3-5 0-8.2-1.1-8.2-1.1s.5-5.3 1-6.6c.5-1.2-.2-2.6-2-5.6-1.5-2.3-3.7-4.5-5.8-4.5-.5 0-1 .1-1.5.5-2.4 1.7-1.4 5-.7 7.7.6 2.6-1.6 9.2-1.6 9.2l-3.8.7c-2.6.4-6.1 5.6-6.6 6l-.2.2c-1 0-4.4-2-5.4-2.6a82.1 82.1 0 0 0-13.4-1.7c-1.7 0-7.6-2.5-10.8-4a5.2 5.2 0 0 0-5.7.8s-1.7-5-2-5.1h-.2c-.5 0-2 1.1-2.7 1.5-.8.4-1.2 5.8-1.6 7.2-.2.7-.7 1-1.5 1-.9 0-2.2-.4-3.8-1.3-3-1.6-8.8-6-11.2-9.2-2.4-3.2-6-4.1-6.3-4.9-.4-.6-.7-3-3.1-3h-.8c-3 .6-4 4.8-4.1 6.4-.1 1.6-.2 3.4-4.7 3.6h-.1c-4.6 0-13-6-15.9-8.4-3-2.5-2.3-8.3-2.3-8.3l-1.7-.3Zm33.1 28c-4.3 0-5-8-4.8-10.9.2-2 1.5-3 3-3 .6 0 1.3.2 1.9.7 7 5.5 4.5 13 0 13.2Z" class="cls-27"/><path d="m190.7 133-2.7-.6s.5-5.3 1-6.6c.5-1.2-.2-2.6-2-5.6-1.9-3-5-5.7-7.3-4-2.4 1.7-1.4 5-.7 7.7.6 2.6-1.6 9.2-1.6 9.2l-3.8.7c-2.6.4-6.1 5.6-6.6 6-.5.6-4.5-1.7-5.6-2.4a82 82 0 0 0-13.4-1.7c-1.6 0-7.6-2.5-10.8-4-3.2-1.5-5.7.8-5.7.8s-1.7-5-2-5.1c-.5-.2-2.2 1.1-3 1.5-.7.4-1.1 5.8-1.5 7.2-.4 1.4-2.3 1.3-5.3-.3s-8.8-6-11.2-9.2c-2.4-3.2-6-4.1-6.3-4.9-.4-.7-.8-3.5-3.9-3-3 .6-4 4.8-4.1 6.4-.1 1.6-.2 3.4-4.7 3.6-4.5.1-13-5.9-16-8.4s-2.3-8.3-2.3-8.3l-1.5-.3C67 123.7 85 128.9 87.1 130c2.1 1 7-1.3 7-1.3s2.4-6.7 4.5-7.3c2.2-.7 2.7 3 4 3 1.3.2 7.8 5.8 11.6 10 3.7 4.3 11.4 5.5 11.4 5.5l3-5.7c1.4-2.4 5.5 2 6 2.1.6 0 3.4-1.1 5.8.8 2.4 1.8 9.5 1 14.8 1.9a45 45 0 0 1 11.8 4.5s2.8-2.6 5-5.2c2.4-2.5 6.5-1.9 6.5-1.9s3-9.6 2.6-12.8c-.4-3.3-.4-7.9 3.3-4 3.7 3.8 1.2 13.8 1.2 13.8l5-.4Z" class="cls-18"/><path fill="#b7eae8" stroke="#3c7bd6" stroke-linecap="round" stroke-linejoin="round" stroke-width="2.3" d="M189.9 104c-3-.1-7.1-1.4-7.5-.4-.4 1 6.2 9 8 10.9 1.6 1.7 7.3 1 7.5-2.5.2-3.5-3.1-7.6-8-8Z"/><path d="M195.3 110.5c-.4.7-1.8.7-3.1-.1-1.4-.8-2.2-2-1.8-2.7.4-.7 1.8-.6 3.2.2 1.4.8 2.1 2 1.7 2.6Z" class="cls-18"/><path d="M159.9 72.2a14.7 14.7 0 0 0 5.7 9c.5.4 1.3.1 1.6-.4.4-.6 0-1.2-.4-1.5a14.4 14.4 0 0 1-2.2-2.2l-.1-.1a10.8 10.8 0 0 1-1.4-2.4v-.1a18.7 18.7 0 0 1-1-3c-.2-.5-.8-1-1.4-.7-.6.1-1 .8-.8 1.4ZM168.3 72c1.7 2 3.4 3.9 5.6 5.2.6.3 1.3.1 1.6-.4.3-.6.2-1.3-.4-1.6l-.8-.6-.4-.2a15.3 15.3 0 0 1-1.7-1.6l-2.3-2.4c-.4-.4-1.2-.4-1.6 0-.5.5-.4 1.2 0 1.6ZM202.8 90.3c5.4 5 8 12 7.5 19.3 0 1.5 2.3 1.5 2.3 0 .5-7.9-2.4-15.5-8.2-20.9-1.1-1-2.7.6-1.6 1.6ZM201 102.5c1 1 1.7 2 2 3.4a7 7 0 0 1-.1 3.9c-.2.6.2 1.2.8 1.4.6.1 1.2-.2 1.4-.8 1-3.4 0-7-2.4-9.5-.5-.5-1.2-.5-1.7 0-.4.4-.4 1.2 0 1.6ZM175 71l1.9 1.8c.1.2.5.3.8.3.3 0 .6-.1.8-.3.2-.2.3-.5.3-.8v-.3c0-.2-.2-.4-.3-.5l-1.8-1.9c-.2-.2-.6-.3-.8-.3-.3 0-.6.1-.8.3-.2.2-.4.5-.4.8v.3l.4.5ZM142.4 99.5c-.7 5.4 4.3 9.2 8.7 11.1.6.2 1.2.2 1.6-.4.3-.5.1-1.3-.4-1.6-2-.9-4-2-5.6-3.6a6.4 6.4 0 0 1-2-5.5c0-.6-.6-1.1-1.2-1.1-.7 0-1 .5-1.1 1.1Z" class="cls-35"/><path fill="url(#linear-gradient-3)" d="M9.2 110c-1 0-1.2-.8-2-10.3-.1-2.9-.4-5.8-.6-7.7L5 80.6v-.4l.3-.2c.3 0 5.8-2.3 8.4-2.3 1.3 0 1.7.6 1.8 1 .3 1.5-1 6.1-2.5 11.5l-.8 3c-.4 1.2-.7 4.4-1 7.5-1 8.4-1.3 9.2-2 9.3h-.1Z"/><path d="M13.8 78.3c.7 0 1.2.2 1.2.6.4 1.8-2.5 11-3.3 14-.8 3.2-1.7 16.4-2.5 16.5-.9 0-1.4-12.4-2-17.4L5.6 80.5s5.7-2.2 8.2-2.2m0-1.1c-2.7 0-8 2-8.6 2.3l-.8.3.1.9L6 92c.3 1.9.5 4.8.7 7.6.8 9.6 1 10.8 2.5 10.8h.1c1.3-.1 1.5-1 2.5-9.7.3-3.1.7-6.3 1-7.5l.8-3a43 43 0 0 0 2.6-11.7c-.2-.5-.6-1.4-2.4-1.4Z" class="cls-24"/><path d="M13.8 79.5h.1a78 78 0 0 1-3.3 13.2c-.4 1.4-.7 4.5-1 7.8-.2.7-.2 1.5-.3 2.2a525.8 525.8 0 0 1-1-10.9L6.9 81.3c1.9-.7 5.3-1.8 7-1.8m0-1.2c-2.6 0-8.3 2.2-8.3 2.2L7.2 92c.6 5 1.1 17.4 2 17.4.8-.1 1.7-13.3 2.5-16.4.8-3.2 3.7-12.3 3.3-14.1 0-.4-.5-.6-1.2-.6Z" class="cls-18"/><path fill="url(#linear-gradient-4)" d="M60.9 120.4c-1.2 0-1.7-2-2.3-12.9l-.2-3.1c0-.6-.4-1.2-.7-1.8-.5-1-1-2-1-3 .2-1-.8-11.8-1.4-18.8v-.4l.3-.2c1.7-.6 4.3-.7 6.2-.7h3.4v.7s-.7 10.2-.8 14c-.1 2.2-.7 3.7-1.1 4.8-.4 1-.7 1.7-.6 2.7 0 .1.6 18.2-1.7 18.7h-.1Z"/><path d="m61.8 80 2.8.1s-.7 10.2-.8 14.1c-.1 4-1.9 5.2-1.7 7.5.2 2.3.2 17.8-1.2 18-1.4 0-1.7-14-2-15.4-.2-1.5-1.8-3.2-1.6-4.7.2-1.4-1.5-18.8-1.5-18.8 1.6-.6 4-.8 6-.8m0-1.1c-2.8 0-5 .2-6.4.8l-.8.3v.9c.7 6.6 1.7 17.5 1.6 18.6-.2 1.2.4 2.4 1 3.4.3.5.6 1.1.6 1.6l.3 3c.6 11.8 1.1 13.4 2.8 13.4h.2c1.1-.2 1.9-1 2.1-9.4.2-4.1.1-8.6 0-9.9 0-.8.2-1.5.6-2.4.5-1.2 1-2.7 1.1-5l.8-14V79l-1-.1-3-.1Z" class="cls-24"/><path d="M61.8 81.2h1.5l-.6 13c-.1 1.9-.6 3-1 4.2-.5 1-.9 2-.8 3.4.2 1.9.2 8.2 0 12.7l-.6-7c0-2-.1-3-.2-3.5-.1-.7-.5-1.5-.9-2.2-.4-.7-.8-1.5-.7-2 .1-1.4-1-14-1.4-18.2 1.1-.3 2.7-.4 4.7-.4m0-1.2c-2 0-4.4.2-6 .8 0 0 1.7 17.4 1.5 18.8-.2 1.5 1.4 3.2 1.7 4.7.2 1.4.5 15.5 1.9 15.5 1.4-.3 1.4-15.8 1.2-18.1-.2-2.3 1.6-3.6 1.7-7.5.1-3.9.8-14 .8-14s-1.2-.2-2.8-.2Z" class="cls-18"/><path d="M60 89.2c.1 1.4-.4 2.5-1.2 2.6-.8 0-1.6-1-1.7-2.4-.1-1.4.5-2.5 1.3-2.6.8 0 1.5 1 1.6 2.4Z" class="cls-18"/><path fill="url(#linear-gradient-5)" d="M34.7 121c-.3 0-.6-.2-.9-.4-.5-.6-1-1.8-1-7.2 0-4.5-.4-9-.5-10-1-.8-1.2-3.2-1.3-7 0-3.2-1-14-1.1-14v-.6h.5c.3-.1 7.2-1.1 11.7-1.1 3 0 3.6.4 3.9.9a107.4 107.4 0 0 0-1.5 12.8c-1.2 11-1.3 11.1-2 11.1h-.1c-1 0-1.2-1.4-1.3-5.7v-1L39.6 91c-.3 2.7-.7 6.3-.7 7.5.1 2.6-1.4 7.7-1.6 8.3l-.6 4.8c-1 8.2-1.2 9.1-2 9.2h-.1Z"/><path d="M42 81.2c2.3 0 3.9.3 3.6 1-1 2.4-2.5 22.7-3.2 22.7-.7 0-.7-4.4-.8-6.2-.1-1.7-2-11.2-2-11.2s-1.2 9-1.2 11.1c.1 2.2-1 6.5-1.5 8-.5 1.7-1.3 13.6-2.2 13.7-.9 0-1.3-1.7-1.3-6.9 0-5.3-.6-10.3-.6-10.3-1-.5-1.1-3.4-1.2-6.7 0-3.3-1.1-14.1-1.1-14.1s7.1-1 11.6-1m0-1.2c-4.5 0-11.5 1-11.8 1l-1 .2v1.1c0 .1 1.1 10.8 1.2 14 0 3.8.2 6.2 1.2 7.3.2 1.3.5 5.5.5 9.7 0 5.3.5 6.8 1.2 7.6a1.7 1.7 0 0 0 1.5.5c1.3-.2 1.5-1.2 2.5-9.7.2-2 .4-4.3.6-4.8.2-.6 1.7-5.7 1.6-8.4 0-.6 0-2 .3-3.7a50.3 50.3 0 0 1 .6 5c.1 4.1.3 6.1 1.9 6.2 1.3 0 1.4-1.2 1.8-4.3l.9-7.4a114 114 0 0 1 1.5-11.7c.2-.5.2-1-.1-1.5-.6-.8-1.8-1.1-4.4-1.1Z" class="cls-24"/><path d="m42 82.4 2.3.1c-.4 1.8-.9 5.8-1.5 11.6l-.3 2.7-1.7-9.5-1-4.8 2.3-.1m-2.9.1-.7 4.8c0 .4-1.3 9.2-1.2 11.4 0 1.8-1 5.8-1.5 7.7-.2.6-.4 2.3-.7 5.1l-.5 4.5v-2.6c0-5.3-.6-10.3-.6-10.5v-.6l-.6-.2c-.2-.3-.6-1.5-.6-5.7 0-2.7-.8-10.3-1-13.1 1.5-.2 4.6-.6 7.4-.8m2.9-1.3c-4.5 0-11.6 1.1-11.6 1.1s1 10.8 1.1 14.1c0 3.3.3 6.2 1.2 6.7 0 0 .6 5 .6 10.3 0 5.2.4 7 1.3 7 .9-.2 1.7-12 2.2-13.7.5-1.6 1.6-5.9 1.5-8 0-2.2 1.2-11.2 1.2-11.2s1.9 9.5 2 11.2c0 1.8 0 6.2.8 6.2.7 0 2.2-20.3 3.2-22.6.3-.8-1.3-1-3.5-1Z" class="cls-18"/><path d="M35.3 92.2c0 2-.8 3.5-1.7 3.5-.9 0-1.5-1.7-1.5-3.6 0-2 .8-3.6 1.7-3.6.9 0 1.5 1.7 1.5 3.7Z" class="cls-18"/><path stroke="#5b2307" stroke-linecap="round" stroke-linejoin="round" stroke-width="2.3" d="M108.3 62.3s.5-4.1-1.8-6.4"/><path fill="#ceb891" stroke="#5b2307" stroke-linecap="round" stroke-linejoin="round" stroke-width="2.3" d="M2.3 77.9s43.1 8.3 87.7-3.5L106.5 59 2.3 77.9Z"/><path fill="#d2001e" stroke="#5b2307" stroke-linecap="round" stroke-linejoin="round" stroke-width="2.3" d="M2.3 77.9S23 72.5 50.8 66.8C78.6 61 89.3 59 89.3 59l15.5-.1s-10.1 7.3-20 9.5-82.5 9.4-82.5 9.4Z"/><path fill="#ceb891" d="M92.8 61.7C65 61.7 2.8 50.5 2 50.4a1.1 1.1 0 0 1 .2-2.3H3c43.8 2 79.3 2 83.2 2h.4c.5 0 1 .3 1.1.8 2 6.7 15.5 7 17 7 .5 0 1 .3 1.2.8s0 1-.5 1.3c-2 1.1-6.1 1.7-12.4 1.7h-.2Z"/><path d="M2.3 49.2H3c43.7 2 79 2 83.2 2h.4c2.2 7.6 16.7 7.8 18.1 7.8h.1c-2 1-6.2 1.5-11.8 1.5h-.2c-28 0-90.5-11.3-90.5-11.3M2.3 47a2.3 2.3 0 0 0-.4 4.5c2.6.5 63 11.3 90.9 11.3h.2c6.5 0 10.6-.5 12.9-1.8a2.3 2.3 0 0 0-1.1-4.3c-5 0-14.6-1.3-16-6.1-.3-1-1.2-1.7-2.2-1.7h-.4a2099.4 2099.4 0 0 1-84-2Z" class="cls-1"/><path d="M104.8 59a29 29 0 0 1-12 1.5c-3.6-1.2-7.6-3.2-9.5-6.6 0 0-58.8-1.5-80.3-4.6 46.5 2 83.6 2 83.6 2C89 59 103.8 59 104.8 59Z" class="cls-18"/><path fill="#f2ebda" d="M71.6 157c-1.3 0-1.6 0-2-.2-1.3-1-30.8-40.2-43.4-57-.3-.4-.4-1 0-1.4 0 0 .8-1.4 2.2-2.9 2-2.3 4-3.8 5.8-4.6a1.2 1.2 0 0 1 .8 0c0-.4.3-.7.6-.9l3.7-2a1.2 1.2 0 0 1 .6-.2c.2 0 5.4.3 15.3 7.3a63.8 63.8 0 0 1 17.1 22.3l2-.2c1.6 0 3.1.4 4.4 1.3l3-2c9.9-6.1 34-21 46-25.5a70 70 0 0 1 22.7-4.9c.6.1 1 .6 1.1 1.1l6.2 63a1.2 1.2 0 0 1-1.1 1.3c-3 .2-74.4 5.6-85 5.6Z"/><path d="M149.4 87.3a12 12 0 0 1 .9 0l6.2 63s-74.2 5.5-85 5.5h-1.2C69 154.8 27 99 27 99l2.2-2.8a16 16 0 0 1 5.4-4.3l4.5 3.1-3-4 3.7-2s4.9.1 14.6 7c7.2 5.1 13.1 15.1 15.8 20l1.4 2.7s1.1-.4 2.6-.4c1.3 0 3 .4 4.3 1.6l3.7-2.4c9.4-5.9 33.9-21 45.9-25.5 12.4-4.3 19-4.8 21.2-4.8m0-2.4a71.1 71.1 0 0 0-22 5A372.1 372.1 0 0 0 78.6 117a9 9 0 0 0-5.7-1l-.6-1.2A65 65 0 0 0 56 94c-10-7-15.4-7.5-16-7.5-.5 0-.9 0-1.2.3l-3.7 2-.8.7-.4.2c-2.1.8-4.2 2.5-6.4 5a28 28 0 0 0-2.3 3c-.6.8-.5 2 0 2.7 42.2 56.2 43.4 57 43.8 57.3.7.5 1.5.5 2.7.5 10.7 0 82-5.4 85-5.6a2.4 2.4 0 0 0 2.3-2.7l-6.2-62.9c-.1-1.1-1-2-2.2-2.2h-1.1Z" class="cls-29"/><path fill="#c7b79f" d="M156.5 150.3s-84.9 6.3-86.2 5.5C69 154.8 27 99 27 99l2.2-2.8a315 315 0 0 1 22.4 10.9 61 61 0 0 1 15.7 12.7s2.4-1.2 2.9-3.9l1.4 2.8s4-1.4 6.9 1.2l3.7-2.4c.2.9.7 1.4 1.7 1.3 3.2-.6 33.5-18.4 45.5-20.3 12.1-1.8 18.2-2.9 18.2-2.9s1-4.7 2.2-8.4h.4l6.2 63Z"/><path fill="#f2ebda" stroke="#331404" stroke-linecap="round" stroke-linejoin="round" stroke-width="2.4" d="m147.3 99.2 1.5-7.6"/><path fill="#9e4e23" d="m91.7 198-8-.9c-.3 0-.6-.2-.8-.4l-1-1-.2-.3c-8.4-8.7-19.6-18-26-18a5.6 5.6 0 0 0-1 .1c-.5 0-1-.3-1.1-.8-.2-.6-17.3-55.9-28.8-78.6a1.2 1.2 0 0 1 1.6-1.7 155 155 0 0 1 43 29.8l8.2 1c4.2-2.8 41.8-26 68.7-28.4h.1c.6 0 1.2.4 1.3 1l11.6 69c.1.6-.3 1.2-1 1.4-.4 0-50.5 11.8-65.5 27.3l-.1.1a1.2 1.2 0 0 1-1 .4Z"/><path d="M26 97.5s14.1 6.2 29.7 18.3c4.3 3.4 8.8 7.3 13 11.6l9.1 1 .4-.2c4-2.5 41.5-25.7 68.2-28.2l2.3 13.2L158 169s-50.8 11.7-66.1 27.6l-.2.2-8-.9-1-1-.2-.3c-4.3-4.4-18.4-18.4-26.8-18.4l-1 .1s-17.2-55.7-28.9-78.8m0-2.4a2.4 2.4 0 0 0-2.2 3.6c11.5 22.6 28.5 77.8 28.7 78.3a2.4 2.4 0 0 0 2.7 1.7h.7c6 0 17.2 9.5 25 17.6l.1.1.2.2 1 1c.3.4.9.7 1.5.7l8 .9a2.4 2.4 0 0 0 2-.9c14.8-15.2 64.6-26.8 65-27 1.3-.2 2.1-1.4 2-2.7l-9.5-55.8-2.2-13.2a2.4 2.4 0 0 0-2.7-2c-26.6 2.4-63.2 24.7-69 28.3L70 125a153.2 153.2 0 0 0-44-30Z" class="cls-29"/><path fill="#403129" d="m92 196.6-.2.2-8-.9-1.2-1.3L69 127.4l8.9 1 .3-.2L92 196.6Z"/><path d="M80.3 181.7s2.3 2.4 8.7 0l1.3 6.4s-3.6 3-8.5.5M72.4 142.1s2.3 2.1 8.5-.8l1.3 6.2s-3.6 3.2-8.3 1.2" class="cls-30"/><path fill="#a36731" stroke="#331404" stroke-linecap="round" stroke-linejoin="round" stroke-width="1.1" d="m68.5 126.1 14.7 69.7"/><path stroke="#331404" stroke-linecap="round" stroke-linejoin="round" stroke-width="1.1" d="m78 127.1 14.2 70.7"/><path d="M83 137.6s6.4-1 4.2-9.7c0 0 26-19.1 50.7-20.5 0 0 1.6 6.5 7.9 6.5l6.8 45.7s-6-.3-5.7 8c0 0-30.3 7.1-42 16 0 0-5-6.5-11.4-1.4l-10.4-44.6Z" class="cls-30"/><path d="m82.9 194.9-.3-.3C78 190 63 175 54.7 176.3c0 0 7.5-9.1 9.4-23.8 1.8-13.7-7.2-34-8.4-36.7 4.3 3.4 8.8 7.3 13 11.6l1.3.1L83 195ZM158.1 169s-50.8 11.7-66.1 27.6l-.2.2-5.6-.6c3-10.9 10.5-32 25.4-49.2 16.7-19.2 31-30.5 37-33.8l9.5 55.8Z" class="cls-41"/><path d="M157.4 99.7s-9 1.3-16.8 9.3c-7.7 8 2.9 10 2.9 10s-4.6 7.7 6.2 8.3c0 0-1.6 6.4 10.8 1.8 12.5-4.6 23.2-14.2 21.3-31.6M28.6 110.4s3.6.7 6.8 3.6c3.2 3 1.2 4.4 1.2 4.4s5.3 6.2 2.3 8.7c0 0 4 5.2 1.2 7.6-3 2.5-9.6-2.4-8.3-7 0 0-3.9-4.4-2.7-8.6 0 0-5-6.5-.5-8.7Z" class="cls-3"/><path d="M158 198c-3 0-6-1.1-7.5-2-9.7-6.8-21-27.7-19-35.1.7-2.5 2.2-2.9 3-2.9 2.7 0 6.3 5 9.1 10-1-8.3-1.7-19.4 2-21.8.5-.2 1-.4 1.5-.4 3.8 0 6.5 7.7 10.9 23.9l.4 1.3c.7-4.6 2.2-9.3 5.3-9.3.4 0 1 .2 1.4.4 5.4 2.6 3.1 22 1.3 29.3-1 4.2-4 6.6-8.5 6.6Z" class="cls-36"/><path d="M147.1 147.2c4.7 0 10 25.8 12 30.7 0 0 .6-14.8 4.6-14.8.2 0 .5 0 .8.2 3.9 1.9 2.9 18.7.6 27.8-1 4.2-4 5.5-7.2 5.5-2.6 0-5.2-.9-6.7-1.8-9-6.2-20.2-26.7-18.3-33.6.3-1.3.9-1.8 1.6-1.8 3.8 0 11.7 16.4 11.7 16.4s-4.7-25.4.2-28.4c.2-.2.5-.2.7-.2m0-2.7a4 4 0 0 0-2.1.6c-2.2 1.4-4.3 4.5-3.2 17.5-3.6-5-5.6-5.9-7.3-5.9-1 0-3.3.4-4.2 3.8-2.3 8.6 10 30 19.3 36.5h.2c1.8 1.2 4.9 2.3 8.1 2.3 5 0 8.6-2.8 9.8-7.6 1.1-4.4 5.1-27.4-2-30.8-.7-.3-1.4-.5-2-.5-3 0-4.5 2.6-5.4 5.2-4.2-14.8-6.8-21.1-11.2-21.1Z" class="cls-28"/><path d="M143.3 153s4.8 6.1 10.5 2M144 167.2s7 4.5 13.5.6M133.1 170s6.5 4.8 9.2-4.4" class="cls-6"/><path stroke="#4c1a09" stroke-linecap="round" stroke-linejoin="round" stroke-width="1.2" d="M159 169.8s4.2 6 9.5 2.4"/><path d="M140.2 183.9s4.8-1.2 5.7-4.3c0 0 9 8.7 13-.6 0 0 5.2 5.7 9.4 2.8" class="cls-6"/></g></g></g></svg>