<svg xmlns="http://www.w3.org/2000/svg" xmlns:xlink="http://www.w3.org/1999/xlink" id="Layer_2" data-name="Layer 2" viewBox="0 0 227.4 199"><defs><linearGradient id="linear-gradient" x1="139.9" x2="139.9" y1="4.9" y2="23" gradientUnits="userSpaceOnUse"><stop offset="0" stop-color="#dbffff"/><stop offset="1" stop-color="#339ed3"/></linearGradient><linearGradient xlink:href="#linear-gradient" id="linear-gradient-2" x1="145.7" x2="145.7" y1="179.2" y2="115.2"/><linearGradient id="linear-gradient-3" x1="31.6" x2="31.6" y1="265.5" y2="225.2" gradientTransform="rotate(15 647 61)" gradientUnits="userSpaceOnUse"><stop offset="0" stop-color="#dbffff"/><stop offset="1" stop-color="#1376a6"/></linearGradient><linearGradient xlink:href="#linear-gradient-3" id="linear-gradient-4" x1="65.8" x2="65.8" y1="208.2" y2="168.2" gradientTransform="rotate(9 680.6 70)"/><linearGradient xlink:href="#linear-gradient-3" id="linear-gradient-5" x1="60" x2="60" y1="269.4" y2="229.4" gradientTransform="rotate(15 651.7 59)"/><style>.cls-1{fill:#5b2307}.cls-2{fill:#1d334a}.cls-4{fill:#fff}.cls-7{fill:#f5f9f5}.cls-8{fill:#3c7bd6}.cls-9{stroke:#4c1a09;stroke-width:1.1478px;stroke-linecap:round;stroke-linejoin:round;fill:none}.cls-14{fill:#b7eae8}.cls-15{fill:#4c1a09}.cls-18{fill:#b1f2fe}.cls-20{fill:#14ff7a}.cls-21{fill:#703c16}.cls-22{fill:#755b46}.cls-25{fill:#304963}</style></defs><g id="Layer_1-2" data-name="Layer 1"><path d="M97.9 190c-.9 0-1.6-.5-1.8-1.4-.4-1.6 1.2-4.2 3-6.5a704.4 704.4 0 0 0-14.8 7 5 5 0 0 1-2 .4c-1.5 0-2.7-.8-3.2-2.1-.6-1.4 0-3 1.3-4.3 1-1 4.2-2.8 7.8-4.8-5.5 0-8-.8-8.2-2.6-.2-2 2.3-3.3 4.8-3.9a151.6 151.6 0 0 1 23.4-2.6c9.7 0 10.3 2.1 10.6 2.8.7 2.4-2.7 4.8-6.7 7.7l-3 2.2a88 88 0 0 0-2.8 2.4c-4 3.4-6.6 5.7-8.4 5.7Z" class="cls-22"/><path d="M108.2 170.3c5 0 9 .7 9.5 2 .6 2.2-6 6-9.4 8.7-3 2.4-8.4 7.9-10.4 7.9-.3 0-.6-.2-.7-.6-.6-2.5 6.6-9.6 6.6-9.6-4.8 2-16.7 8-20 9.3a4 4 0 0 1-1.5.3c-2.2 0-3.2-2.5-1.2-4.3 2.5-2.2 16.2-9.4 16.1-9.4l-7.4 2.5h-1.5c-10.6 0-7.4-3-3.2-4.2 4.4-1.1 15.9-2.2 15.9-2.2 2.4-.3 4.9-.4 7.2-.4m0-2.3a152 152 0 0 0-23.7 2.7c-3.8 1-6 2.9-5.6 5.1.2 2.2 2.4 3.1 5.3 3.4a34.7 34.7 0 0 0-4.6 3c-1.7 1.6-2.3 3.7-1.6 5.6a4.5 4.5 0 0 0 4.3 2.8c.8 0 1.6-.1 2.4-.5l8-3.7 3.1-1.5c-.7 1.5-1.1 2.9-.8 4a3 3 0 0 0 2.9 2.3c2.1 0 4.5-2 9.2-6l2.7-2.4 3-2.2c4.5-3.2 8-5.8 7-8.9-.5-1.7-2.3-3.7-11.6-3.7Z" class="cls-15"/><path d="M84.7 180.4s4.2 1.2 3.8 6.3M91.6 177s6.1-1 5.9 5.2M87.3 171.6s3 1.6 1.6 6.2M100.1 181.3s4.2-1.1 5.8 3.5M95 170.3c.2.4 3.1.3 3.5 3.7 0 0 5.2-1.3 6.4 3.3 0 0 5.3-1.4 6.3 2.7" class="cls-9"/><path d="M141 197.9c-2 0-2.5-1.3-2.7-1.8-1-3.5 4.8-8.6 9.4-12l-3.8.7c-3 .6-6.1 1.2-7.7 1.2-.4 0-1.6 0-2-1.1-.2-1.2 1-2 2.2-2.7 6.4-3.7 21.3-6.7 22.8-7a83 83 0 0 1 19.8-5.7c1.5 0 2.5.3 3 1.1.3.5.6 1.3 0 2.6-2.4 5.5-12.4 21.5-18 21.5a3 3 0 0 1-.7 0 2.8 2.8 0 0 1-2.1-2c-.5-1.6.4-4 1.5-6l-1.9 1.2c-8.7 5.4-16.2 10-19.9 10Z" class="cls-22"/><path d="M179 170.6c1.8 0 2.7.6 2 2.1-2.7 6-12.4 20.9-17 20.9h-.4c-4.4-1.2 2.8-10.4 2.8-10.4-3.7 1.7-20.3 13.5-25.5 13.5-.8 0-1.3-.3-1.4-.9-1.3-4.7 14-14.3 14-14.3l-4.2 1.2c-3 .3-10.5 2.1-13 2.1-1.3 0-1.4-.4.7-1.6 6.5-3.7 22.5-7 22.5-7s14-5.6 19.5-5.6m0-2.3a81 81 0 0 0-20.1 5.8c-2 .4-16.7 3.4-23 7.1-1.2.7-3.3 1.9-2.7 4 .1.7.8 2 3 2 1.6 0 4.3-.6 7.2-1.2-5 4.3-7 7.6-6.2 10.4.5 1.6 1.9 2.6 3.7 2.6 3.8 0 10.7-4 19.3-9.4a6 6 0 0 0 0 3.5 4 4 0 0 0 2.8 2.6l1 .2c6.9 0 17.4-18.3 19.1-22.3.8-1.7.4-2.9-.1-3.6-.7-1.1-2-1.7-4-1.7Z" class="cls-15"/><path d="M140.8 190.5s6.5-1.1 7.7 4.7M146.4 184.9s11-2.7 11.9 4.5M141.6 180s2.3 1.7.8 4.9M161.8 188.2s5.7-4.4 10.6-.5M152.4 178s2.7-.7 3.5 2c0 0 8.2-2.6 11.9 1.2 0 0 7-4.7 10.5-1.3" class="cls-9"/><path d="M111.4 175.8a21 21 0 0 1-7.5-1.3c-12.3-4.7-12.9-17.9-12.9-18 0-.6.4-1 1-1.2 1.4-.2 2.9-.3 4.4-.3 15.6 0 31.8 12.6 32.5 13.2a1.1 1.1 0 0 1 0 1.8c-.4.2-8.1 5.8-17.5 5.8Z" class="cls-14"/><path d="M96.4 156.1c15.4 0 31.8 13 31.8 13s-7.7 5.5-16.8 5.5a20 20 0 0 1-7-1.2c-11.8-4.5-12.2-17-12.2-17 1.3-.2 2.8-.3 4.2-.3m0-2.3c-1.6 0-3.2.1-4.6.4-1.2.2-2 1.2-2 2.3 0 .6.7 14.1 13.7 19 2.5 1 5.2 1.4 8 1.4 9.6 0 17.7-5.7 18-6a2.3 2.3 0 0 0 0-3.6c-.6-.6-17-13.5-33.1-13.5Z" class="cls-8"/><path fill="#a36731" d="M144.5 172c-2.3 0-4.6-.2-7-.4-45.4-4.3-64.5-28.8-66.2-44.2a51 51 0 0 1 4.4-27.2c0-1.5.2-8.7 0-10.7a21.9 21.9 0 0 0-2-5.5 76.2 76.2 0 0 1-1.3-36.7l.2-1 .4-1.1.5-1.7.3-1a40 40 0 0 1 1.5-3.6v-.1l.1-.1a451.3 451.3 0 0 1 1.6-3.1 64.5 64.5 0 0 1 15-17.7c-2.2-.5-4.2-1.5-4.5-3.1-.2-1 .2-2.6 3.2-3.8 2-.8 4.4-1.2 6.7-1.5-1.7-.7-3-1.6-3.2-2.6-.2-.7 0-1.8 1.5-2.7a8 8 0 0 1 4.3-1c3 0 6.3 1 8.9 2-.5-1-.8-2-.6-2.8.3-.7.8-1.1 1.6-1.2h.5c2.6 0 6.3 3.5 7.6 5l2.3-.1c36 0 51.6 22.5 58.4 41.4 4.3 12 13.4 17.6 24 24a55.2 55.2 0 0 1 18.6 20c.3.7 0 1.2 0 1.4-.3.3-.7.7-1.5.7h-.2a37 37 0 0 1 3.2 13.5c0 1-.7 1.6-1.6 1.6l-.7-.1c1.9 6 1.2 13.7-.4 15.2a83.7 83.7 0 0 0-7 12c0 .2 0 .8-2.6 3.7a102.8 102.8 0 0 1-39.5 27.6l-1.7.6a193.8 193.8 0 0 1-5 1.5 81.7 81.7 0 0 1-13.4 2.5h-1l-1.4.1h-1.1l-1.2.1h-1.7Z"/><path d="M110.4 2.3c2.5 0 7.1 5 7.1 5h2.8c40 0 53 28.6 57.3 40.5 4.4 12.3 13.6 18 24.5 24.7a54.3 54.3 0 0 1 18.2 19.3c.1.5 0 .6-.5.6-1 0-3-1-3-1 4 4.6 4.8 14.4 4.8 15.7 0 .3-.1.4-.4.4-.9 0-3-1.5-3-1.5 3.2 5.7 2.5 15.7 1.1 17-1.3 1.4-7 11.5-7.3 12.6 0 .2-.8 1.4-2.3 3.2a101.8 101.8 0 0 1-27.5 22l-1.4.6a90 90 0 0 1-10.2 4.6l-1.7.6-1.5.5a106 106 0 0 1-9.9 2.5l-5.4.8-1.3.1h-1l-1.3.2h-1.2a54.2 54.2 0 0 1-9.7-.2c-44.2-4.2-63.5-28-65.2-43.3a50 50 0 0 1 4.4-26.7s.2-8.9 0-11c-.2-2.3-2-5.9-2-5.9 0-.3-4.7-13.2-1.8-33a34.7 34.7 0 0 1 1-5l.6-1.8.3-.9a39 39 0 0 1 1.5-3.7l.8-1.5v-.1L78 36c6.6-11.8 17-19 17-19-5.8-.2-9-3-3.9-5a40.1 40.1 0 0 1 14.8-1.8s-14.6-2-9.6-5.1a7 7 0 0 1 3.7-.9c5.4 0 12.4 3.8 12.4 3.8s-4.8-5.4-2.3-5.8h.3m0-2.3a4 4 0 0 0-.7 0 3 3 0 0 0-2.4 2c-.1.2-.3.7-.2 1.3-2.3-.7-4.8-1.3-7.1-1.3-2 0-3.6.4-4.9 1.2-2.2 1.4-2.2 3-2 3.9 0 .4.2 1 1 1.8a21 21 0 0 0-3.8 1c-4 1.7-4.2 3.9-4 5 .3 1.5 1.5 2.7 3.4 3.5a65 65 0 0 0-15.4 20 41.6 41.6 0 0 0-1.8 4.3v.4h-.1l-.5 1.8a24.5 24.5 0 0 0-.6 2.2 77.4 77.4 0 0 0 1.6 37.6c.5 1.2 1.5 3.6 1.6 5 .2 1.5 0 7.5 0 10.2-1.2 2.4-6 13.4-4.4 27.6 1.8 15.8 21.2 40.9 67.3 45.3a75.7 75.7 0 0 0 10 .2h.6a45 45 0 0 0 4.4-.3 79.5 79.5 0 0 0 17.3-4l.6-.1 1-.4a50.8 50.8 0 0 0 3.2-1.2 92.7 92.7 0 0 0 15.7-8.4 104 104 0 0 0 21.2-18.3c2.5-3 2.8-3.7 2.9-4.2.5-1.5 5.6-10.3 6.6-11.5 1.8-1.8 2.6-8.8 1.1-14.9a2.6 2.6 0 0 0 2-2.6s-.3-7-2.8-12.7c.5-.2.8-.6 1-.8.5-.7.6-1.7.2-2.6a55.8 55.8 0 0 0-19.1-20.4c-10.4-6.4-19.3-12-23.5-23.5A59.8 59.8 0 0 0 118.5 5c-1.9-2-5.3-5-8.1-5Z" class="cls-1"/><path fill="#8e5424" d="M221.6 107.1c0 1.4-3.4-1.1-3.4-1.1 3.2 5.7 2.5 15.7 1.1 17-1.3 1.4-7 11.5-7.3 12.6 0 .2-.8 1.4-2.3 3.2l-.5.5-.5.5-.1.2-.8.9c-1.7 1.8-4 4-6.6 6.3l-1.5 1.4a111 111 0 0 1-5.5 4.4l-1.4 1-2.2 1.6-1.7 1.1a44.8 44.8 0 0 1-4 2.5l-2.6 1.5h-.1l-1.4.7-1.7 1a50 50 0 0 1-7 3l-1.5.6-1.7.6-1.5.5a106 106 0 0 1-7.2 2 21.4 21.4 0 0 1-2.7.5l-1.3.2-1.3.2a61.4 61.4 0 0 1-3.8.5h-1.3l-1.3.2H146c-2.7.1-5.5 0-8.4-.2-44.2-4.2-63.5-28-65.2-43.3-.5-4.3-.3-8.3.1-11.9v-.6l.2-.6c1.2-8 3.9-13.2 4.1-13.6s.2-8.9 0-11c-.1-1.5-.9-3.5-1.4-4.7 2.8 2.5 5.6 3.8 5.6 3.8s-1.9 3.8-2.8 7.3c-.8 3.4 7.3-1.7 7.3-1.7s-1.8 4.7-.7 11c1.2 6.4 10.9-6.6 10.9-6.6s1.4 1 2.6 8.4c1.3 7.2 14.5 11.4 24.4 13.3a154 154 0 0 0 41.1 0c8.4-1.8 6.5-8.7 6.4-9.2.1.3 2.1 3.7 8.6 0 6.7-3.9 2.4-15.2 2.4-15.2l12.6 6.7s7 5.8 7.7-9.4v-1.1c0-14.1-13-28.7-14.3-30 4.3 3.9 9.4 7 14.9 10.4a54.3 54.3 0 0 1 18.2 19.3c.5 1.6-3.5-.3-3.5-.3 4 4.5 4.8 14.3 4.8 15.6Z"/><path fill="#bd852d" d="m209.7 138.8-.5.5-.5.5-.1.2-.8.9a99.1 99.1 0 0 1-13.6 12.1l-1.4 1-2.2 1.6-1.7 1.1a44.8 44.8 0 0 1-4 2.5l-2.6 1.5h-.1l-1.4.7-1.7 1a50 50 0 0 1-7 3l-1.5.6-1.7.6-1.5.5a106 106 0 0 1-7.2 2 21.4 21.4 0 0 1-2.7.5l-1.3.2-1.3.2a61.4 61.4 0 0 1-3.8.5h-1.3l-1.3.2H146c-2.7.1-5.5 0-8.4-.2-44.2-4.2-63.5-28-65.2-43.3-.5-4.3-.3-8.3.1-11.9v-.6l.2-.6c1.2-8 3.9-13.2 4.1-13.6s.2-8.9 0-11a19.5 19.5 0 0 0-2-5.9c0-.3-4.7-13.2-1.8-33a34.7 34.7 0 0 1 1-5l.6-1.8.3-.9a47.7 47.7 0 0 1 1.5-3.7l.8-1.5v-.1L78 36c0 .2-1.5 4.3 2 5 3.7.8 13 .8 13.8-.5.8-1.4 10.4-20.3 29.7-22.8 19.3-2.5 44.2 12 38.6 36-5.5 24-20.8 18.5-25.6 38-3 11.9 10.2 22 25.5 28.9 10 4.4 21 7.4 29 8.4a27 27 0 0 1 18.7 9.7Z"/><path d="M161 69c.6 1.6 1.2 3.3 2.2 4.8 1 1.6 2.5 2.8 4 4 .6.3 1.3 0 1.6-.5.4-.6.2-1.2-.4-1.6a12.7 12.7 0 0 1-3.3-3.2c-.4-.6-.8-1.3-1-2 0 0-.2-.3-.2-.1.1 0 0-.2 0-.2a24.7 24.7 0 0 1-.7-1.8c-.2-.6-.8-1-1.4-.8-.6.1-1 .8-.8 1.4ZM169.3 68.4c1.8 1.7 3.7 3.6 6 4.7.5.3 1.3.2 1.6-.4.3-.5.1-1.3-.4-1.6a13.4 13.4 0 0 1-2.1-1.3s-.3-.2 0 0a19.2 19.2 0 0 1-1-.8c-.9-.7-1.7-1.5-2.4-2.3-.5-.4-1.2-.4-1.7 0-.4.5-.4 1.2 0 1.7ZM205 84.4a24 24 0 0 1 8.8 18.7c0 1.5 2.3 1.5 2.3 0 0-7.8-3.4-15.3-9.6-20.3-1-1-2.7.7-1.6 1.6ZM204 96.7c1 .9 1.8 2 2.2 3.2a7 7 0 0 1 .1 3.9c-.1.6.2 1.2.9 1.4.5.1 1.2-.2 1.4-.8.8-3.5-.3-7-3-9.4-.5-.4-1.2-.4-1.6 0-.4.5-.5 1.3 0 1.7ZM176 66.8l2 1.7c.2.3.5.4.8.4.2 0 .6-.1.8-.4.2-.2.3-.5.3-.8 0-.3-.1-.6-.3-.8l-2-1.7c-.1-.2-.5-.3-.8-.3-.2 0-.6 0-.8.3-.2.2-.3.5-.3.8 0 .3.1.6.3.8ZM145.3 97.4c-.4 5.6 5 9 9.6 10.7.6.2 1.3-.3 1.4-.8.2-.7-.2-1.2-.8-1.5-1.9-.7-4-1.7-5.5-3.1-1.6-1.5-2.6-3.2-2.4-5.3 0-.6-.6-1.2-1.2-1.2s-1 .6-1.1 1.2Z" class="cls-21"/><path fill="none" stroke="#5b2307" stroke-linecap="round" stroke-linejoin="round" stroke-width="2.3" d="M109 62.5s.1-4.1-2.2-6.2"/><path fill="url(#linear-gradient)" d="m145 25.6-.6-.1c-2.4-.5-3.8-3-4.8-4.9l-.8-1.4-.4-.4c-1-1.5-2.1-3.2-5.1-4a94.4 94.4 0 0 0-5.8-.3l-2.3.1c-2 0-4 0-5.3-1-1.3-.7-2-2-1.9-3.5 0-1.6 1-3.3 2-3.8a23.7 23.7 0 0 1 16.5 0c.8.4 3.8.7 6.2 1l5.7.8c3.6.8 7.7 5 9.8 7.1l.4.4.6.6c1.5 1.5 2.7 2.7 2.6 4 0 .4-.1 1-.8 1.4-.5.4-1.1.6-2 .6-1.5 0-3.6-.8-4.8-1.7-.4-.3-2.2-.6-5.3-.7a7 7 0 0 1-1.3 4.5c-.6.8-1.5 1.3-2.5 1.3Z"/><path d="M127.7 5.9c3.8 0 7.3.8 8.3 1.4 1.7.9 8.7 1.1 12.2 2 3.5.7 7.7 5.2 9.5 7 1.9 1.9 3.8 3.5 2.6 4.4a2 2 0 0 1-1.2.4c-1.4 0-3.2-.8-4.2-1.5-1.1-.9-5-1-6.6-1h-.6c.4 2.6-.4 5.8-2.6 5.8h-.5c-2.5-.6-3.8-4.3-5-5.9-1-1.5-2.3-3.8-6-4.7-1.1-.3-2.5-.4-4-.4h-4.4c-2 0-3.7 0-4.7-.7-2.5-1.5-1-4.9.1-5.4 2-1 4.6-1.4 7-1.4m0-2.3c-3.1 0-5.9.6-8 1.6C118 6 117 8 116.9 10a5 5 0 0 0 2.3 4.7c1.6 1 3.9 1 6 1h4.5c1 0 2.3 0 3.3.3 2.6.6 3.5 2 4.5 3.4l.3.5.8 1.2c1 2.1 2.6 5 5.5 5.5l1 .1c1.3 0 2.5-.6 3.4-1.6.9-1 1.4-2.5 1.5-4.1 2 0 3.2.3 3.6.5 1.3.9 3.6 1.9 5.5 1.9 1 0 2-.3 2.6-.8.8-.6 1.2-1.4 1.3-2.3 0-1.9-1.3-3.3-3-4.9l-.6-.6-.4-.4c-2.2-2.3-6.4-6.5-10.3-7.4-1.6-.4-3.8-.6-6-.9-2-.2-5-.5-5.6-.8-1.5-.9-5.4-1.7-9.4-1.7Z" class="cls-8"/><path d="M130.1 7.7c4.9 1.5 8.2 2.9 11.4 2.7 3.1-.1 19.3 8.3 18 10.6.3 0 .6 0 .8-.3 1.2-.9-.7-2.5-2.6-4.3-1.8-1.9-6-6.4-9.5-7.2-3.5-.8-10.5-1-12.2-2-1.7-.8-10.2-2.5-15.4 0-.4.3-.9.9-1.2 1.6 1.3-.6 6.4-2.4 10.7-1Z" class="cls-4"/><path d="m145.6 158.9-3.4-.1C115 157 87.6 144 75.6 132.6l-2.3-2.3c-1-1.3-2-2.5-2.6-3.7-2.4-4.7-3.2-11-3.5-15.3a74.7 74.7 0 0 1 .4-13.4 33 33 0 0 1 4.9-15.1 1.1 1.1 0 0 1 2 .1c0 .3 4 7.5 17 8.5.3 0 .7.3.9.7l1.4 3.2 2.2-2.7a1.1 1.1 0 0 1 1.1-.4s4.7.7 11.7.7a96 96 0 0 0 41.5-8.8c27-13.2 34-25.2 34.2-25.3a1.2 1.2 0 0 1 1.3-.5 63.4 63.4 0 0 1 10.6 5.3A73 73 0 0 1 217.6 83c12.8 18 9 35.4 4 40.7-.7.9-2.2 2.2-4.1 3.8-4 3.2-39.3 31.5-71.9 31.5Z" class="cls-25"/><path d="M185.4 59.4s3.5 1.2 8.5 4l2 1.2c6.3 3.9 14.4 10 20.8 19 12.4 17.4 8.7 34.2 4 39.3-.6.7-2 2-4 3.6-11.5 9.5-43.1 31.3-71.1 31.3-1.1 0-2.3 0-3.4-.2-28-1.8-54.6-15.2-65.8-25.8-.8-.8-1.6-1.5-2.2-2.3-1-1.2-1.9-2.4-2.4-3.4a39 39 0 0 1-3.5-15 73 73 0 0 1 .4-13c.8-6.2 2.4-11.7 4.7-14.6 0 0 4.1 8 18 9l2.1 4.9 3.4-4s4.7.7 12 .7c10.5 0 26.7-1.5 42-9 27.6-13.5 34.5-25.7 34.5-25.7m0-2.3c-.8 0-1.5.4-2 1.1 0 .2-7.2 12-33.6 24.9A94.8 94.8 0 0 1 97 91c-.6 0-1.3.3-1.7.8l-1 1.2-.8-1.5c-.3-.8-1-1.3-1.9-1.3-12.4-1-16-7.8-16-7.9a2.3 2.3 0 0 0-4-.3 35.9 35.9 0 0 0-5.3 18.2c-.3 3.6-.4 7.4-.2 11 .3 4.6 1.2 11 3.7 15.8.7 1.3 1.6 2.6 2.8 4a96 96 0 0 0 29.6 19 125.7 125.7 0 0 0 43.5 10c33 0 68.6-28.6 72.6-31.8 2-1.6 3.5-3 4.3-3.9 5.1-5.6 9.2-23.7-4-42.1a74.2 74.2 0 0 0-33-25.2Z"/><path d="M217 126c0 .2-.2.3-.3.5-12 9.8-45.7 33-74.5 31.1-28-1.8-54.6-15.2-65.8-25.8-.8-.8-1.6-1.5-2.2-2.3-1-1.2-1.9-2.4-2.4-3.4a39 39 0 0 1-3.5-15c1-.9 2.4-1.4 4-1 5.8 1.4 14.2 14.1 20 13.6 5.8-.6 5.6-10.2 12.6-6.9 6.9 3.3 20.4 12.3 21.6 12.3 1.1 0 2.2-5.8 6.5-6.4s3.7 1.3 7.4 2.8c3.7 1.5 26.2 5.4 36.7-6 10.4-11.5 24.4-29.8 26.3-45.4 0 0 17.5 15 18.4 27.6 1 12.6 2.5 13.4-4.7 24.3Z" class="cls-2"/><path d="M195.8 64.6a71 71 0 0 1-29.3 30.8c-18.2 9.6-32.8 11.3-39 12l-3 .4c-1 3-.1 24.9 1.2 35.8 0 .6-.4 1.2-1 1.3h-.1c-.6 0-1.1-.5-1.2-1-.6-5.3-1.2-14.4-1.5-22.1-.5-14.8.6-15.5 1.2-15.9.6-.4 1.5-.5 4-.8 6.2-.7 20.5-2.4 38.4-11.7a68.5 68.5 0 0 0 28.4-30l2 1.2ZM77.4 102.8a3961.7 3961.7 0 0 1-1.1 32c0 .6-.5 1.1-1.1 1.1-.7 0-1.2-.5-1.2-1.2l.2-5.2.9-26.2-2-.8-4.6-2 .2-2.4c1.9 1 3.7 1.7 5.2 2.2 2.5 1 3.5 1.4 3.5 2.5Z" class="cls-7"/><path fill="none" stroke="#000" stroke-linecap="round" stroke-linejoin="round" stroke-width="2.3" d="M94 94.8s-7 21.1-.6 47.7"/><path d="M162.2 178.7c-5.9 0-8.4-2.2-9.4-3.5h-4.4c-9 0-26.6-1-43-7.7C87 159.8 83 155 80.7 152.2l-1.4-1.4c-2-1.8-2.7-4.2-3.2-5.8l-.3-1-.2-.3c-4.7-4.3-7-8.7-6.9-13.2v-3.7c-.1-5-.2-10.2 2-12.5.8-.8 1.8-1.2 3-1.2a6 6 0 0 1 1.7.3c.5.1.8.6.8 1.1 0 1.5.2 5.6 2.4 7.2 3 2.2 11.2 7.1 15.3 7.1h.4c3.4-.3 3.4-1.3 3.4-2.7 0-1.9.8-6.8 4.6-7.7l1.2-.2c2.6 0 3.5 2.2 4 3v.3l1 .5c1.4.7 3.7 1.7 5.6 4 2.3 2.6 8 6.6 11.3 8 1.8.9 2.8 1 3.3 1h.4l.3-2.4c.3-4 .6-5.3 1.4-5.8l.8-.6c1.1-.8 1.8-1.3 2.5-1.3h.4c.5.2.9.4 2.6 4.4a6.3 6.3 0 0 1 5.5-.4c4 1.5 9 3.2 10.5 3.2h1.2c1.8 0 11.5.3 13 1 2.1 1 3.8 1.8 4.5 2l.1-.2c2-2.9 4.2-5.8 6.5-6.4l3-.6c.7-2.6 1.4-6.6.9-8-1-2.9-2.2-6.7.5-9 .8-.6 1.6-1 2.5-1 2.5 0 5.1 2.5 6.7 4.8 2.1 3 3.3 4.6 2.6 6.4-.2.7-.4 3.3-.5 5.4a26.3 26.3 0 0 0 10.4 0c-.1-1.7.1-4.6 2.4-5.5 1.7-.6 3.2-.7 4-.7 1 0 1.7.1 2 .4.2 0 .4.2.6.4-.7-7.6.4-8.1.9-8.4l1.2-.3c1.3 0 2.7.8 4.3 2.2 1.4 1.3 3.2 4.5 2.8 6.4-.3 1.7-2.5 5.4-4.2 7.7a13.8 13.8 0 0 0-2.4 7.9c0 2.1-2.5 4.2-4.6 5.8l-1.7 1.5c-.1.3-18.2 26.5-34.5 32.2a41 41 0 0 1-13.1 2.6Zm-56.6-51.2c-.9 0-1.7.6-1.7 2 0 2.8 1.1 9.5 4 9.5h.3c1.3-.2 2.4-1.3 2.8-2.8.6-2.3-.3-5.6-4.3-8.3a2 2 0 0 0-1.1-.4Z" class="cls-14"/><path d="M185.3 111.1c2 0 4.3 2 5.8 4.2 2 2.9 2.9 4.2 2.4 5.5-.4 1.3-.5 6.6-.5 6.6s2.4.7 6.2.7c1.9 0 4-.2 6.5-.7 0 0-.7-4.5 1.6-5.3 1.3-.5 2.6-.7 3.6-.7l1.4.2 2.6 2s-1.1-9.3 0-9.9l.7-.1c1.1 0 2.4.8 3.5 1.9 1.4 1.3 2.8 4 2.5 5.3-.2 1.3-2.1 4.7-4 7.2-2 2.5-2.7 6.1-2.7 8.6s-5.1 5.4-6 6.7c-.9 1.3-18.4 26.3-34 31.7a39.4 39.4 0 0 1-12.7 2.6c-5.9 0-8.2-2.4-8.8-3.6l-5 .1c-8.4 0-26.2-.9-42.5-7.7-22.4-9.3-23.1-14.2-25.8-16.5-2.8-2.3-2.8-6-3.5-6.7-.7-.8-6.9-6-6.7-12.7.1-6.2-1.2-16.3 3.7-16.3.4 0 1 .1 1.4.3 0 0-.3 5.8 2.9 8.1 3 2.2 11.4 7.4 16 7.4h.5c4.4-.5 4.4-2.3 4.4-4 0-1.5.8-5.8 3.8-6.5a4 4 0 0 1 1-.1c2.1 0 2.6 2.2 3 2.8.4.7 4 1.4 6.6 4.5 2.6 3 8.6 7 11.8 8.4 1.5.7 2.8 1.1 3.7 1.1s1.4-.4 1.6-1c.3-1.5.4-7 1.1-7.4.7-.4 2.2-1.7 2.7-1.7.5.1 2.5 5 2.5 5s1.4-1.5 3.6-1.5c.6 0 1.3 0 2 .4a54 54 0 0 0 11 3.3h1a78 78 0 0 1 12.5.8c1 .5 4.4 2.2 5.5 2.2l.2-.1c.5-.5 3.6-6 6.2-6.5l3.7-.9s2-6.7 1-9.3c-.8-2.6-2-5.9.3-7.8.5-.4 1-.6 1.7-.6m-77.3 29h.3c4.5-.5 6.5-8.2-1-13.2-.5-.4-1.1-.6-1.7-.6-1.5 0-2.9 1.2-2.9 3.2 0 2.8 1.1 10.6 5.3 10.6m77.3-31.3c-1.2 0-2.3.4-3.2 1.2-3.4 2.8-1.9 7.4-1 10.1v.1c.4 1 0 4-.6 6.7l-2.4.5c-2.5.6-4.7 3.3-6.7 6.3l-3.7-1.6A72.3 72.3 0 0 0 153 131c-1 0-5.7-1.5-10-3.2a7.6 7.6 0 0 0-5.3 0c-1.6-3.5-2-3.6-2.8-3.9l-.8-.1c-1.1 0-2 .7-3.2 1.5-.2.2-.5.5-.7.5-1.4.9-1.6 2.6-2 6.7v1.3c-.5 0-1.2-.3-2.3-.8a41.1 41.1 0 0 1-11-7.8c-2-2.4-4.5-3.5-6-4.2l-.5-.3c-.4-1-1.7-3.6-4.9-3.6l-1.5.1c-4.3 1-5.4 6.3-5.4 8.9l-.1 1s-.4.4-2.3.6h-.3c-3.4 0-10.7-4-14.6-7-1.7-1.1-2-4.6-2-6.1 0-1-.6-2-1.6-2.3-.7-.3-1.4-.4-2-.4a5 5 0 0 0-3.8 1.5c-2.6 2.7-2.5 8.1-2.4 13.4v3.7c0 4.8 2.4 9.5 7.3 14l.2.8c.5 1.6 1.2 4.4 3.6 6.4l1.2 1.3c2.4 2.9 6.5 7.7 25.2 15.5a117.9 117.9 0 0 0 47.3 7.9c1.3 1.5 4.2 3.5 9.9 3.5 3.8 0 8.3-1 13.4-2.7 16.7-5.8 35-32.4 35.2-32.6l1.5-1.3c2.2-1.8 5-4 5-6.7 0-2.2.6-5.2 2-7.2a27 27 0 0 0 4.6-8.2c.4-2.4-1.7-6-3.3-7.4-1.7-1.7-3.4-2.5-5-2.5-.6 0-1.2.1-1.7.4-1.8.9-2 3-1.7 7.4v.1a12.7 12.7 0 0 0-5.7.7c-2.2.9-3.1 3.2-3.2 5.6a28.8 28.8 0 0 1-8 0l.4-4c.8-2.4-.6-4.4-2.7-7.5-.9-1.2-4-5.2-7.7-5.2Zm-77.3 29c-1.5 0-3-4.7-3-8.3 0-.4.1-.9.6-.9l.5.2c3.5 2.4 4.3 5.2 3.8 7-.2 1-.8 1.9-1.8 2h-.1Z" class="cls-8"/><path fill="url(#linear-gradient-2)" d="M215 113.7c-1.2.6 0 10 0 10s-2.2-1.8-2.7-2c-.4-.4-2.7-.5-5 .4-2.3.8-1.6 5.3-1.6 5.3-5 1-9 .7-11.1.3s.9 7.6-2.3 11.9c-3.2 4.3-25.2 8-34 12.9s-32.1 2-48.6-4-24-10.8-25.7-22a60.2 60.2 0 0 1-6.1-3.9c-3.2-2.3-2.9-8.1-2.9-8.1-6.6-2-5 9.3-5.1 16-.2 6.8 6 12 6.7 12.7.7.7.7 4.4 3.5 6.7 2.7 2.3 3.4 7.2 25.8 16.5 22.4 9.3 47.5 7.6 47.5 7.6 1 1.9 5.8 6.5 21.5 1 15.6-5.4 33.1-30.4 34-31.7.9-1.3 6-4.3 6-6.7s.7-6 2.6-8.6c2-2.5 3.9-6 4.1-7.2.3-1.3-1.1-4-2.5-5.3-1.4-1.3-3-2.3-4.2-1.8Z"/><path d="M185.3 112.2c1.3 0 3.3 1.6 4.9 3.8 1.8 2.6 2.5 3.7 2.2 4.4-.4 1.4-.6 6-.6 7 0 .5.3 1 .8 1a32.3 32.3 0 0 0 13.3 0c.7 0 1-.6 1-1.2-.2-1.2-.2-3.7.8-4a9.3 9.3 0 0 1 4-.6l2.5 2a1.1 1.1 0 0 0 1.9-1c-.5-3.5-.7-7.6-.4-8.9.2 0 1 .2 2.6 1.6 1.3 1.2 2.3 3.6 2.2 4.3-.2.9-1.9 4.1-3.9 6.7a16 16 0 0 0-2.8 9.3c0 1-2.4 3-3.7 4-1 .9-1.8 1.5-2.2 2-.1.3-17.7 25.9-33.4 31.3-4.8 1.7-9 2.5-12.3 2.5-6 0-7.6-2.4-7.8-3a1.1 1.1 0 0 0-1.1-.5h-4.9c-8.8 0-26.1-1-42-7.6-18-7.4-21.7-11.9-24-14.5-.5-.7-1-1.3-1.6-1.8-1.6-1.3-2-3.2-2.5-4.6-.2-1-.4-1.6-.9-2l-.3-.3c-4.1-3.9-6.2-7.8-6-11.5l-.1-3.9c-.1-4-.2-9.2 1.4-10.8.3-.4.7-.5 1.2-.5h.3c0 2 .5 6.1 3.3 8.2 2.7 2 11.6 7.5 16.7 7.5h.6c5-.5 5.5-2.8 5.5-5 0-1.5.7-5 2.8-5.5h.7c1 0 1.4.6 1.8 1.6l.3.6c.3.6 1 .8 2 1.3 1.2.6 3.2 1.5 4.7 3.3a45 45 0 0 0 12.2 8.8c1.7.8 3.1 1.1 4.2 1.1 1.4 0 2.4-.7 2.7-2l.3-2.5c0-1.2.3-3.5.5-4.2l.8-.5.7-.6 1.8 4a1.1 1.1 0 0 0 2 .4s1-1.2 2.7-1.2l1.6.3a59.8 59.8 0 0 0 11.5 3.4h1c3.7 0 11 .4 11.9.7 2 1 4.8 2.3 6 2.3.6 0 1-.2 1.1-.5l.6-.7c2.2-3.4 3.9-5.2 5-5.4l3.7-.9c.4 0 .7-.4.9-.8.2-.7 1.9-7.1 1-10-1-3-1.7-5.2-.2-6.5.3-.2.6-.4 1-.3m-77.3 29h.5c2.2-.3 4.1-2 4.7-4.6.8-3-.2-7.4-5.2-10.7-.7-.5-1.6-.8-2.4-.8-2 0-4 1.5-4 4.3 0 3 1.1 11.8 6.4 11.8m77.3-30.2c-.6 0-1.2.2-1.7.6-2.2 1.9-1.1 5.2-.2 7.8.8 2.6-1 9.3-1 9.3l-3.8.9c-2.6.5-5.7 6-6.2 6.5h-.2c-1 0-4.5-1.6-5.5-2a78 78 0 0 0-13.6-1c-1.8 0-7.7-2-11-3.2-.6-.3-1.3-.4-1.9-.4-2.2 0-3.6 1.5-3.6 1.5s-2-4.9-2.5-5c-.5 0-2 1.3-2.7 1.7-.7.4-.8 5.9-1.1 7.3-.2.7-.7 1.1-1.6 1.1s-2.2-.4-3.7-1a43.6 43.6 0 0 1-11.8-8.5c-2.6-3-6.2-3.8-6.6-4.5-.4-.6-.9-2.8-3-2.8a4 4 0 0 0-1 0c-3 .8-3.8 5.1-3.8 6.7 0 1.6 0 3.4-4.4 3.9h-.5c-4.6 0-13-5.2-16-7.4-3.2-2.3-2.9-8.1-2.9-8.1a5 5 0 0 0-1.4-.3c-5 0-3.6 10.1-3.7 16.3-.2 6.8 6 12 6.7 12.7.7.7.7 4.4 3.5 6.7 2.7 2.3 3.4 7.2 25.8 16.5 16.3 6.8 34.1 7.7 42.5 7.7l5-.1c.6 1.2 3 3.6 8.8 3.6 3 0 7.2-.7 12.7-2.6 15.6-5.4 33.1-30.4 34-31.7.9-1.3 6-4.3 6-6.7s.7-6 2.7-8.6c1.9-2.5 3.8-6 4-7.2.3-1.3-1.1-4-2.5-5.3-1.1-1-2.4-2-3.5-2l-.7.2c-1.1.6 0 10 0 10s-2.1-1.8-2.6-2c-.2-.2-.7-.3-1.4-.3-1 0-2.3.2-3.6.7-2.3.8-1.6 5.3-1.6 5.3-2.4.5-4.6.7-6.5.7-3.8 0-6.2-.7-6.2-.7s.1-5.3.5-6.6c.5-1.3-.4-2.6-2.4-5.5-1.5-2.2-3.8-4.2-5.8-4.2Zm-77.3 29c-4.2 0-5.3-7.8-5.3-10.6 0-2 1.4-3.2 2.9-3.2.6 0 1.2.2 1.8.6 7.4 5 5.4 12.7 1 13.2h-.4Z" class="cls-14"/><path d="M195.6 127.9c-1.7-.2-2.6-.5-2.6-.5s.1-5.3.5-6.6c.5-1.3-.4-2.6-2.4-5.5-2-2.8-5.3-5.4-7.5-3.6-2.2 1.9-1.1 5.2-.2 7.8.8 2.6-1 9.3-1 9.3l-3.8.9c-2.6.5-5.7 6-6.2 6.5-.4.5-4.5-1.5-5.7-2a82 82 0 0 0-13.5-1c-1.6.2-7.7-2-11-3.2s-5.6 1.1-5.6 1.1-2-4.9-2.5-5c-.4-.2-2 1.3-2.7 1.7s-.8 5.9-1.1 7.3c-.3 1.5-2.2 1.5-5.3 0a43.6 43.6 0 0 1-11.8-8.4c-2.6-3-6.2-3.8-6.6-4.5-.4-.7-1-3.4-4-2.7-3 .7-3.8 5-3.8 6.6 0 1.6 0 3.4-4.4 3.9-4.4.4-13.3-5-16.5-7.4-3.2-2.3-2.9-8.1-2.9-8.1l-1.5-.3c-1.9 12.3 16.3 16.3 18.5 17.2 2.3 1 7-1.7 7-1.7s2-6.9 4-7.6c2.1-.8 2.9 2.8 4.2 2.8 1.3 0 8.1 5.2 12.2 9.2 4 4 11.7 4.8 11.7 4.8l2.7-6c1.2-2.4 5.6 1.8 6.1 1.8.6 0 3.3-1.4 5.8.4 2.6 1.7 9.5.4 14.9 1a45 45 0 0 1 12 3.8l4.8-5.6c2.1-2.7 6.3-2.3 6.3-2.3s2.3-9.7 1.7-13c-.5-3.2-.8-7.8 3.1-4.2 4 3.6 2.1 13.8 2.1 13.8l5-.7Z" class="cls-4"/><path fill="#b7eae8" stroke="#3c7bd6" stroke-linecap="round" stroke-linejoin="round" stroke-width="2.3" d="M193 99c-3 0-7.2-1-7.5 0-.4 1 6.8 8.6 8.6 10.3 1.8 1.7 7.4.6 7.4-2.9S197.9 99 193 99Z"/><path d="M198.9 105.1c-.4.7-1.8.7-3.2 0-1.4-.7-2.3-1.8-2-2.5.4-.7 1.8-.7 3.2 0 1.4.7 2.3 1.8 2 2.5Z" class="cls-4"/><path fill="#ceb891" stroke="#5b2307" stroke-linecap="round" stroke-linejoin="round" stroke-width="2.3" d="M2.3 56.2s40 18.1 86.1 17l14.3-12.8-88.5-4.9-12 .7Z"/><path fill="#ceb891" d="M83.4 63.2c-30.3 0-80.7-5.8-81.2-5.8a1.1 1.1 0 0 1 0-2.3H3a2096 2096 0 0 0 83.7-3.4c.4 0 .9.3 1 .7 2 5.3 11.3 6 15.2 6a37 37 0 0 0 2.4-.2 1.1 1.1 0 0 1 .6 2.2c-2 1.3-6 2.1-12.4 2.5-2.9.2-6.2.3-10 .3Z"/><path d="M86.6 52.8c2 6 11.6 6.7 16.2 6.7l2.4-.1a29 29 0 0 1-11.9 2.4l-9.9.2c-30.6 0-81.1-5.8-81.1-5.8H3c46.6-1 83.6-3.4 83.6-3.4M86.6 50.5h-.2C86 50.5 49 53 3 54h-.6a2.3 2.3 0 0 0-.3 4.6c.5 0 51 5.8 81.4 5.8 3.8 0 7.2 0 10-.3 6.7-.4 10.8-1.2 13-2.7a2.3 2.3 0 0 0-1.2-4.2 2.3 2.3 0 0 0-.2 0h-2.2c-2.9 0-12.4-.3-14-5-.4-1-1.3-1.6-2.2-1.6Z" class="cls-1"/><path fill="url(#linear-gradient-3)" d="m1.4 89-.3-.2c-.4-.6-.2-2.8 1-10.2.4-2.8.9-5.7 1-7.6l1.2-11.5v-.4h.5c.2 0 3.4-.5 6.1-.5 2.7 0 3.4.4 3.8.8.2.2.3.5.3.8 0 1.5-2.4 5.6-5.1 10.5l-1.5 2.7c-.6 1.2-1.7 4.2-2.7 7.1-2.8 7.8-3.3 8.6-4 8.6h-.3Z"/><path d="M11 59.1c1.8 0 3.4.3 3.4 1 0 2-5 10.2-6.5 13C6.4 76 2.6 88.5 1.7 88.5c-.9 0 1.5-12.3 2-17.4L5 59.6s3.3-.5 6-.5m0-1.1c-2.7 0-6 .5-6.2.5l-.8.1-.1.9L2.6 71a154 154 0 0 1-1 7.5C.1 87 0 88.4.5 89.2l1 .5c1.3 0 1.7-.9 4.6-9a80.9 80.9 0 0 1 4.2-9.7 43 43 0 0 0 5.2-10.8c0-.5-.2-.9-.5-1.2-.7-.7-2-1-4.2-1Z" class="cls-8"/><path d="M11 60.3a9 9 0 0 1 2.2.2 78 78 0 0 1-4.8 9.4l-1.5 2.7c-.7 1.3-1.7 4.2-2.9 7.3L3.3 82l.5-3.1a155 155 0 0 0 2.1-18.3 46 46 0 0 1 5-.3m0-1.2c-2.7 0-6 .5-6 .5L3.7 71.1c-.5 5-2.9 17.3-2 17.4.9 0 4.7-12.5 6.2-15.4 1.5-2.8 6.4-11 6.5-13 0-.7-1.6-1-3.5-1Z" class="cls-4"/><path fill="url(#linear-gradient-4)" d="M49.6 111.1a.8.8 0 0 1-.6-.3c-.8-1-.2-5 1.2-12.7l.5-3.1a7 7 0 0 0-.3-1.9c-.3-1-.5-2.2-.2-3.2.4-1 2-11.6 3-18.6V71h.4l1-.1c3.3 0 7.7 1.4 7.9 1.5l.5.2-.1.5-4 13.5c-.6 2.1-1.5 3.4-2.2 4.4-.6.8-1 1.5-1.2 2.4 0 .2-3.6 17.8-5.9 17.8Z"/><path d="M54.6 71.4c3.2 0 7.7 1.4 7.7 1.4s-3 9.8-4 13.6c-1 3.7-3 4.6-3.4 6.9-.3 2.2-3.8 17.3-5.3 17.3-1.4-.1 1.6-14.1 1.7-15.6 0-1.4-1-3.5-.5-4.9.5-1.3 2.9-18.7 2.9-18.7h1m0-1.2h-1.2l-.8.2-.2.9c-.9 6.6-2.5 17.4-2.8 18.4-.4 1.2-.1 2.4.2 3.6l.3 1.6-.6 3.1c-1.7 9.3-1.9 12.2-1 13.2.2.3.5.5 1 .5 1.1 0 2-.6 4.2-8.6l2.2-9.7c.2-.8.6-1.4 1.2-2.2.7-1 1.6-2.3 2.2-4.5l4-13.5.3-1.1-1-.4c-.2 0-4.8-1.5-8-1.5Z" class="cls-8"/><path d="M54.7 72.5c2 0 4.7.7 6.2 1.1l-3.7 12.5a11 11 0 0 1-2 3.8c-.6 1-1.2 1.9-1.4 3.2-.3 1.8-1.8 8-3 12.3l1-7c.5-2 .6-2.9.6-3.3l-.3-2.4c-.2-.8-.4-1.7-.3-2.2.5-1.3 2.3-13.7 2.9-18m0-1.1a8 8 0 0 0-1 0s-2.4 17.4-3 18.7c-.4 1.4.7 3.5.6 5 0 1.4-3.1 15.4-1.7 15.5 1.5 0 5-15 5.3-17.3.4-2.3 2.4-3.2 3.4-7l4-13.5s-4.5-1.4-7.7-1.4Z" class="cls-4"/><path d="M55.8 80.6c-.2 1.4-1 2.4-1.8 2.2-.8 0-1.3-1.3-1-2.6.1-1.4 1-2.4 1.7-2.3.8.1 1.3 1.3 1.1 2.7Z" class="cls-4"/><path fill="url(#linear-gradient-5)" d="M24 105.6c-.4 0-.7-.2-.9-.4-.4-.7-.7-2 .6-7.3 1-4.4 1.7-8.8 1.8-9.9-.7-1-.4-3.4.4-7 .7-3.2 2.2-14 2.2-14v-.6h.6C33 67 43 68 43.9 70c.2.3.1.7-.1 1-.7 1-2.6 6.3-4.3 11.1-3.7 10.3-3.8 10.4-4.5 10.4h-.1c-1-.2-.9-1.6 0-5.8l.2-1c.2-1 .4-5 .5-7.9-1 2.6-2.2 6-2.4 7.2-.5 2.5-3.2 7.1-3.5 7.7L28 97.2c-2.7 7.6-3.2 8.4-4 8.4Z"/><path d="M28.6 67s16.2 1.5 14.7 3.5C42 72.5 35.8 92 35 92c-.7-.2.3-4.6.7-6.3.3-1.7.7-11.4.7-11.4s-3.4 8.5-3.8 10.6c-.4 2.1-2.5 6-3.3 7.5-.9 1.4-4.4 12.8-5.3 12.8-.9-.1-1-2 .3-7 1.2-5.3 1.9-10.3 1.9-10.3-1-.7-.4-3.5.3-6.7.7-3.3 2.1-14 2.1-14m-1-1.3-.1 1.1c0 .1-1.4 10.8-2.1 14-.9 3.6-1.2 6-.4 7.2-.2 1.4-.8 5.5-1.8 9.6-1.3 5.3-1.2 7-.5 7.8.3.4.7.7 1.2.7h.1c1.2 0 1.7-1 4.5-8.8l1.7-4.5c.3-.6 3-5.3 3.5-7.9l1.2-3.5-.4 4c0 .2 0 .6-.2 1-.8 4-1.1 6 .4 6.5H35c1.1 0 1.2 0 5-10.8 1.6-4.5 3.6-10.1 4.3-11 .3-.5.4-1 .1-1.6-.4-.8-1.4-1.8-8.5-2.8-3.6-.6-7.1-.9-7.2-.9h-1Z" class="cls-8"/><path d="M29.6 68.3c2.6.3 5.3.6 7.5 1l-1.8 4.5c-.1.4-3.4 8.6-3.8 10.8-.4 1.8-2.3 5.4-3.2 7.1-.4.6-1 2.2-2 4.9l-1.5 4.2.6-2.5c1.2-5.2 1.9-10.1 1.9-10.3v-.7L27 87c-.1-.4-.2-1.6.7-5.7.6-2.6 1.6-10.1 2-13m8.1 1c2 .4 3.6.8 4.3 1.2a134 134 0 0 0-5 13.4c.3-3.2.5-8.8.5-9.6l.2-5m-9-2.2s-1.5 10.7-2.2 14c-.7 3.2-1.2 6-.3 6.7 0 0-.7 5-2 10.2-1.2 5.2-1 7-.2 7 .9 0 4.4-11.3 5.3-12.7.8-1.5 2.9-5.4 3.3-7.5.4-2.1 3.8-10.6 3.8-10.6s-.4 9.7-.7 11.4c-.4 1.7-1.4 6-.7 6.3.8 0 6.9-19.3 8.3-21.4 1.5-2-14.7-3.4-14.7-3.4Z" class="cls-4"/><path d="M31 77.8c-.5 1.9-1.6 3.2-2.4 3-.9-.2-1.1-2-.6-3.9.5-1.9 1.6-3.2 2.4-3 .9.2 1.2 2 .6 3.9ZM105.2 59.4a29 29 0 0 1-11.9 2.4c-3.7-1-7.8-2.8-9.8-6 0 0-58.9 2.2-80.5.4 46.6-1 83.6-3.4 83.6-3.4 2.7 7.6 17.7 6.7 18.6 6.6Z" class="cls-4"/><path d="M169.6 64c-6.8 0-12.6-7-13.4-16.4a26.7 26.7 0 0 1 .2-6.9c1.5-8.5 6.9-14.5 13.2-14.5 7.5 0 13.6 8.5 13.6 18.9l-.1 2.4c-.8 9.4-6.6 16.5-13.5 16.5Z" class="cls-25"/><path d="M169.6 27.3c6.9 0 12.4 8 12.4 17.8v2.3c-.8 8.7-6 15.5-12.4 15.5-6.3 0-11.5-6.7-12.3-15.4a25.8 25.8 0 0 1 .2-6.6c1.4-7.8 6.3-13.6 12.1-13.6m0-2.3c-6.9 0-12.8 6.4-14.3 15.5a27.4 27.4 0 0 0-.3 7.2c1 10 7.2 17.5 14.6 17.5 7.5 0 13.7-7.6 14.6-17.6l.1-2.5c0-11-6.6-20-14.7-20Z"/><path d="M182 47.4c-.8 8.7-6 15.5-12.4 15.5-6.3 0-11.5-6.7-12.3-15.4h12.9v-3h-13c0-1.3.1-2.5.3-3.6H176l6 6.5Z" class="cls-2"/><path d="m183.7 36.5-.4-.1-10-4.1a1.1 1.1 0 0 1-.5-1.8l9.6-11.3a1.1 1.1 0 0 1 1-.4l3 .3a1.1 1.1 0 0 1 1 1.3l-2.6 15.1a1.1 1.1 0 0 1-1 1Z" class="cls-25"/><path d="m183.3 19.9 3 .3-2.6 15.1-10-4 9.6-11.4m0-2.3c-.7 0-1.3.3-1.8.8L172 29.7a2.3 2.3 0 0 0 .9 3.6l10 4.2a2.3 2.3 0 0 0 3.2-1.8l2.6-15a2.3 2.3 0 0 0-2-2.8l-3-.3h-.3Z"/><path d="m184.1 20-3 4.4h2.1l2.6-4.2-1.7-.2z" class="cls-18"/><path d="M176.7 61c-5.8 0-10.5-7-10.5-15.9s4.7-15.8 10.5-15.8a8.4 8.4 0 0 1 6.3 3c2.7 3 4.2 7.8 4.2 12.8 0 8.9-4.6 15.9-10.5 15.9Z" class="cls-25"/><path d="M176.7 30.4c2 0 3.8 1 5.3 2.6 2.5 2.7 4 7 4 12.1 0 8.1-4.1 14.7-9.3 14.7s-9.3-6.6-9.3-14.7 4.2-14.7 9.3-14.7m0-2.3c-6.5 0-11.6 7.5-11.6 17s5.1 17 11.6 17 11.7-7.5 11.7-17a20.4 20.4 0 0 0-4.7-13.7 9.5 9.5 0 0 0-7-3.3Z"/><path d="M186 45.1c0 8.1-4.1 14.7-9.3 14.7s-9.3-6.6-9.3-14.7c0 0 3 5.3 10.8 3.4 7.8-1.8 4.6-13.5 3.9-15.5 2.4 2.7 4 7 4 12.1Z" class="cls-2"/><ellipse cx="179.6" cy="45.1" class="cls-4" rx="4.8" ry="8.5"/><path d="M179.6 37.3c2.3 0 4.2 3.5 4.2 7.8s-2 7.9-4.2 7.9-4.2-3.6-4.2-7.9 1.9-7.8 4.2-7.8m0-1.3c-3.2 0-5.5 3.9-5.5 9.1s2.3 9.2 5.5 9.2 5.5-4 5.5-9.2-2.4-9.1-5.5-9.1Z" class="cls-18"/><path d="M120.4 69.9c-7.4 0-13-1.4-15.7-4a100 100 0 0 0-13.9-10.3c-4.7-3-6.5-3.3-7-3.4h-2.4c-3 0-8 .2-14.5.5h-.4c-.9 0-1.7-.4-2.5-1.3-2.2-2.6-4.1-9.5-3.2-16.1 0-.8.2-1.6.5-2.6a14.9 14.9 0 0 1 14.5-11.3H138c4.6 0 8.8 2 11.7 5.5 1.6 2.1 3 4.5 4 7.2a30.9 30.9 0 0 1-2 23.6 19.4 19.4 0 0 1-13 10 84.3 84.3 0 0 1-18.3 2.2Z" class="cls-25"/><path d="M138 22.5c4.2 0 8.2 1.9 10.8 5.1 1.4 1.8 2.7 4 3.8 7 3.4 9.3 1.4 28.4-14 31.9a82.5 82.5 0 0 1-18.2 2.3c-7.1 0-12.4-1.4-14.9-3.8-2.7-2.6-8.8-7.2-14-10.4-3.3-2-6.2-3.4-7.7-3.5h-2.4c-4.9 0-13 .4-14.8.5-2.8 0-5.7-8.4-4.7-16.2l.5-2.4a13.8 13.8 0 0 1 13.4-10.5H138m0-2.3H75.8a16 16 0 0 0-16.2 15c-.8 6.3.7 13.7 3.6 17 1.2 1.4 2.5 1.7 3.3 1.7h.5a280.3 280.3 0 0 1 16.7-.5c.1 0 1.6.2 6.5 3.1A98.6 98.6 0 0 1 104 66.7c3.8 3.6 11 4.3 16.5 4.3 5.6 0 12-.8 18.6-2.3 6-1.3 10.8-5 13.8-10.5a32.1 32.1 0 0 0 2-24.5 26 26 0 0 0-4.2-7.5 16 16 0 0 0-12.6-6Z"/><path d="M138.5 66.5c-16 3.7-28.7 2.6-33-1.5-2.7-2.6-8.8-7.2-14-10.4 7 3 17.5 7.2 24.7 7.6 11.6.7 24.6 1.3 28.1-6 3.1-6.5 3.7-24.1-6.4-33.7 4.3 0 8.3 1.9 10.9 5.1 1.4 1.8 2.7 4 3.8 7 3.4 9.3 1.4 28.4-14 31.9Z" class="cls-2"/><path d="M140.2 64.3c2.1-3 3.2-6.5 4.2-10a35 35 0 0 0 1.2-5.3l.3-2.8v-2.7a38.8 38.8 0 0 0-4.1-15.6c-.9-1.6-1.8-3.2-3-4.6 1.5 1.1 2.6 2.6 3.6 4.2a25.6 25.6 0 0 1 3.8 10.4c.3 1.9.3 3.7.3 5.6a102.8 102.8 0 0 1-1.3 11 24 24 0 0 1-1.8 5.3 15.2 15.2 0 0 1-3.2 4.6Z"/><circle cx="137.5" cy="28.1" r="2.9" class="cls-2"/><path d="M140.5 28.1a4 4 0 0 1-.8 2.2 3 3 0 0 1-2.2 1.2c-.9 0-1.8-.2-2.5-.9a3.6 3.6 0 0 1-1.2-2.5c0-1 .3-2 1-2.8.6-.7 1.7-1.2 2.7-1.1 1 0 2 .7 2.4 1.5.5.8.6 1.6.6 2.4Zm-.2 0a2 2 0 0 0-1.1-1.7 3 3 0 0 0-3 .3 2 2 0 0 0-.8 1.4c-.2 1.1.8 2.3 2 2.4.7 0 1.4 0 2-.5.6-.4 1-1.2 1-1.9Z"/><path d="M138.8 60.3a3 3 0 1 1-5.8 0 3 3 0 0 1 5.8 0Z" class="cls-2"/><path d="M138.9 60.3a4 4 0 0 1-.8 2.3 3 3 0 0 1-2.2 1.2c-1 0-1.9-.3-2.5-1a3.6 3.6 0 0 1-1.2-2.5c-.1-1 .2-2 1-2.7.6-.8 1.6-1.2 2.7-1.2 1 0 2 .7 2.4 1.5.5.8.6 1.7.6 2.4Zm-.2 0a2 2 0 0 0-1.1-1.6 3 3 0 0 0-3 .3 2 2 0 0 0-.8 1.3c-.2 1.2.8 2.4 2 2.5.7 0 1.4-.1 2-.5.6-.5 1-1.2.9-2Z"/><ellipse cx="70.3" cy="28.1" class="cls-2" rx="1.9" ry="2.9"/><path d="M72.3 28.1c0 .7-.1 1.3-.4 2-.2.6-.7 1.3-1.6 1.3-.9 0-1.6-.6-2-1.2-.4-.6-.6-1.4-.6-2.1 0-.7 0-1.5.4-2.2.2-.4.4-.8.8-1 .3-.4.9-.6 1.4-.5.5 0 1 .3 1.3.6.3.3.5.7.6 1 .2.8.1 1.5.1 2.1Zm-.2 0c0-.6-.3-1.2-.7-1.6-.4-.5-1-.6-1.1-.5-.2 0-.5.2-.8.6a3 3 0 0 0-.5 1.5c0 .5 0 1.1.3 1.6.2.5.5.9 1 1 .4 0 1-.3 1.3-.8.4-.5.6-1.2.5-1.8Z"/><rect width="47.1" height="5.7" x="75.4" y="33.7" class="cls-20" rx="1.9" ry="1.9"/><rect width="47.1" height="6.8" x="75.4" y="41.7" class="cls-20" rx="2.1" ry="2.1"/><rect width="46.8" height="5.7" x="75.5" y="42.3" class="cls-4" rx="2.2" ry="2.2"/><path d="M120 42.8c1 0 1.8.7 1.8 1.7v1.3c0 .9-.8 1.7-1.7 1.7H77.7c-1 0-1.7-.8-1.7-1.7v-1.3c0-1 .7-1.7 1.7-1.7H120m0-1H77.7a2.7 2.7 0 0 0-2.7 2.7v1.3c0 1.4 1.2 2.7 2.7 2.7H120c1.5 0 2.7-1.3 2.7-2.7v-1.3c0-1.5-1.2-2.7-2.7-2.7Z" class="cls-18"/><path d="M77.5 34.1h42.7c1.2 0 2 1 2 2.1v.8c0 1.1-.8 2-2 2H77.5a2 2 0 0 1-2-2v-.8c0-1.1.9-2 2-2Z" class="cls-4"/><path d="M120.2 34.6c.9 0 1.6.7 1.6 1.6v.8c0 .9-.7 1.6-1.6 1.6H77.5c-.8 0-1.5-.7-1.5-1.6v-.8c0-.9.7-1.6 1.5-1.6h42.7m0-1H77.5a2.6 2.6 0 0 0-2.5 2.6v.8c0 1.4 1.1 2.6 2.5 2.6h42.7c1.4 0 2.6-1.2 2.6-2.6v-.8c0-1.4-1.2-2.6-2.6-2.6Z" class="cls-18"/></g></svg>