<svg xmlns="http://www.w3.org/2000/svg" height="80px" xmlns:xlink="http://www.w3.org/1999/xlink" id="Layer_2" data-name="Layer 2" viewBox="0 0 263.5 225.5"><defs><path id="reuse-0" d="M37.8 29.6s4-7.2 9-5.5c5.3 1.7-.6 11-9 5.5Z" class="cls-23"/><path id="reuse-1" d="M41.7 30.3s-4.1-7.2-9.5-5.6c-5.4 1.7.7 11 9.5 5.6Z" class="cls-22"/><path id="reuse-2" d="M106.5 6s-3.3-6.6-7.6-5c-4.2 1.4.6 10 7.6 5Z" class="cls-23"/><path id="reuse-3" d="M103.2 6.5s3.4-6.5 7.8-5c4.5 1.5-.5 10-7.8 5Z" class="cls-22"/><path id="reuse-4" d="M119.6 48s4.1-8.5 9.6-6.5-.7 12.9-9.6 6.4Z" class="cls-23"/><path id="reuse-5" d="M123.8 48.7s-4.4-8.4-10-6.5c-5.8 2 .6 13 10 6.5Z" class="cls-22"/></defs><defs><linearGradient id="linear-gradient" x1="563.7" x2="563.7" y1="-21.1" y2="-3" gradientTransform="rotate(-74 362.5 377.2)" gradientUnits="userSpaceOnUse"><stop offset="0" stop-color="#dbffff"/><stop offset="1" stop-color="#339ed3"/></linearGradient><linearGradient xlink:href="#linear-gradient" id="linear-gradient-2" x1="569.5" x2="569.5" y1="153.2" y2="89.2"/><linearGradient id="linear-gradient-3" x1="405.6" x2="405.6" y1="426.6" y2="386.3" gradientTransform="rotate(-93 165.4 439.3)" gradientUnits="userSpaceOnUse"><stop offset="0" stop-color="#dbffff"/><stop offset="1" stop-color="#1376a6"/></linearGradient><linearGradient xlink:href="#linear-gradient-3" id="linear-gradient-4" x1="456.8" x2="456.8" y1="394.4" y2="354.4" gradientTransform="rotate(-98 187.8 414.4)"/><linearGradient xlink:href="#linear-gradient-3" id="linear-gradient-5" x1="421.4" x2="421.4" y1="474.5" y2="434.5" gradientTransform="rotate(-100 150 443.7)"/><style>.cls-11,.cls-12,.cls-4,.cls-5,.cls-6,.cls-7,.cls-8,.cls-9{stroke-linecap:round;stroke-linejoin:round}.cls-11,.cls-12{stroke:#614a3c}.cls-11,.cls-12,.cls-4,.cls-5,.cls-6,.cls-7,.cls-8,.cls-9{fill:none}.cls-4{stroke-width:1.8424px}.cls-4,.cls-5,.cls-6,.cls-7,.cls-8,.cls-9{stroke:#000}.cls-14{fill:#fff}.cls-18{fill:#3c7bd6}.cls-5{stroke-width:1.3567px}.cls-6{stroke-width:2.0409px}.cls-19{fill:#614a3c}.cls-20{fill:#756558}.cls-7{stroke-width:1.7348px}.cls-21{fill:#b7eae8}.cls-22{opacity:.5}.cls-22,.cls-23{fill:#59b2ff}.cls-8{stroke-width:1.5961px}.cls-9{stroke-width:1.5661px}.cls-29{fill:#703c16}.cls-30{fill:#c39e7e}.cls-11{stroke-width:1.0072px}.cls-23{opacity:.47}.cls-12{stroke-width:1.1131px}.cls-35{fill:#433730}</style></defs><g id="Layer_1-2" data-name="Layer 1"><path d="M75.6 214.5C61 214.5 54 213 51 209.1c-1.8-2.3-2.2-5.5-1-9.7.8-3.3.6-5.6-.5-7-2-2.6-7.6-2.6-14.1-2.6-5 0-10.8 0-16.6-1.2C.2 185 1 173.5 1 173s.5-1 1-1c1.6 0 161-13 227.2-13 23.4 0 28 1.6 29.3 2.8 3.1 3 4.3 5.8 3.6 8.5-1.8 6.1-13.4 11-36.5 15.5-9 1.7-16.2 2.6-22 3.2-7 .9-12.6 1.5-13.2 3.1-.2.6 0 1.8 2.4 4.7 1.5 1.9 2 3.6 1.2 5.3-3.3 7.4-31.5 9-81.2 11.1l-5.3.3c-13.2.6-23.6 1-32 1Z" class="cls-35"/><path d="M229.3 160c15.9 0 26.6.8 28.5 2.6 10.4 9.5-3 16.5-32.3 22.2-29.3 5.6-42.2 2-33.4 12.6 8.7 10.6-25.7 12.4-79.3 14.8-15.5.7-27.7 1.3-37.2 1.3-20.4 0-27.5-2.9-24.7-13.8 4.1-16-14-8.6-32-12.1C1.2 184 2.3 173 2.3 173s160-13 227-13m0-2.2C163 158 3.7 171 2 171c-1 .2-1.8 1-2 2 0 .5-1 13 18.6 16.8a86.8 86.8 0 0 0 16.8 1.1c6.2 0 11.6 0 13.3 2.2.9 1.2 1 3.2.2 6.2-1.2 4.5-.8 8 1.2 10.6 3.3 4.2 10.4 5.8 25.5 5.8 8.4 0 18.8-.5 32-1l5.3-.3c55.8-2.5 78.8-4.2 82.2-11.8.6-1.4.9-3.6-1.4-6.4-2-2.5-2.2-3.4-2.2-3.6.8-1 7-1.8 12.3-2.4 5.9-.7 13.1-1.5 22-3.3 24-4.6 35.5-9.6 37.4-16.2.9-3.1-.4-6.4-4-9.5-1.6-1.6-6.5-3.2-30-3.2Z" class="cls-35"/><path fill="#a8825f" d="M90.8 209.6c-14.5 0-25.6-.4-32.2-1.1-5-.6-7.7-1.7-8.6-3.6-1-2.2.5-4.6 2-7 1.5-2.3 3-4.6 2.2-6.4-1.3-2.6-7.4-4.4-18.2-5.3-21.7-2-33.4-6.5-34.8-13.5-1.1-5.9 5.2-12.4 18.3-19 3-1.6 4.7-3.2 5.1-5 .7-3.3-2.2-7.1-5.4-11.2-3.9-5-8-10.2-5.9-15.5 2.5-6.5 14-11.3 36-15.2 34.1-6 65.7-9.1 94-9.1 55.5 0 82.2 11.7 86 19 2.1 4.2.6 9.2-.9 14-1.4 4.5-2.7 8.7-1 11.8 1.3 2.2 4 3.7 8.4 4.6 11.7 2.6 24 10.5 23.6 18.8-.3 5.9-7.2 13.6-38.3 17.1-19.3 2.1-29.8 4.8-31 7.8-.5 1 .2 2.2 1.5 3.8 1.2 1.6 2.4 3.3 1.8 5-.6 1.7-2.3 2.8-5.7 3.8-13.7 3.8-61 6.2-97 6.2Z"/><path d="M143.3 98.8c53.7 0 81.3 11.2 85 18.5 5 9.9-13.4 26.4 7.3 30.9 20.6 4.5 44.6 27.1-14.6 33.7-59.3 6.6-14.8 15-33.6 20.4-13.6 3.8-61.6 6.2-96.6 6.2-13.6 0-25.2-.3-32.1-1.1-24.7-2.8 20-18.5-22.6-22.3-42.6-3.8-41.6-17.6-16.1-30.5 25.5-12.8-45.6-33.4 29.5-46.7 37.2-6.6 68.4-9.1 93.8-9.1m0-2.2c-28.3 0-60 3-94.2 9.1-22.8 4-34.1 9-36.8 16-2.3 5.8 2.2 11.5 6 16.5 3 3.7 5.9 7.5 5.3 10.2-.4 1.5-2 3-4.6 4.3C5.5 159.5-1 166.5.1 172.9c1.5 7.5 13.5 12.4 35.8 14.3 14.1 1.3 16.8 3.8 17.3 4.8.6 1.2-.8 3.4-2 5.3-1.7 2.5-3.5 5.3-2.2 8 1 2.4 4 3.7 9.4 4.3a330 330 0 0 0 32.4 1.1c36 0 83.4-2.4 97.2-6.3 3.7-1 5.7-2.4 6.4-4.4.8-2.3-.7-4.4-2-6-.6-1-1.6-2.3-1.4-2.8.5-1.2 4.5-4.3 30.2-7.1 25.6-2.9 38.8-9 39.3-18.2.5-8.9-12.3-17.2-24.5-19.8-4-.9-6.5-2.3-7.6-4.1-1.5-2.7-.3-6.7 1-11 1.6-5 3.2-10.2.9-14.7-5-9.6-37-19.7-87-19.7Z" class="cls-35"/><path d="M46.4 168.3s-17.8-4.6-26.2-2.8c-8.4 1.8-10.2 4.6-8.4 5 1.8.6 47.9.3 34.6-2.2Z" class="cls-30"/><path fill="#8d643c" d="M228.2 127.6c-2.6 0-5.4 0-8.4.3-25.6 2 5-19.7-25.5-20-30.5-.2-113.5 4.8-113.5 4.8l-38.2 2.6s-16-2.9-16 8.4 28.8 19.3 21.2 24.2c-7.6 5-20 6.4-13.8 10.7 6.2 4.2 46.3 2 46.4 10.4.2 7.5-46 11.5-67.7 11.8a101 101 0 0 0 23.4 4.3c13 1.1 17.9 3.4 19 6 4-1.6 10.8-3.2 22.8-4 32.6-2.1 38.8 5 71.3 3.6 18.3-.8 30.8-.4 39.8 1.8-1-3 1.3-6 18.1-8.7s-45.1-8-22.3-14.5c22.7-6.5 35.5-2.5 18.9-9.5-16.7-7-11.2-17.6 19.5-14l7 .6c-7.7-4-4-11.6-2-18.8Zm-80 56c-7.8 0-17.2.9-16.4 0 .8-.7 8.3-4 15-3.5s18.8 2 18.8 2c7.3.9-9.5 1.6-17.4 1.6Zm13.4-16.7L172 160s17.6.3 20 1.8c2.5 1.4-25.9 6.6-30.4 5Z"/><path d="M226.4 158.3s-10.1-.3-15.7-1.7c-5.5-1.4 5.7-7 15.7-4.7s20.8 6 19.2 6.4-15.6.2-19.2 0Z" class="cls-30"/><path d="M222.4 107.3c-1.1 0-2.8-.7-4.4-1.8-3.8-2.6-12-10.4-12.4-10.7-1.2-1.1-12.3-11.3-10.3-15 .6-1.1 2.2-1.1 2.7-1.1 1.8 0 4.5.7 7.1 1.4l3.7.8 3.4.6c6.2 1 9.3 1.6 10 3.2.2.6.2 1.2-.2 1.7-.5.8-1.7 1.8-6.6 1.8l7.2 3.3c3.5 1.5 6.5 2.9 7.8 3.6 2 1 2.9 2.6 2.5 4.3-.4 1.4-1.7 2.4-3.3 2.4a59.9 59.9 0 0 1-9.2-2.8c4 4.5 4.2 6.2 3.8 7.2-.1.3-.6 1-1.8 1Z" class="cls-20"/><path d="M198 79.8c2.6 0 7.4 1.6 10.6 2.2 4.2.9 13.8 1.7 12.5 3.8-.7 1-3.4 1.3-6 1.3s-5.1-.3-5.1-.3c4.6 2.4 16.8 7.7 20 9.3 2.8 1.5 2.3 4.5-.4 4.5a4 4 0 0 1-.6 0c-3.2-.5-17.3-6.2-17.4-6.2l6.8 4c5.4 5.8 5.5 7.7 4 7.7a8 8 0 0 1-3.8-1.6A167.4 167.4 0 0 1 206.4 94c-6-5.3-11.1-11.8-10.1-13.6.2-.4.8-.6 1.7-.6m0-2.2c-1.8 0-3 .6-3.7 1.7-1 1.8-.2 4.2 2.7 8a165.5 165.5 0 0 0 20.4 19.2c.8.5 3 1.9 5 1.9a3 3 0 0 0 2.8-1.8c.5-1.2.4-2.6-1.4-5.2a33.1 33.1 0 0 0 5.8 1.5c2.1 0 4-1.3 4.4-3.2.4-1.8-.4-4.2-3-5.6l-8-3.6-3.3-1.5c1.6-.4 2.7-1 3.3-2 .5-.8.6-1.8.2-2.7-1-2.1-4-2.8-10.8-3.9L209 80l-3.6-1c-2.7-.6-5.4-1.3-7.4-1.3Z" class="cls-19"/><path d="M224 100.2s-1.9-4 1.8-6.8M217 97s-4.7-3.9-.3-7.5M216.2 103.7s-.9-3.3 3.3-5M214.3 88s-3.6-2.5-1.5-6.5M210.1 98.8c.2-.4-1.9-2.6.2-5 0 0-4.4-3.1-2-7 0 0-4.6-3-2.4-6.3" class="cls-12"/><path d="M197.4 150.1a68 68 0 0 1-19.4-3.8c-1.4-.6-1.7-1.5-1.7-2 0-3.4 11.4-8.6 16.4-10.7 1.2-.8 11.8-8 18-9.6l1.7-.3c1 0 1.3.6 1.3.9.4 1.1-.7 2-5.8 5.6l-2.8 2c2-.3 4.4-.6 6.6-.6 3.7 0 6 .7 7 2.2.3.6.4 1.3.1 2-1 2.6-8.8 4.5-18.8 6.7l-1.8.4c2.1.6 4.3 1.5 5 3 .4.7.4 1.5 0 2.3-.7 1.3-2.6 2-5.8 2Z" class="cls-20"/><path d="M212.4 124.7c2.4 0-6.4 5.3-9 7.5l-3.2 1.9s6.3-1.5 11.5-1.5c2.8 0 5.3.4 6.1 1.8 2.4 3.7-20.2 7.2-24 8.6 0 0 10.2 1.4 8.5 4.7-.6 1-2.4 1.4-4.9 1.4-5.7 0-15-2.2-19-3.7-5.8-2.3 14.8-11 14.8-11s11.5-7.8 17.7-9.4l1.5-.3m0-2c-.5 0-1.2 0-2 .3a82 82 0 0 0-18.1 9.7c-.9.3-4.4 1.8-8 3.7-7.5 3.9-9 6-9 7.9 0 .6.3 2.1 2.3 3a69.3 69.3 0 0 0 19.8 3.8c2.3 0 5.5-.2 6.7-2.5.5-1 .5-2.2 0-3.2a5.7 5.7 0 0 0-2.4-2.2c11.5-2.6 16.9-4.3 18-7.1.5-1 .4-2-.2-2.8-1.1-1.8-3.6-2.7-7.8-2.7l-2.8.1c4.7-3.2 6.4-4.5 5.8-6.4-.2-.8-1-1.6-2.3-1.6Z" class="cls-19"/><path d="M213.5 131.8s-4.5 3.4-1.4 7.8M206.5 131.8s-8.1 5-3.9 10.1M206.1 125.7s-.1 2.6 2.8 3.7M199.7 143.3s-6.2.7-6.4 6.1M198.5 131s-2 1.4-.8 3.5c0 0-6.4 3.5-6 8 0 0-7.3 1.4-7 5.7" class="cls-11"/><path d="M159.2 173.9a22 22 0 0 1-13-4.6c-.5-.4-.6-1-.3-1.5 9-14.5 33.2-18.8 34.2-19h.2a1.1 1.1 0 0 1 1.1 1.3c0 .7-1.7 15.5-13.3 21.5a19.3 19.3 0 0 1-8.9 2.3Z" class="cls-21"/><path d="M180.3 150s-1.5 14.8-12.7 20.6a18 18 0 0 1-8.4 2.1c-7.2 0-12.3-4.3-12.3-4.3 8.8-14.2 33.4-18.4 33.4-18.4m0-2.3a2.2 2.2 0 0 0-.4 0c-1.6.3-25.8 4.7-35 19.5-.6 1-.4 2.2.5 3 .2.1 5.9 4.8 13.8 4.8 3.3 0 6.4-.8 9.5-2.4 11.6-6 13.7-20.6 13.9-22.2v-.4c0-1.3-1-2.3-2.3-2.3Zm0 4.6Z" class="cls-18"/><path fill="#a38367" d="M137.1 175.2c-1.4 0-2.8-.2-4.2-.4a52 52 0 0 1-17.6-6.3c.6 1.2 1 3 .4 4.1-.3.4-.9 1.2-2.3 1.2a8 8 0 0 1-2.7-.6c-3.9-1.5-7.4-5.3-9.7-8.3v.2c.6 2.2 1 3.8.1 4.8a2 2 0 0 1-1.6.7c-.5 0-1 0-1.5-.2-3.9-1.3-6.2-7.4-7-9.7H90c-4.4 0-16.3-.7-31.1-7.3-15.1-6.7-23.1-22-25.8-28.2-1 2-2.4 3.5-4 3.5-1 0-2.6-.5-3-4.1-.2-2 0-4.5.4-6.9-1 1.4-2.2 2.4-3.3 2.4-.6 0-1.7-.3-2.3-2.2-1.1-4 2-9 4.5-12.4l-1.3.2c-.8 0-1.4-.3-1.8-.7a2 2 0 0 1-.4-1.6c.3-2.6 4.9-5.4 7-6.4C38 60.6 64.5 51.2 85.1 49.8c12.7-1 20.5-8.2 29.6-16.6a55.3 55.3 0 0 1 24.4-12.6c.7 0 1.2.3 1.5.9 0 .2.2.6 0 1.4a40.6 40.6 0 0 1 14 .6c.4.2.8.6 1 1.2 0 .2 0 .6-.4 1.4h.6c5.9 0 12.9 2.5 14 4.5a84 84 0 0 0 9.7 10 81 81 0 0 1 13.6 25.8 82.3 82.3 0 0 1 .3 56.6c-14 36-38.4 52.2-56.4 52.2Z"/><path d="M139.2 21.8c1.5 0-1.4 3.2-1.4 3.2 2.2-1 5-1.4 7.7-1.4 4.1 0 8 .8 8.7 1 1.3.4-2 3-2 3 1.1-.2 2.4-.4 3.7-.4 5.8 0 12.2 2.6 13 4 1 1.6 9.1 9.9 10.2 10.4 1 .5 29.4 39.6 13.3 81-14.7 38-39.6 51.4-55.3 51.4-1.4 0-2.7-.1-4-.3-15.2-2.5-24.6-11.5-24.6-11.5 1.9 3.3 5.2 5.6 5.2 5.6s2.8 4.8-.3 4.8a7 7 0 0 1-2.3-.5c-6.4-2.4-12-12-12-12 0 4.3 2.8 9.4.4 9.4-.3 0-.7 0-1.1-.2-4.2-1.4-6.6-9.8-6.6-9.8h-1.7c-4.2 0-16-.6-30.7-7.1C41 144 33.2 122 33.2 122c-1 3.3-2.7 5.5-4 5.5-.9 0-1.6-1-1.8-3.2-.7-5.5 2.3-14.6 2.3-14.6s-4 9.2-6.4 9.2c-.5 0-.9-.4-1.2-1.4-1.6-5.6 7.2-14.7 7.2-14.7s-3.4 1.6-5.1 1.6c-.7 0-1.2-.2-1-1 .2-2.4 6.7-5.8 6.7-5.8A57.6 57.6 0 0 1 85.2 51c13-1 21-8.2 30.4-16.9a54.2 54.2 0 0 1 23.6-12.2m0-2.3h-.2c-1.6.1-14.7 3.4-25 12.8-8.9 8.3-16.6 15.4-29 16.3a67 67 0 0 0-29.7 8.8A60.6 60.6 0 0 0 28 96.2c-2.5 1.4-6.7 4.1-7 7-.2 1 0 1.9.6 2.6.4.3 1 .7 1.8 1-2.3 3.3-4.4 7.8-3.4 11.4.8 2.8 2.6 3 3.4 3 .3 0 1 0 1.8-.4a21 21 0 0 0 0 3.9c.5 4.7 3 5.2 4 5.2 1.4 0 2.8-.8 4-2.3a55.3 55.3 0 0 0 25.4 26.9c15 6.6 27.1 7.3 31.6 7.3 1.1 3 3.6 8.3 7.6 9.7l1.8.3a3.2 3.2 0 0 0 3.2-3.1c2.2 2.3 4.8 4.5 7.6 5.5a9 9 0 0 0 3.1.7c2 0 3-1 3.3-1.7a4 4 0 0 0 .4-2.4 52.9 52.9 0 0 0 20 5.5c9.3 0 20-4.3 29.5-12a97.1 97.1 0 0 0 28-40.8 83.4 83.4 0 0 0-.3-57.5c-2.8-8.1-6.1-14.6-8.5-18.5a31.8 31.8 0 0 0-5.7-8h.1c-1.2-.7-8.5-8.1-9.3-9.5-1.4-2.6-8.6-4.8-14-5l-.1-.6c-.2-1-1-1.7-2-2a42 42 0 0 0-13-.9l-.1-.5c-.4-1-1.4-1.5-2.5-1.5Z" class="cls-19"/><path fill="#8e6e54" d="M179 41.6c-1-.5-9.2-8.8-10.1-10.5-1-1.6-10.3-5-16.7-3.5 0 0 3.3-2.6 2-3-1.3-.3-10.8-2.2-16.4.4 0 0 3-3.4 1.3-3.2-1.6.1-14 3.5-23.5 12.2a96.5 96.5 0 0 1-14.1 11.6s19.5-10.2 33.9-5.4c14.4 4.9 7 10 7 10l-10 10.2s12.1-1 14 6.5c2 7.5-2.3 8.3-2.3 8.3s7.7-.2 7.2 8.6a148 148 0 0 1-11.2 39.6c-4.5 9-12.1 20.6-19.5 19.8-7.3-.7-8.8.3-8.8.3s10 12.9 3.6 12.3c-6.5-.6-10.5-3.7-10.5-3.7s2.7 9.2-.4 7.5a42 42 0 0 1-6.2-4.7s-2.4 2.9-6.3 5c.5 1.8 2.8 8.2 6.4 9.4 4.2 1.4.6-4.4.8-9.1 0 0 5.5 9.5 12 11.9 6.4 2.4 2.5-4.3 2.5-4.3s-3.3-2.3-5.2-5.6c0 0 9.4 9 24.6 11.5 15.2 2.5 43.3-9.7 59.3-51 16-41.5-12.3-80.6-13.3-81.1Z"/><path fill="#a89677" d="M167.1 60c-8.1 19-33.2 52.3-50.7 42.4-17.4-9.9-8-23.1-29.6-35C65 55.6 44.5 75.6 41.6 95c-2.8 19.2 12.8 33.6 14 34.7 1 1-1.5 10.1-3.3 13.4-1.6 3.2-5.2.7-5.4.6 3.5 3.4 7.6 6.6 12.5 8.8 18.6 8.2 32.4 7 32.4 7s2.4 8.5 6.6 9.9c4.2 1.4.6-4.4.8-9.1 0 0 5.5 9.5 12 11.9 6.4 2.4 2.5-4.3 2.5-4.3s-3.3-2.3-5.2-5.6c0 0 9.4 9 24.6 11.5 15.2 2.5 43.3-9.7 59.3-51 13.5-34.8-4.3-67.9-11-78a27 27 0 0 0-14.3 15.4Z"/><path d="M61.7 110.8a17.2 17.2 0 0 0 16.2-2 24 24 0 0 0 3.3-2.7 12.4 12.4 0 0 0 4.1-11 14.2 14.2 0 0 0-18-11.7 20.2 20.2 0 0 0-7.4 3.6c-2 1.7-3.3 4-3.3 6.4-.2 2.5.9 5.1 2.6 7.1 1.7 2 4 3.4 6.5 3.8 1.3.2 2.6 0 3.8-.3 1.3-.4 2.6-1 3.8-1.6 2.2-1.4 4-3.6 4-5.9 0-1.2-.2-2.3-1-3.2a5.3 5.3 0 0 0-2.9-1.9 9 9 0 0 0-3.9 0 6 6 0 0 0-3.3 1.6c-.7.8-1 2-.6 3s1.3 1.9 2.5 2a1 1 0 0 1-.3 2.1A5.4 5.4 0 0 1 63 94c.2-1 .6-1.9 1.2-2.6 1.3-1.5 3-2.3 4.7-2.7a14 14 0 0 1 2.5-.4c1 0 1.8 0 2.7.2a8.2 8.2 0 0 1 6.6 8.1c0 2-.7 3.8-1.7 5.3a13 13 0 0 1-3.8 3.6c-1.5 1-3 1.6-4.6 2.2-1.7.5-3.6.7-5.3.4-3.6-.4-6.9-2.3-9.1-5a14.5 14.5 0 0 1-3.6-9.7c0-1.8.5-3.6 1.3-5.3.9-1.6 2.1-3 3.4-4 1.4-1.2 3-2 4.4-2.7 1.5-.7 3-1.3 4.7-1.7a19 19 0 0 1 10 .2 17.7 17.7 0 0 1 12.4 15 15.8 15.8 0 0 1-5.4 13.6 24.5 24.5 0 0 1-3.9 3 20.6 20.6 0 0 1-14.1 2.8c-1.6-.3-3.1-.7-4.7-1.5a1 1 0 0 1 1-2Z"/><path fill="#918067" d="M194 117.9a80.3 80.3 0 0 0 2.4-9.8l.1-1.1.4-3.2v-.3c.2-1.2.3-2.3.3-3.5v-1l.1-2.4V92l-.2-2.3-.1-1-.3-2.8v-.4l-.5-3.2-.2-.6a85 85 0 0 0-.4-2.5l-.2-.9a89.7 89.7 0 0 0-1.3-5.1l-.2-.9-.7-2.3-.1-.4-1-2.8v-.4l-.9-2.2-.3-.7a114 114 0 0 0-1.6-4.1l-.4-.8-.7-1.6-.3-.6-1-2-.2-.6-.7-1.3-.4-.8A145.8 145.8 0 0 0 184 49l-.4-.8-.4-.6-.5-.8v-.2l-1.4-2a27 27 0 0 0-14.3 15.4c-3.2 7.4-9 17.1-16 25.5a154 154 0 0 1-11 37.8c-4.5 9-12.1 20.6-19.5 19.8-7.3-.7-8.8.3-8.8.3s10 12.9 3.6 12.3c-6.5-.6-10.5-3.7-10.5-3.7s2.7 9.2-.4 7.5a42 42 0 0 1-6.2-4.7s-2.4 2.9-6.3 5v.4l.2.2a31.7 31.7 0 0 0 .3 1v.1l.3.5v.3l.3.5.1.2.3.6v.2l.4.7.1.1 1 1.7.1.1.4.6.2.2a9.3 9.3 0 0 0 1 1l.3.2.5.3.2.2.7.3c4.2 1.4.6-4.4.8-9.1 0 0 5.5 9.5 12 11.9 6.4 2.4 2.5-4.3 2.5-4.3s-3.3-2.3-5.2-5.6c0 0 9.4 9 24.6 11.5 15.2 2.5 43.3-9.7 59.3-51 .5-1.3 1-2.5 1.3-3.7l.4-1.1Z"/><path fill="#d28d96" stroke="#614a3c" stroke-linecap="round" stroke-linejoin="round" stroke-width="2.1" d="M107 215.5s-30.8-30.9-37-83.3l7.4-9.3s12.6 59 29.7 92.6Z"/><path fill="#d28d96" stroke="#614a3c" stroke-linecap="round" stroke-linejoin="round" stroke-width="2.3" d="M69.4 148s-1 14 1.7 25.9c2.7 12 .1 23.1 7.7 25.5S89 172.6 88 162.2a215.6 215.6 0 0 0-10.9-36.3s-7.8 15.5-7.8 22Z"/><path d="M72.4 133a145.7 145.7 0 0 1 6.8 35.7c.2 4 0 8-.3 12a85.7 85.7 0 0 0-2-23.9 157.9 157.9 0 0 0-6.7-23 1.1 1.1 0 1 1 2.2-.8Z" class="cls-19"/><path fill="#a18f70" d="M107 216.6a1 1 0 0 1-.9-.5 277.9 277.9 0 0 1-29.8-93 1 1 0 0 1 2-.8l7.9 10.8.2.5c2.4 33.7 21.5 81 21.7 81.5a1 1 0 0 1-1 1.5Z"/><path d="m77.4 122.9 8 10.8c2.4 34.2 21.7 81.8 21.7 81.8A274.2 274.2 0 0 1 77.4 123m0-2.1a2.1 2.1 0 0 0-2.2 2.3c0 .5 5 47.4 30 93.5a2.1 2.1 0 0 0 3.8-1.9c-.1-.4-19.1-47.7-21.5-81.2 0-.4-.2-.7-.4-1l-8-10.9c-.5-.5-1-.8-1.7-.8Z" class="cls-19"/><path fill="#ceb891" d="M66.6 224.4a1 1 0 0 1-1-.7c-12.5-39.6-2.3-90.7-2.2-91.2l.2-.5a38.4 38.4 0 0 1 13.1-10.8 1 1 0 0 1 1 1.3 341.5 341.5 0 0 0-10 100.8 1 1 0 0 1-1 1.1Z"/><path d="M76.7 122.2c-13.7 48-10 101.1-10 101.1-12.6-39.7-2.2-90.6-2.2-90.6 5.4-7.2 12.2-10.5 12.2-10.5m0-2.1-1 .2c-.7.4-7.4 3.8-13 11-.1.3-.3.6-.3 1-.5 2-10.4 51.9 2.2 91.7a2.1 2.1 0 0 0 4.2-.8 340.7 340.7 0 0 1 10-101c0-1.1-.9-2.1-2-2.1Zm0 4.3Z" class="cls-19"/><path d="m75.5 126.5.7-4c-1.7 1-7.2 4.2-11.7 10.2 0 0-10.4 50.9 2.1 90.6-6.3-22.6-2.2-71.9-1.3-81.3.8-9.4 10.2-15.5 10.2-15.5Z" class="cls-14"/><path fill="none" stroke="#614a3c" stroke-linecap="round" stroke-linejoin="round" stroke-width="2.3" d="M80.7 121s-4-1.3-6.6.4"/><path fill="url(#linear-gradient)" d="M34.1 98.3c-2 0-4.2-1.8-4.5-3.3-1.1-6 3-14.2 4.5-15.8.6-.7 1.7-3.4 2.6-5.6.8-2 1.6-4 2.4-5.4 1.7-3.2 6.8-6 9.5-7.5l1.2-.7c1.5-.8 2.7-1.5 3.8-1.5a2 2 0 0 1 2 1.3c.8 2.2-1.7 5.2-3 6.2a15 15 0 0 0-2.1 5c1.6.4 3.4 1.3 4.2 2.7.5 1 .5 2.1 0 3.1-1.1 2.2-4 2.9-6 3.3l-1.6.5-.5.1c-1.7.6-3.6 1.3-5.1 4-.8 1.3-1.3 3.4-1.9 5.5-.7 3-1.4 5.7-2.9 7-.7.7-1.6 1-2.6 1Z"/><path d="M53.6 59.6c.4 0 .7.2.9.6.5 1.4-1.2 3.8-2.6 5-1.4 1-2.9 6.6-2.9 6.6 2.8.3 5.9 2.2 4.7 4.5-1.2 2.3-5.2 2.5-7 3.2-1.7.6-4.3 1.2-6.2 4.6-2 3.4-2.4 10.3-4.6 12.3-.6.5-1.2.7-1.8.7-1.7 0-3.2-1.5-3.4-2.3-1-5.7 2.9-13.5 4.2-14.8 1.3-1.4 3.5-8 5.2-11.2 1.7-3.2 7.2-6 9.5-7.3 1.6-.9 3-1.9 4-1.9m0-2.3c-1.4 0-2.7.8-4.3 1.7l-.9.5-.4.2c-2.8 1.6-8 4.4-10 8l-2.3 5.4c-.8 1.9-2 4.7-2.4 5.3-1.8 1.7-6 10.3-4.8 16.8.4 2 2.9 4.2 5.6 4.2a5 5 0 0 0 3.4-1.3c1.7-1.6 2.5-4.5 3.3-7.6.5-2 1-4 1.7-5.3 1.3-2.3 2.9-2.8 4.5-3.4l.5-.2 1.5-.3c2.2-.6 5.4-1.3 6.7-4 .7-1.3.7-2.8 0-4.1a7.1 7.1 0 0 0-3.8-3c.5-1.6 1.1-3 1.4-3.3 1.3-1 4.5-4.5 3.3-7.6-.5-1.2-1.6-2-3-2Z" class="cls-18"/><path d="M33.7 85.7c2.7-4.3 5-7 5.7-10.1.8-3.1 13.2-16.4 15.1-14.5v-1c-.6-1.3-2.7.2-5 1.4-2.2 1.2-7.7 4.1-9.4 7.3-1.7 3.1-3.9 9.8-5.2 11.2-1.3 1.3-5.3 9.1-4.2 14.8.1.4.6 1 1.2 1.5-.2-1.3-.6-6.7 1.8-10.6Z" class="cls-14"/><path d="M139 178.7c-1.3 0-2.5-.2-3.7-.6l-3.6-1c-5.2-1.3-10.5-2.7-11.8-5.9-.5-1.3-.3-2.7.7-4.1a1.1 1.1 0 0 1 1.3-.5s2 .6 4 .6c1.6 0 2.8-.3 3.6-1 3.2-2.5 10.4-9.3 11-13.1.7-3.4-.2-3.7-1.6-4-1.8-.6-6.4-2.7-6.2-6.6.2-3.6 3-4 4.2-4.1h.3l.7-.8c1-1.2 2.7-3.2 5.3-4.4 3.2-1.5 8.6-6 10.9-8.7 2-2.5 1.9-3.3 1.9-3.3l-2.2-.9c-3.9-1.4-5-2-5.2-3l-.4-.9c-.5-1.4-.9-2.3-.4-3 .3-.5.5-.8 4.9-1.4a6.2 6.2 0 0 1 1-5.4c3.1-4 5.8-8.3 6-9.3.2-1.1 3.6-12 4.8-13.3 1.6-1.8 2.7-3.2 3.1-3.9l-.1-.1c-2.2-2.6-4.5-5.6-4.4-8l.2-3a22 22 0 0 0-7.4-3h-2.2c-2.1 0-5.2-.3-6.4-3-.5-1-.5-2.1 0-3.2 1.2-2.7 5-4.3 6.2-4.7 2.3-.8 3.8-1.3 5-1.3.7 0 1.3.2 1.9.6.6.4 3 1.3 5 2 .7-1.6 2.3-5.2 2.8-10-1.6-.4-4.4-1.4-4.6-3.9-.2-2.6.5-5.2 1.3-5.9l.5-.4c-7.4-1.3-7.6-2.5-7.7-3.1-.3-1.1.1-2.9 3.3-4.8 1.3-.8 3.4-1.4 5-1.4.8 0 1.4.2 1.9.4 1.5.7 4.5 3.9 6.3 6.2 1.7 2.3 4.8 3.9 6.9 4.4 2 .6 3.3 3.6 4.4 6 .3.8.7 1.8 1 2 .2.3 20.5 24.8 21.5 42 1 16.6-4.6 20.5-7 21.4-.9 4.1-6.5 26.2-20.2 43.5-12.4 15.6-18 18.2-21.4 19.7-.7.3-1.3.6-1.7 1-2.3 1.5-4.8 1.5-6.2 1.5H150l-.1.1c-1.5 1-5.8 3.6-10.9 3.6Zm10.3-40.5c-1.5 0-3.7.5-6.3 2.6-.5.5-.8 1.2-.6 1.8.1.7.6 1.2 1.5 1.4 1.2.4 3.2.7 5 .7 2.2 0 4.9-.4 5.2-2.3a3 3 0 0 0-.7-2.5c-1-1-2.4-1.7-4.1-1.7Z" class="cls-21"/><path d="M166 28.1c.6 0 1 0 1.4.2 1.1.6 4 3.4 5.8 5.9a15 15 0 0 0 7.5 4.8c2.4.7 3.9 6.5 4.9 7.7 1 1.2 20.3 24.8 21.3 41.3 1 16.5-4.7 20-6.8 20.4 0 0-5.2 24.7-20.2 43.7-15 19-20 18.4-22.9 20.4a9.4 9.4 0 0 1-5.5 1.3h-.5c-.6 0-1.1 0-1.4.2-.7.4-5.4 3.5-10.6 3.5-1.1 0-2.2-.1-3.4-.5-6.4-2-17.8-3.5-14-9.3 0 0 2 .7 4.3.7 1.5 0 3.1-.3 4.3-1.2 3-2.5 10.7-9.5 11.5-14 .8-4.3-1-4.8-2.5-5.3-1.5-.4-5.5-2.3-5.3-5.3 0-3.1 2.9-3 3.7-3.2.8-.2 2.4-3.5 6-5.1 3.6-1.7 9.1-6.4 11.4-9 2.2-2.7 2.7-4.5 1.4-5.2-1.3-.6-6.5-2.2-6.7-3-.2-.9-1.2-2.8-1-3.1.3-.4 5.6-1 5.6-1s-1.8-2.9.4-5.7c2.1-2.9 5.8-8.2 6.1-9.8a82 82 0 0 1 4.5-12.7c.9-1 4-4.4 3.6-5-.4-.5-4.8-5-4.6-7.7l.1-3.8s-5.7-3.5-8.5-3.5h-2.2c-2.2 0-4.4-.3-5.4-2.3-1.1-2.7 2.2-5.1 5.5-6.3 2.2-.8 3.6-1.2 4.7-1.2.5 0 .9 0 1.2.3 1.2.8 6.2 2.4 6.2 2.4s3-4.8 3.5-12.3c0 0-4.5-.5-4.7-3-.2-2.4.6-4.6 1-5l2.7-1.8s-9.4-1.5-9.6-2.7c-.3-1.3 1.1-2.6 2.8-3.6 1.1-.7 3-1.2 4.5-1.2M149 145.9c2.9 0 5.8-.8 6.2-3.3.5-2.8-2.1-5.5-6-5.5-2 0-4.5.8-6.9 2.8-1.8 1.6-1.5 4.5 1.3 5.3 1.1.3 3.3.7 5.4.7m17-120.1c-1.8 0-4.1.6-5.6 1.6-3.7 2.2-4.2 4.4-3.9 5.9.4 2 2.5 2.7 6.7 3.6h.1c-.7 1.6-1 4-.9 5.7.2 2.4 2.3 3.9 4.5 4.6a28 28 0 0 1-2.1 7.7l-3.8-1.5c-.7-.5-1.6-.7-2.5-.7-1.4 0-3 .5-5.4 1.3-1.3.5-5.5 2.2-6.9 5.4a5 5 0 0 0 0 4c1.8 3.8 6.1 3.8 7.6 3.8l2-.1c1.2 0 4 1.2 6.3 2.5L162 72c-.2 2.6 1.9 5.4 4.2 8.2l-2.6 3a71 71 0 0 0-5 14c-.3.9-3 5-5.8 8.7a7.3 7.3 0 0 0-1.5 5.1c-3.7.6-4 1-4.4 1.7-.9 1.2-.4 2.6.3 4.1l.3.9c.4 1.6 2 2.2 5.9 3.7l1.2.4c-.2.5-.6 1-1.4 2-2.2 2.6-7.4 7-10.5 8.4a16.7 16.7 0 0 0-6 5c-3.3.6-5 2.3-5.1 5.3-.2 4.4 4.5 7 7 7.6l.9.4s.3.5 0 2.4c-.6 3-6.7 9.3-10.7 12.5-.8.6-2 .7-2.9.7-1.9 0-3.6-.6-3.6-.6a2.3 2.3 0 0 0-2.7 1c-1.4 2.2-1.2 4-.7 5.1 1.4 3.8 7 5.2 12.5 6.7 1.3.3 2.5.6 3.5 1 1.3.3 2.7.5 4.1.5 5.4 0 10-2.8 11.5-3.7h1c1.4 0 4.3 0 6.8-1.7l1.6-.8c3.5-1.6 9.3-4.2 21.8-20 13.5-17.1 19.1-38.1 20.4-43.5 2.8-1.4 8-6.2 7-22.2-1-17.7-21.6-42.5-21.8-42.7l-.8-1.8c-1.1-2.6-2.5-5.8-5.1-6.6-2.1-.5-4.9-2-6.3-4a27 27 0 0 0-6.7-6.5c-.7-.3-1.4-.5-2.3-.5Zm-17 117.8c-1.8 0-3.7-.3-4.8-.7-.2 0-.7-.2-.7-.5 0-.2 0-.5.3-.7 2.3-2 4.2-2.3 5.5-2.3 1.3 0 2.5.5 3.2 1.3.3.3.6.8.5 1.5-.2 1.3-3.4 1.4-4 1.4Z" class="cls-18"/><path fill="url(#linear-gradient-2)" d="M158.8 32.9c.2 1.2 9.6 2.7 9.6 2.7l-2.7 1.9c-.4.3-1.2 2.5-1 5 .2 2.4 4.7 2.9 4.7 2.9-.3 5-1.8 8.9-2.7 10.8s7.5 1.2 10.8 5.4c3.3 4.3 1 26.5 3.2 36.3 2.3 9.8-6.8 31.4-17 45.6-10.3 14.3-16.9 20.3-28.2 18.8-2 2-4 3.9-5.3 4.9-3 2.4-8.6.5-8.6.5-3.8 5.8 7.6 7.4 14 9.3 6.5 2 13.1-2.5 14-3 .9-.5 4.5.5 7.4-1.5 3-2 7.9-1.4 23-20.4 15-19 20.1-43.7 20.1-43.7 2-.4 7.8-3.9 6.8-20.4s-20.3-40.1-21.3-41.3c-1-1.2-2.5-7-4.9-7.7a15 15 0 0 1-7.5-4.8 25.8 25.8 0 0 0-5.8-5.9c-1.2-.6-4.2 0-5.8 1-1.7 1-3 2.3-2.8 3.6Z"/><path d="M166 29.2c.6 0 .8.1.9.2.8.4 3.5 2.9 5.4 5.5a16 16 0 0 0 8.1 5.3c1 .2 2.3 3 3 4.6.5 1.2.9 2.1 1.3 2.6.2.3 20 24.1 21 40.7.9 14-3.3 18.6-5.9 19.2-.4.1-.7.5-.8 1 0 .2-5.3 24.5-20 43-12 15.3-17.3 17.7-20.5 19.1l-2.1 1.1a8.3 8.3 0 0 1-4.9 1.2h-.5c-.8 0-1.5 0-2 .3 0 0-.2 0-.3.2-1.3.8-5.3 3.2-9.7 3.2-1 0-2-.2-3-.5l-3.7-1c-4-1-9.4-2.4-10.2-4.5 0-.2-.3-.6 0-1.3 1 .2 2.3.4 3.8.4 2 0 3.8-.5 5-1.4 2.8-2.3 11-9.7 12-14.6.8-5-1.3-6-3.4-6.7-1.4-.4-4.6-2-4.5-4.2 0-1.5 1-1.8 2.2-2h.7c.6-.2 1-.8 1.7-1.6 1-1 2.4-2.7 4.5-3.7a45 45 0 0 0 11.7-9.3c2-2.2 2.7-4 2.4-5.2-.1-.8-.6-1.3-1.3-1.7l-2.3-1c-1.2-.4-3.3-1.2-3.9-1.6a18.7 18.7 0 0 0-.7-1.8l4.4-.6a1.1 1.1 0 0 0 .8-1.7c0-.1-1.2-2.3.4-4.4.2-.4 6-8 6.4-10.3.3-1.5 3.5-11.2 4.2-12.1 4.5-5 4-5.7 3.6-6.4a9 9 0 0 0-.6-.7c-2.6-3-3.9-5.2-3.8-6.3l.2-3.9c0-.4-.2-.8-.6-1a25.7 25.7 0 0 0-9.3-3.6h-2c-2.5 0-3.8-.5-4.3-1.7-.2-.4-.2-.8 0-1.3.5-1.2 2.5-2.6 4.8-3.4 2.1-.7 3.4-1.2 4.3-1.2l.6.2a41.2 41.2 0 0 0 6.8 2.5c.4 0 .8-.2 1-.5.1-.2 3.2-5.2 3.7-12.8 0-.6-.5-1.2-1-1.2-1.2-.2-3.6-.8-3.7-2-.2-2 .4-3.6.6-4l2.5-1.8a1.1 1.1 0 0 0-.5-2c-3.4-.6-7.5-1.5-8.6-2 .2-.6.9-1.3 2.3-2.2 1-.6 2.7-1 3.9-1M149 147c5.8 0 7.1-2.6 7.4-4.2.2-1.6-.2-3.1-1.3-4.4a7.6 7.6 0 0 0-5.8-2.5c-1.8 0-4.7.6-7.7 3.2a4.2 4.2 0 0 0-1.5 4 4.3 4.3 0 0 0 3.2 3.2c1.2.3 3.4.7 5.7.7M166 28.1c-1.4 0-3.4.5-4.5 1.2-1.7 1-3 2.3-2.8 3.6.2 1.2 9.6 2.7 9.6 2.7l-2.7 1.9c-.4.3-1.2 2.5-1 5 .2 2.4 4.7 2.9 4.7 2.9-.5 7.5-3.5 12.3-3.5 12.3s-5-1.6-6.2-2.4c-.3-.2-.7-.3-1.2-.3-1 0-2.5.4-4.7 1.2-3.3 1.2-6.6 3.6-5.5 6.3 1 2 3.2 2.4 5.5 2.4l2-.1c2.9 0 8.6 3.5 8.6 3.5l-.1 3.8c-.2 2.7 4.2 7.2 4.6 7.7.3.6-2.7 4-3.6 5a82 82 0 0 0-4.5 12.7c-.3 1.6-4 7-6.1 9.8-2.2 2.8-.4 5.7-.4 5.7s-5.3.6-5.5 1c-.3.3.7 2.2.9 3 .2.9 5.4 2.5 6.7 3.1 1.3.7.8 2.5-1.4 5.1a43.6 43.6 0 0 1-11.4 9c-3.6 1.7-5.2 5-6 5.2-.8.2-3.6 0-3.7 3.2-.2 3 3.8 4.9 5.3 5.3 1.5.5 3.3 1 2.5 5.4-.8 4.4-8.4 11.4-11.5 13.9a6.9 6.9 0 0 1-4.3 1.2c-2.3 0-4.3-.7-4.3-.7-3.8 5.8 7.6 7.4 14 9.3 1.2.4 2.3.5 3.4.5 5.2 0 9.9-3.1 10.6-3.5.3-.2.8-.2 1.4-.2h.5c1.6 0 3.7 0 5.5-1.3 3-2 7.9-1.4 23-20.4 15-19 20.1-43.7 20.1-43.7 2-.4 7.8-3.9 6.8-20.4s-20.3-40.1-21.3-41.3c-1-1.2-2.5-7-4.9-7.7a15 15 0 0 1-7.5-4.8 25.8 25.8 0 0 0-5.8-5.9 3 3 0 0 0-1.3-.2ZM149 145.9c-2.1 0-4.3-.4-5.4-.7-2.8-.8-3.1-3.7-1.3-5.3 2.4-2 4.9-2.8 7-2.8 3.8 0 6.4 2.7 6 5.5-.5 2.5-3.4 3.3-6.3 3.3Z" class="cls-21"/><path d="M167.1 55.3c-.6 1.5-1.2 2.4-1.2 2.4s-5-1.6-6.2-2.4c-1-.7-2.6-.2-5.9 1-3.3 1-6.6 3.5-5.5 6.2 1.2 2.6 4.7 2.4 7.4 2.3 2.8-.1 8.7 3.5 8.7 3.5l-.1 3.8c-.2 2.7 4.2 7.2 4.6 7.7.3.6-2.7 4-3.6 5a82 82 0 0 0-4.5 12.7c-.3 1.6-4 7-6.1 9.8-2.2 2.8-.4 5.7-.4 5.7s-5.3.6-5.5 1c-.3.3.7 2.2.9 3 .2.9 5.4 2.5 6.7 3.1 1.3.7.8 2.5-1.4 5.1a43.6 43.6 0 0 1-11.4 9c-3.6 1.7-5.2 5-6 5.2-.8.2-3.6 0-3.7 3.2-.2 3 3.8 4.9 5.3 5.3 1.5.5 3.3 1 2.5 5.4-.8 4.4-8.4 11.4-11.5 13.9-3 2.4-8.6.5-8.6.5-.4.5-.6 1-.7 1.4 11.3 5.2 20-11.3 21.6-13.2 1.5-1.8.2-7.1.2-7.1s-6-3.7-6.2-6c-.2-2.2 3.5-2 3.8-3.2.4-1.2 7.2-6.5 12.2-9.2 5-2.8 7.8-10 7.8-10l-5-4.3c-2-1.8 3.2-4.8 3.3-5.4.2-.5-.4-3.5 2-5.4 2.3-2 2.9-9.1 4.9-14.1 2-5 7-10.6 7-10.6s-2-3.3-4-6c-2.1-2.8-.6-6.8-.6-6.8s-8.8-4.8-12-5.1c-3.3-.4-7.8-1.3-3.3-4.1 4.6-2.8 13.9 1.7 13.9 1.7l.6-5Z" class="cls-14"/><path fill="#b7eae8" stroke="#3c7bd6" stroke-linecap="round" stroke-linejoin="round" stroke-width="2.3" d="M138.6 50c-.7 2.8-2.9 6.6-2 7.2.9.6 10.2-4.2 12.3-5.5 2-1.3 2.5-7-.8-8-3.4-.9-8.1 1.5-9.5 6.3Z"/><path d="M146.1 46c.6.5.2 1.9-.8 3-1 1.2-2.4 1.7-3 1.2-.6-.5-.2-1.9.9-3 1-1.2 2.3-1.7 3-1.2Z" class="cls-14"/><path d="M101.1 72.6a14.8 14.8 0 0 0 10.1-3.7c.5-.4.4-1.2 0-1.6-.5-.5-1.1-.4-1.6 0a14 14 0 0 1-4 2.4c-1.6.4-3 .5-4.5.6-.6 0-1.1.5-1.1 1.2 0 .6.5 1.2 1.1 1.1ZM102.8 64.4c2.2-1.2 4.4-2.6 6.2-4.4.4-.5.4-1.2 0-1.7-.5-.4-1.2-.4-1.7 0a13.3 13.3 0 0 1-1.6 1.5c-.2.2 0 0 0 0l-.5.4a25.5 25.5 0 0 1-3.6 2.2c-.5.3-.7 1-.4 1.6.3.5 1 .7 1.6.4ZM127.9 34.5a24 24 0 0 1 20.4-3.4c1.4.4 2-1.8.6-2.2-7.6-2.1-15.7-1-22.2 3.6-1.2.9 0 2.9 1.2 2ZM139.4 38.8a7 7 0 0 1 7.5-.4c1.3.7 2.4-1.2 1.1-2a9.3 9.3 0 0 0-9.8.4c-.5.3-.7 1-.4 1.6.3.5 1 .7 1.6.4ZM103.1 57.6l2.2-1.4.5-.7-.1-.9-.7-.5-.9.1-2.2 1.4c-.2.1-.4.4-.5.7l.1.8c.2.3.4.5.7.6l.9-.1ZM124.2 95.5c5.3 1.8 10-2.5 12.9-6.4.3-.6 0-1.3-.5-1.6-.5-.4-1.2-.1-1.5.4-2.3 3.2-6 6.8-10.3 5.3-.6-.2-1.3.3-1.4.8-.2.7.2 1.3.8 1.5Z" class="cls-29"/><path fill="url(#linear-gradient-3)" d="M103.6 206.5c-.6-1.2-3.6-7.5-2.8-9.3.2-.4.4-.6.7-.7h1a76.3 76.3 0 0 1 13.6 2.2c1.3.2 4.5.3 7.7.4 8.4.3 9.2.5 9.4 1.3v.2l-.2.3c-.4.7-2.6 1-10 2.2l-7.5 1.4-11.3 2.4h-.4l-.2-.4Z"/><path d="M102.5 197c3 0 10.7 1.8 13.5 2.3 3.2.5 16.4.4 16.6 1.2.2.9-12.3 2.3-17.2 3.4l-11.3 2.4s-4.3-8.7-2.4-9.2l.8-.1m0-1.2c-.5 0-.8 0-1.1.2-.5.1-.9.4-1.1 1-.9 1.8 1.4 7 2.8 9.8l.3.8 1-.2 11.2-2.4 7.6-1.3c8.3-1.3 9.8-1.7 10.3-2.5.2-.3.3-.6.2-1-.3-1.2-1-1.3-10-1.6a81 81 0 0 1-7.5-.5c-.7 0-1.7-.3-3-.5-3.5-.8-8.4-1.8-10.7-1.8Z" class="cls-18"/><path d="M102.5 198.1a78 78 0 0 1 13.3 2.3c1.4.3 4.6.4 7.9.5h2.2l-3.1.5a155 155 0 0 0-18 3.6 26.3 26.3 0 0 1-2.4-6.9h.1m0-1.1h-.8c-1.9.6 2.4 9.3 2.4 9.3l11.3-2.4c5-1.1 17.4-2.5 17.2-3.4-.2-.8-13.4-.7-16.6-1.2-2.8-.5-10.6-2.3-13.5-2.3Z" class="cls-14"/><path fill="url(#linear-gradient-4)" d="M89.2 161.6c-1.4-3-1.3-8.6-1.3-8.9v-.5h.6a747.7 747.7 0 0 0 14.6-.3c1.9 0 3.2.5 4.3.8.8.3 1.5.5 2.2.5h.5c1.5-.3 8.3-.8 13.2-.8 4.9 0 5.4.5 5.5 1.1v.7c-.8 1-4.8 1.6-12.6 2.6l-3.1.4a7 7 0 0 0-1.7.9c-1 .5-1.9 1.1-2.9 1.1h-.1c-1.5 0-12.8 1.8-18.6 2.8h-.5l-.1-.4Z"/><path d="M103 152.5c3.3 0 4.7 1.3 6.6 1.3h.6c1.4-.3 8.2-.8 13-.8 2.8 0 5 .2 5 .7.4 1.4-13.9 2.6-15.3 3-1.4.3-3 2-4.4 2a1.8 1.8 0 0 1-.1 0c-1.9 0-18.7 2.7-18.7 2.7-1.3-2.9-1.2-8.7-1.2-8.7s10.2 0 14-.2h.5m0-1.1h-.4l-14.1.2h-1.2v1.1c0 .3 0 6.1 1.3 9.2l.4.8.9-.2a379.6 379.6 0 0 1 18.6-2.7c1.2 0 2.2-.7 3.2-1.2.5-.4 1-.7 1.5-.8l3.1-.4c9.4-1.2 12.1-1.8 12.9-2.9.2-.3.3-.7.2-1.1-.3-1.2-1.7-1.6-6.1-1.6a137.4 137.4 0 0 0-13.7.8c-.7 0-1.3-.2-2-.4-1.2-.4-2.5-.8-4.6-.8Z" class="cls-18"/><path d="M103 153.7c1.7 0 2.8.3 3.9.7.8.3 1.7.5 2.7.5h.7c1.4-.2 8-.7 12.7-.8l-7 1-3.4.4c-.7.2-1.4.7-2.1 1.1-.7.4-1.5.9-2 .9h-.1c-1.7 0-14.2 2-18 2.6a27 27 0 0 1-.8-6.2 653.5 653.5 0 0 0 13.4-.2m0-1.2h-.4c-3.9.2-14.1.2-14.1.2s-.1 5.8 1.2 8.7c0 0 16.8-2.8 18.7-2.8a1.3 1.3 0 0 1 .1 0c1.5 0 3-1.6 4.4-2 1.4-.3 15.7-1.5 15.4-3-.1-.4-2.3-.6-5-.6a135.8 135.8 0 0 0-13.7.8c-1.9 0-3.3-1.3-6.6-1.3Z" class="cls-14"/><path d="M97.8 156.6c1.4-.2 2.6.3 2.7 1.1.1.8-.9 1.6-2.2 1.8-1.4.2-2.6-.2-2.7-1-.2-.8.9-1.7 2.2-1.9Z" class="cls-14"/><path fill="url(#linear-gradient-5)" d="M96 185.5c-1.2-3-4.8-13.3-3.5-15.1a1 1 0 0 1 1-.4h.8c2 0 6.6-.4 11.1-.9 4.2-.4 8.2-.7 10-.7.6 0 1.3 0 1.4.5.1 1-1.1 1.5-5.3 2.5l-1 .2-7.3 2.8c2.7-.2 6.3-.5 7.5-.8a57 57 0 0 1 8.6-.1l4.7-.3c2.6-.3 5.6-.6 7.4-.6 1.2 0 1.8.1 2 .7.1.3 0 .6-.1.9-.4.6-1.5 1.5-6.9 2.5-4.4 1-8.6 2.2-9.7 2.6-.6 1-2.9 1.8-6.5 2.6-3.2.7-13.5 4-13.6 4l-.5.1-.2-.5Z"/><path d="M115.4 169h.8c.1.8-4.2 1.7-5.9 2-1.7.5-10.6 4.3-10.6 4.3s9-.6 11.1-1.1a56.1 56.1 0 0 1 8.5-.1c2 0 9-.9 12.1-.9.8 0 1.4 0 1.5.2.2.9-1.4 1.7-6.6 2.8-5.2 1-10 2.6-10 2.6-.2 1-3 1.8-6.3 2.5-3.2.7-13.6 4-13.6 4s-5.3-14.8-3.1-14.8h1c4 0 17.5-1.6 21-1.6m0-1.1c-1.7 0-5.7.4-10 .8a170 170 0 0 1-12 .8c-.5 0-1 .2-1.3.6-1.3 1.8 1.1 9.6 3.4 15.7l.3 1 1-.3c.2 0 10.5-3.3 13.6-4 3.7-.8 6-1.5 6.8-2.7 1.3-.4 5.3-1.6 9.5-2.4 5.2-1 6.7-1.9 7.2-2.8.3-.5.3-1 .1-1.4-.3-1-1.6-1-2.5-1-1.8 0-4.8.2-7.5.5l-4.6.4h-.2a57 57 0 0 0-8.5 0l-3.7.6 3.7-1.4 1-.3c4-1 6-1.5 5.7-3-.1-1.1-1.3-1.1-2-1.1Z" class="cls-18"/><path d="m108.2 170.6-9 3.6-4.5 1.9c-.5-2-.8-3.5-.8-4.4h.4c2.1 0 6.8-.4 11.3-.8l2.6-.3m20.4 3.9-2.5.6c-5.2 1-10 2.5-10.2 2.6l-.6.2-.1.6c-.2.2-1.3.8-5.4 1.7-2.7.6-10 2.8-12.6 3.7-.9-2.4-1.7-5-2.3-7.2l4.8-.3c.4 0 9.3-.6 11.4-1 .5-.2 1.5-.4 3.5-.4a55.1 55.1 0 0 1 4.7.2l4.9-.3 4.4-.4m-13.2-5.6c-3.6 0-17 1.7-21.1 1.7a5.6 5.6 0 0 1-1 0c-2.2 0 3.1 14.7 3.1 14.7s10.4-3.3 13.6-4c3.3-.7 6-1.4 6.3-2.5 0 0 4.8-1.6 10-2.6s6.8-2 6.6-2.8c-.1-.1-.7-.2-1.5-.2-3 0-10.2.9-12 .9h-.4a56.1 56.1 0 0 0-8.2.1c-2 .5-11.1 1-11.1 1s9-3.7 10.6-4.1c1.7-.4 6-1.3 6-2-.1-.1-.4-.2-1-.2Z" class="cls-14"/><path d="M105.1 178.6c2-.3 3.7 0 3.8 1 .2.8-1.3 1.8-3.2 2.1-2 .4-3.7 0-3.8-1-.2-.8 1.3-1.8 3.2-2Z" class="cls-14"/><use xlink:href="#reuse-0" class="cls-23"/><use xlink:href="#reuse-0" class="cls-9"/><path d="M41.4 33.7s-4-.9-2.7 4.7M46.1 34.6s1.8 0 1.8 3.8" class="cls-4"/><ellipse cx="40.9" cy="33" rx="7.1" ry="4"/><path d="M38 35s-4-1-2.7 4.7M42.7 35.9s1.9 0 1.9 3.8" class="cls-4"/><use xlink:href="#reuse-1" class="cls-22"/><use xlink:href="#reuse-1" class="cls-9"/><use xlink:href="#reuse-2" class="cls-23"/><use xlink:href="#reuse-2" class="cls-5"/><path d="M103.5 9.7s3.2-.9 2.2 4.3M99.6 10.5S98 10.5 98 14" class="cls-8"/><ellipse cx="103.9" cy="9" rx="5.8" ry="3.7"/><path d="M106.2 10.8s3.3-.8 2.3 4.3M102.4 11.7s-1.5 0-1.5 3.4" class="cls-8"/><use xlink:href="#reuse-3" class="cls-22"/><use xlink:href="#reuse-3" class="cls-5"/><use xlink:href="#reuse-4" class="cls-23"/><use xlink:href="#reuse-4" class="cls-7"/><path d="M123.4 52.7s-4.2-1-2.9 5.5M128.4 53.8s1.9 0 1.9 4.4" class="cls-6"/><path d="M130.3 51.8c0 2.6-3.4 4.7-7.5 4.7s-7.4-2-7.4-4.7 3.3-4.7 7.4-4.7 7.5 2.1 7.5 4.7Z"/><path d="M119.9 54.2s-4.2-1.1-3 5.4M124.8 55.2s2 0 2 4.4" class="cls-6"/><use xlink:href="#reuse-5" class="cls-22"/><use xlink:href="#reuse-5" class="cls-7"/></g></svg>