<svg xmlns="http://www.w3.org/2000/svg" xmlns:xlink="http://www.w3.org/1999/xlink" id="Layer_2" data-name="Layer 2" viewBox="0 0 123.96 107.17">
  <defs>
    <linearGradient id="linear-gradient" x1="79.08" x2="79.08" y1="72.48" y2="82.03" gradientTransform="rotate(-3.33 -1140.7515 84.4235)" gradientUnits="userSpaceOnUse">
      <stop offset="0" stop-color="#dbffff"/>
      <stop offset="1" stop-color="#339ed3"/>
    </linearGradient>
    <linearGradient xlink:href="#linear-gradient" id="linear-gradient-2" x1="82.13" x2="82.13" y1="164.15" y2="130.49"/>
    <linearGradient id="linear-gradient-3" x1="32.07" x2="32.07" y1="148.24" y2="127.21" gradientTransform="rotate(-5.04 -966.83 58.7568)" gradientUnits="userSpaceOnUse">
      <stop offset="0" stop-color="#dbffff"/>
      <stop offset="1" stop-color="#1376a6"/>
    </linearGradient>
    <linearGradient xlink:href="#linear-gradient-3" id="linear-gradient-4" x1="18.39" x2="18.39" y1="148.25" y2="127.21"/>
    <linearGradient xlink:href="#linear-gradient-3" id="linear-gradient-5" x1="5.12" x2="5.12" y1="148.39" y2="127.2"/>
    <style>
      .cls-1{fill:#5b2307}.cls-3{fill:#fff}.cls-9{fill:#3c7bd6}.cls-11{stroke:#4c1a09;stroke-width:.6px;stroke-linecap:round;stroke-linejoin:round;fill:none}.cls-15{fill:#8e5424}.cls-16{fill:#b7eae8}.cls-18{fill:#4c1a09}.cls-21{fill:#a36731}.cls-23{fill:#212121}.cls-25{fill:#755b46}
    </style>
  </defs>
  <g id="Layer_1-2" data-name="Layer 1">
    <path d="M47.6 99.84c-.76 0-1.4-.41-1.67-1.06-.3-.72-.08-1.56.57-2.21.56-.56 2.12-1.62 3.94-2.79-.44.02-.84.04-1.21.04-1.39 0-3-.14-3.16-1.19-.2-1.24 1.97-2 2.4-2.14 2.3-.74 8.12-1.63 8.36-1.66 1.85-.31 3.75-.49 5.34-.49 3.29 0 3.94.71 4.15 1.24.45 1.2-1.27 2.59-3.26 4.2-.56.45-1.1.89-1.54 1.29-.38.35-.85.81-1.35 1.31-2.06 2.04-3.38 3.29-4.31 3.29-.44 0-.78-.26-.92-.68-.28-.87.49-2.27 1.41-3.55-1.14.61-2.41 1.32-3.6 1.97-1.76.97-3.28 1.82-4.02 2.17-.38.18-.76.28-1.13.28Z" class="cls-25"/>
    <path d="M62.17 88.93c1.93 0 3.36.26 3.58.85.4 1.07-2.92 3.26-4.65 4.82-1.48 1.34-4.24 4.44-5.26 4.44-.17 0-.28-.08-.34-.27-.43-1.32 3.17-5.24 3.17-5.24-2.45 1.15-8.55 4.68-10.21 5.48-.31.15-.6.22-.87.22-1.13 0-1.67-1.24-.68-2.24 1.23-1.23 8.21-5.41 8.16-5.41s-3.84 1.53-3.84 1.53c-.79.06-1.45.09-2.01.09-4.06 0-2.58-1.51-.58-2.16 2.27-.74 8.27-1.64 8.27-1.64 1.82-.31 3.7-.48 5.25-.48m0-1.21c-1.62 0-3.56.18-5.45.5-.23.03-6.1.92-8.44 1.68-.73.23-3.08 1.13-2.81 2.81.21 1.33 1.75 1.62 2.91 1.68-1.08.73-1.92 1.34-2.32 1.74-.82.82-1.09 1.92-.7 2.87.37.88 1.22 1.43 2.23 1.43.46 0 .93-.11 1.39-.34.75-.36 2.28-1.21 4.05-2.19.54-.3 1.09-.6 1.64-.91-.36.8-.51 1.54-.32 2.14.22.68.79 1.1 1.49 1.1 1.12 0 2.36-1.11 4.74-3.46.5-.49.97-.96 1.33-1.29.42-.38.95-.81 1.52-1.27 2.26-1.83 4.05-3.27 3.45-4.88-.43-1.13-1.88-1.63-4.71-1.63Z" class="cls-18"/>
    <path d="M48.68 95.01s2.22.51 2.19 3.16m1.36-5.15s3.15-.69 3.21 2.53m-5.67-5.25s1.64.77 1.02 3.23m6.02 1.5s2.19-.73 3.12 1.65m-6.17-7.3c.12.18 1.67.05 1.96 1.81 0 0 2.74-.82 3.51 1.58 0 0 2.73-.92 3.38 1.19" class="cls-11"/>
    <path d="M86.91 106.57c-.44 0-.8-.2-1.04-.56-1.04-1.63 1.03-5.05 2.83-7.51-.53.27-1.17.61-1.83.96-2.37 1.27-3.56 1.87-4.16 1.87-.32 0-.58-.16-.7-.43-.2-.46.1-.92.72-1.59 2.61-2.83 9.61-6.67 10.34-7.07.95-.78 7.55-6.13 9.91-6.13.51 0 .8.21.96.39.25.28.34.67.29 1.15-.31 2.77-2.94 13.58-6.09 13.71-.61 0-1.05-.22-1.33-.63-.51-.74-.42-2.06-.17-3.27-.24.28-.5.58-.76.89-4 4.66-7.2 8.22-8.97 8.22Z" class="cls-25"/>
    <path d="M103 86.72c.46 0 .72.25.65.87-.41 3.6-3.17 13.08-5.51 13.18h-.06c-2.25 0-.12-5.64-.12-5.64-1.68 1.53-8.75 10.84-11.04 10.84-.22 0-.4-.09-.53-.28-1.39-2.18 4.85-9.38 4.85-9.38l-1.95 1.27c-1.62.68-5.72 3.17-6.57 3.17-.28 0-.2-.28.47-1.01 2.66-2.88 10.23-6.98 10.23-6.98s7.31-6.03 9.57-6.03m0-1.21c-2.46 0-8.35 4.67-10.25 6.23-.97.53-7.82 4.32-10.44 7.16-.49.53-1.23 1.33-.83 2.25.21.49.69.79 1.25.79.71 0 1.77-.51 4.1-1.76-1.41 2.27-2.39 4.69-1.46 6.15.34.53.9.84 1.54.84 1.8 0 4.34-2.53 8.93-7.85.02.67.15 1.29.48 1.76.4.58 1.02.89 1.75.89h.11c3.97-.16 6.5-12.82 6.66-14.25.09-.83-.19-1.34-.44-1.62-.24-.27-.68-.59-1.41-.59Z" class="cls-18"/>
    <path d="M86.22 102.78s3.1-1.54 4.64 1.19m-2.67-4.86s5.11-3.06 6.66.4m-9.89-2.13s1.44.55 1.21 2.36m10.26-1.4s2.15-3.09 5.21-1.88m-11.56-1.78s1.29-.77 2.09.46c0 0 3.74-2.53 6.15-1.23 0 0 2.82-3.46 5.09-2.27" class="cls-11"/>
    <path d="M61.89 91.78c-1.13 0-2.23-.17-3.28-.49-6.62-2.07-7.33-8.97-7.34-9.04-.03-.3.17-.57.46-.64 1.01-.24 2.1-.36 3.23-.36 7.95 0 16.2 5.74 16.54 5.98.15.11.25.28.26.47s-.07.37-.22.49c-.18.15-4.44 3.59-9.66 3.59Z" class="cls-16"/>
    <path d="M54.96 81.86c7.85 0 16.2 5.87 16.2 5.87s-4.21 3.45-9.28 3.45c-1.01 0-2.05-.14-3.1-.46-6.31-1.98-6.92-8.52-6.92-8.52 1.01-.24 2.05-.34 3.09-.34m0-1.21c-1.18 0-2.31.13-3.37.37-.59.14-.98.69-.93 1.29.03.3.76 7.37 7.76 9.56 1.1.35 2.27.52 3.46.52 5.43 0 9.85-3.57 10.04-3.72.29-.24.46-.6.44-.98s-.2-.73-.51-.94c-.35-.25-8.75-6.09-16.89-6.09Z" class="cls-9"/>
    <path d="M81.58 89.3c-.47 0-.95 0-1.43-.03-23.99-.89-34.76-13.17-36.14-21.21-.66-3.86-.37-7.29.13-9.85-.45.41-1.12.91-1.75.91-.33 0-.62-.12-.84-.35-.38-.39-.54-1.03-.52-2.04.05-2.19 1.33-4.58 2.43-6.24l-.07.04c-.81.51-1.46.92-2.03.92-.33 0-1.11-.15-1.13-1.5-.03-2.17 2.57-4.38 3.61-5.17-.64-1.69-2.66-7.92-1.88-17.16.73-8.66 6.98-15.26 9.61-17.68-1.22-.18-2.3-.63-2.5-1.51-.12-.53.06-1.32 1.6-2.05.98-.47 2.25-.78 3.48-.99-.93-.31-1.64-.73-1.79-1.3-.1-.36-.05-.9.73-1.44.66-.46 1.54-.69 2.64-.69 1.46 0 3.06.41 4.32.82-.32-.52-.5-1.05-.38-1.46.1-.35.39-.6.79-.69.1-.02.21-.03.33-.03 1.36 0 3.36 1.71 4.08 2.38 1.24-.1 2.47-.16 3.65-.16 13.69 0 23.88 6.92 29.46 20 2.63 6.16 7.59 8.83 13.34 11.91 6.23 3.34 10.1 9.21 10.4 9.88.17.39.05.67-.03.81-.11.17-.33.37-.78.37h-.05c1.51 2.6 2.04 6.27 2.08 7.03.01.24-.06.45-.21.61-.11.11-.3.25-.62.25-.1 0-.21-.01-.32-.04 1.16 3.09 1.04 7.16.27 8.02-.59.67-3.15 5.88-3.29 6.53-.11 1.07-14.43 21.1-37.2 21.1Z" class="cls-21"/>
    <path d="M60.79 1.21c1.36 0 3.87 2.4 3.87 2.4 1.34-.12 2.63-.18 3.87-.18 19.14 0 26.39 13.73 28.91 19.64 2.68 6.29 7.68 9.03 13.61 12.21 5.93 3.18 9.78 8.8 10.13 9.59.11.24-.02.33-.26.33-.52 0-1.56-.42-1.56-.42 2.25 2.29 2.95 7.39 2.99 8.09 0 .16-.08.22-.22.22-.49 0-1.62-.72-1.62-.72 1.88 2.91 1.78 8.16 1.12 8.9-.66.74-3.37 6.24-3.43 6.85-.06.6-14.09 20.58-36.6 20.58-.46 0-.94 0-1.41-.03C56.86 87.81 46 75.94 44.62 67.96c-1.37-7.98 1.49-14.19 1.49-14.19-1.32 1.49-1.91 3.54-1.91 3.54s-1.04 1.22-1.8 1.22c-.45 0-.79-.42-.76-1.77.09-3.63 3.87-7.98 3.87-7.98-1.7.53-3.34 2.09-4.14 2.09-.32 0-.51-.25-.52-.91-.03-2.32 3.74-4.95 3.74-4.95s-2.91-6.68-2.01-17.32c.89-10.63 10.53-18.25 10.53-18.25h-.25c-2.87 0-4.49-1.27-1.91-2.5 2.65-1.26 7.68-1.35 7.68-1.35s-7.7-.66-5.18-2.42c.61-.42 1.41-.59 2.29-.59 2.77 0 6.23 1.61 6.23 1.61s-2.67-2.67-1.38-2.94c.06-.01.13-.02.2-.02m0-1.21c-.16 0-.31.02-.45.05-.62.13-1.07.54-1.24 1.11-.04.13-.1.35-.06.7-1.05-.28-2.22-.5-3.3-.5-1.22 0-2.22.27-2.98.8-1.12.78-1.08 1.65-.96 2.09.05.19.14.53.59.9-.7.18-1.37.41-1.95.68-2 .95-2.07 2.12-1.93 2.73.18.78.84 1.37 1.86 1.71-2.98 2.94-8.31 9.24-8.98 17.29-.73 8.69 1 14.79 1.77 17-1.29 1.04-3.53 3.16-3.5 5.39.03 2 1.45 2.1 1.73 2.1.17 0 .34-.02.51-.07-.77 1.45-1.4 3.13-1.44 4.73-.03 1.18.19 1.96.69 2.47.34.35.79.54 1.28.54.32 0 .63-.08.92-.21-.35 2.42-.46 5.39.1 8.65 1.41 8.23 12.36 20.81 36.71 21.71.49.02.97.03 1.45.03 12.05 0 21.59-5.62 27.47-10.33 6-4.8 10.22-10.36 10.33-11.33 0 .02 0 .06-.02.09.19-.73 2.61-5.63 3.15-6.27.89-1 1.05-4.73.1-7.86.21-.07.4-.19.55-.35.26-.28.4-.66.37-1.06 0-.05-.34-3.67-1.79-6.61.22-.13.36-.3.44-.42.26-.4.29-.9.08-1.38-.32-.73-4.19-6.69-10.66-10.16-5.65-3.03-10.52-5.65-13.07-11.62C92.88 9.29 82.5 2.25 68.54 2.25c-1.12 0-2.27.05-3.44.14C64.13 1.51 62.24 0 60.79 0Z" class="cls-1"/>
    <path d="M118.18 68.12c.07-.61 2.77-6.11 3.43-6.85.66-.74.76-5.99-1.12-8.9 0 0 1.88 1.2 1.84.5-.04-.7-.74-5.8-2.99-8.09 0 0 2.17.88 1.82.1-.35-.79-4.2-6.41-10.13-9.59-3.03-1.63-5.81-3.14-8.17-5.06s8.42 7.96 8.49 15.95c.06 7.99-3.77 5.16-3.77 5.16l-6.79-3.16s2.57 5.83-.83 8.08c-3.4 2.24-4.52.26-4.52.26s1.43 3.78-3.03 5.04c-4.46 1.27-16.31 1.96-21.59 1.25-5.28-.7-12.31-2.51-13.2-6.29-.89-3.78-1.65-4.33-1.65-4.33s-4.7 7.16-5.5 3.86c-.8-3.3.01-5.85.01-5.85s-4.11 2.95-3.76 1.11c.34-1.83 1.23-3.9 1.23-3.9s-1.83-.7-3.57-2.27c-.78.59-3.56 2.81-3.53 4.8.03 2.32 2.29-.43 4.67-1.18 0 0-3.78 4.35-3.87 7.98-.09 3.63 2.55.56 2.55.56s.59-2.05 1.91-3.54c0 0-2.86 6.21-1.49 14.19 1.37 7.98 12.24 19.85 35.57 20.71 23.33.86 37.94-19.94 38.01-20.55Z" class="cls-15"/>
    <path fill="#bd852d" d="M106.94 65.34c-10.83-.78-31.68-7.53-29.76-17.92 1.92-10.39 10.12-7.94 12.3-20.75C91.66 13.86 78.16 7.06 68.09 8.95c-10.07 1.9-14.51 12.13-14.87 12.86-.36.73-5.28 1.01-7.21.72-1.89-.29-1.25-2.5-1.22-2.59-1.12 2.31-1.97 4.91-2.21 7.72-.89 10.63 2.01 17.32 2.01 17.32s-3.78 2.64-3.74 4.95c.03 2.32 2.29-.43 4.67-1.18 0 0-3.78 4.35-3.87 7.98-.09 3.63 2.55.56 2.55.56s.59-2.05 1.91-3.54c0 0-2.86 6.21-1.49 14.19 1.37 7.98 12.24 19.85 35.57 20.71 19.55.72 32.98-13.77 36.85-18.84-2.06-2.44-5.53-4.15-10.09-4.48Z"/>
    <path fill="#91682c" d="M82.82 88.66c.45-.02.9-.03 1.34-.06.24-.02.48-.04.71-.06.42-.04.83-.08 1.24-.13.23-.03.47-.06.7-.09.43-.06.85-.13 1.27-.2.2-.03.4-.07.59-.1.55-.1 1.1-.22 1.63-.35.06-.01.11-.02.17-.04.6-.14 1.19-.3 1.77-.47.16-.05.31-.1.47-.14.42-.13.84-.26 1.25-.4.19-.06.38-.13.57-.2.38-.13.75-.27 1.12-.41.19-.07.37-.15.56-.22.38-.15.75-.31 1.12-.47.16-.07.32-.14.47-.21.46-.21.91-.42 1.36-.64l.18-.09c.51-.25 1.02-.52 1.51-.79.1-.05.19-.11.29-.16.39-.21.77-.43 1.15-.66.14-.08.28-.17.43-.26.33-.2.65-.4.97-.6.15-.09.29-.18.43-.28.32-.21.63-.41.93-.62.13-.09.25-.17.38-.26.36-.25.71-.5 1.05-.75.06-.05.13-.09.19-.14.41-.31.82-.61 1.21-.92.06-.05.11-.09.17-.14.32-.26.64-.51.95-.77.11-.09.22-.19.34-.28.25-.21.49-.42.73-.62.12-.1.24-.21.36-.32.22-.2.44-.4.66-.59.11-.1.22-.21.33-.31.23-.21.45-.42.66-.63.09-.08.17-.16.26-.25.29-.28.57-.56.84-.83.08-.08.15-.15.22-.23.19-.19.38-.39.56-.58.11-.12.22-.23.32-.35l.39-.42c.11-.12.22-.25.33-.37.11-.12.21-.24.31-.36.11-.13.22-.25.32-.37.08-.1.16-.19.24-.28.11-.13.22-.26.32-.39.02-.02.04-.05.06-.07.29-.36.56-.69.78-.99-2.06-2.44-5.53-4.15-10.09-4.48-4.26-.31-10.08-1.54-15.45-3.56-5 1.12-15.72 1.68-20.67 1.02-5.28-.7-12.31-2.51-13.2-6.29-.89-3.78-1.65-4.33-1.65-4.33s-4.7 7.16-5.5 3.86c-.8-3.3.01-5.85.01-5.85s-4.11 2.95-3.76 1.11c.34-1.83 1.23-3.9 1.23-3.9s-1.83-.7-3.57-2.27c-.05.04-.1.08-.16.12-.02.02-.05.04-.08.06-.06.05-.13.1-.2.16-.06.05-.13.11-.2.16-.03.02-.06.05-.09.07-.07.06-.14.12-.21.19-.03.03-.06.06-.1.09-.07.07-.15.14-.23.21-.03.03-.07.06-.1.09l-.24.24-.09.09c-.09.1-.19.19-.28.29-.02.02-.04.04-.05.06-.22.24-.44.5-.63.77l-.06.09c-.07.1-.14.2-.2.31-.03.04-.05.09-.08.13-.05.09-.1.18-.15.28-.03.05-.05.1-.07.15-.04.09-.08.18-.11.27-.02.05-.04.1-.05.15-.03.09-.05.19-.07.28 0 .04-.02.09-.03.13-.02.14-.04.28-.03.41.03 2.32 2.29-.43 4.67-1.18 0 0-3.78 4.35-3.87 7.98-.09 3.63 2.55.56 2.55.56s.59-2.05 1.91-3.54c0 0-2.86 6.21-1.49 14.19 1.37 7.98 12.24 19.85 35.57 20.71.68.02 1.35.03 2.01.02.21 0 .42-.01.63-.02Z"/>
    <path fill="#c4964d" stroke="#5b2307" stroke-linecap="round" stroke-linejoin="round" stroke-width="1.21" d="M71.4 36.89s1.09-3.39 5.63-4.48c4.55-1.1 6.22.96 6.22.96"/>
    <path fill="url(#linear-gradient)" d="M79.57 12.37c-.09 0-.18 0-.28-.02-1.28-.19-2.09-1.48-2.67-2.42-.17-.27-.32-.53-.47-.71l-.18-.23c-.58-.75-1.24-1.6-2.83-1.88-.28-.05-.62-.07-1.03-.07-.63 0-1.34.06-2.04.11-.69.06-1.41.11-2.05.11-.89 0-1.52-.12-1.97-.36-.69-.38-1.07-1.03-1.08-1.83 0-.83.43-1.76.97-2.07 1.5-.86 3.44-1.04 4.81-1.04 1.72 0 3.26.28 3.83.55.42.2 1.98.28 3.24.35 1.1.06 2.23.12 3.05.25 1.93.31 4.16 2.34 5.37 3.44l.56.5c.83.73 1.49 1.31 1.49 2 0 .21-.07.52-.37.79-.28.25-.67.37-1.16.37-.87 0-1.88-.4-2.45-.77-.04-.02-.39-.22-1.91-.22-.33 0-.64 0-.9.02.07.85-.07 1.8-.58 2.45-.35.45-.82.69-1.37.69Z"/>
    <path d="M70.76 2.55c1.65 0 3.1.27 3.58.49.91.42 4.59.35 6.45.65 1.86.3 4.24 2.55 5.25 3.46 1.01.91 2.08 1.71 1.49 2.22-.18.16-.45.22-.77.22-.69 0-1.59-.32-2.12-.67-.39-.25-1.37-.32-2.23-.32s-1.6.06-1.6.06c.34 1.34-.04 3.1-1.24 3.1-.06 0-.12 0-.19-.01-1.35-.19-2.13-2.13-2.75-2.91-.62-.78-1.38-1.97-3.37-2.33-.34-.06-.72-.08-1.14-.08-1.29 0-2.85.23-4.09.23-.69 0-1.28-.07-1.67-.29-1.34-.74-.63-2.55-.1-2.86 1.27-.73 2.98-.96 4.51-.96m0-1.21c-1.44 0-3.49.2-5.11 1.12-.73.42-1.28 1.54-1.27 2.6 0 1.01.51 1.87 1.39 2.36.54.3 1.26.44 2.26.44.66 0 1.39-.06 2.1-.12.68-.06 1.38-.11 1.99-.11.37 0 .68.02.92.07 1.36.25 1.92.97 2.46 1.66l.18.23c.11.14.27.39.43.65.65 1.04 1.53 2.47 3.1 2.7.13.02.25.03.36.03.73 0 1.38-.33 1.84-.92.5-.64.7-1.46.72-2.24h.28c1.27 0 1.61.14 1.62.15.63.41 1.74.84 2.74.84.64 0 1.16-.18 1.56-.52.37-.32.58-.76.58-1.24 0-.97-.78-1.66-1.69-2.46-.12-.11-.24-.21-.37-.32l-.19-.17c-1.25-1.13-3.57-3.24-5.68-3.59-.85-.14-2-.2-3.11-.26-1.06-.06-2.65-.14-3.03-.29-.75-.35-2.47-.6-4.08-.6Z" class="cls-9"/>
    <path d="M71.27 3.45c2.6.6 4.38 1.26 6.03 1.09 1.65-.17 10.42 3.75 9.8 5.01.16-.03.31-.09.42-.18.58-.51-.49-1.31-1.49-2.22-1.01-.91-3.39-3.16-5.25-3.46-1.86-.3-5.54-.22-6.45-.65-.91-.42-5.45-1.05-8.09.47-.2.11-.43.45-.56.86.64-.36 3.24-1.46 5.57-.92Z" class="cls-3"/>
    <path fill="#f7d33c" d="M70.34 34.02c-7.14 0-13.13-5.79-13.64-13.18-.26-3.79.94-7.4 3.4-10.16 2.33-2.62 5.52-4.15 8.99-4.31.21-.01.42-.02.62-.02 7.14 0 13.13 5.79 13.64 13.18.26 3.79-.94 7.4-3.4 10.16-2.33 2.62-5.52 4.15-8.99 4.31-.21.01-.42.02-.63.02Z"/>
    <path d="M69.7 7.11c6.69 0 12.4 5.47 12.89 12.48.5 7.21-4.72 13.33-11.67 13.67-.2 0-.39.01-.59.01-6.69 0-12.4-5.47-12.89-12.48-.5-7.22 4.72-13.33 11.67-13.67.2 0 .39-.01.59-.01m0-1.51c-.22 0-.44 0-.66.02-3.67.18-7.05 1.8-9.51 4.57-2.59 2.91-3.86 6.72-3.58 10.71.54 7.78 6.86 13.88 14.4 13.88.22 0 .44 0 .66-.02 3.67-.18 7.05-1.8 9.51-4.57 2.59-2.91 3.86-6.72 3.58-10.71C83.56 11.7 77.24 5.6 69.71 5.6Z" class="cls-1"/>
    <path fill="#ed9935" d="M69.11 7.12c-6.94.33-12.17 6.45-11.67 13.67.22 3.23 1.57 6.13 3.6 8.32.02-.07 2.22-6.81 9.84-7.41 6.96-.55 8.84 4.95 9.14 6.69 1.81-2.4 2.8-5.48 2.57-8.81-.5-7.22-6.54-12.8-13.48-12.46Z"/>
    <path d="M79.06 19.76c.34 4.9-3.21 9.06-7.93 9.29-4.72.23-8.82-3.57-9.16-8.47-.34-4.91 3.21-9.07 7.93-9.29 4.72-.23 8.82 3.57 9.16 8.47Z" class="cls-18"/>
    <path d="M61.5 11.03c-2.52 2.33-2.86 5.72-.77 7.57 2.09 1.85 5.83 1.46 8.35-.87 2.52-2.33 2.86-5.72.77-7.57-2.09-1.85-5.83-1.46-8.35.87Zm17.23 15.44c.03.45-.82.86-1.91.91-1.09.05-1.99-.27-2.02-.72-.03-.45.82-.86 1.91-.91 1.09-.05 1.99.27 2.02.72Z" class="cls-3"/>
    <path fill="#c4964d" d="M79.35 8.47S72.26 5 68 5.16c-4.26.17-11.25 6.15-12.5 8.65s-.92 4.65-.92 4.65 6.41-.63 14.33-3.93c7.92-3.31 10.43-6.06 10.43-6.06Z"/>
    <path fill="none" stroke="#5b2307" stroke-linecap="round" stroke-linejoin="round" stroke-width="1.51" d="M54.2 18.75s13.19-1.11 25.77-10.13"/>
    <path d="M92.66 92.28c-2.63 0-3.88-.99-4.39-1.6-.83.09-3.08.29-6.2.29-4.83 0-12.04-.5-18.89-2.9-9.9-3.46-12.13-5.83-13.47-7.24-.29-.3-.51-.54-.76-.72-1.15-.86-1.58-2.1-1.86-2.93-.07-.21-.17-.5-.22-.57l-.1-.08c-2.57-2.13-3.91-4.4-4-6.74-.02-.6-.07-1.26-.13-1.95-.21-2.67-.42-5.43.74-6.69.4-.44.93-.66 1.57-.66.24 0 .51.03.78.1.27.06.46.3.46.58 0 .77.29 2.94 1.48 3.7 1.66 1.07 5.83 3.28 8.08 3.28.14 0 .27 0 .39-.03 1.78-.28 1.75-.78 1.71-1.54-.06-.97.23-3.6 2.19-4.19.26-.08.52-.12.76-.12 1.25 0 1.77 1.01 2.01 1.5.04.07.06.13.09.17.04 0 .28.1.48.18.75.3 2.01.8 3.05 1.88 1.31 1.36 4.47 3.27 6.22 3.94.89.34 1.39.41 1.66.41.2 0 .29-.04.3-.05.04-.26.05-.74.07-1.24.06-2.17.14-2.8.58-3.1.11-.07.25-.2.41-.34.57-.48.9-.76 1.28-.76.05 0 .13.01.19.02.24.06.45.12 1.48 2.19.43-.28 1.05-.56 1.83-.56.35 0 .71.06 1.06.17 2.08.68 4.72 1.38 5.54 1.38.62-.08 2.63-.14 4.17-.14 2.84 0 3.2.15 3.35.22 1.04.45 2.03.8 2.48.9.02-.03.03-.06.05-.09.91-1.56 2-3.2 3.18-3.53.76-.21 1.27-.37 1.58-.46.26-1.36.51-3.46.2-4.23-.58-1.46-1.36-3.42.03-4.74.38-.36.86-.55 1.39-.55 1.64 0 3.14 1.74 3.56 2.27 1.18 1.49 1.83 2.31 1.56 3.32-.1.36-.11 1.72-.09 2.81.39.05 1 .11 1.77.11 1.23 0 2.45-.15 3.66-.44-.09-.87-.08-2.42 1.1-2.94 1.04-.46 1.97-.51 2.32-.51.58 0 .78.12.85.16.06.03.16.1.28.18-.6-3.93-.05-4.25.23-4.41.22-.13.47-.19.74-.19.62 0 1.36.35 2.18 1.03.78.65 1.83 2.24 1.71 3.25-.11.89-1.15 2.92-2.01 4.2-.86 1.27-1.09 3.05-1.02 4.19.07 1.14-1.19 2.29-2.2 3.22-.33.31-.75.69-.84.84-.08.14-8.77 14.45-17.17 17.94-2.89 1.2-5.4 1.81-7.45 1.81ZM62.1 67.08c-.25 0-.48.1-.64.27-.19.2-.28.5-.26.86.1 1.73.98 4.82 2.38 4.82.06 0 .13 0 .19-.02.69-.12 1.22-.71 1.38-1.55.22-1.19-.32-2.92-2.5-4.22-.18-.1-.37-.16-.56-.16Z" class="cls-16"/>
    <path d="M103.48 56.04c1.02 0 2.24.97 3.09 2.04 1.14 1.44 1.63 2.1 1.45 2.79-.19.69-.1 3.48-.1 3.48s.9.21 2.36.21c1.16 0 2.66-.13 4.34-.6 0 0-.51-2.31.67-2.83.77-.34 1.56-.46 2.08-.46.27 0 .47.03.55.08.23.14 1.42 1 1.42 1s-.89-4.88-.3-5.22c.13-.08.28-.11.44-.11.54 0 1.2.4 1.8.89.77.64 1.58 2.03 1.49 2.71-.09.69-.98 2.56-1.91 3.93-.93 1.37-1.2 3.29-1.12 4.56.07 1.28-2.55 3.02-2.96 3.72-.41.7-8.84 14.34-16.88 17.68-3.17 1.32-5.51 1.76-7.22 1.76-2.63 0-3.76-1.06-4.11-1.63 0 0-2.57.33-6.47.33-4.93 0-11.98-.52-18.69-2.87-12.04-4.21-12.56-6.75-14.06-7.88-1.5-1.12-1.62-3.08-2.01-3.43-.4-.35-3.79-2.88-3.93-6.42-.12-3.31-1.15-8.68 1.58-8.68.19 0 .41.03.64.08 0 0 .03 3.1 1.76 4.2 1.62 1.04 5.95 3.37 8.41 3.37.17 0 .33-.01.48-.03 2.32-.36 2.27-1.34 2.22-2.17-.05-.83.2-3.11 1.76-3.58.22-.07.41-.09.58-.09 1.08 0 1.4 1.1 1.61 1.41.25.36 2.15.62 3.6 2.13 1.45 1.5 4.73 3.43 6.43 4.09.78.3 1.42.45 1.88.45.54 0 .85-.21.91-.62.11-.76.02-3.63.38-3.88.35-.24 1.09-.99 1.35-.99h.03c.23.06 1.43 2.56 1.43 2.56s.77-.92 2.03-.92c.27 0 .56.04.87.14 1.66.54 4.68 1.41 5.72 1.41.07 0 .13 0 .18-.01.44-.07 2.29-.13 3.99-.13 1.46 0 2.83.04 3.11.17.54.23 2.32.97 2.9.97.09 0 .15-.02.17-.05.21-.28 1.7-3.24 3.04-3.62 1.34-.38 1.93-.57 1.93-.57s.77-3.6.24-4.93c-.53-1.33-1.22-3.03-.12-4.08.28-.27.62-.39.97-.39M63.59 73.6c.09 0 .19 0 .29-.02 2.31-.39 3.15-4.47-.9-6.89-.28-.17-.58-.24-.87-.24-.83 0-1.57.65-1.51 1.77.08 1.44.89 5.39 2.98 5.39m39.9-18.8c-.68 0-1.31.25-1.8.72-1.69 1.6-.75 3.96-.19 5.37.21.53.09 2.13-.15 3.56-.3.09-.7.21-1.22.35-1.3.37-2.38 1.87-3.35 3.5-.45-.14-1.16-.41-1.96-.75-.24-.11-.62-.26-3.59-.26-1.56 0-3.6.05-4.17.14-.73 0-3.35-.7-5.35-1.35-.41-.13-.83-.2-1.25-.2-.61 0-1.14.14-1.57.34-.91-1.76-1.17-1.83-1.58-1.94-.1-.03-.24-.05-.34-.05-.62 0-1.08.4-1.67.9-.14.12-.27.23-.36.3-.72.49-.78 1.4-.84 3.58 0 .23-.01.47-.02.68-.23-.04-.62-.13-1.19-.35-1.69-.65-4.74-2.49-6-3.8-1.13-1.17-2.46-1.7-3.26-2.02-.1-.04-.21-.08-.3-.12-.28-.54-.96-1.77-2.52-1.77-.3 0-.61.05-.93.14-2.25.67-2.69 3.44-2.61 4.8.03.58.04.71-1.2.91-.08.01-.18.02-.29.02-1.91 0-5.76-1.9-7.75-3.18-.95-.61-1.19-2.57-1.2-3.2 0-.55-.39-1.03-.92-1.16-.32-.08-.63-.12-.92-.12-.8 0-1.5.29-2.01.85-1.35 1.46-1.12 4.35-.9 7.15.05.69.11 1.35.13 1.93.09 2.53 1.51 4.94 4.22 7.19.04.1.09.26.13.38.29.84.77 2.24 2.07 3.22.2.15.41.37.68.65 1.37 1.45 3.67 3.88 13.71 7.39 6.94 2.43 14.21 2.94 19.09 2.94 2.82 0 4.94-.17 5.96-.26.69.69 2.08 1.57 4.63 1.57 2.13 0 4.71-.62 7.68-1.85 8.59-3.56 17.38-18.04 17.46-18.19.08-.11.45-.45.73-.7 1.1-1.01 2.48-2.27 2.4-3.7-.07-1.13.19-2.75.92-3.81.91-1.35 1.98-3.44 2.11-4.46.16-1.28-1.03-3.05-1.92-3.79-.93-.77-1.8-1.16-2.57-1.16-.38 0-.73.09-1.04.27-.49.28-1.08.62-.67 4-.11-.01-.24-.02-.39-.02-.39 0-1.42.05-2.57.56-1.16.51-1.53 1.78-1.5 3.02-1 .21-2.01.31-3.02.31-.46 0-.85-.02-1.17-.05 0-.95.02-1.86.08-2.12.35-1.3-.45-2.31-1.67-3.85-.46-.59-2.12-2.5-4.03-2.5ZM63.58 72.4c-.77 0-1.67-2.43-1.78-4.25-.01-.19.02-.34.1-.41.06-.06.14-.08.2-.08.08 0 .17.03.25.07 1.91 1.14 2.4 2.6 2.21 3.59-.09.46-.37.98-.89 1.07h-.09Z" class="cls-9"/>
    <path fill="url(#linear-gradient-2)" d="M119.02 56.53c-.59.34.3 5.22.3 5.22s-1.18-.86-1.42-1c-.23-.14-1.44-.14-2.62.38-1.18.52-.67 2.83-.67 2.83-2.57.71-4.73.64-5.86.52s.72 3.94-.83 6.3c-1.55 2.36-12.98 4.99-17.45 7.82-4.47 2.83-16.8 2.03-25.63-.63-8.84-2.66-12.95-4.91-14.17-10.78-1.37-.65-2.61-1.35-3.32-1.81-1.73-1.11-1.76-4.2-1.76-4.2-3.53-.85-2.35 5.05-2.22 8.59.13 3.54 3.53 6.07 3.93 6.42.4.35.51 2.31 2.01 3.43 1.5 1.12 2.03 3.66 14.06 7.88 12.03 4.21 25.16 2.54 25.16 2.54.58.95 3.29 3.21 11.33-.13s16.47-16.98 16.88-17.68c.41-.7 3.03-2.44 2.96-3.72-.07-1.28.19-3.19 1.12-4.56.93-1.37 1.83-3.25 1.91-3.93.09-.68-.73-2.07-1.49-2.71-.77-.64-1.65-1.11-2.24-.78Z"/>
    <path d="M103.48 56.65c.71 0 1.76.73 2.61 1.81 1.03 1.3 1.44 1.87 1.34 2.26-.2.74-.14 3.18-.12 3.66 0 .27.2.51.47.57.04 0 .99.22 2.5.22s3.03-.21 4.5-.62c.31-.09.5-.4.43-.71-.13-.57-.22-1.91.32-2.15.85-.38 1.62-.41 1.83-.41.14 0 .24.01.28.02.21.13.88.62 1.33.94.11.08.23.12.36.12.11 0 .22-.03.32-.09.21-.13.32-.38.27-.62-.33-1.8-.58-3.97-.47-4.62h.02c.32 0 .85.28 1.41.75.71.59 1.33 1.8 1.28 2.17-.06.49-.85 2.25-1.81 3.67-1.03 1.51-1.31 3.54-1.22 4.94.03.57-1.17 1.67-1.81 2.26-.49.45-.88.81-1.06 1.12-.08.14-8.55 14.09-16.6 17.43-2.74 1.14-5.09 1.72-6.98 1.72-2.64 0-3.46-1.12-3.6-1.35-.11-.18-.31-.29-.51-.29h-.08c-.03 0-2.58.32-6.4.32-4.74 0-11.8-.49-18.49-2.84-9.62-3.37-11.73-5.6-12.99-6.93-.31-.33-.58-.62-.91-.86-.85-.64-1.19-1.63-1.44-2.35-.16-.48-.28-.83-.53-1.05-.03-.03-.09-.08-.16-.14-2.29-1.9-3.49-3.87-3.56-5.86-.02-.62-.08-1.29-.13-2-.17-2.18-.38-4.9.43-5.78.17-.19.39-.27.68-.27h.07c.09 1.01.47 3.21 2 4.19 1.4.9 6.01 3.47 8.73 3.47.2 0 .39-.01.57-.04 2.64-.41 2.79-1.66 2.73-2.8-.05-.79.22-2.63 1.33-2.97.15-.05.29-.07.41-.07.47 0 .7.36.94.84.07.13.12.24.17.31.19.27.53.41 1.04.61.7.28 1.77.7 2.63 1.59 1.55 1.61 4.98 3.58 6.65 4.23.85.33 1.56.5 2.1.5.84 0 1.41-.42 1.51-1.14.04-.28.05-.77.07-1.33.02-.66.05-1.84.16-2.21.12-.09.26-.21.41-.34.09-.08.23-.19.35-.29.27.46.71 1.31 1.06 2.05.09.18.26.31.47.33h.08c.17 0 .34-.08.46-.21 0 0 .62-.7 1.57-.7.22 0 .46.04.69.11 1.52.5 4.72 1.44 5.91 1.44.1 0 .19 0 .27-.02.38-.06 2.13-.12 3.9-.12 1.97 0 2.74.08 2.87.12.89.38 2.48 1.02 3.14 1.02.36 0 .55-.16.65-.29.04-.06.13-.21.26-.42 1.06-1.81 1.89-2.81 2.46-2.98 1.35-.38 1.95-.57 1.95-.57.21-.06.36-.24.41-.45.08-.39.8-3.82.2-5.31-.59-1.49-.99-2.68-.25-3.38.16-.15.34-.22.56-.22m-39.9 17.59c.13 0 .26-.01.39-.03 1.19-.2 2.12-1.19 2.37-2.52.3-1.59-.35-3.86-3.07-5.48-.36-.22-.77-.33-1.17-.33-.59 0-1.13.23-1.52.65-.42.45-.63 1.07-.59 1.76.09 1.54.94 5.96 3.59 5.96m39.9-18.2c-.36 0-.69.12-.97.39-1.1 1.05-.41 2.74.12 4.08.53 1.33-.24 4.93-.24 4.93s-.59.19-1.93.57c-1.34.38-2.83 3.34-3.04 3.62-.03.04-.09.05-.17.05-.58 0-2.36-.74-2.9-.97-.29-.12-1.65-.17-3.11-.17-1.71 0-3.55.06-3.99.13-.05 0-.11.01-.18.01-1.04 0-4.06-.86-5.72-1.41-.31-.1-.6-.14-.87-.14-1.26 0-2.03.92-2.03.92s-1.2-2.5-1.43-2.56h-.03c-.26 0-1 .75-1.35.99-.36.25-.27 3.11-.38 3.88-.06.41-.37.62-.91.62-.46 0-1.09-.15-1.88-.45-1.7-.66-4.99-2.58-6.43-4.09-1.45-1.5-3.35-1.77-3.6-2.13-.21-.31-.53-1.41-1.61-1.41-.17 0-.37.03-.58.09-1.56.47-1.81 2.75-1.76 3.58.05.83.11 1.81-2.22 2.17-.15.02-.31.03-.48.03-2.45 0-6.79-2.33-8.41-3.37-1.73-1.11-1.76-4.2-1.76-4.2-.23-.06-.45-.08-.64-.08-2.74 0-1.7 5.37-1.58 8.68.13 3.54 3.53 6.07 3.93 6.42.4.35.51 2.31 2.01 3.43 1.5 1.12 2.03 3.66 14.06 7.88 6.71 2.35 13.77 2.87 18.69 2.87 3.91 0 6.47-.33 6.47-.33.35.58 1.49 1.63 4.11 1.63 1.71 0 4.05-.45 7.22-1.76 8.04-3.34 16.47-16.98 16.88-17.68.41-.7 3.03-2.44 2.96-3.72-.07-1.28.19-3.19 1.12-4.56.93-1.37 1.83-3.25 1.91-3.93.09-.68-.73-2.07-1.49-2.71-.59-.49-1.25-.89-1.8-.89-.16 0-.31.03-.44.11-.59.34.3 5.22.3 5.22s-1.18-.86-1.42-1c-.08-.05-.28-.08-.55-.08-.52 0-1.3.12-2.08.46-1.18.52-.67 2.83-.67 2.83-1.68.47-3.18.6-4.34.6-1.46 0-2.36-.21-2.36-.21s-.09-2.79.1-3.48-.3-1.34-1.45-2.79c-.85-1.07-2.06-2.04-3.09-2.04Zm-39.9 17.59c-2.09 0-2.9-3.94-2.98-5.39-.07-1.12.68-1.77 1.51-1.77.29 0 .59.08.87.24 4.05 2.41 3.22 6.5.9 6.89-.1.02-.2.02-.29.02Z" class="cls-16"/>
    <path d="M109.32 64.53c-.89-.06-1.41-.18-1.41-.18s-.09-2.79.1-3.48-.3-1.34-1.45-2.79c-1.14-1.44-2.95-2.7-4.06-1.65-1.1 1.05-.41 2.74.12 4.08.53 1.33-.24 4.93-.24 4.93s-.59.19-1.93.57c-1.34.38-2.83 3.34-3.04 3.62-.21.28-2.46-.65-3.08-.92-.62-.27-6.28-.16-7.11-.04-.82.12-4.13-.82-5.9-1.4-1.77-.58-2.9.77-2.9.77s-1.2-2.5-1.43-2.56c-.23-.06-1.02.74-1.38.99-.36.25-.27 3.11-.38 3.88s-1.09.82-2.79.16c-1.7-.66-4.99-2.58-6.43-4.09-1.45-1.5-3.35-1.77-3.6-2.13-.25-.36-.63-1.78-2.19-1.31s-1.81 2.75-1.76 3.58c.05.83.11 1.81-2.22 2.17-2.32.36-7.16-2.23-8.89-3.34-1.73-1.11-1.76-4.2-1.76-4.2-.29-.07-.55-.09-.78-.07-.65 6.5 9.03 8.03 10.23 8.46 1.2.43 3.6-1.11 3.6-1.11s.79-3.67 1.88-4.14c1.08-.47 1.59 1.42 2.27 1.38.68-.04 4.45 2.46 6.68 4.45 2.23 1.99 6.32 2.15 6.32 2.15s.7-1.85 1.24-3.2c.54-1.34 2.95.73 3.25.72.3-.02 1.67-.8 3.05.02 1.38.83 5.01-.09 7.84.05s6.44 1.64 6.44 1.64 1.32-1.59 2.34-3.06c1.02-1.47 3.24-1.4 3.24-1.4s.91-5.19.5-6.88c-.41-1.69-.68-4.07 1.48-2.3 2.17 1.77 1.53 7.17 1.53 7.17l2.6-.52Z" class="cls-3"/>
    <path fill="#b7eae8" stroke="#3c7bd6" stroke-linecap="round" stroke-linejoin="round" stroke-width="1.21" d="M107.05 49.46c-1.53.09-3.8-.31-3.95.23-.15.54 3.86 4.33 4.85 5.15.99.83 3.9.07 3.8-1.76s-2.11-3.78-4.7-3.63Z"/>
    <path d="M110.32 52.49c-.16.38-.91.43-1.67.11-.76-.32-1.24-.89-1.08-1.27.16-.38.91-.43 1.67-.11.76.32 1.24.89 1.08 1.27Z" class="cls-3"/>
    <path fill="#703c16" d="M89.34 34.65c.34.85.71 1.7 1.27 2.44.61.81 1.39 1.45 2.27 1.97.28.17.66.06.83-.22s.07-.66-.22-.83c-.22-.13-.44-.27-.65-.42-.05-.03-.1-.07-.15-.11l-.04-.03c-.08-.06-.16-.13-.24-.2-.16-.14-.32-.29-.47-.45-.07-.07-.13-.14-.19-.21-.03-.04-.07-.08-.1-.12-.02-.02-.03-.04-.05-.06.04.05.04.05.02.02-.23-.32-.44-.65-.62-1.01-.09-.18-.18-.37-.27-.56-.02-.05-.04-.1-.07-.15-.05-.12.03.07-.03-.07-.04-.11-.09-.22-.13-.33-.12-.3-.4-.51-.74-.42-.29.08-.54.44-.42.74Zm4.34-.58c.99.88 2.04 1.79 3.28 2.33.29.13.66.09.83-.22.14-.26.09-.69-.22-.83-.64-.28-1.23-.67-1.78-1.09-.02-.02-.12-.09-.02-.01-.03-.03-.07-.05-.1-.08-.06-.05-.13-.1-.19-.15-.12-.1-.24-.2-.35-.29-.2-.17-.39-.34-.59-.51-.24-.21-.62-.25-.85 0-.21.23-.25.63 0 .85Zm19.29 7.44c3.08 2.21 4.88 5.69 5.12 9.44.05.77 1.26.78 1.21 0-.27-4.21-2.27-8.02-5.72-10.48-.63-.45-1.24.59-.61 1.04Zm-.12 6.46s.03.03.04.03c.04.04.08.07.13.11.07.06.15.13.22.2.06.06.12.12.18.19.04.04.07.08.1.12 0 0 .07.09.05.06.07.1.2.29.28.43.05.08.09.16.13.25.02.04.03.07.05.11-.03-.07.01.03.02.06.06.16.11.33.15.5l.06.27c0 .01.02.13.01.07v.11c.02.18.02.36.01.53 0 .1-.01.19-.02.29s0 0 0 .06c0 .05-.02.11-.03.16-.06.32.09.65.42.74.29.08.68-.1.74-.42.16-.9.13-1.84-.21-2.69-.36-.91-.95-1.64-1.72-2.22-.26-.2-.68-.04-.83.22-.18.31-.04.63.22.83Zm-15.7-14.91c.26.23.54.43.82.65l-.12-.09c.12.09.24.19.36.29s.26.18.43.18c.15 0 .32-.07.43-.18s.18-.27.18-.43-.06-.32-.18-.43c-.26-.23-.54-.43-.82-.65l.12.09c-.12-.09-.24-.19-.36-.29s-.26-.18-.43-.18c-.15 0-.32.07-.43.18s-.18.27-.18.43.06.32.18.43ZM81.96 50.03c-.03 2.96 2.87 4.59 5.35 5.33.75.23 1.06-.94.32-1.16-.28-.08-.56-.18-.83-.28-.3-.11-.45-.18-.75-.32-.27-.13-.54-.28-.8-.43-.12-.07-.24-.15-.35-.23-.06-.04-.12-.09-.18-.13-.07-.05-.02-.01-.11-.08-.22-.18-.43-.37-.62-.58-.06-.06-.11-.12-.16-.19-.07-.09.02.03-.05-.07-.08-.12-.16-.23-.23-.36-.26-.46-.38-.95-.38-1.5 0-.78-1.2-.78-1.21 0Z"/>
    <path fill="#a18f70" d="M2.86 43.59c-.27 0-.51-.18-.58-.45-.08-.3.08-.61.37-.72 20.42-7.74 42.58-8.57 51.16-8.57 2.56 0 4.02.07 4.08.07.21.01.4.13.5.32s.09.41-.02.6c-.92 1.51-6.52 4.08-7.64 4.57-.08.04-.16.05-.25.05h-.09c-1.3-.19-3.03-.29-5.14-.29-14.23 0-42.02 4.37-42.3 4.41h-.09Z"/>
    <path d="M53.8 34.45c2.58 0 4.05.07 4.05.07-.87 1.43-7.37 4.34-7.37 4.34-1.39-.2-3.17-.29-5.23-.29-14.45 0-42.39 4.42-42.39 4.42 20.24-7.67 42.1-8.53 50.94-8.53m0-1.21c-8.61 0-30.85.84-51.37 8.61-.58.22-.9.84-.74 1.44.14.54.63.9 1.17.9.06 0 .13 0 .19-.01.28-.04 28.02-4.4 42.21-4.4 2.09 0 3.79.09 5.05.28.06 0 .12.01.18.01.17 0 .34-.04.49-.11 2.06-.92 6.95-3.23 7.91-4.81.22-.36.23-.82.03-1.19-.2-.38-.58-.62-1.01-.64-.06 0-1.53-.08-4.11-.08Z" class="cls-1"/>
    <path fill="url(#linear-gradient-3)" d="M34.76 60.12c-.6 0-.88-1.02-1.25-6.73-.05-.81-.1-1.5-.13-1.68-.05-.27-.22-.58-.4-.91-.28-.52-.56-1.06-.5-1.59.06-.54-.49-6.19-.88-9.86l-.02-.23.22-.08c.94-.36 2.38-.43 3.43-.43.75 0 1.29.04 1.29.04l.3.02-.02.3c0 .05-.28 5.39-.33 7.41-.03 1.15-.32 1.9-.55 2.5-.2.51-.35.91-.31 1.4 0 .1.44 9.61-.77 9.84h-.08Z"/>
    <path d="M35.24 38.9c.73 0 1.27.04 1.27.04s-.28 5.37-.33 7.42c-.05 2.05-.97 2.74-.86 3.94.11 1.2.22 9.37-.52 9.51h-.02c-.73 0-.94-7.42-1.08-8.16-.14-.75-.98-1.66-.9-2.42.08-.77-.88-9.92-.88-9.92.89-.34 2.3-.41 3.32-.41m0-.6c-1.56 0-2.75.15-3.53.45l-.43.17.05.46c.37 3.49.93 9.23.88 9.79-.07.63.25 1.23.54 1.77.16.3.32.61.37.83.03.16.08.91.12 1.64.39 6.14.68 7.01 1.55 7.01h.13c.58-.12.97-.53 1.07-4.95.05-2.2 0-4.56-.06-5.22-.04-.42.1-.77.29-1.27.24-.63.55-1.41.57-2.61.05-2.02.33-7.35.33-7.4l.03-.59-.59-.04s-.56-.04-1.31-.04Z" class="cls-9"/>
    <path fill="url(#linear-gradient-4)" d="M21.22 60.94c-.57 0-1-.64-1.37-3.81-.27-2.37-.76-4.63-.89-5.2-.57-.37-.84-1.61-1.09-3.56-.22-1.69-1.47-7.22-1.48-7.27l-.06-.28.28-.08c.2-.06 5.04-1.36 7.1-1.36.57 0 .9.1 1.06.31.1.13.13.29.08.46-.16.59-.12 3.61-.09 6.28.07 5.94 0 5.94-.4 5.98-.52 0-.71-.68-1.04-2.87l-.09-.56c-.09-.52-.69-2.47-1.15-3.94-.01 1.46 0 3.36.09 3.99.21 1.33-.25 4.09-.3 4.4-.05.3-.04 1.41-.03 2.59.04 4.35-.05 4.81-.46 4.92h-.04l-.11.02Z"/>
    <path d="M23.71 39.68c.59 0 .93.11.86.39-.34 1.27.15 12-.23 12.03-.37 0-.65-2.3-.8-3.19-.15-.9-1.72-5.76-1.72-5.76s-.11 4.78.07 5.9c.17 1.12-.15 3.42-.3 4.3-.15.88.18 7.15-.27 7.26h-.07c-.41 0-.77-.93-1.07-3.54-.32-2.77-.93-5.37-.93-5.37-.55-.18-.83-1.67-1.06-3.39-.23-1.72-1.49-7.3-1.49-7.3s4.97-1.35 7.02-1.35m0-.6c-2.11 0-6.97 1.31-7.18 1.37l-.56.15.13.56c.01.06 1.26 5.57 1.48 7.25.26 1.96.53 3.2 1.12 3.69.16.7.6 2.84.86 5.06.35 3.05.77 4.08 1.67 4.08.08 0 .15 0 .23-.03.66-.17.73-.71.69-5.22-.01-1.06-.02-2.26.03-2.53.05-.31.52-3.11.3-4.49-.05-.34-.08-1.08-.09-1.94.28.92.5 1.7.55 1.99.03.15.06.34.09.56.33 2.11.52 3.13 1.31 3.13h.06c.73-.07.75-.18.68-6.28-.03-2.52-.07-5.65.08-6.2.07-.26.02-.52-.14-.72-.29-.38-.85-.43-1.3-.43Z" class="cls-9"/>
    <path fill="url(#linear-gradient-5)" d="M8.71 58.33c-.44 0-.61-.42-1.58-5.25-.3-1.47-.6-2.99-.85-3.95-.68-2.59-1.5-5.88-1.5-5.88l-.06-.23.21-.11c.13-.07 3.2-1.72 4.48-1.72.53 0 .69.27.75.43.24.75-.12 3.22-.59 6.14-.1.63-.19 1.19-.24 1.57-.09.69-.08 2.39-.07 4.02.04 4.45-.04 4.86-.44 4.96h-.09Z"/>
    <path d="M9.4 41.49c.24 0 .41.07.46.22.31.96-.62 5.89-.85 7.57-.23 1.69.15 8.62-.29 8.74h-.01c-.45 0-1.47-6.41-2.14-8.98-.68-2.59-1.5-5.88-1.5-5.88s3.12-1.68 4.34-1.68m0-.6c-1.33 0-4.29 1.58-4.62 1.75l-.41.22.11.46s.83 3.32 1.5 5.88c.25.95.55 2.46.85 3.93 1.01 5.03 1.17 5.49 1.88 5.49h.08l.09-.02c.65-.17.71-.61.67-5.26-.01-1.63-.03-3.31.07-3.98.05-.38.14-.93.24-1.56.49-3.06.85-5.47.58-6.28-.06-.19-.29-.64-1.03-.64Z" class="cls-9"/>
    <path d="M35.24 39.5h.64c-.08 1.47-.26 5.21-.3 6.83-.02.99-.26 1.6-.49 2.2-.22.57-.43 1.11-.37 1.81.09.98.12 4.32 0 6.67-.13-1.3-.23-2.81-.28-3.69-.07-1.05-.1-1.57-.14-1.79-.08-.4-.28-.79-.49-1.17-.2-.38-.43-.81-.4-1.07.08-.73-.59-7.29-.82-9.55.65-.16 1.57-.24 2.67-.24m0-.6c-1.02 0-2.42.07-3.32.41 0 0 .96 9.15.88 9.92-.08.76.75 1.68.9 2.42.14.74.35 8.16 1.08 8.16h.02c.74-.14.63-8.31.52-9.51-.11-1.2.82-1.89.86-3.94.05-2.05.33-7.42.33-7.42s-.54-.04-1.27-.04Zm-11.55 1.38h.21c-.11.95-.09 3.04-.06 6.15 0 .45.01.92.02 1.39-.46-1.63-1.37-4.46-1.49-4.85l-.79-2.45c.82-.15 1.58-.25 2.12-.25m-2.45.31-.06 2.56c0 .2-.11 4.85.07 6.01.15.97-.13 3.11-.3 4.1-.06.36-.06 1.24-.04 2.75 0 .67.02 1.56 0 2.36-.06-.37-.12-.81-.18-1.34-.32-2.78-.91-5.33-.94-5.44l-.08-.33-.29-.09c-.14-.14-.39-.71-.68-2.91-.19-1.42-1.04-5.31-1.37-6.79.82-.21 2.4-.6 3.86-.88m2.45-.91c-2.05 0-7.02 1.35-7.02 1.35s1.26 5.58 1.49 7.3c.23 1.72.51 3.21 1.06 3.39 0 0 .61 2.6.93 5.37.3 2.62.66 3.54 1.07 3.54h.07c.44-.11.12-6.39.27-7.26.15-.88.48-3.18.3-4.3-.17-1.12-.07-5.9-.07-5.9s1.57 4.86 1.72 5.76c.15.89.43 3.19.8 3.19.38-.03-.11-10.76.23-12.03.08-.28-.27-.39-.86-.39ZM9.32 42.1c.08.94-.41 3.99-.66 5.52-.1.64-.19 1.2-.25 1.59-.1.76-.09 2.41-.08 4.15v1.17c-.11-.55-.23-1.12-.33-1.63-.3-1.49-.61-3.02-.86-4-.52-1.99-1.14-4.41-1.39-5.41 1.15-.59 2.82-1.33 3.55-1.39m.08-.61c-1.21 0-4.34 1.68-4.34 1.68s.82 3.29 1.5 5.88c.68 2.57 1.69 8.98 2.14 8.98h.01c.44-.12.06-7.05.29-8.74.23-1.69 1.16-6.62.85-7.57-.05-.16-.22-.22-.46-.22Z" class="cls-3"/>
    <path d="M34.16 43.73c.06.72-.23 1.34-.65 1.38-.42.04-.82-.52-.88-1.24-.06-.72.23-1.34.65-1.38.42-.04.82.52.88 1.24Zm-14.35 2.14c.09 1.04-.2 1.91-.66 1.95-.46.04-.9-.77-.99-1.81-.09-1.04.2-1.91.66-1.95.46-.04.9.77.99 1.81Z" class="cls-3"/>
    <path fill="#ceb891" d="M1.21 44.12c-.23 0-.44-.13-.55-.34-.13-.28-.04-.61.22-.77 19.8-12.5 49.18-14.26 49.47-14.27h.03c.2 0 .39.1.5.27 2.3 3.43 7.09 4.94 7.14 4.95.29.09.47.38.42.67-.05.29-.3.51-.6.51h-.01c-.85-.02-1.7-.03-2.55-.03-26.84 0-53.63 8.89-53.89 8.98-.06.02-.13.03-.19.03Z"/>
    <path d="M50.39 29.33c2.45 3.66 7.46 5.19 7.46 5.19-.85-.02-1.71-.03-2.56-.03-27.25 0-54.08 9.01-54.08 9.01 19.9-12.56 49.18-14.18 49.18-14.18m0-1.21h-.07c-1.21.07-29.83 1.78-49.76 14.36-.52.33-.71.99-.45 1.54.2.43.64.69 1.09.69.13 0 .26-.02.38-.06.27-.09 26.97-8.95 53.7-8.95.85 0 1.69 0 2.54.03h.03c.59 0 1.1-.43 1.19-1.02.1-.59-.26-1.17-.84-1.35-.04-.01-4.64-1.47-6.81-4.71-.22-.34-.6-.54-1-.54Z" class="cls-1"/>
    <path d="M50.39 29.33S21.1 30.95 1.21 43.51c0 0 .74-.25 2.08-.66 11.82-7.01 42.46-12.24 44.46-12.13 2.13.12 7.92 3.74 7.92 3.74l.2.04c.66 0 1.32 0 1.99.02 0 0-5.01-1.54-7.46-5.19Z" class="cls-3"/>
    <path fill="none" stroke="#5b2307" stroke-linecap="round" stroke-linejoin="round" stroke-width="1.21" d="M57.75 34.84s2-.83 2.46-2.44"/>
    <path d="M76.97 62.03c-.18 0-.35-.12-.4-.31L70.9 40.25c-.06-.22.07-.44.29-.5l5.55-1.46s.07-.01.1-.01c.07 0 .14.02.21.06.09.05.16.14.19.25l5.67 21.47c.03.1.01.22-.04.31s-.14.16-.25.19l-5.55 1.46s-.07.01-.1.01Z" class="cls-23"/>
    <path d="m76.85 38.69 5.67 21.47-5.55 1.46-5.67-21.47 5.55-1.46m0-.82c-.07 0-.14 0-.21.03l-5.55 1.46c-.21.06-.39.19-.5.38-.11.19-.14.41-.08.62l5.67 21.47c.1.37.43.61.79.61.07 0 .14 0 .21-.03l5.55-1.46c.21-.06.39-.19.5-.38.11-.19.14-.41.08-.62l-5.67-21.47c-.1-.37-.43-.61-.79-.61Z"/>
    <path d="M69.92 42.7c-4.89 0-9.6-2.06-12.92-5.66-3.18-3.45-4.83-7.93-4.65-12.63.19-4.69 2.19-9.03 5.64-12.21 3.26-3.01 7.49-4.66 11.92-4.66 4.89 0 9.6 2.06 12.92 5.66 3.18 3.45 4.83 7.93 4.65 12.63s-2.19 9.03-5.64 12.21c-3.26 3.01-7.49 4.66-11.92 4.66Zm0-31.91c-3.61 0-7.06 1.35-9.71 3.8-5.81 5.36-6.17 14.44-.81 20.25 2.7 2.93 6.54 4.61 10.53 4.61 3.61 0 7.06-1.35 9.71-3.8 2.81-2.6 4.45-6.13 4.6-9.96.15-3.82-1.19-7.48-3.79-10.29-2.7-2.93-6.54-4.61-10.53-4.61Z" class="cls-23"/>
    <path d="M69.91 7.91c4.64 0 9.27 1.86 12.66 5.54 6.45 6.99 6.01 17.88-.98 24.33-3.31 3.06-7.5 4.57-11.68 4.57-4.64 0-9.27-1.86-12.66-5.54-6.45-6.99-6.01-17.88.98-24.33 3.31-3.06 7.5-4.57 11.68-4.57m0 31.91c3.56 0 7.13-1.29 9.96-3.89 5.96-5.5 6.33-14.79.83-20.75-2.89-3.14-6.84-4.73-10.8-4.73-3.56 0-7.13 1.29-9.96 3.89-5.96 5.5-6.33 14.79-.83 20.75 2.89 3.14 6.84 4.73 10.8 4.73m0-32.62c-4.52 0-8.84 1.69-12.16 4.75-3.52 3.25-5.56 7.67-5.76 12.46-.19 4.79 1.49 9.36 4.74 12.88 3.38 3.67 8.19 5.77 13.18 5.77 4.52 0 8.84-1.69 12.16-4.75 7.27-6.71 7.72-18.08 1.02-25.34C79.71 9.3 74.9 7.2 69.91 7.2Zm0 31.91c-3.89 0-7.63-1.64-10.27-4.5-2.53-2.74-3.84-6.31-3.69-10.04.15-3.73 1.74-7.18 4.49-9.71 2.59-2.39 5.95-3.7 9.47-3.7 3.89 0 7.63 1.64 10.27 4.5 5.23 5.66 4.87 14.52-.79 19.74-2.59 2.39-5.95 3.7-9.47 3.7Z"/>
    <path d="M76.1 63.61c-1.21 0-2.04-.13-2.54-.41-2.96-1.63-1.87-4.02-1.86-4.04 0-.02.02-.04.03-.05-.44-.22-.87-.52-1.25-.9-1.93-1.91-.81-4.27.05-5.26a.41.41 0 0 1 .31-.14c-.03-.05-.06-.1-.08-.15-.36-.68-.43-1.37-.22-2.03.43-1.35 1.92-2.1 1.98-2.13.06-.03.12-.04.19-.04.09 0 .18.03.26.09 1.99 1.57 4.3 1.74 5.2 1.74 1.43 0 2.08-.37 2.14-.49.15-.58-.56-2.85-1.11-4.27-.05-.14-.03-.3.07-.42.08-.1.2-.15.33-.15h.07c.35.06 3.48.63 4.34 2.27 1.01 1.94 2.23 3.3 3.36 3.74.23.09.78.2 2.02.2 2.29 0 5.39-.37 5.42-.38h.05c.13 0 .25.06.33.16.09.11.12.26.07.4l-3.32 9.6c-.05.14-.16.24-.3.27-.42.1-10.45 2.41-15.51 2.41Z" class="cls-21"/>
    <path fill="#3a140d" d="M79.58 45.37s3.25.54 4.03 2.05c.79 1.51 2.06 3.34 3.58 3.93.43.17 1.24.23 2.17.23 2.34 0 5.47-.38 5.47-.38l-3.32 9.6s-10.34 2.4-15.41 2.4c-1.06 0-1.88-.1-2.34-.36-2.65-1.46-1.68-3.5-1.68-3.5.6.29 1.25.4 1.87.4 1.42 0 2.65-.54 2.65-.54s-.72.17-1.72.17c-1.24 0-2.91-.26-4.11-1.45-2.15-2.13.08-4.68.08-4.68 1.78 2.29 5.14 2.48 5.14 2.48s-3.68-1.02-4.85-3.24c-1.17-2.22 1.58-3.59 1.58-3.59 1.72 1.35 3.83 1.83 5.46 1.83 1.39 0 2.42-.35 2.54-.8.26-.98-1.12-4.54-1.12-4.54m-.01-.84c-.25 0-.49.11-.65.31-.19.23-.24.55-.13.83.62 1.59 1.1 3.32 1.1 3.91-.22.12-.81.29-1.74.29-.85 0-3.04-.16-4.94-1.65-.15-.12-.34-.18-.52-.18-.13 0-.26.03-.38.09-.17.09-1.71.89-2.19 2.38-.22.69-.18 1.41.13 2.11l-.06.06c-.95 1.09-2.18 3.71-.03 5.83.32.31.66.57 1.02.78-.33 1.06-.22 2.96 2.16 4.27.57.31 1.44.46 2.74.46 5.11 0 15.18-2.32 15.6-2.42.28-.07.51-.27.6-.54l3.3-9.54c.04-.1.07-.21.07-.33 0-.46-.37-.84-.84-.84h-.11c-.21.02-3.17.37-5.36.37-1.29 0-1.73-.12-1.87-.17-1.03-.4-2.18-1.69-3.14-3.54-.95-1.82-4.26-2.43-4.64-2.49-.05 0-.09-.01-.14-.01Z"/>
    <path d="M98.18 51.58s.83-1.97-1.75-1.47c-4.97.97-8.25 1.63-9.23 1.25-1.52-.59-2.79-2.43-3.58-3.93s-4.03-2.05-4.03-2.05 1.38 3.56 1.12 4.54c-.26.98-4.81 1.48-8-1.03 0 0-2.74 1.37-1.58 3.59 1.17 2.22 4.85 3.24 4.85 3.24s-3.36-.18-5.14-2.48c0 0-2.23 2.55-.07 4.68 2.15 2.13 5.83 1.28 5.83 1.28s-2.55 1.11-4.52.14c0 0-.96 2.04 1.68 3.5s19.04-1.29 19.04-1.29l5.37-9.97Z" class="cls-21"/>
    <path d="M71.14 52.48c-1.17-2.22 1.57-3.6 1.57-3.6.41.32.84.6 1.28.82-.6.45-1.56 1.34-1.5 2.35.09 1.46 3.49 3.67 3.49 3.67s-3.68-1.02-4.84-3.24Zm-.37 5.44c-2.15-2.13.08-4.68.08-4.68.25.33.54.61.85.86-.08.79-.2 2.65.38 3.45.75 1.04 4.79 1.63 4.79 1.63-.22.08-.46.14-.7.18.18-.06.31-.11.37-.14-.46.09-3.77.69-5.77-1.3Zm16.67 4.43c-5.03.67-12.03 1.4-13.68.49-2.64-1.46-1.68-3.49-1.68-3.49.38.18.77.29 1.16.35.02.65.23 2.12 1.63 2.6 1.47.5 9.57.19 12.57.05Zm-7.85-16.98s.51.09 1.17.28c.4.5.84 1.31.9 2.48.13 2.25-.67 2.05-1.12 2.21-.05.02-.16.02-.31.01.27-.12.44-.27.48-.44.26-.98-1.12-4.54-1.12-4.54Z" class="cls-15"/>
  </g>
</svg>
