<svg xmlns="http://www.w3.org/2000/svg" xmlns:xlink="http://www.w3.org/1999/xlink" id="Layer_2" data-name="Layer 2" viewBox="0 0 124 107.2"><defs><linearGradient id="linear-gradient" x1="79.1" x2="79.1" y1="72.5" y2="82" gradientTransform="rotate(-3 -1140.8 84.4)" gradientUnits="userSpaceOnUse"><stop offset="0" stop-color="#dbffff"/><stop offset="1" stop-color="#339ed3"/></linearGradient><linearGradient xlink:href="#linear-gradient" id="linear-gradient-2" x1="82.1" x2="82.1" y1="164.2" y2="130.5"/><linearGradient id="linear-gradient-3" x1="32.1" x2="32.1" y1="148.2" y2="127.2" gradientTransform="rotate(-5 -966.8 58.8)" gradientUnits="userSpaceOnUse"><stop offset="0" stop-color="#dbffff"/><stop offset="1" stop-color="#1376a6"/></linearGradient><linearGradient xlink:href="#linear-gradient-3" id="linear-gradient-4" x1="18.4" x2="18.4" y1="148.3" y2="127.2"/><linearGradient xlink:href="#linear-gradient-3" id="linear-gradient-5" x1="5.1" x2="5.1" y1="148.4" y2="127.2"/><style>.cls-1{fill:#5b2307}.cls-3{fill:#fff}.cls-9{fill:#3c7bd6}.cls-11{stroke:#4c1a09;stroke-width:.6px;stroke-linecap:round;stroke-linejoin:round;fill:none}.cls-15{fill:#8e5424}.cls-16{fill:#b7eae8}.cls-18{fill:#4c1a09}.cls-21{fill:#a36731}.cls-23{fill:#212121}.cls-25{fill:#755b46}</style></defs><g id="Layer_1-2" data-name="Layer 1"><path d="M47.6 99.8c-.8 0-1.4-.4-1.7-1-.3-.7 0-1.6.6-2.2.6-.6 2.1-1.6 4-2.8h-1.3c-1.4 0-3-.1-3.1-1.2-.2-1.2 2-2 2.4-2.1a79.1 79.1 0 0 1 13.7-2.2c3.3 0 4 .8 4.1 1.3.5 1.2-1.3 2.6-3.2 4.2a34.7 34.7 0 0 0-3 2.6c-2 2-3.3 3.3-4.2 3.3a1 1 0 0 1-1-.7c-.2-.9.5-2.3 1.4-3.6-1 .7-2.4 1.4-3.6 2l-4 2.2c-.4.2-.7.3-1.1.3Z" class="cls-25"/><path d="M62.2 89c1.9 0 3.3.2 3.5.8.4 1-2.9 3.2-4.6 4.8-1.5 1.3-4.2 4.4-5.3 4.4-.1 0-.2 0-.3-.2-.4-1.4 3.2-5.3 3.2-5.3-2.5 1.2-8.6 4.7-10.2 5.5a2 2 0 0 1-1 .2c-1 0-1.6-1.2-.6-2.2 1.2-1.2 8.2-5.4 8.2-5.4L51.2 93l-2 .1c-4 0-2.6-1.5-.6-2.2a79.7 79.7 0 0 1 13.6-2m0-1.3A78.2 78.2 0 0 0 48.3 90c-.8.2-3.1 1.1-2.8 2.8.2 1.3 1.7 1.6 2.9 1.7-1.1.7-2 1.3-2.3 1.7-.9.8-1.1 2-.7 2.9.3.9 1.2 1.4 2.2 1.4.4 0 1 0 1.4-.3l4-2.2 1.7-1c-.4.9-.6 1.6-.4 2.2.3.7.8 1.1 1.5 1.1 1.2 0 2.4-1 4.8-3.4l1.3-1.3 1.5-1.3c2.3-1.8 4-3.3 3.5-4.9-.5-1.1-2-1.6-4.7-1.6Z" class="cls-18"/><path d="M48.7 95s2.2.5 2.2 3.2m1.3-5.2s3.2-.7 3.2 2.5m-5.6-5.2s1.6.8 1 3.2m6 1.5s2.2-.7 3.1 1.7m-6.1-7.3c0 .2 1.6 0 2 1.8 0 0 2.7-.8 3.4 1.6 0 0 2.8-1 3.4 1.2" class="cls-11"/><path d="M87 106.6c-.5 0-.9-.2-1.1-.6-1-1.6 1-5 2.8-7.5l-1.8 1a14.2 14.2 0 0 1-4.2 1.8.7.7 0 0 1-.7-.4c-.2-.5.1-1 .7-1.6 2.6-2.8 9.6-6.7 10.4-7 1-.8 7.5-6.2 9.9-6.2.5 0 .8.2 1 .4.2.3.3.7.2 1.1-.3 2.8-3 13.6-6 13.8-.7 0-1.1-.3-1.4-.7-.5-.7-.4-2-.2-3.2l-.7.8c-4 4.7-7.2 8.3-9 8.3Z" class="cls-25"/><path d="M103 86.7c.5 0 .7.3.7.9-.5 3.6-3.2 13-5.6 13.2-2.3 0-.1-5.7-.1-5.7-1.7 1.6-8.8 10.9-11 10.9-.3 0-.5-.1-.6-.3-1.4-2.2 4.8-9.4 4.8-9.4l-2 1.3c-1.5.7-5.6 3.2-6.5 3.2-.3 0-.2-.3.5-1 2.6-3 10.2-7 10.2-7s7.3-6 9.6-6m0-1.3c-2.5 0-8.4 4.7-10.3 6.3-1 .5-7.8 4.3-10.4 7.1-.5.5-1.2 1.3-.8 2.3.2.5.7.8 1.2.8.7 0 1.8-.6 4.1-1.8-1.4 2.3-2.4 4.7-1.4 6.1.3.6.9.9 1.5.9 1.8 0 4.3-2.5 9-7.9 0 .7 0 1.3.4 1.8.4.6 1 .9 1.8.9 4-.2 6.6-12.8 6.7-14.3a2 2 0 0 0-.4-1.6c-.3-.3-.7-.6-1.4-.6Z" class="cls-18"/><path d="M86.2 102.8s3.1-1.6 4.7 1.2M88.2 99s5.1-3 6.6.4M85 97.4s1.4.5 1.2 2.3m10.2-1.4s2.2-3 5.2-1.8m-11.5-1.8s1.3-.8 2 .4c0 0 3.8-2.5 6.2-1.2 0 0 2.8-3.5 5.1-2.3" class="cls-11"/><path d="M61.9 91.8c-1.1 0-2.2-.2-3.3-.5-6.6-2-7.3-9-7.3-9 0-.3.1-.6.4-.7 1-.2 2.1-.3 3.3-.3a34 34 0 0 1 16.5 6c.1 0 .3.2.3.4l-.3.5a17 17 0 0 1-9.6 3.6Z" class="cls-16"/><path d="M55 81.9c7.8 0 16.2 5.8 16.2 5.8s-4.3 3.5-9.3 3.5c-1 0-2-.2-3.1-.5-6.3-2-7-8.5-7-8.5 1-.2 2.1-.3 3.1-.3m0-1.2c-1.1 0-2.3 0-3.3.3-.6.2-1 .7-1 1.3 0 .3.8 7.4 7.8 9.6 1.1.3 2.3.5 3.5.5 5.4 0 9.8-3.6 10-3.7.3-.3.5-.6.4-1s-.2-.7-.5-1c-.3-.2-8.7-6-16.9-6Z" class="cls-9"/><path d="M81.6 89.3h-1.4C56.1 88.3 45.3 76 44 68c-.7-3.9-.4-7.3.1-9.9-.4.4-1 1-1.7 1-.3 0-.6-.2-.9-.4-.3-.4-.5-1-.5-2a13 13 0 0 1 2.5-6.3h-.1c-.8.5-1.5 1-2 1-.4 0-1.2-.2-1.2-1.6 0-2.1 2.6-4.3 3.6-5.1-.6-1.7-2.6-8-1.8-17.2.7-8.6 7-15.2 9.6-17.7-1.3-.1-2.3-.6-2.5-1.5-.2-.5 0-1.3 1.6-2 1-.5 2.2-.8 3.4-1-.9-.3-1.6-.7-1.7-1.3-.1-.4 0-1 .7-1.5.6-.4 1.5-.6 2.6-.6 1.5 0 3 .4 4.3.8-.3-.5-.5-1-.3-1.5 0-.3.4-.6.8-.7h.3c1.3 0 3.3 1.7 4 2.4l3.7-.2c13.7 0 23.9 7 29.5 20 2.6 6.2 7.6 8.8 13.3 12a29.1 29.1 0 0 1 10.4 9.8c.2.4 0 .7 0 .8-.1.2-.3.4-.8.4 1.5 2.6 2 6.3 2 7 0 .3 0 .5-.2.6 0 .1-.3.3-.6.3h-.3c1.2 3 1 7.1.3 8-.6.6-3.2 5.8-3.3 6.5-.1 1-14.5 21-37.2 21Z" class="cls-21"/><path d="M60.8 1.2c1.4 0 3.9 2.4 3.9 2.4l3.8-.2a30.1 30.1 0 0 1 29 19.7c2.6 6.3 7.6 9 13.5 12.2 6 3.2 9.8 8.8 10.2 9.6 0 .2 0 .3-.3.3-.5 0-1.5-.4-1.5-.4 2.2 2.3 3 7.4 3 8 0 .2-.1.3-.3.3-.5 0-1.6-.7-1.6-.7 1.9 2.9 1.8 8.1 1.1 8.9a41 41 0 0 0-3.4 6.8c0 .6-14 20.6-36.6 20.6h-1.4C56.9 87.8 46 75.9 44.6 68c-1.4-8 1.5-14.2 1.5-14.2-1.3 1.5-1.9 3.5-1.9 3.5s-1 1.2-1.8 1.2c-.4 0-.8-.4-.8-1.7.1-3.7 4-8 4-8-1.8.5-3.4 2-4.2 2-.3 0-.5-.2-.5-.8 0-2.4 3.7-5 3.7-5s-3-6.7-2-17.3C43.5 17 53 9.4 53 9.4H53c-3 0-4.5-1.2-2-2.5 2.7-1.2 7.7-1.3 7.7-1.3s-7.7-.7-5.1-2.4a4 4 0 0 1 2.2-.6c2.8 0 6.3 1.6 6.3 1.6s-2.7-2.7-1.4-3h.2m0-1.2h-.5c-.6.2-1 .6-1.2 1.2v.7c-1.1-.3-2.3-.5-3.4-.5-1.2 0-2.2.2-3 .8-1 .8-1 1.6-.9 2 0 .3.1.6.6 1-.7.1-1.4.4-2 .6-2 1-2 2.2-1.9 2.8.2.8.9 1.3 1.9 1.7a29 29 0 0 0-9 17.3 42 42 0 0 0 1.8 17c-1.3 1-3.6 3.1-3.5 5.4 0 2 1.4 2 1.7 2h.5c-.8 1.4-1.4 3.1-1.4 4.7 0 1.2.2 2 .7 2.5.3.3.7.5 1.2.5.4 0 .7 0 1-.2-.4 2.4-.5 5.4 0 8.7C45 76.4 55.9 89 80.3 89.9h1.4c12 0 21.6-5.6 27.5-10.3 6-4.8 10.2-10.4 10.3-11.3.2-.7 2.6-5.6 3.1-6.2 1-1 1-4.8.1-7.9.3 0 .4-.2.6-.3.3-.3.4-.7.4-1 0-.1-.4-3.8-1.8-6.7l.4-.4c.3-.4.3-1 0-1.4-.2-.7-4.1-6.7-10.6-10.2-5.6-3-10.5-5.6-13-11.6a31 31 0 0 0-30-20.4 45 45 0 0 0-3.5.2c-1-.9-2.9-2.4-4.3-2.4Z" class="cls-1"/><path d="M118.2 68.1c0-.6 2.8-6 3.4-6.8.7-.8.8-6-1.1-9 0 0 1.9 1.3 1.8.6 0-.7-.7-5.8-3-8.1 0 0 2.2.9 1.9 0-.4-.7-4.2-6.3-10.2-9.5-3-1.6-5.8-3.1-8.1-5s8.4 7.9 8.5 15.9c0 8-3.8 5.1-3.8 5.1l-6.8-3.1s2.6 5.8-.8 8c-3.4 2.3-4.6.3-4.6.3s1.5 3.8-3 5c-4.4 1.3-16.3 2-21.6 1.3-5.3-.7-12.3-2.5-13.2-6.3-.9-3.8-1.6-4.3-1.6-4.3s-4.7 7.2-5.5 3.9c-.8-3.3 0-5.9 0-5.9s-4.1 3-3.8 1.1c.4-1.8 1.3-3.9 1.3-3.9s-1.9-.7-3.6-2.3c-.8.6-3.6 2.8-3.5 4.8 0 2.4 2.2-.4 4.6-1.1 0 0-3.8 4.3-3.8 8-.1 3.6 2.5.5 2.5.5s.6-2 2-3.5c0 0-3 6.2-1.6 14.2C46 76 57 87.8 80.2 88.7c23.3.8 38-20 38-20.6Z" class="cls-15"/><path fill="#bd852d" d="M107 65.3c-10.9-.7-31.7-7.5-29.8-17.9 1.9-10.4 10.1-8 12.3-20.7C91.7 13.9 78.2 7 68 8.9c-10 2-14.5 12.2-14.9 13-.3.6-5.3 1-7.2.6-1.9-.3-1.2-2.5-1.2-2.6a22 22 0 0 0-2.2 7.8c-1 10.6 2 17.3 2 17.3s-3.8 2.6-3.7 5c0 2.2 2.2-.5 4.6-1.3 0 0-3.8 4.4-3.8 8-.1 3.7 2.5.6 2.5.6s.6-2 2-3.5c0 0-3 6.2-1.6 14.1C46 76 57 87.8 80.2 88.7c19.5.7 33-13.8 36.8-18.9-2-2.4-5.5-4.1-10-4.5Z"/><path fill="#91682c" d="m82.8 88.7 1.4-.1a201 201 0 0 0 2-.2h.6l1.3-.3h.6a27.6 27.6 0 0 0 3.5-1h.5l1.3-.5.5-.2 1.1-.4.6-.2 1.1-.5.5-.2 1.4-.6.1-.1 1.5-.8.3-.2 1.2-.6.4-.3a82.4 82.4 0 0 0 1.4-.9l1-.6.3-.3 1-.7.3-.1 1.2-1 .2-.1.9-.8.3-.3.8-.6.3-.3.7-.6.3-.3.7-.6.2-.3.9-.8.2-.2.6-.6.3-.4.4-.4.3-.4.3-.3.3-.4.3-.3.3-.4.8-1c-2-2.5-5.5-4.2-10-4.5-4.3-.3-10.1-1.5-15.5-3.6-5 1.2-15.7 1.7-20.7 1-5.3-.6-12.3-2.4-13.2-6.2C56.7 52.7 56 52 56 52s-4.7 7.2-5.5 4c-.8-3.4 0-6 0-6s-4.1 3-3.8 1.2c.4-1.9 1.2-4 1.2-4s-1.8-.6-3.5-2.2l-.2.1-.3.2-.2.2-.3.3-.3.3-.3.3h-.1l-.3.4-.7.8-.2.4-.1.1-.2.3v.2l-.2.2v.5h-.1v.5c0 2.3 2.3-.4 4.6-1.2 0 0-3.7 4.4-3.8 8-.1 3.6 2.5.6 2.5.6s.6-2 2-3.6c0 0-3 6.2-1.6 14.2C46 76 57 87.8 80.2 88.6h2.6Z"/><path fill="#c4964d" stroke="#5b2307" stroke-linecap="round" stroke-linejoin="round" stroke-width="1.2" d="M71.4 36.9s1-3.4 5.6-4.5c4.6-1 6.3 1 6.3 1"/><path fill="url(#linear-gradient)" d="M79.6 12.4h-.3c-1.3-.2-2.1-1.5-2.7-2.5l-.5-.7L76 9c-.6-.8-1.3-1.6-2.9-1.9a6 6 0 0 0-1 0h-2l-2 .2c-1 0-1.6-.2-2-.4A2 2 0 0 1 65 5.1c0-.9.4-1.8 1-2.1a10 10 0 0 1 4.7-1c1.8 0 3.3.2 3.9.5.4.2 2 .3 3.2.4 1.1 0 2.2 0 3 .2 2 .3 4.2 2.3 5.4 3.4l.6.5c.8.8 1.5 1.4 1.5 2 0 .3 0 .6-.4.8-.3.3-.7.4-1.1.4a5 5 0 0 1-2.5-.8s-.4-.2-1.9-.2h-.9c0 .9 0 1.8-.6 2.5-.3.4-.8.7-1.4.7Z"/><path d="M70.8 2.5c1.6 0 3 .3 3.5.5 1 .5 4.6.4 6.5.7C82.7 4 85 6.2 86 7c1 1 2.1 1.8 1.5 2.3l-.7.2c-.7 0-1.6-.3-2.2-.7-.3-.2-1.3-.3-2.2-.3h-1.6c.4 1.4 0 3.2-1.2 3.2h-.2c-1.4-.2-2.1-2.2-2.8-3-.6-.7-1.3-2-3.3-2.3H72l-4 .2c-.8 0-1.3-.1-1.7-.3-1.4-.8-.7-2.6-.1-2.9 1.2-.7 3-1 4.5-1m0-1.2c-1.5 0-3.5.2-5.1 1.2-.8.4-1.3 1.5-1.3 2.6 0 1 .5 1.8 1.4 2.3.5.3 1.2.5 2.2.5l2.1-.2a23.6 23.6 0 0 1 3 0c1.3.3 1.9 1 2.4 1.7l.2.2.4.6c.7 1 1.6 2.5 3.1 2.7h.4c.7 0 1.4-.3 1.8-.8.5-.7.7-1.5.7-2.3h.3c1.3 0 1.6.1 1.6.2.7.4 1.8.8 2.8.8.6 0 1.1-.2 1.5-.5.4-.3.6-.8.6-1.3 0-1-.8-1.6-1.7-2.4l-.3-.3-.2-.2C85.4 5 83 2.9 81 2.5l-3.1-.3-3-.2c-.8-.4-2.5-.6-4.1-.6Z" class="cls-9"/><path d="M71.3 3.5c2.6.6 4.3 1.2 6 1 1.6-.1 10.4 3.8 9.8 5l.4-.1c.6-.5-.5-1.3-1.5-2.2-1-1-3.4-3.2-5.2-3.5-1.9-.3-5.6-.2-6.5-.7-.9-.4-5.4-1-8 .5-.3.1-.5.5-.6.9a9 9 0 0 1 5.5-1Z" class="cls-3"/><path fill="#f7d33c" d="M70.3 34a14 14 0 0 1-13.6-13.2c-.3-3.7 1-7.4 3.4-10.1 2.3-2.6 5.5-4.2 9-4.3h.6a14 14 0 0 1 13.7 13.1c.2 3.8-1 7.4-3.4 10.2a12.7 12.7 0 0 1-9 4.3h-.7Z"/><path d="M69.7 7.1c6.7 0 12.4 5.5 12.9 12.5.5 7.2-4.7 13.3-11.7 13.7h-.6c-6.7 0-12.4-5.5-12.9-12.5A12.5 12.5 0 0 1 69.1 7h.6m0-1.5H69c-3.6.2-7 1.8-9.5 4.6C57 13 55.7 16.9 56 20.9c.5 7.8 6.8 13.9 14.4 13.9h.6c3.7-.2 7-1.8 9.5-4.6 2.6-3 3.9-6.7 3.6-10.7A14.7 14.7 0 0 0 69.7 5.6Z" class="cls-1"/><path fill="#ed9935" d="M69.1 7.1c-7 .4-12.2 6.5-11.7 13.7.3 3.2 1.6 6.1 3.6 8.3 0 0 2.3-6.8 9.9-7.4 7-.6 8.8 5 9.1 6.7a13 13 0 0 0 2.6-8.8A13.2 13.2 0 0 0 69 7Z"/><path d="M79 19.8c.4 4.9-3.1 9-7.9 9.3a9 9 0 0 1-9.1-8.5c-.4-5 3.2-9 7.9-9.3a9 9 0 0 1 9.2 8.5Z" class="cls-18"/><path d="M61.5 11c-2.5 2.4-2.9 5.7-.8 7.6 2.1 1.9 5.9 1.5 8.4-.9 2.5-2.3 2.8-5.7.8-7.5-2.1-1.9-5.9-1.5-8.4.8Zm17.2 15.5c0 .4-.8.8-1.9.9-1 0-2-.3-2-.7 0-.5.8-.9 2-1 1 0 1.9.3 2 .8Z" class="cls-3"/><path fill="#c4964d" d="M79.3 8.5S72.3 5 68 5.2c-4.3.1-11.3 6.1-12.5 8.6s-1 4.7-1 4.7 6.5-.7 14.4-4c8-3.3 10.4-6 10.4-6Z"/><path fill="none" stroke="#5b2307" stroke-linecap="round" stroke-linejoin="round" stroke-width="1.5" d="M54.2 18.8S67.4 17.6 80 8.6"/><path d="M92.7 92.3c-2.7 0-4-1-4.4-1.6A60.3 60.3 0 0 1 63.2 88c-10-3.5-12.2-5.9-13.5-7.3l-.8-.7a5.7 5.7 0 0 1-1.8-3l-.2-.5h-.1c-2.6-2.2-4-4.5-4-6.8l-.2-2c-.2-2.6-.4-5.4.8-6.6a2 2 0 0 1 1.5-.7h.8c.3.2.5.4.5.7 0 .7.3 3 1.5 3.7 1.6 1 5.8 3.3 8 3.3h.4c1.8-.4 1.8-.9 1.7-1.6 0-1 .3-3.6 2.2-4.2l.8-.1c1.2 0 1.8 1 2 1.5l.1.1.5.2c.7.3 2 .8 3 1.9 1.3 1.4 4.5 3.3 6.2 4a5 5 0 0 0 1.7.4l.3-.1v-1.2c.1-2.2.2-2.8.7-3.1l.4-.4c.5-.5.9-.7 1.2-.7h.2c.3 0 .5.1 1.5 2.2a3.3 3.3 0 0 1 3-.4c2 .7 4.6 1.4 5.4 1.4a51 51 0 0 1 7.6 0l2.4 1 .1-.1c1-1.6 2-3.2 3.2-3.6l1.6-.4c.2-1.4.5-3.5.2-4.3-.6-1.4-1.4-3.4 0-4.7a2 2 0 0 1 1.4-.6c1.6 0 3.1 1.8 3.5 2.3 1.2 1.5 1.9 2.3 1.6 3.3v2.8a14 14 0 0 0 5.3-.3c0-.9 0-2.4 1.1-3 1-.4 2-.4 2.4-.4l.8.1.3.2c-.6-4 0-4.2.2-4.4l.8-.2c.6 0 1.3.4 2.1 1 .8.7 1.9 2.3 1.7 3.3 0 .9-1.1 2.9-2 4.2-.8 1.3-1 3-1 4.2 0 1.1-1.2 2.3-2.2 3.2l-.8.8c-.1.2-8.8 14.5-17.2 18a20.2 20.2 0 0 1-7.4 1.8ZM62 67c-.3 0-.5 0-.6.3-.2.1-.3.4-.3.8.1 1.7 1 4.8 2.4 4.8h.2c.7-.1 1.2-.7 1.4-1.5.2-1.2-.4-3-2.5-4.3l-.6-.1Z" class="cls-16"/><path d="M103.5 56c1 0 2.2 1 3 2 1.2 1.5 1.7 2.2 1.5 2.9-.2.7 0 3.4 0 3.4s.8.3 2.3.3c1.1 0 2.6-.2 4.3-.6 0 0-.5-2.4.7-2.9.8-.3 1.6-.4 2-.4h.6l1.4 1s-.8-4.8-.3-5.2h.5c.5 0 1.2.3 1.8.8.8.6 1.6 2 1.5 2.7-.1.7-1 2.6-2 4a7.8 7.8 0 0 0-1 4.5c0 1.3-2.6 3-3 3.7-.4.7-8.9 14.4-16.9 17.7a19.2 19.2 0 0 1-7.2 1.8c-2.6 0-3.8-1-4.1-1.7 0 0-2.6.4-6.5.4-5 0-12-.6-18.7-2.9-12-4.2-12.5-6.8-14-7.9-1.5-1.1-1.7-3-2-3.4-.5-.4-3.8-2.9-4-6.4-.1-3.3-1.1-8.7 1.6-8.7h.6s0 3.2 1.8 4.3a21.6 21.6 0 0 0 8.9 3.3c2.3-.4 2.3-1.3 2.2-2.2 0-.8.2-3 1.8-3.5l.5-.1c1.1 0 1.4 1 1.7 1.4.2.3 2.1.6 3.6 2.1 1.4 1.5 4.7 3.4 6.4 4.1.8.3 1.4.4 1.9.4s.8-.2.9-.6c0-.7 0-3.6.4-3.9.3-.2 1-1 1.3-1 .3.1 1.5 2.6 1.5 2.6s.7-.9 2-.9l.9.1c1.6.6 4.6 1.4 5.7 1.4h.2a45.2 45.2 0 0 1 7 0c.6.3 2.4 1 3 1h.1c.2-.3 1.7-3.2 3-3.6l2-.6s.8-3.6.2-5c-.5-1.3-1.2-3 0-4 .2-.3.5-.4.9-.4m-40 17.6h.4c2.3-.4 3.1-4.5-1-7l-.8-.1c-.8 0-1.6.6-1.5 1.7 0 1.5.9 5.4 3 5.4m39.9-18.8c-.7 0-1.3.3-1.8.7-1.7 1.6-.8 4-.2 5.4.2.5 0 2.1-.2 3.6l-1.2.3c-1.3.4-2.4 1.9-3.3 3.5l-2-.7a45.7 45.7 0 0 0-7.8-.1c-.7 0-3.3-.8-5.3-1.4l-1.2-.2c-.7 0-1.2.1-1.6.3-1-1.7-1.2-1.8-1.6-2H77c-.7 0-1.1.4-1.7 1l-.4.2c-.7.5-.7 1.4-.8 3.6v.7l-1.2-.3c-1.7-.7-4.8-2.5-6-3.8-1.1-1.2-2.5-1.7-3.3-2l-.3-.2c-.3-.5-1-1.8-2.5-1.8-.3 0-.6 0-1 .2-2.2.7-2.6 3.4-2.5 4.8 0 .6 0 .7-1.2.9h-.3c-2 0-5.8-1.9-7.8-3.2-1-.6-1.2-2.5-1.2-3.2 0-.5-.4-1-.9-1.1l-1-.2c-.7 0-1.4.3-2 .9-1.3 1.5-1 4.3-.8 7.2l.1 1.9c0 2.5 1.5 5 4.2 7.2l.2.4c.2.8.7 2.2 2 3.2l.7.6c1.4 1.5 3.7 3.9 13.7 7.4a59.4 59.4 0 0 0 25 2.7c.8.7 2.1 1.6 4.7 1.6 2.1 0 4.7-.7 7.7-1.9 8.6-3.5 17.3-18 17.4-18.2l.8-.7c1-1 2.4-2.2 2.4-3.7-.1-1.1.2-2.7.9-3.8.9-1.3 2-3.4 2-4.4.3-1.3-1-3.1-1.8-3.8-1-.8-1.8-1.2-2.6-1.2a2 2 0 0 0-1 .3c-.5.3-1.1.6-.7 4h-.4c-.4 0-1.4 0-2.6.5-1.1.5-1.5 1.8-1.5 3a14.7 14.7 0 0 1-4.2.3l.1-2.1c.4-1.3-.4-2.3-1.6-3.9-.5-.6-2.2-2.5-4-2.5Zm-40 17.6c-.7 0-1.6-2.4-1.7-4.3l.1-.4h.5c1.9 1.2 2.4 2.6 2.2 3.6-.1.5-.4 1-1 1Z" class="cls-9"/><path fill="url(#linear-gradient-2)" d="M119 56.5c-.6.4.3 5.3.3 5.3l-1.4-1c-.2-.2-1.4-.2-2.6.3-1.2.6-.7 2.9-.7 2.9-2.6.7-4.7.6-5.9.5s.8 4-.8 6.3c-1.5 2.3-13 5-17.4 7.8-4.5 2.8-16.8 2-25.7-.6-8.8-2.7-13-5-14.1-10.8l-3.4-1.8c-1.7-1.1-1.7-4.2-1.7-4.2-3.5-.9-2.4 5-2.2 8.6.1 3.5 3.5 6 3.9 6.4.4.3.5 2.3 2 3.4s2 3.7 14 7.9C75.5 91.7 88.6 90 88.6 90c.6 1 3.3 3.3 11.4 0s16.4-17 16.8-17.8c.4-.7 3-2.4 3-3.7 0-1.3.2-3.2 1.1-4.5 1-1.4 1.8-3.3 2-4 0-.7-.8-2-1.6-2.7-.7-.6-1.6-1.1-2.2-.8Z"/><path d="M103.5 56.6c.7 0 1.7.8 2.6 1.9 1 1.3 1.4 1.8 1.3 2.2-.2.8-.1 3.2 0 3.7 0 .2.1.5.4.5 0 0 1 .3 2.5.3s3-.2 4.5-.7c.3 0 .5-.4.4-.7-.1-.5-.2-1.9.3-2.1a4.7 4.7 0 0 1 2.1-.4l1.4 1a.6.6 0 0 0 .6 0c.3-.2.4-.4.3-.7-.3-1.8-.6-4-.5-4.6.4 0 1 .3 1.5.8.7.6 1.3 1.8 1.3 2.1-.1.5-.9 2.3-1.9 3.7a8.3 8.3 0 0 0-1.2 5c0 .5-1.1 1.6-1.8 2.2a6 6 0 0 0-1 1.1c-.1.2-8.6 14.1-16.6 17.5a19 19 0 0 1-7 1.7C90 91 89.2 90 89 89.7a.6.6 0 0 0-.5-.2h-.1s-2.6.3-6.4.3c-4.8 0-11.8-.5-18.5-2.9-9.6-3.3-11.7-5.6-13-6.9l-.9-.9c-.9-.6-1.2-1.6-1.4-2.3-.2-.5-.3-.8-.6-1l-.1-.2c-2.3-1.9-3.5-3.9-3.6-5.9l-.1-2c-.2-2.1-.4-4.9.4-5.7.2-.2.4-.3.7-.3.1 1 .5 3.2 2 4.2 1.5.9 6 3.5 8.8 3.5h.6c2.6-.5 2.7-1.8 2.7-2.9 0-.8.2-2.6 1.3-3h.4c.5 0 .7.3 1 .8l.1.3c.2.3.6.4 1 .6.8.3 1.8.7 2.7 1.6 1.6 1.6 5 3.6 6.7 4.3.8.3 1.5.5 2 .5.9 0 1.5-.5 1.6-1.2v-1.3c0-.7 0-1.9.2-2.2l.4-.4.4-.3 1 2c.1.3.3.4.5.4s.4 0 .5-.2c0 0 .6-.7 1.6-.7l.7.1c1.5.5 4.7 1.5 5.9 1.5h.3a46 46 0 0 1 6.7 0c1 .3 2.5 1 3.2 1 .3 0 .5-.2.6-.3l.3-.5c1-1.8 1.9-2.8 2.4-3l2-.5c.2 0 .4-.2.4-.5s.8-3.8.2-5.3c-.6-1.5-1-2.6-.2-3.3.1-.2.3-.3.5-.3M63.6 74.2h.4c1.2-.2 2.1-1.2 2.4-2.5.3-1.6-.4-3.9-3-5.5l-1.3-.3a2 2 0 0 0-1.5.6c-.4.5-.6 1-.6 1.8.1 1.5 1 6 3.6 6m40-18.3c-.4 0-.8.2-1 .4-1.2 1-.5 2.8 0 4.1.6 1.3-.2 5-.2 5l-1.9.5c-1.3.4-2.8 3.3-3 3.6h-.2c-.6 0-2.4-.7-3-.9l-3-.2a45 45 0 0 0-4 .2H87c-1 0-4-.9-5.7-1.4l-.9-.2c-1.2 0-2 1-2 1s-1.2-2.5-1.4-2.6c-.3 0-1 .7-1.4 1-.4.2-.3 3-.4 3.9 0 .4-.4.6-1 .6-.4 0-1-.2-1.8-.5-1.7-.6-5-2.6-6.4-4-1.5-1.6-3.4-1.8-3.6-2.2-.2-.3-.6-1.4-1.6-1.4h-.6c-1.6.6-1.8 2.8-1.8 3.7 0 .8.1 1.8-2.2 2.1h-.5c-2.4 0-6.8-2.3-8.4-3.3-1.7-1.1-1.7-4.2-1.7-4.2H45c-2.7 0-1.7 5.3-1.6 8.6.2 3.5 3.6 6 4 6.4.4.4.5 2.3 2 3.4 1.5 1.2 2 3.7 14 8A58 58 0 0 0 88.6 90c.3.5 1.5 1.6 4.1 1.6 1.7 0 4-.5 7.2-1.8 8-3.3 16.5-17 17-17.6.3-.7 3-2.5 2.9-3.8-.1-1.2.2-3.2 1-4.5 1-1.4 2-3.3 2-4 0-.6-.7-2-1.5-2.7-.6-.5-1.2-.9-1.8-.9-.2 0-.3 0-.4.2-.6.3.3 5.2.3 5.2l-1.5-1-.5-.1c-.5 0-1.3.1-2 .5-1.3.5-.8 2.8-.8 2.8-1.6.5-3.1.6-4.3.6-1.5 0-2.4-.2-2.4-.2s0-2.8.1-3.5-.3-1.3-1.4-2.8c-.9-1-2-2-3-2Zm-40 17.6c-2 0-2.9-4-3-5.4 0-1 .7-1.7 1.5-1.7.3 0 .6 0 1 .2 4 2.4 3.1 6.5.8 6.9h-.3Z" class="cls-16"/><path d="m109.3 64.5-1.4-.1.1-3.5c.1-.7-.3-1.4-1.4-2.8-1.2-1.5-3-2.7-4.1-1.7-1.1 1-.4 2.8.1 4.1.5 1.3-.2 5-.2 5l-2 .5c-1.3.4-2.8 3.3-3 3.6-.2.3-2.5-.6-3-.9-.7-.3-6.4-.2-7.2 0-.8 0-4.1-.9-5.9-1.4-1.8-.6-2.9.7-2.9.7s-1.2-2.5-1.4-2.5c-.2 0-1 .7-1.4 1-.4.2-.3 3-.4 3.8s-1 .9-2.8.2c-1.7-.7-5-2.6-6.4-4-1.4-1.6-3.3-1.9-3.6-2.2-.2-.4-.6-1.8-2.2-1.3s-1.8 2.7-1.7 3.6c0 .8 0 1.8-2.3 2.1-2.3.4-7.1-2.2-8.9-3.3-1.7-1.1-1.7-4.2-1.7-4.2-.3 0-.6-.1-.8 0-.6 6.4 9 8 10.2 8.4 1.2.4 3.6-1.1 3.6-1.1s.8-3.7 2-4.2c1-.4 1.5 1.4 2.2 1.4.7 0 4.4 2.5 6.7 4.5 2.2 2 6.3 2.1 6.3 2.1l1.2-3.2c.6-1.3 3 .7 3.3.7.3 0 1.6-.8 3 0 1.4.9 5 0 7.9.1s6.4 1.6 6.4 1.6l2.3-3c1-1.5 3.3-1.4 3.3-1.4s.9-5.2.5-6.9c-.4-1.7-.7-4 1.5-2.3 2.1 1.8 1.5 7.2 1.5 7.2l2.6-.6Z" class="cls-3"/><path fill="#b7eae8" stroke="#3c7bd6" stroke-linecap="round" stroke-linejoin="round" stroke-width="1.2" d="M107 49.5c-1.5 0-3.8-.3-3.9.2a26 26 0 0 0 4.8 5.1c1 .9 4 .1 3.8-1.7s-2-3.8-4.7-3.7Z"/><path d="M110.3 52.5c-.1.4-.9.4-1.7.1-.7-.3-1.2-.9-1-1.3.1-.3.9-.4 1.6 0 .8.2 1.3.8 1.1 1.2Z" class="cls-3"/><path fill="#703c16" d="m89.3 34.6 1.3 2.5c.6.8 1.4 1.4 2.3 2 .3.1.6 0 .8-.3s0-.6-.2-.8a9 9 0 0 1-.7-.4l-.1-.1-.3-.3c-.2 0-.3-.2-.5-.4l-.2-.2v-.1h-.1l-.6-1c0-.3-.2-.5-.3-.6v-.2c0-.1 0 0 0 0l-.2-.4c-.1-.3-.4-.5-.7-.4-.3 0-.6.4-.5.7Zm4.4-.5c1 .8 2 1.8 3.3 2.3.3.1.6 0 .8-.2.1-.3 0-.7-.2-.9-.7-.2-1.3-.6-1.8-1 0 0-.1-.1 0 0l-.1-.1-.2-.2-.4-.3-.6-.5c-.2-.2-.6-.2-.8 0-.2.3-.3.7 0 .9Zm19.3 7.4c3 2.2 4.8 5.7 5 9.4.1.8 1.4.8 1.3 0-.3-4.2-2.3-8-5.7-10.4-.6-.5-1.3.6-.6 1Zm-.2 6.5.2.1a4 4 0 0 1 .8 1l.2.3v.1l.2.5v.3s0 .1 0 0v1c0 .1 0 0 0 0v.2c0 .3.1.7.5.8.2 0 .6-.1.7-.5a5 5 0 0 0-.2-2.6 5 5 0 0 0-1.7-2.3c-.3-.2-.7 0-.9.3-.1.3 0 .6.3.8ZM97.1 33l.9.7h-.2l.4.2.4.2c.2 0 .4 0 .5-.2l.1-.4-.1-.5-.9-.6h.2l-.4-.2a.6.6 0 0 0-.4-.2c-.2 0-.3 0-.4.2l-.2.4.1.5ZM82 50c0 3 2.8 4.6 5.3 5.4.8.2 1-1 .3-1.2a11.6 11.6 0 0 1-2.7-1.3h-.2v-.2a5.7 5.7 0 0 1-.9-.7v-.1l-.3-.4a3 3 0 0 1-.3-1.5c0-.7-1.2-.7-1.2 0Z"/><path fill="#a18f70" d="M2.9 43.6a.6.6 0 0 1-.6-.5c-.1-.3 0-.6.3-.7C23.1 34.7 45.3 34 53.9 34h4c.3 0 .5.2.6.3s0 .4 0 .6a27.2 27.2 0 0 1-8 4.7 37 37 0 0 0-5.2-.3c-14.2 0-42 4.3-42.3 4.4Z"/><path d="M53.8 34.5h4C57 36 50.5 39 50.5 39c-1.4-.2-3.2-.3-5.3-.3C30.9 38.6 3 43 3 43c20.2-7.7 42-8.5 50.9-8.5m0-1.2c-8.6 0-30.9.8-51.4 8.6a1.2 1.2 0 0 0 .5 2.3H3c.3 0 28-4.4 42.3-4.4 2 0 3.8 0 5 .3h.2l.5-.1c2-1 7-3.3 7.9-4.8.2-.4.2-.9 0-1.2-.2-.4-.6-.7-1-.7h-4.1Z" class="cls-1"/><path fill="url(#linear-gradient-3)" d="M34.8 60.1c-.6 0-1-1-1.3-6.7l-.1-1.7c0-.3-.2-.6-.4-.9-.3-.5-.6-1-.5-1.6l-.9-9.9v-.2h.2c1-.4 2.4-.5 3.4-.5h1.6v.4l-.3 7.4c0 1.1-.4 1.9-.6 2.5a3 3 0 0 0-.3 1.4s.4 9.6-.8 9.8Z"/><path d="M35.2 38.9h1.3l-.3 7.5c0 2-1 2.7-.9 3.9.1 1.2.2 9.4-.5 9.5-.7 0-1-7.4-1.1-8.2-.1-.7-1-1.6-.9-2.4l-.9-9.9c1-.3 2.3-.4 3.3-.4m0-.6c-1.5 0-2.7.1-3.5.4l-.4.2v.5l1 9.8c-.2.6.2 1.2.5 1.7l.3.9.1 1.6c.4 6.1.7 7 1.6 7h.1c.6-.1 1-.5 1-5v-5.2l.3-1.2c.3-.7.6-1.4.6-2.6L37 39v-.6h-.5l-1.4-.1Z" class="cls-9"/><path fill="url(#linear-gradient-4)" d="M21.2 61c-.6 0-1-.7-1.4-3.9-.2-2.3-.7-4.6-.8-5.2-.6-.3-.9-1.6-1.1-3.5L16.4 41v-.3h.2c.2-.1 5-1.4 7.1-1.4.6 0 1 0 1 .3.2.1.2.3.2.4-.2.6-.2 3.7-.1 6.3 0 6 0 6-.4 6-.6 0-.7-.7-1-2.9l-.2-.5c0-.5-.7-2.5-1.1-4v4c.3 1.4-.2 4.1-.2 4.4V56c0 4.4-.1 4.8-.5 5h-.2Z"/><path d="M23.7 39.7c.6 0 1 0 .9.4-.4 1.2.1 12-.3 12-.3 0-.6-2.3-.8-3.2-.1-.9-1.7-5.7-1.7-5.7s0 4.7 0 5.9c.3 1 0 3.4-.2 4.3-.2.8.2 7.1-.3 7.2-.5 0-.8-1-1.1-3.5-.3-2.8-1-5.4-1-5.4-.5-.2-.8-1.7-1-3.4-.2-1.7-1.5-7.3-1.5-7.3s5-1.3 7-1.3m0-.6c-2 0-7 1.3-7.2 1.3l-.5.2.1.5c0 .1 1.3 5.6 1.5 7.3.3 2 .5 3.2 1.1 3.7l.9 5c.3 3 .7 4.1 1.6 4.1h.3c.6-.2.7-.7.7-5.2v-2.6c0-.3.5-3 .3-4.5l-.1-1.9a24.8 24.8 0 0 1 .6 2.6c.4 2 .6 3 1.4 3 .7 0 .8 0 .7-6.2v-6.9c-.4-.4-1-.4-1.4-.4Z" class="cls-9"/><path fill="url(#linear-gradient-5)" d="M8.7 58.3c-.4 0-.6-.4-1.6-5.2l-.8-4a585 585 0 0 1-1.5-5.9V43h.1c.2-.2 3.2-1.8 4.5-1.8.5 0 .7.3.8.4.2.8-.2 3.2-.6 6.2l-.3 1.5v4c0 4.5 0 5-.5 5Z"/><path d="M9.4 41.5c.2 0 .4 0 .5.2.3 1-.7 5.9-.9 7.6-.2 1.7.2 8.6-.3 8.7-.4 0-1.5-6.4-2.1-9L5 43.2s3-1.7 4.3-1.7m0-.6c-1.3 0-4.3 1.6-4.6 1.7l-.4.3v.4L6 49.2l.8 4c1 5 1.2 5.4 2 5.4.7-.2.8-.6.8-5.3v-4l.3-1.5c.5-3 .8-5.5.6-6.3-.1-.2-.3-.6-1-.6Z" class="cls-9"/><path d="M35.2 39.5h.7l-.3 6.8c0 1-.3 1.6-.5 2.2-.2.6-.4 1.1-.4 1.8V57l-.3-3.7-.1-1.8c0-.4-.3-.8-.5-1.1-.2-.4-.4-.8-.4-1.1l-.8-9.6 2.7-.2m0-.6c-1 0-2.5 0-3.4.4l1 10c-.2.7.7 1.6.8 2.4.2.7.4 8.1 1.1 8.1.8-.1.7-8.3.5-9.5 0-1.2.9-1.9.9-4l.3-7.4h-1.2Zm-11.6 1.4h.2v7.5L22.4 43l-.8-2.5a13 13 0 0 1 2.1-.2m-2.4.3V43c0 .2-.2 4.9 0 6 .1 1-.1 3.2-.3 4.2v5.1l-.2-1.4c-.4-2.8-1-5.3-1-5.4v-.3l-.3-.1a127.6 127.6 0 0 0-2-9.7l3.8-1m2.4-.8c-2 0-7 1.3-7 1.3s1.3 5.6 1.5 7.3c.2 1.7.5 3.2 1 3.4 0 0 .7 2.6 1 5.4.3 2.6.6 3.5 1 3.5h.1c.5 0 .1-6.4.3-7.2.1-1 .5-3.2.3-4.3-.2-1.2 0-6 0-6s1.5 5 1.6 5.8c.2 1 .5 3.2.8 3.2.4 0 0-10.8.3-12 0-.3-.3-.4-.9-.4ZM9.3 42c.1 1-.4 4-.6 5.5l-.3 1.6V54.5L8 53a94.9 94.9 0 0 0-2.3-9.4c1.2-.6 2.9-1.3 3.6-1.4m0-.6c-1.1 0-4.3 1.7-4.3 1.7L6.5 49c.7 2.5 1.7 9 2.2 9 .4-.2 0-7.1.3-8.8.2-1.7 1.1-6.6.8-7.6l-.4-.2Z" class="cls-3"/><path d="M34.2 43.7c0 .7-.3 1.4-.7 1.4-.4 0-.8-.5-.9-1.2 0-.8.3-1.4.7-1.4.4 0 .8.5.9 1.2ZM19.8 46c.1 1-.2 1.9-.7 2-.4 0-.9-.8-1-1.9 0-1 .3-1.9.7-2 .5 0 1 .8 1 1.9Z" class="cls-3"/><path fill="#ceb891" d="M1.2 44.1a.6.6 0 0 1-.5-.3c-.2-.3 0-.6.2-.8C20.7 30.5 50 28.7 50.3 28.7c.3 0 .5.1.6.3 2.3 3.4 7 5 7.1 5a.6.6 0 0 1-.2 1.1h-2.5a195.4 195.4 0 0 0-54.1 9Z"/><path d="M50.4 29.3c2.4 3.7 7.5 5.2 7.5 5.2h-2.6c-27.3 0-54 9-54 9 19.8-12.6 49-14.2 49-14.2m0-1.2c-1.2 0-29.8 1.8-49.7 14.4a1.2 1.2 0 0 0 1 2.1 194.9 194.9 0 0 1 56.2-8.9c.6 0 1.2-.4 1.2-1 .1-.6-.2-1.2-.8-1.4 0 0-4.6-1.4-6.8-4.7-.2-.3-.6-.5-1-.5Z" class="cls-1"/><path d="M50.4 29.3S21 31 1.2 43.5l2-.7c12-7 42.6-12.2 44.6-12 2 0 7.9 3.7 7.9 3.7h2.2s-5-1.5-7.5-5.2Z" class="cls-3"/><path fill="none" stroke="#5b2307" stroke-linecap="round" stroke-linejoin="round" stroke-width="1.2" d="M57.8 34.8s2-.8 2.4-2.4"/><path d="M77 62a.4.4 0 0 1-.4-.3l-5.7-21.5c0-.2 0-.4.3-.5l5.5-1.4h.1a.4.4 0 0 1 .4.3L83 60v.3l-.3.2-5.5 1.4H77Z" class="cls-23"/><path d="m76.8 38.7 5.7 21.5-5.5 1.4-5.7-21.5 5.5-1.4m0-.8h-.2l-5.5 1.5c-.2 0-.4.2-.5.3v.7l5.6 21.4c0 .4.4.6.8.6h.2l5.5-1.5c.2 0 .4-.1.5-.3.1-.2.2-.4.1-.7l-5.7-21.4a.8.8 0 0 0-.7-.6Z"/><path d="M70 42.7a17.6 17.6 0 0 1 0-35.2 17.6 17.6 0 0 1 0 35.2Zm0-32c-3.7 0-7.1 1.4-9.8 3.9a14.3 14.3 0 1 0 9.7-3.8Z" class="cls-23"/><path d="M70 8a17.2 17.2 0 0 1 11.6 29.8 17.1 17.1 0 0 1-24.3-1A17.2 17.2 0 0 1 69.8 8m0 32a14.7 14.7 0 1 0 0-29.4 14.7 14.7 0 0 0 0 29.3m0-32.6A17.9 17.9 0 1 0 70 43a17.9 17.9 0 0 0 0-35.8Zm0 32a14 14 0 0 1-9.5-24.3 14 14 0 0 1 19.8.8A14 14 0 0 1 69.9 39Z"/><path d="M76.1 63.6c-1.2 0-2-.1-2.5-.4-3-1.6-2-4-1.9-4l-1.2-1c-2-1.9-.8-4.3 0-5.2a.4.4 0 0 1 .3-.2v-.1c-.4-.7-.5-1.4-.3-2 .5-1.4 2-2.2 2-2.2h.5c2 1.6 4.3 1.8 5.2 1.8 1.4 0 2-.4 2.1-.5.2-.6-.5-2.8-1.1-4.3v-.4l.4-.1c.4 0 3.5.6 4.4 2.2 1 2 2.2 3.3 3.4 3.8.2 0 .7.2 2 .2a53 53 0 0 0 5.4-.4c.2 0 .3 0 .4.2 0 0 .1.2 0 .4L92 61s-.1.2-.3.2c-.4.1-10.4 2.4-15.5 2.4Z" class="cls-21"/><path fill="#3a140d" d="M79.6 45.4s3.2.5 4 2c.8 1.5 2 3.4 3.6 4a7 7 0 0 0 2.2.2c2.3 0 5.4-.4 5.4-.4l-3.3 9.6s-10.3 2.4-15.4 2.4c-1 0-1.9-.1-2.3-.4-2.7-1.4-1.7-3.5-1.7-3.5.6.3 1.2.4 1.9.4 1.4 0 2.6-.5 2.6-.5l-1.7.2c-1.3 0-3-.3-4.1-1.5-2.2-2.1 0-4.7 0-4.7 1.8 2.3 5.2 2.5 5.2 2.5s-3.7-1-4.9-3.2c-1.1-2.2 1.6-3.6 1.6-3.6a9 9 0 0 0 5.5 1.8c1.4 0 2.4-.3 2.5-.8.3-1-1.1-4.5-1.1-4.5m0-.9c-.3 0-.5.1-.7.3-.2.3-.2.6 0 .9.5 1.6 1 3.3 1 3.9a4 4 0 0 1-1.7.3c-.9 0-3-.2-5-1.7a.8.8 0 0 0-.9 0c-.1 0-1.7.8-2.2 2.3a3 3 0 0 0 .2 2.1c-1 1.2-2.3 3.8-.1 6l1 .7c-.3 1-.2 3 2.2 4.3a6 6 0 0 0 2.7.4c5.1 0 15.2-2.3 15.6-2.4.3 0 .5-.3.6-.5l3.3-9.6v-.3c0-.5-.3-.8-.8-.8-.3 0-3.3.3-5.4.3a6 6 0 0 1-2-.1c-1-.4-2-1.7-3-3.6-1-1.8-4.3-2.4-4.7-2.5h-.1Z"/><path d="M98.2 51.6s.8-2-1.8-1.5c-5 1-8.2 1.6-9.2 1.3-1.5-.6-2.8-2.5-3.6-4s-4-2-4-2 1.4 3.5 1.1 4.5c-.2 1-4.8 1.5-8-1 0 0-2.7 1.4-1.6 3.6 1.2 2.2 4.9 3.2 4.9 3.2s-3.4-.2-5.2-2.5c0 0-2.2 2.6 0 4.7 2.1 2.2 5.8 1.3 5.8 1.3s-2.5 1.1-4.5.1c0 0-1 2 1.7 3.5s19-1.2 19-1.2l5.4-10Z" class="cls-21"/><path d="M71.1 52.5c-1.1-2.2 1.6-3.6 1.6-3.6l1.3.8c-.6.4-1.6 1.3-1.5 2.3 0 1.5 3.5 3.7 3.5 3.7s-3.7-1-4.9-3.2Zm-.3 5.4c-2.2-2.1 0-4.7 0-4.7l.9.9c0 .8-.2 2.6.4 3.4.7 1 4.8 1.7 4.8 1.7a4 4 0 0 1-.7.2l.3-.2c-.4.1-3.7.7-5.7-1.3Zm16.6 4.4c-5 .7-12 1.4-13.6.5-2.7-1.4-1.7-3.5-1.7-3.5l1.1.4c0 .6.3 2.1 1.7 2.6s9.5.2 12.5 0Zm-7.8-17 1.2.3c.4.5.8 1.4.9 2.5 0 2.3-.7 2-1.2 2.2h-.3c.3 0 .5-.2.5-.4.3-1-1.1-4.5-1.1-4.5Z" class="cls-15"/></g></svg>