<?xml version="1.0" encoding="UTF-8"?>
<svg id="Layer_2" data-name="Layer 2" xmlns="http://www.w3.org/2000/svg" xmlns:xlink="http://www.w3.org/1999/xlink" viewBox="0 0 145.93 112.71">
  <defs>
    <style>
      .cls-1 {
        fill: #703c16;
      }

      .cls-2, .cls-3, .cls-4, .cls-5 {
        stroke-width: 1.21px;
      }

      .cls-2, .cls-3, .cls-4, .cls-5, .cls-6, .cls-7, .cls-8, .cls-9 {
        stroke-linejoin: round;
      }

      .cls-2, .cls-3, .cls-4, .cls-5, .cls-6, .cls-10, .cls-11, .cls-8 {
        stroke-linecap: round;
      }

      .cls-2, .cls-3, .cls-5 {
        stroke: #5b2307;
      }

      .cls-2, .cls-6, .cls-7, .cls-10, .cls-11, .cls-8, .cls-9 {
        fill: none;
      }

      .cls-12, .cls-3 {
        fill: #ceb891;
      }

      .cls-13 {
        fill: #755b46;
      }

      .cls-14 {
        fill: #8e5424;
      }

      .cls-15 {
        fill: #f7d33c;
      }

      .cls-16 {
        fill: #153350;
      }

      .cls-17 {
        fill: url(#linear-gradient-2);
      }

      .cls-18 {
        fill: #f6c574;
      }

      .cls-19 {
        fill: #fff;
      }

      .cls-20 {
        fill: #4c1a09;
      }

      .cls-21, .cls-4 {
        fill: #b7eae8;
      }

      .cls-22 {
        fill: #ebb561;
      }

      .cls-23 {
        fill: #2b4354;
      }

      .cls-24 {
        fill: #fcd494;
      }

      .cls-25 {
        fill: #3c7bd6;
      }

      .cls-26 {
        fill: #a36731;
      }

      .cls-27 {
        fill: #fddf9e;
      }

      .cls-28 {
        fill: #bd852d;
      }

      .cls-4 {
        stroke: #3c7bd6;
      }

      .cls-29 {
        fill: #c66123;
      }

      .cls-5 {
        fill: #c4964d;
      }

      .cls-6, .cls-7, .cls-10, .cls-11, .cls-9 {
        stroke-width: 2.43px;
      }

      .cls-6, .cls-9 {
        stroke: #001f39;
      }

      .cls-7 {
        stroke: #fff;
      }

      .cls-30 {
        fill: #223c51;
      }

      .cls-31 {
        fill: #adbbc4;
      }

      .cls-32 {
        fill: #5b2307;
      }

      .cls-33 {
        fill: #7b93a8;
      }

      .cls-10 {
        stroke: #021e35;
      }

      .cls-10, .cls-11 {
        stroke-miterlimit: 10;
      }

      .cls-11 {
        stroke: #31536c;
      }

      .cls-34 {
        fill: #ed9935;
      }

      .cls-35 {
        fill: #91682c;
      }

      .cls-36 {
        fill: url(#linear-gradient);
      }

      .cls-8 {
        stroke: #4c1a09;
        stroke-width: .6px;
      }
    </style>
    <linearGradient id="linear-gradient" x1="104.75" y1="21.28" x2="104.75" y2="54.95" gradientTransform="translate(0 115.5) scale(1 -1)" gradientUnits="userSpaceOnUse">
      <stop offset="0" stop-color="#dbffff"/>
      <stop offset="1" stop-color="#339ed3"/>
    </linearGradient>
    <linearGradient id="linear-gradient-2" x1="101.67" y1="112.94" x2="101.67" y2="103.4" xlink:href="#linear-gradient"/>
  </defs>
  <g id="Layer_3" data-name="Layer 3">
    <g id="Layer_2-2" data-name="Layer 2">
      <g id="Layer_1-2" data-name="Layer 1-2">
        <path class="cls-13" d="M79.63,99.94c-.46.02-.88-.29-1-.74-.23-.88.62-2.24,1.62-3.46l-3.66,1.76c-1.81.87-3.38,1.63-4.13,1.94-.32.13-.66.2-1,.21-.75.03-1.44-.42-1.72-1.11-.27-.81,0-1.7.68-2.22,1.3-.96,2.67-1.81,4.1-2.56-2.88,0-4.17-.43-4.29-1.38s1.22-1.69,2.52-2c2.77-.55,5.57-.95,8.39-1.21,1.29-.13,2.58-.18,3.88-.17,5.1,0,5.46,1.14,5.58,1.52.38,1.22-1.42,2.51-3.5,4-.59.42-1.16.83-1.62,1.2s-.9.76-1.43,1.23c-2.07,1.83-3.5,3-4.42,3h0Z"/>
        <path class="cls-20" d="M85.02,89.56c2.64,0,4.77.35,5,1.1.34,1.09-3.11,3.09-4.92,4.55-1.54,1.24-4.43,4.12-5.47,4.12-.18.02-.33-.11-.36-.28-.35-1.34,3.47-5,3.47-5-2.52,1-8.8,4.17-10.51,4.88-.25.11-.52.17-.79.17-1.2,0-1.72-1.32-.64-2.28,1.3-1.16,8.52-4.93,8.47-4.93s-3.93,1.3-3.93,1.3h-.75c-5.59,0-3.93-1.64-1.71-2.22,2.76-.53,5.55-.92,8.35-1.16,1.26-.14,2.52-.21,3.79-.21M85.02,88.39c-1.31,0-2.62.08-3.92.22-2.86.24-5.71.64-8.53,1.19-2,.53-3.11,1.53-3,2.69s1.3,1.63,2.8,1.81c-.85.47-1.65,1.01-2.41,1.61-.84.68-1.17,1.81-.82,2.84.37.93,1.28,1.53,2.28,1.5.43,0,.85-.09,1.24-.26.78-.31,2.35-1.07,4.17-1.94l1.69-.81c-.37.64-.51,1.38-.38,2.11.17.71.8,1.2,1.53,1.19,1.1,0,2.37-1,4.82-3.18.53-.46,1-.9,1.41-1.21s1-.76,1.59-1.18c2.37-1.69,4.23-3,3.72-4.67-.28-.91-1.24-2-6.15-2l-.04.09Z"/>
        <path class="cls-8" d="M72.68,94.88c1.37.47,2.21,1.85,2,3.28"/>
        <path class="cls-8" d="M76.34,93.11s3.18-.51,3,2.71"/>
        <path class="cls-8" d="M74.04,90.24s1.58.87.83,3.28"/>
        <path class="cls-8" d="M80.79,95.37c1.33-.32,2.67.5,3,1.83"/>
        <path class="cls-8" d="M78.07,89.56c.12.19,1.66.15,1.85,1.92,0,0,2.78-.66,3.41,1.79,0,0,2.78-.77,3.31,1.38"/>
        <path class="cls-13" d="M102.26,104.05c-.62.07-1.2-.32-1.37-.92-.51-1.86,2.48-4.51,4.94-6.32-.59.09-1.3.23-2,.37-1.32.3-2.65.51-4,.62-.22,0-.89,0-1-.58s.45-1,1.14-1.41c3.33-1.92,11.16-3.52,12-3.68s7.53-3,10.42-3c.6-.09,1.2.15,1.59.62.24.41.24.92,0,1.33-1.38,2.92-6.63,11.32-9.58,11.32h0c-.13,0-.27-.02-.4-.05-.51-.11-.93-.5-1.08-1-.29-.86.19-2.11.8-3.21l-1,.62c-4.58,2.91-8.58,5.29-10.46,5.29Z"/>
        <path class="cls-20" d="M122.28,89.72c.93,0,1.4.3,1,1.1-1.41,3.2-6.54,11-8.93,11-.08.01-.17.01-.25,0-2.26-.61,1.51-5.44,1.51-5.44-2,.92-10.68,7.12-13.4,7.12-.42,0-.69-.15-.78-.48-.68-2.49,7.41-7.52,7.41-7.52l-2.23.63c-1.58.16-5.53,1.11-6.87,1.11-.65,0-.7-.22.4-.86,3.4-2,11.85-3.62,11.85-3.62,0,0,7.33-3,10.24-3M122.23,88.55c-2.94,0-9.43,2.57-10.59,3-1.08.22-8.75,1.8-12.1,3.74-.6.35-1.72,1-1.43,2.09.11.38.45,1,1.63,1,1.26-.09,2.51-.27,3.74-.55-2,1.75-3.67,3.77-3.22,5.44.24.89,1.09,1.47,2,1.37,2,0,5.6-2.12,10.14-5-.2.6-.22,1.25-.06,1.86.23.68.8,1.2,1.5,1.36.18.05.37.08.56.08,3.62,0,9.13-9.64,10-11.7.32-.6.29-1.32-.06-1.9-.49-.65-1.29-.99-2.1-.9v.11Z"/>
        <path class="cls-8" d="M102.14,100.16s3.42-.56,4.07,2.51"/>
        <path class="cls-8" d="M105.14,97.24s5.79-1.41,6.24,2.36"/>
        <path class="cls-8" d="M102.58,94.62c.74.66.93,1.75.46,2.62"/>
        <path class="cls-8" d="M113.25,99s3-2.31,5.53-.25"/>
        <path class="cls-8" d="M108.27,93.56c.81-.21,1.64.26,1.87,1.06,0,0,4.32-1.3,6.23.66,0,0,3.73-2.47,5.54-.66"/>
        <path class="cls-21" d="M86.74,92.45c-1.34,0-2.68-.23-3.94-.7-6.49-2.46-6.8-9.38-6.8-9.45,0-.3.2-.57.5-.62.77-.13,1.55-.19,2.33-.19,8.23,0,16.73,6.67,17.09,7,.28.19.34.57.15.85-.04.06-.09.11-.15.15-2.71,1.84-5.88,2.88-9.15,3l-.03-.04Z"/>
        <path class="cls-25" d="M78.83,82.09c8.11,0,16.71,6.83,16.71,6.83-2.6,1.78-5.65,2.8-8.8,2.93-1.27,0-2.54-.22-3.73-.67-6.18-2.34-6.41-8.9-6.41-8.9.74-.13,1.48-.19,2.23-.19M78.83,80.89c-.82,0-1.63.06-2.44.2-.59.1-1.02.63-1,1.23,0,.3.34,7.4,7.2,10,1.33.5,2.73.75,4.15.74,3.4-.13,6.7-1.23,9.51-3.15.31-.24.5-.61.5-1,.01-.39-.16-.76-.46-1-.36-.29-9-7.08-17.46-7.08v.06Z"/>
        <path class="cls-26" d="M104.14,90.42c-1.21,0-2.44-.06-3.66-.17-23.92-2.25-33.95-15.17-34.86-23.25-.36-3.29-.13-6.62.7-9.83-.48.44-1.08.73-1.73.81-.33,0-.65-.13-.87-.38-.42-.61-.58-1.37-.42-2.09.18-2.21,1.59-4.51,2.84-6.11h-.08c-.6.42-1.28.69-2,.8-.29.01-.57-.1-.77-.31-.28-.36-.4-.81-.34-1.26.09-2.17,2.81-4.22,3.9-5-1.52-5.62-1.82-11.5-.88-17.24,1.17-8.51,7.81-14.74,10.57-17-1.2-.24-2.25-.75-2.41-1.63-.1-.54.12-1.32,1.72-2,1.14-.41,2.33-.66,3.53-.76-.91-.36-1.6-.82-1.72-1.4-.07-.36,0-.89.81-1.39.69-.39,1.47-.58,2.26-.55,1.61.08,3.2.45,4.68,1.08-.28-.44-.38-.97-.27-1.48.13-.34.44-.59.8-.64l.2-.02c1.38,0,3.33,1.89,4,2.62h1.18c19,0,27.23,11.78,30.82,21.78,2.27,6.3,7.07,9.25,12.63,12.66,4.09,2.61,7.46,6.21,9.8,10.47.12.25.1.55-.06.78-.17.23-.44.36-.73.34h-.14c1.01,2.25,1.58,4.67,1.68,7.14.01.44-.33.8-.77.81-.02,0-.03,0-.05,0-.13,0-.25-.03-.37-.07,1,3.16.62,7.21-.2,8-1.39,2-2.61,4.12-3.65,6.33-.14.95-14.67,18.96-36.14,18.96Z"/>
        <path class="cls-32" d="M86.14,1.21c1.35,0,3.79,2.62,3.79,2.62h1.43c21,0,27.89,15.05,30.16,21.35s7.14,9.46,12.87,13c3.98,2.54,7.27,6.03,9.56,10.16.09.23,0,.31-.23.31-.55-.11-1.08-.29-1.58-.55,2.11,2.41,2.51,7.54,2.51,8.25,0,.14-.08.2-.21.2-.58-.17-1.12-.44-1.6-.81,1.71,3,1.31,8.25.61,9-1.48,2.09-2.76,4.31-3.83,6.63-.09.58-14.27,18.49-35.53,18.49-1.18,0-2.38-.06-3.6-.17-23.21-2.26-33.35-14.69-34.27-22.78-.55-4.82.25-9.7,2.31-14.09-.92.99-1.64,2.16-2.11,3.43,0,0-1.08,1.11-1.83,1.11-.46,0-.81-.43-.69-1.82.3-3.62,4.33-7.74,4.33-7.74-1.7.42-3.4,1.84-4.22,1.84-.35,0-.54-.25-.51-.94.1-2.31,4-4.73,4-4.73,0,0-2.51-6.84-1-17.4s11.64-17.57,11.64-17.57c-3-.1-4.73-1.51-2-2.61,2.21-.68,4.51-.99,6.82-.92h.93s-7.64-1.1-5-2.72c.59-.33,1.26-.49,1.94-.46,2.82,0,6.51,2,6.51,2,0,0-2.51-2.82-1.21-3h.01M86.14,0h-.32c-.59.07-1.09.45-1.3,1-.09.22-.13.46-.1.69-1.2-.42-2.45-.65-3.72-.7-.9,0-1.79.23-2.56.7-.77.35-1.21,1.16-1.09,2,.07.36.26.69.54.93-.68.13-1.35.32-2,.57-2.07.84-2.2,2-2.08,2.63.22.87.89,1.56,1.75,1.8-3.15,2.77-8.83,8.74-10,16.74-.88,5.7-.58,11.53.88,17.11-1.35,1-3.71,3-3.81,5.18-.06.61.12,1.22.51,1.7.32.32.76.5,1.21.5.13,0,.27,0,.4,0-.91,1.4-1.5,2.98-1.71,4.63-.18.88,0,1.79.53,2.52.34.37.82.58,1.32.57.28,0,.56-.06.83-.16-.58,2.84-.72,5.76-.4,8.64.93,8.31,11.13,21.5,35.39,23.81,1.23.14,2.48.14,3.73.14,11.38,0,20.65-5,26.42-9.26,6-4.39,10.15-9.32,10.3-10.23,0,.03,0,.07,0,.1,1.02-2.11,2.19-4.14,3.51-6.08,1-1,1.32-4.66.56-7.85.6-.17,1.01-.72,1-1.35-.11-2.29-.58-4.55-1.4-6.7.19-.1.36-.25.48-.43.27-.4.32-.91.14-1.35-2.4-4.37-5.86-8.07-10.06-10.76-5.46-3.35-10.17-6.25-12.37-12.36-3.67-10.08-12.04-22.13-31.33-22.13h-.93c-1-1-2.81-2.6-4.32-2.6Z"/>
        <path class="cls-14" d="M139.65,71.33c1.07-2.32,2.35-4.54,3.83-6.63.7-.71,1.1-5.94-.61-9,0,0,1.81,1.31,1.81.61s-.4-5.84-2.51-8.25c0,0,2.11,1,1.81.2-2.29-4.13-5.58-7.62-9.56-10.16-2.79-1.59-5.42-3.44-7.86-5.53h0s8,8.44,7.55,16.42-4.07,5.01-4.07,5.01l-6.59-3.55s2.22,6-1.3,8-4.53,0-4.53,0c0,0,1.21,3.85-3.32,4.86-4.53,1.01-16.39,1-21.63,0s-12.14-3.22-12.81-7-1.39-4.42-1.39-4.42c0,0-5.11,6.87-5.72,3.53-.37-1.97-.24-4,.39-5.9,0,0-4.27,2.7-3.82.89.37-1.32.85-2.59,1.45-3.82-1.27-.63-2.43-1.47-3.43-2.48-.82.54-3.72,2.6-3.81,4.59-.1,2.31,2.31-.3,4.73-.9,0,0-4,4.12-4.33,7.74s2.52.71,2.52.71c.47-1.27,1.19-2.44,2.11-3.43-2.06,4.39-2.86,9.27-2.31,14.09.9,8,11.06,20.52,34.3,22.74,23.24,2.22,39-17.71,39.1-18.32Z"/>
        <path class="cls-28" d="M128.59,67.91c-10.77-1.4-31.19-9.35-28.67-19.61s10.56-7.3,13.48-20-10.16-20.24-20.32-18.93-15.2,11.26-15.6,12-5.33.7-7.24.3-1.1-2.6-1.1-2.67c-1.34,2.34-2.24,4.91-2.65,7.58-1.51,10.56,1,17.4,1,17.4,0,0-3.92,2.42-4,4.73s2.31-.3,4.73-.9c0,0-4,4.12-4.33,7.74s2.52.71,2.52.71c.47-1.27,1.19-2.44,2.11-3.43-2.06,4.39-2.86,9.27-2.31,14.09.9,8,11.06,20.52,34.3,22.74,19.49,1.84,33.73-11.85,37.89-16.66-1.91-2.58-5.26-4.49-9.81-5.09Z"/>
        <path class="cls-35" d="M103.14,89.79h2.06c.41,0,.83,0,1.24-.06h.7l1.28-.13.59-.07c.56-.07,1.11-.15,1.65-.25.06,0,.12,0,.18,0,.6-.1,1.2-.23,1.79-.36l.48-.12,1.27-.32.58-.17,1.18-.41.57-.19,1.15-.41.48-.18c.48-.18.94-.36,1.4-.56l.18-.07c.53-.23,1-.46,1.56-.7l.29-.14,1.19-.59.44-.23,1-.54.44-.26c.33-.18.65-.37,1-.57l.4-.23,1.09-.69.2-.13c.43-.28.85-.56,1.26-.85l.18-.12,1-.71.35-.27.76-.58.38-.29.68-.59.35-.28.7-.59.27-.23.88-.78.24-.22.59-.54c.11-.12.23-.22.34-.33l.41-.4.35-.35c.12-.11.23-.23.34-.34l.34-.35.25-.27.35-.37.06-.07c.32-.33.6-.65.84-.94-1.91-2.55-5.28-4.46-9.81-5.06-5.25-.79-10.37-2.28-15.22-4.45-5,.83-15.79.77-20.7-.17-5.23-1-12.14-3.22-12.81-7s-1.39-4.42-1.39-4.42c0,0-5.11,6.87-5.72,3.53-.38-1.95-.26-3.96.34-5.85,0,0-4.27,2.7-3.82.89.37-1.32.85-2.59,1.45-3.82-1.27-.63-2.43-1.47-3.43-2.48h0l-.17.11-.08.05-.21.15-.21.16-.09.06-.22.18-.1.08-.24.19-.11.09-.26.22-.09.09-.3.27v.06c-.24.23-.47.47-.68.73l-.06.08-.22.3-.09.12-.17.27s-.05.1-.08.14l-.12.27s-.04.09-.06.14c0,.1-.07.19-.1.28v.13c-.03.14-.05.27-.06.41-.1,2.31,2.31-.3,4.73-.9,0,0-4,4.12-4.33,7.74s2.52.71,2.52.71c.47-1.27,1.19-2.44,2.11-3.43-2.06,4.39-2.86,9.27-2.31,14.09.9,8,11.06,20.52,34.3,22.74.68.06,1.34.1,2,.13l.5.02Z"/>
        <path class="cls-2" d="M85.43,32.85c.05-1.2-.36-2.37-1.15-3.27"/>
        <path class="cls-15" d="M97.55,35.67c-5.62,0-10.19-5.21-10.19-11.62s4.57-11.62,10.19-11.62,10.2,5.22,10.2,11.62-4.61,11.62-10.2,11.62Z"/>
        <path class="cls-32" d="M97.55,13c5.3,0,9.59,5,9.59,11.05s-4.29,11-9.59,11-9.59-4.93-9.59-11,4.3-11,9.59-11M97.55,11.84c-5.95,0-10.8,5.48-10.8,12.22s4.85,12.23,10.8,12.23,10.8-5.49,10.8-12.23-4.84-12.22-10.8-12.22Z"/>
        <path class="cls-34" d="M97.55,13c-5.29,0-9.59,4.93-9.59,11-.02,2.57.79,5.07,2.3,7.14,0-.05,2-5.63,7.87-5.83,5.32-.18,6.46,4.51,6.59,6,1.59-2.09,2.44-4.64,2.42-7.26,0-6.05-4.29-11.05-9.59-11.05Z"/>
        <path class="cls-20" d="M104.45,24.05c0,4.14-2.92,7.49-6.52,7.49s-6.52-3.35-6.52-7.49,2.92-7.49,6.52-7.49,6.52,3.36,6.52,7.49Z"/>
        <path class="cls-5" d="M94.76,37.45s1.28-3.32,5.89-4.15,6.14,1.32,6.14,1.32"/>
        <path class="cls-19" d="M91.56,16c-2,1.86-2.48,4.69-1,6.33s4.36,1.46,6.39-.4,2.48-4.69,1-6.32-4.35-1.45-6.39.39Z"/>
        <path class="cls-19" d="M103.84,29.69c0,.38-.67.68-1.5.68s-1.5-.3-1.5-.68.68-.69,1.5-.69,1.5.31,1.5.69Z"/>
        <path class="cls-21" d="M113.42,94c-3.08,0-4.42-1.17-4.94-1.86-.42,0-1.2.05-2.28.05-4.76,0-14-.54-22.61-4.12-9.68-4-11.78-6.52-13-8-.22-.27-.45-.53-.71-.77-.86-.8-1.45-1.85-1.69-3-.05-.2-.11-.39-.18-.58l-.1-.08c-2.44-2.28-3.65-4.62-3.6-7v-2c0-2.64-.1-5.37,1.09-6.59.39-.41.94-.63,1.5-.61.31,0,.62.05.92.15.26.08.44.33.43.6,0,.77.12,3,1.26,3.79,1.62,1.17,5.88,3.74,8,3.74h.22c1.79-.17,1.79-.67,1.79-1.43,0-1,.44-3.59,2.43-4.06.21-.05.42-.08.63-.08.96.05,1.78.69,2.05,1.61.02.06.05.12.08.18h0c.16.06.32.12.47.2,1.11.45,2.11,1.13,2.94,2,1.75,1.76,3.77,3.21,6,4.3.53.28,1.11.46,1.71.51.07.02.15.02.22,0,.05-.4.08-.8.09-1.2.19-2.16.31-2.79.76-3.06.15-.09.29-.2.43-.31.57-.44.92-.68,1.28-.68.08,0,.15,0,.23,0,.23.08.44.15,1.35,2.27.88-.52,1.95-.6,2.9-.22,1.77.76,3.61,1.32,5.5,1.7h.65c1,0,6,.14,6.8.53.78.4,1.6.73,2.43,1l.06-.09c1-1.5,2.18-3.07,3.37-3.34l1.6-.36c.34-1.35.71-3.42.45-4.21-.5-1.5-1.16-3.49.3-4.73.36-.31.82-.48,1.29-.48,1.34,0,2.71,1.28,3.55,2.48,1.09,1.56,1.69,2.41,1.36,3.4-.15.93-.24,1.87-.25,2.81.87.16,1.75.24,2.64.24.94,0,1.88-.09,2.8-.25-.05-.87.06-2.42,1.27-2.87.67-.25,1.38-.38,2.09-.38.38-.03.76.04,1.1.21l.26.2c-.36-4,.21-4.24.49-4.38.21-.1.43-.15.66-.15.85.1,1.64.51,2.21,1.15.74.69,1.7,2.34,1.52,3.34-.52,1.47-1.28,2.85-2.25,4.08-.83,1.21-1.27,2.65-1.26,4.12,0,1.14-1.33,2.22-2.39,3.08-.31.24-.61.5-.88.79-.1.14-9.6,13.92-18.19,16.91-2.19.86-4.5,1.35-6.85,1.45ZM83.67,67.05c-.45,0-.91.33-.91,1.08,0,1.45.62,5,2.16,5h.13c.75-.13,1.34-.72,1.47-1.47.29-1.17-.14-2.93-2.25-4.36-.17-.14-.38-.23-.6-.25Z"/>
        <path class="cls-25" d="M125.58,58.43c1,0,2.25,1.06,3.06,2.22,1,1.5,1.51,2.19,1.28,2.86-.19,1.15-.29,2.31-.3,3.47,1.07.26,2.16.39,3.26.37,1.16,0,2.32-.12,3.45-.37,0,0-.37-2.34.83-2.79.6-.22,1.23-.33,1.87-.34.26-.02.53.02.77.12.23.15,1.36,1.08,1.36,1.08,0,0-.6-4.93,0-5.23.12-.06.25-.09.39-.09.7.12,1.33.47,1.8,1,.78.73,1.25,1.73,1.33,2.79-.5,1.38-1.22,2.67-2.13,3.82-.92,1.31-1.41,2.88-1.41,4.48,0,1.28-2.71,2.86-3.17,3.54s-9.63,13.81-17.83,16.64c-2.14.82-4.4,1.28-6.69,1.36-3.07,0-4.28-1.25-4.63-1.88,0,0-1,.06-2.59.06-4.42,0-13.78-.48-22.38-4.06-11.8-4.88-12.18-7.48-13.61-8.65s-1.43-3.17-1.81-3.55-3.62-3.09-3.55-6.64c.07-3.26-.63-8.57,2-8.57.25,0,.51.05.75.12,0,0-.15,3.1,1.51,4.3,1.66,1.2,6,3.87,8.4,3.87h.27c2.34-.22,2.34-1.21,2.34-2s.38-3.1,2-3.47c.16-.05.32-.07.49-.07,1.16,0,1.42,1.18,1.62,1.5s2.11.75,3.47,2.34c1.8,1.81,3.9,3.32,6.19,4.45.62.32,1.3.51,2,.56.47,0,.75-.18.83-.56.15-.76.22-3.62.6-3.85s1.13-.91,1.4-.91h0c.48.85.89,1.73,1.22,2.65.52-.51,1.21-.8,1.93-.81.34,0,.68.07,1,.2,1.84.78,3.76,1.36,5.72,1.74h.64c2.19-.02,4.38.14,6.54.47.91.5,1.88.88,2.88,1.14.04.02.1.02.14,0,.23-.26,1.89-3.13,3.24-3.43s2-.45,2-.45c0,0,1-3.55.53-4.9s-1-3.1.12-4.08c.25-.21.57-.33.9-.33M84.92,73.68h.22c2.33-.25,3.4-4.28-.51-6.93-.28-.19-.6-.29-.94-.29-.85,0-1.55.67-1.56,1.52,0,.05,0,.1,0,.15,0,1.47.6,5.55,2.77,5.55M125.58,57.22h0c-.62,0-1.21.22-1.68.62-1.78,1.5-1,3.91-.49,5.34.1,1.2-.02,2.4-.36,3.55l-1.24.27c-1.32.3-2.48,1.73-3.55,3.3-.45-.17-1.13-.47-1.91-.86-1-.52-7-.59-7.08-.59-.22-.01-.44-.01-.66,0-1.8-.39-3.56-.95-5.26-1.66-.46-.18-.95-.28-1.45-.28-.47,0-.93.08-1.37.25-.81-1.81-1.06-1.9-1.46-2-.14-.04-.28-.07-.42-.07-.62.08-1.2.37-1.65.81-.12.1-.24.19-.37.28-.75.45-.86,1.35-1,3.52,0,.23,0,.47-.06.68-.41-.09-.82-.21-1.21-.38-2.14-1.05-4.1-2.45-5.78-4.14-.87-.95-1.94-1.71-3.13-2.2l-.31-.18c-.38-1.11-1.41-1.87-2.58-1.91-.26,0-.52.03-.77.09-2.29.54-2.89,3.28-2.89,4.65,0,.57,0,.71-1.25.83h-.16c-1.76,0-5.6-2.11-7.69-3.63-.92-.67-1-2.63-1-3.27.04-.56-.31-1.08-.85-1.24-.36-.12-.73-.18-1.1-.18-.73,0-1.42.28-1.93.8-1.37,1.4-1.31,4.26-1.26,7v1.93c-.06,2.53,1.22,5,3.79,7.42h0c0,.1.08.26.11.38.27,1.28.92,2.44,1.88,3.33.23.22.45.45.64.7,1.29,1.52,3.44,4.08,13.26,8.17,8.68,3.62,18,4.16,22.84,4.16h2c.71.79,2.22,1.86,5.21,1.86,2.43-.08,4.82-.57,7.09-1.43,8.78-3.06,18.39-17,18.49-17.14s.48-.42.76-.66c1.17-.94,2.61-2.12,2.61-3.55,0-1.34.39-2.65,1.14-3.76,1.03-1.3,1.83-2.76,2.36-4.33.24-1.27-.85-3.11-1.7-3.89-.68-.75-1.61-1.22-2.62-1.32-.32,0-.64.07-.93.22-.5.25-1.11.55-.9,3.95-.23-.02-.46-.02-.69,0-.78,0-1.56.15-2.29.42-1.09.55-1.74,1.7-1.64,2.92-.73.1-1.46.16-2.19.16-.67,0-1.34-.05-2-.15.01-.71.08-1.41.2-2.11.42-1.27-.32-2.33-1.44-3.94-.45-.64-2.07-2.73-4-2.73h-.06ZM84.92,72.47c-.79,0-1.56-2.48-1.56-4.34,0-.22.06-.48.31-.48.09,0,.19.03.26.09,1.85,1.25,2.25,2.74,2,3.72-.09.49-.46.89-.95,1h-.06Z"/>
        <path class="cls-36" d="M141.14,59.82c-.6.3,0,5.23,0,5.23,0,0-1.13-.93-1.36-1.08-.88-.21-1.81-.13-2.64.22-1.2.45-.83,2.79-.83,2.79-1.93.43-3.92.49-5.87.18h0s.49,4-1.2,6.24-13.24,4.22-17.87,6.79-16.89,1-25.56-2.11-12.62-5.66-13.49-11.59h0c-1.11-.6-2.18-1.27-3.21-2-1.66-1.2-1.51-4.3-1.51-4.3-3.47-1-2.64,4.91-2.72,8.45s3.17,6.27,3.55,6.64.38,2.34,1.81,3.55,1.81,3.77,13.58,8.68,25,4,25,4c.53,1,3.1,3.39,11.32.52s17.43-16,17.88-16.67,3.12-2.26,3.12-3.54c0-1.6.48-3.17,1.39-4.49.91-1.15,1.63-2.44,2.13-3.82-.08-1.06-.55-2.06-1.33-2.79-.71-.72-1.56-1.21-2.19-.9Z"/>
        <path class="cls-21" d="M125.58,59h0c1.09.29,2.02,1.01,2.56,2,1,1.36,1.33,2,1.21,2.33-.21,1.21-.32,2.43-.33,3.65-.01.27.17.52.43.59,1.12.29,2.27.42,3.43.4,1.2,0,2.4-.13,3.58-.39.31-.07.52-.36.47-.68-.09-.58-.11-1.93.45-2.13.53-.2,1.09-.31,1.65-.31.16-.01.31-.01.47,0l1.28,1c.11.09.24.14.38.14.1,0,.2-.02.29-.07.22-.12.34-.36.31-.61-.23-1.54-.29-3.09-.2-4.64.13,0,.57.08,1.38.83.65.61,1.07,1.41,1.2,2.29-.48,1.28-1.16,2.48-2,3.56-.99,1.43-1.52,3.12-1.51,4.86,0,.57-1.26,1.6-1.94,2.15-.42.29-.79.62-1.13,1-.09.14-9.35,13.58-17.58,16.44-2.08.79-4.27,1.24-6.49,1.33-3.09,0-4-1.31-4.09-1.57-.11-.2-.31-.32-.54-.32h0s-1,.07-2.55.07c-4.67,0-13.76-.52-22.15-4-9.4-3.92-11.38-6.27-12.56-7.67-.26-.33-.55-.63-.86-.91-.67-.66-1.13-1.51-1.3-2.43-.07-.39-.23-.76-.47-1.08l-.16-.15c-2.17-2-3.26-4.06-3.21-6v-2c0-2.17-.1-4.87.74-5.72.16-.18.4-.27.64-.26h.15c0,1,.28,3.23,1.75,4.3s6.07,4,8.76,4h.33c2.66-.25,2.89-1.49,2.89-2.63,0-.8.37-2.62,1.49-2.89.12-.01.24-.01.36,0,.47,0,.68.28,1,.89.04.11.09.22.15.32.26.31.61.54,1,.67.89.38,1.69.94,2.35,1.64,1.86,1.89,4.02,3.44,6.4,4.61.69.36,1.44.57,2.21.62.66.07,1.26-.36,1.42-1,.05-.28.1-.77.15-1.33.04-.74.13-1.47.28-2.19l.43-.32.37-.27c.24.48.63,1.35.94,2.11.08.18.24.32.44.36h.12c.16,0,.32-.07.43-.19.41-.38.94-.59,1.5-.61.27,0,.54.05.79.15,0,0,4.56,1.78,5.94,1.78h.64c2.1,0,4.19.13,6.27.4.98.56,2.04.96,3.15,1.2.23,0,.45-.08.6-.25l.28-.41c1.16-1.75,2-2.7,2.63-2.83,1.37-.3,2-.46,2-.46.21-.05.38-.21.44-.42.1-.38,1-3.77.5-5.29s-.83-2.73,0-3.39c.14-.12.32-.19.51-.19M84.92,74.29h.26c1.26-.18,2.26-1.14,2.51-2.38.39-1.57-.12-3.87-2.74-5.65-.38-.26-.82-.4-1.28-.4-1.18,0-2.13.97-2.13,2.15,0,.05,0,.09,0,.14,0,1.6.62,6.16,3.37,6.16M125.58,58.43c-.33,0-.65.12-.9.33-1.16,1-.57,2.72-.12,4.08s-.53,4.9-.53,4.9c0,0-.6.15-2,.45s-3,3.17-3.24,3.43c-.04.02-.1.02-.14,0-1-.26-1.97-.64-2.88-1.14-2.16-.33-4.35-.49-6.54-.47h-.64c-1.96-.38-3.88-.96-5.72-1.74-.32-.13-.66-.2-1-.2-.72.01-1.41.3-1.93.81-.35-.92-.78-1.8-1.29-2.64h0c-.27,0-1,.69-1.4.91s-.45,3.09-.6,3.85c-.08.38-.36.56-.83.56-.7-.05-1.38-.24-2-.56-2.29-1.13-4.39-2.64-6.19-4.45-1.36-1.59-3.25-2-3.47-2.34s-.46-1.5-1.62-1.5c-.17,0-.33.02-.49.07-1.59.37-2,2.64-2,3.47s0,1.81-2.34,2h-.27c-2.41,0-6.8-2.7-8.4-3.87s-1.51-4.3-1.51-4.3c-.24-.07-.5-.11-.75-.12-2.6,0-1.9,5.31-2,8.57-.07,3.55,3.17,6.27,3.55,6.64s.38,2.34,1.81,3.55,1.81,3.77,13.58,8.68c8.6,3.58,18,4.06,22.38,4.06,1.63,0,2.59-.06,2.59-.06.35.63,1.56,1.88,4.63,1.88,2.33-.04,4.63-.47,6.82-1.28,8.23-2.86,17.43-16,17.88-16.67s3.12-2.23,3.12-3.51c0-1.6.48-3.17,1.39-4.49.91-1.15,1.63-2.44,2.13-3.82-.08-1.06-.55-2.06-1.33-2.79-.47-.53-1.1-.88-1.8-1-.14,0-.27.03-.39.09-.6.3,0,5.23,0,5.23,0,0-1.13-.93-1.36-1.08-.24-.1-.51-.14-.77-.12-.64,0-1.27.12-1.87.34-1.2.45-.83,2.79-.83,2.79-1.13.25-2.29.37-3.45.37-1.1.02-2.19-.11-3.26-.37.01-1.16.11-2.32.3-3.47.23-.67-.23-1.36-1.28-2.86-.81-1.16-2-2.22-3.06-2.22h.02ZM84.92,73.68c-2.17,0-2.77-4.08-2.77-5.55-.08-.85.55-1.6,1.39-1.67.04,0,.08,0,.13,0,.34,0,.66.1.94.29,3.91,2.65,2.84,6.68.51,6.93h-.2Z"/>
        <path class="cls-19" d="M131.02,67.24h0c-.47-.05-.94-.14-1.4-.26.01-1.16.11-2.32.3-3.47.23-.67-.23-1.36-1.28-2.86s-2.79-2.87-4-1.89-.57,2.72-.12,4.08-.53,4.9-.53,4.9c0,0-.6.15-2,.45s-3,3.17-3.24,3.43-2.42-.79-3-1.09c-2.35-.35-4.72-.5-7.09-.45-.83.07-4.08-1.06-5.81-1.74-1.01-.4-2.17-.16-2.94.61-.35-.92-.78-1.8-1.29-2.64-.22-.08-1.05.67-1.43.9s-.45,3.09-.6,3.85-1.13.75-2.79,0c-2.29-1.13-4.39-2.64-6.19-4.45-1.36-1.59-3.25-2-3.47-2.34s-.53-1.81-2.11-1.43-2,2.64-2,3.47,0,1.81-2.34,2-7-2.64-8.67-3.85-1.51-4.3-1.51-4.3c-.25-.07-.52-.11-.78-.12-1,6.46,8.55,8.55,9.72,9s3.66-.89,3.66-.89c0,0,1-3.63,2.11-4s1.51,1.51,2.19,1.51,4.3,2.72,6.41,4.83,6.32,2.56,6.32,2.56c0,0,.8-1.82,1.42-3.12s2.91.9,3.21.9c.98-.37,2.08-.3,3,.2,1.34.91,5,.2,7.82.51,2.2.36,4.33,1.04,6.34,2,0,0,1.41-1.54,2.51-2.91.87-.88,2.09-1.32,3.32-1.21,0,0,1.21-5.13.91-6.84s-.45-4.1,1.61-2.21,1.11,7.24,1.11,7.24l2.63-.37Z"/>
        <path class="cls-4" d="M129.62,52.07c-1.53,0-3.77-.54-4,0s3.6,4.54,4.54,5.42,3.9.3,3.9-1.53c-.24-2.25-2.17-3.94-4.44-3.89Z"/>
        <path class="cls-17" d="M104.44,13.45c-.13,0-.25,0-.38,0-1.27-.26-2-1.6-2.52-2.58-.16-.28-.3-.54-.43-.73l-.16-.24c-.59-1.02-1.57-1.74-2.72-2-.63-.12-1.26-.17-1.9-.16l-1.19-.06h-1.17c-.97.09-1.94-.08-2.83-.48-.67-.39-1.06-1.13-1-1.9.03-.8.43-1.54,1.09-2,1.26-.57,2.62-.84,4-.79,1.59-.04,3.17.24,4.66.8,1.06.29,2.15.46,3.25.52,1.09.13,2.21.25,3,.43,1.91.42,4,2.58,5.16,3.74l.53.53c.79.78,1.41,1.4,1.37,2.09-.03.3-.18.58-.42.76-.29.21-.64.32-1,.31h0c-.92-.06-1.81-.37-2.56-.91-.89-.3-1.84-.42-2.78-.36.05.84-.19,1.68-.68,2.37-.32.41-.8.65-1.32.66Z"/>
        <path class="cls-25" d="M95.29,3.1c1.49-.03,2.97.22,4.37.73.89.48,4.56.61,6.4,1s4.08,2.81,5.08,3.78c1,.97,2,1.82,1.36,2.3-.19.13-.43.19-.66.18-.79-.06-1.55-.33-2.2-.79-.6-.44-2.68-.48-3.49-.48h-.32c.25,1.33-.2,3-1.35,3h-.26c-1.33-.27-2-2.24-2.58-3.06-.67-1.26-1.85-2.17-3.23-2.52-.66-.13-1.33-.19-2-.17h-2.33c-.86.07-1.72-.07-2.51-.41-1.29-.82-.47-2.59.07-2.86,1.17-.52,2.45-.77,3.73-.73M95.37,1.87c-1.47-.05-2.93.24-4.27.85-.86.55-1.39,1.5-1.42,2.52-.07.98.41,1.92,1.25,2.44.98.47,2.07.68,3.15.59h2.33c.58-.02,1.16.03,1.73.14,1.01.24,1.86.89,2.36,1.8l.17.24c.1.15.24.4.39.67.58,1.08,1.38,2.56,2.93,2.88.16.03.33.05.5.05.7,0,1.36-.32,1.8-.87.47-.63.73-1.39.75-2.18.64,0,1.28.08,1.89.26.84.6,1.84.94,2.87,1,.5.02,1-.14,1.4-.44.38-.29.62-.72.65-1.2.06-1-.69-1.7-1.55-2.55l-.34-.35-.18-.18c-1.18-1.2-3.38-3.45-5.46-3.91-.84-.18-2-.31-3.09-.44-1.01-.07-2.02-.22-3-.47-1.57-.61-3.25-.9-4.94-.86h.08Z"/>
        <path class="cls-19" d="M96.57,4.06c2.57.75,4.3,1.51,6,1.43s10.18,4.35,9.5,5.58c.15-.02.3-.07.43-.16.61-.48-.41-1.34-1.36-2.3s-3.2-3.35-5-3.76-5.51-.54-6.4-1-5.38-1.36-8.1,0c-.28.2-.5.49-.61.82,1.74-.78,3.68-1,5.54-.61Z"/>
        <path class="cls-19" d="M132.71,55.28c-.18.37-.93.38-1.67,0s-1.18-1-1-1.33.93-.38,1.67,0,1.19.95,1,1.33Z"/>
        <path class="cls-1" d="M112.81,36.29c.27.88.65,1.72,1.14,2.5.58.83,1.33,1.54,2.19,2.08.24.23.62.22.85-.02.23-.24.22-.62-.02-.85-.06-.06-.14-.11-.22-.14-.36-.25-.69-.52-1-.83-.15-.15-.29-.3-.43-.46-.02-.04-.05-.08-.08-.11h0l-.1-.09-.17-.24c-.21-.32-.4-.65-.56-1,0,0-.07-.15,0-.08s0-.08,0-.09l-.12-.3c-.08-.21-.16-.43-.23-.66-.12-.32-.47-.47-.79-.36-.28.1-.44.39-.38.69l-.08-.05Z"/>
        <path class="cls-1" d="M117.2,36c.91,1,1.97,1.84,3.14,2.51.29.17.66.06.82-.23.17-.29.06-.66-.22-.82-.31-.15-.6-.33-.88-.53l-.21-.15s-.14-.12,0,0l-.1-.08-.41-.33c-.44-.38-.85-.79-1.26-1.2-.24-.23-.62-.23-.85,0-.23.24-.23.62,0,.85l-.03-.03Z"/>
        <path class="cls-1" d="M135.91,44.4c2.96,2.4,4.67,6.02,4.65,9.83.04.33.35.57.68.53.28-.04.49-.25.53-.53.03-4.13-1.81-8.06-5-10.68-.6-.49-1.46.36-.85.85h-.01Z"/>
        <path class="cls-1" d="M135.4,50.84c1.12.89,1.61,2.35,1.26,3.74-.09.32.1.65.42.74.32.09.65-.1.74-.42.44-1.8-.16-3.69-1.56-4.9-.22-.26-.6-.29-.86-.07-.26.22-.29.6-.07.86.02.02.04.05.07.07v-.02Z"/>
        <path class="cls-1" d="M120.72,35.14c.32.32.68.59,1,.91.11.11.27.18.43.18.16,0,.31-.07.43-.18.11-.12.17-.27.17-.43,0-.16-.06-.31-.17-.42-.32-.32-.69-.59-1-.91-.23-.23-.6-.24-.83-.02,0,0-.01.01-.02.02-.23.23-.24.6-.02.83,0,0,.01.01.02.02h-.01Z"/>
        <path class="cls-1" d="M104.54,51.22c-.19,2.94,2.66,4.72,5.07,5.61.32.08.65-.1.75-.42.08-.32-.1-.65-.42-.75-1.07-.36-2.07-.93-2.93-1.66-.85-.67-1.32-1.7-1.26-2.78,0-.33-.27-.6-.6-.61-.33.01-.6.28-.61.61Z"/>
        <path class="cls-3" d="M29.35,29.57s21,9.52,45.3,8.88l7.49-6.67-46.53-2.58-6.26.37Z"/>
        <path class="cls-12" d="M72,33.22c-16,0-42.46-3-42.72-3-.34-.02-.6-.3-.58-.64.02-.34.3-.6.64-.58h.35c24.22-.5,43.74-1.77,43.93-1.78h0c.26,0,.48.16.57.4,1,2.79,5.9,3.09,8,3.09h1.24c.33,0,.61.25.61.59,0,.21-.1.41-.28.52-1,.69-3.19,1.13-6.55,1.34-1.46,0-3.23.06-5.21.06Z"/>
        <path class="cls-32" d="M73.66,27.78c1.12,3.11,6.13,3.49,8.53,3.49h1.28c-1,.67-3.24,1.06-6.26,1.25-1.55.09-3.31.13-5.21.13-16.11,0-42.65-3-42.65-3h.35c24.51-.51,44-1.79,44-1.79M73.7,26.65h-.08c-.19,0-19.7,1.28-43.9,1.78h-.38c-.67.01-1.2.57-1.19,1.23.01.6.46,1.1,1.06,1.18.27,0,26.8,3.05,42.79,3.05,2,0,3.77,0,5.29-.14,3.48-.22,5.64-.67,6.81-1.41.35-.22.56-.59.58-1,0-.66-.54-1.2-1.2-1.2h-1.29c-1.5,0-6.49-.2-7.39-2.7-.17-.48-.63-.8-1.14-.8h.04Z"/>
        <path class="cls-19" d="M83.47,31.23c-1,.67-3.24,1.06-6.26,1.25-1.93-.55-4.07-1.48-5.18-3.17,0,0-30.94,1.18-42.33.26,24.51-.51,44-1.79,44-1.79,1.44,4,9.27,3.49,9.77,3.45Z"/>
      </g>
    </g>
  </g>
  <g id="Layer_1-2" data-name="Layer 1">
    <polygon class="cls-30" points="34.03 95.35 43.93 100.7 50.35 102.13 79.13 101.36 78.49 107.01 75.19 110.98 46.43 111.65 40.95 110.09 33.41 105.13 32.28 98.96 34.03 95.35"/>
    <polygon class="cls-19" points="3.54 48.5 1.39 49.9 1.21 52.33 22.06 52.56 22.98 50.53 20.75 48.25 3.54 48.5"/>
    <path class="cls-29" d="M56.44,82l-1.54,3.16s.63,3.71,8.14,4.91c7.51,1.2,7.66-2.45,7.66-2.45l.92-17.12,1.2-2.95-10.54-.5-1.02,8.23-4.37.53-.45,6.21Z"/>
    <path class="cls-18" d="M67.54,68.15l-1.42,21.75s-10.62-.13-11.26-4.48c1.48,0,.97-9.75,1.99-9.26.34.01,3.05,1.63,5.54-8.89.07-.28,5.16.88,5.16.88Z"/>
    <path class="cls-27" d="M56.86,88.31l-2.48-3.19,1.3-1.2.91-7.49s2.43.52,3.77-1.14,1.47-7.9,1.47-7.9l1.17-.09-2.02,22.29-4.12-1.27Z"/>
    <polygon class="cls-16" points="41.63 54.22 40.86 47.38 38.85 43.68 42.26 42.16 45.7 46.37 46.64 54.23 45.81 58.01 42.73 63.63 39.57 64.38 37.12 61.86 40.73 57.66 41.63 54.22"/>
    <polygon class="cls-16" points="22.3 52.78 22.91 48.92 20.88 47.01 25.64 43.75 28.84 47.82 29.32 52.91 27.71 57.06 25.22 58.46 21.93 59.5 19.17 54.44 22.3 52.78"/>
    <path class="cls-23" d="M52.1,66.83l10.5.69-1.34,7.73s-3.02,2.41-8.48-.32c-2.38-3.4-.68-8.1-.68-8.1Z"/>
    <polygon class="cls-31" points="1.22 51.05 22.86 51.31 21.22 53.6 2.4 53.54 1.22 51.05"/>
    <polygon class="cls-31" points="28.36 56.03 29.38 48.58 25.84 43.18 32.03 42.76 37.89 43.21 40.52 46.49 41.33 56.3 38.61 60.82 32.72 62.35 22.98 60.95 28.36 56.03"/>
    <polygon class="cls-33" points="46.05 57.68 46.74 50.9 44.08 42.47 51.94 42.25 55.06 43.64 57.26 50.29 56.87 57.69 54.85 61.76 51.5 64.15 42.48 64.33 46.05 57.68"/>
    <polygon class="cls-16" points="28.19 57.64 41.23 57.73 39.47 59.73 35.67 62.06 23.82 61.65 22.37 59.58 28.19 57.64"/>
    <polygon class="cls-16" points="44.72 60.73 55.37 60.58 52.3 63.58 46.25 64.99 41.4 64.33 44.72 60.73"/>
    <polygon class="cls-19" points="46.04 46.81 56.78 46.95 53.76 41.94 43.7 41.87 46.04 46.81"/>
    <polygon class="cls-19" points="29.34 48.2 40.99 48.54 38.75 44.28 36.96 42.9 26.72 42.34 24.94 43.95 29.34 48.2"/>
    <polygon class="cls-24" points="36.97 86.33 46.94 92.75 53.05 93.81 79.02 93.52 71.42 87.19 69.75 89.29 66.19 90.15 58.06 88.71 54.32 84.88 39.19 85.14 36.97 86.33"/>
    <polygon class="cls-22" points="37.33 86.26 46.54 92.7 53.6 93.55 79.1 93.04 80.23 95.89 78.76 101.55 50.31 101.82 43.46 100.8 33.25 94.67 34.92 87.78 37.33 86.26"/>
    <path class="cls-7" d="M36.7,86.15s7.71,5.23,9.28,5.82c1.79.97,4.18,1.53,6.75,1.6,3.67-.11,26.28-.04,26.28-.04"/>
    <path class="cls-29" d="M56.12,59.4h37.7s.09,6.22-8.66,7.56c-8.75,1.34-32.77-.11-32.77-.11,0,0-3.09.13-3.01-2.22,1.11-.76,4.18-.49,6.75-5.23Z"/>
    <path class="cls-18" d="M55.23,60.82l37.99.75s2.15-3.23.96-9.37-36.63.5-36.63.5c0,0,.52,4.24-2.32,8.12Z"/>
    <path class="cls-27" d="M57.22,54.63l37.3.76s.02-7.13-3.36-9.29c-3.38-2.16-35.61-1.26-35.61-1.26,0,0,2.39,3.26,1.67,9.79Z"/>
    <path class="cls-19" d="M56.38,46.57l36.15.99s-1.6-4.29-8.48-4.79c-6.88-.5-30.32-.67-30.32-.67l2.65,4.47Z"/>
    <line class="cls-11" x1="49.9" y1="46.85" x2="55.8" y2="46.89"/>
    <line class="cls-11" x1="50.79" y1="51.35" x2="56.65" y2="51.41"/>
    <line class="cls-11" x1="50.31" y1="56.1" x2="56.56" y2="56.14"/>
    <line class="cls-11" x1="33.82" y1="48.25" x2="40.19" y2="48.4"/>
    <line class="cls-11" x1="33.99" y1="53.08" x2="40.72" y2="53.21"/>
    <path class="cls-6" d="M76.48,67.36l8.16-.33s10.61-.74,9.84-12.41c-.77-11.66-9.34-11.82-9.34-11.82,0,0-20.79-.6-32.07-.71-11.87-.11-13.65.12-14.05,1.3-2.01-.39-2.79-.28-9.69-.67-7.03-.26-8.88,5.78-8.88,5.78l-16.42-.02s-3.03-.02-2.81,2.57c.21,2.5,2.29,2.34,2.29,2.34,0,0,14.29.37,15.77.38-.15,4.24,2.66,6.3,3.52,6.89,2.15,1.47,5.9,1.47,5.9,1.47l9.73-.09c.98,2.93,4.87,2.84,4.87,2.84,0,0,3.62-.14,5.43-.19,1.15,2.33,3.36,2.16,3.36,2.16,0,0-.15,1.35-.55,5.08-.15,3.81,4.98,3.82,4.98,3.82,0,0-.21,5.54-.35,6.98s-1.18,2.17-1.18,2.17c0,0-11.02.11-15.21.26-4.54-.19-5.62,5.63-5.62,5.63,0,0-1.63,9.18-1.69,10.57s.13,2.33.57,2.93c.41.76,5.49,4.59,8.31,6.05s6.65,1.15,6.65,1.15c0,0,19.25-.22,24.81-.45,5.56-.22,5.75-4.52,5.75-4.52,0,0,.56-3.81,1.2-8.94.64-5.13-6.44-8.36-8.88-10.47"/>
    <path class="cls-9" d="M37.28,43.25s4.51,1.82,4.38,10.39c-.28,8.44-7.82,8.44-7.82,8.44"/>
    <path class="cls-6" d="M52.1,66.83c12.52.77,24.38.53,24.38.53,0,0-4.7-.13-4.86,3.12-.2,4.1-.76,16.48-.76,16.48,0,0-.43,3.07-3.02,3.2-2.59.13-10.51.45-13.28-5.15"/>
    <path class="cls-9" d="M79.25,101.55l-28.33.27s-3.14.14-6.7-1.27c-3.21-1.29-10.67-6.23-10.67-6.23"/>
    <path class="cls-6" d="M20.45,48.5s.08,0,.22.03c3.05.53,2.82,5-.26,5.25-.64.05-1.13,0-1.13,0"/>
    <path class="cls-6" d="M22.97,44.81s5.74-2.07,6.4,5.68c.13,1.55-.04,3.11-.58,4.56-2.29,6.13-8.19,3.43-8.19,3.43"/>
    <line class="cls-6" x1="84.46" y1="50.28" x2="88.81" y2="50.31"/>
    <line class="cls-6" x1="85.2" y1="55.55" x2="89.38" y2="55.56"/>
    <line class="cls-6" x1="83.62" y1="60.96" x2="87.97" y2="61.01"/>
    <path class="cls-6" d="M56.53,75.72l2.92.16s2.02.45,2.11-2.67c.37-2.61.82-5.93.82-5.93"/>
    <path class="cls-6" d="M42.51,42.2s4.19,1.44,4.07,10.78c-.12,9.34-5.5,11.12-5.5,11.12"/>
    <path class="cls-6" d="M53.07,42.09s5.18,3.11,4.14,12.54c-1.37,8.25-4.87,9.86-8.48,10.05"/>
    <line class="cls-10" x1="32.57" y1="57.81" x2="40.7" y2="57.85"/>
    <line class="cls-10" x1="48.88" y1="60.73" x2="55.04" y2="60.66"/>
  </g>
</svg>