<?xml version="1.0" encoding="UTF-8"?>
<svg id="Layer_2" data-name="Layer 2" xmlns="http://www.w3.org/2000/svg" xmlns:xlink="http://www.w3.org/1999/xlink" viewBox="0 0 146.37 119.59">
  <defs>
    <style>
      .cls-1 {
        fill: #703c16;
      }

      .cls-2 {
        fill: #ceb891;
      }

      .cls-3 {
        fill: #755b46;
      }

      .cls-4 {
        fill: #8e5424;
      }

      .cls-5 {
        fill: #153350;
      }

      .cls-6 {
        fill: url(#linear-gradient-2);
      }

      .cls-7 {
        fill: #f6c574;
      }

      .cls-8, .cls-9 {
        fill: #fff;
      }

      .cls-10 {
        fill: #a18f70;
      }

      .cls-11 {
        fill: #4c1a09;
      }

      .cls-12, .cls-13 {
        fill: #b7eae8;
      }

      .cls-14 {
        fill: #ebb561;
      }

      .cls-9, .cls-13 {
        stroke-width: 1.21px;
      }

      .cls-9, .cls-13, .cls-15, .cls-16, .cls-17, .cls-18 {
        stroke-linejoin: round;
      }

      .cls-9, .cls-13, .cls-15, .cls-19, .cls-20, .cls-17 {
        stroke-linecap: round;
      }

      .cls-9, .cls-17 {
        stroke: #4c1a09;
      }

      .cls-21 {
        fill: url(#linear-gradient-3);
      }

      .cls-22 {
        fill: #2b4354;
      }

      .cls-23 {
        fill: #fcd494;
      }

      .cls-24 {
        fill: #3c7bd6;
      }

      .cls-25 {
        fill: #a36731;
      }

      .cls-26 {
        fill: #fddf9e;
      }

      .cls-13 {
        stroke: #3c7bd6;
      }

      .cls-27 {
        fill: #8f662b;
      }

      .cls-28 {
        fill: #c66123;
      }

      .cls-15, .cls-16, .cls-19, .cls-20, .cls-17, .cls-18 {
        fill: none;
      }

      .cls-15, .cls-16, .cls-19, .cls-20, .cls-18 {
        stroke-width: 2.43px;
      }

      .cls-15, .cls-18 {
        stroke: #001f39;
      }

      .cls-29 {
        fill: #d2001e;
      }

      .cls-30 {
        fill: #b08136;
      }

      .cls-16 {
        stroke: #fff;
      }

      .cls-31 {
        fill: #223c51;
      }

      .cls-32 {
        fill: #adbbc4;
      }

      .cls-33 {
        fill: #5b2307;
      }

      .cls-34 {
        fill: #7b93a8;
      }

      .cls-19 {
        stroke: #021e35;
      }

      .cls-19, .cls-20 {
        stroke-miterlimit: 10;
      }

      .cls-20 {
        stroke: #31536c;
      }

      .cls-35 {
        fill: url(#linear-gradient);
      }

      .cls-17 {
        stroke-width: .6px;
      }
    </style>
    <linearGradient id="linear-gradient" x1="170.27" y1="244.31" x2="170.27" y2="292.3" gradientTransform="translate(-107.49 270.43) rotate(10.75) scale(1 -1)" gradientUnits="userSpaceOnUse">
      <stop offset="0" stop-color="#ff523a" stop-opacity="0"/>
      <stop offset=".09" stop-color="#ff513a" stop-opacity=".03"/>
      <stop offset=".22" stop-color="#ff5038" stop-opacity=".11"/>
      <stop offset=".37" stop-color="#ff4e37" stop-opacity=".24"/>
      <stop offset=".55" stop-color="#ff4a34" stop-opacity=".42"/>
      <stop offset=".74" stop-color="#ff4631" stop-opacity=".65"/>
      <stop offset=".95" stop-color="#ff402d" stop-opacity=".92"/>
      <stop offset="1" stop-color="#ff3f2c"/>
    </linearGradient>
    <linearGradient id="linear-gradient-2" x1="170.85" y1="201.87" x2="170.85" y2="235.52" gradientTransform="translate(-107.49 270.43) rotate(10.75) scale(1 -1)" gradientUnits="userSpaceOnUse">
      <stop offset="0" stop-color="#dbffff"/>
      <stop offset="1" stop-color="#339ed3"/>
    </linearGradient>
    <linearGradient id="linear-gradient-3" x1="167.85" y1="293.53" x2="167.85" y2="283.99" xlink:href="#linear-gradient-2"/>
  </defs>
  <g id="Layer_3" data-name="Layer 3">
    <g id="Layer_2-2" data-name="Layer 2">
      <g id="Layer_1-2" data-name="Layer 1-2">
        <path class="cls-3" d="M99.01,118.99c-.48.02-.92-.25-1.13-.68-.86-1.73,1.56-4.91,3.62-7.15-.56.2-1.23.47-1.92.76-1.34.65-2.75,1.12-4.21,1.41-.33.02-.64-.17-.76-.47-.2-.54.28-1,.88-1.54,2.9-2.53,10.27-5.6,11-5.91,1-.65,7.78-5,10.29-5,.42-.03.82.14,1.1.45.25.36.32.81.2,1.23-.6,2.66-4.31,13-7.43,13h-.1c-.52,0-.99-.29-1.25-.74-.45-.79-.21-2.11.17-3.3l-.86.8c-4.17,3.91-7.8,7.14-9.6,7.14Z"/>
        <path class="cls-11" d="M116.82,100.99c.57,0,.86.28.71,1-.79,3.5-4.5,12.5-6.84,12.5h-.06c-2.34-.16.43-5.62.43-5.62-1.81,1.32-9.64,9.59-12,9.59-.25.02-.49-.12-.6-.35-1.15-2.31,5.83-8.8,5.83-8.8l-2.07,1c-1.65.5-5.84,2.45-6.81,2.45-.35,0-.28-.26.51-1,3-2.57,10.93-5.83,10.93-5.83,0,0,7.56-5,10-5M116.85,99.73c-2.61,0-9.06,4.11-10.57,5.1-1,.42-8.25,3.45-11.16,6-.53.47-1.41,1.24-1.05,2.21.21.54.75.89,1.33.86,1.42-.23,2.79-.67,4.08-1.31-1.65,2.11-2.88,4.41-2.11,6,.32.63.97,1.02,1.68,1,1.79,0,4.52-2.21,9.49-6.85-.08.63.02,1.27.3,1.84.36.62,1.02,1.02,1.74,1.05h.14c3.91,0,7.71-12.08,8-13.45.17-.6.05-1.23-.32-1.73-.39-.46-.97-.71-1.57-.68l.02-.04Z"/>
        <path class="cls-17" d="M98.57,115.18s3.25-1.2,4.48,1.69"/>
        <path class="cls-17" d="M100.92,111.75s5.41-2.49,6.58,1.12"/>
        <path class="cls-17" d="M97.9,109.68c.85.51,1.25,1.53.95,2.48"/>
        <path class="cls-17" d="M109.2,111.87s2.46-2.84,5.38-1.31"/>
        <path class="cls-17" d="M103.27,107.54c.74-.34,1.63-.04,2,.69,0,0,4-2.12,6.25-.56,0,0,3.18-3.14,5.3-1.71"/>
        <path class="cls-3" d="M62.3,97.31c-.51.06-1.01-.12-1.38-.47-.19-.24-.26-.56-.17-.85.23-.89,1.64-1.65,3.1-2.22l-4.1-.28c-2-.13-3.75-.24-4.56-.34-1.01-.02-1.85-.79-1.95-1.8,0-.98.72-1.81,1.7-1.93,1.59-.21,3.2-.28,4.81-.22h0c-3-1.69-3.26-2.56-3.1-3.18.08-.33.41-.88,1.66-.88.53,0,1.06.08,1.57.22,2.7.9,5.35,1.94,7.94,3.12.32.14,8,3.47,7.56,5.77-.26,1.25-2.46,1.49-5,1.76-.71.08-1.41.16-2,.25s-1.16.23-1.85.37c-1.4.35-2.83.58-4.27.68h.04Z"/>
        <path class="cls-11" d="M58.35,85.74c.48.03.95.11,1.4.25,2.67.86,5.29,1.86,7.86,3,3.81,1.63,7.46,4,7.22,5.09s-4.22,1.17-6.51,1.55c-1.98.45-3.98.78-6,1-.66,0-1.06-.15-.95-.56.35-1.34,5.5-2.69,5.5-2.69-2.68-.36-9.72-.69-11.55-.91s-1.9-2.17-.21-2.54c1.54-.16,3.09-.2,4.64-.13,2.36,0,4.77.07,5.14.07h0l-4.06-.79c-4.5-2.4-4-3.34-2.48-3.34M58.35,84.53c-1.73,0-2.15.94-2.25,1.34-.22.9.25,1.74,1.63,2.75-.97-.02-1.94.05-2.89.21-1.36.1-2.37,1.28-2.28,2.63.1,1.34,1.25,2.35,2.59,2.28.83.11,2.57.22,4.59.35l1.87.13c-.66.35-1.16.93-1.43,1.62-.14.47-.04.98.26,1.37.48.51,1.16.77,1.86.71,1.48-.1,2.96-.33,4.4-.7.68-.14,1.33-.28,1.82-.36s1.24-.17,2-.25c2.89-.31,5.17-.56,5.53-2.24.54-2.53-5.36-5.35-7.93-6.45-2.61-1.19-5.28-2.24-8-3.14-.56-.16-1.14-.24-1.72-.25h-.05Z"/>
        <path class="cls-17" d="M57.65,89.28c.94,1.1.98,2.71.1,3.85"/>
        <path class="cls-17" d="M61.75,89.54s3,1.11,1.33,3.86"/>
        <path class="cls-17" d="M61.11,85.91s1,1.53-.88,3.27"/>
        <path class="cls-17" d="M64.48,93.69c1.33.37,2.1,1.74,1.73,3.06,0,0,0,.01,0,.02"/>
        <path class="cls-17" d="M64.96,87.3c0,.22,1.38.94.67,2.58,0,0,2.75.79,2.1,3.23,0,0,2.79.7,2.2,2.83"/>
        <path class="cls-12" d="M79.1,95.99c-2.75,0-7.85-.58-11.09-4.46-4.45-5.33-1.32-11.54-1.26-11.54.11-.2.32-.32.54-.32h.2c8.46,3,13.39,14.92,13.6,15.42.08.17.08.37,0,.54-.1.16-.26.27-.45.29-.49.05-.98.07-1.47.07h-.07Z"/>
        <path class="cls-24" d="M67.26,80.23c8.3,2.94,13.24,15.08,13.24,15.08,0,0-.54.06-1.4.06-2.43,0-7.49-.49-10.63-4.23-4.24-5.08-1.21-10.91-1.21-10.91M67.26,79.02c-.45,0-.87.26-1.08.66-.13.26-3.34,6.61,1.37,12.23,3.39,4.06,8.69,4.67,11.55,4.67.92,0,1.51-.07,1.54-.07.37-.05.7-.26.9-.58.19-.33.22-.72.07-1.07-.21-.52-5.24-12.68-14-15.77-.13-.04-.26-.07-.4-.07h.05Z"/>
        <path class="cls-25" d="M105.36,100.8c-3.66,0-7.3-.51-10.82-1.53-23.06-6.7-30.52-21.23-29.9-29.36.25-3.3,1.11-6.53,2.52-9.53-.47.28-1.01.46-1.56.5-.39.02-.76-.16-1-.46-.37-.69-.41-1.51-.09-2.23.79-2.13,2.13-4.01,3.88-5.46h-.08c-.59.23-1.2.37-1.83.43-.36.03-.7-.12-.93-.4-.26-.41-.32-.91-.16-1.37.5-2.11,3.56-3.62,4.76-4.14-.45-5.8.35-11.63,2.35-17.1,2.8-8.16,10.47-13.07,13.61-14.78-1.13-.46-2.07-1.16-2.06-2.05,0-.55.36-1.28,2.05-1.62.68-.13,1.38-.19,2.07-.18.51,0,1,0,1.55.07-.83-.53-1.42-1.11-1.43-1.7,0-.37.17-.88,1.06-1.22.42-.15.86-.23,1.3-.22,1.95.19,3.81.88,5.41,2-.19-.48-.19-1.02,0-1.5.19-.31.53-.49.89-.48,1.45.05,3.1,2.34,3.76,3.35,19.44,3.17,25.57,16.62,27.27,27.34,1,6.62,5.22,10.41,10,14.8,3.56,3.32,6.24,7.48,7.77,12.1.06.25,0,.52-.16.72-.15.18-.38.27-.61.27-.12,0-.24-.02-.35-.06.57,2.4.67,4.89.31,7.33-.06.38-.38.66-.77.66-.19,0-.37-.06-.54-.15.38,3.28-.72,7.2-1.68,7.85-1.74,1.71-3.34,3.57-4.78,5.54-.28.63-14.14,12.58-31.81,12.58Z"/>
        <path class="cls-33" d="M90.65,9.05c2.91,0,6.93,3.25,6.93,3.25,0,0-1.92-3.19-.65-3.19h0c1.32.05,3.37,3.3,3.37,3.3,21.87,3.44,26,20.09,27.05,26.84s5.26,10.63,10.24,15.15c3.43,3.24,6,7.29,7.49,11.77,0,.2,0,.27-.18.27-.56-.17-1.09-.45-1.56-.81,1.62,2.77,1.06,7.88.93,8.58,0,.1-.08.17-.18.17-.44,0-1.49-1.1-1.49-1.1,1.12,3.28-.25,8.34-1.07,8.9-1.84,1.78-3.51,3.73-5,5.81-.17.49-13.67,12.2-31.2,12.2-3.58,0-7.14-.51-10.58-1.5-22.46-6.51-30.12-20.7-29.51-28.7.37-4.83,2.06-9.47,4.9-13.4-1.09.81-2.02,1.83-2.71,3-.54.39-1.17.66-1.83.77-.56,0-.93-.43-.52-1.93,1-3.5,5.7-6.8,5.7-6.8-1.63.09-3.42,1-4.31,1-.47,0-.68-.26-.5-1,.53-2.26,4.83-3.9,4.83-3.9,0,0-1.19-7.19,2.26-17.28s14.69-15.21,14.69-15.21c-3-.66-4.37-2.37-1.49-2.95.66-.12,1.33-.17,2-.16,1.96.05,3.91.29,5.83.72,0,0-7.31-2.52-4.44-3.61.35-.13.72-.19,1.09-.19M90.74,7.84c-.52,0-1.03.09-1.52.27-.83.2-1.42.94-1.44,1.79,0,.36.12.72.35,1-.69,0-1.38.06-2.06.19-2.19.44-2.53,1.57-2.54,2.2.06.89.59,1.69,1.39,2.09-3.61,2.13-10.3,7-12.91,14.59-1.96,5.41-2.78,11.17-2.42,16.91-1.51.7-4.2,2.21-4.71,4.38-.2.64-.1,1.33.27,1.89.34.42.87.66,1.41.63h0c-1.19,1.19-2.09,2.63-2.64,4.21-.36.9-.29,1.91.19,2.75.35.47.91.73,1.49.71.15,0,.29,0,.44,0-1.1,2.68-1.77,5.52-2,8.41-.63,8.33,6.92,23.19,30.33,30,3.58,1.03,7.28,1.56,11,1.55,17.74,0,31.88-11.76,32.34-13,0,.03,0,.06,0,.09,1.39-1.89,2.92-3.66,4.58-5.32,1.11-.75,2.17-4.33,2-7.6.63-.06,1.13-.53,1.24-1.15.32-2.27.28-4.58-.13-6.84.25-.08.47-.23.64-.43.28-.33.39-.78.3-1.2-1.54-4.74-4.24-9.03-7.87-12.45-4.74-4.31-8.84-8-9.85-14.45-2.48-15.32-12.25-25.16-27.57-27.76-.86-1.27-2.49-3.34-4-3.4h-.07c-.83-.01-1.53.61-1.63,1.43-1.42-.87-3.04-1.38-4.7-1.49h.09Z"/>
        <path class="cls-4" d="M136.56,87.99c1.49-2.08,3.16-4.03,5-5.81.82-.56,2.19-5.62,1.07-8.9,0,0,1.54,1.62,1.67.93s.69-5.81-.93-8.58c0,0,1.89,1.39,1.74.54-1.49-4.48-4.06-8.53-7.49-11.77-2.45-2.07-4.69-4.38-6.69-6.89h0s6.24,9.77,4.36,17.53-4.92,4.09-4.92,4.09l-5.82-4.71s1.07,6.28-2.77,7.63-4.44-.84-4.44-.84c0,0,.46,4-4.17,4.15s-16.3-2.07-21.25-4-11.34-5.46-11.29-9.37-.54-4.6-.54-4.6c0,0-6.3,5.8-6.27,2.41,0-1.98.49-3.93,1.43-5.68,0,0-4.7,1.86-3.92.17.61-1.23,1.33-2.4,2.15-3.49-1.13-.86-2.12-1.89-2.92-3.07-.9.38-4.14,1.86-4.59,3.8-.53,2.25,2.33.13,4.81,0,0,0-4.73,3.3-5.7,6.8s2.35,1.16,2.35,1.16c.69-1.17,1.62-2.19,2.71-3-2.86,3.96-4.55,8.63-4.9,13.5-.61,8,7.05,22.19,29.51,28.7s41.6-10.12,41.81-10.7Z"/>
        <path class="cls-30" d="M126.33,82.57c-10.31-3.39-28.89-15.01-24.51-24.58s11.75-5.24,17-17.13-6.2-21.78-16.43-22.39-17,8.24-17.55,8.85-5.37-.3-7.18-1.05-.6-2.73-.55-2.81c-1.76,2.06-3.11,4.44-4,7-3.45,10.09-2.26,17.28-2.26,17.28,0,0-4.3,1.64-4.83,3.9s2.33.13,4.81,0c0,0-4.73,3.3-5.7,6.8s2.35,1.16,2.35,1.16c.69-1.17,1.62-2.19,2.71-3-2.85,3.92-4.57,8.56-4.95,13.39-.61,8,7.05,22.19,29.51,28.7,18.8,5.45,35.34-5.34,40.33-9.32-1.46-2.86-4.41-5.38-8.75-6.8Z"/>
        <path class="cls-27" d="M97.27,99.32l1.31.27.71.12,1.23.17.7.09,1.28.11h.6l1.66.06h2.5c.44,0,.88,0,1.31-.08h.6l1.18-.13.6-.08,1.21-.19.51-.08,1.47-.29h.19c.56-.12,1.12-.26,1.66-.4l.32-.08,1.27-.36.48-.15,1.08-.34.49-.16,1.06-.38.42-.16,1.21-.47.22-.09,1.39-.6.2-.09c.38-.17.75-.34,1.11-.52l.39-.19.86-.43.42-.21.79-.42.4-.22.79-.45.31-.17c.35-.2.69-.41,1-.61l.27-.16.69-.43.39-.26.48-.31.41-.28.39-.27.4-.28.31-.22.4-.29.08-.06,1-.77c-1.41-2.86-4.36-5.37-8.7-6.8-5.01-1.76-9.76-4.18-14.12-7.21-5.12-.13-15.66-2.19-20.3-4-4.95-2-11.33-5.43-11.28-9.31s-.54-4.6-.54-4.6c0,0-6.3,5.8-6.27,2.41,0-1.98.49-3.93,1.43-5.68,0,0-4.7,1.86-3.92.17.61-1.23,1.33-2.4,2.15-3.49-1.13-.86-2.12-1.89-2.92-3.07h0l-.19.08h-.09l-.22.03-.24.11h-.1l-.25.13-.12.06-.27.14-.12.07-.29.17-.11.07-.34.21-.07.05c-.27.18-.54.38-.8.59l-.08.07-.27.25-.11.11-.21.23-.11.12-.17.24-.09.13c-.05.08-.1.17-.14.26l-.06.12c-.06.13-.1.26-.13.39-.53,2.25,2.33.13,4.81,0,0,0-4.73,3.3-5.7,6.8s2.35,1.16,2.35,1.16c.69-1.17,1.62-2.19,2.71-3-2.86,3.96-4.56,8.65-4.9,13.52-.61,8,7.05,22.19,29.51,28.7.65.19,1.3.35,2,.5l.52.13Z"/>
        <path class="cls-35" d="M100.33,12.8s-2-3.26-3.37-3.3.62,3.19.62,3.19c0,0-5.15-4.16-8-3.07s4.44,3.62,4.44,3.62c0,0-4.91-1.14-7.78-.56s-1.49,2.31,1.51,2.95c0,0-11.2,5-14.65,15.13s-2.26,17.29-2.26,17.29c0,0-4.3,1.64-4.83,3.9s2.33.13,4.81,0c0,0-4.73,3.3-5.7,6.8s2.35,1.16,2.35,1.16c.69-1.17,1.62-2.19,2.71-3-2.84,3.93-4.54,8.57-4.9,13.4-.61,8.08,7,22.23,29.46,28.73s41.61-10.05,41.82-10.66c1.49-2.08,3.16-4.03,5-5.81.82-.56,2.19-5.62,1.07-8.91,0,0,1.54,1.63,1.67.93s.69-5.8-.93-8.57c0,0,1.89,1.38,1.74.54-1.49-4.48-4.06-8.53-7.49-11.77-5-4.53-9.16-8.39-10.24-15.15s-5.18-23.41-27.05-26.84Z"/>
        <path class="cls-29" d="M33.03,42.99c-.22,0-.43-.12-.54-.31-.14-.27-.06-.6.18-.78.16-.11,16.13-11.44,35.41-11.44h1.15c6.69,1.93,18,5.39,18.53,7,.09.24.04.52-.12.72-.5.67-3.3.92-20,1.75-13.68.69-30.7,1.54-34.45,3-.05.03-.1.05-.16.06Z"/>
        <path class="cls-33" d="M68.08,31.04h1s19.08,5.49,18.09,6.79-47.42,1.95-54.14,4.54c0,0,15.74-11.33,35.05-11.33M68.08,29.84h0c-19.47,0-35.1,11.08-35.76,11.55-.52.36-.68,1.06-.36,1.6.21.39.62.64,1.07.64.15,0,.29-.03.43-.08,3.66-1.42,21.35-2.3,34.26-2.95,18.31-.91,19.75-1.12,20.41-2,.28-.37.35-.84.21-1.28-.22-.65-.72-2.16-18.94-7.4-.1-.02-.21-.02-.31,0l-1.01-.08Z"/>
        <path class="cls-10" d="M32.35,43.17c-.29,0-.55-.2-.6-.49-.06-.31.13-.61.43-.69,14.74-4.44,30.06-5.37,40.32-5.37,5.13-.03,10.26.22,15.37.74.21.03.39.16.48.35.08.2.06.42-.06.6-1,1.44-6.79,3.61-7.94,4-.07,0-.14,0-.21,0h-.13c-2.68-.59-7.18-.88-13.39-.88-14.65,0-34,1.67-34.22,1.69l-.05.05Z"/>
        <path class="cls-33" d="M72.5,37.23c5.11-.03,10.22.21,15.3.73-1,1.36-7.66,3.81-7.66,3.81-4.47-.72-9-1.02-13.52-.9-14.87,0-34.27,1.7-34.27,1.7,14.4-4.34,29.4-5.34,40.15-5.34M72.5,36.02c-10.3,0-25.69.93-40.5,5.39-.59.18-.95.78-.84,1.39.1.58.6,1,1.19,1h.1c.2,0,19.55-1.69,34.17-1.69,6.16,0,10.63.29,13.26.87h.26c.14,0,.28-.03.42-.07,2.12-.78,7.16-2.74,8.22-4.25.39-.55.26-1.3-.29-1.69-.16-.12-.35-.19-.55-.21-5.13-.54-10.28-.79-15.44-.77v.03Z"/>
        <path class="cls-2" d="M88.91,37.42c-.06,0-.12,0-.18,0-19.44-5.95-40.41-6.83-51.17-6.83-3.48,0-5.55.09-5.57.09h0c-.3,0-.55-.22-.6-.51-.07-.29.09-.59.36-.7,7.84-2.16,15.95-3.19,24.08-3.06,9.2.03,18.38.97,27.4,2.79.21.05.38.2.45.4,1.27,3.92,5.48,6.68,5.52,6.71.25.16.34.49.22.76-.09.2-.29.34-.51.35Z"/>
        <path class="cls-33" d="M55.87,26.99c9.16.04,18.29.97,27.27,2.8,1.36,4.18,5.77,7,5.77,7-19.83-6.04-41.41-6.8-51.35-6.8-3.54,0-5.6.1-5.6.1,7.79-2.12,15.84-3.13,23.91-3M55.87,25.88h0c-8.19-.15-16.36.86-24.26,3.01-.64.19-1.01.86-.82,1.5.15.52.63.87,1.17.87h.06s2.08-.1,5.54-.1c10.73,0,31.63.88,51,6.81.11.04.23.05.35.05.67,0,1.21-.55,1.2-1.22,0-.4-.21-.78-.54-1,0,0-4.07-2.67-5.28-6.39-.13-.4-.47-.71-.88-.8-9.07-1.83-18.29-2.77-27.54-2.8v.07Z"/>
        <path class="cls-8" d="M83.14,29.79s-28.62-6.41-51.18.26c0,0,.77,0,2.18-.07,13.28-3.53,44.18-.22,46.08.43s6.61,5.75,6.61,5.75l.18.09c.63.19,1.27.37,1.9.57,0,0-4.41-2.83-5.77-7.03Z"/>
        <path class="cls-12" d="M109.5,105.62c-5.31,0-7-2.06-7.44-3-2.17-.31-14-2.26-23.7-8.63-8.75-5.77-10.35-8.61-11.3-10.3-.16-.31-.35-.6-.56-.88-.7-.96-1.08-2.11-1.09-3.3,0-.2-.03-.4-.08-.6l-.08-.1c-2-2.69-2.72-5.22-2.23-7.52.12-.58.23-1.24.35-1.92.52-3.11,1.12-6.64,3.45-6.64.46.01.91.14,1.31.36.24.13.37.4.31.67-.18.76-.43,2.93.53,4,1.46,1.55,5.36,5,7.42,5.21h.56c1.26,0,1.34-.42,1.47-1.11.18-.95,1.1-3.44,3.14-3.53h.19c1.14,0,2.1.86,2.21,2v.19h0s.25.17.43.29c1.01.67,1.86,1.55,2.5,2.57,1.39,2.04,3.1,3.84,5.07,5.33.49.44,1.09.73,1.73.84l.1-.05c.14-.38.25-.76.35-1.15.59-2.09.82-2.68,1.32-2.86l.48-.23c.37-.23.79-.38,1.23-.44.13,0,.25.03.36.09.22.12.42.23.91,2.48.36-.13.74-.2,1.13-.2.62,0,1.23.18,1.76.52,1.6,1.09,3.32,1.99,5.12,2.7.63.06,6.47,1.33,7.2,1.89.69.55,1.42,1.04,2.19,1.47l.07-.07c1.26-1.29,2.71-2.62,3.94-2.66l1.65-.05c.59-1.25,1.34-3.22,1.23-4-.21-1.56-.49-3.65,1.17-4.59.3-.17.65-.26,1-.26,1.47,0,2.72,1.62,3.41,3.13.78,1.73,1.21,2.69.7,3.6-.33.88-.58,1.79-.77,2.71,1.71.65,3.51.99,5.34,1,.12-.86.51-2.36,1.79-2.58.33-.06.66-.09,1-.09.75-.04,1.49.14,2.14.52l.22.25c.38-4,1-4.13,1.3-4.22.13-.02.26-.02.39,0,.72,0,1.48.53,2.24,1.57.6.82,1.24,2.62.87,3.57-.8,1.35-1.81,2.56-3,3.58-1.04,1.04-1.73,2.37-2,3.81-.21,1.13-1.71,1.94-2.91,2.59-.35.17-.68.38-1,.61-.12.12-12,11.88-21,13.22-1.36.21-2.73.33-4.1.34l-.02-.13ZM82.19,73.33c-.49.03-.89.42-.93.91-.25,1.33-.26,3.79.53,4.82.19.27.48.44.81.46h.15c.76-.05,1.41-.55,1.65-1.27.45-1.08.3-2.86-1.44-4.6-.2-.21-.48-.33-.77-.32Z"/>
        <path class="cls-24" d="M66.82,63.32c.35.02.69.12,1,.29,0,0-.72,3,.68,4.51s5.47,5.18,7.81,5.4h.62c1.75,0,1.92-.86,2.06-1.6s.94-3,2.57-3h.19c1.51,0,1.54,1.41,1.69,1.81s1.93,1.13,3,2.94c1.43,2.12,3.2,3.99,5.25,5.52.59.52,1.31.87,2.08,1,.29.02.56-.15.66-.43.29-.71.9-3.51,1.31-3.66.48-.26.99-.47,1.51-.64h.07c.34.92.6,1.87.77,2.84.46-.31,1-.47,1.56-.48.51,0,1.01.15,1.44.43,1.58,1,4.56,2.71,5.39,2.79,2.34.4,4.64.99,6.88,1.77.81.68,1.71,1.24,2.68,1.66.03,0,.05,0,.08,0,.27-.22,2.44-2.73,3.83-2.77s2-.08,2-.08c0,0,1.63-3.3,1.43-4.72s-.44-3.23.88-4c.21-.12.44-.18.68-.18,1.12,0,2.23,1.38,2.85,2.77.76,1.68,1.08,2.43.73,3.06-.4,1.09-.71,2.21-.94,3.35,1.95.84,4.05,1.25,6.17,1.21h.41s.07-2.37,1.34-2.59c.3-.05.61-.07.92-.07.59-.04,1.19.08,1.72.34.19.19,1.13,1.32,1.13,1.32,0,0,.32-5,1-5.14.08,0,.15,0,.23,0,.59,0,1.23.62,1.76,1.33.63.86.91,1.94.78,3-.75,1.26-1.69,2.39-2.8,3.35-1.14,1.13-1.91,2.57-2.2,4.15-.29,1.19-3.29,2.26-3.86,2.84s-12.06,11.76-20.67,13c-1.32.21-2.66.31-4,.32-5.29,0-6.74-2.08-7-3,0,0-13.15-1.57-23.79-8.59s-10.57-9.5-11.75-10.96-.82-3.37-1.12-3.82-3-3.71-2.24-7.18c.64-3.06,1-8.09,3.21-8.09M82.75,80.13c2.26,0,3.9-3.66.63-6.91-.3-.31-.72-.49-1.15-.49-.78.02-1.43.61-1.52,1.39-.28,1.49-.46,5.81,1.88,6h.16M66.86,62.12h0c-2.84,0-3.48,3.79-4,7.14-.11.68-.22,1.33-.34,1.9-.53,2.47.26,5.16,2.34,8h0v.4c.02,1.31.45,2.57,1.23,3.62.18.25.35.52.49.8,1,1.74,2.62,4.65,11.5,10.5,9.52,6.27,20.79,8.26,23.65,8.69.71,1.2,2.66,3,7.82,3,1.4,0,2.8-.12,4.18-.34,9.21-1.37,21.25-13.28,21.37-13.4s.55-.32.87-.5c1.32-.71,3-1.6,3.22-3,.25-1.31.88-2.52,1.82-3.47,1.26-1.08,2.32-2.37,3.13-3.81.47-1.21-.26-3.22-.94-4.15-.57-1-1.58-1.68-2.73-1.82-.19,0-.37.03-.55.08-.55.15-1.2.34-1.63,3.72-.6-.19-1.24-.29-1.87-.29-.38,0-.76.03-1.13.09-1.19.33-2.06,1.34-2.19,2.57-1.4-.06-2.79-.32-4.12-.77.15-.68.35-1.35.59-2,.65-1.17.12-2.35-.69-4.14s-2.19-3.48-4-3.48c-.45,0-.88.12-1.27.34-2,1.14-1.69,3.65-1.49,5.16-.12,1.19-.46,2.35-1,3.42h-1.27c-1.35,0-2.76,1.24-4.1,2.58-.41-.25-1-.68-1.72-1.2-.91-.7-6.88-2-7.5-2-1.7-.72-3.32-1.59-4.86-2.61-.62-.4-1.34-.61-2.08-.61-.23,0-.46.02-.68.06-.46-1.93-.69-2.06-1.06-2.27-.2-.11-.43-.17-.66-.17-.53.05-1.05.23-1.5.51l-.42.2c-.83.31-1.1,1.17-1.69,3.27-.06.22-.13.46-.19.66-.37-.18-.73-.39-1.06-.63-1.9-1.43-3.56-3.17-4.9-5.14-.69-1.09-1.6-2.02-2.68-2.73l-.26-.18c-.15-1.39-1.34-2.44-2.74-2.42h-.18c-2.34.11-3.44,2.68-3.7,4-.11.6-.12.61-.87.61h-.51c-1.63-.15-5.2-3.07-7-5-.77-.82-.53-2.78-.38-3.4.12-.54-.13-1.09-.62-1.34-.49-.27-1.03-.42-1.59-.43l-.04-.02ZM82.75,78.92h-.07c-.15,0-.29-.1-.37-.23-.64-.83-.65-3.1-.41-4.34,0-.19.12-.42.33-.42.12,0,.23.06.3.15,1.54,1.52,1.68,3,1.31,3.94-.15.49-.58.85-1.09.9Z"/>
        <path class="cls-6" d="M140.19,76.99c-.65.18-1,5.14-1,5.14,0,0-.94-1.13-1.13-1.32-.83-.37-1.75-.46-2.64-.27-1.27.22-1.34,2.59-1.34,2.59-1.97.06-3.94-.25-5.8-.92h0s-.26,4-2.34,5.9-13.8,1.68-18.83,3.34-16.76-2.14-24.68-6.87-11.37-7.91-11.12-13.9h0c-.98-.8-1.91-1.65-2.78-2.56-1.4-1.5-.68-4.51-.68-4.51-3.21-1.68-3.51,4.33-4.24,7.8s1.94,6.74,2.24,7.18-.1,2.4,1.12,3.82,1.08,4,11.73,11.06,23.79,8.59,23.79,8.59c.33,1.06,2.4,3.91,11,2.63s20.1-12.47,20.67-13,3.59-1.7,3.8-2.94c.29-1.58,1.06-3.02,2.2-4.15,1.11-.96,2.05-2.09,2.8-3.35.13-1.06-.15-2.14-.78-3-.59-.79-1.34-1.47-1.99-1.26Z"/>
        <path class="cls-12" d="M66.82,63.93c.12,0,.24.02.35.05-.16,1-.33,3.23.92,4.55s5.57,5.35,8.19,5.59h.68c2.25,0,2.5-1.3,2.65-2.08s.86-2.5,2-2.56h.14c.67,0,.86.33,1,1.08.02.12.05.23.09.34.12.31.41.52.86.84.87.58,1.61,1.35,2.15,2.25,1.48,2.19,3.31,4.12,5.42,5.72.71.58,1.57.94,2.48,1.03.54.02,1.03-.31,1.22-.81.15-.42.28-.84.39-1.27.18-.72.41-1.43.7-2.11l.48-.23.41-.2c.15.52.36,1.45.53,2.25.04.2.18.36.37.44.07.01.15.01.22,0,.12,0,.25-.04.35-.11.36-.23.78-.35,1.21-.36.4,0,.79.12,1.12.33.18.12,4.4,2.76,5.65,2.88,2.23.4,4.42.95,6.57,1.65,2.3,1.79,2.78,1.79,3,1.79.17,0,.33-.05.46-.15l.35-.35c1.47-1.5,2.52-2.27,3.12-2.29,1.4,0,2-.08,2-.08.21-.01.41-.14.5-.33.18-.36,1.7-3.51,1.49-5.11s-.31-2.83.58-3.33c.11-.07.25-.11.38-.11.71,0,1.67,1,2.3,2.42s.95,2.16.75,2.51c-.43,1.14-.77,2.32-1,3.52-.06.27.07.54.31.67,2.06.92,4.29,1.38,6.54,1.35h.43c.32,0,.58-.26.59-.58,0-.66.28-1.92.83-2,.27-.05.55-.07.82-.07.45-.02.9.06,1.32.21.17.17.71.81,1.07,1.24.11.14.28.22.46.21.06,0,.13,0,.19,0,.23-.07.4-.29.41-.53.06-1.55.29-3.09.67-4.6.24,0,.67.35,1.2,1.07.5.7.75,1.56.71,2.42-.74,1.16-1.65,2.19-2.7,3.07-1.23,1.22-2.06,2.79-2.39,4.49-.1.56-1.53,1.33-2.3,1.75-.47.22-.91.5-1.31.83-.11.11-11.7,11.58-20.33,12.87-1.3.2-2.61.31-3.92.32-5.48,0-6.36-2.27-6.44-2.53-.07-.23-.27-.39-.5-.42-.13,0-13.12-1.64-23.53-8.49-8.51-5.61-10-8.28-10.92-9.88-.19-.39-.41-.76-.67-1.1-.54-.77-.83-1.69-.83-2.63.01-.4-.08-.79-.26-1.15l-.12-.17c-1.76-2.4-2.44-4.6-2-6.54.13-.61.24-1.27.36-2,.4-2.38.95-5.63,2.26-5.63M82.75,80.73c1.25-.03,2.34-.82,2.76-2,.6-1.44.47-3.76-1.7-5.92-.42-.42-.99-.66-1.58-.67-1.08,0-1.99.79-2.15,1.85-.2,1.07-.46,4.19.75,5.78.39.54,1,.88,1.67.93h.25M66.82,63.32c-2.26,0-2.57,5-3.21,8.09-.74,3.47,1.94,6.74,2.24,7.18s-.1,2.4,1.12,3.82,1.08,4,11.73,11.06,23.79,8.59,23.79,8.59c.27.87,1.72,3,7,3,1.34,0,2.68-.11,4-.32,8.61-1.29,20.1-12.47,20.67-13s3.59-1.75,3.8-2.99c.29-1.58,1.06-3.02,2.2-4.15,1.11-.96,2.05-2.09,2.8-3.35.13-1.06-.15-2.14-.78-3-.53-.71-1.17-1.33-1.76-1.33-.08,0-.15,0-.23,0-.65.18-1,5.14-1,5.14,0,0-.94-1.13-1.13-1.32-.53-.26-1.13-.38-1.72-.34-.31,0-.62.02-.92.07-1.27.22-1.34,2.59-1.34,2.59h-.33c-2.13.03-4.23-.4-6.18-1.26.23-1.14.54-2.26.94-3.35.35-.63,0-1.38-.73-3.06-.62-1.39-1.73-2.77-2.85-2.77-.24,0-.47.06-.68.18-1.32.75-1.07,2.56-.88,4s-1.43,4.72-1.43,4.72c0,0-.62,0-2,.08s-3.56,2.55-3.83,2.77c-.03,0-.05,0-.08,0-.97-.42-1.87-.98-2.68-1.66-2.26-.76-4.58-1.34-6.94-1.72-.83-.08-3.81-1.8-5.39-2.79-.43-.28-.93-.43-1.44-.43-.56,0-1.1.17-1.56.48-.17-.97-.43-1.92-.77-2.84h-.07c-.52.17-1.03.38-1.51.64-.41.15-1,3-1.31,3.66-.1.28-.37.45-.66.43-.77-.13-1.49-.48-2.08-1-2.05-1.53-3.82-3.4-5.25-5.52-1-1.81-2.82-2.54-3-2.94s-.18-1.81-1.69-1.81h-.12c-1.63.07-2.42,2.23-2.57,3s-.31,1.6-2.06,1.6h-.62c-2.34-.22-6.4-3.9-7.81-5.4s-.68-4.51-.68-4.51c-.31-.17-.65-.27-1-.29v.05ZM82.75,80.13h-.2c-2.34-.19-2.16-4.51-1.88-6,.09-.78.74-1.37,1.52-1.39.43,0,.85.18,1.15.49,3.27,3.25,1.63,6.91-.63,6.91h.04Z"/>
        <path class="cls-8" d="M128.84,82.36h0c-.45-.14-.89-.31-1.32-.51.23-1.14.54-2.26.94-3.35.35-.63,0-1.38-.73-3.06s-2.2-3.34-3.53-2.59-1.07,2.56-.88,4-1.43,4.72-1.43,4.72c0,0-.62,0-2,.08s-3.56,2.55-3.83,2.77-2.22-1.23-2.76-1.64c-2.24-.79-4.55-1.38-6.89-1.79-.83-.08-3.81-1.8-5.39-2.79-.92-.58-2.1-.56-3,.05-.17-.97-.43-1.92-.77-2.84-.21-.11-1.16.47-1.58.63s-1,3-1.31,3.66-1.25.54-2.74-.52c-2.05-1.53-3.82-3.4-5.25-5.52-1-1.81-2.82-2.54-3-2.94s-.18-1.89-1.81-1.81-2.42,2.23-2.57,3-.34,1.78-2.68,1.57-6.4-3.9-7.81-5.4-.68-4.51-.68-4.51c-.23-.12-.48-.21-.74-.26-2.21,6.15,6.81,10,7.86,10.7s3.76-.2,3.76-.2c0,0,1.67-3.38,2.83-3.56s1.2,1.76,1.87,1.89,3.72,3.47,5.4,5.94,5.61,3.62,5.61,3.62c0,0,1.13-1.63,2-2.8s2.68,1.43,3,1.49c1.05-.19,2.12.09,2.95.76,1.14,1.14,4.88,1.14,7.59,2,2.07.78,4.02,1.84,5.8,3.16,0,0,1.67-1.22,3-2.4,1.02-.7,2.29-.91,3.48-.57,0,0,2.15-4.81,2.16-6.55s.33-4.12,2-1.88-.26,7.33-.26,7.33l2.71.12Z"/>
        <path class="cls-13" d="M130.3,67.19c-1.5-.28-3.61-1.22-3.88-.73s2.69,5.13,3.45,6.18,3.77,1,4.11-.78c.18-2.28-1.42-4.31-3.68-4.67Z"/>
        <path class="cls-21" d="M113.08,24.58c-.23,0-.46-.04-.68-.13-1.2-.5-1.66-1.94-2-3-.1-.31-.19-.59-.28-.8l-.12-.26c-.37-1.12-1.18-2.03-2.25-2.52-.97-.35-1.98-.59-3-.71-1.58-.26-3.08-.51-3.84-1.22-.56-.5-.79-1.27-.6-2,.17-.8.7-1.47,1.44-1.81.63-.17,1.28-.26,1.93-.25,2.31.05,4.58.69,6.57,1.87.98.48,2,.85,3.06,1.12,1,.33,2.13.66,2.9,1,1.78.77,3.46,3.28,4.36,4.63l.43.63c.62.91,1.12,1.63,1,2.3-.07.3-.27.55-.55.68-.21.1-.44.15-.67.15h0c-1.05-.14-2.02-.63-2.74-1.41-.85-.45-1.77-.75-2.73-.86-.08.5-.24.98-.48,1.43-.32.69-.99,1.14-1.75,1.16Z"/>
        <path class="cls-24" d="M103.67,12.48c2.18.05,4.31.64,6.19,1.74.78.63,4.37,1.45,6.1,2.19,1.73.74,3.49,3.51,4.25,4.63s1.59,2.16.9,2.52c-.12.06-.26.09-.39.08-.88-.13-1.7-.56-2.3-1.22-.67-.67-3.67-1.18-3.67-1.18,0,1.28-.67,2.74-1.68,2.74-.15,0-.31-.03-.45-.09-1.26-.52-1.55-2.58-2-3.49-.42-1.37-1.4-2.49-2.7-3.08-1.85-.84-5.54-.77-6.66-1.82s0-2.63.6-2.79c.58-.16,1.17-.24,1.77-.23M103.63,11.28c-.71,0-1.42.08-2.1.27-.91.41-1.58,1.23-1.78,2.21-.24.95.06,1.96.78,2.63.89.83,2.47,1.09,4.15,1.37.97.11,1.91.33,2.83.66.95.42,1.68,1.22,2,2.21l.12.27c.07.16.16.44.25.73.38,1.17.89,2.78,2.35,3.37.29.12.6.19.91.19.98-.04,1.86-.62,2.28-1.51.17-.32.31-.65.41-1,.63.11,1.23.32,1.8.6.82.88,1.93,1.44,3.12,1.57.33,0,.65-.07.94-.22.43-.21.75-.6.87-1.06.23-.93-.36-1.79-1-2.79l-.28-.41-.14-.21c-.94-1.41-2.68-4-4.63-4.86-.8-.34-1.9-.68-3-1-.98-.26-1.93-.6-2.86-1-2.12-1.27-4.53-1.96-7-2l-.02-.02Z"/>
        <path class="cls-8" d="M106.75,13.87c2.38,1.22,4,2.28,5.59,2.52s9.19,6.17,8.29,7.24c.15.02.31,0,.45-.07.69-.36-.15-1.39-.9-2.52s-2.52-3.88-4.25-4.63-5.32-1.56-6.1-2.19-5-2.34-8-1.51c-.32.14-.58.39-.75.69,1.89-.46,3.88-.3,5.67.47Z"/>
        <path class="cls-8" d="M132.75,70.93c-.25.33-1,.19-1.64-.3s-1-1.17-.74-1.5,1-.2,1.64.3.98,1.16.74,1.5Z"/>
        <path class="cls-1" d="M116.75,48.67c.1.9.33,1.79.66,2.64.41.88.97,1.67,1.67,2.34.56.54,1.41-.31.86-.86-.33-.31-.62-.64-.89-1-.12-.18-.23-.36-.33-.54-.05-.08-.09-.17-.13-.26-.03-.04-.05-.09-.07-.14v-.06c-.29-.78-.49-1.6-.57-2.43-.09-.32-.42-.51-.75-.43-.32.1-.5.43-.42.75h-.03Z"/>
        <path class="cls-1" d="M121.08,48.99c.73,1.19,1.66,2.25,2.73,3.15.29.17.65.07.82-.22,0,0,0,0,0,0,.16-.29.07-.65-.21-.82.12.09,0,0,0,0l-.13-.11-.17-.15-.37-.34c-.24-.26-.47-.52-.69-.8l-.07-.09s-.11-.14,0,0l-.14-.19-.29-.43-.44-.63c-.18-.28-.54-.38-.83-.22-.29.17-.38.54-.21.83v.02Z"/>
        <path class="cls-1" d="M137.98,60.92c2.41,2.89,3.39,6.7,2.67,10.39-.14.76,1,1.09,1.17.33.8-4.11-.3-8.37-3-11.57-.5-.6-1.35.26-.85.85h.01Z"/>
        <path class="cls-1" d="M136.28,67.15c.87,1.07,1.06,2.53.49,3.78-.16.29-.07.65.21.83.29.16.66.06.83-.22.4-.83.55-1.75.45-2.66-.13-.95-.51-1.84-1.12-2.58-.24-.24-.62-.24-.86,0-.22.24-.22.61,0,.85Z"/>
        <path class="cls-1" d="M124.69,48.87c.21.32.46.61.7.92l-.1-.13c.08.09.15.19.21.29.09.13.21.23.36.28.16.04.33.02.47-.06.13-.08.23-.21.28-.36.04-.16.02-.33-.06-.47-.22-.32-.47-.61-.71-.91l.1.12-.19-.29c-.08-.13-.21-.23-.36-.27-.16-.05-.33-.02-.47.06-.14.08-.24.21-.27.36-.05.15-.03.32.06.46h-.02Z"/>
        <path class="cls-1" d="M105.83,61.63c-.74,2.87,1.65,5.15,3.89,6.49.31.11.65-.06.76-.37.08-.22.02-.46-.15-.63-1.74-1-3.92-2.84-3.33-5.13.05-.33-.17-.65-.51-.7-.28-.05-.56.11-.66.38v-.04Z"/>
        <path class="cls-9" d="M92.6,28.61l25.92-.62s-1.17,16.83-16.68,15.89c-12.33-.76-9.24-15.27-9.24-15.27Z"/>
        <path class="cls-24" d="M121.86,2.11c-1.25.29-2.17,1.37-2.25,2.65-.06,1.15.84,1.87,1.52,2.66.82.86,1.38,1.94,1.62,3.11.11,1.1-1.37,2-2,2.7s.33,1.43.86.86c.77-.85,1.8-1.53,2.23-2.64s-.17-2.28-.68-3.23c-.25-.46-.53-.9-.85-1.32-.34-.43-.75-.8-1.09-1.23-.3-.32-.42-.77-.3-1.19.17-.62.68-1.08,1.31-1.2.74-.23.42-1.4-.32-1.17h-.05Z"/>
        <path class="cls-24" d="M114.89,12.18c.95-.62,1.61-1.59,1.86-2.69.07-1.19-.36-2.36-1.18-3.23-.65-.7-1.19-1.49-1.61-2.35-.24-1.04-.02-2.14.61-3,.37-.68-.67-1.29-1-.61-.59.91-.91,1.97-.92,3.05.11.86.45,1.66,1,2.33.76.81,1.39,1.73,1.87,2.73.24,1.08-.25,2.19-1.21,2.74-.61.47,0,1.51.61,1l-.03.03Z"/>
        <path class="cls-24" d="M108.75,9.66c.67-1.12.85-2.48.49-3.74-.23-.63-.51-1.25-.84-1.84-.34-.46-.37-1.07-.07-1.56.44-.65-.61-1.25-1-.61-.38.55-.49,1.23-.31,1.87.23.62.51,1.23.84,1.8.27.53.41,1.12.43,1.71-.04.62-.23,1.22-.54,1.76-.36.69.69,1.3,1,.61Z"/>
      </g>
    </g>
  </g>
  <g id="Layer_1-2" data-name="Layer 1">
    <polygon class="cls-31" points="34.03 100.51 43.93 105.86 50.35 107.29 79.13 106.51 78.49 112.17 75.19 116.14 46.43 116.81 40.95 115.24 33.41 110.29 32.28 104.12 34.03 100.51"/>
    <polygon class="cls-8" points="3.54 53.66 1.39 55.06 1.21 57.48 22.06 57.72 22.98 55.69 20.75 53.4 3.54 53.66"/>
    <path class="cls-28" d="M56.44,87.15l-1.54,3.16s.63,3.71,8.14,4.91c7.51,1.2,7.66-2.45,7.66-2.45l.92-17.12,1.2-2.95-10.54-.5-1.02,8.23-4.37.53-.45,6.21Z"/>
    <path class="cls-7" d="M67.54,73.31l-1.42,21.75s-10.62-.13-11.26-4.48c1.48,0,.97-9.75,1.99-9.26.34.01,3.05,1.63,5.54-8.89.07-.28,5.16.88,5.16.88Z"/>
    <path class="cls-26" d="M56.86,93.47l-2.48-3.19,1.3-1.2.91-7.49s2.43.52,3.77-1.14,1.47-7.9,1.47-7.9l1.17-.09-2.02,22.29-4.12-1.27Z"/>
    <polygon class="cls-5" points="41.63 59.38 40.86 52.54 38.85 48.84 42.26 47.31 45.7 51.53 46.64 59.39 45.81 63.16 42.73 68.79 39.57 69.54 37.12 67.02 40.73 62.82 41.63 59.38"/>
    <polygon class="cls-5" points="22.3 57.94 22.91 54.08 20.88 52.17 25.64 48.91 28.84 52.98 29.32 58.07 27.71 62.21 25.22 63.62 21.93 64.66 19.17 59.6 22.3 57.94"/>
    <path class="cls-22" d="M52.1,71.99l10.5.69-1.34,7.73s-3.02,2.41-8.48-.32c-2.38-3.4-.68-8.1-.68-8.1Z"/>
    <polygon class="cls-32" points="1.22 56.21 22.86 56.47 21.22 58.75 2.4 58.7 1.22 56.21"/>
    <polygon class="cls-32" points="28.36 61.19 29.38 53.73 25.84 48.34 32.03 47.92 37.89 48.37 40.52 51.65 41.33 61.46 38.61 65.98 32.72 67.51 22.98 66.11 28.36 61.19"/>
    <polygon class="cls-34" points="46.05 62.84 46.74 56.06 44.08 47.63 51.94 47.41 55.06 48.8 57.26 55.45 56.87 62.85 54.85 66.92 51.5 69.3 42.48 69.49 46.05 62.84"/>
    <polygon class="cls-5" points="28.19 62.79 41.23 62.89 39.47 64.89 35.67 67.22 23.82 66.81 22.37 64.74 28.19 62.79"/>
    <polygon class="cls-5" points="44.72 65.88 55.37 65.74 52.3 68.74 46.25 70.15 41.4 69.49 44.72 65.88"/>
    <polygon class="cls-8" points="46.04 51.97 56.78 52.1 53.76 47.1 43.7 47.03 46.04 51.97"/>
    <polygon class="cls-8" points="29.34 53.36 40.99 53.7 38.75 49.44 36.96 48.05 26.72 47.5 24.94 49.11 29.34 53.36"/>
    <polygon class="cls-23" points="36.97 91.49 46.94 97.91 53.05 98.97 79.02 98.68 71.42 92.35 69.75 94.45 66.19 95.31 58.06 93.86 54.32 90.04 39.19 90.3 36.97 91.49"/>
    <polygon class="cls-14" points="37.33 91.42 46.54 97.86 53.6 98.71 79.1 98.2 80.23 101.05 78.76 106.71 50.31 106.98 43.46 105.96 33.25 99.83 34.92 92.94 37.33 91.42"/>
    <path class="cls-16" d="M36.7,91.31s7.71,5.23,9.28,5.82c1.79.97,4.18,1.53,6.75,1.6,3.67-.11,26.28-.04,26.28-.04"/>
    <path class="cls-28" d="M56.12,64.56h37.7s.09,6.22-8.66,7.56c-8.75,1.34-32.77-.11-32.77-.11,0,0-3.09.13-3.01-2.22,1.11-.76,4.18-.49,6.75-5.23Z"/>
    <path class="cls-7" d="M55.23,65.97l37.99.75s2.15-3.23.96-9.37-36.63.5-36.63.5c0,0,.52,4.24-2.32,8.12Z"/>
    <path class="cls-26" d="M57.22,59.79l37.3.76s.02-7.13-3.36-9.29c-3.38-2.16-35.61-1.26-35.61-1.26,0,0,2.39,3.26,1.67,9.79Z"/>
    <path class="cls-8" d="M56.38,51.73l36.15.99s-1.6-4.29-8.48-4.79c-6.88-.5-30.32-.67-30.32-.67l2.65,4.47Z"/>
    <line class="cls-20" x1="49.9" y1="52.01" x2="55.8" y2="52.05"/>
    <line class="cls-20" x1="50.79" y1="56.51" x2="56.65" y2="56.57"/>
    <line class="cls-20" x1="50.31" y1="61.26" x2="56.56" y2="61.3"/>
    <line class="cls-20" x1="33.82" y1="53.4" x2="40.19" y2="53.56"/>
    <line class="cls-20" x1="33.99" y1="58.24" x2="40.72" y2="58.37"/>
    <path class="cls-15" d="M76.48,72.52l8.16-.33s10.61-.74,9.84-12.41c-.77-11.66-9.34-11.82-9.34-11.82,0,0-20.79-.6-32.07-.71-11.87-.11-13.65.12-14.05,1.3-2.01-.39-2.79-.28-9.69-.67-7.03-.26-8.88,5.78-8.88,5.78l-16.42-.02s-3.03-.02-2.81,2.57c.21,2.5,2.29,2.34,2.29,2.34,0,0,14.29.37,15.77.38-.15,4.24,2.66,6.3,3.52,6.89,2.15,1.47,5.9,1.47,5.9,1.47l9.73-.09c.98,2.93,4.87,2.84,4.87,2.84,0,0,3.62-.14,5.43-.19,1.15,2.33,3.36,2.16,3.36,2.16,0,0-.15,1.35-.55,5.08-.15,3.81,4.98,3.82,4.98,3.82,0,0-.21,5.54-.35,6.98s-1.18,2.17-1.18,2.17c0,0-11.02.11-15.21.26-4.54-.19-5.62,5.63-5.62,5.63,0,0-1.63,9.18-1.69,10.57s.13,2.33.57,2.93c.41.76,5.49,4.59,8.31,6.05s6.65,1.15,6.65,1.15c0,0,19.25-.22,24.81-.45,5.56-.22,5.75-4.52,5.75-4.52,0,0,.56-3.81,1.2-8.94.64-5.13-6.44-8.36-8.88-10.47"/>
    <path class="cls-18" d="M37.28,48.41s4.51,1.82,4.38,10.39c-.28,8.44-7.82,8.44-7.82,8.44"/>
    <path class="cls-15" d="M52.1,71.99c12.52.77,24.38.53,24.38.53,0,0-4.7-.13-4.86,3.12-.2,4.1-.76,16.48-.76,16.48,0,0-.43,3.07-3.02,3.2-2.59.13-10.51.45-13.28-5.15"/>
    <path class="cls-18" d="M79.25,106.71l-28.33.27s-3.14.14-6.7-1.27c-3.21-1.29-10.67-6.23-10.67-6.23"/>
    <path class="cls-15" d="M20.45,53.66s.08,0,.22.03c3.05.53,2.82,5-.26,5.25-.64.05-1.13,0-1.13,0"/>
    <path class="cls-15" d="M22.97,49.97s5.74-2.07,6.4,5.68c.13,1.55-.04,3.11-.58,4.56-2.29,6.13-8.19,3.43-8.19,3.43"/>
    <line class="cls-15" x1="84.46" y1="55.44" x2="88.81" y2="55.47"/>
    <line class="cls-15" x1="85.2" y1="60.71" x2="89.38" y2="60.72"/>
    <line class="cls-15" x1="83.62" y1="66.11" x2="87.97" y2="66.17"/>
    <path class="cls-15" d="M56.53,80.88l2.92.16s2.02.45,2.11-2.67c.37-2.61.82-5.93.82-5.93"/>
    <path class="cls-15" d="M42.51,47.36s4.19,1.44,4.07,10.78c-.12,9.34-5.5,11.12-5.5,11.12"/>
    <path class="cls-15" d="M53.07,47.25s5.18,3.11,4.14,12.54c-1.37,8.25-4.87,9.86-8.48,10.05"/>
    <line class="cls-19" x1="32.57" y1="62.97" x2="40.7" y2="63.01"/>
    <line class="cls-19" x1="48.88" y1="65.89" x2="55.04" y2="65.82"/>
  </g>
</svg>