<svg xmlns="http://www.w3.org/2000/svg" height="80px" xmlns:xlink="http://www.w3.org/1999/xlink" id="Layer_2" data-name="Layer 2" viewBox="0 0 118.8 102.6"><defs><linearGradient id="linear-gradient" x1="53" x2="53" y1="209.5" y2="175.8" gradientTransform="rotate(-10 -595.7 -20.7)" gradientUnits="userSpaceOnUse"><stop offset="0" stop-color="#dbffff"/><stop offset="1" stop-color="#339ed3"/></linearGradient><linearGradient xlink:href="#linear-gradient" id="linear-gradient-2" x1="-159.2" x2="-159.2" y1="334.1" y2="313" gradientTransform="rotate(-36 -469.6 -112.6)"/><linearGradient xlink:href="#linear-gradient" id="linear-gradient-3" x1="-172.8" x2="-172.8" y1="334.1" y2="313.1" gradientTransform="rotate(-36 -469.6 -112.6)"/><linearGradient xlink:href="#linear-gradient" id="linear-gradient-4" x1="-186.1" x2="-186.1" y1="334.2" y2="313" gradientTransform="rotate(-36 -469.6 -112.6)"/><linearGradient xlink:href="#linear-gradient" id="linear-gradient-5" x1="50" x2="50" y1="117.8" y2="127.3"/><style>.cls-1{fill:#5b2307}.cls-3{fill:#fff}.cls-8{stroke-linecap:round;stroke-linejoin:round;stroke:#4c1a09;fill:none}.cls-12{fill:#a36731}.cls-13{fill:#3c7bd6}.cls-8{stroke-width:.6px}.cls-14{fill:#8e5424}.cls-15{fill:#b7eae8}.cls-16{fill:#4c1a09}.cls-21{fill:#755b46}</style></defs><g id="Layer_1-2" data-name="Layer 1"><path d="M16.6 23A36 36 0 0 0 9 33.3 20.5 20.5 0 0 0 7 46a23.5 23.5 0 0 0 5.9 11.4 33.6 33.6 0 0 0 4.9 4.3c1.7 1.3 3.6 2.4 5.5 3.5-1.9-1-3.8-2.1-5.6-3.4a33.2 33.2 0 0 1-5-4.3A23.8 23.8 0 0 1 6.5 46c-1-4.4 0-9 1.8-13A37 37 0 0 1 16 22.2c.2-.2.6-.2.8 0 .2.2.2.5 0 .7Z" class="cls-1"/><path d="m13 31.4-.7 1a9 9 0 0 0-.6 1l-.7 2.7a12.3 12.3 0 0 1 .6-4c.2-.5.3-1 .7-1.4a.5.5 0 0 1 .7-.1.5.5 0 0 1 0 .7Zm3.6-1.5-.7 1a9 9 0 0 0-.6 1l-.6 2.6a12.3 12.3 0 0 1 .5-4l.7-1.3a.5.5 0 0 1 .7-.1.5.5 0 0 1 .1.7Zm1.7-20.2a5.6 5.6 0 0 0 4.6 2.8H24a2.9 2.9 0 0 0 1.5-1.3 13.6 13.6 0 0 0 1.6-4.3l.7-4.5h.9v2.2A9.7 9.7 0 0 0 30 8.7c.4.7.9 1.2 1.4 1.8a8.3 8.3 0 0 1-2.8-3.6 10.7 10.7 0 0 1-.8-4.6.4.4 0 0 1 .4-.4c.3 0 .5.2.5.5-.1 1.6-.3 3.2-.7 4.8a12.9 12.9 0 0 1-1.8 4.5c-.4.6-1.1 1.3-2 1.5h-1.3a7 7 0 0 1-1.2-.3 5.3 5.3 0 0 1-3.5-3.2Zm-3.6 6.6a15.8 15.8 0 0 1 5.3-.7c.9 0 1.8.1 2.6.4a4.6 4.6 0 0 1 3.3 4.3 3.7 3.7 0 0 1-1 2.7 6.6 6.6 0 0 1-2.4 1.6c-.8.3-1.7.5-2.6.6v-.6l2.8.3 2.8.5h-2.8l-2.9-.1a.3.3 0 0 1-.3-.4c0-.2 0-.3.2-.3 1.7-.4 3.4-1 4.4-2.2.6-.6.8-1.3.8-2 0-.4 0-.8-.2-1.2l-.2-.5-.1-.2-.2-.3a4.2 4.2 0 0 0-1.9-1.4 8.8 8.8 0 0 0-2.4-.6 23 23 0 0 0-5.2 0ZM36.2 2.2a19 19 0 0 0 0 3.8c0 .6 0 1.2.3 1.8l.6 1.8a4.3 4.3 0 0 1-1.4-1.5 5 5 0 0 1-.6-2c0-.7 0-1.4.2-2a4.7 4.7 0 0 1 1-2Z" class="cls-1"/><path fill="#a36731" stroke="#5b2307" stroke-linecap="round" stroke-linejoin="round" stroke-width="1.2" d="M31.5 50.9s-9.2-6.8-7.4-15.9c1-4.6 8.8-8.3 14.7 5.5 4.6 10.8-4.3 12.8-7.3 10.4Z"/><path d="M33.8 33s-3.4 1.4-4 3.2-3.4 2-3.7 2.6 4.7 10.8 9.1 12c4.4 1.1 4.4-6.9 3.5-9.8s-5-8-5-8Z" class="cls-14"/><path d="M73.2 86.5c-19 0-30.3-8.7-32.8-16.9a27.4 27.4 0 0 1-1-9.8c-.5.5-1.1 1.2-1.8 1.2-.9 0-1.4-.8-1.5-2.3a13 13 0 0 1 1.6-6.5c-.8.7-1.5 1.3-2 1.3s-1-.3-1.2-1.4c-.3-2.1 2-4.7 3-5.6-1-1.6-3.7-7.5-4-16.8A29 29 0 0 1 40.8 11c-1.4 0-2.4-.5-2.6-1.2-.3-.8.2-1.5 1.3-2.2 1-.6 2.1-1 3.3-1.4-1.6-.3-1.8-.8-2-1 0-.4 0-1 .6-1.6.8-.7 2-1 3.7-1 1.1 0 2.3.1 3.3.3-.4-.5-.7-1-.6-1.4 0-.4.3-.7.7-.8h.6c1.3 0 3.4 1.3 4 1.8a40 40 0 0 1 8.3-.9c11.4 0 20.8 5.7 27 16.6 3.4 5.8 8.7 7.8 14.8 10.2 6.5 2.5 11.1 7.9 11.5 8.5.2.4.1.7 0 .8-.2.4-.5.4-.7.5 2 2.6 2.9 6.6 2.9 6.7a.8.8 0 0 1-.2.7.9.9 0 0 1-.7.2h-.1c1.5 3 1.9 7 1.2 8-.5.7-2.4 6.2-2.5 6.9 0 1-12.2 23.6-35.7 25.6-2 .2-3.9.2-5.7.2Z" class="cls-12"/><path d="M49 1.2c1.5 0 4 2 4 2A30.2 30.2 0 0 1 88 18.4c3.5 5.9 8.8 8 15 10.4a28.5 28.5 0 0 1 11.3 8.3c.1.3 0 .3-.4.3l-1.5-.2c2.5 2 3.9 7 4 7.7 0 .1 0 .2-.3.2-.5 0-1.6-.5-1.6-.5 2.2 2.7 2.8 7.9 2.2 8.7-.6.8-2.6 6.6-2.6 7.2 0 .6-12 23-35.2 25l-5.6.3c-19.6 0-30-9.4-32.2-16.5-2.3-7.7-.3-14.2-.3-14.2a10.3 10.3 0 0 0-1.4 3.7s-1 1.4-1.7 1.4c-.5 0-.8-.4-1-1.6-.3-3.7 3-8.4 3-8.4-1.7.7-3.2 2.6-4 2.6-.3 0-.5-.3-.6-.9-.3-2.3 3.2-5.4 3.2-5.4s-3.7-6.2-4.2-16.9c-.4-10.7 8.3-19.4 8.3-19.4l-1.3.1c-2.2 0-3.3-1-1.2-2.3a24 24 0 0 1 7.5-2.3h-1c-1.9 0-6.3-.1-4.5-1.8.8-.7 2-.9 3.3-.9 2.5 0 5.3 1 5.3 1s-3-2.4-1.7-2.8h.4M49 0l-.8.1c-.6.2-1 .7-1 1.3V2a16.4 16.4 0 0 0-2.2-.2c-1.8 0-3.1.4-4 1.2-1 1-1 1.8-.8 2.2l.7.9c-.6.2-1.3.5-1.8.9-1.7 1-1.8 2.1-1.6 2.8.1.5.6 1.3 2 1.6a29 29 0 0 0-6.8 18.3 42 42 0 0 0 3.9 16.6c-1.2 1.2-3.1 3.6-2.8 5.8.2 1.7 1.4 1.9 1.7 1.9.3 0 .5 0 .7-.2a11.3 11.3 0 0 0-.8 5c.2 2.3 1.4 2.7 2 2.7.5 0 .8-.2 1.2-.4 0 2.5.2 5.4 1.1 8.6 2.5 8.3 14 17.3 33.4 17.3 1.8 0 3.8 0 5.7-.2A44 44 0 0 0 106 73.5a40 40 0 0 0 9.2-12.9v.1a47 47 0 0 1 2.4-6.6c.8-1 .5-4.8-.9-7.8a1.4 1.4 0 0 0 .8-1.5s-.8-3.6-2.6-6.4c.2 0 .3-.2.3-.4.3-.4.3-1 0-1.4-.7-1.1-5.5-6.3-11.8-8.8-6-2.3-11.2-4.3-14.4-10A31 31 0 0 0 61.4 1c-2.6 0-5.3.3-8 .8-1-.6-3-1.8-4.3-1.8Z" class="cls-1"/><path d="M114 60.6c0-.6 2-6.4 2.6-7.2.6-.8 0-6-2.2-8.7 0 0 2 1 1.9.3-.1-.7-1.5-5.7-4-7.7 0 0 2.3.6 1.9-.1-.5-.8-5-5.9-11.3-8.3-3.2-1.2-6.1-2.4-8.7-4s9.3 6.8 10.4 14.8c1 7.9-3.1 5.5-3.1 5.5L94.3 43s3.3 5.5.2 8.2c-3 2.6-4.4.8-4.4.8s1.8 3.6-2.4 5.4A78 78 0 0 1 66.4 61c-5.4 0-12.6-1-13.9-4.6-1.3-3.6-2.2-4-2.2-4s-3.7 7.6-5 4.4c-1.1-3.2-.6-5.8-.6-5.8s-3.8 3.4-3.6 1.6c0-1.9.7-4 .7-4s-1.9-.5-3.8-1.9c-.7.7-3.2 3.3-3 5.2.4 2.3 2.3-.7 4.6-1.7 0 0-3.3 4.8-3 8.4.4 3.6 2.7.2 2.7.2s.3-2 1.4-3.7c0 0-2 6.5.3 14.3s14.6 18.2 37.8 16.2c23.3-2 35.2-24.4 35.2-25Z" class="cls-14"/><path fill="#bd852d" d="M102.5 59.2c-10.8.6-32.3-3.6-31.7-14.1.6-10.6 9-9.1 9.7-22.1C81 10 66.8 4.9 57 8c-9.8 3.1-13 13.8-13.2 14.6-.3.7-5.1 1.6-7 1.6-2 0-1.6-2.3-1.6-2.4a21.9 21.9 0 0 0-1.2 7.9c.4 10.6 4 17 4 17s-3.4 3-3 5.3c.3 2.3 2.2-.7 4.4-1.7 0 0-3.2 4.7-2.8 8.4.3 3.6 2.6.2 2.6.2s.3-2.1 1.4-3.7c0 0-2 6.5.3 14.2s14.5 18.2 37.8 16.2c19.5-1.6 31-17.7 34.3-23.2-2.4-2.1-6-3.4-10.6-3.2Z"/><path d="M24.1 35s.2-4.5 4-8.5 4.6-5.7 4.6-5.7 1.8-5 3-5.9c1-.8 3.1-1.6 2.5 1.5 0 .2.3.4.4.2.7-.7 1.9-1.7 3-1.9 1.6-.3 2 .5.6 3.4-.2.3.2.7.5.5 1.1-.8 2.6-1.5 3.4-.9 1.7 1.4-1.6 4.7-2.2 6.2-.4 1.1-1.7 1.8-4.5 3.5-3.5 2-5.6 6.2-5.6 6.2s-1.9 5.7-2.6 8.8" class="cls-12"/><path d="M23.5 35a14.8 14.8 0 0 1 3-7.6l1.4-1.6a58.6 58.6 0 0 0 4-5.2l.2-.4.2-.5A48.5 48.5 0 0 1 34 16c.3-.6.6-1.3 1.4-1.8l1-.5c.4-.2.8-.3 1.4-.2.3 0 .6.2.8.5l.4.7V16.5v-.1a.5.5 0 0 0-.1-.3.5.5 0 0 0-.4-.2.6.6 0 0 0-.3 0c0 .1-.1.2 0 .2l.1-.2.4-.4a8 8 0 0 1 1.8-1.2l1.2-.4c.3 0 .8-.1 1.4.2.3.2.6.5.6.8l.1.8-.2 1.1-.4 1-.3.5v.1a.4.4 0 0 0 0-.3c0-.1-.2-.2-.5-.2 0 0-.2.1 0 0l.2-.1 1-.6c.6-.2 1.3-.6 2.3-.4a1.9 1.9 0 0 1 1.2 1c.2.5.2 1 .1 1.4-.1.8-.5 1.5-.8 2L45.3 23l-.6.8a2.6 2.6 0 0 0-.2.4v.2l-.2.3c-.5.7-1 1.1-1.6 1.5l-3.4 2a16 16 0 0 0-5 5.7h.1c-1 2.8-2 5.7-3.2 8.6a66 66 0 0 1 2-9v-.1c1.4-2.4 3-4.6 5.4-6.2 1.1-.8 2.3-1.4 3.3-2a4.1 4.1 0 0 0 1.3-1.4l.1-.2c0-.2.2-.3.3-.5l.5-.9c.4-.5.8-1 1-1.6.4-.5.7-1 .8-1.5a.9.9 0 0 0 0-.6.5.5 0 0 0-.3-.2c-.3-.1-1 0-1.4.3l-.8.5-.2.1-.1.1a1.1 1.1 0 0 1-1.6-.6 1 1 0 0 1 0-.7v-.2l.1-.1.2-.5.4-.8.2-.8v-.2h-.5l-.7.3c-.5.2-1 .6-1.5 1l-.3.3-.2.1-.3.3a1 1 0 0 1-.4 0 1 1 0 0 1-.8-.3 1 1 0 0 1-.2-.9v-.4a2.4 2.4 0 0 0 0-.7v-.1c-.2-.1-.8.1-1.3.5-.3.2-.6.7-1 1.3a22.8 22.8 0 0 0-1.5 3.5l-.2.4-.2.6-.5.9a29.2 29.2 0 0 1-2.5 3.2L27.7 28a14.5 14.5 0 0 0-3 6.9.6.6 0 0 1-.6.6.6.6 0 0 1-.6-.7Z" class="cls-1"/><path fill="none" stroke="#5b2307" stroke-linecap="round" stroke-linejoin="round" stroke-width="1.2" d="M51.2 33.4s1.7.6 3.8 2"/><path fill="#91682c" d="m81.4 85.3 1.4-.2.7-.1a42.9 42.9 0 0 0 1.8-.5l1.3-.3.6-.2 1.5-.6h.2l1.7-.7.5-.2 1.1-.6.6-.2 1-.6.6-.3 1-.6.5-.2 1.3-.8.1-.1 1.4-1 .3-.2 1-.8.4-.3a30.8 30.8 0 0 0 1.3-1l.9-.8.3-.3 1-.8.2-.2 1-1 .2-.2.8-.9.3-.3.7-.7.3-.4.6-.7.3-.3.6-.7.2-.3.7-.9.2-.3.5-.6.3-.4.3-.4.3-.4.3-.4.2-.4.2-.4.3-.4.7-1.1c-2.3-2.2-6-3.5-10.5-3.3a59.2 59.2 0 0 1-15.8-1.6A80.9 80.9 0 0 1 66.4 61c-5.3 0-12.5-1-13.9-4.6-1.3-3.6-2.1-4-2.1-4s-3.8 7.6-5 4.4c-1.2-3.2-.7-5.8-.7-5.8S41 54.5 41 52.7c0-1.9.7-4 .7-4s-1.9-.5-3.8-1.9l-.1.2h-.1l-.2.2-.2.2-.2.3H37l-.2.3-.1.1-.2.3-.1.1-.2.3h-.1l-.5 1-.2.4-.1.1-.1.3v.2l-.2.2v1c.3 2.3 2.2-.7 4.5-1.7 0 0-3.3 4.8-3 8.4.5 3.6 2.7.2 2.7.2s.3-2 1.5-3.7c0 0-2.1 6.5.2 14.3s14.6 18.2 37.8 16.2a42.1 42.1 0 0 0 2-.3h.7Z"/><path d="M54.1 98.5a1 1 0 0 1-1-.8c-.1-1 .9-2.2 2-3.3l-3.9 1.4-4.3 1.6a2.7 2.7 0 0 1-.8.1c-.9 0-1.6-.5-1.8-1.2-.3-.8 0-1.6.8-2.2.7-.5 2.4-1.3 4.3-2.2-2.8-.3-4-.8-4.1-1.7 0-1 1.3-1.6 2.7-1.9 2.3-.4 8.2-.4 8.5-.4h.9c1.8 0 8 .1 8.4 2.1.2 1.3-1.7 2.4-3.9 3.7a47 47 0 0 0-3.2 2.2c-2.2 1.6-3.7 2.6-4.6 2.6Z" class="cls-21"/><path d="M57.4 88.5c3.8 0 7.5.6 7.8 1.6.2 1.1-3.4 2.8-5.3 4.1-1.6 1.1-4.7 3.7-5.8 3.7-.2 0-.3-.1-.4-.3-.2-1.4 4-4.8 4-4.8-2.7.8-9.2 3.4-11 4l-.6.1c-1.3 0-1.8-1.4-.6-2.3 1.4-1 8.9-4.2 8.8-4.2a405 405 0 0 0-4 1c-6.4-.4-4.6-2-2.2-2.4 2.3-.5 8.4-.5 8.4-.5h.8m0-1.2h-.9c-.2 0-6.1 0-8.5.5-2.1.3-3.3 1.2-3.2 2.4 0 1.1 1.1 1.7 2.6 2a19.4 19.4 0 0 0-2.5 1.4c-1 .8-1.4 2-1 3A2.4 2.4 0 0 0 46 98l1-.1 4.3-1.6 1.8-.7c-.5.8-.8 1.5-.7 2.1.2.8.8 1.3 1.6 1.3 1.1 0 2.6-1 5-2.7a31.7 31.7 0 0 1 3.2-2.2c2.5-1.4 4.4-2.6 4-4.3-.4-2.1-5.1-2.6-9-2.6Z" class="cls-16"/><path d="M47.5 92.8s2.2.9 1.7 3.5m2.1-4.9s3.2-.2 2.8 3m-4.8-6s1.5 1 .5 3.3m5.8 2.3s2.2-.4 2.8 2.1m-5-8c0 .1 1.6.2 1.6 2 0 0 2.9-.4 3.3 2 0 0 2.8-.5 3.2 1.7" class="cls-8"/><path d="M78.4 102c-.6 0-1-.3-1.2-.8-.8-1.7 1.9-4.8 4-6.9l-1.9.7a20 20 0 0 1-4.2 1.1c-.6 0-.8-.3-.8-.5-.2-.5.3-1 1-1.5 3-2.3 10.6-4.9 11.4-5.2A37 37 0 0 1 97 84.6c.5 0 1 .2 1.2.5.2.3.3.7.1 1.2-.7 2.6-5 12.5-8.1 12.5H90c-.7 0-1-.5-1.2-.8-.4-.8-.1-2.1.3-3.3l-.9.7c-4.3 3.6-8 6.6-10 6.6Z" class="cls-21"/><path d="M97 85.2c.7 0 1 .3.8 1-1 3.4-5.2 12-7.5 12H90c-2.3-.3.8-5.6.8-5.6-1.8 1.2-10 8.8-12.5 8.8-.3 0-.6-.1-.7-.4-1-2.4 6.4-8.4 6.4-8.4l-2.1 1c-1.7.3-5.8 2-7 2-.3 0-.3-.3.6-1 3.1-2.4 11.3-5.1 11.3-5.1s7.6-4.3 10.2-4.3m0-1.2a36 36 0 0 0-10.7 4.4c-1 .3-8.5 2.9-11.5 5.2-.6.5-1.5 1.2-1.2 2.2 0 .2.4 1 1.4 1 .7 0 2-.5 4-1.1-1.8 2-3.2 4.2-2.5 5.8.3.7 1 1.1 1.8 1.1 2 0 5.4-2.6 9.7-6.2 0 .7 0 1.3.2 1.8.3.7 1 1.1 1.7 1.2h.3c3.6 0 8-10.6 8.7-12.9.3-.9 0-1.4-.2-1.8-.3-.3-.8-.7-1.7-.7Z" class="cls-16"/><path d="M78 98.1s3.4-1 4.4 2m-1.8-5.2s5.6-2.2 6.5 1.5m-9.3-3.8s1.3.8.7 2.5m10.4.4s2.6-2.6 5.4-1m-11-3.7s1.4-.5 2 .8c0 0 4-1.8 6.2-.1 0 0 3.4-3 5.4-1.4" class="cls-8"/><path d="M63.8 90.2c-1.7 0-3.4-.4-5-1.1-6.2-3-5.9-10-5.9-10a.6.6 0 0 1 .6-.6h1.1c8.6 0 17.3 8 17.6 8.4a.6.6 0 0 1 .2.5.6.6 0 0 1-.3.5c-.1 0-3.8 2.3-8.2 2.3Z" class="cls-15"/><path d="M54.6 79c8.5 0 17.2 8.4 17.2 8.4s-3.6 2.2-8 2.2c-1.5 0-3-.3-4.6-1-6-3-5.7-9.5-5.7-9.5a13 13 0 0 1 1.1 0m0-1.2h-1.2a1.2 1.2 0 0 0-1 1.2c0 .3-.4 7.4 6.2 10.5a11.9 11.9 0 0 0 5.3 1.2c4.6 0 8.4-2.3 8.6-2.4a1.2 1.2 0 0 0 .2-2c-.4-.3-9.2-8.5-18-8.5Z" class="cls-13"/><path d="M72.8 88.2a51.6 51.6 0 0 1-11-1c-10.2-2.3-12.7-4.4-14.2-5.6a6.8 6.8 0 0 0-.8-.6c-1.3-.7-1.8-2-2.2-2.7l-.3-.5-.1-.1c-2.8-1.8-4.4-3.9-4.8-6.2 0-.6-.2-1.3-.4-2-.5-2.6-1-5.4 0-6.8a2.1 2.1 0 0 1 1.8-.7h.4c.3 0 .5.2.5.5.1.8.7 2.9 2 3.5 1.8 1 5.6 2.3 7.9 2.3h.9c1.7-.6 1.6-1 1.5-1.8-.2-1-.2-3.6 1.6-4.5l1-.2c1.1 0 1.7.9 2 1.3v.1l.6.1c.7.3 2 .6 3.2 1.5 1.5 1.2 4.8 2.7 6.7 3.2l1.4.2h.6l-.1-1.3c-.2-2.2-.2-2.8.2-3.2l.3-.4c.6-.5.9-.9 1.3-.9s.6.1 1.8 2a3.3 3.3 0 0 1 2.9-.7c1.4.3 4 .7 5.3.7h.4a52.7 52.7 0 0 1 6.9-1l.5.1c1 .3 2 .6 2.6.6.7-1.7 1.6-3.5 2.7-4l1.5-.6c.1-1.4.1-3.5-.3-4.2-.7-1.4-1.7-3.3-.5-4.7a2 2 0 0 1 1.6-.8c1.5 0 3 1.4 3.5 1.9 1.3 1.3 2 2 2 3-.1.4 0 1.8.2 2.9h.1c1 0 3-.2 5.2-1-.2-.9-.3-2.4.8-3a5.7 5.7 0 0 1 2.6-.9l.5.1.3.2c-1-3.9-.6-4.3-.3-4.4.2-.2.6-.3 1-.3.5 0 1.2.2 2 .7.8.6 2 2 2 3s-.7 3-1.4 4.5a7.2 7.2 0 0 0-.5 4.2c.2 1.2-1 2.5-1.8 3.5-.3.3-.7.8-.7 1-.1 0-7 15.3-14.9 19.8-3.2 1.9-6 2.8-8.3 2.8-1.9 0-3-.7-3.4-1.1a68.3 68.3 0 0 1-14.4 1.5ZM58.4 66.4a.9.9 0 0 0-.7.3c-.2.3-.3.6-.2 1 .3 1.6 1.5 4.5 2.8 4.5h.3c.7-.3 1.2-1 1.2-1.8 0-1.2-.7-2.8-3-3.9a1 1 0 0 0-.4 0Z" class="cls-15"/><path d="M114 48.9c.5 0 1.2.2 1.8.6.8.6 1.8 1.8 1.8 2.5s-.7 2.7-1.4 4.2a7.8 7.8 0 0 0-.6 4.6c.2 1.3-2.2 3.3-2.5 4-.3.8-7 15.4-14.6 19.7-3.6 2-6.2 2.7-8 2.7-1.9 0-2.8-.7-3.2-1.2 0 0-6.4 1.6-14.5 1.6-3.4 0-7.1-.2-10.8-1-12.5-2.8-13.3-5.2-15-6.1-1.5-1-1.9-3-2.3-3.2-.5-.3-4.2-2.4-4.7-6-.6-3.3-2.3-8.7.8-8.7h.3s.5 3 2.3 4c1.6.7 5.6 2.3 8.2 2.3l1-.1c2.3-.7 2.1-1.6 2-2.4-.2-.9-.2-3.2 1.3-3.8l.7-.2c1 0 1.4 1 1.6 1.2.3.3 2.2.4 3.9 1.7 1.6 1.3 5 2.8 6.8 3.3l1.6.2c.8 0 1.2-.3 1.2-.7 0-.8-.4-3.6-.1-4 .3-.2 1-1 1.2-1 .3 0 1.8 2.3 1.8 2.3s.7-1.2 2.2-1.2h.6a37.7 37.7 0 0 0 6 .7 52.7 52.7 0 0 1 7-.8c.6.2 2.2.6 3 .6h.2c.2-.4 1.3-3.5 2.6-4a80 80 0 0 0 1.8-.8s.4-3.7-.3-5c-.7-1.2-1.6-2.8-.6-4 .3-.3.7-.5 1-.5 1 0 2.3.8 3.2 1.7 1.3 1.3 1.9 1.8 1.8 2.6-.1.7.3 3.4.3 3.4h.7c1 0 3.3-.1 6-1.2 0 0-.9-2.2.2-2.9a5 5 0 0 1 2.3-.7h.3l1.5.8s-1.5-4.7-1-5.1a1 1 0 0 1 .7-.2m-53.8 24 .5-.1c2.3-.7 2.6-4.8-1.7-6.7l-.7-.2c-1 0-1.7.8-1.5 2 .3 1.4 1.5 5 3.5 5M114 47.6c-.5 0-1 .2-1.3.5-.5.3-1 .7-.2 4-.7 0-1.8.3-2.9.9-1 .7-1.3 2-1.1 3.2-1.7.6-3.2.7-4.1.8-.2-1-.3-1.9-.2-2.2.2-1.3-.7-2.1-2.1-3.6-.7-.6-2.3-2-4-2a2.6 2.6 0 0 0-2 1c-1.5 1.8-.3 4 .4 5.3.3.5.4 2.1.3 3.6l-1.2.5c-1.2.5-2 2.1-2.9 3.9l-2-.5a2.5 2.5 0 0 0-.7-.1 52 52 0 0 0-7 .9h-.3c-1 0-3.5-.4-5.2-.7a3.9 3.9 0 0 0-2.8.5c-1.1-1.7-1.4-1.7-1.8-1.8h-.2c-.7 0-1.1.5-1.7 1.1l-.3.4c-.7.6-.6 1.5-.4 3.6v.7a5.4 5.4 0 0 1-1.2-.2c-1.7-.4-5-1.9-6.4-3a8.9 8.9 0 0 0-3.8-1.7c-.3-.5-1-1.5-2.4-1.5a3 3 0 0 0-1.2.3c-2.1 1-2.3 3.7-2 5 .1.6.1.8-1 1.1h-.8c-2.3 0-6.1-1.4-7.6-2.1-1-.5-1.5-2.3-1.6-3a1.2 1.2 0 0 0-1-1.1 4.3 4.3 0 0 0-.6 0 2.8 2.8 0 0 0-2.2 1c-1.3 1.5-.7 4.4-.1 7.3l.3 1.9c.4 2.5 2.1 4.7 5 6.6l.3.3c.3.8 1 2.2 2.4 3l.7.6c1.6 1.2 4.2 3.4 14.5 5.6a67.7 67.7 0 0 0 25.2-.4 5.7 5.7 0 0 0 3.6 1c2.4 0 5.3-.9 8.6-2.8 8.2-4.6 15-20 15.1-20.1 0-.2.4-.5.7-.8 1-1.2 2.1-2.6 1.9-4a6.7 6.7 0 0 1 .4-3.9c.8-1.4 1.6-3.6 1.6-4.7 0-1.3-1.4-2.9-2.4-3.5a4.6 4.6 0 0 0-2.4-.9Zm-53.7 24c-.8 0-2-2.3-2.3-4V67h.5c2 .9 2.7 2.3 2.7 3.3 0 .5-.3 1-.8 1.2h-.1Z" class="cls-13"/><path fill="url(#linear-gradient)" d="M113.5 49c-.6.4.9 5.2.9 5.2l-1.5-.9c-.3 0-1.5 0-2.6.8-1.1.6-.3 2.8-.3 2.8a16 16 0 0 1-5.8 1.3s1.2 3.8 0 6.3-12.3 6.5-16.4 10c-4 3.3-16.4 4-25.5 2.4-9.1-1.6-13.5-3.3-15.4-9a33.6 33.6 0 0 1-3.5-1.4c-1.8-.8-2.3-4-2.3-4-3.6-.3-1.7 5.4-1.1 8.9.5 3.5 4.2 5.6 4.7 5.9.4.3.8 2.2 2.4 3.2 1.6.9 2.4 3.3 14.9 6 12.5 2.8 25.3-.5 25.3-.5.7.9 3.6 2.8 11.2-1.5s14.3-18.9 14.6-19.6c.3-.8 2.7-2.8 2.5-4a7.8 7.8 0 0 1 .6-4.7c.7-1.5 1.4-3.5 1.4-4.2 0-.7-1-2-1.8-2.5-.9-.5-1.8-.9-2.3-.5Z"/><path d="M114 49.5c.4 0 .9.2 1.5.5.7.5 1.5 1.7 1.5 2 0 .5-.6 2.4-1.4 3.9a8.5 8.5 0 0 0-.6 5c.1.6-1 1.8-1.5 2.5l-1 1.2c0 .2-6.7 15-14.2 19.4-3.1 1.7-5.7 2.6-7.7 2.6s-2.7-.8-2.8-1a.6.6 0 0 0-.5-.2h-.1A65.1 65.1 0 0 1 72.8 87c-3.8 0-7.4-.3-10.6-1-10-2.2-12.4-4.2-13.8-5.3a7.2 7.2 0 0 0-1-.8 4.6 4.6 0 0 1-1.7-2.1c-.2-.5-.4-.8-.7-1l-.1-.1c-2.5-1.6-4-3.5-4.3-5.4 0-.6-.2-1.3-.4-2-.4-2.2-1-4.9-.2-5.8 0-.1.3-.3.7-.3.2 1 .8 3 2.5 3.9a25 25 0 0 0 8.4 2.4c.5 0 .9 0 1.2-.2 2.6-.7 2.6-2 2.4-3-.1-.8-.1-2.7 1-3.2h.5c.4 0 .6.2.9.6l.2.3c.2.3.6.4 1 .5a7 7 0 0 1 2.9 1.3c1.7 1.4 5.4 3 7.1 3.3l1.8.3c1.6 0 1.7-1 1.7-1.3v-1.3l-.2-2.3.4-.3.3-.4 1.3 2 .5.2c.2 0 .4-.1.5-.3a2.2 2.2 0 0 1 2.1-.8 39.1 39.1 0 0 0 6.3.6c.7-.2 5.2-.8 6.6-.8h.2c.5.1 2.2.6 3 .6.2 0 .6 0 .8-.4l.2-.4c.3-.7 1.3-3 2.1-3.3l1.9-.8a.6.6 0 0 0 .3-.5c0-.4.3-3.9-.4-5.3-.8-1.4-1.3-2.5-.7-3.3.2-.2.4-.3.7-.3.7 0 1.7.6 2.6 1.5 1.2 1.1 1.7 1.7 1.7 2-.2.8.2 3.2.3 3.7a.6.6 0 0 0 .5.5h.8c1.1 0 3.4-.1 6.1-1.2a.6.6 0 0 0 .4-.8c-.2-.5-.5-1.8 0-2.2a4.5 4.5 0 0 1 2-.6l1.5.8a.6.6 0 0 0 .3 0 .6.6 0 0 0 .6-.7c-.6-1.8-1-3.9-1-4.6m-53.7 24 .7-.1c1.1-.4 2-1.5 2-2.8.1-1.6-.8-3.8-3.7-5-.3-.2-.6-.3-1-.3a2 2 0 0 0-1.5.8 2.3 2.3 0 0 0-.5 1.9c.3 1.4 1.6 5.5 4 5.5M114 48.8a1 1 0 0 0-.5.2c-.6.4 1 5.2 1 5.2l-1.6-.9a.7.7 0 0 0-.3 0 5 5 0 0 0-2.3.7c-1 .7-.3 3-.3 3a16 16 0 0 1-6 1.2h-.6s-.4-2.8-.3-3.5c0-.7-.5-1.3-1.8-2.6-1-1-2.1-1.7-3.1-1.7-.5 0-.8.2-1.1.5-1 1.2-.1 2.8.6 4 .7 1.3.3 5 .3 5l-1.8.8c-1.3.5-2.4 3.6-2.6 4h-.3c-.7 0-2.3-.4-2.9-.6a1.5 1.5 0 0 0-.3 0c-1.4 0-6 .6-6.7.8a2.3 2.3 0 0 1-.6.1 37.7 37.7 0 0 1-6-.8c-1.5 0-2.2 1.2-2.2 1.2S73 63.1 72.8 63c-.2 0-.9.9-1.2 1.2-.3.3.1 3.1 0 3.9 0 .5-.3.7-1 .7-.5 0-1 0-1.7-.2-1.7-.5-5.2-2-6.8-3.3-1.7-1.3-3.6-1.4-3.9-1.7-.2-.2-.6-1.2-1.6-1.2-.2 0-.4 0-.7.2-1.5.7-1.5 3-1.3 3.8.1.8.3 1.7-2 2.4a3.8 3.8 0 0 1-1 .1c-2.6 0-6.6-1.6-8.2-2.3-1.8-1-2.3-4-2.3-4h-.3c-3.1 0-1.4 5.4-.8 8.8.5 3.5 4.2 5.6 4.7 5.9.4.3.8 2.2 2.4 3.2 1.6.9 2.4 3.3 15 6a65.3 65.3 0 0 0 25.3-.5c.2.5 1.2 1.2 3.1 1.2 1.8 0 4.4-.6 8-2.7 7.6-4.3 14.3-18.9 14.6-19.6.3-.8 2.7-2.8 2.5-4a7.8 7.8 0 0 1 .6-4.7c.7-1.5 1.4-3.5 1.4-4.2 0-.7-1-2-1.8-2.5a3.6 3.6 0 0 0-1.8-.6Zm-53.7 24c-2 0-3.1-3.7-3.4-5-.2-1.2.6-2 1.5-2 .2 0 .5 0 .7.2 4.3 1.9 4 6 1.7 6.7a1.7 1.7 0 0 1-.5 0Z" class="cls-15"/><path d="M104.8 58.1h-1.4s-.5-2.7-.4-3.4c.1-.7-.4-1.3-1.7-2.6-1.3-1.3-3.3-2.3-4.3-1.2-1 1.2 0 2.8.6 4 .7 1.3.4 5 .4 5l-1.8.8c-1.3.5-2.4 3.7-2.6 4-.2.3-2.5-.4-3.2-.6-.6-.2-6.3.6-7 .8-.9.3-4.3-.3-6-.6-2-.4-2.9 1-2.9 1S73 63.2 72.8 63c-.2 0-1 .9-1.3 1.2-.3.3.2 3.1.1 3.9 0 .7-1 .9-2.7.5-1.8-.5-5.3-2-6.9-3.3-1.6-1.3-3.5-1.4-3.8-1.7-.3-.3-.9-1.7-2.4-1-1.4.6-1.4 3-1.3 3.8.2.8.4 1.7-1.9 2.4-2.3.6-7.4-1.4-9.2-2.3-1.9-.8-2.3-4-2.3-4l-.8.1c.2 6.5 10 6.9 11.2 7.2 1.2.2 3.4-1.6 3.4-1.6s.4-3.7 1.4-4.3c1-.6 1.8 1.2 2.4 1 .7 0 4.7 2 7.2 3.7s6.5 1.3 6.5 1.3l.9-3.3c.3-1.4 3 .4 3.3.3.3 0 1.5-1 3-.3 1.5.6 5-.7 7.8-1 2.8-.1 6.6.9 6.6.9l2-3.3c.8-1.6 3-1.8 3-1.8s.3-5.3-.3-6.9c-.7-1.6-1.2-4 1.1-2.5 2.4 1.5 2.4 7 2.4 7l2.6-.9Z" class="cls-3"/><path fill="#b7eae8" stroke="#3c7bd6" stroke-linecap="round" stroke-linejoin="round" stroke-width="1.2" d="M100.7 43.5c-1.5.2-3.8.1-3.9.7 0 .5 4.4 3.8 5.5 4.5 1 .7 3.8-.4 3.5-2.2-.3-1.8-2.5-3.5-5-3Z"/><path d="M104.3 46c0 .5-.8.6-1.6.4-.8-.2-1.4-.7-1.2-1.1 0-.4.8-.6 1.6-.4.8.3 1.3.8 1.2 1.2Z" class="cls-3"/><path fill="#a18f70" d="M6 71.3a.6.6 0 0 1-.4-.2.6.6 0 0 1 0-.8 156.6 156.6 0 0 1 43-35.5.6.6 0 0 1 .7 0l.3.6c0 1.7-3.6 6.8-4.3 7.8a.7.7 0 0 1-.2.2C34.8 47.6 6.7 71 6.4 71.2a.6.6 0 0 1-.4.1Z"/><path d="M49 35.4c0 1.6-4.2 7.5-4.2 7.5C34.4 47 6 70.7 6 70.7c17.4-21.9 43-35.3 43-35.3m0-1.3-.6.2C47.4 34.8 22.2 48.4 5 70a1.2 1.2 0 0 0 .1 1.6 1.2 1.2 0 0 0 1.7 0C7 71.4 35.2 48.1 45.3 44l.5-.5c1.3-1.8 4.2-6 4.4-8v-.1A1.2 1.2 0 0 0 49 34Zm0 2.5Z" class="cls-1"/><path fill="#d2001e" stroke="#5b2307" stroke-linecap="round" stroke-linejoin="round" stroke-width="1.2" d="M6 70.7s15.2-21.4 37.9-35.3h5S20.4 55 6 70.7Z"/><path fill="url(#linear-gradient-2)" d="M42 69.2c-.6 0-1.6-1.2-4.3-5.2l-1-1.4-.8-.6c-.5-.3-1-.6-1.3-1-.2-.6-3.5-5.1-5.7-8l-.2-.3.2-.2c1-1.3 3.7-2.7 3.8-2.7l.3-.1.1.2 3.5 6.6c.6 1 .7 1.8.8 2.4.1.5.2 1 .5 1.4 0 0 5.3 8 4.3 8.8l-.2.1Z"/><path d="m32.9 50 3.5 6.6c1 1.8.5 2.9 1.2 3.8.7 1 5 8 4.4 8.5-.8 0-4.6-6-5-6.5-.6-.5-1.8-.9-2-1.6l-5.9-8c1-1.3 3.8-2.7 3.8-2.7m.2-.8-.5.2c-.1 0-2.9 1.5-4 2.9l-.3.3.3.4c2.1 2.8 5.5 7.4 5.8 8 .2.5.8.9 1.3 1.2l.8.5c0 .2.5.8 1 1.4 3 4.5 3.8 5.3 4.5 5.3a.7.7 0 0 0 .4-.2c.5-.4.6-.9-1.6-4.8a66.9 66.9 0 0 0-2.7-4.4l-.4-1.3a7 7 0 0 0-.8-2.5l-3.5-6.5-.3-.6Z" class="cls-13"/><path fill="url(#linear-gradient-3)" d="M30.6 76.8c-.4 0-1-.3-2.8-2.6a56.8 56.8 0 0 0-3.4-4c-.7 0-1.6-1-2.7-2.5a142.5 142.5 0 0 0-5-5.5l-.2-.2.2-.2c.8-.9 5-5.2 6.2-5.2.3 0 .5.2.6.4.1.6 1.7 3.2 3 5.5 3.2 5 3.1 5 2.8 5.3H29c-.4 0-1-.5-2-2l-.5-.4-3-2.8a42.3 42.3 0 0 0 2.2 3.4c.8 1 2 3.8 2 4 0 .2.6 1.2 1.3 2.2 2.2 3.7 2.4 4.1 2 4.4a.6.6 0 0 1-.4.2Z"/><path d="m23 57 .2.1c.3 1.3 6.2 10.3 6 10.5H29c-.4 0-1.7-1.7-2.3-2.3a110.1 110.1 0 0 0-4.4-4.1s2.3 4.2 3 5c.8 1 1.7 3 2 3.9.3.8 3.8 6 3.5 6.4a.3.3 0 0 1-.2 0c-.5 0-1.2-.6-2.6-2.5-1.7-2.2-3.6-4.1-3.6-4.1-.6 0-1.6-1.1-2.6-2.4-1-1.4-5-5.5-5-5.5s4.9-5 6-5m0-.6c-1.3 0-5 3.6-6.4 5.2l-.4.4.4.4s3.9 4.2 5 5.5c1.3 1.8 2.1 2.5 2.8 2.6.5.5 2 2.1 3.3 3.9 1.8 2.3 2.5 2.8 3 2.8a.9.9 0 0 0 .7-.3c.5-.5.3-1-2-4.8L28 69.9c-.1-.3-1.2-3-2-4a18 18 0 0 1-1.1-1.7l1.5 1.5.3.4c1.3 1.6 1.9 2.1 2.4 2.1l.4-.1c.6-.4.5-.5-2.6-5.7-1.3-2.2-3-4.9-3.1-5.4a.8.8 0 0 0-.9-.6Z" class="cls-13"/><path fill="url(#linear-gradient-4)" d="M18.7 81c-.4 0-1.2-.8-3.9-3.8l-2.7-3C10 72.5 7.8 70 7.8 70l-.2-.2.1-.2c.6-1 2.5-4 3.5-4l.4.2c.6.5 1.5 2.8 2.6 5.6l.6 1.5 2 3.4c2.3 3.9 2.4 4.2 2.1 4.5v.1h-.2Z"/><path d="M11.2 66h.2c.7.7 2.4 5.4 3.1 7 .7 1.6 4.5 7.3 4.2 7.6-.6 0-4.6-4.7-6.4-6.6-2-1.8-4.3-4.3-4.3-4.3s2.3-3.7 3.2-3.7m0-.6c-1 0-2.6 2.2-3.7 4l-.3.4.4.4 4.3 4.3c.7.6 1.7 1.8 2.7 2.9 3 3.4 3.6 3.9 4 3.9h.3l.3-.2c.4-.5.3-1-2.2-4.9a43.8 43.8 0 0 1-2-3.4l-.5-1.5c-1.2-2.9-2-5.1-2.7-5.7a.9.9 0 0 0-.6-.2Z" class="cls-13"/><path d="m32.6 50.9 3.2 6c.5.9.6 1.5.7 2.1.1.6.2 1.2.6 1.8.6.8 2.3 3.6 3.4 5.7l-2-3a21.3 21.3 0 0 0-1.1-1.5 4.1 4.1 0 0 0-1-.7c-.4-.3-.8-.5-1-.8-.2-.6-4.2-6-5.5-7.7.7-.7 2-1.5 2.7-2m.3-.8S30 51.4 29 52.7c0 0 5.5 7.4 5.8 8 .3.8 1.5 1.2 2 1.7.5.6 4.3 6.5 5 6.5h.1c.6-.5-3.7-7.5-4.4-8.5-.7-1-.2-2-1.2-3.8L32.9 50Zm-10.2 7.6c.4 1 1.5 2.7 3.1 5.4l.7 1.2a149.7 149.7 0 0 0-3.7-3.4l-2-1.7c.8-.7 1.5-1.3 2-1.4m-2.2 1.6 1.2 2.2c.1.2 2.4 4.2 3.2 5.1.6.8 1.5 2.8 1.8 3.7.1.4.6 1.1 1.4 2.4l1.2 2-.8-1a53 53 0 0 0-3.6-4.2l-.2-.3h-.3c-.2 0-.7-.3-2.1-2L17.7 62c1-1 2-2 2.9-2.7m2.3-2.3c-1.1 0-6 5-6 5s4 4.1 5 5.5c1 1.3 2 2.4 2.5 2.4h.1s1.9 1.9 3.6 4.1c1.4 1.9 2.1 2.6 2.6 2.6l.2-.1c.3-.4-3.2-5.6-3.5-6.4-.3-.8-1.2-3-2-3.9a70.1 70.1 0 0 1-3-5s3.8 3.4 4.4 4c.6.7 1.9 2.4 2.3 2.4.3-.2-5.6-9.2-6-10.5L23 57Zm-11.8 9.7a40 40 0 0 1 2.2 5l.6 1.5a39 39 0 0 0 2.1 3.6l.6 1-1.1-1.2a82.5 82.5 0 0 0-2.8-3l-4-4a13.8 13.8 0 0 1 2.4-3m0-.6c-.8 0-3.1 3.8-3.1 3.8l4.3 4.3c1.8 1.8 5.8 6.6 6.4 6.6.3-.4-3.5-6.1-4.2-7.7-.7-1.6-2.4-6.3-3.1-7a.3.3 0 0 0-.2 0Z" class="cls-3"/><path d="M33.3 55.4c.4.6.5 1.2.1 1.5s-1 0-1.4-.6c-.4-.6-.5-1.3-.1-1.5.3-.3 1 0 1.4.6ZM22 64.5c.6.9.8 1.8.5 2-.4.3-1.2-.1-1.8-1-.6-.8-.8-1.7-.4-2 .3-.3 1.1.2 1.7 1Z" class="cls-3"/><path fill="#ceb891" d="M1.2 63a.6.6 0 0 1-.5-1c14-18.7 40.9-30.8 41.2-30.9a.7.7 0 0 1 .2 0c5.2.1 9 2.1 9.1 2.2.2.1.4.4.3.6s-.1.4-.3.5A193 193 0 0 0 1.6 63a.6.6 0 0 1-.4.1Z"/><path d="M42.1 31.7c5.1.1 8.9 2.2 8.9 2.2A191.7 191.7 0 0 0 1.2 62.4c14.1-18.8 41-30.7 41-30.7m0-1.3-.6.1C40.6 31 14.4 42.8.2 61.8A1.2 1.2 0 0 0 2 63.3 192 192 0 0 1 51.4 35c.4-.2.7-.6.8-1 0-.5-.2-1-.7-1.2-.1 0-4-2.2-9.3-2.3Z" class="cls-1"/><path d="m48.6 34.7 2-1a21.7 21.7 0 0 0-8.5-2S15.3 43.6 1.2 62.4c8.3-10.3 32.3-24.6 36.9-27.3 4.6-2.7 10.5-.4 10.5-.4Z" class="cls-3"/><path fill="url(#linear-gradient-5)" d="M68.6 10c-1.3 0-2.2-1.2-3-2l-.5-.7L65 7c-.6-.7-1.4-1.5-3-1.5h-.2c-.8 0-1.9.2-2.9.4s-2 .4-2.9.4a3 3 0 0 1-1-.2 2 2 0 0 1-1.4-1.7c0-.8.2-1.8.7-2.2A12 12 0 0 1 62.9.8a3 3 0 0 0 .8 0H66l2.7-.2h.4c2 .1 4.4 1.8 5.7 2.8l.7.4c.9.7 1.6 1.1 1.7 1.8a1 1 0 0 1-.3.9c-.3.3-.8.5-1.5.5s-1.5-.2-2.1-.5h-.7l-2.1.1c.1 1 .1 2-.4 2.7-.3.4-.8.7-1.4.7Z"/><path d="M60.8 1.2c.8 0 1.5 0 1.8.2h1l5-.2h.5c1.8.1 4.5 2 5.6 2.8 1 .8 2.2 1.5 1.7 2-.2.3-.6.4-1 .4-.7 0-1.4-.2-1.9-.4l-1-.2c-1.1 0-2.8.4-2.8.4.5 1.3.3 3.2-1 3.2-1.4 0-2.4-1.9-3.2-2.5-.7-.7-1.6-1.8-3.6-2h-.2c-1.7 0-4.2.9-5.8.9l-.9-.1c-1.4-.6-.9-2.5-.4-2.9 1.7-1.2 4.4-1.6 6.2-1.6m0-1.2c-1.3 0-4.7.2-7 1.9-.6.5-1 1.7-.9 2.7.2 1 .8 1.8 1.7 2.2L56 7c.9 0 2-.2 3-.4s2-.4 2.7-.4h.2c1.3 0 2 .7 2.6 1.3l.2.2.5.6c.8 1 1.8 2.3 3.4 2.3.9 0 1.5-.4 2-1 .5-.7.6-1.6.5-2.5a10.5 10.5 0 0 1 1.5 0h.4c.7.3 1.6.5 2.4.5 1 0 1.6-.4 2-.8.3-.3.4-.8.3-1.3 0-1-1-1.5-2-2.2l-.3-.3L75 3c-1.3-1-3.9-2.8-6-2.9h-.4c-.8 0-1.8 0-2.7.2H62.9a8 8 0 0 0-2-.2Z" class="cls-13"/><path d="M59.6 2.2c2.6.2 4.5.7 6.1.3C67.3 2.1 76.5 5 76 6.3a.8.8 0 0 0 .4-.2c.6-.6-.6-1.3-1.7-2-1.1-.8-3.8-2.8-5.6-2.9-2 0-5.6.5-6.5.2-1-.3-5.6-.4-8 1.4-.2.2-.4.5-.4 1a9 9 0 0 1 5.4-1.6Z" class="cls-3"/><path fill="#703c16" d="M81.4 31a7.4 7.4 0 0 0 4 3.8c.2.2.6.1.7-.2.2-.3.1-.7-.2-.8a8 8 0 0 1-1.3-.7l-.2-.2h-.1l-.1-.1-.4-.4-.4-.5-.1-.1-.2-.3-.7-1.1c-.1-.3-.6-.4-.8-.2s-.4.5-.2.8Zm4.2-1.1c1.1.7 2.3 1.5 3.6 1.9.3 0 .7-.1.7-.5s0-.6-.4-.7a4 4 0 0 1-.5-.2H89l-.3-.1a20 20 0 0 1-2.3-1.5c-.3-.2-.7 0-.9.2-.1.4 0 .7.2.9Zm20 5a12.6 12.6 0 0 1 6.3 8.8c.1.7 1.3.4 1.1-.3a13.7 13.7 0 0 0-6.8-9.6c-.7-.4-1.3.7-.7 1Zm.6 6.4c.2 0 .4.2.5.3l.2.1.2.2.2.2v.1c.1.1 0 0 0 0l.4.5.1.3v.1a5 5 0 0 1 .3.8v.8a.6.6 0 0 0 .6.6.6.6 0 0 0 .6-.6 4.9 4.9 0 0 0-2.5-4.5c-.3-.2-.6 0-.8.2s0 .7.2.8ZM89 28.4l1.2.8h.5c.2 0 .3-.1.3-.3.1-.1.1-.3 0-.4l-.2-.4-1.1-.7H89c-.1 0-.3 0-.4.2v.5c0 .2.1.3.2.3ZM76 47a4.5 4.5 0 0 0 2.1 3.4 10 10 0 0 0 3.8 1.3c.3 0 .6 0 .7-.4.1-.3 0-.7-.4-.7a9.3 9.3 0 0 1-3.3-1.1c-.9-.6-1.6-1.4-1.7-2.5 0-.3-.3-.6-.6-.6s-.7.3-.6.6Z"/><path fill="none" stroke="#4c1a09" stroke-linecap="round" stroke-linejoin="round" stroke-width="1.8" d="M53.5 18.2s1.2 3.6 5.9 4.7c7.9 1.7 11-2.7 11-2.7"/></g></svg>