<svg xmlns="http://www.w3.org/2000/svg" xmlns:xlink="http://www.w3.org/1999/xlink" id="Layer_2" data-name="Layer 2" viewBox="0 0 118.79 102.61">
  <defs>
    <linearGradient id="linear-gradient" x1="53.05" x2="53.05" y1="209.46" y2="175.8" gradientTransform="rotate(-10.33 -595.73 -20.72)" gradientUnits="userSpaceOnUse">
      <stop offset="0" stop-color="#dbffff"/>
      <stop offset="1" stop-color="#339ed3"/>
    </linearGradient>
    <linearGradient xlink:href="#linear-gradient" id="linear-gradient-2" x1="-159.15" x2="-159.15" y1="334.08" y2="313.04" gradientTransform="rotate(-35.75 -469.64 -112.63)"/>
    <linearGradient xlink:href="#linear-gradient" id="linear-gradient-3" x1="-172.83" x2="-172.83" y1="334.08" y2="313.05" gradientTransform="rotate(-35.75 -469.64 -112.63)"/>
    <linearGradient xlink:href="#linear-gradient" id="linear-gradient-4" x1="-186.1" x2="-186.1" y1="334.24" y2="313.04" gradientTransform="rotate(-35.75 -469.64 -112.63)"/>
    <linearGradient xlink:href="#linear-gradient" id="linear-gradient-5" x1="50" x2="50" y1="117.8" y2="127.35"/>
    <style>
      .cls-1{fill:#5b2307}.cls-3{fill:#fff}.cls-8{stroke-linecap:round;stroke-linejoin:round;stroke:#4c1a09;fill:none}.cls-12{fill:#a36731}.cls-13{fill:#3c7bd6}.cls-8{stroke-width:.6px}.cls-14{fill:#8e5424}.cls-15{fill:#b7eae8}.cls-16{fill:#4c1a09}.cls-21{fill:#755b46}
    </style>
  </defs>
  <g id="Layer_1-2" data-name="Layer 1">
    <path d="M16.62 22.96a36.02 36.02 0 0 0-7.64 10.37c-1.86 3.87-2.84 8.29-2.03 12.56a23.52 23.52 0 0 0 5.94 11.4 33.6 33.6 0 0 0 4.89 4.33c1.75 1.3 3.66 2.38 5.52 3.52-1.88-1.11-3.81-2.16-5.59-3.43a33.24 33.24 0 0 1-4.99-4.26 23.82 23.82 0 0 1-6.23-11.47c-.91-4.37 0-8.95 1.83-12.95a37.05 37.05 0 0 1 7.63-10.8c.2-.19.51-.19.71 0 .19.2.19.51 0 .71l-.03.03Z" class="cls-1"/>
    <path d="M12.99 31.36c-.24.22-.51.61-.71.96a9 9 0 0 0-.56 1.17c-.32.81-.54 1.68-.68 2.56-.03-.9.03-1.8.2-2.7.09-.45.2-.9.36-1.34.17-.45.33-.86.66-1.32a.5.5 0 0 1 .7-.12.5.5 0 0 1 .12.7.23.23 0 0 1-.07.07l-.02.02Zm3.64-1.51c-.24.22-.51.61-.72.96a9 9 0 0 0-.56 1.17c-.32.81-.54 1.68-.68 2.56-.03-.9.03-1.8.2-2.7.09-.45.2-.9.36-1.34.17-.45.33-.86.66-1.32a.5.5 0 0 1 .7-.12.5.5 0 0 1 .12.7.23.23 0 0 1-.07.07l-.02.02Zm1.64-20.13a5.56 5.56 0 0 0 4.68 2.82c.38 0 .75.03 1.05-.07a2.88 2.88 0 0 0 1.53-1.29 13.64 13.64 0 0 0 1.55-4.23c.34-1.5.56-3.05.71-4.57l.88.08c-.07.67-.06 1.42 0 2.13a9.65 9.65 0 0 0 1.35 4.11c.36.65.85 1.2 1.35 1.77a8.32 8.32 0 0 1-2.79-3.56 10.7 10.7 0 0 1-.81-4.57.44.44 0 0 1 .47-.41c.24.02.42.22.41.46v.03c-.08 1.6-.29 3.17-.63 4.74a12.87 12.87 0 0 1-1.78 4.52c-.48.67-1.16 1.36-2.1 1.53-.47.1-.89.03-1.29 0a6.95 6.95 0 0 1-1.2-.27 5.33 5.33 0 0 1-3.41-3.22Zm-3.53 6.54a15.8 15.8 0 0 1 5.22-.7c.89.05 1.8.15 2.67.48a4.63 4.63 0 0 1 3.28 4.31 3.7 3.7 0 0 1-1.07 2.7 6.62 6.62 0 0 1-2.34 1.51c-.85.35-1.71.56-2.62.69l-.02-.69c.94.13 1.89.23 2.83.38.94.15 1.88.28 2.82.46-.96.01-1.91-.02-2.86-.03-.95-.01-1.9-.08-2.85-.11a.34.34 0 0 1-.33-.36c0-.16.11-.28.26-.32h.05c1.6-.41 3.28-1.06 4.35-2.19.53-.57.81-1.28.78-2.02.02-.37-.1-.75-.2-1.13-.06-.18-.16-.35-.24-.52l-.12-.26-.18-.22a4.17 4.17 0 0 0-1.86-1.4 8.82 8.82 0 0 0-2.41-.63 22.95 22.95 0 0 0-5.17.05ZM36.22 2.18a18.93 18.93 0 0 0-.1 3.81c.04.61.17 1.21.34 1.81.15.61.42 1.18.66 1.83a4.32 4.32 0 0 1-1.38-1.53 5.06 5.06 0 0 1-.61-2.01c-.06-.7-.01-1.41.18-2.08a4.7 4.7 0 0 1 .92-1.84Z" class="cls-1"/>
    <path fill="#a36731" stroke="#5b2307" stroke-linecap="round" stroke-linejoin="round" stroke-width="1.21" d="M31.53 50.9s-9.24-6.79-7.41-15.9c.92-4.57 8.81-8.28 14.63 5.46 4.6 10.87-4.24 12.86-7.21 10.44Z"/>
    <path d="M33.75 32.91s-3.37 1.5-4 3.25-3.37 2-3.62 2.62 4.66 10.8 9.08 11.96c4.42 1.16 4.42-6.84 3.54-9.71s-5-8.12-5-8.12Z" class="cls-14"/>
    <path d="M73.17 86.51c-19.01 0-30.3-8.76-32.75-16.89a27.38 27.38 0 0 1-1.07-9.79c-.43.51-1.09 1.12-1.78 1.12-.84 0-1.34-.75-1.49-2.22-.22-2.18.76-4.71 1.65-6.49l-.06.05c-.8.65-1.43 1.17-2.04 1.17-.44 0-1-.24-1.16-1.36-.3-2.15 2.02-4.66 2.95-5.57-.84-1.6-3.6-7.54-3.96-16.8-.33-8.68 5.06-15.99 7.38-18.71-1.49-.03-2.46-.49-2.69-1.26-.21-.72.25-1.45 1.36-2.16.91-.58 2.13-1.04 3.32-1.4-1.64-.31-1.83-.82-1.94-1.09-.13-.34-.14-.88.55-1.5.79-.71 2.03-1.08 3.68-1.08 1.12 0 2.28.17 3.24.36-.38-.48-.62-.98-.55-1.4.06-.36.31-.64.7-.78.17-.06.35-.09.56-.09 1.35 0 3.4 1.38 4.11 1.88 2.82-.59 5.57-.89 8.17-.89 11.46 0 20.83 5.72 27.11 16.55 3.36 5.8 8.61 7.84 14.69 10.2 6.59 2.56 11.15 7.91 11.52 8.53.24.39.13.7.05.85-.18.32-.52.4-.75.42 2.03 2.65 2.91 6.67 2.92 6.72a.79.79 0 0 1-.16.67.9.9 0 0 1-.71.29h-.17c1.53 2.92 1.91 6.98 1.25 7.93-.51.73-2.41 6.22-2.46 6.88.02 1.14-12.25 23.61-35.77 25.63-1.93.17-3.85.25-5.7.25Z" class="cls-12"/>
    <path d="M49.07 1.21c1.4 0 3.97 1.92 3.97 1.92 2.99-.64 5.76-.93 8.31-.93 15.93 0 23.63 11.15 26.59 16.25 3.43 5.92 8.72 8.02 15 10.46 6.27 2.44 10.78 7.54 11.22 8.28.17.28-.05.36-.39.36-.55 0-1.43-.24-1.43-.24 2.51 2 3.83 6.97 3.95 7.66.03.18-.08.25-.27.25-.53 0-1.62-.52-1.62-.52 2.22 2.66 2.77 7.88 2.2 8.7-.57.82-2.58 6.6-2.57 7.22 0 .61-11.96 23.04-35.22 25.03-1.96.17-3.84.25-5.65.25-19.6 0-30.04-9.36-32.17-16.46-2.33-7.76-.25-14.27-.25-14.27a10.34 10.34 0 0 0-1.46 3.74s-.95 1.43-1.72 1.43c-.41 0-.76-.41-.89-1.67-.36-3.62 2.87-8.4 2.87-8.4-1.67.76-3.14 2.58-3.93 2.58-.28 0-.48-.24-.56-.84-.32-2.29 3.11-5.37 3.11-5.37s-3.7-6.28-4.11-16.94c-.41-10.66 8.22-19.39 8.22-19.39-.46.07-.89.1-1.29.1-2.19 0-3.26-.98-1.16-2.31 2.47-1.58 7.46-2.28 7.46-2.28l-.9.01c-1.96 0-6.33-.17-4.54-1.79.77-.69 1.99-.92 3.27-.92 2.53 0 5.31.89 5.31.89s-2.98-2.32-1.73-2.75c.11-.04.23-.05.36-.05M49.07 0c-.27 0-.52.04-.75.12-.6.21-1 .66-1.1 1.25-.02.13-.06.36.03.7a16.4 16.4 0 0 0-2.12-.16c-1.8 0-3.17.41-4.08 1.23-1 .9-.88 1.74-.71 2.17.12.3.31.6.69.86-.67.27-1.3.57-1.84.91-1.71 1.09-1.82 2.14-1.62 2.84.15.5.62 1.28 2.09 1.58-2.6 3.28-7.12 10.18-6.81 18.25.34 8.72 2.79 14.56 3.83 16.66-1.15 1.18-3.12 3.57-2.82 5.78.24 1.75 1.41 1.89 1.76 1.89.25 0 .48-.05.71-.14a11.34 11.34 0 0 0-.86 4.87c.24 2.4 1.41 2.76 2.09 2.76.4 0 .78-.14 1.12-.34-.05 2.44.2 5.4 1.16 8.58 2.51 8.34 14.01 17.32 33.33 17.32 1.87 0 3.8-.08 5.75-.25 12.45-1.07 21.6-7.87 27.09-13.39 5.59-5.62 9.25-11.85 9.23-12.87v.1c.1-.74 1.9-5.9 2.36-6.61.76-1.1.46-4.82-.86-7.82a1.37 1.37 0 0 0 .74-1.51c0-.05-.79-3.6-2.58-6.34.16-.13.27-.27.35-.4.25-.45.23-.97-.05-1.45-.67-1.11-5.5-6.33-11.82-8.79-5.97-2.32-11.13-4.32-14.39-9.94C82.59 6.82 73.04.99 61.35.99c-2.57 0-5.27.29-8.04.85C52.39 1.2 50.47 0 49.07 0Z" class="cls-1"/>
    <path d="M114.03 60.62c0-.61 2.01-6.4 2.57-7.22.57-.82.02-6.04-2.2-8.7 0 0 2.02.96 1.89.27-.13-.69-1.44-5.67-3.95-7.66 0 0 2.26.61 1.82-.13-.44-.74-4.95-5.85-11.22-8.28-3.2-1.24-6.15-2.4-8.72-4.03s9.33 6.88 10.37 14.8c1.04 7.92-3.12 5.58-3.12 5.58l-7.12-2.3s3.26 5.48.16 8.12c-3.1 2.64-4.45.81-4.45.81s1.88 3.57-2.4 5.38c-4.27 1.8-15.95 3.93-21.28 3.88-5.33-.05-12.53-.99-13.87-4.63-1.34-3.64-2.16-4.09-2.16-4.09s-3.79 7.68-4.99 4.5c-1.19-3.18-.7-5.81-.7-5.81s-3.72 3.42-3.6 1.56c.12-1.86.75-4.02.75-4.02s-1.9-.48-3.82-1.82c-.71.68-3.19 3.22-2.92 5.2.32 2.29 2.22-.71 4.49-1.74 0 0-3.23 4.78-2.87 8.4.36 3.62 2.6.24 2.6.24s.33-2.11 1.46-3.74c0 0-2.08 6.52.25 14.27s14.57 18.21 37.82 16.21c23.26-1.99 35.22-24.42 35.22-25.03Z" class="cls-14"/>
    <path fill="#bd852d" d="M102.54 59.24c-10.84.54-32.36-3.61-31.73-14.16.63-10.55 9.08-9.12 9.67-22.1C81.08 10 66.85 4.89 57.09 8c-9.76 3.11-12.92 13.81-13.19 14.57-.27.76-5.12 1.65-7.07 1.6-1.91-.05-1.54-2.32-1.53-2.42a21.9 21.9 0 0 0-1.25 7.93c.41 10.66 4.11 16.94 4.11 16.94s-3.43 3.08-3.11 5.37c.32 2.29 2.22-.71 4.49-1.74 0 0-3.23 4.78-2.87 8.4.36 3.62 2.6.24 2.6.24s.33-2.11 1.46-3.74c0 0-2.08 6.52.25 14.27S55.55 87.63 78.8 85.63c19.5-1.67 31.05-17.69 34.28-23.2-2.34-2.17-6-3.45-10.56-3.22Z"/>
    <path d="M24.12 35s.22-4.45 4.06-8.49 4.52-5.73 4.52-5.73 1.75-4.93 2.92-5.83c1.06-.83 3.19-1.67 2.58 1.44-.05.25.26.41.44.23.71-.71 1.86-1.69 2.98-1.92 1.55-.31 2.06.49.57 3.42-.17.33.21.68.52.47 1.11-.74 2.63-1.52 3.42-.86 1.66 1.38-1.66 4.66-2.26 6.21-.42 1.08-1.67 1.75-4.5 3.42-3.5 2.06-5.56 6.23-5.56 6.23s-1.88 5.67-2.63 8.79" class="cls-12"/>
    <path d="M23.52 34.97a14.81 14.81 0 0 1 3.04-7.59c.4-.55.88-1.07 1.32-1.56.44-.48.88-.96 1.3-1.45.85-.98 1.66-1.99 2.35-3.03.17-.26.34-.53.46-.77.03-.04.09-.24.15-.39l.18-.47c.24-.62.49-1.24.76-1.86.27-.62.55-1.23.88-1.84.35-.58.66-1.27 1.41-1.8.31-.22.64-.41 1.02-.56.38-.14.8-.28 1.39-.18.29.05.62.23.82.48.21.25.32.51.38.75.11.47.09.87.05 1.24l-.08.55c-.02.1.02-.05 0-.12a.46.46 0 0 0-.1-.24.46.46 0 0 0-.38-.19.6.6 0 0 0-.23.05c-.06.02-.15.12-.09.06l.19-.18.39-.36c.53-.46 1.1-.9 1.79-1.23.34-.16.75-.3 1.14-.36.39-.04.85-.14 1.46.18.3.17.55.5.63.79.09.29.1.55.08.77-.03.44-.14.81-.26 1.15-.12.34-.26.67-.4.98l-.22.47-.06.11-.03.06.01-.03a.39.39 0 0 0 0-.26c-.06-.15-.2-.26-.42-.23-.1.01-.2.09-.07 0l.22-.14c.3-.19.6-.36.93-.52.65-.28 1.37-.66 2.41-.42a1.9 1.9 0 0 1 1.17 1c.23.49.22 1 .14 1.4-.17.82-.54 1.43-.89 2.03-.36.59-.75 1.13-1.11 1.67-.18.27-.36.53-.51.79a2.6 2.6 0 0 0-.19.37l-.1.23c-.04.1-.1.19-.15.28-.46.74-1.08 1.15-1.64 1.54-1.13.75-2.33 1.37-3.38 2.04a16.09 16.09 0 0 0-4.91 5.66l.03-.08c-.97 2.89-2.01 5.76-3.2 8.6.13-1.55.44-3.06.8-4.55.36-1.5.79-2.97 1.25-4.43v-.05l.03-.03c1.3-2.42 2.97-4.6 5.28-6.2 1.16-.75 2.3-1.35 3.35-2.07a4.13 4.13 0 0 0 1.31-1.28l.09-.22c.08-.19.17-.35.26-.51.18-.31.37-.6.55-.87.37-.55.74-1.09 1.06-1.62.32-.53.6-1.09.69-1.57a.88.88 0 0 0-.03-.53.48.48 0 0 0-.28-.24c-.26-.09-.87.08-1.38.35-.26.13-.53.29-.79.45l-.19.13-.15.1a1.1 1.1 0 0 1-1.56-.59 1.05 1.05 0 0 1 0-.74l.06-.15.03-.05.05-.11.2-.43c.13-.28.24-.57.34-.85.09-.28.16-.55.18-.77l-.01-.21c-.01-.03.02.03.04.03.03 0-.22-.05-.47 0-.26.04-.48.12-.73.23-.5.23-.99.6-1.45 1l-.34.31-.17.16s-.14.15-.28.21c-.14.07-.31.11-.47.11a.99.99 0 0 1-.81-.41.98.98 0 0 1-.17-.82l.07-.43a2.4 2.4 0 0 0-.01-.72c-.07-.18-.03-.11-.07-.13-.18-.06-.82.18-1.24.5-.35.21-.66.76-.96 1.3-.3.55-.57 1.13-.83 1.72-.26.59-.5 1.19-.74 1.8l-.17.45c-.07.16-.08.27-.21.53-.18.35-.36.64-.55.93a29.22 29.22 0 0 1-2.52 3.17c-.89 1.01-1.86 1.92-2.61 2.89a14.5 14.5 0 0 0-2.92 6.82v.06a.62.62 0 0 1-.67.54.6.6 0 0 1-.54-.65Z" class="cls-1"/>
    <path fill="none" stroke="#5b2307" stroke-linecap="round" stroke-linejoin="round" stroke-width="1.21" d="M51.21 33.39s1.71.58 3.84 1.95"/>
    <path fill="#91682c" d="M81.44 85.33c.44-.07.89-.14 1.32-.23l.7-.14a42.86 42.86 0 0 0 1.89-.46l1.23-.35.58-.17c.53-.17 1.06-.35 1.58-.54l.16-.06c.58-.21 1.14-.44 1.7-.68l.45-.2 1.19-.55.54-.27 1.06-.55.53-.29 1.06-.61.45-.26 1.27-.8.17-.11c.48-.32.95-.64 1.41-.97l.26-.19 1.06-.79.39-.31a30.75 30.75 0 0 0 1.29-1.04l.85-.73.34-.3.95-.87.18-.16 1.09-1.06.15-.16.85-.88.3-.32.65-.71.32-.35.58-.67.29-.34.58-.71.23-.27c.25-.31.5-.62.73-.93l.19-.25.48-.64.28-.39.33-.46.28-.41.27-.39.28-.41.2-.31.27-.42.05-.08.66-1.08c-2.34-2.17-6-3.45-10.56-3.22a59.2 59.2 0 0 1-15.77-1.65c-4.82 1.72-15.4 3.59-20.39 3.54-5.33-.05-12.53-.99-13.87-4.63-1.34-3.64-2.16-4.09-2.16-4.09s-3.79 7.68-4.99 4.5c-1.19-3.18-.7-5.81-.7-5.81s-3.72 3.42-3.6 1.56c.12-1.86.75-4.02.75-4.02s-1.9-.48-3.82-1.82l-.14.14-.07.07-.18.18-.18.19-.08.08-.19.21-.09.1-.2.24-.09.1-.21.27-.08.1-.24.33-.05.06c-.19.27-.37.55-.53.84l-.05.1-.17.33-.06.14-.12.29-.05.16-.08.28-.04.16-.04.29-.01.14c0 .14 0 .28.02.41.32 2.29 2.22-.71 4.49-1.74 0 0-3.23 4.78-2.87 8.4.36 3.62 2.6.24 2.6.24s.33-2.11 1.46-3.74c0 0-2.08 6.52.25 14.27s14.57 18.21 37.82 16.21a42.1 42.1 0 0 0 2-.23l.63-.1Z"/>
    <path d="M54.13 98.49a.94.94 0 0 1-.98-.82c-.15-.9.81-2.18 1.9-3.31-1.21.44-2.57.96-3.83 1.44-1.89.71-3.52 1.33-4.3 1.58a2.7 2.7 0 0 1-.83.13c-.85 0-1.55-.47-1.79-1.19-.26-.78.06-1.64.84-2.22.63-.47 2.33-1.3 4.3-2.2-2.85-.25-4.11-.78-4.16-1.73-.05-.99 1.35-1.59 2.68-1.82 2.38-.41 8.27-.45 8.51-.45l.88-.01c1.86 0 7.97.15 8.4 2.12.28 1.25-1.62 2.38-3.82 3.69-.62.37-1.22.73-1.72 1.06-.43.29-.96.68-1.53 1.11-2.15 1.6-3.64 2.64-4.56 2.64Z" class="cls-21"/>
    <path d="M57.36 88.48c3.85 0 7.58.61 7.81 1.64.25 1.11-3.36 2.81-5.29 4.11-1.62 1.09-4.67 3.65-5.75 3.65-.21 0-.35-.1-.39-.32-.23-1.37 3.89-4.73 3.89-4.73-2.59.79-9.13 3.41-10.89 3.97-.23.07-.45.11-.65.11-1.3 0-1.79-1.43-.59-2.33 1.39-1.04 8.9-4.19 8.85-4.19a405 405 0 0 0-4.02.97c-6.48-.4-4.62-2.01-2.27-2.41 2.36-.41 8.42-.44 8.42-.44l.87-.01m0-1.21-.9.01c-.23 0-6.17.04-8.59.46-2.06.35-3.25 1.27-3.18 2.45.06 1.12 1.14 1.7 2.64 2.02a19.45 19.45 0 0 0-2.55 1.4c-.98.74-1.39 1.88-1.05 2.9a2.41 2.41 0 0 0 2.36 1.61c.33 0 .67-.05 1.01-.16.8-.25 2.43-.87 4.33-1.59l1.75-.66c-.47.74-.73 1.45-.62 2.07.14.79.77 1.32 1.58 1.32 1.11 0 2.6-1.04 4.92-2.76a31.69 31.69 0 0 1 3.2-2.13c2.5-1.48 4.48-2.66 4.1-4.34-.47-2.14-5.15-2.59-8.99-2.59Z" class="cls-16"/>
    <path d="M47.53 92.85s2.13.83 1.71 3.44m2.09-4.89s3.21-.23 2.81 2.97m-4.86-6.02s1.51 1 .55 3.34m5.75 2.34s2.27-.41 2.85 2.08m-5.07-8.1c.1.2 1.64.29 1.68 2.08 0 0 2.82-.42 3.24 2.07 0 0 2.83-.53 3.18 1.66" class="cls-8"/>
    <path d="M78.38 102c-.56 0-1-.28-1.2-.75-.74-1.79 1.88-4.8 4.08-6.9-.57.17-1.25.4-1.96.63-2.1.69-3.52 1.14-4.2 1.14-.59 0-.77-.35-.82-.5-.19-.56.35-1.03.97-1.5 3.06-2.34 10.62-4.92 11.4-5.18 1-.57 7.81-4.36 10.42-4.36.56 0 .97.17 1.22.5.24.33.29.75.14 1.26-.75 2.56-5.06 12.47-8.16 12.47l-.2-.01c-.7-.09-1.04-.5-1.2-.82-.4-.82-.08-2.12.38-3.28l-.9.74c-4.38 3.6-8.14 6.58-9.98 6.58Z" class="cls-21"/>
    <path d="M97.07 85.18c.66 0 .99.28.78.99-1.01 3.42-5.23 12.03-7.58 12.03h-.12c-2.32-.31.8-5.58.8-5.58-1.88 1.19-10.08 8.78-12.57 8.78-.31 0-.54-.12-.65-.38-.99-2.38 6.4-8.41 6.4-8.41l-2.14.91c-1.65.38-5.83 2-6.9 2-.42 0-.36-.25.52-.92 3.12-2.38 11.28-5.11 11.28-5.11s7.6-4.31 10.18-4.31m0-1.21c-2.69 0-9.14 3.55-10.67 4.41-1.04.35-8.45 2.91-11.52 5.26-.57.43-1.52 1.16-1.18 2.18.07.21.39.91 1.39.91.74 0 2.02-.4 4.02-1.05-1.78 2-3.16 4.21-2.49 5.81.29.71.95 1.13 1.76 1.13 1.95 0 5.42-2.66 9.77-6.23-.1.68-.07 1.33.19 1.85.31.65.9 1.06 1.66 1.16l.28.02c3.66 0 8.07-10.62 8.74-12.9.26-.88.02-1.46-.23-1.8-.25-.34-.75-.74-1.71-.74Z" class="cls-16"/>
    <path d="M78.07 98.13s3.32-.99 4.36 1.97m-1.79-5.24s5.56-2.14 6.49 1.55m-9.37-3.82s1.32.79.78 2.54m10.35.39s2.65-2.67 5.46-.96m-11.09-3.74s1.4-.53 1.98.81c0 0 4.12-1.85 6.27-.15 0 0 3.38-2.92 5.41-1.36" class="cls-8"/>
    <path d="M63.84 90.17c-1.79 0-3.45-.36-4.95-1.08-6.25-2.99-5.98-9.92-5.97-9.99a.6.6 0 0 1 .55-.57c.38-.03.75-.05 1.13-.05 8.6 0 17.27 8.09 17.64 8.44a.6.6 0 0 1 .19.5.6.6 0 0 1-.29.45c-.16.09-3.86 2.3-8.29 2.3Z" class="cls-15"/>
    <path d="M54.6 79.09c8.46 0 17.23 8.27 17.23 8.27s-3.66 2.21-7.98 2.21c-1.53 0-3.13-.28-4.69-1.02-5.96-2.86-5.63-9.42-5.63-9.42a13 13 0 0 1 1.08-.05m0-1.21c-.4 0-.8.02-1.18.05a1.2 1.2 0 0 0-1.1 1.14c-.02.3-.3 7.4 6.32 10.57a11.9 11.9 0 0 0 5.21 1.14c4.6 0 8.45-2.29 8.61-2.38a1.21 1.21 0 0 0 .21-1.92c-.37-.35-9.22-8.6-18.05-8.6Z" class="cls-13"/>
    <path d="M72.75 88.23a51.6 51.6 0 0 1-10.87-1.09c-10.24-2.23-12.75-4.3-14.25-5.54a6.84 6.84 0 0 0-.84-.62c-1.25-.71-1.82-1.9-2.2-2.68-.1-.2-.23-.47-.29-.54l-.11-.07c-2.8-1.8-4.42-3.89-4.79-6.2-.09-.59-.23-1.25-.37-1.93-.55-2.69-1.11-5.47 0-6.83a2.14 2.14 0 0 1 1.76-.76c.13 0 .28 0 .43.03.27.03.49.25.53.52.1.76.65 2.88 1.92 3.5 1.85.89 5.63 2.29 7.9 2.29.35 0 .66-.03.9-.1 1.73-.49 1.64-.99 1.51-1.73-.17-.95-.22-3.6 1.66-4.43.34-.15.68-.23.99-.23 1.08 0 1.65.85 1.92 1.25l.11.16c.05 0 .3.06.5.12.78.21 2.09.55 3.25 1.49 1.46 1.19 4.84 2.7 6.65 3.15.59.15 1.07.22 1.45.22.44 0 .54-.1.54-.1 0-.26-.04-.73-.08-1.23-.2-2.16-.2-2.8.2-3.15.1-.08.23-.23.37-.38.54-.59.86-.92 1.27-.92.34.04.56.07 1.83 2a3.27 3.27 0 0 1 2.82-.74c1.46.28 4.08.71 5.32.71.3 0 .41-.03.43-.03a52.7 52.7 0 0 1 6.86-.88c.24 0 .4.02.53.05.93.27 2.04.54 2.57.58l.04-.09c.71-1.66 1.59-3.41 2.72-3.89l1.51-.65c.09-1.38.08-3.49-.32-4.22-.76-1.38-1.77-3.23-.55-4.7a2 2 0 0 1 1.6-.73c1.54 0 3.09 1.4 3.52 1.83 1.35 1.34 2.1 2.08 1.95 3.11-.05.37.1 1.72.25 2.8h.15c.99 0 2.93-.13 5.2-.99-.2-.85-.38-2.39.74-3.05a5.65 5.65 0 0 1 2.62-.81c.2 0 .36.03.49.08l.3.15c-1.07-3.83-.56-4.21-.31-4.4.26-.2.57-.29.94-.29.58 0 1.27.26 2.07.76.85.55 2.09 2 2.09 3.02 0 .9-.79 3.04-1.49 4.41a7.2 7.2 0 0 0-.5 4.28c.21 1.12-.9 2.42-1.79 3.46-.29.34-.66.78-.73.94-.07.15-6.95 15.41-14.86 19.9-3.25 1.84-6.03 2.77-8.29 2.77-1.9 0-2.95-.67-3.44-1.12a68.27 68.27 0 0 1-14.35 1.56Zm-14.38-21.8a.87.87 0 0 0-.69.31c-.19.23-.26.55-.19.93.29 1.62 1.49 4.5 2.83 4.5.1 0 .21-.02.31-.05.67-.2 1.13-.85 1.18-1.71.08-1.21-.67-2.86-2.99-3.88-.15-.07-.3-.1-.45-.1Z" class="cls-15"/>
    <path d="M114.03 48.85c.51 0 1.15.29 1.74.67.84.54 1.81 1.82 1.81 2.51 0 .69-.66 2.66-1.42 4.14a7.84 7.84 0 0 0-.56 4.66c.23 1.26-2.16 3.3-2.48 4.05-.32.75-7.03 15.31-14.6 19.61-3.64 2.07-6.22 2.7-7.99 2.7-1.91 0-2.88-.73-3.24-1.19 0 0-6.4 1.63-14.54 1.63-3.39 0-7.08-.28-10.74-1.08-12.46-2.72-13.29-5.17-14.92-6.1-1.63-.93-1.98-2.86-2.42-3.16-.44-.31-4.12-2.4-4.68-5.9-.54-3.38-2.32-8.82.8-8.82.11 0 .23 0 .36.02 0 0 .41 3.07 2.26 3.96 1.6.77 5.64 2.36 8.17 2.36.4 0 .75-.04 1.06-.13 2.26-.64 2.09-1.61 1.94-2.42-.15-.82-.18-3.11 1.31-3.77.28-.12.53-.18.75-.18.94 0 1.35.95 1.59 1.21.29.32 2.21.36 3.83 1.67 1.62 1.32 5.12 2.83 6.88 3.27.64.16 1.17.24 1.6.24.75 0 1.14-.25 1.15-.74.01-.77-.43-3.6-.1-3.89.32-.29.99-1.15 1.23-1.15h.01c.24.03 1.73 2.37 1.73 2.37s.76-1.18 2.23-1.18c.18 0 .36.02.56.06 1.53.3 4.15.72 5.44.72.25 0 .46-.02.59-.05.72-.2 5.28-.86 6.7-.86.17 0 .29 0 .36.03.53.15 2.19.61 2.87.61.15 0 .26-.02.29-.08.18-.3 1.29-3.42 2.58-3.96a80 80 0 0 0 1.85-.8s.33-3.66-.36-4.92c-.69-1.26-1.58-2.86-.61-4.03.3-.36.69-.52 1.13-.52.98 0 2.19.77 3.1 1.66 1.31 1.3 1.88 1.88 1.78 2.59-.1.71.33 3.47.33 3.47s.24.02.68.02c1.08 0 3.33-.15 5.93-1.23 0 0-.79-2.23.32-2.89a5.08 5.08 0 0 1 2.31-.73c.11 0 .2.01.25.03.25.11 1.53.82 1.53.82s-1.48-4.74-.94-5.15a.94.94 0 0 1 .57-.17M60.34 72.76c.16 0 .32-.02.49-.07 2.25-.67 2.58-4.82-1.74-6.72-.23-.1-.47-.15-.69-.15-.91 0-1.69.76-1.47 1.95.25 1.38 1.46 5 3.42 5m53.71-25.13c-.49 0-.94.14-1.3.41-.45.34-.99.75-.18 4.05-.67.01-1.79.26-2.87.9-1.09.65-1.3 1.95-1.12 3.18-1.72.58-3.2.74-4.13.77-.12-.95-.21-1.85-.18-2.11.19-1.33-.68-2.19-2.12-3.61-.61-.61-2.22-2.01-3.95-2.01a2.6 2.6 0 0 0-2.06.95c-1.48 1.79-.26 4.02.47 5.34.28.51.36 2.11.28 3.56l-1.16.5c-1.25.53-2.13 2.14-2.9 3.88-.51-.09-1.27-.28-2.04-.5a2.54 2.54 0 0 0-.7-.08c-1.55 0-6.19.67-7.02.9l-.27.01c-1.07 0-3.48-.36-5.21-.7a3.88 3.88 0 0 0-2.78.48c-1.12-1.64-1.38-1.68-1.8-1.74l-.19-.01c-.7 0-1.15.49-1.71 1.12-.12.13-.23.26-.32.34-.66.58-.6 1.48-.4 3.65l.06.68a5.4 5.4 0 0 1-1.22-.2c-1.76-.44-5.01-1.89-6.42-3.04a8.9 8.9 0 0 0-3.79-1.69c-.33-.48-1.04-1.47-2.39-1.47-.4 0-.82.09-1.23.28-2.15.95-2.26 3.74-2.01 5.09.1.57.13.7-1.08 1.04-.13.04-.36.08-.73.08-2.26 0-6.13-1.51-7.64-2.24-.95-.46-1.48-2.24-1.58-3.03a1.2 1.2 0 0 0-1.06-1.04 4.32 4.32 0 0 0-.5-.03 2.8 2.8 0 0 0-2.23.98c-1.29 1.58-.7 4.51-.13 7.33.14.68.27 1.33.36 1.9.4 2.5 2.1 4.72 5.06 6.62l.18.36c.39.8 1.04 2.13 2.44 2.94.22.13.46.32.75.57 1.54 1.27 4.12 3.4 14.5 5.67 3.37.73 7.07 1.11 11 1.11 6.8 0 12.33-1.09 14.19-1.51a5.67 5.67 0 0 0 3.6 1.07c2.36 0 5.25-.96 8.58-2.85 8.2-4.65 15.05-20.03 15.11-20.18.06-.12.4-.51.64-.79.97-1.14 2.18-2.55 1.92-3.96a6.73 6.73 0 0 1 .45-3.9c.74-1.45 1.55-3.65 1.55-4.68 0-1.29-1.4-2.91-2.37-3.53a4.62 4.62 0 0 0-2.39-.86ZM60.35 71.57c-.77 0-1.92-2.26-2.23-4-.04-.19-.02-.35.06-.43.05-.06.13-.09.23-.09.07 0 .14.02.21.05 2.04.9 2.7 2.29 2.63 3.29-.03.47-.24 1.02-.75 1.17-.05.02-.1.02-.14.02Z" class="cls-13"/>
    <path fill="url(#linear-gradient)" d="M113.45 49.02c-.54.41.94 5.15.94 5.15s-1.28-.71-1.53-.82c-.25-.11-1.45.03-2.56.7-1.11.66-.32 2.89-.32 2.89a15.96 15.96 0 0 1-5.75 1.23s1.2 3.82-.05 6.35-12.28 6.53-16.37 9.89c-4.09 3.35-16.42 4.07-25.52 2.5-9.09-1.56-13.46-3.3-15.38-8.97a33.64 33.64 0 0 1-3.51-1.39c-1.85-.89-2.26-3.96-2.26-3.96-3.6-.42-1.72 5.3-1.16 8.8.56 3.5 4.24 5.59 4.68 5.9.44.3.79 2.23 2.42 3.16 1.63.93 2.46 3.38 14.92 6.1C74.46 89.26 87.29 86 87.29 86c.69.87 3.65 2.79 11.23-1.51s14.28-18.86 14.6-19.61c.32-.75 2.71-2.8 2.48-4.05a7.83 7.83 0 0 1 .56-4.66c.76-1.48 1.42-3.45 1.42-4.14 0-.69-.97-1.97-1.81-2.51-.84-.54-1.78-.9-2.32-.5Z"/>
    <path d="M114.03 49.45c.33 0 .85.21 1.42.57.78.5 1.54 1.63 1.54 2 0 .5-.57 2.34-1.35 3.86a8.5 8.5 0 0 0-.61 5.05c.1.56-.95 1.8-1.52 2.46-.44.51-.78.91-.92 1.24-.06.15-6.78 15.04-14.34 19.33-3.06 1.74-5.65 2.62-7.69 2.62-1.91 0-2.64-.8-2.77-.96a.6.6 0 0 0-.47-.23c-.05 0-.1 0-.15.02a65.1 65.1 0 0 1-14.4 1.61c-3.8 0-7.37-.36-10.61-1.06-9.96-2.17-12.32-4.12-13.74-5.29a7.2 7.2 0 0 0-1.01-.74 4.59 4.59 0 0 1-1.71-2.16c-.22-.46-.38-.79-.66-.98l-.18-.12c-2.5-1.61-3.93-3.42-4.25-5.38-.1-.61-.23-1.27-.37-1.98-.44-2.19-1-4.91-.25-5.83.1-.12.28-.28.68-.31.22.99.86 3.12 2.5 3.92 1.4.67 5.64 2.41 8.43 2.41.47 0 .88-.05 1.22-.15 2.57-.73 2.57-1.99 2.37-3.11-.14-.78-.1-2.64.96-3.11.19-.08.36-.12.51-.12.4 0 .66.33.92.72l.21.29c.22.25.57.34 1.1.48.73.19 1.84.48 2.8 1.26 1.74 1.41 5.38 2.95 7.12 3.39.68.17 1.27.26 1.74.26 1.61 0 1.75-1.02 1.76-1.33 0-.29-.04-.77-.09-1.33-.06-.65-.17-1.84-.11-2.22l.36-.38.31-.34c.32.43.86 1.22 1.3 1.9.11.17.3.27.5.28.2 0 .39-.1.5-.27a2.16 2.16 0 0 1 2.16-.87c1.29.25 4.11.73 5.55.73.33 0 .57-.02.75-.08.68-.19 5.2-.83 6.54-.83h.19c.51.15 2.25.64 3.04.64.15 0 .59 0 .81-.38.04-.06.11-.22.21-.45.31-.72 1.25-2.9 2.08-3.26l1.86-.8a.6.6 0 0 0 .35-.5c.04-.39.32-3.89-.45-5.3-.77-1.4-1.31-2.54-.66-3.32.17-.2.38-.3.66-.3.71 0 1.76.58 2.68 1.49 1.12 1.11 1.66 1.67 1.6 2.08-.11.76.25 3.17.33 3.64a.6.6 0 0 0 .54.51c.01 0 .28.03.74.03 1.15 0 3.48-.17 6.16-1.27a.6.6 0 0 0 .34-.76c-.19-.55-.45-1.87.06-2.18a4.49 4.49 0 0 1 2-.64h.05c.22.11.95.5 1.44.78a.6.6 0 0 0 .29.08.62.62 0 0 0 .58-.79c-.54-1.75-1.06-3.87-1.03-4.53h.09M60.33 73.37c.22 0 .44-.03.66-.1 1.16-.34 1.96-1.44 2.05-2.79.1-1.61-.82-3.79-3.71-5.07-.3-.13-.62-.2-.94-.2-.64 0-1.23.27-1.62.75a2.32 2.32 0 0 0-.45 1.92c.26 1.42 1.55 5.49 4.01 5.49m53.72-24.53a.92.92 0 0 0-.57.17c-.54.41.94 5.15.94 5.15s-1.28-.71-1.53-.82a.73.73 0 0 0-.25-.03c-.47 0-1.42.2-2.31.73-1.11.66-.32 2.89-.32 2.89a15.92 15.92 0 0 1-5.93 1.23c-.43 0-.68-.02-.68-.02s-.43-2.76-.33-3.47c.1-.71-.47-1.3-1.78-2.59-.91-.89-2.12-1.66-3.1-1.66-.44 0-.83.15-1.13.52-.97 1.17-.08 2.77.61 4.03.69 1.26.36 4.92.36 4.92s-.57.26-1.85.8c-1.28.54-2.4 3.66-2.58 3.96-.03.06-.14.08-.29.08-.69 0-2.35-.46-2.87-.61a1.48 1.48 0 0 0-.36-.03c-1.42 0-5.98.66-6.7.86a2.3 2.3 0 0 1-.59.05c-1.29 0-3.91-.42-5.44-.72-.2-.04-.38-.06-.56-.06-1.46 0-2.23 1.18-2.23 1.18s-1.5-2.34-1.73-2.37h-.01c-.25 0-.91.86-1.23 1.15-.33.29.11 3.13.1 3.89 0 .49-.41.74-1.15.74-.42 0-.96-.08-1.6-.24-1.77-.44-5.26-1.95-6.88-3.27-1.62-1.31-3.54-1.35-3.83-1.67-.23-.26-.65-1.21-1.59-1.21-.22 0-.47.05-.75.18-1.49.66-1.46 2.95-1.31 3.77.15.82.33 1.78-1.94 2.42a3.8 3.8 0 0 1-1.06.13c-2.53 0-6.57-1.59-8.17-2.36-1.85-.89-2.26-3.96-2.26-3.96l-.36-.02c-3.12 0-1.34 5.44-.8 8.82.56 3.5 4.24 5.59 4.68 5.9.44.3.79 2.23 2.42 3.16 1.63.93 2.46 3.38 14.92 6.1 3.66.8 7.35 1.08 10.74 1.08 8.15 0 14.54-1.63 14.54-1.63.36.45 1.33 1.19 3.24 1.19 1.77 0 4.34-.63 7.99-2.7 7.58-4.3 14.28-18.86 14.6-19.61.32-.75 2.71-2.8 2.48-4.05a7.83 7.83 0 0 1 .56-4.66c.76-1.48 1.42-3.45 1.42-4.14 0-.69-.97-1.97-1.81-2.51a3.6 3.6 0 0 0-1.74-.67ZM60.34 72.77c-1.96 0-3.17-3.62-3.42-5-.22-1.19.57-1.95 1.47-1.95.23 0 .46.05.69.15 4.32 1.9 3.98 6.06 1.74 6.72a1.7 1.7 0 0 1-.49.07Z" class="cls-15"/>
    <path d="M104.8 58.15c-.89.05-1.42 0-1.42 0s-.43-2.76-.33-3.47c.1-.71-.47-1.3-1.78-2.59-1.31-1.29-3.26-2.32-4.23-1.15-.97 1.17-.08 2.77.61 4.03.69 1.26.36 4.92.36 4.92s-.57.26-1.85.8c-1.28.54-2.4 3.66-2.58 3.96-.17.3-2.52-.35-3.17-.54-.65-.19-6.26.6-7.06.83-.8.22-4.2-.31-6.03-.67-1.83-.36-2.79 1.12-2.79 1.12s-1.5-2.34-1.73-2.37c-.23-.03-.92.86-1.25 1.15-.33.29.11 3.13.1 3.89-.01.77-.98.94-2.75.5-1.77-.44-5.26-1.95-6.88-3.27-1.62-1.31-3.54-1.35-3.83-1.67-.29-.32-.85-1.69-2.34-1.04-1.49.66-1.46 2.95-1.31 3.77.15.82.33 1.78-1.94 2.42-2.26.64-7.38-1.34-9.23-2.23-1.85-.89-2.26-3.96-2.26-3.96-.3-.04-.56-.03-.79.02.15 6.53 9.94 6.87 11.18 7.15 1.24.28 3.44-1.54 3.44-1.54s.34-3.74 1.36-4.34c1.02-.6 1.76 1.21 2.42 1.09.67-.12 4.72 1.9 7.18 3.6s6.54 1.36 6.54 1.36.47-1.93.84-3.32c.37-1.4 3.02.37 3.31.32.3-.05 1.56-1 3.03-.35 1.48.65 4.96-.7 7.79-.91 2.83-.21 6.59.84 6.59.84s1.12-1.74 1.95-3.32C96.79 61.6 99 61.4 99 61.4s.27-5.26-.34-6.89c-.61-1.63-1.18-3.96 1.19-2.47 2.37 1.49 2.39 6.93 2.39 6.93l2.52-.84Z" class="cls-3"/>
    <path fill="#b7eae8" stroke="#3c7bd6" stroke-linecap="round" stroke-linejoin="round" stroke-width="1.21" d="M100.71 43.47c-1.51.27-3.81.15-3.89.71-.08.55 4.36 3.82 5.44 4.52 1.09.7 3.88-.41 3.56-2.21-.33-1.8-2.56-3.49-5.11-3.03Z"/>
    <path d="M104.33 46.07c-.11.4-.85.54-1.64.31-.79-.23-1.34-.73-1.23-1.13.11-.4.85-.54 1.64-.31.79.23 1.34.73 1.23 1.13Z" class="cls-3"/>
    <path fill="#a18f70" d="M6 71.32a.6.6 0 0 1-.42-.17.61.61 0 0 1-.05-.81c17.3-21.71 42.89-35.38 43.15-35.51a.58.58 0 0 1 .59.02c.18.11.29.31.29.52-.02 1.77-3.53 6.84-4.23 7.83a.66.66 0 0 1-.26.21c-10.22 4.2-38.4 27.54-38.68 27.77a.62.62 0 0 1-.39.14Z"/>
    <path d="M48.96 35.36c-.01 1.67-4.12 7.49-4.12 7.49C34.41 47.13 6 70.71 6 70.71c17.42-21.87 42.96-35.35 42.96-35.35m0-1.21h-.02c-.21 0-.4.06-.57.15-.93.5-26.18 14.14-43.32 35.66a1.2 1.2 0 0 0 .1 1.61 1.2 1.2 0 0 0 1.62.07c.28-.23 28.39-23.51 38.53-27.68.21-.09.4-.23.53-.42 1.27-1.8 4.19-6.12 4.34-8.04v-.14a1.2 1.2 0 0 0-1.2-1.21Zm0 2.41Z" class="cls-1"/>
    <path fill="#d2001e" stroke="#5b2307" stroke-linecap="round" stroke-linejoin="round" stroke-width="1.21" d="M6 70.72s15.21-21.44 37.87-35.27l5.09-.08S20.29 54.99 6 70.72Z"/>
    <path fill="url(#linear-gradient-2)" d="M41.96 69.21c-.56 0-1.57-1.22-4.29-5.21-.45-.66-.84-1.24-.96-1.37-.18-.2-.48-.39-.81-.58-.5-.31-1.02-.62-1.25-1.11-.22-.49-3.58-5.07-5.79-8.03l-.14-.19.14-.18c1.05-1.33 3.74-2.69 3.85-2.75l.27-.13.14.26s2.51 4.78 3.5 6.54c.56 1 .7 1.8.8 2.44.09.54.16.96.45 1.36.06.08 5.3 8.02 4.36 8.85l-.08.08-.19.03Z"/>
    <path d="M32.86 50.06s2.5 4.77 3.51 6.55c1.01 1.79.56 2.85 1.27 3.83.7.98 4.98 7.95 4.41 8.45a.11.11 0 0 1-.08.03c-.79 0-4.55-5.93-5.03-6.48-.5-.57-1.69-.92-2.01-1.62-.32-.7-5.82-8.08-5.82-8.08 1.02-1.29 3.75-2.67 3.75-2.67m.26-.81-.53.27c-.12.06-2.86 1.45-3.95 2.83l-.29.36.28.37c2.09 2.81 5.51 7.46 5.75 7.97.26.57.85.93 1.36 1.25.29.18.59.36.74.53.11.12.53.74.94 1.34 3.1 4.54 3.88 5.34 4.54 5.34a.7.7 0 0 0 .48-.18c.44-.39.57-.94-1.6-4.79a66.88 66.88 0 0 0-2.72-4.46c-.25-.34-.31-.72-.4-1.24a7.07 7.07 0 0 0-.84-2.54c-.99-1.76-3.47-6.49-3.5-6.54l-.28-.53Z" class="cls-13"/>
    <path fill="url(#linear-gradient-3)" d="M30.65 76.85c-.41 0-1.04-.32-2.82-2.66a56.83 56.83 0 0 0-3.42-4.02c-.67-.03-1.56-.98-2.75-2.5a142.48 142.48 0 0 0-4.99-5.5l-.2-.21.2-.21c.83-.85 5.02-5.11 6.26-5.11.26 0 .46.15.53.39.17.59 1.74 3.17 3.13 5.45 3.08 5.06 3.04 5.09 2.7 5.33l-.08.06-.16.02c-.41 0-.96-.59-2.13-2.01l-.37-.44c-.34-.4-1.85-1.77-3-2.81a42.26 42.26 0 0 0 2.12 3.39c.88 1.07 1.94 3.82 1.99 3.93.11.29.69 1.24 1.3 2.24 2.25 3.71 2.41 4.16 2.11 4.46a.59.59 0 0 1-.42.17Z"/>
    <path d="M22.93 56.96c.12 0 .21.05.24.17.36 1.27 6.25 10.24 5.95 10.46l-.06.02c-.4 0-1.7-1.69-2.26-2.34a110.1 110.1 0 0 0-4.42-4.07s2.35 4.17 3.07 5.04c.72.88 1.62 3.02 1.94 3.85.32.83 3.8 6.06 3.48 6.38a.27.27 0 0 1-.21.09c-.41 0-1.18-.7-2.58-2.54-1.69-2.22-3.54-4.14-3.54-4.14h-.09c-.57 0-1.53-1.09-2.55-2.38-1.08-1.36-5.01-5.52-5.01-5.52s4.87-5.02 6.05-5.02m0-.6c-1.3 0-4.96 3.64-6.48 5.2l-.4.42.4.42s3.92 4.15 4.97 5.48c1.42 1.8 2.18 2.5 2.85 2.6.49.53 1.97 2.13 3.33 3.91 1.76 2.31 2.48 2.78 3.06 2.78a.9.9 0 0 0 .64-.26c.48-.48.27-.98-2.07-4.83-.55-.91-1.17-1.93-1.27-2.19-.11-.3-1.14-2.93-2.03-4.02-.22-.26-.62-.89-1.07-1.62.71.65 1.3 1.21 1.49 1.43l.37.44c1.31 1.58 1.83 2.11 2.35 2.11.15 0 .29-.05.41-.13.6-.43.55-.53-2.62-5.74-1.31-2.15-2.94-4.83-3.1-5.37a.82.82 0 0 0-.82-.61Z" class="cls-13"/>
    <path fill="url(#linear-gradient-4)" d="M18.68 80.97c-.41 0-1.19-.8-3.87-3.77-1-1.11-2.04-2.26-2.74-2.95-1.91-1.88-4.29-4.29-4.29-4.29l-.16-.17.12-.2c.55-.92 2.43-3.92 3.45-3.92.14 0 .28.05.39.14.59.52 1.54 2.83 2.62 5.58l.59 1.47c.27.65 1.15 2.09 2 3.49 2.3 3.81 2.45 4.2 2.15 4.49l-.09.09h-.17Z"/>
    <path d="M11.18 65.98c.07 0 .13.02.19.07.76.66 2.47 5.38 3.14 6.94.66 1.57 4.54 7.33 4.21 7.66l-.04.01c-.54 0-4.54-4.81-6.39-6.63C10.38 72.15 8 69.74 8 69.74s2.26-3.77 3.19-3.77m0-.6c-1.05 0-2.6 2.21-3.71 4.06l-.24.4.33.33s2.41 2.43 4.3 4.29c.69.68 1.73 1.83 2.73 2.94 3.03 3.36 3.57 3.87 4.09 3.87h.25l.22-.19c.48-.48.3-.89-2.11-4.86a43.78 43.78 0 0 1-1.98-3.46l-.59-1.47c-1.14-2.88-2.06-5.13-2.71-5.7a.9.9 0 0 0-.59-.22Z" class="cls-13"/>
    <path d="M32.61 50.87c.68 1.3 2.43 4.61 3.23 6.03.48.86.59 1.51.7 2.14.1.6.19 1.17.61 1.74.57.8 2.3 3.65 3.4 5.73-.78-1.05-1.63-2.3-2.13-3.03a21.3 21.3 0 0 0-1.03-1.46 4.11 4.11 0 0 0-1.02-.76c-.37-.22-.78-.48-.89-.72-.3-.66-4.23-5.97-5.59-7.79.72-.7 1.93-1.45 2.72-1.89m.25-.82s-2.73 1.37-3.75 2.67c0 0 5.5 7.38 5.82 8.08.32.7 1.5 1.06 2.01 1.62.48.55 4.24 6.48 5.03 6.48.03 0 .06 0 .08-.03.57-.5-3.7-7.47-4.41-8.45-.7-.98-.26-2.04-1.27-3.83-1.01-1.78-3.51-6.55-3.51-6.55Zm-10.14 7.6c.39.87 1.47 2.66 3.1 5.33l.72 1.19a149.67 149.67 0 0 0-3.76-3.41l-1.93-1.7c.8-.69 1.48-1.21 1.87-1.4m-2.13 1.62 1.26 2.23c.1.17 2.38 4.22 3.13 5.13.63.76 1.48 2.74 1.84 3.68.13.34.58 1.09 1.37 2.39.35.58.81 1.33 1.21 2.02-.24-.28-.52-.63-.84-1.06a53.08 53.08 0 0 0-3.59-4.2l-.18-.25-.33.07c-.17-.03-.67-.35-2.09-2.16-.89-1.12-3.61-4.04-4.64-5.14.95-.96 1.97-1.93 2.87-2.72m2.34-2.3c-1.18 0-6.05 5.02-6.05 5.02s3.93 4.15 5.01 5.52c1.02 1.29 1.98 2.38 2.55 2.38h.09s1.85 1.92 3.54 4.14c1.4 1.84 2.17 2.54 2.58 2.54.08 0 .15-.03.21-.09.32-.33-3.16-5.55-3.48-6.38-.32-.83-1.21-2.98-1.94-3.85a70.1 70.1 0 0 1-3.07-5.04s3.83 3.38 4.42 4.07c.56.65 1.86 2.34 2.26 2.34.02 0 .04 0 .06-.02.31-.22-5.59-9.19-5.95-10.46-.03-.12-.12-.17-.24-.17Zm-11.85 9.69c.55.77 1.68 3.64 2.25 5.09l.6 1.49c.3.71 1.15 2.12 2.06 3.61l.6 1-1.12-1.24a82.5 82.5 0 0 0-2.78-2.99c-1.47-1.44-3.23-3.22-3.95-3.94a13.79 13.79 0 0 1 2.34-3.01m.09-.67c-.93 0-3.19 3.77-3.19 3.77s2.38 2.41 4.29 4.29c1.85 1.82 5.85 6.63 6.39 6.63l.04-.01c.32-.32-3.55-6.09-4.21-7.66-.66-1.57-2.38-6.28-3.14-6.94a.26.26 0 0 0-.19-.07Z" class="cls-3"/>
    <path d="M33.29 55.37c.42.59.49 1.27.14 1.52s-.97-.03-1.39-.62c-.42-.59-.49-1.27-.14-1.52.34-.25.97.03 1.39.62Zm-11.25 9.17c.61.85.8 1.75.43 2.02-.37.27-1.17-.2-1.78-1.05-.61-.84-.8-1.75-.43-2.02.37-.27 1.17.2 1.77 1.04Z" class="cls-3"/>
    <path fill="#ceb891" d="M1.21 63.01a.61.61 0 0 1-.49-.97C14.77 43.31 41.6 31.22 41.87 31.1a.7.7 0 0 1 .25-.05h.02c5.18.15 8.94 2.19 9.1 2.27.21.11.33.34.31.58s-.17.44-.4.52C25.08 43.72 1.82 62.69 1.59 62.88a.62.62 0 0 1-.38.14Z"/>
    <path d="M42.13 31.66c5.1.14 8.82 2.2 8.82 2.2C24.47 43.29 1.21 62.41 1.21 62.41c14.12-18.82 40.92-30.75 40.92-30.75m0-1.21c-.17 0-.34.04-.49.1-1.11.49-27.24 12.28-41.39 31.13a1.21 1.21 0 0 0 1.73 1.67c.23-.19 23.41-19.1 49.38-28.35.45-.16.76-.57.8-1.04.04-.47-.2-.93-.62-1.15-.16-.09-4.04-2.2-9.37-2.35h-.03Z" class="cls-1"/>
    <path d="m48.59 34.69 2.04-.99a21.68 21.68 0 0 0-8.51-2.04S15.33 43.59 1.2 62.41c8.33-10.33 32.28-24.62 36.89-27.32 4.6-2.7 10.49-.4 10.49-.4Z" class="cls-3"/>
    <path fill="url(#linear-gradient-5)" d="M68.63 10.02c-1.3-.03-2.25-1.21-2.95-2.08-.2-.25-.38-.48-.55-.65l-.2-.2c-.67-.67-1.43-1.44-3.04-1.53h-.22c-.79 0-1.82.21-2.82.42-1.06.22-2.06.42-2.9.42-.45 0-.81-.06-1.12-.18a2.01 2.01 0 0 1-1.29-1.69c-.11-.83.21-1.8.71-2.18C56.41.73 59.83.61 60.82.61c.85 0 1.56.07 1.95.2a3 3 0 0 0 .86.07c.66 0 1.5-.06 2.4-.12.92-.06 1.87-.13 2.64-.13h.42c1.95.07 4.41 1.81 5.74 2.75l.63.44c.91.63 1.64 1.12 1.72 1.81a1 1 0 0 1-.27.82c-.32.36-.83.54-1.51.54s-1.52-.19-2.13-.48c-.03-.01-.18-.08-.67-.08-.68 0-1.55.12-2.14.22.18.87.15 1.9-.34 2.61-.33.49-.84.76-1.44.76h-.04Z"/>
    <path d="M60.82 1.22c.82 0 1.46.07 1.76.17.22.07.59.1 1.04.1 1.38 0 3.57-.25 5.04-.25h.39c1.88.07 4.52 2.01 5.63 2.79 1.11.78 2.27 1.44 1.75 2.02-.21.24-.61.33-1.06.33-.63 0-1.38-.19-1.86-.42-.21-.1-.54-.14-.93-.14-1.2 0-2.91.35-2.91.35.52 1.35.32 3.23-1.01 3.23h-.03c-1.36-.03-2.37-1.85-3.09-2.55-.71-.7-1.61-1.78-3.63-1.9h-.25c-1.68 0-4.14.84-5.72.84-.35 0-.65-.04-.89-.14-1.42-.57-.93-2.46-.45-2.82 1.68-1.26 4.38-1.62 6.21-1.62m.01-1.2c-1.34 0-4.69.18-6.93 1.86-.68.51-1.08 1.68-.95 2.74.13 1.01.74 1.8 1.67 2.17.38.15.82.23 1.35.23.9 0 1.98-.22 3.02-.44.97-.2 1.97-.41 2.7-.41h.18c1.39.08 2.03.72 2.65 1.35l.21.2c.13.13.31.35.5.59.77.96 1.83 2.27 3.4 2.3h.05c.8 0 1.48-.36 1.93-1.02.47-.69.6-1.59.53-2.44a10.5 10.5 0 0 1 1.45-.12c.33 0 .45.03.45.03.65.32 1.57.53 2.34.53 1.07 0 1.66-.4 1.96-.74.33-.37.48-.83.42-1.3-.12-.96-.98-1.55-1.98-2.23l-.4-.28-.22-.15C73.77 1.91 71.21.1 69.09.02h-.44c-.79 0-1.75.07-2.68.13-.89.06-1.72.12-2.36.12-.51 0-.66-.04-.68-.04-.6-.2-1.59-.23-2.12-.23Z" class="cls-13"/>
    <path d="M59.58 2.17c2.66.28 4.5.71 6.12.34 1.62-.37 10.8 2.45 10.34 3.78a.8.8 0 0 0 .39-.23c.52-.58-.64-1.24-1.75-2.02-1.11-.78-3.75-2.72-5.63-2.79-1.88-.07-5.52.45-6.48.14-.96-.31-5.53-.38-7.97 1.45-.19.14-.37.5-.45.92.59-.43 3.04-1.84 5.42-1.59Z" class="cls-3"/>
    <path fill="#703c16" d="M81.37 31c.44.8.92 1.58 1.55 2.23.67.7 1.51 1.21 2.39 1.6.29.13.66.09.83-.22.14-.26.09-.69-.22-.83a8 8 0 0 1-1.29-.69l-.25-.17-.08-.06.03.02-.13-.11-.43-.4c-.14-.14-.26-.29-.38-.44-.04-.04-.08-.11-.02-.03l-.1-.13-.18-.25c-.25-.37-.47-.75-.68-1.14-.15-.28-.56-.39-.83-.22s-.38.53-.22.83Zm4.26-1.13c1.1.76 2.25 1.51 3.55 1.89.3.09.67-.11.74-.42s-.1-.65-.42-.74c-.17-.05-.33-.1-.49-.17l-.13-.05c.06.02.03.01-.01 0l-.23-.11a19.96 19.96 0 0 1-2.39-1.44c-.26-.18-.68-.06-.83.22-.16.31-.06.63.22.83Zm19.93 4.95a12.58 12.58 0 0 1 6.31 8.87c.14.76 1.31.44 1.16-.32a13.72 13.72 0 0 0-6.87-9.59c-.68-.37-1.29.67-.61 1.04Zm.66 6.43c.17.1.34.21.5.33l.04.03.11.09.21.2.19.21.09.11c.06.08-.08-.11.03.03.11.15.21.31.3.47l.12.25c.02.04.03.07 0 0l.06.16a4.91 4.91 0 0 1 .2.79v.04l.01.14v.61a.6.6 0 0 0 .6.6.62.62 0 0 0 .6-.6 4.87 4.87 0 0 0-2.46-4.52c-.28-.16-.66-.06-.83.22s-.07.66.22.83ZM88.95 28.44c.37.26.78.45 1.15.71.12.09.33.1.47.06s.29-.15.36-.28c.07-.14.11-.31.06-.47s-.14-.27-.28-.36c-.37-.26-.78-.45-1.15-.71-.12-.08-.33-.1-.47-.06s-.29.15-.36.28c-.07.14-.11.31-.06.47s.14.27.28.36ZM75.88 47.02a4.54 4.54 0 0 0 2.17 3.35c1.11.72 2.43 1.12 3.73 1.35.32.06.65-.09.74-.42.08-.29-.1-.69-.42-.74a9.33 9.33 0 0 1-3.26-1.11c-.91-.55-1.63-1.38-1.75-2.42-.04-.32-.25-.6-.6-.6-.3 0-.64.28-.6.6Z"/>
    <path fill="none" stroke="#4c1a09" stroke-linecap="round" stroke-linejoin="round" stroke-width="1.75" d="M53.49 18.16s1.17 3.67 5.89 4.7c7.88 1.72 10.94-2.67 10.94-2.67"/>
  </g>
</svg>
