<svg xmlns="http://www.w3.org/2000/svg" xmlns:xlink="http://www.w3.org/1999/xlink" id="Layer_2" data-name="Layer 2" viewBox="0 0 117.76 104.66">
  <defs>
    <linearGradient id="linear-gradient" x1="76.63" x2="76.63" y1="94.22" y2="60.56" gradientUnits="userSpaceOnUse">
      <stop offset="0" stop-color="#dbffff"/>
      <stop offset="1" stop-color="#339ed3"/>
    </linearGradient>
    <linearGradient xlink:href="#linear-gradient" id="linear-gradient-2" x1="73.58" x2="73.58" y1="2.56" y2="12.1"/>
    <linearGradient id="linear-gradient-3" x1="88.17" x2="88.17" y1="259.78" y2="238.75" gradientTransform="rotate(-4.27 -2600.45 897.33)" gradientUnits="userSpaceOnUse">
      <stop offset="0" stop-color="#dbffff"/>
      <stop offset="1" stop-color="#1376a6"/>
    </linearGradient>
    <linearGradient xlink:href="#linear-gradient-3" id="linear-gradient-4" x1="72.88" x2="72.88" y1="179.43" y2="158.4" gradientTransform="rotate(4 1710.75 -658.54)"/>
    <linearGradient xlink:href="#linear-gradient-3" id="linear-gradient-5" x1="59.57" x2="59.57" y1="176.82" y2="155.63" gradientTransform="rotate(4.01 1691.07 -674.95)"/>
    <style>
      .cls-2{fill:#5b2307}.cls-4{fill:#fff}.cls-8{fill:#3c7bd6}.cls-10{stroke:#4c1a09;stroke-width:.6px}.cls-10,.cls-16{stroke-linecap:round;stroke-linejoin:round;fill:none}.cls-17{fill:#8e5424}.cls-19{fill:#b7eae8}.cls-20{fill:#4c1a09}.cls-22{fill:#a36731}.cls-23{fill:#5b0737}.cls-27{fill:#755b46}.cls-16{stroke:#592308;stroke-width:.55px}
    </style>
  </defs>
  <g id="Layer_1-2" data-name="Layer 1">
    <path d="M51.49 99.94a.94.94 0 0 1-.94-.74c-.23-.88.62-2.24 1.62-3.46l-3.71 1.76a113.7 113.7 0 0 1-4.13 1.93c-.34.14-.69.21-1.01.21-.8 0-1.46-.43-1.72-1.11-.28-.74-.02-1.59.68-2.22.59-.53 2.21-1.5 4.1-2.56-2.88 0-4.17-.42-4.29-1.38-.12-.98 1.22-1.69 2.52-2.03 2.33-.61 8.2-1.15 8.45-1.17 1.29-.14 2.62-.22 3.85-.22 5.1 0 5.46 1.15 5.58 1.52.38 1.22-1.42 2.51-3.5 4-.59.42-1.16.83-1.62 1.2-.4.32-.9.76-1.43 1.23-2.07 1.83-3.5 3.03-4.43 3.03Z" class="cls-27"/>
    <path d="M56.88 89.56c2.64 0 4.77.35 5 1.1.34 1.09-3.11 3.09-4.92 4.55-1.54 1.24-4.43 4.13-5.48 4.13-.18 0-.31-.09-.36-.29-.35-1.34 3.47-5.05 3.47-5.05-2.51 1.01-8.8 4.17-10.51 4.88a2 2 0 0 1-.78.17c-1.2 0-1.72-1.32-.64-2.28 1.3-1.16 8.51-4.93 8.46-4.93s-3.92 1.31-3.92 1.31h-.75c-5.59 0-3.93-1.64-1.71-2.22 2.31-.6 8.35-1.16 8.35-1.16 1.29-.14 2.59-.21 3.79-.21m0-1.21c-1.25 0-2.61.08-3.92.22-.23.02-6.14.57-8.52 1.19-2.01.52-3.11 1.53-2.96 2.69.15 1.16 1.3 1.63 2.8 1.81a17.32 17.32 0 0 0-2.41 1.61c-.89.8-1.22 1.9-.84 2.89a2.4 2.4 0 0 0 2.28 1.5c.41 0 .83-.09 1.24-.26.77-.32 2.34-1.07 4.17-1.95l1.69-.81c-.41.78-.6 1.51-.44 2.11.19.72.79 1.19 1.53 1.19 1.1 0 2.38-1.02 4.83-3.18a31.6 31.6 0 0 1 3-2.39c2.37-1.69 4.24-3.03 3.72-4.67-.28-.91-1.24-1.95-6.15-1.95Z" class="cls-20"/>
    <path d="M44.54 94.88s2.19.64 2 3.28m1.66-5.05s3.18-.51 3.06 2.72m-5.36-5.59s1.59.87.83 3.28m5.92 1.85s2.23-.6 3.02 1.83m-5.74-7.64c.11.19 1.66.15 1.85 1.92 0 0 2.78-.66 3.41 1.78 0 0 2.78-.76 3.31 1.39" class="cls-10"/>
    <path d="M74.12 104.05c-1 0-1.29-.64-1.36-.92-.51-1.87 2.48-4.52 4.93-6.33-.59.1-1.3.23-2.04.38-1.57.3-3.19.61-4.01.61-.22 0-.89 0-1.04-.57-.16-.6.45-1.01 1.14-1.41 3.33-1.93 11.16-3.52 11.97-3.68.73-.3 7.53-3.02 10.42-3.02.8 0 1.32.2 1.59.62.16.25.3.68.01 1.33-1.28 2.91-6.53 11.33-9.48 11.33-.14 0-.28-.02-.41-.05a1.45 1.45 0 0 1-1.08-.97c-.29-.86.2-2.11.8-3.21l-.99.62c-4.59 2.88-8.55 5.26-10.47 5.26Z" class="cls-27"/>
    <path d="M94.14 89.72c.93 0 1.4.3 1.05 1.11-1.41 3.2-6.54 10.97-8.93 10.97a1 1 0 0 1-.25-.03c-2.26-.6 1.51-5.43 1.51-5.43-1.96.92-10.68 7.11-13.4 7.11-.42 0-.69-.14-.78-.47-.68-2.49 7.42-7.52 7.42-7.52l-2.24.63c-1.58.15-5.52 1.11-6.87 1.11-.65 0-.69-.22.41-.86 3.39-1.96 11.85-3.62 11.85-3.62s7.33-2.99 10.24-2.99m0-1.21c-2.94 0-9.43 2.57-10.59 3.04-1.08.22-8.75 1.8-12.1 3.74-.6.35-1.72.99-1.43 2.09.1.38.45 1.02 1.62 1.02.81 0 2.22-.26 3.74-.55-2.02 1.75-3.67 3.77-3.22 5.44.23.85.96 1.36 1.94 1.36 1.99 0 5.6-2.11 10.14-4.95a3.13 3.13 0 0 0-.05 1.86c.23.68.76 1.17 1.5 1.36.18.05.37.07.56.07 3.62 0 9.13-9.63 10.03-11.7.39-.9.19-1.53-.06-1.9-.39-.59-1.09-.9-2.1-.9Z" class="cls-20"/>
    <path d="M74.04 100.16s3.42-.55 4.07 2.52m-1.1-5.44s5.79-1.41 6.24 2.36m-8.81-4.98s1.21.96.45 2.62m10.22 1.71s2.97-2.31 5.53-.25m-10.51-5.14s1.46-.35 1.86 1.06c0 0 4.33-1.31 6.24.65 0 0 3.72-2.47 5.53-.65" class="cls-10"/>
    <path d="M58.6 92.45c-1.38 0-2.71-.24-3.94-.7-6.49-2.45-6.8-9.38-6.8-9.45 0-.3.2-.56.5-.62.75-.13 1.53-.2 2.34-.2 8.23 0 16.72 6.67 17.08 6.96.15.12.23.3.23.49s-.1.36-.25.48c-.17.12-4.25 3.04-9.15 3.04Z" class="cls-19"/>
    <path d="M50.69 82.09c8.11 0 16.7 6.83 16.7 6.83s-4.03 2.93-8.8 2.93c-1.21 0-2.47-.19-3.73-.66-6.19-2.34-6.41-8.9-6.41-8.9.74-.13 1.48-.19 2.23-.19m0-1.21c-.84 0-1.66.07-2.44.2-.59.1-1.02.63-1 1.23.01.3.33 7.4 7.19 9.99 1.3.49 2.7.74 4.15.74 5.1 0 9.33-3.03 9.51-3.16a1.2 1.2 0 0 0 .04-1.92c-.36-.29-9.02-7.09-17.46-7.09Z" class="cls-8"/>
    <path d="M75.98 90.42c-1.21 0-2.45-.06-3.66-.17-23.9-2.28-33.94-15.16-34.85-23.27-.44-3.89.05-7.3.7-9.83-.46.37-1.12.81-1.73.81-.35 0-.65-.13-.88-.38-.37-.4-.5-1.07-.42-2.09.18-2.19 1.59-4.49 2.79-6.09l-.07.04c-.81.45-1.45.8-2.01.8-.39 0-.63-.17-.77-.31-.34-.36-.36-.89-.34-1.26.09-2.17 2.82-4.22 3.91-4.95-.54-1.72-2.19-8.07-.88-17.24C39 17.87 45.63 11.65 48.39 9.39c-1.2-.24-2.25-.76-2.41-1.63-.1-.54.12-1.32 1.72-1.97 1-.41 2.28-.65 3.53-.79-.91-.37-1.6-.83-1.72-1.4-.08-.36 0-.9.81-1.4a4.2 4.2 0 0 1 2.26-.55c1.56 0 3.33.55 4.68 1.08-.28-.54-.44-1.07-.29-1.48a1 1 0 0 1 .83-.64l.23-.02c1.37 0 3.33 1.89 4.04 2.62l1.19-.02c18.93 0 27.15 11.83 30.72 21.75 2.27 6.31 7.07 9.25 12.62 12.67 6.03 3.7 9.55 9.78 9.81 10.46.15.39.02.66-.07.79-.11.16-.32.34-.73.34h-.14c1.36 2.68 1.67 6.38 1.67 7.14 0 .47-.34.81-.81.81-.12 0-.24-.02-.38-.06.98 3.15.63 7.21-.19 8.03-.63.63-3.49 5.69-3.66 6.33-.16.96-14.62 18.97-36.12 18.97Z" class="cls-22"/>
    <path d="M58.03 1.21c1.35 0 3.78 2.63 3.78 2.63.49-.02.96-.02 1.44-.02 21 0 27.89 15.05 30.15 21.35 2.31 6.44 7.14 9.46 12.88 12.98 5.73 3.52 9.26 9.36 9.56 10.16.09.23-.02.31-.23.31-.51 0-1.58-.51-1.58-.51 2.11 2.41 2.52 7.55 2.52 8.25 0 .15-.08.21-.21.21-.48 0-1.6-.81-1.6-.81 1.71 3.02 1.31 8.25.6 8.95-.7.7-3.72 6.04-3.82 6.64-.1.57-14.28 18.48-35.53 18.48a40.1 40.1 0 0 1-3.6-.17c-23.24-2.21-33.4-14.69-34.3-22.74-.91-8.05 2.31-14.08 2.31-14.08-1.41 1.41-2.11 3.42-2.11 3.42s-1.07 1.11-1.82 1.11c-.47 0-.81-.43-.69-1.81.3-3.62 4.33-7.75 4.33-7.75-1.7.42-3.4 1.84-4.22 1.84-.35 0-.54-.25-.51-.94.1-2.31 4.02-4.73 4.02-4.73s-2.51-6.84-1.01-17.4c1.51-10.56 11.57-17.6 11.57-17.6-3.02-.1-4.73-1.51-2.01-2.61 1.99-.81 5.23-.92 6.82-.92l.93.01s-7.65-1.11-5.03-2.72a3.7 3.7 0 0 1 1.94-.46c2.83 0 6.51 1.98 6.51 1.98s-2.51-2.82-1.21-3.02l.14-.01m0-1.21c-.11 0-.22 0-.32.02-.63.1-1.1.47-1.3 1.03a1.6 1.6 0 0 0-.1.7c-1.18-.39-2.51-.7-3.72-.7-1.02 0-1.88.22-2.57.64-1.16.72-1.18 1.58-1.08 2.03.04.19.11.54.53.94-.71.14-1.4.33-1.99.57-2.07.84-2.19 2.01-2.08 2.63.14.78.76 1.4 1.75 1.8-3.15 2.76-8.82 8.74-9.97 16.73-1.23 8.64.14 14.83.78 17.07-1.35.96-3.71 2.95-3.81 5.18-.01.28-.05 1.12.51 1.7.31.32.74.5 1.2.5.13 0 .27-.01.4-.04a11.3 11.3 0 0 0-1.72 4.63c-.1 1.2.08 2.01.58 2.55.34.37.81.57 1.32.57.28 0 .56-.06.82-.16a27.7 27.7 0 0 0-.4 8.64c.93 8.3 11.13 21.49 35.39 23.8 1.23.12 2.48.18 3.72.18 11.38 0 20.64-5.04 26.41-9.26 6-4.39 10.16-9.32 10.31-10.23 0 .02 0 .06-.02.09.23-.71 2.93-5.47 3.51-6.08.95-.95 1.32-4.66.56-7.84.59-.17 1-.7 1-1.36 0-.05-.13-3.68-1.4-6.7.24-.13.4-.3.49-.43.26-.38.31-.87.14-1.34-.46-1.21-4.28-7.22-10.06-10.77-5.46-3.35-10.18-6.25-12.37-12.36C90.93 14.65 82.55 2.6 63.27 2.6h-.94c-1.01-1-2.82-2.6-4.3-2.6Z" class="cls-2"/>
    <path d="M111.51 71.33c.1-.6 3.12-5.94 3.82-6.64.7-.7 1.11-5.94-.6-8.95 0 0 1.81 1.31 1.81.6s-.4-5.83-2.52-8.25c0 0 2.11 1.01 1.81.2-.3-.8-3.82-6.64-9.56-10.16-2.93-1.8-5.62-3.47-7.86-5.53s7.95 8.44 7.55 16.42c-.4 7.98-4.07 4.93-4.07 4.93l-6.59-3.54s2.22 5.97-1.3 8.02c-3.52 2.04-4.53 0-4.53 0s1.21 3.85-3.32 4.86c-4.53 1.01-16.4 1.01-21.63 0s-12.15-3.22-12.81-7.04c-.67-3.82-1.39-4.42-1.39-4.42s-5.11 6.87-5.71 3.53c-.6-3.34.35-5.84.35-5.84s-4.27 2.7-3.82.89a21.9 21.9 0 0 1 1.46-3.82s-1.79-.81-3.44-2.47c-.82.54-3.72 2.6-3.81 4.59-.1 2.31 2.31-.3 4.73-.9 0 0-4.03 4.12-4.33 7.75-.3 3.62 2.52.7 2.52.7s.7-2.01 2.11-3.42c0 0-3.22 6.04-2.31 14.08.91 8.05 11.07 20.52 34.3 22.74 23.24 2.21 39.03-17.71 39.13-18.31Z" class="cls-17"/>
    <path fill="#bd852d" d="M100.45 67.91c-10.76-1.41-31.19-9.35-28.67-19.62 2.52-10.26 10.56-7.34 13.48-20S75.1 8.05 64.94 9.36c-10.16 1.31-15.19 11.27-15.59 11.97-.4.7-5.33.7-7.24.3-1.87-.39-1.1-2.56-1.07-2.65a21.81 21.81 0 0 0-2.65 7.58c-1.51 10.56 1.01 17.4 1.01 17.4s-3.92 2.41-4.02 4.73c-.1 2.31 2.31-.3 4.73-.9 0 0-4.03 4.12-4.33 7.75-.3 3.62 2.52.7 2.52.7s.7-2.01 2.11-3.42c0 0-3.22 6.04-2.31 14.08.91 8.05 11.07 20.52 34.3 22.74 19.48 1.85 33.72-11.84 37.88-16.67-1.91-2.55-5.28-4.47-9.81-5.06Z"/>
    <path fill="#91682c" d="M75.02 89.79c.45.01.9.02 1.34.01.24 0 .48 0 .72-.02a25.11 25.11 0 0 0 1.94-.11c.43-.03.85-.08 1.28-.13l.6-.07c.56-.07 1.11-.16 1.65-.25.06 0 .12-.02.17-.03.61-.11 1.2-.23 1.8-.37l.48-.12 1.27-.32.58-.17a49.59 49.59 0 0 0 1.71-.54l1.15-.41.49-.18a57.53 57.53 0 0 0 3.13-1.33l.29-.14 1.19-.59.44-.23 1-.54.45-.25.97-.57.39-.24 1.09-.69.2-.13c.43-.28.85-.56 1.26-.85l.18-.13.99-.71.35-.26.76-.58.38-.29.69-.56.35-.29.7-.59.27-.23.88-.78.23-.22.59-.54.34-.33.41-.4.35-.35.33-.34.34-.35.26-.27.35-.37.06-.07.84-.94c-1.91-2.55-5.28-4.47-9.81-5.06a59.2 59.2 0 0 1-15.22-4.45c-5.05.83-15.79.77-20.7-.18-5.23-1.01-12.15-3.22-12.81-7.04-.67-3.82-1.39-4.42-1.39-4.42s-5.11 6.87-5.71 3.53c-.6-3.34.35-5.84.35-5.84s-4.27 2.7-3.82.89a21.9 21.9 0 0 1 1.46-3.82s-1.79-.81-3.44-2.47l-.17.11a.22.22 0 0 1-.08.05l-.21.15-.21.15-.09.07-.23.17a4.24 4.24 0 0 0-.34.28l-.1.09-.26.22-.09.08-.3.28-.06.05a9.2 9.2 0 0 0-.96 1.11l-.09.13-.17.27-.08.14-.13.26-.06.15c-.04.09-.06.19-.09.28l-.04.13a2.9 2.9 0 0 0-.06.41c-.1 2.31 2.31-.3 4.73-.9 0 0-4.03 4.12-4.33 7.75-.3 3.62 2.52.7 2.52.7s.7-2.01 2.11-3.42c0 0-3.22 6.04-2.31 14.08.91 8.05 11.07 20.52 34.3 22.74a45.72 45.72 0 0 0 2.63.15Z"/>
    <path fill="none" stroke="#5b2307" stroke-linecap="round" stroke-linejoin="round" stroke-width="1.21" d="M57.29 32.85s.1-2.16-1.15-3.27"/>
    <path fill="#f7d33c" d="M69.41 35.67c-5.62 0-10.2-5.21-10.2-11.62s4.57-11.62 10.2-11.62 10.2 5.21 10.2 11.62-4.57 11.62-10.2 11.62Z"/>
    <path d="M69.41 13.04c5.3 0 9.59 4.93 9.59 11.02s-4.29 11.02-9.59 11.02-9.59-4.93-9.59-11.02 4.29-11.02 9.59-11.02m0-1.21c-5.95 0-10.8 5.48-10.8 12.22s4.84 12.22 10.8 12.22 10.8-5.48 10.8-12.22-4.84-12.22-10.8-12.22Z" class="cls-2"/>
    <path fill="#ed9935" d="M69.41 13.04c-5.3 0-9.59 4.93-9.59 11.02 0 2.73.87 5.22 2.3 7.14.02-.06 2.04-5.63 7.87-5.83 5.32-.18 6.46 4.51 6.59 5.99a11.92 11.92 0 0 0 2.42-7.3c0-6.08-4.29-11.02-9.59-11.02Z"/>
    <path d="M74.89 27.41c0 4.14-2.92 7.49-6.52 7.49s-6.52-3.35-6.52-7.49 2.92-7.49 6.52-7.49 6.52 3.35 6.52 7.49Z" class="cls-20"/>
    <path fill="#c4964d" stroke="#5b2307" stroke-linecap="round" stroke-linejoin="round" stroke-width="1.21" d="M66.62 37.45s1.28-3.32 5.89-4.15c4.6-.83 6.15 1.32 6.15 1.32"/>
    <path d="M63.34 15.64c-1.71 1.55-2.08 3.93-.83 5.3 1.25 1.37 3.64 1.22 5.35-.33 1.71-1.55 2.08-3.93.83-5.3-1.25-1.37-3.65-1.22-5.35.33ZM75.7 29.69c0 .38-.67.69-1.5.69s-1.5-.31-1.5-.69.67-.69 1.5-.69 1.5.31 1.5.69Z" class="cls-4"/>
    <path d="M85.28 93.99c-3.08 0-4.42-1.18-4.94-1.87-.42.02-1.21.05-2.28.05-4.76 0-14.03-.53-22.61-4.11-9.68-4.03-11.77-6.52-13.03-8.01-.27-.32-.48-.57-.71-.77-1.1-.93-1.45-2.19-1.69-3.03-.06-.21-.14-.5-.19-.58l-.1-.09c-2.44-2.27-3.65-4.62-3.6-6.96.01-.6 0-1.27-.01-1.96-.05-2.64-.11-5.38 1.08-6.59.4-.41.91-.62 1.5-.62.29 0 .6.05.92.15.26.08.44.33.43.61-.04.77.12 2.96 1.26 3.78 1.61 1.17 5.88 3.75 8.05 3.75h.22c1.79-.17 1.79-.68 1.79-1.44 0-.97.44-3.58 2.42-4.06.22-.05.43-.08.63-.08 1.34 0 1.84 1.13 2.05 1.61l.08.18c.04 0 .28.11.47.2.73.34 1.96.91 2.94 2.05 1.23 1.43 4.27 3.52 5.98 4.29.93.42 1.44.51 1.71.51.15 0 .21-.03.23-.04.06-.26.1-.73.14-1.23.19-2.16.3-2.79.76-3.06l.43-.31c.57-.44.92-.68 1.28-.68.06 0 .17.02.23.04.24.08.45.15 1.35 2.27a3.3 3.3 0 0 1 2.9-.22c2.09.82 4.78 1.7 5.5 1.7l.64-.02c.97 0 6.04.14 6.81.53 1.15.57 2.03.93 2.43 1.04l.06-.08c1-1.5 2.18-3.08 3.38-3.34l1.6-.37c.34-1.34.71-3.42.45-4.21-.5-1.49-1.16-3.49.3-4.73.37-.31.81-.47 1.29-.47 1.34 0 2.71 1.28 3.55 2.48 1.09 1.56 1.69 2.41 1.36 3.4-.12.35-.21 1.72-.25 2.8a15.59 15.59 0 0 0 5.44-.01c-.04-.87.06-2.42 1.27-2.87a6.08 6.08 0 0 1 2.08-.38c.52 0 .89.07 1.11.22l.27.2c-.37-3.96.2-4.24.49-4.39.2-.1.42-.15.65-.15.65 0 1.39.39 2.21 1.15.74.69 1.7 2.34 1.51 3.34-.16.88-1.32 2.85-2.25 4.07-.93 1.21-1.26 2.98-1.26 4.12s-1.32 2.22-2.38 3.09c-.35.29-.79.64-.89.79-.09.14-9.58 13.91-18.19 16.91a21.69 21.69 0 0 1-6.89 1.39ZM55.53 67.04c-.45 0-.91.33-.91 1.08 0 1.46.62 4.95 2.16 4.95h.13c.7-.08 1.26-.64 1.47-1.47.29-1.17-.15-2.93-2.25-4.36a1.04 1.04 0 0 0-.6-.19Z" class="cls-19"/>
    <path d="M97.44 58.43c1.04 0 2.25 1.07 3.05 2.22 1.06 1.51 1.51 2.19 1.28 2.87-.23.68-.3 3.47-.3 3.47s1.27.37 3.26.37c.99 0 2.17-.09 3.45-.37 0 0-.38-2.34.83-2.79a5.39 5.39 0 0 1 1.87-.34c.39 0 .67.05.77.12.23.15 1.36 1.08 1.36 1.08s-.6-4.93 0-5.23a.85.85 0 0 1 .38-.09c.55 0 1.22.45 1.8.99.73.68 1.46 2.11 1.33 2.79-.13.68-1.13 2.5-2.14 3.81-1.01 1.32-1.38 3.21-1.38 4.49s-2.72 2.86-3.17 3.54c-.45.68-9.66 13.81-17.88 16.67-2.87 1-5.05 1.36-6.69 1.36-3.07 0-4.28-1.25-4.62-1.89 0 0-.96.07-2.59.07-4.42 0-13.78-.48-22.38-4.06-11.77-4.91-12.15-7.47-13.58-8.68-1.43-1.21-1.43-3.17-1.81-3.55-.38-.38-3.62-3.09-3.55-6.64.07-3.26-.63-8.57 1.97-8.57.22 0 .47.04.75.12 0 0-.15 3.09 1.51 4.3 1.6 1.16 5.99 3.86 8.4 3.86l.27-.01c2.34-.23 2.34-1.21 2.34-2.04s.38-3.09 1.96-3.47c.18-.04.34-.06.49-.06 1.16 0 1.42 1.17 1.62 1.5.23.37 2.11.75 3.47 2.33 1.36 1.58 4.53 3.7 6.19 4.45.83.38 1.49.57 1.96.57s.75-.19.83-.57c.15-.75.23-3.62.6-3.85.36-.22 1.13-.91 1.4-.91h.04c.23.08 1.28 2.64 1.28 2.64s.75-.8 1.93-.8c.31 0 .65.06 1.01.2 1.68.66 4.77 1.74 5.72 1.74h.09l.56-.01c1.68 0 6.01.21 6.54.47.54.27 2.33 1.14 2.88 1.14.07 0 .12-.01.14-.04.23-.26 1.89-3.13 3.24-3.43 1.36-.3 1.96-.45 1.96-.45s.98-3.55.53-4.9c-.45-1.36-1.04-3.09.12-4.08.27-.23.58-.33.9-.33M56.77 73.69l.19-.01c2.33-.25 3.4-4.28-.5-6.93-.3-.2-.62-.3-.94-.3-.79 0-1.52.6-1.52 1.68 0 1.47.59 5.55 2.77 5.55m40.66-16.46c-.62 0-1.2.21-1.68.62-1.78 1.5-.98 3.91-.5 5.35.18.54-.03 2.13-.36 3.55l-1.23.28c-1.32.29-2.48 1.73-3.55 3.3-.45-.17-1.14-.47-1.91-.86-1.04-.52-7.02-.59-7.08-.59-.3 0-.53 0-.66.02-.54 0-3.01-.78-5.26-1.66a3.93 3.93 0 0 0-2.82-.03c-.81-1.81-1.06-1.89-1.46-2.03a1.48 1.48 0 0 0-.42-.07c-.58 0-1.05.36-1.64.81-.14.11-.28.22-.38.27-.75.45-.86 1.35-1.05 3.52l-.06.68a5.87 5.87 0 0 1-1.16-.42c-1.65-.75-4.59-2.76-5.77-4.14-1.06-1.24-2.36-1.84-3.14-2.21l-.29-.14c-.24-.54-.91-1.91-2.58-1.91-.25 0-.51.03-.77.1-2.28.54-2.89 3.28-2.89 4.64 0 .58 0 .71-1.25.84h-.16c-1.76 0-5.6-2.11-7.69-3.63-.91-.66-1.04-2.63-1.01-3.27a1.22 1.22 0 0 0-.85-1.21 3.66 3.66 0 0 0-1.1-.18c-.75 0-1.42.28-1.93.8-1.37 1.4-1.31 4.26-1.26 7.03.01.69.03 1.35.01 1.93-.05 2.53 1.22 5.02 3.79 7.42l.11.39c.24.85.64 2.28 1.88 3.33.19.16.39.4.64.69 1.29 1.53 3.44 4.09 13.25 8.18 8.68 3.62 18.04 4.16 22.84 4.16.87 0 1.55-.02 2.01-.04.71.79 2.22 1.86 5.21 1.86 1.99 0 4.38-.48 7.09-1.42 8.78-3.06 18.4-17 18.49-17.14.08-.1.48-.42.77-.66 1.16-.95 2.61-2.12 2.61-3.55 0-1.13.35-2.73 1.14-3.75.99-1.29 2.18-3.32 2.36-4.33.24-1.27-.85-3.11-1.7-3.89-.94-.87-1.82-1.32-2.63-1.32-.33 0-.64.07-.92.21-.51.25-1.11.56-.9 3.96a6.63 6.63 0 0 0-2.99.37c-1.19.44-1.63 1.69-1.67 2.92a14.44 14.44 0 0 1-4.2.02c.05-.95.13-1.86.2-2.11.43-1.27-.32-2.33-1.44-3.94-.45-.64-2.07-2.73-4.04-2.73ZM56.77 72.47c-.79 0-1.56-2.49-1.56-4.35 0-.22.05-.48.31-.48.09 0 .18.03.26.09 1.85 1.25 2.24 2.74 2 3.71-.11.45-.42.96-.95 1.02h-.07Z" class="cls-8"/>
    <path fill="url(#linear-gradient)" d="M113.02 59.82c-.6.3 0 5.23 0 5.23s-1.13-.93-1.36-1.08c-.23-.15-1.43-.23-2.64.23-1.21.45-.83 2.79-.83 2.79-2.6.56-4.76.36-5.88.18s.49 3.97-1.19 6.24c-1.68 2.26-13.25 4.23-17.88 6.79-4.63 2.57-16.89 1.06-25.55-2.11-8.67-3.17-12.65-5.66-13.52-11.58a31.56 31.56 0 0 1-3.21-2c-1.66-1.21-1.51-4.3-1.51-4.3-3.47-1.06-2.64 4.9-2.72 8.45-.08 3.55 3.17 6.26 3.55 6.64.38.38.38 2.34 1.81 3.55 1.43 1.21 1.81 3.77 13.58 8.68 11.77 4.9 24.97 4 24.97 4 .53.98 3.09 3.4 11.32.53 8.22-2.87 17.43-16 17.88-16.67.45-.68 3.17-2.26 3.17-3.54s.38-3.17 1.38-4.49c1.01-1.32 2.01-3.14 2.14-3.81.13-.68-.6-2.11-1.33-2.79-.73-.68-1.58-1.21-2.19-.9Z"/>
    <path d="M97.44 59.03c.7 0 1.75.81 2.56 1.96.95 1.36 1.33 1.95 1.2 2.33-.24.73-.32 3.16-.33 3.64 0 .27.17.52.44.6.06.02 1.38.39 3.43.39 1.2 0 2.4-.13 3.58-.38a.61.61 0 0 0 .47-.69c-.09-.58-.11-1.92.45-2.13.52-.19 1.12-.3 1.66-.3.25 0 .41.03.47.04.2.14.85.67 1.27 1.02a.62.62 0 0 0 .67.07.6.6 0 0 0 .31-.6c-.22-1.82-.35-4-.2-4.64.13 0 .58.08 1.38.83.68.63 1.22 1.87 1.15 2.24-.09.49-.98 2.2-2.02 3.56a8.43 8.43 0 0 0-1.51 4.86c0 .57-1.26 1.6-1.94 2.15-.52.42-.93.76-1.13 1.06-.09.13-9.35 13.57-17.58 16.44-2.52.88-4.7 1.32-6.49 1.32-3.09 0-3.95-1.31-4.09-1.57a.6.6 0 0 0-.53-.32h-.04s-.96.06-2.55.06c-4.67 0-13.76-.52-22.15-4.02-9.41-3.92-11.38-6.27-12.57-7.67a6.85 6.85 0 0 0-.86-.91 4.6 4.6 0 0 1-1.3-2.43c-.14-.49-.23-.84-.47-1.08l-.15-.15c-2.18-2.03-3.26-4.06-3.22-6.05.01-.62 0-1.29-.01-2.01-.04-2.17-.1-4.87.74-5.72a.84.84 0 0 1 .64-.25h.15c.03 1.01.28 3.23 1.76 4.3 1.42 1.03 6.07 3.98 8.76 3.98.11 0 .23 0 .33-.02 2.66-.26 2.88-1.5 2.88-2.64 0-.79.38-2.62 1.5-2.88.13-.03.25-.05.35-.05.47 0 .68.29.95.89l.16.32c.17.28.5.44 1 .67.69.32 1.72.8 2.53 1.74 1.46 1.7 4.76 3.87 6.4 4.61a5.6 5.6 0 0 0 2.21.62c.76 0 1.29-.39 1.42-1.05.06-.28.1-.76.15-1.32.06-.65.16-1.84.29-2.2l.43-.31.37-.27c.24.48.63 1.35.94 2.11.08.19.25.32.45.36l.11.01c.16 0 .32-.07.44-.18 0 0 .61-.62 1.49-.62.26 0 .53.05.79.16.05.02 4.56 1.78 5.94 1.78h.14l.5-.01c2 0 5.79.22 6.27.4 1.1.55 2.53 1.2 3.15 1.2.32 0 .5-.14.6-.25.05-.05.15-.2.28-.41 1.16-1.75 2.05-2.7 2.63-2.83 1.37-.3 1.98-.46 1.98-.46a.62.62 0 0 0 .44-.42c.11-.38 1.02-3.77.51-5.29s-.83-2.73-.05-3.39a.75.75 0 0 1 .51-.19M56.82 74.29l.26-.01c1.2-.13 2.19-1.06 2.51-2.38.39-1.57-.13-3.88-2.74-5.65a2.3 2.3 0 0 0-1.28-.4c-1.05 0-2.12.79-2.12 2.29 0 1.6.62 6.16 3.37 6.16m40.66-15.85c-.32 0-.63.1-.9.33-1.16.98-.57 2.72-.12 4.08.45 1.36-.53 4.9-.53 4.9s-.6.15-1.96.45c-1.36.3-3.02 3.17-3.24 3.43-.02.03-.07.04-.14.04-.55 0-2.34-.87-2.88-1.14-.52-.26-4.86-.47-6.54-.47l-.56.01h-.09c-.95 0-4.04-1.08-5.72-1.74-.36-.14-.7-.2-1.01-.2-1.17 0-1.93.8-1.93.8s-1.06-2.57-1.28-2.64h-.04c-.27 0-1.04.69-1.4.91-.38.23-.45 3.09-.6 3.85-.08.38-.36.57-.83.57s-1.13-.19-1.96-.57c-1.66-.75-4.83-2.87-6.19-4.45-1.36-1.59-3.24-1.96-3.47-2.33-.2-.33-.46-1.5-1.62-1.5-.15 0-.31.02-.49.06-1.58.38-1.96 2.64-1.96 3.47s0 1.81-2.34 2.04l-.27.01c-2.41 0-6.8-2.7-8.4-3.86-1.66-1.21-1.51-4.3-1.51-4.3a2.7 2.7 0 0 0-.75-.12c-2.59 0-1.9 5.31-1.97 8.57-.08 3.55 3.17 6.26 3.55 6.64.38.38.38 2.34 1.81 3.55 1.43 1.21 1.81 3.77 13.58 8.68 8.59 3.58 17.95 4.06 22.38 4.06 1.63 0 2.6-.07 2.6-.07.34.64 1.55 1.89 4.62 1.89 1.65 0 3.83-.36 6.69-1.36 8.22-2.87 17.43-16 17.88-16.67.45-.68 3.17-2.26 3.17-3.54s.38-3.17 1.38-4.49c1.01-1.32 2.01-3.14 2.14-3.81.13-.68-.6-2.11-1.33-2.79-.58-.54-1.25-.99-1.8-.99a.79.79 0 0 0-.38.09c-.6.3 0 5.23 0 5.23s-1.13-.93-1.36-1.08c-.1-.07-.38-.12-.77-.12-.51 0-1.19.09-1.87.34-1.21.45-.83 2.79-.83 2.79-1.28.28-2.46.37-3.45.37-1.99 0-3.26-.37-3.26-.37s.08-2.79.3-3.47c.23-.68-.23-1.36-1.28-2.87-.81-1.15-2.01-2.22-3.05-2.22ZM56.82 73.7c-2.17 0-2.77-4.09-2.77-5.55 0-1.08.72-1.68 1.52-1.68.32 0 .64.1.94.3 3.9 2.65 2.83 6.68.5 6.93l-.19.01Z" class="cls-19"/>
    <path d="M102.88 67.24c-.88-.11-1.4-.26-1.4-.26s.08-2.79.3-3.47c.23-.68-.23-1.36-1.28-2.87-1.06-1.51-2.79-2.87-3.95-1.89-1.16.98-.57 2.72-.12 4.08.45 1.36-.53 4.9-.53 4.9s-.6.15-1.96.45c-1.36.3-3.02 3.17-3.24 3.43-.23.26-2.41-.79-3.02-1.09-.6-.3-6.26-.53-7.09-.45-.83.08-4.07-1.06-5.81-1.74-1.74-.68-2.94.6-2.94.6s-1.06-2.57-1.28-2.64c-.23-.08-1.06.68-1.43.9-.38.23-.45 3.09-.6 3.85s-1.13.75-2.79 0c-1.66-.75-4.83-2.87-6.19-4.45-1.36-1.59-3.24-1.96-3.47-2.33-.23-.37-.53-1.82-2.11-1.44-1.58.38-1.96 2.64-1.96 3.47s0 1.81-2.34 2.04c-2.34.23-7.02-2.64-8.68-3.85-1.66-1.21-1.51-4.3-1.51-4.3a2.6 2.6 0 0 0-.78-.12c-1.02 6.45 8.55 8.55 9.72 9.04 1.17.5 3.66-.9 3.66-.9s1.01-3.62 2.11-4.02c1.11-.4 1.51 1.51 2.19 1.51s4.3 2.72 6.41 4.83c2.11 2.11 6.19 2.51 6.19 2.51s.8-1.81 1.42-3.12c.62-1.31 2.9.9 3.21.9s1.71-.7 3.04.2c1.33.91 5 .2 7.82.5 2.82.3 6.34 2.01 6.34 2.01s1.41-1.51 2.51-2.92c1.11-1.41 3.32-1.21 3.32-1.21s1.21-5.13.9-6.84c-.31-1.71-.45-4.1 1.61-2.21 2.06 1.89 1.11 7.24 1.11 7.24l2.63-.37Z" class="cls-4"/>
    <path fill="#b7eae8" stroke="#3c7bd6" stroke-linecap="round" stroke-linejoin="round" stroke-width="1.21" d="M101.48 52.07c-1.53 0-3.78-.53-3.95 0s3.6 4.54 4.54 5.43c.94.89 3.89.3 3.89-1.53s-1.89-3.89-4.48-3.89Z"/>
    <path fill="url(#linear-gradient-2)" d="M76.3 13.44a1.7 1.7 0 0 1-.38-.04c-1.27-.26-2-1.6-2.53-2.57a6.43 6.43 0 0 0-.43-.73l-.16-.23c-.54-.78-1.15-1.67-2.72-2.05a8.88 8.88 0 0 0-1.89-.16c-.38 0-.77 0-1.17.02l-1.17.02c-1.06 0-2.13-.06-2.83-.5a2.02 2.02 0 0 1-.97-1.89c.04-.83.53-1.74 1.09-2.02a9.01 9.01 0 0 1 4-.79c2.07 0 4.04.46 4.66.8.41.22 1.96.39 3.22.53 1.09.12 2.22.25 3.03.43 1.91.42 4.02 2.58 5.16 3.74l.53.53c.79.78 1.41 1.4 1.37 2.09a.99.99 0 0 1-.42.76 1.6 1.6 0 0 1-1.03.31 5 5 0 0 1-2.56-.91c-.22-.16-1.19-.34-2.79-.36.02.83-.16 1.75-.68 2.37-.35.43-.82.65-1.34.65Z"/>
    <path d="M67.15 3.1c1.98 0 3.84.44 4.37.73.89.48 4.56.61 6.4 1.02 1.84.41 4.08 2.79 5.04 3.76.95.97 1.97 1.82 1.36 2.3-.17.13-.4.18-.66.18a4.4 4.4 0 0 1-2.2-.79c-.6-.44-2.68-.48-3.49-.48h-.33c.25 1.33-.2 3.02-1.35 3.02-.08 0-.17 0-.26-.03-1.33-.27-2-2.25-2.58-3.06-.58-.82-1.26-2.04-3.23-2.52-.57-.14-1.28-.17-2.04-.17s-1.58.04-2.33.04c-1.04 0-1.97-.07-2.51-.41-1.29-.82-.48-2.59.07-2.86a8.52 8.52 0 0 1 3.73-.73m0-1.21c-1.7 0-3.14.29-4.27.85-.76.38-1.37 1.46-1.42 2.52-.05 1.01.4 1.9 1.25 2.43.83.52 2 .59 3.15.59.38 0 .78 0 1.18-.02l1.15-.02a8 8 0 0 1 1.75.14c1.35.33 1.86 1.08 2.36 1.8l.17.24c.1.15.24.4.39.67.59 1.08 1.39 2.56 2.94 2.88a2.3 2.3 0 0 0 2.3-.82 4 4 0 0 0 .8-2.13c1.09.05 1.72.17 1.89.25.64.47 1.84 1 2.87 1 .56 0 1.03-.15 1.4-.44.39-.3.62-.73.65-1.2.06-.96-.69-1.7-1.55-2.55l-.35-.35-.18-.18c-1.18-1.2-3.38-3.45-5.46-3.91-.84-.19-1.98-.31-3.09-.44-1.05-.12-2.64-.3-3-.47-.79-.42-2.85-.87-4.94-.87Z" class="cls-8"/>
    <path d="M68.43 4.06c2.57.75 4.3 1.51 5.96 1.43 1.66-.08 10.18 4.35 9.5 5.57a.86.86 0 0 0 .43-.16c.61-.48-.41-1.33-1.36-2.3-.95-.97-3.2-3.35-5.04-3.76-1.84-.41-5.51-.54-6.4-1.02-.88-.48-5.38-1.36-8.1 0-.21.1-.45.42-.61.82.66-.32 3.32-1.27 5.62-.6Zm36.14 51.22c-.18.37-.93.38-1.67.01-.74-.36-1.19-.96-1-1.33.18-.37.93-.38 1.67-.01.74.36 1.19.96 1 1.33Z" class="cls-4"/>
    <path fill="#703c16" d="M84.67 36.29c.29.87.62 1.74 1.13 2.51a7.78 7.78 0 0 0 2.16 2.08c.27.18.67.05.83-.22.17-.3.05-.64-.22-.83a6.76 6.76 0 0 1-1.47-1.29l-.09-.11.01.01-.05-.07a7.05 7.05 0 0 1-.8-1.46l-.11-.3-.23-.66a.61.61 0 0 0-.74-.42c-.3.08-.53.43-.42.74Zm4.39-.34c.94.94 1.94 1.9 3.14 2.51.28.14.67.08.83-.22.15-.27.08-.67-.22-.83s-.6-.34-.89-.54l-.2-.15-.04-.03-.1-.08a14.08 14.08 0 0 1-1.66-1.52c-.22-.22-.63-.24-.85 0s-.24.61 0 .85Zm18.71 8.45c3 2.43 4.63 5.99 4.65 9.83 0 .78 1.21.78 1.21 0a13.72 13.72 0 0 0-5.01-10.69c-.6-.48-1.46.36-.85.85Zm-.51 6.44c.56.48.98 1.05 1.19 1.71s.23 1.36.06 2.03c-.08.32.1.65.42.74s.67-.1.74-.42a4.9 4.9 0 0 0-1.56-4.91c-.25-.21-.61-.24-.85 0-.22.22-.25.64 0 .85Zm-14.68-15.7c.32.32.69.59 1.01.91.11.11.27.18.43.18s.32-.07.43-.18.18-.27.18-.43-.06-.31-.18-.43c-.32-.32-.69-.59-1.01-.91-.11-.11-.27-.18-.43-.18s-.32.07-.43.18-.18.27-.18.43.06.31.18.43ZM76.4 51.22c-.2 2.95 2.65 4.73 5.07 5.61.31.11.66-.13.74-.42.09-.34-.11-.63-.42-.74a9.26 9.26 0 0 1-2.93-1.66c-.85-.77-1.33-1.66-1.26-2.79.02-.33-.29-.6-.6-.6-.34 0-.58.28-.6.6Z"/>
    <path fill="#a18f70" stroke="#5b2307" stroke-linecap="round" stroke-linejoin="round" stroke-width="1.21" d="M1.3 39.13s22.43 5.51 46.16.44l6.16-7.93-46.23 5.98-6.09 1.51Z"/>
    <path fill="#d2001e" stroke="#5b2307" stroke-linecap="round" stroke-linejoin="round" stroke-width="1.21" d="M1.3 39.13s11.12-2.06 22.62-3.56 22.87-3.25 22.87-3.25l3.5.88s-2.12 2.5-13.87 4.25S1.3 39.14 1.3 39.14Z"/>
    <path fill="#ceb891" d="M43.86 33.22c-15.96 0-42.46-3.01-42.72-3.04a.6.6 0 0 1 .07-1.2h.34c24.22-.51 43.74-1.78 43.94-1.79h.04c.25 0 .48.16.57.4 1 2.79 5.9 3.09 7.96 3.09.67 0 1.13-.03 1.23-.04h.04a.6.6 0 0 1 .57.41.6.6 0 0 1-.24.7c-1.05.69-3.19 1.13-6.55 1.34-1.5.09-3.27.14-5.25.14Z"/>
    <path d="M45.52 27.78c1.12 3.11 6.12 3.49 8.53 3.49.69 0 1.16-.03 1.27-.04-1 .66-3.24 1.05-6.26 1.24-1.55.09-3.31.14-5.21.14-16.11 0-42.65-3.04-42.65-3.04h.36c24.51-.51 43.96-1.78 43.96-1.78m-.01-1.21h-.08c-.19.01-19.71 1.28-43.91 1.78h-.34a1.2 1.2 0 0 0-.12 2.4c.27.03 26.8 3.05 42.79 3.05 1.99 0 3.77-.05 5.29-.14 3.48-.22 5.65-.67 6.81-1.41a1.21 1.21 0 0 0-.62-2.24h-.09c-.35.02-.77.04-1.18.04-1.51 0-6.49-.19-7.39-2.69a1.2 1.2 0 0 0-1.14-.8Z" class="cls-2"/>
    <path fill="url(#linear-gradient-3)" d="M31.94 61.32c-.61 0-.88-1.02-1.16-6.75-.04-.81-.08-1.5-.11-1.68-.05-.27-.21-.58-.38-.92-.27-.52-.55-1.07-.48-1.6.07-.54-.41-6.19-.74-9.87l-.02-.23.22-.08a9.6 9.6 0 0 1 3.14-.39c.89 0 1.58.06 1.58.06l.29.02-.02.3c0 .05-.36 5.39-.43 7.41a6.58 6.58 0 0 1-.59 2.5c-.21.51-.37.91-.33 1.4 0 .1.31 9.61-.9 9.83h-.07Z"/>
    <path d="M32.4 40.11c.88 0 1.55.06 1.55.06s-.36 5.37-.43 7.42-1.01 2.72-.92 3.93c.09 1.2.09 9.37-.65 9.51h-.02c-.73 0-.84-7.43-.97-8.18s-.96-1.67-.86-2.43c.09-.76-.74-9.93-.74-9.93.82-.3 2.05-.37 3.04-.37m0-.6c-1.42 0-2.51.14-3.25.41l-.43.16.04.46c.32 3.49.8 9.24.74 9.8-.08.63.24 1.24.51 1.77.15.3.31.61.35.83.03.16.07.91.1 1.64.31 6.16.59 7.03 1.46 7.03h.12c.58-.11.98-.51 1.14-4.93.08-2.2.06-4.56.01-5.22-.03-.42.11-.77.31-1.26.25-.62.57-1.4.61-2.6.07-2.02.43-7.35.43-7.4l.04-.59-.59-.05s-.71-.06-1.6-.06Z" class="cls-8"/>
    <path fill="url(#linear-gradient-4)" d="M17.38 62.56a.6.6 0 0 1-.43-.19c-.27-.28-.53-.96-.41-3.79.1-2.38-.03-4.69-.06-5.28-.5-.45-.57-1.72-.52-3.68.04-1.7-.32-7.36-.32-7.42l-.02-.29.29-.03s3.11-.33 5.43-.33c2.14 0 2.6.28 2.78.54.1.15.11.33.03.5-.25.56-.69 3.54-1.08 6.18-.85 5.8-.92 5.85-1.3 5.85-.53-.04-.61-.75-.6-3.01v-.56c0-.53-.29-2.54-.51-4.08a39.7 39.7 0 0 0-.54 3.96c0 1.35-.89 4-.99 4.29-.1.29-.26 1.39-.44 2.55-.64 4.3-.81 4.75-1.23 4.79h-.06Z"/>
    <path d="M21.32 41.84c1.54 0 2.75.14 2.53.62-.54 1.2-1.73 11.85-2.11 11.85-.38-.03-.29-2.36-.3-3.27-.01-.91-.79-5.96-.79-5.96s-.86 4.71-.86 5.84-.69 3.36-.97 4.2c-.29.84-.95 7.09-1.41 7.13h-.03c-.44 0-.66-.94-.55-3.67.12-2.79-.07-5.45-.07-5.45-.51-.26-.56-1.78-.51-3.51.05-1.74-.32-7.44-.32-7.44s3.07-.33 5.4-.33m0-.6c-2.33 0-5.33.32-5.46.33l-.57.06.04.58c0 .06.36 5.7.32 7.39-.05 1.98.02 3.24.53 3.82.04.72.15 2.9.06 5.13-.12 2.78.11 3.62.5 4.02.18.18.41.28.65.28h.09c.68-.07.83-.59 1.5-5.05.16-1.05.33-2.23.42-2.5.1-.3 1-2.99 1.01-4.39 0-.34.09-1.08.22-1.93a24 24 0 0 1 .23 2.05v.56c0 2.19.02 3.25.86 3.3h.03c.7 0 .74-.09 1.62-6.1.37-2.49.82-5.59 1.05-6.11a.82.82 0 0 0-.05-.79c-.27-.41-.88-.68-3.03-.68Z" class="cls-8"/>
    <path fill="url(#linear-gradient-5)" d="M4.19 56.29c-.49 0-.59-.4-.79-5.44-.06-1.5-.12-3.05-.22-4.03-.27-2.67-.56-6.04-.56-6.04l-.02-.23.22-.08c.12-.04 2.93-1.02 4.34-1.02.77 0 .98.31 1.02.57.12.77-.63 3.16-1.55 5.96l-.49 1.51c-.2.67-.46 2.34-.7 3.96-.67 4.4-.81 4.79-1.22 4.83h-.03Z"/>
    <path d="M7.16 39.75c.41 0 .69.09.72.31.16.99-1.54 5.72-2.03 7.34-.49 1.63-1.2 8.54-1.66 8.58-.45 0-.45-6.55-.71-9.2-.27-2.67-.56-6.04-.56-6.04s2.86-1 4.24-1m0-.6c-1.47 0-4.32.99-4.44 1.03l-.44.15.04.47s.3 3.41.56 6.05c.1.97.16 2.52.22 4.02.2 5.08.26 5.73 1.09 5.73h.06c.67-.07.79-.49 1.49-5.09.24-1.61.49-3.27.69-3.92l.48-1.5c.97-2.95 1.7-5.27 1.56-6.11-.05-.31-.28-.82-1.32-.82Z" class="cls-8"/>
    <path d="M32.4 40.71c.35 0 .66 0 .91.02-.1 1.47-.33 5.2-.39 6.83-.04.99-.28 1.6-.52 2.19-.23.57-.45 1.1-.39 1.8.07.98.06 4.32-.09 6.67-.11-1.3-.19-2.81-.23-3.69a20.74 20.74 0 0 0-.12-1.79c-.07-.4-.27-.8-.47-1.18-.2-.38-.42-.82-.39-1.08.09-.72-.49-7.3-.69-9.56.59-.14 1.41-.21 2.39-.21m0-.6a9.9 9.9 0 0 0-3.04.37s.84 9.17.74 9.93c-.09.76.73 1.69.86 2.43.13.74.24 8.18.97 8.18h.02c.75-.13.74-8.3.65-9.51-.09-1.2.84-1.88.92-3.93.07-2.05.43-7.42.43-7.42s-.68-.06-1.55-.06Zm-11.35 2.42c1.26 0 1.87.09 2.15.15-.27.91-.6 2.98-1.09 6.05l-.22 1.37c-.18-1.68-.6-4.63-.66-5.04l-.37-2.55h.18m-.52 0-.49 2.51a68.1 68.1 0 0 0-.94 5.94c-.01.98-.65 3.04-.99 4-.12.35-.26 1.21-.5 2.7l-.39 2.32c0-.37.02-.82.04-1.35.15-2.79 0-5.41-.01-5.52l-.02-.34-.27-.14c-.11-.16-.27-.77-.18-2.98.05-1.43-.13-5.41-.21-6.92.84-.07 2.46-.19 3.95-.21m.52-.61c-2.28 0-5.1.27-5.1.27s.3 5.71.24 7.45c-.07 1.74-.04 3.25.47 3.52 0 0 .16 2.66.01 5.45-.15 2.73.07 3.68.51 3.68h.03c.46-.04 1.19-6.28 1.49-7.12.29-.84 1-3.05 1.02-4.19.02-1.13.93-5.83.93-5.83s.73 5.05.73 5.96c0 .91-.11 3.25.26 3.28.38 0 1.7-10.63 2.24-11.82.23-.51-1.15-.65-2.82-.65ZM7.19 40.27h.15c-.08.94-1.08 3.87-1.58 5.33l-.51 1.52c-.23.73-.49 2.36-.77 4.08l-.19 1.15-.05-1.66a77.03 77.03 0 0 0-.18-4.09 383.1 383.1 0 0 1-.45-5.56c.97-.3 2.69-.78 3.58-.78m0-.6c-1.39 0-4.22.95-4.22.95s.25 3.38.49 6.04.16 9.21.61 9.21c.46-.04 1.25-6.94 1.76-8.56s2.26-6.33 2.11-7.32c-.03-.23-.33-.32-.75-.32Z" class="cls-4"/>
    <path d="M32.63 47.22c.06.72-.23 1.34-.66 1.37-.42.04-.82-.52-.88-1.25-.06-.72.23-1.34.66-1.37.42-.04.81.52.87 1.25Zm-14.38.23c-.07 1.04-.5 1.86-.96 1.82-.46-.03-.77-.9-.7-1.94.07-1.04.5-1.86.96-1.82.46.03.77.9.7 1.94Zm37.08-16.22c-1 .66-3.24 1.05-6.26 1.24-1.93-.54-4.08-1.47-5.18-3.17 0 0-30.94 1.18-42.33.26 24.51-.51 43.96-1.78 43.96-1.78 1.44 4 9.3 3.49 9.8 3.45Z" class="cls-4"/>
    <path fill="#fe6" d="M50.87 70.56c-.2 0-.4-.1-.51-.29L34.94 45.01a.6.6 0 0 1-.06-.49c.05-.16.17-.3.32-.37L46.44 39a.56.56 0 0 1 .25-.05c.1 0 .2.02.29.07.17.09.28.26.31.44l4.18 30.4a.61.61 0 0 1-.39.65.7.7 0 0 1-.2.03Z"/>
    <path fill="#592308" d="m46.69 39.56 4.18 30.4L35.45 44.7l11.23-5.15m0-1.2c-.17 0-.34.04-.5.11l-11.23 5.15a1.2 1.2 0 0 0-.53 1.72l15.42 25.26a1.18 1.18 0 0 0 1.42.5c.54-.19.86-.73.79-1.29l-4.18-30.4a1.2 1.2 0 0 0-1.19-1.04Z"/>
    <path d="m38.87 44.89-1.77 1.25 2.66 5.65-3.89-6.4 3-.5z" class="cls-4"/>
    <path fill="#ffbe47" d="M38.89 44.81s2.6.24 2.93 1.18c.33.94 1.75 5.82 3.25 4.97s1.71-1.64 1.71-1.64l.21 3.03s-2.67.8-3.67.75c-1-.05-4.16-2.4-4.16-2.4l2.6 4.38s5.18.66 6.26-.09.62-.9.62-.9l-1.67-12.43-8.1 3.15Z"/>
    <path d="M36.16 45.68s8.28 5.48 13.03 7.72" class="cls-16"/>
    <path d="M46.51 42.96s-2.44 10.37-4.12 14.25m-.01-13.13s-1.06 6.86-2.5 8.88" class="cls-16"/>
    <path d="M40.19 44s5.34 4.1 8.62 5.15" class="cls-16"/>
    <path fill="#ffbfbf" d="M44.51 48.98c-.08 0-.16 0-.25-.03-1.42-.34-2.48-3.57-3-5.55a20.37 20.37 0 0 1-7.45 1.66c-1.32 0-2.18-.37-2.55-1.1-.45-.88 0-1.93.31-2.48-.43-.72-1.27-2.41-.68-3.97a4.34 4.34 0 0 1 2.17-2.58 4.64 4.64 0 0 1-.55-1.94c-.08-1 .37-2.4.43-2.56.62-1.94 3.7-4.19 4.05-4.44a.62.62 0 0 1 .67-.02c.21.13.31.37.28.6-.31 1.98 1.39 3.67 1.97 4.18.29-.04.79-.09 1.39-.09 1.13 0 2.14.17 2.98.51 1.83.73 2.31 3.15 2.43 4.15 1 .35 2.32 1.23 2.05 2.8-.28 1.64-2.85 3.72-3.81 4.45.42 1.75 1.07 5.07.33 6.03a.93.93 0 0 1-.75.37Z"/>
    <path d="M37.33 26.49c-.43 2.76 2.38 4.91 2.38 4.91s.66-.12 1.57-.12c.82 0 1.84.1 2.76.46 1.95.78 2.09 4.05 2.09 4.05s2.31.52 2.02 2.24c-.29 1.72-3.9 4.31-3.9 4.31s1.51 6.04.25 6.04l-.11-.01c-1.44-.34-2.74-5.86-2.74-5.86s-2.02 1.38-6.93 1.9a7.8 7.8 0 0 1-.92.05c-3.66 0-1.53-2.98-1.53-2.98s-1.49-2.03-.83-3.75c.94-2.46 2.63-2.46 2.63-2.46s-.84-.64-.97-2.33c-.07-.9.4-2.33.4-2.33.58-1.81 3.83-4.14 3.83-4.14m0-1.2h-.01c-.26 0-.5.09-.7.23-.62.45-3.6 2.67-4.26 4.74-.09.26-.54 1.7-.45 2.79.05.66.2 1.2.37 1.64a5.32 5.32 0 0 0-1.96 2.61c-.62 1.61.05 3.28.55 4.2-.34.7-.66 1.77-.16 2.74.49.94 1.53 1.42 3.09 1.42a22.7 22.7 0 0 0 7.06-1.42c.7 2.46 1.77 4.95 3.26 5.3a1.54 1.54 0 0 0 1.61-.55c.66-.85.62-2.91-.12-6.15 1.27-.99 3.45-2.9 3.73-4.6.27-1.61-.79-2.77-2.1-3.34-.2-1.26-.82-3.5-2.76-4.27a8.77 8.77 0 0 0-3.21-.55c-.47 0-.88.03-1.19.06-.61-.58-1.78-1.92-1.59-3.4a1.2 1.2 0 0 0-1.17-1.45Zm0 2.4Z" class="cls-23"/>
    <path d="M36.9 27.03s-2.53 2.03-2.92 3.79c-.39 1.76.09 3.16 2.33 3.93 0 0-1.8-1.59-1.52-3.63.28-2.03 2.12-4.09 2.12-4.09Zm-1.24 9.68s-.67-.44-1.27.11-.71 1.81-.3 2.36c.41.55 4.19.85 4.19.85s-3.27-.6-3.52-1.62.9-1.7.9-1.7Zm8.41-3.14s.17 3.34-2.11 4.45c0 0 1.76-.08 2.35-2.1.59-2.02-.24-2.35-.24-2.35Zm-.31 10.23v-1.44s1.14 2.8.9 3.59" class="cls-4"/>
    <path d="M44.55 45.46c-.22.59-.81-.88-.81-1.62" class="cls-4"/>
    <path fill="#ff85ba" d="M44.86 48.09c-.09.22-.24.33-.46.28-1.44-.34-2.74-5.86-2.74-5.86s-2.02 1.37-6.93 1.9c-4.91.51-2.45-2.93-2.45-2.93s-1.48-2.04-.83-3.76c.94-2.45 2.63-2.45 2.63-2.45s-.84-.63-.97-2.32c-.08-.91.4-2.32.4-2.32a.52.52 0 0 1 .06-.16c-.1.83-.21 2.72.61 3.5 1.06 1 3.5 1.81 3.5 1.81-1.16.78-3.32.28-3.32.28-1.53.11-1.89 2.74-1.25 3.35.64.61 5.29 1.04 5.29 1.04-1.79 1.49-4.42 1.27-4.42 1.27s-.22 1.54 1.2 1.75c1.43.22 6.95-1.81 6.95-1.81s1.02 3.73 1.43 4.67c.31.71.99 1.45 1.3 1.77Zm3.29-10.06c-.25 1.54-3.15 3.76-3.78 4.22l-.03-.11-.14-.66s1.61-1.37 2.49-2.57c.88-1.21.55-2.36-.87-1.11-1.34 1.19-4.33 1.79-4.71 1.86.29-.2 2.32-1.6 3.05-2.45a4.95 4.95 0 0 0 .87-3.57c-.18-.94-2.81-2.15-3.36-1.16-.55.99-3.27 2.36-3.27 2.36s.14-.05.78-1.48c.39-.87.19-1.85-.03-2.47.33.32.56.5.56.5s2.38-.42 4.33.34c1.95.78 2.09 4.05 2.09 4.05s2.31.53 2.02 2.24Z"/>
    <path d="M47.12 34.89c-.14.64-.4 1.04-.7 1.48-.3.41-.66.77-1.04 1.08a7.85 7.85 0 0 1-2.51 1.35c.39-.25.78-.52 1.13-.81a6.22 6.22 0 0 0 1.63-2.08c.16-.37.29-.83.28-1.11-.01-.35.25-.63.58-.64s.62.25.63.58l-.01.16Zm-15.23 5.74a10.17 10.17 0 0 0 2.72.59c.95.09 1.92.04 2.87-.18a10.83 10.83 0 0 1-5.92.74.6.6 0 0 1-.5-.7.6.6 0 0 1 .7-.5l.12.03h.01Zm1.46-6.26a7.66 7.66 0 0 0 1.7 1.21c.64.32 1.34.53 2.1.53-.72.21-1.52.2-2.29.05a7.62 7.62 0 0 1-2.24-.82.62.62 0 0 1-.24-.83c.16-.29.53-.4.83-.24l.14.1Zm7.19-3.83c.11.35.12.62.12.94 0 .31-.07.62-.2.89-.12.28-.33.52-.56.67-.23.17-.48.25-.73.32.42-.3.71-.73.71-1.16 0-.21-.04-.42-.12-.61-.07-.19-.19-.4-.3-.51a.63.63 0 0 1 .9-.88c.07.07.12.16.15.25l.02.08Z" class="cls-23"/>
    <path d="M46.64 68.24c-.21 0-.41 0-.61-.02-2.19-.16-2.89-2.44-2.95-3.63v-.05c-.47-.14-.9-.33-1.3-.59-2.4-1.53-1.79-4.2-1.12-5.39a.5.5 0 0 1 .15-.17 5.48 5.48 0 0 1-1.31-4.31.61.61 0 0 1 .86-.42c1.04.51 2.44.77 4.05.77 2.68 0 4.73-.71 5.12-1.05-.02-.77-.47-2.8-.77-3.95a.6.6 0 0 1 .55-.75h.18c.53 0 2.34.1 3.42 1.4 1.37 1.64 2.81 2.69 3.96 2.87 1.86 0 10.64-2.55 13.88-3.54a.58.58 0 0 1 .73.34l2.62 6.12a.6.6 0 0 1-.24.75c-.77.47-18.84 11.62-27.23 11.62Z" class="cls-22"/>
    <path d="M49.48 49.27c.48 0 2.04.09 2.96 1.18 1.09 1.3 2.72 2.83 4.33 3.08l.19.01c2.23 0 13.97-3.57 13.97-3.57l2.62 6.12s-18.6 11.53-26.91 11.53c-.19 0-.38 0-.57-.02-2.24-.16-2.39-3.06-2.39-3.06.3.07.6.11.89.11 1.82 0 3.49-1.21 3.49-1.21s-1.51.71-3.27.71c-.89 0-1.84-.18-2.7-.73-2.56-1.63-.92-4.59-.92-4.59 1.41 1.19 3.27 1.4 4.44 1.4a7.8 7.8 0 0 0 1.11-.07s-3.81-.21-5.42-2.14c-1.61-1.92-1.22-3.85-1.22-3.85a10 10 0 0 0 4.31.84c2.93 0 5.69-.86 5.72-1.53.04-1.01-.78-4.23-.78-4.23h.14m0-1.21h-.22a1.2 1.2 0 0 0-.9.5c-.21.29-.28.66-.2 1.01.31 1.2.63 2.7.72 3.48-.69.32-2.46.77-4.49.77a8.88 8.88 0 0 1-3.78-.71 1.24 1.24 0 0 0-1.06 0c-.33.17-.57.48-.65.84-.02.1-.43 2.24 1.15 4.45-.72 1.43-1.29 4.35 1.4 6.06.33.21.69.39 1.06.52.19 1.43 1.08 3.66 3.47 3.83l.65.02c8.55 0 26.77-11.23 27.54-11.71.51-.31.71-.95.47-1.5l-2.62-6.12a1.21 1.21 0 0 0-1.46-.68c-4.47 1.36-12.13 3.52-13.62 3.52-.99-.15-2.34-1.15-3.6-2.66-1.22-1.46-3.12-1.62-3.88-1.62Z" class="cls-2"/>
    <path d="M72.3 49.99s2.04-2.83-.37-1.79c-4.65 2-14.12 5.51-15.16 5.35-1.61-.26-3.25-1.78-4.33-3.08-1.09-1.3-3.1-1.18-3.1-1.18s.83 3.22.78 4.23c-.04 1.01-6.39 2.47-10.03.69 0 0-.39 1.92 1.22 3.85 1.61 1.92 5.42 2.14 5.42 2.14s-3.32.53-5.54-1.33c0 0-1.64 2.97.92 4.59 2.56 1.63 5.97.01 5.97.01s-2.25 1.63-4.39 1.1c0 0-.51 2.19 2.39 3.06 2.9.86 29.47-10.84 29.47-10.84L72.3 50Z" class="cls-22"/>
    <path d="M41.31 58.05c-1.61-1.92-1.23-3.85-1.23-3.85.47.23.95.41 1.42.53-.49.57-1.24 1.64-.97 2.61.4 1.41 6.19 2.85 6.19 2.85s-3.81-.22-5.42-2.14Zm.8 5.39c-2.55-1.62-.92-4.59-.92-4.59a5 5 0 0 0 1.01.66c.09.79.37 2.63 1.1 3.29.95.86 5.03.58 5.03.58-.2.12-.42.23-.65.32.16-.1.28-.17.33-.22-.43.19-3.54 1.47-5.91-.05Zm19.92-.61c-4.77 1.72-10.71 5.5-15.95 4.78-2.99-.41-2.38-3.05-2.38-3.05.41.1.81.12 1.21.1.16.63.67 2.02 2.14 2.19 1.54.18 12.08-3.24 14.98-4.02ZM49.34 49.27s.52-.02 1.2.03c.5.4-.18 1.14.13 2.27.6 2.17-.22 2.15-.63 2.4-.04.03-.15.05-.3.08.24-.17.37-.36.38-.53.05-1.01-.78-4.23-.78-4.23Z" class="cls-17"/>
  </g>
</svg>
