<svg xmlns="http://www.w3.org/2000/svg" height="80px" xmlns:xlink="http://www.w3.org/1999/xlink" id="Layer_2" data-name="Layer 2" viewBox="0 0 117.8 104.7"><defs><linearGradient id="linear-gradient" x1="76.6" x2="76.6" y1="94.2" y2="60.6" gradientUnits="userSpaceOnUse"><stop offset="0" stop-color="#dbffff"/><stop offset="1" stop-color="#339ed3"/></linearGradient><linearGradient xlink:href="#linear-gradient" id="linear-gradient-2" x1="73.6" x2="73.6" y1="2.6" y2="12.1"/><linearGradient id="linear-gradient-3" x1="88.2" x2="88.2" y1="259.8" y2="238.8" gradientTransform="rotate(-4 -2600.4 897.3)" gradientUnits="userSpaceOnUse"><stop offset="0" stop-color="#dbffff"/><stop offset="1" stop-color="#1376a6"/></linearGradient><linearGradient xlink:href="#linear-gradient-3" id="linear-gradient-4" x1="72.9" x2="72.9" y1="179.4" y2="158.4" gradientTransform="rotate(4 1710.8 -658.5)"/><linearGradient xlink:href="#linear-gradient-3" id="linear-gradient-5" x1="59.6" x2="59.6" y1="176.8" y2="155.6" gradientTransform="rotate(4 1691 -675)"/><style>.cls-2{fill:#5b2307}.cls-4{fill:#fff}.cls-8{fill:#3c7bd6}.cls-10{stroke:#4c1a09;stroke-width:.6px}.cls-10,.cls-16{stroke-linecap:round;stroke-linejoin:round;fill:none}.cls-17{fill:#8e5424}.cls-19{fill:#b7eae8}.cls-20{fill:#4c1a09}.cls-22{fill:#a36731}.cls-23{fill:#5b0737}.cls-27{fill:#755b46}.cls-16{stroke:#592308;stroke-width:.55px}</style></defs><g id="Layer_1-2" data-name="Layer 1"><path d="M51.5 100a1 1 0 0 1-1-.8c-.2-.9.7-2.2 1.7-3.5l-3.7 1.8a113.7 113.7 0 0 1-4.2 2l-1 .1c-.8 0-1.4-.4-1.7-1-.3-.8 0-1.7.7-2.3.6-.5 2.2-1.5 4-2.5-2.8 0-4-.5-4.2-1.4-.1-1 1.2-1.7 2.5-2A78.3 78.3 0 0 1 57 89c5.1 0 5.5 1.1 5.6 1.5.4 1.2-1.4 2.5-3.5 4a36.3 36.3 0 0 0-3 2.4c-2.1 1.8-3.6 3-4.5 3Z" class="cls-27"/><path d="M56.9 89.6c2.6 0 4.8.3 5 1 .3 1.2-3.1 3.2-5 4.6-1.5 1.2-4.4 4.1-5.4 4.1-.2 0-.3 0-.4-.3-.3-1.3 3.5-5 3.5-5-2.5 1-8.8 4.2-10.5 4.9a2 2 0 0 1-.8.1c-1.2 0-1.7-1.3-.6-2.2 1.3-1.2 8.5-5 8.4-5l-3.9 1.3h-.8c-5.5 0-3.9-1.6-1.7-2.2 2.3-.6 8.4-1.1 8.4-1.1 1.3-.2 2.6-.2 3.8-.2m0-1.3-4 .3c-.2 0-6 .5-8.5 1.2-2 .5-3 1.5-3 2.6.2 1.2 1.4 1.7 2.9 1.9a17.3 17.3 0 0 0-2.4 1.6c-1 .8-1.3 1.9-.9 2.9a2.4 2.4 0 0 0 2.3 1.5l1.2-.3c.8-.3 2.4-1 4.2-2l1.7-.8c-.4.8-.6 1.5-.4 2.1.2.8.8 1.2 1.5 1.2 1.1 0 2.4-1 4.8-3.1a31.6 31.6 0 0 1 3-2.4c2.4-1.7 4.3-3 3.7-4.7-.2-1-1.2-2-6.1-2Z" class="cls-20"/><path d="M44.5 94.9s2.2.6 2 3.3m1.7-5s3.2-.6 3 2.6M46 90.2s1.6 1 .8 3.3m6 1.9s2.2-.6 3 1.8m-5.8-7.6c.1.1 1.7.1 1.9 1.9 0 0 2.8-.7 3.4 1.8 0 0 2.8-.8 3.3 1.3" class="cls-10"/><path d="M74.1 104c-1 0-1.3-.6-1.3-.9-.5-1.8 2.4-4.5 4.9-6.3l-2 .4c-1.6.3-3.2.6-4 .6-.3 0-1 0-1.1-.6-.2-.6.4-1 1.1-1.4 3.4-2 11.2-3.5 12-3.7.7-.3 7.5-3 10.4-3 .8 0 1.3.2 1.6.6.2.3.3.7 0 1.4-1.3 2.9-6.5 11.3-9.5 11.3h-.4a1.4 1.4 0 0 1-1-1c-.3-.9.2-2.1.8-3.2l-1 .6A31.7 31.7 0 0 1 74 104Z" class="cls-27"/><path d="M94.1 89.7c1 0 1.4.3 1 1.1-1.3 3.2-6.4 11-8.8 11a1 1 0 0 1-.3 0c-2.3-.6 1.5-5.5 1.5-5.5-2 1-10.7 7.2-13.4 7.2-.4 0-.7-.2-.8-.5-.6-2.5 7.5-7.5 7.5-7.5l-2.3.6c-1.6.1-5.5 1.1-6.9 1.1-.6 0-.6-.2.5-.9 3.3-2 11.8-3.6 11.8-3.6s7.3-3 10.2-3m0-1.2c-2.9 0-9.4 2.6-10.5 3-1.1.3-8.8 1.9-12.1 3.8-.6.4-1.8 1-1.5 2 .1.5.5 1.1 1.6 1.1.9 0 2.3-.2 3.8-.5-2 1.7-3.7 3.7-3.2 5.4.2.9 1 1.4 2 1.4 1.9 0 5.5-2.1 10-5a3.1 3.1 0 0 0 0 1.9 2 2 0 0 0 1.5 1.3l.6.1c3.6 0 9-9.6 10-11.7.4-.9.2-1.5 0-1.9-.5-.6-1.2-.9-2.2-.9Z" class="cls-20"/><path d="M74 100.2s3.5-.6 4.1 2.5m-1-5.5s5.7-1.4 6.2 2.4m-8.9-5s1.3 1 .5 2.6M85 99s3-2.3 5.5-.2m-10.5-5.1s1.5-.4 1.9 1c0 0 4.3-1.3 6.2.7 0 0 3.8-2.5 5.6-.7" class="cls-10"/><path d="M58.6 92.5c-1.4 0-2.7-.3-4-.7-6.4-2.5-6.7-9.4-6.7-9.5 0-.3.2-.6.5-.6.7-.2 1.5-.2 2.3-.2 8.2 0 16.7 6.6 17 7 .2 0 .3.2.3.4l-.2.5c-.2.1-4.3 3-9.2 3Z" class="cls-19"/><path d="M50.7 82c8.1 0 16.7 7 16.7 7s-4 2.9-8.8 2.9c-1.2 0-2.5-.2-3.7-.7-6.2-2.3-6.4-9-6.4-9l2.2-.1m0-1.2c-.9 0-1.7 0-2.5.2-.6 0-1 .6-1 1.2 0 .3.4 7.4 7.2 10 1.3.5 2.7.8 4.2.8 5 0 9.3-3 9.5-3.2a1.2 1.2 0 0 0 0-2c-.3-.2-9-7-17.4-7Z" class="cls-8"/><path d="M76 90.4c-1.2 0-2.5 0-3.7-.2C48.4 88 38.3 75.2 37.5 67c-.5-4 0-7.3.7-9.8-.5.3-1.1.8-1.8.8-.3 0-.6-.2-.8-.4-.4-.4-.5-1-.5-2.1a13 13 0 0 1 2.8-6.1c-.8.5-1.5.8-2 .8a1 1 0 0 1-.8-.3c-.4-.3-.4-.9-.4-1.2.1-2.2 2.9-4.3 4-5-.6-1.7-2.2-8-1-17.2A29 29 0 0 1 48.5 9.4c-1.2-.2-2.3-.8-2.4-1.6-.1-.6.1-1.4 1.7-2 1-.4 2.3-.7 3.5-.8-.9-.4-1.6-.8-1.7-1.4 0-.4 0-.9.8-1.4a4.2 4.2 0 0 1 2.3-.5c1.5 0 3.3.5 4.7 1-.3-.5-.5-1-.3-1.4a1 1 0 0 1 .8-.7h.2c1.4 0 3.4 1.9 4 2.6h1.3C82.2 3.2 90.4 15 94 24.9c2.2 6.4 7 9.3 12.6 12.7 6 3.7 9.6 9.8 9.8 10.5.2.4 0 .6 0 .8-.2.1-.4.3-.8.3h-.1c1.3 2.7 1.6 6.4 1.6 7.1 0 .5-.3.9-.8.9l-.3-.1c1 3.1.6 7.2-.2 8-.7.7-3.5 5.7-3.7 6.4-.2 1-14.6 19-36.1 19Z" class="cls-22"/><path d="M58 1.2c1.4 0 3.8 2.6 3.8 2.6h1.5c21 0 27.8 15 30.1 21.4 2.3 6.4 7.1 9.4 12.9 13 5.7 3.5 9.2 9.3 9.5 10.1.1.2 0 .3-.2.3-.5 0-1.6-.5-1.6-.5 2.1 2.4 2.6 7.6 2.6 8.3 0 .1-.1.2-.3.2-.4 0-1.6-.8-1.6-.8 1.8 3 1.4 8.2.6 9-.7.6-3.7 6-3.8 6.6 0 .5-14.3 18.4-35.5 18.4a40.1 40.1 0 0 1-3.6-.1C49.2 87.5 39 75 38 66.9c-1-8 2.3-14 2.3-14-1.4 1.4-2.1 3.4-2.1 3.4s-1 1-1.8 1c-.5 0-.8-.4-.7-1.7.3-3.7 4.3-7.8 4.3-7.8-1.7.4-3.4 1.9-4.2 1.9-.4 0-.5-.3-.5-1 0-2.3 4-4.7 4-4.7s-2.5-6.9-1-17.4C39.9 16 50 9 50 9c-3-.1-4.8-1.5-2-2.6 2-.8 5.2-1 6.8-1h.9s-7.6-1-5-2.7a3.7 3.7 0 0 1 2-.4c2.7 0 6.4 2 6.4 2s-2.5-2.9-1.2-3h.2M58 0h-.4c-.6.1-1 .5-1.3 1a1.6 1.6 0 0 0 0 .8c-1.2-.4-2.6-.7-3.8-.7-1 0-1.9.2-2.6.6-1.1.7-1.1 1.6-1 2 0 .2 0 .6.5 1-.7.1-1.4.3-2 .6-2 .8-2.2 2-2 2.6 0 .8.7 1.4 1.7 1.8a29.1 29.1 0 0 0-10 16.7 42 42 0 0 0 .8 17c-1.4 1-3.7 3-3.8 5.3 0 .2 0 1 .5 1.7.3.3.7.5 1.2.5h.4a11.3 11.3 0 0 0-1.7 4.6c-.1 1.2 0 2 .5 2.5.4.4.9.6 1.4.6.2 0 .5 0 .8-.2a27.7 27.7 0 0 0-.4 8.7c1 8.3 11.1 21.4 35.4 23.8l3.7.1c11.4 0 20.6-5 26.4-9.2a38 38 0 0 0 10.3-10.3v.1c.2-.7 3-5.4 3.5-6 1-1 1.3-4.7.6-7.9.6-.2 1-.7 1-1.3 0-.1-.2-3.7-1.4-6.7l.5-.5c.2-.4.3-.8 0-1.3-.4-1.2-4.2-7.2-10-10.8-5.4-3.3-10.1-6.2-12.3-12.3A31.2 31.2 0 0 0 63.3 2.6h-1c-1-1-2.8-2.6-4.3-2.6Z" class="cls-2"/><path d="M111.5 71.3c.1-.6 3.1-6 3.8-6.6.7-.7 1.1-6-.6-9 0 0 1.8 1.3 1.8.6s-.4-5.8-2.5-8.2c0 0 2.1 1 1.8.2-.3-.8-3.8-6.6-9.5-10.2-3-1.8-5.6-3.4-7.9-5.5s8 8.4 7.6 16.4c-.4 8-4.1 5-4.1 5l-6.6-3.6s2.2 6-1.3 8-4.5 0-4.5 0 1.2 3.9-3.3 4.9c-4.6 1-16.4 1-21.7 0s-12.1-3.2-12.8-7c-.7-3.9-1.4-4.5-1.4-4.5s-5 6.9-5.7 3.6c-.6-3.4.4-5.9.4-5.9s-4.3 2.7-3.9 1a21.9 21.9 0 0 1 1.5-4s-1.8-.7-3.4-2.4c-.9.6-3.8 2.6-3.8 4.6-.1 2.3 2.3-.3 4.7-.9 0 0-4 4.1-4.3 7.8-.3 3.6 2.5.7 2.5.7s.7-2 2-3.5c0 0-3.1 6-2.2 14.1.9 8 11 20.5 34.3 22.8 23.2 2.2 39-17.8 39.1-18.4Z" class="cls-17"/><path fill="#bd852d" d="M100.5 68c-10.8-1.5-31.2-9.4-28.7-19.7 2.5-10.3 10.5-7.4 13.5-20S75 8 64.9 9.3c-10.1 1.4-15.2 11.3-15.6 12-.4.7-5.3.7-7.2.3-1.9-.4-1-2.5-1-2.6a21.8 21.8 0 0 0-2.7 7.6c-1.5 10.5 1 17.4 1 17.4s-4 2.4-4 4.7c-.1 2.3 2.3-.3 4.7-1 0 0-4 4.2-4.3 7.8-.3 3.7 2.5.7 2.5.7s.7-2 2.1-3.4c0 0-3.2 6-2.3 14.1 1 8 11 20.5 34.3 22.7 19.5 1.9 33.7-11.8 37.9-16.6-2-2.6-5.3-4.5-9.8-5Z"/><path fill="#91682c" d="M75 89.8H77.1a25.1 25.1 0 0 0 2-.1l1.2-.2h.6l1.6-.3h.2l1.8-.4.5-.1 1.3-.3.5-.2a49.6 49.6 0 0 0 1.8-.5l1.1-.4.5-.2a57.5 57.5 0 0 0 3.1-1.3l.3-.2 1.2-.6.4-.2 1-.5.5-.3 1-.6.4-.2 1-.7.2-.1 1.3-.9.2-.1 1-.7.3-.3.8-.6.4-.2.7-.6.3-.3.7-.6.3-.2.9-.8.2-.2.6-.6.3-.3.4-.4.4-.3.3-.4.3-.3.3-.3.4-.4.9-1c-2-2.5-5.3-4.4-9.9-5a59.2 59.2 0 0 1-15.2-4.5c-5 .8-15.8.8-20.7-.2-5.2-1-12.1-3.2-12.8-7-.7-3.8-1.4-4.4-1.4-4.4s-5 6.8-5.7 3.5c-.6-3.3.4-5.8.4-5.8s-4.3 2.7-3.9.9a21.9 21.9 0 0 1 1.5-3.9s-1.8-.8-3.4-2.4H39a.2.2 0 0 1 0 .1l-.3.2-.2.1-.3.3a4.2 4.2 0 0 0-.4.2v.1l-.3.3h-.1l-.3.3a9.2 9.2 0 0 0-1 1.2l-.1.1-.2.3v.1l-.2.3v.1l-.2.3v.1a2.9 2.9 0 0 0 0 .4c-.2 2.4 2.3-.3 4.7-.9 0 0-4 4.2-4.4 7.8-.3 3.6 2.6.7 2.6.7s.7-2 2-3.4c0 0-3.1 6-2.2 14C39 75 49 87.5 72.4 89.7a45.7 45.7 0 0 0 2.6.1Z"/><path fill="none" stroke="#5b2307" stroke-linecap="round" stroke-linejoin="round" stroke-width="1.2" d="M57.3 32.9s0-2.2-1.2-3.3"/><path fill="#f7d33c" d="M69.4 35.7c-5.6 0-10.2-5.2-10.2-11.7s4.6-11.6 10.2-11.6 10.2 5.2 10.2 11.7S75 35.7 69.4 35.7Z"/><path d="M69.4 13c5.3 0 9.6 5 9.6 11s-4.3 11-9.6 11-9.6-4.9-9.6-11 4.3-11 9.6-11m0-1.2c-6 0-10.8 5.5-10.8 12.2s4.8 12.3 10.8 12.3S80.2 30.8 80.2 24s-4.8-12.2-10.8-12.2Z" class="cls-2"/><path fill="#ed9935" d="M69.4 13c-5.3 0-9.6 5-9.6 11 0 2.8.9 5.3 2.3 7.2 0 0 2-5.6 7.9-5.8 5.3-.2 6.4 4.5 6.6 6A12 12 0 0 0 79 24c0-6.1-4.3-11-9.6-11Z"/><path d="M74.9 27.4c0 4.2-3 7.5-6.5 7.5s-6.6-3.4-6.6-7.5 3-7.5 6.6-7.5 6.5 3.4 6.5 7.5Z" class="cls-20"/><path fill="#c4964d" stroke="#5b2307" stroke-linecap="round" stroke-linejoin="round" stroke-width="1.2" d="M66.6 37.5s1.3-3.4 6-4.2c4.5-.8 6 1.3 6 1.3"/><path d="M63.3 15.6c-1.7 1.6-2 4-.8 5.3 1.3 1.4 3.7 1.3 5.4-.3 1.7-1.5 2-4 .8-5.3-1.3-1.4-3.7-1.2-5.4.3Zm12.4 14c0 .5-.7.8-1.5.8s-1.5-.3-1.5-.7.7-.7 1.5-.7 1.5.3 1.5.7Z" class="cls-4"/><path d="M85.3 94c-3.1 0-4.4-1.2-5-1.9h-2.2c-4.8 0-14-.5-22.6-4-9.7-4-11.8-6.6-13-8l-.8-.8c-1-1-1.4-2.2-1.7-3l-.2-.6v-.1c-2.5-2.3-3.7-4.6-3.7-7v-2c0-2.6 0-5.3 1.1-6.5a2 2 0 0 1 1.5-.7l1 .2c.2 0 .4.3.4.6 0 .8 0 3 1.2 3.8 1.6 1.2 5.9 3.7 8 3.7h.3c1.8-.1 1.8-.6 1.8-1.4 0-1 .4-3.6 2.4-4l.6-.1c1.4 0 1.9 1 2 1.6l.2.1.4.2c.7.4 2 1 3 2.1 1.2 1.4 4.2 3.5 6 4.3.9.4 1.4.5 1.6.5h.3l.1-1.3c.2-2.1.3-2.8.8-3l.4-.3c.6-.5 1-.7 1.3-.7h.2c.3.1.5.2 1.4 2.3a3.3 3.3 0 0 1 2.9-.2 28 28 0 0 0 5.5 1.7h.6c1 0 6 0 6.8.5 1.2.5 2 1 2.5 1 1-1.6 2.2-3.1 3.4-3.4l1.6-.4c.3-1.3.7-3.4.4-4.2-.5-1.5-1.1-3.5.3-4.7a2 2 0 0 1 1.3-.5c1.4 0 2.7 1.3 3.6 2.5 1 1.6 1.7 2.4 1.3 3.4l-.2 2.8a15.6 15.6 0 0 0 5.4 0c0-.9 0-2.4 1.3-2.9a6 6 0 0 1 2-.4c.6 0 1 .1 1.2.3l.3.2c-.4-4 .2-4.3.5-4.4l.6-.2c.7 0 1.4.4 2.2 1.2.8.7 1.7 2.3 1.5 3.3a14 14 0 0 1-2.2 4c-1 1.3-1.3 3-1.3 4.2s-1.3 2.2-2.4 3l-.9.9c0 .1-9.5 13.9-18.1 16.9a21.7 21.7 0 0 1-7 1.4ZM55.5 67c-.4 0-.9.4-.9 1.1 0 1.5.6 5 2.2 5h.1c.7-.1 1.3-.7 1.5-1.5.3-1.2-.2-3-2.3-4.4a1 1 0 0 0-.6-.1Z" class="cls-19"/><path d="M97.4 58.4c1 0 2.3 1.1 3 2.3 1.1 1.5 1.6 2.1 1.4 2.8-.3.7-.3 3.5-.3 3.5s1.2.4 3.2.4c1 0 2.2-.1 3.5-.4 0 0-.4-2.4.8-2.8a5.4 5.4 0 0 1 1.9-.3h.8l1.3 1.2s-.6-5 0-5.3a.8.8 0 0 1 .4 0c.5 0 1.2.4 1.8 1 .7.6 1.4 2 1.3 2.7-.1.7-1.1 2.5-2.1 3.8-1 1.3-1.4 3.2-1.4 4.5s-2.7 2.9-3.2 3.6c-.4.6-9.6 13.8-17.8 16.6-3 1-5.1 1.4-6.7 1.4-3.1 0-4.3-1.3-4.7-1.9h-2.5c-4.5 0-13.8-.4-22.4-4C43.9 82.6 43.5 80 42 78.8c-1.4-1.2-1.4-3.1-1.8-3.5-.4-.4-3.6-3.1-3.6-6.7.1-3.2-.6-8.5 2-8.5h.8s-.2 3.2 1.5 4.4c1.6 1.1 6 3.8 8.4 3.8h.2c2.4-.2 2.4-1.2 2.4-2s.3-3 2-3.5h.4c1.2 0 1.4 1.1 1.6 1.5.3.3 2.1.7 3.5 2.3a23 23 0 0 0 6.2 4.4c.8.4 1.5.6 2 .6s.7-.2.8-.6c.1-.7.2-3.6.6-3.8.3-.2 1.1-1 1.4-1 .3.2 1.3 2.7 1.3 2.7s.8-.8 2-.8c.3 0 .6 0 1 .2 1.6.7 4.7 1.8 5.7 1.8h.6c1.7 0 6 .2 6.6.4.5.3 2.3 1.2 2.8 1.2h.2c.2-.3 1.9-3.2 3.2-3.5l2-.5s1-3.5.5-4.9c-.4-1.3-1-3 .1-4 .3-.3.6-.4 1-.4M56.7 73.7h.2c2.3-.3 3.4-4.3-.5-7-.3-.2-.7-.3-1-.3-.8 0-1.5.6-1.5 1.7 0 1.5.6 5.6 2.8 5.6m40.6-16.5c-.6 0-1.2.2-1.6.6-1.8 1.5-1 4-.5 5.4.1.5 0 2.1-.4 3.5l-1.2.3c-1.4.3-2.5 1.8-3.6 3.3l-1.9-.8c-1-.6-7-.6-7-.6h-.7c-.6 0-3-.8-5.3-1.7a4 4 0 0 0-2.8 0c-.8-1.8-1-1.9-1.5-2a1.5 1.5 0 0 0-.4-.1c-.6 0-1 .4-1.6.8l-.4.3c-.8.4-.9 1.3-1 3.5l-.1.7a5.9 5.9 0 0 1-1.2-.4c-1.6-.8-4.6-2.8-5.8-4.2-1-1.2-2.3-1.8-3.1-2.2l-.3-.1c-.2-.6-.9-2-2.6-2a3 3 0 0 0-.7.2c-2.3.5-3 3.2-3 4.6 0 .6 0 .7-1.2.8h-.1c-1.8 0-5.6-2-7.7-3.6-1-.6-1-2.6-1-3.3a1.2 1.2 0 0 0-.9-1.2 3.7 3.7 0 0 0-1-.1c-.8 0-1.5.2-2 .8-1.4 1.4-1.3 4.2-1.3 7v2c0 2.4 1.3 5 3.8 7.3l.1.4c.3.9.7 2.3 2 3.4l.6.6c1.2 1.6 3.4 4.1 13.2 8.2a62 62 0 0 0 24.9 4.1c.7.8 2.2 1.9 5.2 1.9 2 0 4.3-.5 7-1.4 8.8-3 18.5-17 18.5-17.2l.8-.6c1.2-1 2.6-2.1 2.6-3.6 0-1.1.4-2.7 1.2-3.7a14 14 0 0 0 2.3-4.3c.3-1.3-.8-3.2-1.7-4-1-.8-1.8-1.3-2.6-1.3a2 2 0 0 0-1 .2c-.4.3-1 .6-.8 4a6.6 6.6 0 0 0-3 .4c-1.2.4-1.6 1.7-1.7 2.9a14.4 14.4 0 0 1-4.2 0l.2-2c.4-1.4-.3-2.4-1.4-4-.5-.7-2.1-2.8-4-2.8ZM56.8 72.5c-.8 0-1.6-2.5-1.6-4.4 0-.2 0-.5.3-.5l.3.1c1.8 1.3 2.2 2.8 2 3.7-.1.5-.4 1-1 1Z" class="cls-8"/><path fill="url(#linear-gradient)" d="M113 59.8c-.6.3 0 5.3 0 5.3l-1.3-1.1c-.3-.2-1.5-.3-2.7.2-1.2.5-.8 2.8-.8 2.8-2.6.6-4.8.4-5.9.2s.5 4-1.2 6.2c-1.7 2.3-13.2 4.2-17.9 6.8-4.6 2.6-16.8 1-25.5-2.1C49 74.9 45 72.4 44.2 66.5a31.6 31.6 0 0 1-3.2-2c-1.7-1.2-1.5-4.3-1.5-4.3-3.5-1-2.7 5-2.8 8.5 0 3.5 3.2 6.2 3.6 6.6.4.4.4 2.3 1.8 3.6 1.4 1.2 1.8 3.7 13.6 8.6 11.7 5 25 4 25 4 .5 1 3 3.4 11.3.6 8.2-3 17.4-16 17.8-16.7.5-.7 3.2-2.3 3.2-3.5s.4-3.2 1.4-4.5c1-1.4 2-3.2 2.1-3.8.2-.7-.6-2.2-1.3-2.8-.7-.7-1.6-1.2-2.2-1Z"/><path d="M97.4 59c.7 0 1.8.8 2.6 2 1 1.4 1.3 2 1.2 2.3-.2.8-.3 3.2-.3 3.7 0 .2.1.5.4.6a17.3 17.3 0 0 0 7 0 .6.6 0 0 0 .5-.7c-.1-.6-.1-2 .4-2.2a5 5 0 0 1 1.7-.3h.5l1.2 1.1a.6.6 0 0 0 .7 0 .6.6 0 0 0 .3-.5c-.2-1.8-.3-4-.2-4.7.1 0 .6.1 1.4.9.7.6 1.2 1.8 1.1 2.2 0 .5-1 2.2-2 3.6a8.4 8.4 0 0 0-1.5 4.8c0 .6-1.2 1.6-2 2.2a6 6 0 0 0-1 1c-.1.2-9.4 13.6-17.6 16.5-2.5.9-4.7 1.3-6.5 1.3-3.1 0-4-1.3-4.1-1.6a.6.6 0 0 0-.5-.3s-1 0-2.6 0a60 60 0 0 1-22.2-4c-9.4-3.9-11.4-6.2-12.5-7.6a6.8 6.8 0 0 0-1-1 4.6 4.6 0 0 1-1.2-2.4c-.1-.4-.2-.8-.5-1l-.1-.2c-2.2-2-3.3-4-3.2-6v-2c-.1-2.2-.2-5 .7-5.8a.8.8 0 0 1 .6-.2h.2c0 1 .3 3.2 1.7 4.3 1.5 1 6.1 4 8.8 4h.3c2.7-.3 2.9-1.6 2.9-2.7 0-.8.4-2.6 1.5-2.9h.4c.4 0 .6.3.9.9l.2.3c.1.3.5.4 1 .7.7.3 1.7.8 2.5 1.7 1.5 1.7 4.8 3.9 6.4 4.6a5.6 5.6 0 0 0 2.2.6c.8 0 1.3-.4 1.4-1l.2-1.4c0-.6.1-1.8.3-2.1l.4-.4.4-.2.9 2c0 .3.3.4.5.4l.5-.1s.6-.7 1.5-.7l.8.2s4.5 1.8 6 1.8h.6c2 0 5.8.2 6.2.4 1.1.5 2.6 1.2 3.2 1.2.3 0 .5-.2.6-.3l.3-.4c1.1-1.7 2-2.7 2.6-2.8l2-.5a.6.6 0 0 0 .4-.4c.1-.4 1-3.8.5-5.3s-.8-2.7 0-3.4a.8.8 0 0 1 .5-.2M56.8 74.3h.3c1.2-.1 2.2-1 2.5-2.4.4-1.6-.1-3.9-2.8-5.7a2.3 2.3 0 0 0-1.2-.4c-1 0-2.2.8-2.2 2.3 0 1.6.7 6.2 3.4 6.2m40.7-15.8c-.3 0-.7 0-1 .3-1 1-.5 2.7 0 4 .4 1.4-.6 5-.6 5l-2 .4c-1.3.3-3 3.2-3.2 3.4h-.1c-.6 0-2.4-.8-2.9-1-.5-.3-4.9-.5-6.5-.5h-.6c-1 0-4.1-1.1-5.8-1.8l-1-.2c-1.2 0-2 .8-2 .8s-1-2.5-1.2-2.6c-.3 0-1.1.7-1.5 1-.3.1-.4 3-.6 3.8 0 .3-.3.5-.8.5s-1.1-.2-2-.5a23 23 0 0 1-6.1-4.5c-1.4-1.6-3.3-2-3.5-2.3-.2-.3-.5-1.5-1.6-1.5H54c-1.6.4-2 2.7-2 3.5s0 1.8-2.3 2h-.3c-2.4 0-6.8-2.6-8.4-3.8-1.7-1.2-1.5-4.3-1.5-4.3a2.7 2.7 0 0 0-.8-.1c-2.5 0-1.9 5.3-2 8.6 0 3.5 3.2 6.2 3.6 6.6.4.4.4 2.3 1.8 3.5 1.5 1.3 1.8 3.8 13.6 8.7a61 61 0 0 0 22.4 4h2.6c.3.7 1.5 1.9 4.6 1.9 1.7 0 3.8-.4 6.7-1.4 8.2-2.8 17.4-16 17.9-16.6.4-.7 3.2-2.3 3.2-3.6s.3-3.1 1.3-4.5c1-1.3 2-3.1 2.2-3.8.1-.6-.6-2-1.4-2.8-.5-.5-1.2-1-1.8-1a.8.8 0 0 0-.3.1c-.6.3 0 5.3 0 5.3l-1.4-1.1-.8-.1c-.5 0-1.2 0-1.8.3-1.2.5-.9 2.8-.9 2.8-1.2.3-2.4.4-3.4.4-2 0-3.3-.4-3.3-.4s.1-2.8.3-3.5c.3-.6-.2-1.3-1.3-2.8-.8-1.2-2-2.3-3-2.3ZM56.8 73.6c-2.1 0-2.7-4-2.7-5.5 0-1.1.7-1.7 1.5-1.7.3 0 .6 0 1 .3 3.8 2.6 2.7 6.6.4 6.9h-.2Z" class="cls-19"/><path d="M102.9 67.2c-.9 0-1.4-.2-1.4-.2s0-2.8.3-3.5c.2-.7-.3-1.4-1.3-2.9s-2.8-2.8-4-1.9c-1.1 1-.5 2.8 0 4.1.4 1.4-.6 5-.6 5l-2 .4c-1.3.3-3 3.1-3.2 3.4-.2.3-2.4-.8-3-1-.6-.4-6.3-.6-7.1-.5-.8 0-4-1-5.8-1.8-1.8-.6-3 .6-3 .6s-1-2.5-1.2-2.6c-.3 0-1.1.7-1.5.9-.4.2-.4 3-.6 3.8s-1.1.8-2.8 0a23 23 0 0 1-6.2-4.4c-1.3-1.6-3.2-2-3.4-2.3-.3-.4-.6-1.9-2.1-1.5-1.6.4-2 2.7-2 3.5s0 1.8-2.3 2c-2.4.3-7-2.6-8.7-3.8-1.7-1.2-1.5-4.3-1.5-4.3a2.6 2.6 0 0 0-.8-.1c-1 6.4 8.5 8.5 9.7 9 1.2.5 3.7-.9 3.7-.9s1-3.6 2-4c1.2-.4 1.6 1.5 2.3 1.5s4.3 2.7 6.4 4.8C64.9 72.6 69 73 69 73l1.4-3c.6-1.4 2.9.8 3.2.8s1.7-.7 3 .2c1.4 1 5 .2 7.9.5 2.8.3 6.3 2 6.3 2l2.5-2.9c1.1-1.4 3.3-1.2 3.3-1.2s1.2-5.1 1-6.8c-.4-1.8-.5-4.1 1.5-2.3 2.1 2 1.2 7.3 1.2 7.3l2.6-.4Z" class="cls-4"/><path fill="#b7eae8" stroke="#3c7bd6" stroke-linecap="round" stroke-linejoin="round" stroke-width="1.2" d="M101.5 52c-1.5 0-3.8-.5-4 0s3.6 4.6 4.6 5.5c1 .9 3.9.3 3.9-1.5s-2-4-4.5-4Z"/><path fill="url(#linear-gradient-2)" d="M76.3 13.4a1.7 1.7 0 0 1-.4 0c-1.3-.3-2-1.6-2.5-2.6a6.4 6.4 0 0 0-.4-.7l-.2-.2c-.5-.8-1.1-1.7-2.7-2a8.9 8.9 0 0 0-2-.2H66c-1.1 0-2.2 0-2.9-.5a2 2 0 0 1-1-1.9c0-.8.6-1.7 1.1-2a9 9 0 0 1 4-.8c2.1 0 4 .5 4.7.8.4.2 2 .4 3.2.5l3 .5c2 .4 4 2.5 5.2 3.7l.5.5c.8.8 1.4 1.4 1.4 2.1a1 1 0 0 1-.4.8 1.6 1.6 0 0 1-1 .3 5 5 0 0 1-2.6-1c-.2 0-1.2-.3-2.8-.3 0 .8-.2 1.8-.7 2.4-.3.4-.8.6-1.3.6Z"/><path d="M67.2 3.1c2 0 3.8.4 4.3.7 1 .5 4.6.6 6.4 1 1.9.5 4.1 2.8 5 3.8 1 1 2 1.8 1.4 2.3a1 1 0 0 1-.6.2 4.4 4.4 0 0 1-2.2-.8c-.6-.4-2.7-.5-3.5-.5h-.4c.3 1.3-.2 3-1.3 3H76c-1.3-.3-2-2.2-2.5-3-.6-.9-1.3-2-3.3-2.6l-2-.1h-2.3c-1 0-2 0-2.6-.4-1.2-.8-.4-2.6.1-2.9a8.5 8.5 0 0 1 3.7-.7m0-1.2c-1.7 0-3.1.3-4.2.8-.8.4-1.4 1.5-1.4 2.6-.1 1 .4 1.9 1.2 2.4.8.5 2 .6 3.2.6h2.3a8 8 0 0 1 1.7 0c1.4.4 1.9 1.2 2.4 1.9l.2.2.4.7c.5 1 1.3 2.6 2.9 2.9a2.3 2.3 0 0 0 2.3-.8 4 4 0 0 0 .8-2.2c1 0 1.7.2 1.9.3.6.4 1.8 1 2.9 1 .5 0 1-.2 1.4-.5.3-.3.6-.7.6-1.2 0-1-.7-1.7-1.5-2.5l-.4-.4-.2-.1c-1.2-1.2-3.4-3.5-5.4-4L75 3.2c-1-.1-2.7-.3-3-.5-.8-.4-2.9-.8-5-.8Z" class="cls-8"/><path d="M68.4 4c2.6.8 4.3 1.6 6 1.5 1.6 0 10.2 4.3 9.5 5.6a.9.9 0 0 0 .4-.2c.6-.5-.4-1.3-1.3-2.3-1-1-3.2-3.4-5-3.8-2-.4-5.6-.5-6.5-1-.9-.5-5.4-1.3-8 0-.3.1-.5.4-.7.8a9 9 0 0 1 5.6-.6Zm36.2 51.3c-.2.4-1 .4-1.7 0s-1.2-1-1-1.3c.2-.4 1-.4 1.7 0 .7.3 1.2 1 1 1.3Z" class="cls-4"/><path fill="#703c16" d="M84.7 36.3c.3.9.6 1.7 1.1 2.5a7.8 7.8 0 0 0 2.2 2c.2.3.6.1.8-.1.2-.3 0-.7-.2-.9a6.8 6.8 0 0 1-1.5-1.3l-.1-.1a7 7 0 0 1-.8-1.5l-.1-.3-.3-.7a.6.6 0 0 0-.7-.4c-.3.1-.5.5-.4.8ZM89 36c.9.9 1.9 1.8 3.1 2.5.3.1.7 0 .8-.3.2-.2.1-.6-.2-.8L92 37l-.2-.2h-.1a14 14 0 0 1-1.7-1.6c-.2-.2-.6-.3-.8 0s-.3.6 0 .8Zm18.7 8.4c3 2.4 4.6 6 4.6 9.8 0 .8 1.2.8 1.2 0a13.7 13.7 0 0 0-5-10.7c-.6-.4-1.4.4-.8.9Zm-.5 6.4c.5.5 1 1 1.2 1.7s.2 1.4 0 2c0 .4.1.7.4.8s.7 0 .8-.4a4.9 4.9 0 0 0-1.6-5c-.2-.1-.6-.2-.8 0-.3.3-.3.7 0 1ZM92.6 35.1l1 1 .4.1c.1 0 .3 0 .5-.2s.1-.2.1-.4l-.1-.4-1-1-.5-.1c-.2 0-.3 0-.4.2l-.2.4c0 .2 0 .3.2.4ZM76.4 51.2c-.2 3 2.6 4.7 5 5.6.4.1.7-.1.8-.4.1-.3-.1-.6-.4-.7a9.3 9.3 0 0 1-3-1.7c-.8-.8-1.3-1.7-1.2-2.8 0-.3-.3-.6-.6-.6s-.6.3-.6.6Z"/><path fill="#a18f70" stroke="#5b2307" stroke-linecap="round" stroke-linejoin="round" stroke-width="1.2" d="M1.3 39.1s22.4 5.5 46.2.5l6.1-8-46.2 6-6.1 1.5Z"/><path fill="#d2001e" stroke="#5b2307" stroke-linecap="round" stroke-linejoin="round" stroke-width="1.2" d="M1.3 39.1s11.1-2 22.6-3.5 22.9-3.3 22.9-3.3l3.5.9s-2.1 2.5-13.9 4.3S1.3 39 1.3 39Z"/><path fill="#ceb891" d="M43.9 33.2c-16 0-42.5-3-42.8-3a.6.6 0 0 1 .1-1.2h.4c24.2-.5 43.7-1.8 43.9-1.8.3 0 .5.2.6.4 1 2.8 5.9 3 8 3h1.2a.6.6 0 0 1 .6.4.6.6 0 0 1-.2.8c-1 .6-3.2 1-6.6 1.3a89 89 0 0 1-5.2.1Z"/><path d="M45.5 27.8c1.1 3 6.1 3.5 8.6 3.5h1.2c-1 .6-3.2 1-6.2 1.2a91 91 0 0 1-5.2.1 490 490 0 0 1-42.7-3h.4c24.5-.5 44-1.8 44-1.8m0-1.2h-.2c-.2 0-19.7 1.3-43.9 1.8h-.3a1.2 1.2 0 0 0-.1 2.4c.2 0 26.8 3 42.8 3l5.2-.1c3.5-.3 5.7-.7 6.9-1.4a1.2 1.2 0 0 0-.7-2.3H54c-1.5 0-6.5-.1-7.4-2.6a1.2 1.2 0 0 0-1.2-.8Z" class="cls-2"/><path fill="url(#linear-gradient-3)" d="M32 61.3c-.7 0-1-1-1.2-6.7l-.1-1.7c0-.3-.2-.6-.4-1-.3-.4-.6-1-.5-1.5l-.7-9.9v-.2l.2-.1a9.6 9.6 0 0 1 3.1-.4H34.3v.4l-.5 7.4a6.6 6.6 0 0 1-.6 2.5 3 3 0 0 0-.3 1.4s.3 9.6-.9 9.8Z"/><path d="M32.4 40.1H34l-.5 7.5c0 2-1 2.7-.9 4 0 1.1 0 9.3-.7 9.4-.7 0-.8-7.4-1-8.1s-.9-1.7-.8-2.5l-.7-10c.8-.2 2-.3 3-.3m0-.6a10 10 0 0 0-3.3.4l-.4.2v.4c.4 3.5.9 9.3.8 9.8 0 .7.2 1.3.5 1.8l.4.8v1.7c.4 6.1.7 7 1.5 7h.1c.6 0 1-.5 1.2-5v-5.1c0-.5.1-.8.3-1.3.3-.6.6-1.4.6-2.6 0-2 .4-7.3.4-7.4v-.6h-2.1Z" class="cls-8"/><path fill="url(#linear-gradient-4)" d="M17.4 62.6a.6.6 0 0 1-.4-.2c-.3-.3-.6-1-.5-3.8v-5.3c-.5-.4-.6-1.7-.5-3.7l-.4-7.4v-.3h.3s3.1-.3 5.4-.3c2.2 0 2.6.2 2.8.5v.5c-.2.6-.6 3.5-1 6.2-.9 5.8-1 5.8-1.3 5.8-.6 0-.6-.7-.6-3v-.5l-.5-4.1a39.7 39.7 0 0 0-.6 4c0 1.3-.9 4-1 4.2l-.4 2.6c-.7 4.3-.8 4.7-1.2 4.8h-.1Z"/><path d="M21.3 41.8c1.6 0 2.8.2 2.5.7-.5 1.2-1.7 11.8-2 11.8-.4 0-.3-2.3-.4-3.3 0-.9-.7-6-.7-6s-1 4.8-1 6-.6 3.3-.9 4.1c-.3.9-1 7.1-1.4 7.2-.5 0-.7-1-.6-3.7.2-2.8 0-5.5 0-5.5-.5-.2-.6-1.7-.5-3.5l-.4-7.4s3.1-.3 5.4-.3m0-.6c-2.3 0-5.3.3-5.4.3h-.6v.6l.4 7.4c0 2 0 3.3.5 3.8v5.2c0 2.7.2 3.6.5 4 .2.2.5.3.7.3.8-.1 1-.6 1.6-5l.4-2.6c.1-.3 1-3 1-4.4l.2-2A24 24 0 0 1 21 51v.6c0 2.2 0 3.3.8 3.3s.8 0 1.7-6.1c.4-2.5.8-5.6 1-6.1a.8.8 0 0 0 0-.8c-.3-.4-.9-.7-3-.7Z" class="cls-8"/><path fill="url(#linear-gradient-5)" d="M4.2 56.3c-.5 0-.6-.4-.8-5.4l-.2-4-.6-6.1v-.2l.2-.1c.1 0 3-1 4.4-1 .7 0 1 .3 1 .5.1.8-.6 3.2-1.6 6l-.5 1.5-.7 4c-.6 4.4-.8 4.7-1.2 4.8Z"/><path d="M7.2 39.8c.4 0 .6 0 .7.3.1 1-1.6 5.7-2 7.3-.5 1.6-1.3 8.5-1.7 8.6-.5 0-.5-6.6-.7-9.2l-.6-6s2.9-1 4.3-1m0-.7c-1.5 0-4.4 1-4.5 1l-.4.2v.5l.6 6 .2 4c.2 5.1.3 5.8 1 5.8h.2c.6 0 .7-.5 1.4-5.1l.7-4 .5-1.4c1-3 1.7-5.3 1.6-6.1 0-.3-.3-.9-1.3-.9Z" class="cls-8"/><path d="M32.4 40.7h1a318 318 0 0 0-.5 6.9c0 1-.3 1.6-.5 2.2-.2.5-.5 1-.4 1.8v6.6l-.3-3.7a20.7 20.7 0 0 0-.1-1.8l-.5-1.1-.4-1.1c.1-.7-.5-7.3-.7-9.6a11 11 0 0 1 2.4-.2m0-.6a9.9 9.9 0 0 0-3 .4s.8 9.1.7 10c0 .7.7 1.6.9 2.3.1.8.2 8.2 1 8.2.7-.1.7-8.3.6-9.5 0-1.2.8-1.9 1-4 0-2 .4-7.3.4-7.3l-1.6-.1Zm-11.3 2.4c1.2 0 1.8.1 2.1.2-.3.9-.6 3-1 6l-.3 1.4a181 181 0 0 0-.7-5l-.3-2.6h.1m-.5 0L20 45a68.1 68.1 0 0 0-.9 6c0 1-.7 3-1 4l-.5 2.7-.4 2.3v-1.4c.2-2.8 0-5.4 0-5.5v-.3l-.2-.2a125.3 125.3 0 0 0-.4-9.9l4-.2m.4-.6c-2.2 0-5 .3-5 .3s.2 5.7.2 7.4c0 1.8 0 3.3.4 3.6 0 0 .2 2.6 0 5.4 0 2.7.1 3.7.6 3.7s1.2-6.3 1.5-7.1c.3-.9 1-3 1-4.2 0-1.2 1-5.9 1-5.9s.7 5 .7 6-.1 3.3.2 3.3c.4 0 1.7-10.6 2.3-11.8.2-.5-1.2-.7-2.9-.7ZM7.2 40.3h.1c0 1-1 3.8-1.5 5.3l-.5 1.5c-.3.8-.5 2.4-.8 4.1l-.2 1.1v-1.6a77 77 0 0 0-.2-4.1 383.1 383.1 0 0 1-.5-5.6c1-.3 2.7-.7 3.6-.7m0-.6c-1.4 0-4.2 1-4.2 1l.5 6c.3 2.7.1 9.2.6 9.2.4 0 1.2-7 1.7-8.6S8.1 41 8 40c0-.2-.3-.3-.7-.3Z" class="cls-4"/><path d="M32.6 47.2c0 .7-.2 1.4-.6 1.4-.4 0-.8-.5-1-1.3 0-.7.3-1.3.8-1.3.4 0 .8.5.8 1.2Zm-14.3.2c-.1 1-.6 2-1 1.9-.5 0-.8-1-.7-2 0-1 .5-1.8 1-1.8.4 0 .7 1 .6 2Zm37-16.2c-1 .7-3.2 1-6.2 1.3-2-.6-4.1-1.5-5.2-3.2 0 0-31 1.2-42.3.3 24.5-.6 44-1.8 44-1.8 1.4 4 9.2 3.5 9.7 3.4Z" class="cls-4"/><path fill="#fe6" d="M50.9 70.6a.6.6 0 0 1-.5-.3L34.9 45a.6.6 0 0 1 0-.5l.3-.4L46.4 39a.6.6 0 0 1 .3 0h.3c.1.1.3.3.3.5l4.2 30.4a.6.6 0 0 1-.4.6.7.7 0 0 1-.2 0Z"/><path fill="#592308" d="M46.7 39.6 50.9 70 35.5 44.7l11.2-5.2m0-1.1h-.5L35 43.7a1.2 1.2 0 0 0-.6 1.7l15.4 25.3a1.2 1.2 0 0 0 1.5.5c.5-.2.8-.7.8-1.3l-4.2-30.4a1.2 1.2 0 0 0-1.2-1Z"/><path d="M38.9 44.9 37 46l2.7 5.7-4-6.4 3-.5z" class="cls-4"/><path fill="#ffbe47" d="M38.9 44.8s2.6.3 3 1.2c.3 1 1.7 5.8 3.2 5s1.7-1.7 1.7-1.7l.2 3s-2.7.9-3.7.8c-1 0-4.1-2.4-4.1-2.4l2.6 4.4s5.1.6 6.2-.1.6-1 .6-1L47 41.8l-8.1 3.1Z"/><path d="M36.2 45.7s8.2 5.5 13 7.7" class="cls-16"/><path d="M46.5 43s-2.4 10.3-4.1 14.2m0-13.1s-1 6.8-2.5 8.9" class="cls-16"/><path d="M40.2 44s5.3 4.1 8.6 5.2" class="cls-16"/><path fill="#ffbfbf" d="M44.5 49h-.2c-1.5-.4-2.5-3.6-3-5.6a20.4 20.4 0 0 1-7.5 1.7c-1.3 0-2.2-.4-2.5-1.1-.5-1 0-2 .3-2.5-.5-.7-1.3-2.4-.7-4A4.3 4.3 0 0 1 33 35a4.6 4.6 0 0 1-.6-2c0-1 .4-2.3.4-2.5.7-2 3.7-4.2 4-4.4a.6.6 0 0 1 .8 0c.2.1.3.3.2.6-.3 2 1.4 3.6 2 4.2l1.4-.1a8 8 0 0 1 3 .5c1.8.7 2.3 3.1 2.4 4.1 1 .4 2.3 1.3 2 2.8-.2 1.7-2.8 3.7-3.8 4.5.5 1.7 1.1 5 .4 6a1 1 0 0 1-.8.4Z"/><path d="M37.3 26.5c-.4 2.7 2.4 4.9 2.4 4.9l1.6-.1c.8 0 1.8 0 2.7.4 2 .8 2.1 4 2.1 4s2.3.6 2 2.3c-.2 1.8-3.9 4.3-3.9 4.3s1.6 6 .3 6h-.1c-1.4-.3-2.7-5.8-2.7-5.8s-2 1.4-7 2a7.8 7.8 0 0 1-.9 0c-3.7 0-1.5-3-1.5-3s-1.5-2-.9-3.8c1-2.4 2.7-2.4 2.7-2.4s-.9-.7-1-2.4c0-.9.4-2.3.4-2.3.6-1.8 3.8-4.1 3.8-4.1m0-1.2c-.2 0-.5 0-.7.2-.6.5-3.6 2.7-4.2 4.7-.1.3-.6 1.7-.5 2.8 0 .7.2 1.2.4 1.7a5.3 5.3 0 0 0-2 2.6c-.6 1.6 0 3.3.6 4.2-.4.7-.7 1.8-.2 2.7.5 1 1.5 1.4 3.1 1.4a22.7 22.7 0 0 0 7-1.4c.8 2.5 1.8 5 3.3 5.3a1.5 1.5 0 0 0 1.6-.5c.7-.9.6-3 0-6.2 1.2-1 3.4-2.9 3.6-4.6.3-1.6-.8-2.7-2-3.3-.3-1.3-.9-3.5-2.8-4.3a8.8 8.8 0 0 0-3.2-.5H40c-.6-.6-1.8-1.9-1.6-3.4a1.2 1.2 0 0 0-1.2-1.4Zm0 2.4Z" class="cls-23"/><path d="M36.9 27s-2.5 2-3 3.8c-.3 1.8.2 3.2 2.4 4 0 0-1.8-1.6-1.5-3.7.3-2 2.1-4 2.1-4Zm-1.2 9.7s-.7-.4-1.3.1-.7 1.8-.3 2.4c.4.5 4.2.8 4.2.8s-3.3-.6-3.5-1.6.9-1.7.9-1.7Zm8.4-3.1s.1 3.3-2.1 4.4c0 0 1.7 0 2.3-2 .6-2.1-.2-2.4-.2-2.4Zm-.3 10.2v-1.4s1.1 2.8.9 3.6" class="cls-4"/><path d="M44.5 45.5c-.2.6-.8-1-.8-1.7" class="cls-4"/><path fill="#ff85ba" d="M44.9 48c-.1.3-.3.4-.5.4-1.4-.4-2.7-5.9-2.7-5.9s-2 1.4-7 2c-4.9.4-2.4-3-2.4-3s-1.5-2-.9-3.8c1-2.4 2.7-2.4 2.7-2.4s-.9-.7-1-2.3c0-1 .4-2.4.4-2.4a.5.5 0 0 1 0-.1c0 .8-.1 2.7.7 3.5 1 1 3.5 1.8 3.5 1.8-1.2.8-3.3.3-3.3.3-1.6 0-2 2.7-1.3 3.3.6.6 5.3 1 5.3 1-1.8 1.5-4.4 1.3-4.4 1.3s-.2 1.6 1.2 1.8c1.4.2 7-1.8 7-1.8s1 3.7 1.4 4.6a7 7 0 0 0 1.3 1.8Zm3.3-10c-.3 1.6-3.2 3.8-3.8 4.3V42l-.2-.6s1.6-1.4 2.5-2.6c.9-1.2.5-2.3-.9-1.1a12 12 0 0 1-4.7 1.9c.3-.2 2.3-1.6 3-2.5a5 5 0 0 0 1-3.6c-.3-.9-2.9-2.1-3.4-1.1-.6 1-3.3 2.3-3.3 2.3s.1 0 .8-1.4c.4-1 .2-1.9 0-2.5l.5.5s2.4-.4 4.3.3c2 .8 2.1 4 2.1 4s2.3.6 2 2.3Z"/><path d="M47.1 34.9a4 4 0 0 1-.7 1.5 6 6 0 0 1-1 1 7.8 7.8 0 0 1-2.5 1.4L44 38a6.2 6.2 0 0 0 1.6-2l.3-1.2c0-.3.3-.6.6-.6s.6.2.6.5v.2ZM32 40.6a10.2 10.2 0 0 0 2.7.6c1 .1 2 0 2.9-.2a10.8 10.8 0 0 1-6 .8.6.6 0 0 1-.4-.7.6.6 0 0 1 .7-.5Zm1.4-6.2a7.7 7.7 0 0 0 1.7 1.2c.7.3 1.4.5 2.1.5a5 5 0 0 1-2.2 0 7.6 7.6 0 0 1-2.3-.8.6.6 0 0 1-.2-.8c.1-.3.5-.4.8-.2h.1Zm7.2-3.9.2 1-.2.9-.6.6-.7.4c.4-.3.7-.8.7-1.2l-.1-.6-.3-.5a.6.6 0 0 1 .9-.9l.1.3Z" class="cls-23"/><path d="M46.6 68.2H46c-2.2-.1-2.9-2.4-3-3.6a5 5 0 0 1-1.2-.6c-2.4-1.6-1.8-4.2-1.1-5.4a.5.5 0 0 1 .1-.2 5.5 5.5 0 0 1-1.3-4.3.6.6 0 0 1 .9-.4c1 .5 2.4.7 4 .7 2.7 0 4.7-.7 5.1-1 0-.8-.4-2.8-.7-4a.6.6 0 0 1 .5-.7h.2c.5 0 2.3 0 3.4 1.4 1.4 1.6 2.8 2.7 4 2.8a110 110 0 0 0 13.8-3.5.6.6 0 0 1 .8.3L74 56a.6.6 0 0 1-.2.7c-.8.5-18.9 11.6-27.3 11.6Z" class="cls-22"/><path d="M49.5 49.3c.5 0 2 0 3 1.2 1 1.3 2.7 2.8 4.3 3h.2c2.2 0 14-3.5 14-3.5l2.5 6S55 67.7 46.6 67.7h-.5c-2.3-.2-2.4-3-2.4-3h.9c1.8 0 3.5-1.2 3.5-1.2s-1.5.7-3.3.7a5 5 0 0 1-2.7-.7c-2.6-1.6-1-4.6-1-4.6a7 7 0 0 0 4.5 1.4 7.8 7.8 0 0 0 1.1 0s-3.8-.3-5.4-2.2c-1.6-1.9-1.2-3.8-1.2-3.8a10 10 0 0 0 4.3.8c3 0 5.7-.9 5.7-1.5 0-1-.8-4.3-.8-4.3h.2m0-1.2h-.3a1.2 1.2 0 0 0-.9.5c-.2.3-.2.7-.2 1 .4 1.2.7 2.7.8 3.5-.7.3-2.5.8-4.5.8a8.9 8.9 0 0 1-3.8-.7 1.2 1.2 0 0 0-1 0c-.4.2-.6.5-.7.8a6 6 0 0 0 1.1 4.5c-.7 1.4-1.3 4.3 1.4 6l1.1.6c.2 1.4 1 3.6 3.5 3.8h.6c8.6 0 26.8-11.2 27.6-11.7.5-.3.7-1 .4-1.5L72 49.5a1.2 1.2 0 0 0-1.5-.7c-4.4 1.4-12 3.5-13.6 3.5-1-.1-2.3-1.1-3.6-2.6-1.2-1.5-3-1.7-3.9-1.7Z" class="cls-2"/><path d="M72.3 50s2-2.8-.4-1.8c-4.6 2-14 5.5-15.1 5.3-1.6-.2-3.3-1.7-4.4-3-1-1.3-3-1.2-3-1.2s.8 3.2.7 4.2c0 1-6.4 2.5-10 .7 0 0-.4 2 1.2 3.9s5.4 2.1 5.4 2.1-3.3.5-5.5-1.3c0 0-1.7 3 1 4.6 2.5 1.6 5.9 0 5.9 0s-2.3 1.6-4.4 1c0 0-.5 2.3 2.4 3.1 2.9.9 29.4-10.8 29.4-10.8L72.3 50Z" class="cls-22"/><path d="M41.3 58c-1.6-1.9-1.2-3.8-1.2-3.8l1.4.5c-.5.6-1.2 1.7-1 2.6.4 1.4 6.2 2.9 6.2 2.9S43 60 41.3 58Zm.8 5.4c-2.5-1.6-1-4.6-1-4.6a5 5 0 0 0 1.1.7c0 .8.4 2.6 1.1 3.3 1 .9 5 .6 5 .6l-.6.3.3-.2c-.4.2-3.5 1.4-5.9 0Zm20-.6c-4.8 1.8-10.8 5.5-16 4.8-3-.4-2.4-3-2.4-3h1.2c.2.7.7 2 2.1 2.3 1.6.1 12.1-3.3 15-4ZM49.2 49.3h1.2c.5.4-.1 1.1.2 2.3.6 2.1-.2 2.1-.7 2.4h-.3c.3-.1.4-.3.4-.5 0-1-.8-4.2-.8-4.2Z" class="cls-17"/></g></svg>