<svg xmlns="http://www.w3.org/2000/svg" xmlns:xlink="http://www.w3.org/1999/xlink" id="Layer_2" data-name="Layer 2" viewBox="0 0 238.9 182.2"><defs><linearGradient id="linear-gradient" x1="119.7" x2="119.7" y1="-668.7" y2="-650.6" gradientTransform="rotate(132 -35.8 -232.3)" gradientUnits="userSpaceOnUse"><stop offset="0" stop-color="#dbffff"/><stop offset="1" stop-color="#339ed3"/></linearGradient><linearGradient xlink:href="#linear-gradient" id="linear-gradient-2" x1="125.5" x2="125.5" y1="-494.4" y2="-558.4"/><linearGradient id="linear-gradient-3" x1="89.4" x2="89.4" y1="-671.8" y2="-701" gradientTransform="rotate(88 -270.1 -306)" gradientUnits="userSpaceOnUse"><stop offset="0" stop-color="#dbffff"/><stop offset="1" stop-color="#1376a6"/></linearGradient><linearGradient xlink:href="#linear-gradient-3" id="linear-gradient-4" x1="170.5" x2="170.5" y1="-646.8" y2="-675.8" gradientTransform="rotate(82 -280.6 -318.9)"/><linearGradient xlink:href="#linear-gradient-3" id="linear-gradient-5" x1="109.9" x2="109.9" y1="-668.9" y2="-698" gradientTransform="rotate(88 -269.7 -305.7)"/><clipPath id="clippath"><path d="M16.6 64.7S20.3 76.4 28 90a44.7 44.7 0 0 0 15.8 17.8s-13 2-26-3.6C5 98.5.4 83 0 76c-.3-7 5.3-14.4 16.6-11.3Z" class="cls-15"/></clipPath><clipPath id="clippath-1"><path d="M78.5 6.8s-1.7 12.2-.7 27.7c1 15.6 6.5 23 6.5 23s-12.7-3.9-21.8-14.6C53.4 32.2 56 16.3 58.7 9.8s11-10.7 19.8-3Z" class="cls-15"/></clipPath><style>.cls-1{fill:#5b2307}.cls-3{fill:#fff}.cls-5{fill:#85e2ea}.cls-10,.cls-9{stroke-linecap:round;stroke-linejoin:round}.cls-10,.cls-14,.cls-15,.cls-9{fill:none}.cls-18{fill:#3c7bd6}.cls-9{stroke-width:1.1478px}.cls-10,.cls-9{stroke:#4c1a09}.cls-20{fill:#b7eae8}.cls-21{fill:#4c1a09}.cls-10{stroke-width:1.0275px}.cls-14{opacity:.36}.cls-25{fill:#703c16}.cls-26{fill:#755b46}</style></defs><g id="Layer_1-2" data-name="Layer 1"><g class="cls-14" style="clip-path:url(#clippath);fill:none"><path d="M34 105.2c-.7 0-1.5-.1-2.4-.4-6.1-1.8-21.4-8.5-21-13.6 0-.7.5-2.6 3.3-2.6 1.7 0 4.1.8 6.2 1.6l-.9-1C11.4 81.4 5.5 75 6 71.9c.1-.8.6-1.4 1.2-1.7.5-.3 1-.4 1.7-.4 3.7 0 10.5 4.6 15.3 8.3-2.4-4.2-4.6-9-3.5-11 .3-.5.9-1.2 2.2-1.2.4 0 .8 0 1.2.2 6.4 1.7 17 19 17.8 29 0 2.5-1 6-3.1 8.2-1.3 1.3-3 2-4.7 2Z" class="cls-26"/><path d="M22.9 67h1c5.8 1.7 16 18.8 16.8 28 0 3-1.7 9-6.6 9-.7 0-1.4 0-2.2-.3-7.6-2.2-20.5-8.7-20.2-12.4.1-1 1-1.5 2.2-1.5 3.7 0 11 3.8 11 3.8-3-3.8-21.5-20.2-17.1-22.5.3-.2.7-.3 1.1-.3 5.6 0 20 12.4 20 12.4s-11-16.3-6-16.3m0-2.3c-1.4 0-2.6.7-3.2 1.8-.6 1.3-.9 3.1 1.3 7.8-4.3-3-9-5.6-12-5.6-.9 0-1.6.1-2.3.5-1 .5-1.7 1.4-1.8 2.5-.5 3.2 3 7.7 11.2 16.2l-2.2-.3c-3 0-4.3 1.9-4.5 3.6C9 98 27.6 105 31.3 106c1 .3 1.9.5 2.8.5 2 0 4-.8 5.5-2.4A13.5 13.5 0 0 0 43 95c-.8-9.7-11.3-28-18.6-30a6 6 0 0 0-1.5-.3Z" class="cls-21"/><path d="M13.3 71.3s2.4 6-3 8.5M23.4 78s.3 7-5.3 10.1M30.2 71S31 78 23 76" class="cls-9"/><path d="M19 90s2.6 5.7-2.4 8.1" class="cls-10"/><path d="M37.4 82.2s-3 3.1-5.6 2.4c0 0 2.5 10.5-6.1 9.4 0 0 2 6.2-2 8" class="cls-9"/></g><path d="M39.8 95.7a7 7 0 0 1-5.5-3c-4-5-12.7-19.2-9.4-23.2.5-.6 1.2-1 2-1 2.1 0 4.5 2.8 6.4 5.6l-.2-1.2c-1.8-10.8-3-19.3-.9-21.8a2.3 2.3 0 0 1 2.1-.8c3.8.5 7.2 9.3 9.4 16.2.5-5.7 1.7-11.2 4.4-11.2.9 0 1.6.4 2.4 1.4 4.2 5 3 25.3-2.1 33.9-1.5 2-4.9 5-8.6 5Z" class="cls-26"/><path d="M34 51.4h.2c4.8.7 10.3 22 10.3 22s.3-17 3.6-17c.5 0 1 .3 1.5 1C53.5 62 52.1 82 47.4 90c-1.3 1.8-4.4 4.5-7.6 4.5-1.6 0-3.2-.6-4.6-2.4-5-6.3-11.8-19-9.4-21.8.3-.4.7-.6 1.1-.6 3.2 0 8.3 10 8.3 10-.1-4.7-5.7-28.3-1.2-28.3m0-2.3c-1 0-2 .5-2.7 1.3-2 2.4-1.6 8.3.1 19.5-1.4-1.5-3-2.5-4.5-2.5-1.1 0-2.1.5-2.9 1.4-4.3 5.2 7 21.7 9.4 24.7a8 8 0 0 0 6.4 3.3c4.5 0 8.1-3.6 9.5-5.5V91c5-8.3 7-29.4 2-35.2-.9-1.2-2-1.8-3.2-1.8-3 0-4.2 3.3-4.9 7.5-3.8-10.4-6.6-12.1-8.7-12.4H34Z" class="cls-21"/><path d="M38.6 54.8s-1.5 6.4-7.4 5.2M43 66s-3.8 6-10.2 5.3M52.5 64.3s-3.2 6-8.7-.1" class="cls-9"/><path d="M32.4 73.3s-1.1 6.2-6.6 5.3" class="cls-10"/><path d="M52 77.6s-4.2.8-6-1.3c0 0-4 10-10.3 4.2 0 0-2 6.3-6.3 5.5" class="cls-9"/><path d="M19.7 90c0-1.2.5-2.5 1.2-3.6a10.7 10.7 0 0 1 6-4.8c1.3-.4 2.7-.5 4-.4-1.2.6-2.4 1-3.4 1.6a17.7 17.7 0 0 0-5.5 4.4c-.8.9-1.6 1.8-2.3 2.9ZM16.6 84.3c0-1.3.4-2.5 1-3.7a10.7 10.7 0 0 1 5.8-5.2c1.2-.5 2.6-.6 3.8-.6-1.1.6-2.2 1.1-3.2 1.8a17.7 17.7 0 0 0-5.3 4.7l-2.1 3Z" class="cls-21"/><g class="cls-14" style="clip-path:url(#clippath-1);fill:none"><path d="M79.5 51.5c-1.8 0-3.4-.7-5-2-4.7-4.3-15.5-17-13-21.4.6-1 1.4-1.4 2.4-1.4 2 0 4.6 2.3 6.7 4.6l-.4-1.2C66.6 19.5 64 11.3 65.9 8.6c.4-.7 1.1-1 1.9-1 3.8 0 8.7 8.3 11.8 14.5-.3-4.3-.2-9.4 1.2-11 .6-.7 1.3-.9 1.7-.9.8 0 1.5.3 2.3 1 5 4.3 7 24.5 3.3 33.8-1.2 2.6-4.6 6.5-8.6 6.5Z" class="cls-26"/><path d="M67.9 8.7c4.9 0 13.6 20 13.6 20s-2.5-17.3 1-17.3c.4 0 1 .2 1.5.7 4.6 4 6.4 23.8 3 32.5-1 2.2-4 5.8-7.5 5.8a6 6 0 0 1-4.1-1.8c-6-5.3-14.7-16.8-12.8-20 .3-.5.7-.7 1.3-.7 3.2 0 9.5 8.5 9.5 8.5-1-4.7-10.5-27.5-5.6-27.7m0-2.3c-1.2 0-2.2.6-2.8 1.5-1.9 2.7-.6 8.3 3 19.5-1.4-1.1-2.8-1.8-4.1-1.8-1.4 0-2.6.7-3.3 1.9C57 33.3 71 47.7 73.8 50.3a8.3 8.3 0 0 0 5.7 2.4c4.6 0 8.3-4.3 9.6-7.1v-.2c3.6-9 2.1-30-3.6-35-1-1-2-1.3-3-1.3s-1.9.4-2.5 1.2c-1.2 1.3-1.6 4-1.7 7C73 7.7 70 6.4 68 6.4Z" class="cls-21"/><path d="M72.7 11.3s-.5 6.5-6.5 6.4M78.9 21.6s-2.8 6.6-9.3 7M88 18.4s-2.3 6.5-8.6 1.3" class="cls-9"/><path d="M69.6 30.6s-.1 6.3-5.6 6.3" class="cls-10"/><path d="M89.6 31.6s-4 1.5-6-.3c0 0-2.4 10.5-9.6 5.8 0 0-1 6.5-5.3 6.5" class="cls-9"/></g><path d="M89.6 45.6c-3.9 0-6.5-2.1-7.3-5.8-1.5-6.3-3-23 1.6-25l1.2-.3c2.6 0 3.8 4 4.4 8l.3-1.2c4-13.6 6.5-20.2 9.7-20.2.4 0 .8.2 1.3.4 3.1 2.1 2.4 11.6 1.3 18.7 2.5-4.2 5.7-8.4 8-8.4.7 0 2 .3 2.5 2.5 1.5 6.4-8.4 24-16.7 29.6-1.5.8-3.8 1.7-6.3 1.7Z" class="cls-26"/><path d="M99.5 2.3c.2 0 .4 0 .6.2 4.1 2.7-.3 24.3-.3 24.3s7-13.8 10.3-13.8c.6 0 1 .4 1.3 1.6 1.5 5.8-8.4 23.2-16.2 28.3-1.3.8-3.4 1.5-5.6 1.5-2.7 0-5.4-1.1-6.2-4.9-1.8-7.8-2.4-22.2 1-23.7l.7-.2c3.4 0 3.7 12.8 3.7 12.8 1.8-4.1 6.7-26.1 10.7-26.1m0-2.3c-3.7 0-6 5.3-9.9 17.9-.7-2.3-2-4.6-4.5-4.6a4 4 0 0 0-1.7.4c-6.2 2.8-3.1 22.6-2.3 26.3 1 4.3 4 6.7 8.5 6.7a14.5 14.5 0 0 0 7-1.9c8-5.3 18.9-23.4 17-30.8-.7-3-2.7-3.3-3.5-3.3-1.5 0-3.2.6-6.3 4.9 1.1-11-.6-13.8-2.4-15-.6-.4-1.3-.6-2-.6Z" class="cls-21"/><path d="M102.7 7.4s-4.2 5.1-9 1.5M101.8 19.5s-6.1 3.7-11.6.3M111 22s-5.5 4-7.7-3.8" class="cls-9"/><path d="M89 21.5s-3.7 5-8.2 1.8" class="cls-10"/><path d="M104.8 33.8s-4.1-1-4.8-3.8c0 0-8 7.3-11.1-.7 0 0-4.5 4.8-8 2.2" class="cls-9"/><path d="M70.2 31a10.7 10.7 0 0 1 10.3-4.5c1.3.2 2.6.7 3.7 1.3h-3.7a17.7 17.7 0 0 0-7 1.6L70.3 31ZM70 24.5a8.6 8.6 0 0 1 2.5-3 10.7 10.7 0 0 1 7.5-2c1.3 0 2.6.4 3.7 1-1.3.1-2.5 0-3.7.2a17.7 17.7 0 0 0-6.8 2c-1 .5-2.1 1-3.2 1.8Z" class="cls-21"/><path d="M154.3 180c-8.2 0-16.8-1.8-25.5-5.3-4-1.6-8.1-2.4-12.5-2.4-7 0-14 2.1-21.4 4.3a52.2 52.2 0 0 1-27.3.7c-1-.4-1-1.2-1-1.4 0-.3 0-.7.6-1.3a37 37 0 0 1-12.3-6.7c-.4-.4-.6-1-.4-1.5 0-.2.1-.7.9-1.1-5.7-2.6-11-8.3-11.2-10.5a84 84 0 0 0-4.3-13.2 81 81 0 0 1-1-29.2 82.3 82.3 0 0 1 24.7-51c24.2-22.5 45.3-25.8 55.8-25.8 8.5 0 16 2 21.3 5.8a52 52 0 0 1 13 13.4c.1-1.1.3-2.6 1.1-3.5.5-.5 1-.7 1.7-.7 1 0 2.1.6 3.4 2 3 3 4.4 8 5.1 11.7V64c.6-2.4 1.1-4.5 3-4.5.7 0 1.3.3 2.1 1 3 3 2.4 9.4 2.1 11.9 3.1 1.4 14.2 7 25.6 20.6a55.3 55.3 0 0 1 10.8 36.6c1.5-1 2.9-1.7 4-1.7.9 0 1.6.4 2 1 .7 1 .7 2.4 0 4.3-.7 2-2 4.1-3.4 6 1.1-.5 2.2-1 3-1 1 0 1.4.5 1.7.8.5.6.6 1.4.4 2.5-.7 4-5.7 7.3-9.5 9.2 1.2.3 2 .7 2.5 1.4.3.6.3 1.4-.2 2-1.4 2.2-6.8 2.7-9 2.8a58.7 58.7 0 0 1-45.8 23Z" style="fill:#a36731"/><path d="M119.4 36.7a36 36 0 0 1 20.6 5.6 50 50 0 0 1 17 21.1c-.1-3.8-2-7.3-2-7.3s-.4-4.4 1.5-4.4c.6 0 1.4.5 2.6 1.7 4.8 5 5.5 16 5.5 16 1.8-3.5 1.7-8.7 3.4-8.7.3 0 .8.3 1.3.8 3.2 3 1.6 11.7 1.6 11.7s13 5 26 20.6c13 15.5 10.3 38.7 10.3 38.7 2-2.1 4.1-3.3 5.4-3.3 1.3 0 1.8 1.1.9 3.7-1.9 5.3-8.5 12.2-8.5 12.2s6.6-5.6 9.2-5.6c.8 0 1.2.5 1 1.9-1 5.7-12.8 10-12.8 10s7.1 0 5.8 2.2c-1.4 2-8.7 2.2-8.7 2.2a57.5 57.5 0 0 1-70.2 17.9 34 34 0 0 0-13-2.6c-7 0-14 2.1-21.8 4.4a51.5 51.5 0 0 1-26.5.7c-1.5-.6 2.6-2.3 2.6-2.3-6.1 0-13.9-6-14.9-6.9-1-.9 3.2-1.8 3.2-1.8-6.5-1.4-13.4-8.6-13.5-10.4-.1-2-3.9-13-4.6-13.9-.7-.9-9-48.5 23.5-78.7 20.5-19 40.2-25.5 55.1-25.5m0-2.3c-10.6 0-32.1 3.4-56.6 26.1a83.4 83.4 0 0 0-25 51.8c-1 8.5-.8 15.8-.5 20.4.2 2.5.7 8.4 1.7 9.7v-.2c.6 1.3 4 11.1 4.1 12.7.1 2.5 5 7.8 10.4 10.7l-.2.5c-.2 1 .1 2 .9 2.7 0 0 5.4 4.4 11.3 6.4l-.1.7c0 .9.5 2 1.8 2.5s6.4 1.4 12.7 1.4c5.5 0 10.6-.7 15.3-2a75.1 75.1 0 0 1 21.1-4.4c4.2 0 8.2.8 12 2.4a59.6 59.6 0 0 0 72.2-17.7c3-.2 8-.8 9.6-3.3a3 3 0 0 0 .2-3.1 3 3 0 0 0-.9-1c3.6-2 7.4-5.1 8-9 .3-1.3 0-2.5-.6-3.3a3.3 3.3 0 0 0-2.8-1.2 21 21 0 0 0 1.7-3.5c.8-2.3.8-4-.1-5.3-.7-1-1.8-1.5-3-1.5-1 0-2 .3-2.8.8 0-8-1.2-23.6-11.1-35.4a80 80 0 0 0-25.3-20.5c.4-3.1.6-9-2.5-12-1-.9-2-1.4-3-1.4-1.3 0-2.1.7-2.7 1.7-1-3-2.3-6-4.4-8.3-1.6-1.6-3-2.4-4.3-2.4-1 0-1.9.4-2.5 1.1-.4.4-.7 1-.9 1.4a38.3 38.3 0 0 0-33.7-17.5Z" class="cls-1"/><path d="M40.8 141c.7.8 4.5 11.9 4.6 13.8.1 1.8 7 9 13.5 10.4 0 0-4.2 1-3.2 1.8 1 1 8.8 6.9 14.9 7 0 0-4.1 1.6-2.6 2.2 1.5.6 14.3 3 26.5-.7 6.3-1.9 12-3.6 17.8-4.1s-22 .6-32.8-10.1c-10.8-10.7-1.9-12-1.9-12l13.4-4.9s-11.3-4.4-9.7-12c1.5-7.6 5.7-6.4 5.7-6.4s-7-3.2-2.7-10.9a148 148 0 0 1 27.4-30.7c8-6.1 20-13.1 26.2-9.2 6.3 3.9 8 3.6 8 3.6s-3.3-16 2.2-12.6c5.6 3.4 7.9 7.9 7.9 7.9s1.6-9.5 3.6-6.6c2 3 3.5 7 3.5 7s3.5-1.6 7.9-1.8c.3-1.8 1-8.6-1.7-11.2-3.1-3-2.5 3.7-4.7 7.9 0 0-.7-11-5.5-16s-4.2 2.7-4.2 2.7 2 3.5 2.2 7.3c0 0-4.5-12.2-17-21-12.6-9-43.2-10.4-75.8 19.8C31.8 92.4 40.1 140 40.8 141Z" style="fill:#8e5424"/><path d="M59.7 129.6c15.6-13.5 52.7-32.5 64-16 11.5 16.6-2.9 24.4 11.4 44.5 14.3 20.2 41.6 11.2 52.6-4.8 11-16.1 3.2-35.9 2.7-37.3-.4-1.5 5.8-8.5 8.8-10.7 3-2.1 5 1.7 5.1 1.9-1.6-4.7-4-9.3-7.4-13.4-13-15.5-26-20.6-26-20.6s1.6-8.6-1.6-11.7c-3.1-3-2.5 3.7-4.7 7.9 0 0-.7-11-5.5-16s-4.2 2.7-4.2 2.7 2 3.5 2.2 7.3c0 0-4.5-12.2-17-21-12.6-9-43.2-10.4-75.8 19.8-27.2 25.3-25.8 62.9-24.2 74.9 6 .5 13-1.9 19.6-7.5Z" style="fill:#bd852d"/><path d="M60.8 65.8a80 80 0 0 0-6.3 7.8l-.7.9-1.7 2.7-.2.2-1.8 3-.4.9-1.2 2.2-.5 1-1 2a79.6 79.6 0 0 0-1.3 3.2c0 .4-.2.7-.3 1l-1 2.7-.1.3-1 3.1-.1.6-.7 2.4-.2 1a89.4 89.4 0 0 0-1.2 5.1l-.1.9-.4 2.4-.1.4-.4 2.9v.4l-.3 2.3v.8a113.4 113.4 0 0 0-.3 4.4v1l-.1 1.6v6a144.9 144.9 0 0 0 .2 3v1.6l.2 1v.1c0 .9.2 1.7.3 2.4 6 .5 13-1.9 19.6-7.5 6.1-5.4 15.6-11.5 25.5-16a154 154 0 0 1 26.5-29.2c8-6.1 20-13.1 26.2-9.2 6.3 3.9 8 3.6 8 3.6s-3.3-16 2.2-12.6c5.6 3.4 7.9 7.9 7.9 7.9s1.6-9.5 3.6-6.6c2 3 3.5 7 3.5 7s3.5-1.6 7.9-1.8V72.1a31 31 0 0 0 .2-1v-1.8l.1-.6v-1.2l-.2-1.9v-.2a13.3 13.3 0 0 0-.7-2.3l-.2-.3-.2-.5-.2-.2-.5-.6c-3.1-3-2.5 3.7-4.7 7.9 0 0-.7-11-5.5-16s-4.2 2.7-4.2 2.7 2 3.5 2.2 7.3c0 0-4.5-12.2-17-21-12.6-9-43.2-10.4-75.8 19.8L61.6 65l-.8.9Z" style="fill:#91682c"/><path d="M163.1 181c-1 0-2 0-2.8-.8a2 2 0 0 1-.5-1.5c.2-2.4 3.8-4 5.4-4.3a15 15 0 0 0 4-3.5c-1.2-1-2.4-2.7-2.5-4.3 0-1.2.4-2.2 1.4-2.9a5 5 0 0 1 3-.9c1.4 0 2.7.3 3.8.6l1.6.3.5.1 2 .2c1.6 0 3-.5 4.4-1.5 1.2-.9 2.7-2.5 4-4.1 2-2.4 3.9-4.6 5.8-5.1l1.1-.2a4 4 0 0 1 3.3 1.7c.8 1.2 1.2 2.6 1 3.6-1.6 6-8.9 11.5-11 12.3-.8.3-3 2.3-4.8 3.9-1.6 1.4-3.2 2.8-4.5 3.7-3 2.2-8.7 2.5-11.8 2.6h-1.4l-2 .2Z" style="fill:url(#linear-gradient)"/><path d="M194.3 154.3c2.3 0 3.4 2.8 3.2 3.8-1.5 5.6-8.5 10.9-10.3 11.5-1.8.7-6.6 5.7-9.5 7.8-3 2-9.2 2.3-11.7 2.4l-2.9.1c-1.3 0-2.2-.2-2.1-1 0-1.6 2.7-3 4.5-3.4 1.7-.3 5.5-4.8 5.5-4.8-2.4-1.4-4.3-4.5-2.3-6a4 4 0 0 1 2.5-.7c1.8 0 3.9.7 5.2.9l2.6.2c1.4 0 3.1-.3 5-1.6 3.2-2.2 6.7-8.3 9.5-9.1l.8-.1m0-2.3c-.5 0-1 0-1.4.2-2.3.6-4.2 3-6.3 5.4-1.4 1.6-2.7 3.2-3.9 4a6.2 6.2 0 0 1-3.7 1.2l-1.8-.1-.6-.1-1.4-.3c-1.2-.3-2.6-.6-4-.6-1.5 0-2.8.4-3.8 1.1a4.3 4.3 0 0 0-1.8 3.8c0 1.6 1 3.1 2 4.4a13.5 13.5 0 0 1-2.7 2.3c-1.6.4-6 2-6.2 5.4 0 .9.2 1.7.8 2.3 1 1 2.5 1.2 3.6 1.2h2l1-.1h.5c3.2-.2 9.1-.5 12.4-2.8l4.6-3.9c1.4-1.3 3.7-3.3 4.4-3.6 2.3-.9 10-6.7 11.7-13 .4-1.6-.3-3.5-1.2-4.7a5.2 5.2 0 0 0-4.2-2.1Z" class="cls-18"/><path d="M190.8 165c-4.3 2.6-7.6 4.1-9.6 6.6-2 2.4-19 9-19.9 6.4-.2.3-.3.5-.3.8-.1 1.5 2.4 1.1 5 1 2.5-.1 8.8-.3 11.7-2.4 2.9-2 7.7-7.1 9.5-7.8 1.8-.6 8.8-5.9 10.3-11.5 0-.4 0-1.2-.4-1.9-.4 1.4-2.4 6.3-6.3 8.7Z" class="cls-3"/><path d="M50.6 160.8c-1.7 0-4.9-.7-6-2.1-1-1.4-2.4-5.5-2.9-8.4-.5-2.8-2.6-5.5-4.3-7-1.6-1.4-1.4-4.7-1.3-7.3v-2.2c-.1-.3-7.6-31.3-1-47.2 6-14.7 12.6-16.2 15.1-16.2h.4c2.5-4.2 15.8-25.5 36-35.1 8-3.9 14.6-5.7 20.2-5.7 4 0 6.6 1 8.6 1.6a8.3 8.3 0 0 0 2.5.6h1c2.3 0 4.2.8 5.4 1.4l1 .5h.3l2.9-.2c3.4 0 8.1.7 11.5 3.9l2.8 2.4c4 3.5 8.3 7.1 8 10.5-.1 1.4-1 2.5-2.4 3.5a1.1 1.1 0 0 1-1.4-.2s-3.2-3-6.2-3h-.8c-4 .9-13.4 3.8-15.7 7-2 2.8-1.3 3.4-.2 4.4 1.3 1.2 4.5 5.1 2.6 8.5-1 2-2.4 2.3-3.5 2.3-.8 0-1.5-.2-2-.4h-.3l-1 .3c-1.4.6-3.6 1.6-6.4 1.6h-.4c-4 0-10.7 1.8-13.5 3-3 1.3-3.1 2.2-3.1 2.2l1.6 1.7c2.8 3 3.5 4 3.4 5l-.1 1c-.2 1.4-.2 2.5-1 3l-.7.1c-.7 0-2.7-.6-4.3-1.1-.2 1.4-1 3.2-3.3 4.4a49 49 0 0 0-9.4 5.7c-.7 1-8.5 9.2-10.2 9.9-2.2.9-3.8 1.7-4.5 2.1v.2c1 3.3 1.7 7 .5 9l-1.5 2.8c1.5 2.1 4 5.3 5.4 6 2.8 1.1 6.4 2.7 6.3 6.3 0 2.8-2.7 4.5-7 4.5l-2-.1c-3.5-.5-5.5-.7-6.5-2.4-.3-.6-2.1-2.5-3.6-4-1.4 1-4.3 3.6-6.9 7.8 1.3 1 3.4 3.1 2.5 5.4-1 2.5-2.8 4.5-3.8 4.8l-.7.1c6.1 4.5 5.8 5.7 5.6 6.2-.2 1.1-1.4 2.5-5 2.8a7 7 0 0 1-.7 0Zm58.8-100.4c-.9 0-1.5.2-2 .8-.6 1-.7 2.3 0 3.5.8 1.5 2.9 3.2 6.3 3.2 1 0 2-.1 3-.4.7-.2 1.3-.7 1.4-1.3.2-.7 0-1.4-.7-2-1.5-1.2-5.3-3.8-8-3.8Z" class="cls-20"/><path d="M106.8 30.7c6 0 8.8 2.3 10.9 2.3h.3l1-.1c3 0 5.4 2 6.3 2l3.2-.2c3 0 7.5.5 10.8 3.5 4.9 4.6 14.4 11 8.5 14.6 0 0-3.5-3.4-7-3.4a5 5 0 0 0-1 0c-3.8.9-13.8 4-16.4 7.5-2.7 3.6-1.3 4.9-.1 6 1.2 1 3.9 4.4 2.4 7-.7 1.4-1.6 1.8-2.5 1.8-1 0-1.8-.5-2.2-.5-1 0-3.7 2-7.5 2a10.4 10.4 0 0 1-.4 0c-4 0-10.8 1.7-14 3-3.1 1.5-4.4 2.9-3.5 4 1 1.2 4.9 5 4.7 5.8-.1.8-.1 3-.5 3.2h-.1c-.9 0-5.3-1.6-5.3-1.6s.3 3.4-2.8 5a49.5 49.5 0 0 0-9.9 6 82 82 0 0 1-9.6 9.5c-1.2.5-5.4 2.3-5.3 3 0 .6 2 6.5.7 8.9l-1.8 3.3s3.8 5.9 6.3 7c2.5 1 5.7 2.4 5.6 5.3 0 2.4-3 3.3-6 3.3H70c-3.5-.5-5-.7-5.7-1.9-.7-1.2-4.5-4.8-4.5-4.8s-4.8 3-8.5 9.5c0 0 3.8 2.4 2.9 4.7-.9 2.3-2.5 4-3 4-.5.2-3.3.6-3.3.6s7.8 5.4 7.4 6.6c-.3 1.3-2.1 1.8-4 2h-.6c-1.8 0-4.3-.7-5-1.6-.9-1-2.2-4.8-2.8-7.9a15 15 0 0 0-4.6-7.6c-1.8-1.7-.6-7.5-1-9s-7.4-31.2-1-46.5c5.5-13.4 11.3-15.5 14-15.5l1 .1s14-24.8 35.8-35.3c9-4.3 15.3-5.6 19.8-5.6m6.9 38.4c1 0 2-.2 3.3-.5 2.3-.6 3.3-3.3 1.1-5.2-1.5-1.4-5.6-4.2-8.7-4.2-1.2 0-2.2.4-2.9 1.4-2.2 3.1.7 8.5 7.2 8.5m-6.9-40.7v2.3-2.3c-5.8 0-12.6 2-20.7 5.8C66.4 43.7 53.2 64 50 69.2c-3.5.1-10 2.6-16 17-6.7 16.2.9 47.5 1 47.9v1.9c-.2 2.8-.3 6.4 1.7 8.2 1.6 1.4 3.4 4 3.9 6.3.6 3 2 7.3 3.1 8.9 1.5 1.8 5 2.5 7 2.5h.7c4.3-.4 5.7-2.2 6-3.7.6-1.9-1-3.5-4.3-6.1l-.1-.1c1.3-1 2.6-3 3.2-4.7.9-2.3-.3-4.5-2-6.1 2-2.9 4-4.9 5.3-6 1.3 1.3 2.5 2.5 2.7 3 1.3 2.2 3.8 2.5 7.4 2.9l2 .1c5 0 8.2-2.1 8.3-5.5.1-4.5-4.3-6.4-7-7.5-1-.4-3-2.8-4.5-5l1.1-2.1c1.3-2.3.7-5.7-.2-9.2.8-.5 2.1-1 3.7-1.7 2-.8 9.9-9.3 10.6-10.2.6-.8 5-3.3 9-5.4 2-1 3-2.5 3.6-4 2.6.9 3.2.9 3.5.9.4 0 .9-.1 1.2-.4 1.4-.7 1.5-2.2 1.6-3.8v-.9c.4-1.6-.7-3-3.6-6l-.9-.9 2-1.1c3.1-1.4 9.6-3 13-3h.5c3 0 5.4-1 6.9-1.6l.5-.3c.6.2 1.4.5 2.3.5 2 0 3.6-1 4.5-3 2.2-3.9-1-8.2-2.9-9.9l-.7-.7s0-.6 1.1-2.1c1.8-2.5 10-5.5 15-6.6h.6c2.1 0 4.7 2 5.4 2.7a2.3 2.3 0 0 0 2.8.3c2.3-1.3 2.9-3 3-4.3.3-4-4.1-7.8-8.4-11.4l-2.8-2.5c-2.9-2.7-7.2-4.1-12.3-4.1a31.1 31.1 0 0 0-3 .1l-.7-.3c-1.3-.6-3.3-1.6-5.8-1.6a9 9 0 0 0-1.3 0l-2-.5c-1.8-.7-4.7-1.7-8.9-1.7Zm6.9 38.4c-3 0-4.7-1.4-5.3-2.6-.2-.4-.6-1.4 0-2.3 0-.1.3-.4 1-.4 2 0 5.5 2 7.2 3.6.2.2.5.5.4.8 0 .2-.2.4-.6.5-1 .2-1.9.4-2.7.4Z" class="cls-18"/><path d="M55.2 157.6c.4-1.2-7.4-6.6-7.4-6.6l3.3-.5c.5-.2 2.1-1.8 3-4 .9-2.4-3-4.8-3-4.8 2.6-4.4 5.6-7.2 7.3-8.5s-6.3-4.4-7.4-9.6c-1-5.3 10.8-24.2 13-34C66.2 79.8 84 64.3 99.4 56c15.4-8.3 24-10.8 33.5-4.5 2.7-1 5.3-1.7 6.9-2 3.8-.9 8 3.3 8 3.3 5.9-3.6-3.6-10-8.5-14.6-5-4.6-13-3.4-14-3.3-1 0-3.7-2.5-7.3-2-3.5.5-11-6-32.9 4.5a84.8 84.8 0 0 0-33.9 34.2c-2-.5-8.7.1-15 15.4-6.4 15.3.6 45 1 46.5s-.8 7.3 1 9a15 15 0 0 1 4.6 7.6c.6 3.1 2 6.8 2.7 7.9.8 1 3.8 1.8 5.7 1.6 1.9-.2 3.7-.7 4-2Z" style="fill:url(#linear-gradient-2)"/><path d="M107 32.5c3.3 0 5.8.6 7.6 1 1.2.4 2.1.6 3 .6h1.4c1.7 0 3.2.7 4.3 1.2.8.4 1.4.7 2 .7h.5l2.7-.2c3 0 7.1.6 10 3.3l2.8 2.5c3.1 2.6 7.4 6.3 7.2 8.5 0 .2 0 .7-.6 1.2-1.3-1-4.1-3-7-3h-1.3c-3.5.8-14.2 3.9-17.2 8-3 4-1.5 6 .1 7.4 1.1 1 3.3 3.8 2.2 5.7-.5 1-1 1.1-1.5 1.1l-1.3-.3-.7-.2h-.3c-.5 0-1 .2-1.9.6-1.3.6-3.2 1.4-5.5 1.4h-.4c-4.4 0-11.3 1.9-14.4 3.2-2.6 1.2-4 2.4-4.4 3.7-.2.7 0 1.4.4 2l1.7 2c.9.8 2.4 2.5 2.8 3.1A18.7 18.7 0 0 0 99 88a64.7 64.7 0 0 1-4.6-1.4 1.2 1.2 0 0 0-1.1 1.2c0 .1.1 2.6-2.3 3.8A53 53 0 0 0 80.8 98c-1 1.3-8 8.6-9.1 9.1-6.3 2.6-6.2 3.4-6 4.2l.1.9c1 3.8 1.3 6.3.7 7.3l-1.8 3.4c-.2.3-.2.8 0 1.1.4.7 4 6.2 6.8 7.4 2.9 1.3 5 2.3 5 4.3 0 1.6-2.6 2.2-4.8 2.2l-1.6-.1c-3.2-.4-4.5-.6-4.9-1.3-.7-1.2-4-4.4-4.7-5a1.1 1.1 0 0 0-1.4-.2c-.2.2-5.1 3.3-9 10-.2.5 0 1.2.5 1.5.9.6 2.8 2.3 2.4 3.3-.7 2-2 3.1-2.3 3.4l-3 .5a1.1 1.1 0 0 0-.5 2c2.8 2 6 4.6 6.8 5.7-.3.3-1.3.7-3 .9a5 5 0 0 1-.4 0c-1.8 0-3.8-.8-4.2-1.2-.5-.8-1.8-4.2-2.4-7.4a16 16 0 0 0-5-8.3c-.8-.7-.7-3.8-.6-5.5v-3c-.2-.2-7.5-30.4-1.2-45.7 5.7-13.7 11.4-14.8 13-14.8l.8.1a1.1 1.1 0 0 0 1.3-.6c0-.2 12-23.5 33.3-33.7 8.3-4 15.2-5.9 21.3-5.9m6.8 37.7c1.1 0 2.3-.1 3.6-.5a4.2 4.2 0 0 0 3-3c.4-1.5-.1-3-1.4-4.2-1.4-1.2-5.8-4.4-9.5-4.4-1.6 0-3 .6-3.8 1.8a5.5 5.5 0 0 0-.3 5.8c1.1 2.2 4 4.5 8.4 4.5m-6.8-38.8c-5 0-11.9 1.2-21.8 6a84.8 84.8 0 0 0-33.9 34.2l-1-.1c-2.7 0-8.5 2.1-14 15.5-6.4 15.3.6 45 1 46.5s-.8 7.3 1 9a15 15 0 0 1 4.6 7.6c.6 3.1 2 6.8 2.7 7.9.8.9 3.3 1.6 5.1 1.6h.6c1.9-.2 3.7-.7 4-2 .4-1.2-7.4-6.6-7.4-6.6l3.3-.5c.5-.2 2.1-1.8 3-4 .9-2.4-3-4.8-3-4.8 3.8-6.5 8.6-9.5 8.6-9.5s3.8 3.6 4.5 4.8c.7 1.2 2.2 1.4 5.7 1.8l1.8.1c3 0 5.8-.9 5.9-3.3 0-2.9-3.1-4.3-5.6-5.3-2.5-1.1-6.3-7-6.3-7l1.8-3.3c1.3-2.4-.7-8.3-.7-9-.1-.6 4.1-2.4 5.3-2.9a82 82 0 0 0 9.6-9.5c1-1.3 6.7-4.4 9.9-6 3.1-1.6 2.8-5 2.8-5a40.7 40.7 0 0 0 5.4 1.6c.4-.3.4-2.4.5-3.2.2-.9-3.8-4.6-4.7-5.8-.9-1.1.4-2.5 3.6-4a44.3 44.3 0 0 1 14.3-3c3.8 0 6.5-2 7.4-2h.1c.4 0 1.3.5 2.2.5.9 0 1.8-.4 2.5-1.7 1.5-2.7-1.2-6.1-2.4-7.2-1.2-1-2.6-2.3 0-5.9 2.7-3.6 12.7-6.6 16.5-7.4a5 5 0 0 1 1-.1c3.5 0 7 3.4 7 3.4 5.9-3.6-3.6-10-8.5-14.6-3.3-3-7.8-3.5-10.8-3.5l-3.2.2c-1 0-3.3-2-6.3-2h-1a3 3 0 0 1-.4 0c-2 0-5-1.5-10.7-1.5Zm6.8 37.7c-6.5 0-9.4-5.4-7.2-8.5.7-1 1.7-1.4 2.9-1.4 3 0 7.2 2.8 8.7 4.2 2.2 1.9 1.2 4.6-1.1 5.2-1.2.3-2.3.5-3.3.5Z" class="cls-20"/><path d="M57.5 133.9c1.3-1.2 2.2-1.7 2.2-1.7s3.8 3.6 4.5 4.8c.7 1.2 2.2 1.4 5.7 1.8 3.5.4 7.6-.3 7.7-3.2 0-2.9-3.1-4.3-5.6-5.3-2.5-1.1-6.3-7-6.3-7l1.8-3.3c1.3-2.4-.7-8.3-.7-9-.1-.6 4.1-2.4 5.3-2.9a82 82 0 0 0 9.6-9.5c1-1.3 6.7-4.4 9.9-6 3.1-1.6 2.8-5 2.8-5s5 1.8 5.4 1.6c.4-.3.4-2.4.5-3.2.2-.9-3.8-4.6-4.7-5.8-.9-1.1.4-2.5 3.6-4a43.6 43.6 0 0 1 14.1-3c4 0 6.9-2.2 7.7-2 .8.1 3.3 1.5 4.7-1.2 1.5-2.7-1.2-6.1-2.4-7.2-1.2-1-2.6-2.3 0-5.9 2.7-3.6 12.7-6.6 16.5-7.4 3.8-.9 8 3.3 8 3.3.5-.3.9-.6 1.2-1-7.9-9.6-23 1.3-25.2 2.4-2.1 1-3.3 6.3-3.3 6.3s3.8 6 3 8c-.8 2.2-4 .3-4.9 1.3-.9 1-9.3 2.7-15 3-5.6.3-11.4 5.6-11.4 5.6l2.7 6c1 2.5-5 3-5.4 3.3-.4.5-1.1 3.4-4.1 4.1-3 .8-6.6 6.9-10.6 10.5a45 45 0 0 1-11 6.4l1 7.3c.6 3.3-2.4 6.2-2.4 6.2s5.7 8.2 8.5 10c2.8 1.7 6.4 4.5 1.1 5-5.3.6-11.7-7.6-11.7-7.6l-2.8 4.3Z" class="cls-3"/><path d="M80.8 151c2-2 5.6-4.6 5-5.5-.5-1-11-.7-13.4-.5-2.5.3-5.4 5.2-2.8 7.5 2.6 2.3 8 2.3 11.2-1.4Z" style="stroke:#3c7bd6;stroke-width:2.2955px;fill:#b7eae8;stroke-linecap:round;stroke-linejoin:round"/><path d="M72.4 151.4c-.3-.7.6-1.8 2-2.4 1.5-.6 3-.5 3.2.3.3.7-.6 1.8-2 2.4-1.5.6-3 .4-3.2-.3Z" class="cls-3"/><path d="M124.6 147.2a14.7 14.7 0 0 0-10.7-1.2c-1.4.4-.8 2.6.6 2.3 1.5-.4 3.2-.6 4.6-.4 1.5.2 3 .7 4.3 1.3.6.3 1.3.2 1.6-.4.3-.5.2-1.3-.4-1.6ZM119.5 153.8c-2.5.2-5.2.4-7.5 1.3-.6.2-1 .8-.8 1.4.1.6.8 1 1.4.8a13.4 13.4 0 0 1 3.5-.9h.4a27.7 27.7 0 0 1 3-.3c.6 0 1.2-.5 1.2-1.1 0-.6-.5-1.2-1.2-1.2ZM83.5 169.7A23.8 23.8 0 0 1 64 164c-1.1-1-2.8.6-1.6 1.6 6 5.3 13.8 7.7 21.7 6.5 1.5-.3.9-2.5-.6-2.3ZM75 160.9c.2 0 0 0 0 0a8.9 8.9 0 0 1-1.7 0H73a8.2 8.2 0 0 1-1.4-.5c-.2 0 .2.1-.1 0a8.4 8.4 0 0 1-1.4-.8s-.2-.1 0 0a6.2 6.2 0 0 1-1-1l-.6-.7c-.3-.5-1-.7-1.6-.4-.5.3-.7 1-.4 1.6 1 1.4 2.3 2.6 4 3.3 1.6.8 3.4 1 5.2.7.7 0 1-.9.8-1.4-.1-.7-.8-1-1.4-.8ZM116.2 159.9l-1.7.1h.4l-1.3.1c-.3 0-.5.2-.8.4-.2.2-.3.5-.3.8 0 .3.1.6.3.8.2.2.5.4.8.3.6 0 1.1 0 1.6-.2h-.3 1.3c.3 0 .6-.2.8-.4.2-.2.4-.5.3-.8 0-.3 0-.6-.3-.8-.2-.2-.5-.4-.8-.3ZM113.8 116.6c-4-4-10-2.3-14.3 0-1.3.7-.2 2.7 1.1 2 3.4-1.8 8.5-3.6 11.6-.4 1 1 2.7-.5 1.6-1.6Z" class="cls-25"/><path d="M152.3 108.8s2.9.7 4.7-.7" style="fill:none;stroke-width:1.6662px;stroke:#5b2307;stroke-linecap:round;stroke-linejoin:round"/><path d="M135.4 35.6S131.3 67.2 142 99l11.8 7.2-15.3-62.5-3-8Z" style="stroke-width:1.6662px;stroke:#5b2307;stroke-linecap:round;stroke-linejoin:round;fill:#a18f70"/><path d="M135.5 38s6 17.4 11.2 31c5.6 14.5 10.8 26.5 10.8 26.5l-4.3 10s-7.1-13.6-10.8-25.3c-3.6-11.8-6.9-42.2-6.9-42.2Z" style="fill:#d2001e;stroke-width:1.6662px;stroke:#5b2307;stroke-linecap:round;stroke-linejoin:round"/><path d="M134.7 45.3a53 53 0 0 1-9.9-1.8c-1-.2-3.3-.3-5.5-.4-6.2-.3-6.7-.5-6.8-1v-.4c.4-.5 2-.7 7.3-1.5l5.5-.9 8.2-1.6h.4l.1.3c.4.9 2.5 5.5 1.9 6.8l-.5.5h-.7Z" style="fill:url(#linear-gradient-3)"/><path d="M133.6 38.1s3 6.4 1.6 6.8h-.5c-2 0-7.7-1.4-9.8-1.8-2.3-.5-12-.5-12-1.1-.2-.6 8.9-1.5 12.5-2.3l8.2-1.6m.5-.9-.6.1-8.3 1.6-5.4.9c-6.1.8-7.2 1-7.6 1.7l-.2.7c.2.9.8 1 7.2 1.3 2.3.1 4.6.2 5.5.4l2.1.5a53 53 0 0 0 8.7 1.3c.3-.1.6-.4.8-.7.6-1.4-1-5.1-2-7.2l-.2-.6Z" class="cls-18"/><path d="M133.1 39a19.1 19.1 0 0 1 1.6 5 54.4 54.4 0 0 1-9.7-1.7c-1-.2-3.3-.3-5.7-.5h-1.6l2.3-.4 5.6-.8L133 39m.5-1-8.2 1.6c-3.6.8-12.7 1.7-12.5 2.3 0 .6 9.7.6 12 1 2 .5 7.8 2 9.8 2l.5-.1c1.4-.4-1.6-6.8-1.6-6.8Z" class="cls-3"/><path d="M126 81.3c-1.4 0-2.4-.3-3.2-.6-.5-.2-1-.3-1.6-.3h-.3c-1 .1-5.7.5-9.3.5-3.8 0-4.2-.4-4.3-.8v-.5c.6-.7 3.5-1.2 9.1-1.9 1.1 0 2.1-.2 2.3-.3a5 5 0 0 0 1.3-.6c.6-.4 1.3-.8 2-.8h.1c1.1 0 9.4-1.2 13.6-2h.3l.1.3c1 2.2.9 6.3.9 6.5v.4h-.4l-10.3.1h-.3Z" style="fill:url(#linear-gradient-4)"/><path d="M135.7 74.5c1 2 .9 6.3.9 6.3a537.5 537.5 0 0 0-10.6 0c-2.3 0-3.4-.8-4.8-.8a99 99 0 0 1-9.6.5c-2.1 0-3.8-.2-4-.5-.2-1 10.2-2 11.2-2.2 1-.2 2.2-1.4 3.2-1.4a1.4 1.4 0 0 1 .2 0c1.3 0 13.5-1.9 13.5-1.9m.5-1-.6.2a277.2 277.2 0 0 1-13.6 1.9c-.8 0-1.6.5-2.2.9a5 5 0 0 1-1.2.5l-2.2.3c-6.8.8-8.8 1.2-9.4 2a1 1 0 0 0-.1.8c.2.8.9 1.2 4.7 1.2a99.3 99.3 0 0 0 9.6-.5l1.5.3a10.2 10.2 0 0 0 3.6.6H137.4v-.9c0-.2 0-4.4-1-6.6l-.2-.6Z" class="cls-18"/><path d="M135.2 75.4c.4 1.4.5 3.3.5 4.6a471.8 471.8 0 0 0-9.7 0c-1.2 0-2-.2-2.8-.5-.6-.2-1.2-.4-2-.4h-.5c-1 .2-5.7.5-9 .5h-.2l5-.6 2.5-.3a6 6 0 0 0 1.6-.8c.5-.3 1-.6 1.5-.6a260 260 0 0 0 13-1.9m.6-.9s-12.2 2-13.5 2h-.2c-1 0-2.2 1.1-3.2 1.3-1 .3-11.4 1.1-11.1 2.2 0 .3 1.8.5 4 .5a99 99 0 0 0 9.5-.5c1.4 0 2.5.9 4.8.9h.3l10.3-.1s0-4.2-.9-6.3Z" class="cls-3"/><path d="M129.8 78c-1 0-1.9-.3-2-.9 0-.6.7-1.1 1.7-1.3 1-.1 1.9.2 2 .8 0 .6-.7 1.2-1.7 1.3Z" class="cls-3"/><path d="M134.3 67.6h-.3c-.8-.3-5-.5-8.6-.7-8.2-.4-8.2-.5-8.2-1 0-.7 1-1 4-1.2l.8-.1 5.5-1.3a85.8 85.8 0 0 0-6-.2c-2 0-5.2-.7-5.5-.7l-3.6-.3c-6-.3-6.6-.4-6.7-1l.1-.7c.4-.4 1.2-.9 5.2-1.1a75 75 0 0 0 7.3-.8c.5-.8 2.2-1 5-1.2 2.3-.2 10-1.5 10-1.5h.5v.3c.6 2.3 2 10 1 11.2-.1.2-.3.3-.5.3Z" style="fill:url(#linear-gradient-5)"/><path d="M133.5 56.2s2.3 11 .8 11h-.1c-1.8-.6-16.6-.8-16.6-1.3 0-.6 3.2-.8 4.4-.9 1.3-.1 8.1-2 8.1-2l-7.3-.3a9 9 0 0 0-1.4 0c-1.6 0-4.3-.5-5.3-.7-1.2-.3-9.9-.4-10-1-.1-.6 1.1-1 5-1.3 3.8-.2 7.4-.8 7.4-.8.3-.8 2.4-1 4.8-1.2 2.4-.2 10.2-1.5 10.2-1.5m.6-1-.8.2s-7.8 1.3-10 1.4c-2.8.2-4.5.5-5.3 1.3-1 .2-4 .6-7 .8-3.9.2-5 .7-5.5 1.3-.2.3-.3.6-.2 1 .2.9.9 1 7.1 1.3l3.5.3a31.5 31.5 0 0 0 8.8.8 36.5 36.5 0 0 1-3.5.7c-3 .2-4.5.4-4.4 1.6 0 1 1 1 3.1 1.1l5.5.3c3.4.2 7.7.4 8.5.6h.4c.3 0 .6 0 .9-.3 1-1.4-.1-7.8-1-11.6v-.8Z" class="cls-18"/><path d="m132.8 57.2.9 5.3-3.5-.2a132.8 132.8 0 0 0-8.8-.4c-1.4 0-4-.5-5.1-.8l-3.8-.2-3.3-.2 1.9-.2c3.8-.2 7.4-.8 7.6-.8l.4-.1.2-.4c.2-.2 1-.5 4-.7 2-.1 7.4-1 9.5-1.3m1 5.8c.1 1.5.2 2.6.1 3.2a97.2 97.2 0 0 0-10.4-.6l6.8-1.7 3.5-.9m-.3-6.8s-7.8 1.3-10.2 1.5c-2.4.1-4.5.4-4.8 1.2 0 0-3.6.6-7.5.8-3.8.2-5 .7-5 1.3.2.6 8.9.7 10 1a29.7 29.7 0 0 0 6.8.7c2.3 0 7.3.4 7.3.4s-6.8 1.8-8 1.9c-1.3.1-4.5.3-4.5.9 0 .5 14.8.7 16.6 1.2 1.6 0-.7-10.9-.7-10.9Z" class="cls-3"/><path d="M126.5 60.1c-1.4 0-2.6-.4-2.6-1 0-.7 1.1-1.2 2.6-1.3 1.4 0 2.6.5 2.6 1.1 0 .6-1.1 1.2-2.6 1.2Z" class="cls-3"/><path d="M154.8 107.7a.8.8 0 0 1-.7-.5 21 21 0 0 1 .6-9.2 565.8 565.8 0 0 1 21.7-62.7.8.8 0 0 1 1.5.5v.5a1522 1522 0 0 0-14 59c0 .4-.4.7-.8.7-4.1.3-6.6 7.1-7.4 11-.1.5-.4.7-.8.7Z" style="fill:#ceb891"/><path d="M177.1 35.6v.5c-8.5 32.7-14 59-14 59-5.9.5-8.1 11.1-8.3 11.8a21 21 0 0 1 .7-8.8c4.3-19.8 21.6-62.5 21.6-62.5m0-1.7c-.6 0-1.2.4-1.5 1-.7 1.8-17.5 43.1-21.7 62.9-1 4.7-1.2 7.8-.6 9.6a1.7 1.7 0 0 0 3.2-.1c.7-3.5 3-10.2 6.7-10.5.7 0 1.4-.6 1.5-1.3 0-.3 5.6-26.7 14-59V36a1.7 1.7 0 0 0-1.6-2Zm0 3.3Z" class="cls-1"/><path d="M154.8 107a21 21 0 0 1 .7-8.9c1.5-2.3 3.5-4.8 6.2-5.7 0 0 9.9-41.6 15.3-56.3-8.4 32.7-14 59-14 59-5.8.5-8 11.1-8.2 11.8Z" class="cls-3"/><path d="M151 117.6s18.2 17.5-6.2 29" style="fill:none;stroke-width:6px;stroke:#5b2307;stroke-linecap:round;stroke-linejoin:round"/><path d="m130.5 149.4-1.5-.2c-2.3-.7-4.1-2.5-4.2-4.4-.1-1.4.9-2.7 2.6-3.4.5-.2 1.1-.3 1.7-.3 4.2 0 9.2 5.2 9.4 5.5a.5.5 0 0 1-.4.8h-.8c-1.1 0-2.1.4-3.1.9-1.1.5-2.3 1-3.7 1Z" class="cls-5"/><path d="M129 141.6c4.1 0 9.1 5.3 9.1 5.3h-.8c-2.5 0-4.2 2-6.8 2l-1.3-.2c-3.7-1-5.8-5.2-1.6-6.8a4 4 0 0 1 1.5-.3m0-1a5 5 0 0 0-1.8.3c-2 .8-3.1 2.3-3 4 .1 2 2 4 4.6 4.7.5.2 1 .3 1.6.3 1.5 0 2.8-.6 3.9-1.2 1-.4 1.9-.9 2.9-.9l.7.1a1 1 0 0 0 1-.5 1 1 0 0 0-.1-1.2c-.2-.2-5.4-5.6-9.8-5.6Z" class="cls-18"/><path d="M133.1 159.5c-.7 0-1.4-.3-1.9-.8-.3-.4-.7-1.2-.6-2.5.4-3.6 7.2-5.5 7.4-5.6h.1a.4.4 0 0 1 .3.6c-.7.9-.7 1.9-.7 3 0 1.2-.1 2.5-1.3 3.7-.9 1-2.1 1.6-3.3 1.6Z" class="cls-5"/><path d="M138.1 151c-1.6 2 0 4.5-2 6.6-.8 1-2 1.5-3 1.5-1.3 0-2.3-.9-2.1-2.8.4-3.5 7.1-5.3 7.1-5.3m0-.8a.8.8 0 0 0-.2 0c-.8.3-7.3 2.2-7.7 6-.1 1.4.3 2.3.8 2.7.5.6 1.3 1 2.1 1a5 5 0 0 0 3.6-1.7c1.2-1.4 1.3-2.8 1.3-4 0-1 .1-2 .7-2.8l.2-.4c0-.5-.3-.8-.7-.8Zm0 1.5Z" class="cls-18"/><path d="M223.6 111.3a.8.8 0 0 1-.8-.4 39 39 0 0 1-1.5-3.6l-.8-1.9-1-2.2c-.3-1-.7-2-1.2-2.8l-.3-.8a29.3 29.3 0 0 1-6.9-.2.8.8 0 0 1-.4-1.4c1.3-1.4 2.7-2.5 4.6-3.7a47.2 47.2 0 0 0-2-3.3l-1.4-2.3a24 24 0 0 1-6.5 2.8.8.8 0 0 1-.8-1 24.7 24.7 0 0 1 3.6-6.9 109.5 109.5 0 0 0-8.6-9.5.8.8 0 0 1 .7-1.4 24.9 24.9 0 0 1 12.3 5.9c1.7-1.7 3.6-3.1 5.5-4.4a24.4 24.4 0 0 1 7-3 .8.8 0 0 1 .8 1c-.9 2.8-2.3 5-3.4 6.6a36.3 36.3 0 0 1-4.6 5.3 30.1 30.1 0 0 1 3.5 5.5l.2.6.5 1a35.3 35.3 0 0 1 11.2-2.1c1.4 0 2.8.1 4 .4a.8.8 0 0 1 .5 1.4c-2 2.1-4.2 3.5-6 4.4a36.4 36.4 0 0 1-7.4 3v.1c.4 1.8.5 3.6.6 5.4v3.2l-.1.6-.5 3a.8.8 0 0 1-.8.7Z" class="cls-3"/><path d="M225.1 72c-.8 2.4-2 4.4-3.3 6.3a35.3 35.3 0 0 1-4.5 5.2l-.5.5a30 30 0 0 1 2.3 3.4c.6.8 1 1.7 1.5 2.6l1 2.2a37.6 37.6 0 0 1 11.7-2.3c1.2 0 2.6.1 4 .4a23.4 23.4 0 0 1-5.8 4.3 35.3 35.3 0 0 1-8.1 3.2l.2.8c.5 2 .5 4 .6 6 0 1 0 2-.2 3 0 1-.2 1.9-.4 2.9-1-1.8-1.5-3.7-2.3-5.4-.8-1.7-1.4-3.5-2.2-5l-.6-1.4a30.6 30.6 0 0 1-7.2-.1c1.6-1.7 3.3-3 5.1-4a34 34 0 0 0-1-1.8l-1.3-2.3-2-3-.2.2c-2 1.3-4 2.3-6.5 3 .8-2.5 2-4.5 3.3-6.4l.5-.7a119.4 119.4 0 0 0-9-10 24.2 24.2 0 0 1 12.4 6.1l.6-.5c1.6-1.6 3.4-3 5.4-4.3 2-1.2 4-2.3 6.5-3m0-1.6h-.4c-3 .8-5.3 2.1-7 3.2a37.2 37.2 0 0 0-5.2 4 25.7 25.7 0 0 0-12.4-5.6 1.7 1.7 0 0 0-1.1 2.8 102.6 102.6 0 0 1 8.1 9 25 25 0 0 0-3.3 6.5 1.7 1.7 0 0 0 2 2.1c2.3-.6 4.3-1.6 5.8-2.5a44.7 44.7 0 0 1 1.1 1.7l.8 1.3a26.7 26.7 0 0 0 .7 1.2c-1.6 1-3 2.2-4.1 3.4a1.7 1.7 0 0 0 .8 2.8 22 22 0 0 0 6.6.3v.2l.1.1c.5.8.8 1.7 1.2 2.7l1 2.3.7 1.8 1.6 3.6a1.7 1.7 0 0 0 3.1-.4l.5-3v-.7l.2-2.7v-.7c-.1-1.5-.2-3.1-.5-4.7a33 33 0 0 0 13-7.6 1.7 1.7 0 0 0-.9-2.7 21.8 21.8 0 0 0-7.7-.2 37.2 37.2 0 0 0-7.3 1.6l-.1-.3-.3-.5-.4-.8c-.4-.7-.7-1.4-1.2-2-.4-.8-1-1.6-1.5-2.3a37 37 0 0 0 4.2-4.9c1.1-1.7 2.6-4 3.5-6.9a1.7 1.7 0 0 0-1.6-2.1Zm0 3.3Z" class="cls-1"/></g></svg>