<svg xmlns="http://www.w3.org/2000/svg" height="80px" xmlns:xlink="http://www.w3.org/1999/xlink" viewBox="0 0 121 104.7"><defs><linearGradient id="linear-gradient" x1="34.5" x2="34.5" y1="53.5" y2="32.5" gradientUnits="userSpaceOnUse"><stop offset="0" stop-color="#dbffff"/><stop offset="1" stop-color="#1376a6"/></linearGradient><linearGradient xlink:href="#linear-gradient" id="linear-gradient-2" x1="20.8" x2="20.8" y1="53.5" y2="32.5"/><linearGradient xlink:href="#linear-gradient" id="linear-gradient-3" x1="7.5" x2="7.5" y1="53.7" y2="32.5"/><linearGradient id="linear-gradient-4" x1="79.9" x2="79.9" y1="94.2" y2="60.6" gradientUnits="userSpaceOnUse"><stop offset="0" stop-color="#dbffff"/><stop offset="1" stop-color="#339ed3"/></linearGradient><linearGradient xlink:href="#linear-gradient-4" id="linear-gradient-5" x1="76.8" x2="76.8" y1="2.6" y2="12.1"/><style>.cls-1{fill:#755b46}.cls-2{fill:#4c1a09}.cls-3{fill:none;stroke:#4c1a09;stroke-width:.6px;stroke-linecap:round;stroke-linejoin:round}.cls-4{fill:#b7eae8}.cls-5{fill:#3c7bd6}.cls-7{fill:#5b2307}.cls-15{fill:#fff}.cls-24{fill:#ff0d0d}</style></defs><g id="Layer_2" data-name="Layer 2"><g id="Layer_1-2" data-name="Layer 1"><path d="M54.8 100a1 1 0 0 1-1-.8c-.2-.9.6-2.2 1.6-3.5l-3.7 1.8-4.1 2a2.7 2.7 0 0 1-1 .1 1.8 1.8 0 0 1-1.7-1 2 2 0 0 1 .6-2.3 31.1 31.1 0 0 1 4.1-2.5c-2.8 0-4.1-.5-4.2-1.4s1.2-1.7 2.5-2a81.7 81.7 0 0 1 8.4-1.2 36 36 0 0 1 3.9-.2c5 0 5.4 1.1 5.5 1.5.4 1.2-1.4 2.5-3.5 4l-1.6 1.2-1.4 1.2c-2 1.9-3.5 3-4.4 3Z" class="cls-1"/><path d="M60.1 89.6c2.7 0 4.8.3 5 1 .4 1.2-3 3.2-4.9 4.6-1.5 1.2-4.4 4.1-5.4 4.1a.3.3 0 0 1-.4-.2c-.3-1.4 3.5-5 3.5-5-2.5 1-8.8 4.1-10.5 4.8a2 2 0 0 1-.8.2c-1.2 0-1.7-1.3-.7-2.3 1.3-1.1 8.6-5 8.5-5l-4 1.4h-.7c-5.6 0-4-1.7-1.7-2.2a82 82 0 0 1 8.4-1.2 35.6 35.6 0 0 1 3.8-.2m0-1.2a37.8 37.8 0 0 0-4 .2 80 80 0 0 0-8.5 1.2c-2 .5-3.1 1.5-3 2.7s1.3 1.6 2.8 1.8a17.6 17.6 0 0 0-2.4 1.6 2.6 2.6 0 0 0-.8 2.9 2.4 2.4 0 0 0 2.2 1.5 3.1 3.1 0 0 0 1.3-.3l4.2-2 1.7-.7a3 3 0 0 0-.5 2 1.6 1.6 0 0 0 1.5 1.3c1.1 0 2.4-1 4.9-3.2l1.4-1.2 1.6-1.2c2.3-1.7 4.2-3 3.7-4.7-.3-.9-1.3-2-6.2-2Z" class="cls-2"/><path d="M47.8 94.9a3 3 0 0 1 2 3.3m1.7-5.1s3.1-.5 3 2.7m-5.3-5.6s1.5 1 .8 3.3m6 1.9a2.5 2.5 0 0 1 3 1.8m-5.8-7.6c.1.2 1.7.1 1.9 1.9 0 0 2.7-.7 3.4 1.8 0 0 2.7-.8 3.3 1.4" class="cls-3"/><path d="M77.4 104a1.3 1.3 0 0 1-1.4-.9c-.5-1.8 2.5-4.5 5-6.3l-2 .4a29 29 0 0 1-4 .6c-.3 0-1 0-1-.6s.4-1 1.1-1.4c3.3-2 11.2-3.5 12-3.7s7.5-3 10.4-3a1.7 1.7 0 0 1 1.6.7 1.3 1.3 0 0 1 0 1.3c-1.4 2.9-6.6 11.3-9.6 11.3a1.8 1.8 0 0 1-.4 0 1.4 1.4 0 0 1-1-1c-.3-1 .1-2.2.8-3.3l-1 .7a32 32 0 0 1-10.5 5.3Z" class="cls-1"/><path d="M97.4 89.7c1 0 1.4.3 1 1.1-1.4 3.2-6.5 11-9 11a1 1 0 0 1-.2 0c-2.2-.6 1.5-5.4 1.5-5.4-2 .9-10.6 7.1-13.4 7.1-.4 0-.7-.1-.7-.5-.7-2.5 7.4-7.5 7.4-7.5l-2.3.6c-1.5.2-5.5 1.1-6.8 1.1-.7 0-.7-.2.4-.8 3.4-2 11.8-3.6 11.8-3.6s7.3-3 10.3-3m0-1.3c-3 0-9.5 2.6-10.6 3-1.1.3-8.8 1.8-12.1 3.8-.6.3-1.8 1-1.5 2 .1.5.5 1 1.7 1a25.4 25.4 0 0 0 3.7-.5c-2 1.8-3.7 3.8-3.2 5.5a1.9 1.9 0 0 0 2 1.3c2 0 5.6-2 10.1-5a3.2 3.2 0 0 0 0 1.9 2 2 0 0 0 1.5 1.4 2.1 2.1 0 0 0 .5 0c3.6 0 9.2-9.6 10-11.7a2 2 0 0 0 0-1.9 2.3 2.3 0 0 0-2.1-.9Z" class="cls-2"/><path d="M77.3 100.2s3.4-.6 4 2.5m-1-5.5s5.8-1.4 6.2 2.4m-8.8-5a2.1 2.1 0 0 1 .5 2.6M88.4 99s3-2.3 5.5-.3m-10.5-5.1a1.5 1.5 0 0 1 1.9 1s4.3-1.3 6.2.7c0 0 3.7-2.5 5.5-.7" class="cls-3"/><path d="M61.9 92.5a11.2 11.2 0 0 1-4-.7c-6.5-2.5-6.8-9.4-6.8-9.5a.6.6 0 0 1 .5-.6 13.6 13.6 0 0 1 2.4-.2 32 32 0 0 1 17 7 .6.6 0 0 1 .3.5.6.6 0 0 1-.2.4 17.4 17.4 0 0 1-9.2 3Z" class="cls-4"/><path d="M54 82c8.1 0 16.7 7 16.7 7a16.9 16.9 0 0 1-8.8 2.9 10.3 10.3 0 0 1-3.7-.7c-6.2-2.4-6.4-9-6.4-9a13 13 0 0 1 2.2-.1m0-1.2a13.9 13.9 0 0 0-2.4.2 1.2 1.2 0 0 0-1 1.2c0 .3.3 7.4 7.2 10a11.7 11.7 0 0 0 4.1.8 18.1 18.1 0 0 0 9.5-3.2 1.2 1.2 0 0 0 .5-1 1.2 1.2 0 0 0-.5-1c-.3-.3-9-7-17.4-7Z" class="cls-5"/><path fill="#a36731" d="M79.3 90.4a41 41 0 0 1-3.7-.2c-24-2.2-34-15.1-34.8-23.2a27.3 27.3 0 0 1 .7-9.8 3 3 0 0 1-1.8.8 1.1 1.1 0 0 1-.8-.4 2.7 2.7 0 0 1-.5-2 13 13 0 0 1 2.8-6.2 4.8 4.8 0 0 1-2 .8 1 1 0 0 1-.8-.3 1.7 1.7 0 0 1-.4-1.2c0-2.2 2.8-4.2 3.9-5a40.7 40.7 0 0 1-.9-17.3 29.1 29.1 0 0 1 10.6-17c-1.2-.3-2.2-.8-2.4-1.7 0-.5.1-1.3 1.7-2a13.8 13.8 0 0 1 3.6-.7c-.9-.4-1.6-.8-1.7-1.4 0-.4 0-.9.8-1.4a4.3 4.3 0 0 1 2.3-.5 13.8 13.8 0 0 1 4.6 1 2 2 0 0 1-.3-1.4 1 1 0 0 1 .9-.7h.2c1.4 0 3.3 2 4 2.6h1.2c19 0 27.2 11.8 30.8 21.8 2.2 6.3 7 9.3 12.6 12.7a29 29 0 0 1 9.8 10.4.8.8 0 0 1-.8 1.1h-.1a19.5 19.5 0 0 1 1.6 7.2.8.8 0 0 1-.8.8 1.3 1.3 0 0 1-.4 0c1 3 .7 7.1-.2 8a44.2 44.2 0 0 0-3.6 6.3c-.2 1-14.7 19-36.2 19Z"/><path d="M61.3 1.2c1.4 0 3.8 2.6 3.8 2.6h1.4c21 0 28 15 30.2 21.4s7.1 9.4 12.9 13a28.4 28.4 0 0 1 9.5 10.1c.1.3 0 .4-.2.4a5.7 5.7 0 0 1-1.6-.6c2.1 2.5 2.5 7.6 2.5 8.3 0 .1 0 .2-.2.2a5 5 0 0 1-1.6-.8c1.7 3 1.3 8.2.6 9a41.6 41.6 0 0 0-3.8 6.6 48.2 48.2 0 0 1-39.1 18.3C52.4 87.4 42.2 75 41.3 67a26.3 26.3 0 0 1 2.4-14 10.3 10.3 0 0 0-2.1 3.3s-1.1 1.2-1.9 1.2c-.4 0-.8-.5-.7-1.9.3-3.6 4.4-7.7 4.4-7.7-1.7.4-3.4 1.8-4.3 1.8-.3 0-.5-.2-.5-.9.1-2.3 4-4.7 4-4.7s-2.5-6.9-1-17.4S53.2 9 53.2 9c-3-.1-4.7-1.5-2-2.6a21.1 21.1 0 0 1 6.8-1h1s-7.6-1-5-2.7a3.7 3.7 0 0 1 2-.5c2.8 0 6.4 2 6.4 2s-2.5-2.8-1.2-3h.2M61.3 0H61a1.6 1.6 0 0 0-1.3 1 1.4 1.4 0 0 0-.1.7 12.6 12.6 0 0 0-3.7-.7 4.9 4.9 0 0 0-2.6.6 1.9 1.9 0 0 0-1 2 1.6 1.6 0 0 0 .5 1 10.8 10.8 0 0 0-2 .5c-2.1.9-2.2 2-2.1 2.7a2.5 2.5 0 0 0 1.7 1.8 29.3 29.3 0 0 0-10 16.7 42.1 42.1 0 0 0 .8 17c-1.3 1-3.7 3-3.8 5.3a2.3 2.3 0 0 0 .5 1.6 1.6 1.6 0 0 0 1.2.5 2.7 2.7 0 0 0 .4 0 11 11 0 0 0-1.7 4.7 3.2 3.2 0 0 0 .6 2.6 1.8 1.8 0 0 0 1.3.6 2.4 2.4 0 0 0 .8-.2 27.7 27.7 0 0 0-.4 8.7c1 8.3 11.2 21.5 35.4 23.8l3.8.1a45 45 0 0 0 26.4-9.3c6-4.4 10.1-9.3 10.3-10.2a.5.5 0 0 1 0 .1 47 47 0 0 1 3.5-6c1-1 1.3-4.7.6-8a1.4 1.4 0 0 0 1-1.3 21.4 21.4 0 0 0-1.4-6.7 1.5 1.5 0 0 0 .4-.4 1.4 1.4 0 0 0 .2-1.4 29.7 29.7 0 0 0-10-10.7c-5.5-3.4-10.2-6.3-12.4-12.4-3.7-10-12-22.1-31.4-22.1h-1c-1-1-2.7-2.6-4.2-2.6Z" class="cls-7"/><path fill="#8e5424" d="M114.8 71.3a41.6 41.6 0 0 1 3.8-6.6c.7-.7 1.1-6-.6-9 0 0 1.8 1.3 1.8.6s-.4-5.8-2.5-8.2c0 0 2.1 1 1.8.2a28.4 28.4 0 0 0-9.5-10.2 51.5 51.5 0 0 1-8-5.5s8 8.4 7.6 16.4-4 5-4 5l-6.6-3.5s2.2 6-1.3 8-4.5 0-4.5 0 1.2 3.8-3.4 4.8-16.4 1-21.6 0-12.1-3.2-12.8-7-1.4-4.4-1.4-4.4-5.1 6.9-5.7 3.5a11.8 11.8 0 0 1 .3-5.8s-4.2 2.7-3.8.9a22.3 22.3 0 0 1 1.5-3.9 13 13 0 0 1-3.5-2.4c-.8.5-3.7 2.6-3.8 4.6 0 2.3 2.3-.3 4.8-1 0 0-4 4.2-4.4 7.8s2.6.7 2.6.7a10.3 10.3 0 0 1 2-3.4 26.3 26.3 0 0 0-2.2 14c.9 8 11 20.6 34.3 22.8s39-17.8 39-18.4Z"/><path fill="#bd852d" d="M103.7 68C93 66.4 72.5 58.5 75 48.2s10.6-7.3 13.5-20S78.4 8 68.2 9.2 53 20.5 52.6 21.2s-5.3.7-7.2.3-1.1-2.5-1.1-2.6a21.9 21.9 0 0 0-2.6 7.6C40 37 42.6 44 42.6 44s-4 2.4-4 4.7 2.3-.3 4.7-.9c0 0-4 4.1-4.4 7.7s2.6.8 2.6.8a10.3 10.3 0 0 1 2-3.5 26.3 26.3 0 0 0-2 14.2c.9 8 11 20.5 34.3 22.8 19.2 1.7 33.6-12 37.7-16.8a13.7 13.7 0 0 0-9.8-5Z"/><path fill="#91682c" d="M78.3 89.8h4l1.3-.2h.6l1.6-.3h.2l1.8-.4.5-.1 1.2-.3.6-.2 1.2-.3.5-.2 1.2-.5.5-.2 1.4-.5.2-.1 1.5-.7.3-.2 1.2-.5.4-.3 1-.5.5-.3 1-.6.4-.2 1-.7.3-.1 1.2-.9h.2l1-.8.4-.3.7-.5.4-.3.7-.6.4-.3.7-.6.2-.2.9-.8.2-.2.6-.5.4-.4.4-.4.3-.3.4-.4.3-.3.3-.3.3-.3v-.1l1-1a15 15 0 0 0-9.9-5 58.8 58.8 0 0 1-15.3-4.4 81 81 0 0 1-20.7-.2c-5.2-1-12.1-3.2-12.8-7s-1.4-4.4-1.4-4.4-5.1 6.8-5.7 3.5a11.8 11.8 0 0 1 .3-5.8s-4.2 2.7-3.8.9a22.3 22.3 0 0 1 1.5-3.9 13 13 0 0 1-3.5-2.4h-.1l-.1.1-.2.2-.2.1h-.1l-.2.3h-.1l-.3.2v.1l-.3.2-.1.1-.3.3a6.6 6.6 0 0 0-.8.8l-.3.4-.2.4v.1l-.2.3v.1a1.8 1.8 0 0 0-.2.3 1 1 0 0 0 0 .1 3.1 3.1 0 0 0 0 .4c-.1 2.3 2.3-.3 4.7-.9 0 0-4 4.2-4.3 7.8s2.5.7 2.5.7a10.3 10.3 0 0 1 2.1-3.4 26.3 26.3 0 0 0-2.3 14c.9 8 11 20.6 34.3 22.8l2 .1Z"/><path fill="#a18f70" d="M50.7 34.2h-.1C47.3 33.4 41.4 33 33 33a494 494 0 0 0-30 1.1.6.6 0 0 1-.3-1.1A138.2 138.2 0 0 1 40 28.3a150.6 150.6 0 0 1 18.5 1 .6.6 0 0 1 .5.4.6.6 0 0 1 0 .6 27 27 0 0 1-8 3.9.6.6 0 0 1-.3 0Z"/><path d="M40 28.9a148.4 148.4 0 0 1 18.4 1 29 29 0 0 1-7.7 3.7A95.9 95.9 0 0 0 33 32.4c-14 0-30.1 1.1-30.1 1.1A140 140 0 0 1 40 29m0-1.2a138.8 138.8 0 0 0-37.4 4.7 1.2 1.2 0 0 0 .3 2.3H3c.2 0 16.2-1 30-1 8.4 0 14.2.3 17.4 1a.9.9 0 0 0 .3 0 1 1 0 0 0 .4 0c2.1-.7 7.2-2.6 8.3-4a1.2 1.2 0 0 0 .1-1.3 1.2 1.2 0 0 0-1-.7 151.8 151.8 0 0 0-18.5-1Z" class="cls-7"/><path fill="url(#linear-gradient)" d="M33.2 53.4a.4.4 0 0 1-.3-.1c-.4-.5-.5-2.6-.4-6.7v-1.7a3.8 3.8 0 0 0-.3-1 3 3 0 0 1-.4-1.6c.2-.5.1-6.2 0-9.9v-.2h.3a7 7 0 0 1 1.9-.3 20 20 0 0 1 2.8.3h.3v.3l-1 7.4a7 7 0 0 1-.8 2.4 3 3 0 0 0-.4 1.4s-.4 9.6-1.6 9.7Z"/><path d="M34 32.2a20.4 20.4 0 0 1 2.8.3s-.8 5.3-1 7.3-1.2 2.7-1.2 3.9S34 53 33.2 53c-.7 0-.3-7.5-.3-8.2s-.9-1.8-.7-2.5 0-10 0-10a6.7 6.7 0 0 1 1.8-.2m0-.6a7.2 7.2 0 0 0-2 .3h-.4v10.4A3.3 3.3 0 0 0 32 44a3.5 3.5 0 0 1 .3.8v1.7c-.1 4.9 0 6.4.5 6.9a.7.7 0 0 0 .5.2c.7 0 1-.4 1.6-4.8l.4-5.2a2.6 2.6 0 0 1 .4-1.3 7 7 0 0 0 .8-2.5l1-7.3V32l-.5-.1a20.7 20.7 0 0 0-3-.3Z" class="cls-5"/><path fill="url(#linear-gradient-2)" d="M19.7 53c-.7 0-1-1-1.1-4 0-2.3-.4-4.6-.4-5.2-.6-.4-.7-1.6-.8-3.6-.1-1.7-.8-7.3-.9-7.4v-.3h.3a49.7 49.7 0 0 1 6.6-.7c1 0 1.4 0 1.6.4a.5.5 0 0 1 .1.5 56.9 56.9 0 0 0-.7 6.2c-.4 6-.5 6-.9 6s-.6-.8-.8-3v-.6c0-.6-.4-2.6-.8-4a41 41 0 0 0-.2 4 19.9 19.9 0 0 1-.7 4.3l-.3 2.6c-.3 4.3-.4 4.8-.9 4.8Z"/><path d="M23.3 32c1 0 1.6.2 1.5.5-.5 1.3-1 12-1.3 12s-.5-2.3-.5-3.2-1.2-6-1.2-6l-.5 6a17.8 17.8 0 0 1-.6 4.2c-.3.9-.5 7.1-1 7.2-.4 0-.6-1-.7-3.6s-.5-5.4-.5-5.4c-.5-.3-.6-1.8-.7-3.5l-.9-7.4a50.5 50.5 0 0 1 6.5-.8m0-.6a50 50 0 0 0-6.6.8h-.5v.7s.8 5.6.9 7.3c0 2 .2 3.2.8 3.8l.4 5.1c0 2.7.3 4.2 1.4 4.2h.1c.7 0 .8-.6 1.2-5.1l.2-2.5a19 19 0 0 0 .7-4.5 18.5 18.5 0 0 1 0-2l.4 2v.6c.1 2.2.2 3.3 1 3.3s.8-.1 1.3-6.2a61.5 61.5 0 0 1 .6-6.2.8.8 0 0 0 0-.8c-.3-.3-.9-.5-2-.5Z" class="cls-5"/><path fill="url(#linear-gradient-3)" d="M7.4 49.3c-.5 0-.6-.4-1.1-5.3l-.5-4-1-6v-.3H5a17.6 17.6 0 0 1 4.4-1.4c.6 0 .8.3.9.5.2.8-.4 3.2-1.1 6l-.4 1.6c-.2.7-.3 2.4-.5 4-.3 4.5-.4 4.9-.8 5Z"/><path d="M9.4 32.6c.3 0 .5 0 .6.3.2 1-1.1 5.8-1.5 7.5s-.6 8.6-1 8.6c-.5 0-1-6.5-1.4-9.1l-1-6a17.4 17.4 0 0 1 4.3-1.3m0-.6a17 17 0 0 0-4.6 1.3l-.4.2v.5l1 6 .6 4c.5 5 .6 5.6 1.4 5.6h.1c.7-.1.8-.5 1.2-5.2 0-1.6.2-3.3.4-4l.3-1.5c.8-3 1.4-5.4 1.2-6.2 0-.2-.3-.7-1.2-.7Z" class="cls-5"/><path d="M34 32.8a19.3 19.3 0 0 1 2.1.2 308 308 0 0 0-.9 6.8 5.7 5.7 0 0 1-.7 2.1 3.8 3.8 0 0 0-.5 1.8l-.6 6.6v-5.5a4.5 4.5 0 0 0-.4-1.2 2.5 2.5 0 0 1-.3-1c.2-.8 0-7.4 0-9.7a7 7 0 0 1 1.2 0m0-.7a6.7 6.7 0 0 0-1.8.2s.2 9.2 0 10 .6 1.8.7 2.5-.4 8.2.3 8.2c.8 0 1.4-8.2 1.4-9.4s1-1.8 1.2-3.8l1-7.4a20.4 20.4 0 0 0-2.7-.3Zm-10.6.4a4.3 4.3 0 0 1 .8.1c-.2 1-.4 3-.6 6.1l-.1 1.4-1-5-.6-2.5h1.5m-1.9 0-.2 2.6c0 .2-.6 4.8-.5 6a17.5 17.5 0 0 1-.7 4 23 23 0 0 0-.3 2.8l-.2 2.3v-1.3a50.2 50.2 0 0 0-.5-5.5v-.4h-.3c0-.2-.3-.8-.4-3 0-1.5-.6-5.5-.8-7 .9 0 2.5-.3 4-.5m1.9-.7a50.5 50.5 0 0 0-6.5.8s.7 5.6.8 7.4.2 3.2.8 3.4c0 0 .3 2.7.4 5.5s.4 3.6.8 3.6.7-6.4.9-7.2a17.8 17.8 0 0 0 .7-4.3c-.1-1.1.4-5.9.4-5.9s1.2 5 1.2 6 .2 3.2.6 3.2.8-10.8 1.2-12c.2-.4-.4-.5-1.4-.5Zm-14 1.2a41.4 41.4 0 0 1-1.1 5.5l-.4 1.5a41 41 0 0 0-.5 4.1v1.2L7.1 44l-.5-4.1-1-5.5a14.2 14.2 0 0 1 3.7-1m0-.7A17.4 17.4 0 0 0 5.1 34s.5 3.4 1 6 .9 9 1.3 9c.5 0 .7-7 1-8.7s1.8-6.5 1.6-7.4c0-.2-.3-.3-.6-.3Z" class="cls-15"/><path d="M34 37c0 .7-.3 1.3-.8 1.3s-.7-.6-.7-1.3.3-1.3.7-1.3.8.6.8 1.3Zm-14.5.9c0 1-.3 1.9-.8 1.9s-.8-.9-.8-1.9.3-1.9.8-1.9.8.9.8 1.9Z" class="cls-15"/><path fill="#ceb891" d="M1.2 34.5a.6.6 0 0 1-.6-.4.6.6 0 0 1 .3-.7c17.9-9.2 41.8-10 48.7-10h1.9a.6.6 0 0 1 .5.4c2 3.6 6.6 5.5 6.6 5.6a.6.6 0 0 1-.2 1.1 137.5 137.5 0 0 0-15-.8 204.1 204.1 0 0 0-42 4.8Z"/><path d="M49.6 24h1.9c2 4 7 6 7 6a137 137 0 0 0-15-.9A203 203 0 0 0 1.2 34a117 117 0 0 1 48.4-9.8m0-1.2c-7 0-31 .7-49 10a1.2 1.2 0 0 0-.5 1.5 1.2 1.2 0 0 0 1.1.8 1.3 1.3 0 0 0 .3 0 203.3 203.3 0 0 1 42-4.8 136.2 136.2 0 0 1 14.8.8h.1A1.2 1.2 0 0 0 59 29s-4.5-1.9-6.4-5.3a1.2 1.2 0 0 0-1-.6s-.7 0-2 0Z" class="cls-7"/><path d="M51.5 24.1S22 23.1 1.2 34l2.1-.5c12.4-6 43.4-8.4 45.4-8.1s7.5 4.4 7.5 4.4h.2l2 .2s-4.8-1.9-7-5.8Z" class="cls-15"/><path fill="none" stroke="#5b2307" stroke-linecap="round" stroke-linejoin="round" stroke-width="1.2" d="M58.3 30.2A4.6 4.6 0 0 0 61 28"/><path fill="#c4964d" stroke="#5b2307" stroke-linecap="round" stroke-linejoin="round" stroke-width="1.2" d="M69.9 37.5s1.3-3.4 5.9-4.2 6.1 1.3 6.1 1.3"/><path d="M88.5 94c-3 0-4.4-1.2-4.9-1.9h-2.3c-4.7 0-14-.5-22.6-4-9.7-4-11.8-6.6-13-8a6.1 6.1 0 0 0-.7-.8 5.6 5.6 0 0 1-1.7-3 4 4 0 0 0-.2-.6v-.1c-2.5-2.3-3.7-4.6-3.7-7v-2c0-2.7 0-5.4 1.1-6.6a2 2 0 0 1 1.5-.6 3.2 3.2 0 0 1 1 .1.6.6 0 0 1 .4.6c0 .8 0 3 1.2 3.8a21 21 0 0 0 8 3.8h.2c1.8-.2 1.8-.7 1.8-1.5 0-1 .5-3.6 2.5-4a2.9 2.9 0 0 1 .6-.1 2.3 2.3 0 0 1 2 1.6 1.8 1.8 0 0 0 0 .2 3.4 3.4 0 0 1 .5.2 8.3 8.3 0 0 1 3 2 22.2 22.2 0 0 0 6 4.3 4.5 4.5 0 0 0 1.8.6.4.4 0 0 0 .2 0 10.4 10.4 0 0 0 .2-1.2c.1-2.2.3-2.8.7-3a3.4 3.4 0 0 0 .5-.4c.5-.4.9-.7 1.2-.7a1 1 0 0 1 .3 0c.2.1.4.2 1.3 2.3a3.3 3.3 0 0 1 3-.2 28 28 0 0 0 5.4 1.7 5.7 5.7 0 0 1 .7 0c1 0 6 .1 6.8.5a17.1 17.1 0 0 0 2.4 1c1-1.6 2.2-3.2 3.4-3.4l1.6-.4c.4-1.3.7-3.4.5-4.2-.5-1.5-1.2-3.5.3-4.7a2 2 0 0 1 1.3-.5c1.3 0 2.7 1.3 3.5 2.5 1.1 1.5 1.7 2.4 1.4 3.4a18.7 18.7 0 0 0-.3 2.8 14.1 14.1 0 0 0 2.7.2 16.4 16.4 0 0 0 2.8-.2c0-.9 0-2.5 1.2-2.9a6.2 6.2 0 0 1 2.1-.4 2.1 2.1 0 0 1 1.1.2l.3.2c-.4-4 .2-4.2.5-4.4a1.4 1.4 0 0 1 .6-.1 3.5 3.5 0 0 1 2.2 1.1c.8.7 1.7 2.4 1.6 3.4a14.1 14.1 0 0 1-2.3 4 7.2 7.2 0 0 0-1.2 4.2c0 1.1-1.4 2.2-2.4 3a8.2 8.2 0 0 0-1 .9c0 .1-9.5 13.9-18.1 16.9a21.4 21.4 0 0 1-7 1.4ZM58.8 67c-.5 0-1 .4-1 1.1 0 1.5.7 5 2.3 5a1.8 1.8 0 0 0 1.5-1.4c.3-1.2 0-3-2.2-4.4a1 1 0 0 0-.6-.3Z" class="cls-4"/><path d="M100.7 58.4c1 0 2.3 1 3 2.3 1 1.4 1.5 2.1 1.3 2.8a24.6 24.6 0 0 0-.3 3.5 12.8 12.8 0 0 0 3.3.4 16.1 16.1 0 0 0 3.4-.4s-.4-2.4.8-2.8a5.7 5.7 0 0 1 2-.4 1.7 1.7 0 0 1 .7.2l1.3 1s-.6-4.9 0-5.2a.9.9 0 0 1 .4 0 3.1 3.1 0 0 1 1.8 1 4.2 4.2 0 0 1 1.4 2.7 13.4 13.4 0 0 1-2.2 3.8 7.9 7.9 0 0 0-1.4 4.5c0 1.3-2.7 2.9-3.1 3.6S103.5 89.2 95.2 92a20.7 20.7 0 0 1-6.7 1.4c-3 0-4.2-1.3-4.6-2l-2.6.1a60 60 0 0 1-22.3-4c-11.8-4.9-12.2-7.5-13.6-8.7s-1.5-3.1-1.8-3.5-3.7-3.1-3.6-6.7c0-3.2-.6-8.5 2-8.5a2.8 2.8 0 0 1 .8 0s-.2 3.2 1.5 4.4 6 3.9 8.4 3.9h.2c2.4-.3 2.4-1.3 2.4-2s.3-3.1 2-3.5a1.8 1.8 0 0 1 .5 0c1.1 0 1.4 1.1 1.6 1.4s2 .8 3.4 2.4A23.2 23.2 0 0 0 69 71a5.1 5.1 0 0 0 2 .5c.5 0 .8-.2.8-.5.2-.8.3-3.7.6-3.9s1.2-.9 1.4-.9a17.1 17.1 0 0 1 1.3 2.7A2.8 2.8 0 0 1 77 68a2.8 2.8 0 0 1 1 .2 28.2 28.2 0 0 0 5.7 1.8h.7a41.2 41.2 0 0 1 6.5.5 12.6 12.6 0 0 0 2.9 1 .2.2 0 0 0 .1 0c.2-.2 2-3 3.3-3.3l2-.5s1-3.5.5-4.9-1-3 .1-4a1.4 1.4 0 0 1 1-.4M60 73.7h.2c2.4-.3 3.4-4.3-.5-7a1.6 1.6 0 0 0-.9-.2 1.5 1.5 0 0 0-1.5 1.6c0 1.5.6 5.6 2.8 5.6m40.6-16.5a2.5 2.5 0 0 0-1.7.6c-1.7 1.5-1 4-.5 5.4a9.8 9.8 0 0 1-.3 3.5l-1.3.3c-1.3.3-2.4 1.7-3.5 3.3a20.7 20.7 0 0 1-2-.9c-1-.5-7-.6-7-.6a5.7 5.7 0 0 0-.7 0 30.1 30.1 0 0 1-5.2-1.6 4 4 0 0 0-1.5-.3 3.8 3.8 0 0 0-1.4.3c-.8-1.8-1-2-1.4-2a1.5 1.5 0 0 0-.5 0 2.9 2.9 0 0 0-1.6.7l-.4.3c-.7.5-.8 1.4-1 3.5v.7a6.6 6.6 0 0 1-1.2-.4 21.5 21.5 0 0 1-5.8-4.1 8.8 8.8 0 0 0-3.1-2.2l-.3-.2a2.8 2.8 0 0 0-2.6-1.9 3.4 3.4 0 0 0-.8.1c-2.3.5-2.9 3.3-2.9 4.7 0 .5 0 .7-1.2.8h-.2a20 20 0 0 1-7.6-3.7c-1-.6-1-2.6-1-3.2a1.2 1.2 0 0 0-1-1.3 3.7 3.7 0 0 0-1-.2 2.6 2.6 0 0 0-2 .8c-1.3 1.4-1.3 4.3-1.2 7v2c0 2.5 1.2 5 3.8 7.4a3.4 3.4 0 0 1 0 .4 6.3 6.3 0 0 0 2 3.3 5.2 5.2 0 0 1 .6.7c1.3 1.5 3.4 4 13.3 8.2 8.6 3.6 18 4.1 22.8 4.1h2c.7.8 2.2 1.9 5.2 1.9a22 22 0 0 0 7.1-1.5c8.8-3 18.4-17 18.5-17.1l.8-.7c1.1-.9 2.6-2 2.6-3.5a6.7 6.7 0 0 1 1.1-3.8 14.2 14.2 0 0 0 2.4-4.3c.2-1.2-.8-3-1.7-3.9a4 4 0 0 0-2.6-1.3 2 2 0 0 0-1 .2c-.5.3-1 .6-.9 4a4.2 4.2 0 0 0-.6 0 6.9 6.9 0 0 0-2.3.4 3 3 0 0 0-1.7 2.9 16.1 16.1 0 0 1-2.2.2 13 13 0 0 1-2-.2 14.7 14.7 0 0 1 .2-2.1c.4-1.3-.3-2.3-1.4-4-.5-.6-2.1-2.7-4-2.7ZM60 72.5c-.7 0-1.5-2.5-1.5-4.4 0-.2 0-.4.3-.4a.5.5 0 0 1 .3 0c1.8 1.3 2.2 2.8 2 3.8a1.2 1.2 0 0 1-1 1Z" class="cls-5"/><path fill="url(#linear-gradient-4)" d="M116.3 59.8c-.6.3 0 5.3 0 5.3l-1.4-1.1a4.3 4.3 0 0 0-2.6.2c-1.2.4-.8 2.8-.8 2.8a15.7 15.7 0 0 1-6 .2s.6 4-1.1 6.2-13.3 4.2-17.9 6.8-16.9 1-25.5-2.1-12.7-5.7-13.5-11.6a29.9 29.9 0 0 1-3.3-2c-1.6-1.2-1.5-4.3-1.5-4.3-3.4-1-2.6 4.9-2.7 8.4s3.2 6.3 3.6 6.7.3 2.3 1.8 3.5 1.8 3.8 13.6 8.7 25 4 25 4c.5 1 3 3.4 11.3.5s17.4-16 17.9-16.6 3.2-2.3 3.2-3.6a7.9 7.9 0 0 1 1.3-4.5 13.4 13.4 0 0 0 2.2-3.8 4.2 4.2 0 0 0-1.4-2.8c-.8-.7-1.6-1.2-2.2-.9Z"/><path d="M100.7 59a4.1 4.1 0 0 1 2.6 2c1 1.4 1.3 2 1.2 2.3a21.6 21.6 0 0 0-.4 3.7.6.6 0 0 0 .5.6 13 13 0 0 0 3.4.4 16.6 16.6 0 0 0 3.6-.4.6.6 0 0 0 .5-.7c-.1-.6-.2-1.9.4-2.1a4.7 4.7 0 0 1 1.7-.3 2.6 2.6 0 0 1 .4 0l1.3 1a.6.6 0 0 0 .4.1.6.6 0 0 0 .3 0 .6.6 0 0 0 .3-.6 22.4 22.4 0 0 1-.2-4.7c.1 0 .5 0 1.4.8a3.9 3.9 0 0 1 1.1 2.3 13.4 13.4 0 0 1-2 3.5 8.4 8.4 0 0 0-1.5 4.9c0 .6-1.3 1.6-2 2.1a6.3 6.3 0 0 0-1 1c-.2.2-9.4 13.6-17.7 16.5a20.4 20.4 0 0 1-6.4 1.3c-3.1 0-4-1.3-4.1-1.6a.6.6 0 0 0-.6-.3s-1 .1-2.6.1a60 60 0 0 1-22.1-4c-9.4-3.9-11.4-6.2-12.6-7.6a7.6 7.6 0 0 0-.8-1 4.6 4.6 0 0 1-1.3-2.4 2.5 2.5 0 0 0-.5-1l-.2-.2c-2.1-2-3.2-4-3.2-6v-2c0-2.2 0-4.9.8-5.7a.8.8 0 0 1 .6-.3h.2c0 1 .2 3.3 1.7 4.3s6 4 8.8 4h.3c2.7-.2 2.9-1.5 2.9-2.6 0-.8.4-2.6 1.5-2.9a1.4 1.4 0 0 1 .3 0c.5 0 .7.3 1 .9l.1.3a2.3 2.3 0 0 0 1 .7 7 7 0 0 1 2.5 1.6 23.6 23.6 0 0 0 6.4 4.6 5.6 5.6 0 0 0 2.3.6 1.3 1.3 0 0 0 1.4-1l.1-1.3a15.2 15.2 0 0 1 .3-2.2l.4-.3.4-.3 1 2.1a.6.6 0 0 0 .4.4h.1a.6.6 0 0 0 .4-.2 2.2 2.2 0 0 1 1.5-.7 2.3 2.3 0 0 1 .8.2s4.6 1.8 6 1.8h.6a47.8 47.8 0 0 1 6.2.4 11 11 0 0 0 3.2 1.2.8.8 0 0 0 .6-.3l.3-.4c1.1-1.7 2-2.7 2.6-2.8l2-.5a.6.6 0 0 0 .5-.4c0-.4 1-3.8.5-5.3s-.9-2.7-.1-3.4a.8.8 0 0 1 .5-.2M60 74.3h.3a3 3 0 0 0 2.5-2.4c.4-1.6-.1-3.9-2.7-5.6a2.3 2.3 0 0 0-1.3-.4 2.1 2.1 0 0 0-2.1 2.2c0 1.7.6 6.2 3.3 6.2m40.7-15.8a1.4 1.4 0 0 0-.9.3c-1.1 1-.6 2.7-.1 4s-.5 5-.5 5l-2 .4c-1.4.3-3 3.2-3.3 3.4a.2.2 0 0 1-.1 0 12.6 12.6 0 0 1-2.9-1.1 41.2 41.2 0 0 0-6.5-.5h-.6a28.2 28.2 0 0 1-5.8-1.7 2.8 2.8 0 0 0-1-.2 2.8 2.8 0 0 0-1.9.9 17.1 17.1 0 0 0-1.3-2.6c-.3 0-1 .6-1.4.9s-.4 3-.6 3.8c0 .4-.3.6-.8.6a5.1 5.1 0 0 1-2-.6 23.2 23.2 0 0 1-6.2-4.4c-1.4-1.6-3.2-2-3.5-2.4s-.4-1.5-1.6-1.5a1.8 1.8 0 0 0-.5.1c-1.6.4-2 2.6-2 3.5s0 1.8-2.3 2h-.3c-2.4 0-6.8-2.7-8.4-3.9s-1.5-4.3-1.5-4.3a2.8 2.8 0 0 0-.8-.1c-2.5 0-1.8 5.3-2 8.5 0 3.6 3.2 6.3 3.6 6.7s.4 2.3 1.8 3.5 1.9 3.8 13.7 8.7a61.3 61.3 0 0 0 25 4c.3.6 1.5 1.9 4.6 1.9a20.7 20.7 0 0 0 6.6-1.4c8.3-2.9 17.5-16 18-16.7s3-2.2 3-3.5a7.9 7.9 0 0 1 1.5-4.5 13.4 13.4 0 0 0 2.1-3.8 4.2 4.2 0 0 0-1.3-2.8 3.1 3.1 0 0 0-1.8-1 .9.9 0 0 0-.4 0c-.6.4 0 5.3 0 5.3l-1.4-1a1.7 1.7 0 0 0-.7-.2 5.7 5.7 0 0 0-2 .4c-1.1.4-.7 2.7-.7 2.7a16.1 16.1 0 0 1-3.5.4 12.8 12.8 0 0 1-3.2-.4 24.6 24.6 0 0 1 .3-3.4c.2-.7-.3-1.4-1.3-2.9-.8-1.1-2-2.2-3-2.2ZM60 73.7c-2.1 0-2.7-4.1-2.7-5.6a1.5 1.5 0 0 1 1.5-1.6 1.6 1.6 0 0 1 1 .2c3.8 2.7 2.8 6.7.4 7Z" class="cls-4"/><path d="M106.2 67.2a10 10 0 0 1-1.4-.2 24.6 24.6 0 0 1 .3-3.5c.2-.7-.3-1.4-1.3-2.9s-2.8-2.8-4-1.8-.6 2.7-.2 4-.5 5-.5 5l-2 .4c-1.4.4-3 3.2-3.2 3.4s-2.4-.8-3-1a42.8 42.8 0 0 0-7.1-.5c-.8 0-4-1.1-5.8-1.8a2.8 2.8 0 0 0-2.9.7 17.1 17.1 0 0 0-1.3-2.6c-.2-.1-1 .6-1.4.9s-.5 3-.6 3.8-1.1.8-2.8 0a23.2 23.2 0 0 1-6.2-4.4c-1.4-1.6-3.2-2-3.5-2.4s-.5-1.8-2-1.4-2 2.6-2 3.5 0 1.8-2.4 2-7-2.7-8.7-3.9-1.5-4.3-1.5-4.3a3 3 0 0 0-.8-.1c-1 6.5 8.6 8.5 9.7 9s3.7-.9 3.7-.9 1-3.6 2.1-4 1.6 1.5 2.2 1.5 4.3 2.7 6.4 4.8 6.2 2.6 6.2 2.6l1.5-3.2c.7-1.3 2.9 1 3.2 1a3.6 3.6 0 0 1 3 .1c1.3 1 5 .2 7.8.5a23.6 23.6 0 0 1 6.3 2s1.4-1.5 2.5-2.9a4.2 4.2 0 0 1 3.4-1.2s1.2-5.1.9-6.8-.5-4.1 1.6-2.2 1 7.2 1 7.2Z" class="cls-15"/><path fill="#b7eae8" stroke="#3c7bd6" stroke-linecap="round" stroke-linejoin="round" stroke-width="1.2" d="M104.8 52c-1.6 0-3.8-.5-4 0s3.6 4.6 4.5 5.5 3.9.3 3.9-1.5a4.4 4.4 0 0 0-4.5-4Z"/><path fill="url(#linear-gradient-5)" d="M79.6 13.4a2.7 2.7 0 0 1-.4 0c-1.3-.2-2-1.6-2.5-2.5a8.4 8.4 0 0 0-.5-.8l-.1-.2a4.2 4.2 0 0 0-2.7-2 9 9 0 0 0-2-.2h-2.3a5.6 5.6 0 0 1-2.8-.5 2 2 0 0 1-1-1.9 2.6 2.6 0 0 1 1-2 9 9 0 0 1 4-.8 12.3 12.3 0 0 1 4.8.8 15.8 15.8 0 0 0 3.2.6l3 .4c1.9.4 4 2.6 5.1 3.7l.5.6c.8.8 1.5 1.4 1.4 2a1 1 0 0 1-.4.8 1.6 1.6 0 0 1-1 .3 4.9 4.9 0 0 1-2.6-.9 7.4 7.4 0 0 0-2.7-.3 3.7 3.7 0 0 1-.7 2.3 1.7 1.7 0 0 1-1.3.6Z"/><path d="M70.4 3.1a11.8 11.8 0 0 1 4.4.7c.9.5 4.6.6 6.4 1s4 2.8 5 3.8 2 1.8 1.4 2.3a1 1 0 0 1-.7.2 4.4 4.4 0 0 1-2.2-.8c-.6-.5-2.7-.5-3.5-.5H81c.2 1.3-.2 3-1.4 3h-.2c-1.4-.3-2-2.2-2.6-3a5 5 0 0 0-3.2-2.6 9 9 0 0 0-2-.1h-2.3a5.1 5.1 0 0 1-2.5-.4c-1.3-.9-.5-2.6 0-3a8.5 8.5 0 0 1 3.8-.6m0-1.2a9.5 9.5 0 0 0-4.3.8 3.1 3.1 0 0 0-1.4 2.5A2.7 2.7 0 0 0 66 7.7a6.1 6.1 0 0 0 3.1.6h2.4a8 8 0 0 1 1.7.1 3.6 3.6 0 0 1 2.4 1.8l.2.3.4.7c.5 1 1.4 2.5 2.9 2.8a3 3 0 0 0 .5 0 2.3 2.3 0 0 0 1.8-.8 4 4 0 0 0 .8-2.2 6.5 6.5 0 0 1 1.9.3 5.5 5.5 0 0 0 2.8 1 2.2 2.2 0 0 0 1.4-.5 1.6 1.6 0 0 0 .7-1.2c0-1-.7-1.7-1.6-2.5l-.3-.4-.2-.2c-1.2-1.2-3.4-3.4-5.4-3.9l-3.1-.4a17 17 0 0 1-3-.5 12.9 12.9 0 0 0-5-.8Z" class="cls-5"/><path d="M71.7 4c2.6.8 4.3 1.6 6 1.5s10.2 4.3 9.5 5.6a1 1 0 0 0 .4-.2c.6-.5-.4-1.3-1.3-2.3s-3.2-3.3-5-3.8-5.5-.5-6.4-1-5.4-1.3-8.1 0a1.6 1.6 0 0 0-.6.9 9 9 0 0 1 5.5-.6Zm36.1 51.3c-.1.4-.9.4-1.6 0s-1.2-1-1-1.3 1-.4 1.6 0 1.2.9 1 1.3Z" class="cls-15"/><path fill="#703c16" d="M88 36.3a10 10 0 0 0 1.1 2.5 7.6 7.6 0 0 0 2.2 2 .6.6 0 1 0 .6-1 7.4 7.4 0 0 1-1-.8 6 6 0 0 1-.4-.4l-.1-.1v-.1l-.2-.2a7 7 0 0 1-.5-1s-.1-.2 0-.1V37l-.2-.3-.2-.7a.6.6 0 0 0-.7-.4.6.6 0 0 0-.5.8Zm4.3-.3a12.9 12.9 0 0 0 3.2 2.5.6.6 0 0 0 .6-1 6.1 6.1 0 0 1-1-.6l-.1-.1-.1-.1-.4-.3-1.3-1.2a.6.6 0 0 0-.8 0 .6.6 0 0 0 0 .8Zm18.7 8.4a12.6 12.6 0 0 1 4.7 9.8.6.6 0 0 0 1.2 0 13.7 13.7 0 0 0-5-10.7c-.6-.4-1.5.4-.9.9Zm-.5 6.4a3.9 3.9 0 0 1 1.2 1.8 3.8 3.8 0 0 1 0 2 .6.6 0 1 0 1.3.3 5 5 0 0 0-1.6-4.9.6.6 0 0 0-.9 0 .6.6 0 0 0 0 .9ZM95.8 35.1l1 1a.6.6 0 0 0 .5.1.6.6 0 0 0 .4-.2.6.6 0 0 0 .2-.4.6.6 0 0 0-.2-.4l-1-1a.6.6 0 0 0-.8 0 .6.6 0 0 0 0 1ZM79.7 51.2c-.2 3 2.6 4.7 5 5.6a.6.6 0 0 0 .8-.4.6.6 0 0 0-.4-.7 9 9 0 0 1-3-1.7 3.3 3.3 0 0 1-1.2-2.8.6.6 0 1 0-1.2 0Z"/><path fill="none" d="m61.8 21.9 20.8-.5"/><path d="M83.2 21.3a.6.6 0 0 1-.6.7l-7.4.1-9 .3h-4.4a.6.6 0 0 1 0-1.2h4.6l8.5-.3 7.7-.1a.6.6 0 0 1 .6.5Z" class="cls-7"/><path d="M75.3 23.6c0 3.6-2 6.6-4.6 6.6s-4.6-3-4.6-6.6a8 8 0 0 1 0-1.3 4 4 0 0 1 .2-.6 4.2 4.2 0 0 1 .1-.6L75 21l.2.6a5.6 5.6 0 0 1 0 .6 9.7 9.7 0 0 1 .2 1.5Z" class="cls-7"/><ellipse cx="73.2" cy="25" class="cls-15" rx="1.8" ry="1.3" transform="rotate(-80.2 73.4 25.2)"/><path d="M97 20.5a6 6 0 0 1-5-2 5.9 5.9 0 0 1-.8-5.5 2 2 0 0 1 1.9-1.4 1.9 1.9 0 0 1 .6.1 2 2 0 0 1 1.3 2.5 2.4 2.4 0 0 0 .1 1.8 2.5 2.5 0 0 0 1.9.5 10 10 0 0 0 1 0h.2a2 2 0 0 1 .2 4 12.6 12.6 0 0 1-1.4 0Z" class="cls-24"/><path d="M93 12a1.8 1.8 0 0 1 .6 0 1.6 1.6 0 0 1 1 2 2.7 2.7 0 0 0 .2 2.2 2.8 2.8 0 0 0 2.1.7 10.8 10.8 0 0 0 1.1 0h.2a1.6 1.6 0 0 1 .2 3.1 12 12 0 0 1-1.4 0 5.6 5.6 0 0 1-4.7-1.7c-1.7-2.1-.8-4.9-.7-5.2A1.6 1.6 0 0 1 93 12m0-.8a2.4 2.4 0 0 0-2.3 1.6c-.1.4-1 3.6.9 6a6.4 6.4 0 0 0 5.3 2.1 13.6 13.6 0 0 0 1.5 0 2.4 2.4 0 0 0-.3-4.9H98a8.7 8.7 0 0 1-1 0 2.3 2.3 0 0 1-1.5-.3 2.1 2.1 0 0 1 0-1.4 2.4 2.4 0 0 0-2.3-3.1Z" class="cls-7"/><path d="M89 29.1a1.9 1.9 0 0 1-.8-.1 2 2 0 0 1-1-2.6c1.1-2.8 2.8-4.4 4.8-4.7a5.7 5.7 0 0 1 .8-.1 6.4 6.4 0 0 1 4.4 2 2 2 0 0 1-2.9 2.8 2.6 2.6 0 0 0-1.5-.8h-.1c-.6 0-1.2 1-1.8 2.3A2 2 0 0 1 89 29Z" class="cls-24"/><path d="M92.8 22a6.1 6.1 0 0 1 4.1 2 1.6 1.6 0 0 1 0 2.2 1.6 1.6 0 0 1-2.3 0 3 3 0 0 0-1.8-1h-.2c-.7.1-1.5 1-2.1 2.5a1.6 1.6 0 0 1-1.5 1 1.5 1.5 0 0 1-.6 0 1.6 1.6 0 0 1-.8-2.2c1-2.6 2.6-4.1 4.4-4.4a4 4 0 0 1 .8-.1m0-.8a5.5 5.5 0 0 0-.9 0c-2.2.5-3.9 2-5 5a2.4 2.4 0 0 0 4.3 1.9c.7-1.6 1.3-2 1.5-2.1h.1a2.2 2.2 0 0 1 1.2.7 2.4 2.4 0 0 0 1.7.7 2.4 2.4 0 0 0 1.8-4 6.8 6.8 0 0 0-4.7-2.2Z" class="cls-7"/><path d="M84.3 23.7a2 2 0 0 1-.1-4c.4 0 1.4-.3 1.6-.8s0-1.5-.7-2.8a2 2 0 0 1-.1-1.5 2 2 0 0 1 2-1.4 2 2 0 0 1 1.7 1c1.4 2.6 1.6 4.9.6 6.7-1.3 2.5-4.4 2.8-4.8 2.8Z" class="cls-24"/><path d="M86.9 13.6a1.6 1.6 0 0 1 1.4.8c1.3 2.5 1.6 4.6.6 6.3-1.2 2.3-4.1 2.6-4.5 2.6a1.6 1.6 0 0 1-1.7-1.5 1.6 1.6 0 0 1 1.5-1.7c.4 0 1.6-.3 2-1s0-1.8-.7-3.2a1.6 1.6 0 0 1 .6-2.2 1.6 1.6 0 0 1 .8-.2m0-.8a2.4 2.4 0 0 0-2.3 1.8 2.4 2.4 0 0 0 .2 1.8c.8 1.4.8 2.2.7 2.4a2 2 0 0 1-1.3.6 2.4 2.4 0 0 0 .1 4.8h.2a6.5 6.5 0 0 0 5.2-3c1-2 .8-4.3-.7-7a2.4 2.4 0 0 0-2.1-1.3Z" class="cls-7"/></g></g></svg>