<svg xmlns="http://www.w3.org/2000/svg" xmlns:xlink="http://www.w3.org/1999/xlink" id="Layer_2" data-name="Layer 2" viewBox="0 0 120.95 141.18">
  <defs>
    <linearGradient id="linear-gradient" x1="79.39" x2="79.39" y1="-103.02" y2="-93.48" gradientTransform="rotate(9.63 -585.33 -53.03)" gradientUnits="userSpaceOnUse">
      <stop offset="0" stop-color="#dbffff"/>
      <stop offset="1" stop-color="#339ed3"/>
    </linearGradient>
    <linearGradient xlink:href="#linear-gradient" id="linear-gradient-2" x1="82.44" x2="82.44" y1="-11.35" y2="-45.02"/>
    <linearGradient id="linear-gradient-3" x1="17.86" x2="17.86" y1="57.21" y2="36" gradientTransform="rotate(11.99 8.53 -26.07)" gradientUnits="userSpaceOnUse">
      <stop offset="0" stop-color="#dbffff"/>
      <stop offset="1" stop-color="#1376a6"/>
    </linearGradient>
    <linearGradient xlink:href="#linear-gradient-3" id="linear-gradient-4" x1="34.9" x2="34.9" y1="83.38" y2="62.35" gradientTransform="rotate(5.66 233 6.23)"/>
    <linearGradient xlink:href="#linear-gradient-3" id="linear-gradient-5" x1="32.42" x2="32.42" y1="60.79" y2="39.75" gradientTransform="rotate(11.97 18.54 -25.04)"/>
    <style>
      .cls-1{fill:#5b2307}.cls-3{fill:#fff}.cls-6{fill:#2fff16}.cls-7{fill:#3c7bd6}.cls-11{stroke-linecap:round;stroke-linejoin:round;fill:none}.cls-17{fill:#00f}.cls-18{fill:#b7eae8}.cls-11{stroke:#5b2307;stroke-width:1.5px}.cls-19{fill:#4c1a09}.cls-26{fill:#755b46}
    </style>
  </defs>
  <g id="Layer_1-2" data-name="Layer 1">
    <path d="M25.24 94.19c-.41 0-.98-.05-1.3-.45a.93.93 0 0 1-.16-.83c.21-.88 1.6-1.67 3.05-2.26-1.28-.08-2.72-.14-4.07-.21-2-.09-3.73-.18-4.53-.26-1.29-.14-1.92-.98-1.98-1.75-.05-.76.44-1.66 1.65-1.95.66-.16 2.24-.26 4.79-.3-3.01-1.63-3.29-2.49-3.14-3.11.08-.33.41-.9 1.71-.9.46 0 .97.07 1.49.19 2.33.57 7.71 2.86 7.94 2.96.32.13 8.07 3.3 7.62 5.59-.24 1.25-2.42 1.53-4.94 1.85-.71.09-1.4.18-1.98.29-.51.09-1.15.24-1.83.4-1.52.35-3.24.75-4.31.75Z" class="cls-26"/>
    <path d="M21.26 82.76c.4 0 .87.06 1.34.18 2.31.56 7.85 2.93 7.85 2.93 3.82 1.55 7.49 3.81 7.27 4.92-.22 1.11-4.17 1.23-6.45 1.66-1.6.3-4.55 1.14-6.03 1.14-.62 0-.98-.15-.88-.54.32-1.34 5.42-2.78 5.42-2.78-2.67-.31-9.67-.5-11.5-.69-1.83-.19-1.92-2.12-.25-2.52 1.21-.29 5.78-.31 8.2-.31h1.53c-.04-.02-4.05-.71-4.05-.71-4.58-2.34-4.03-3.27-2.45-3.27m0-1.2c-1.78 0-2.2.95-2.3 1.36-.22.9.27 1.73 1.67 2.71-1.81.07-2.51.18-2.88.26-1.32.32-2.19 1.37-2.11 2.57.07 1.03.87 2.14 2.51 2.31.82.09 2.56.17 4.56.26l1.86.09c-.72.49-1.24 1.04-1.39 1.64-.12.49-.02.97.27 1.34.54.68 1.47.68 1.77.68 1.15 0 2.9-.41 4.45-.77a45.1 45.1 0 0 1 1.8-.4c.56-.1 1.23-.19 1.95-.28 2.87-.36 5.13-.65 5.46-2.33.49-2.53-5.43-5.22-8-6.26-.21-.09-5.64-2.4-8.02-2.98a6.82 6.82 0 0 0-1.63-.21Z" class="cls-19"/>
    <path fill="none" stroke="#4c1a09" stroke-linecap="round" stroke-linejoin="round" stroke-width=".6" d="M20.56 86.29s1.61 1.59.2 3.82m3.84-3.64s3.02 1.06 1.39 3.82m-2.05-7.41s.98 1.51-.82 3.26m4.3 4.41s2.23.52 1.78 3.02m-1.41-9.38c0 .22 1.38.92.71 2.56 0 0 2.74.73 2.14 3.17 0 0 2.79.64 2.24 2.77"/>
    <path d="M89.54 108.93c-2.95 0-9.56-5.8-11.69-8.35-.51-.62-.45-1.11-.3-1.42.29-.62 1.15-1.26 5.29-1.26a76 76 0 0 1 6.86.39c.45-.04 3.43-.27 6.51-.27 2.65 0 4.67.17 6.01.5.65.16 1.54.38 1.49 1.1-.06.79-.91.94-4.86 1.29-.75.07-1.47.13-2.06.2 2.86 1.06 6.46 2.78 6.49 4.72 0 .33-.11.63-.34.86-.35.36-.93.53-1.82.53-2.44 0-7.05-1.33-10.42-2.29l-1.12-.32c.88.88 1.69 1.95 1.65 2.86-.02.36-.16.87-.77 1.23-.26.16-.57.24-.93.24Z" class="cls-26"/>
    <path d="M82.84 98.5c3.21 0 6.85.39 6.85.39s3.18-.27 6.52-.27c2.15 0 4.37.11 5.86.48 3.81.95-3.97 1.11-6.28 1.54h-2.32s9.17 2.61 9.21 5.19c0 .55-.59.78-1.56.78-3.53 0-11.97-2.94-13.91-3.24 0 0 4.96 3.6 2.95 4.8-.17.1-.38.15-.62.15-2.62 0-9.1-5.58-11.22-8.13-1.12-1.35 1.51-1.7 4.52-1.7m0-1.21c-3.66 0-5.29.45-5.83 1.61-.18.38-.37 1.16.38 2.07 1.66 2 8.7 8.57 12.15 8.57.47 0 .89-.11 1.24-.32.65-.39 1.03-1 1.06-1.72.03-.58-.2-1.19-.56-1.77 3.44.99 7.49 2.11 9.84 2.11.67 0 1.62-.07 2.25-.71.34-.34.52-.8.51-1.29-.02-1.73-2.17-3.22-4.59-4.34 3.67-.33 4.92-.49 5.02-1.81.1-1.23-1.28-1.57-1.94-1.74a27.12 27.12 0 0 0-6.16-.52c-3.04 0-5.89.22-6.51.27-.66-.07-3.91-.39-6.87-.39Z" class="cls-19"/>
    <path fill="none" stroke="#4c1a09" stroke-linecap="round" stroke-linejoin="round" stroke-width=".6" d="M101.22 103.33s-3.44.41-3.22 3.54m-.44-5.53s-5.95.25-5.34 4m7.09-7.22s-.9 1.25.29 2.64m-9.35 4.46s-3.49-1.4-5.39 1.29m8.69-7.84s-1.5.07-1.49 1.53c0 0-4.52-.06-5.81 2.35 0 0-4.26-1.34-5.5.9"/>
    <path d="M44.96 93.49c-3.31 0-6.08-.9-8.23-2.67-5.35-4.41-3.42-11.07-3.4-11.13a.6.6 0 0 1 .58-.43H34c8.87 1.39 15.91 12.2 16.2 12.66a.6.6 0 0 1-.33.9c-.09.03-2.17.66-4.92.66Z" class="cls-18"/>
    <path d="M33.91 79.86c8.7 1.37 15.79 12.39 15.79 12.39s-2.05.63-4.74.63c-2.44 0-5.41-.52-7.84-2.53-5.1-4.21-3.2-10.49-3.2-10.49m0-1.21c-.52 0-1 .34-1.15.86-.09.29-2.07 7.11 3.59 11.78 2.22 1.83 5.2 2.8 8.61 2.8 2.84 0 5.01-.66 5.1-.69.36-.11.65-.39.78-.74a1.2 1.2 0 0 0-.12-1.07c-.3-.47-7.49-11.49-16.62-12.93l-.19-.01Z" class="cls-7"/>
    <path fill="#a36731" d="M72.55 96.46c-3.41 0-6.8-.45-10.07-1.33C39.3 88.89 31.56 74.5 32.02 66.36a27.23 27.23 0 0 1 2.34-9.57c-.44.25-1.05.53-1.59.53s-.83-.25-.99-.46c-.35-.46-.39-1.16-.12-2.21.54-2.13 2.32-4.17 3.77-5.54-.03 0-.05.02-.08.03-.73.25-1.36.47-1.86.47s-.76-.21-.91-.39c-.33-.41-.26-.98-.18-1.36.46-2.12 3.48-3.69 4.68-4.23-.24-1.79-.81-8.32 2.01-17.14 2.65-8.28 10.23-13.31 13.33-15.07-1.14-.44-2.1-1.12-2.1-2.01 0-.55.34-1.28 2.02-1.65a11 11 0 0 1 2.39-.22c.41 0 .82.01 1.22.04-.84-.51-1.44-1.08-1.46-1.67-.01-.37.15-.88 1.03-1.24.41-.17.88-.25 1.39-.25 1.78 0 3.87 1.03 5.36 1.93-.19-.58-.25-1.13-.05-1.5.18-.32.5-.5.9-.5 1.42.02 3.12 2.28 3.8 3.28 19.53 2.79 25.91 16.08 27.82 26.76 1.18 6.6 5.42 10.31 10.33 14.6 5.32 4.66 7.78 11.24 7.92 11.96a.82.82 0 0 1-.16.72.79.79 0 0 1-.62.28c-.1 0-.21-.02-.33-.05.89 2.87.58 6.57.46 7.32a.78.78 0 0 1-.78.68 1.2 1.2 0 0 1-.52-.14c.44 3.27-.59 7.21-1.53 7.88-.73.52-4.39 5.03-4.67 5.63-.23.66-14.22 13.2-32.29 13.2Z"/>
    <path d="M63.13 4.94h.01c1.32.02 3.43 3.23 3.43 3.23 21.94 3.01 26.37 19.58 27.58 26.31 1.2 6.73 5.46 10.52 10.53 14.95 5.06 4.43 7.56 10.77 7.72 11.62.04.2-.04.28-.18.28-.46 0-1.57-.78-1.57-.78 1.68 2.73 1.22 7.86 1.1 8.55-.02.12-.09.18-.19.18-.44 0-1.5-1.07-1.5-1.07 1.18 3.26-.09 8.35-.9 8.93-.81.58-4.68 5.33-4.88 5.91-.17.49-13.82 12.81-31.73 12.81-3.19 0-6.51-.39-9.92-1.31-22.54-6.07-30.47-20.07-30.02-28.15.45-8.09 4.64-13.5 4.64-13.5-1.62 1.15-2.66 3.02-2.66 3.02s-1.09.8-1.84.8c-.55 0-.91-.43-.53-1.92.9-3.52 5.56-6.91 5.56-6.91-1.64.13-3.44 1.12-4.32 1.12-.45 0-.66-.26-.5-1.02.49-2.26 4.76-3.99 4.76-3.99s-1.34-7.17 1.92-17.33c3.25-10.16 14.35-15.42 14.35-15.42-2.96-.6-4.41-2.28-1.55-2.91.67-.15 1.46-.21 2.26-.21 2.64 0 5.52.61 5.52.61s-7.35-2.37-4.5-3.52c.35-.14.75-.21 1.16-.21 2.91 0 6.92 3.11 6.92 3.11s-2-3.18-.7-3.18m0-1.21c-.63 0-1.15.3-1.43.81-.06.11-.17.31-.21.65-1.4-.74-3.07-1.4-4.58-1.4-.59 0-1.13.1-1.61.3-1.26.51-1.43 1.36-1.41 1.82 0 .2.02.55.37 1.01-.78.02-1.47.1-2.05.23-2.18.49-2.5 1.62-2.49 2.25 0 .79.51 1.51 1.43 2.07-3.57 2.2-10.16 7.14-12.62 14.83-2.66 8.31-2.34 14.64-2.09 16.96-1.49.72-4.15 2.29-4.62 4.47-.06.29-.25 1.18.3 1.87.19.23.61.61 1.38.61h.05a11.36 11.36 0 0 0-2.47 4.28c-.2.79-.4 1.93.23 2.73.35.44.87.69 1.47.69.16 0 .33-.02.49-.05a27.99 27.99 0 0 0-1.84 8.45c-.47 8.34 7.38 23.05 30.91 29.39 3.32.89 6.77 1.35 10.23 1.35 18.13 0 32.42-12.34 32.87-13.63l-.04.09c.35-.66 3.8-4.9 4.48-5.41 1.09-.78 2.08-4.37 1.86-7.64a1.37 1.37 0 0 0 1.21-1.17c0-.04.49-3.65-.26-6.84.25-.08.46-.22.63-.43.16-.19.4-.6.28-1.22-.25-1.27-3.01-7.83-8.11-12.3-4.82-4.22-8.99-7.86-10.13-14.25C92.6 18.98 82.64 9.33 67.26 7.03c-.88-1.26-2.55-3.3-4.11-3.32h-.03Z" class="cls-1"/>
    <path fill="#8e5424" d="M104.28 83.04c.2-.58 4.07-5.33 4.88-5.91.81-.58 2.08-5.67.9-8.93 0 0 1.57 1.59 1.68.9.12-.69.58-5.82-1.1-8.55 0 0 1.91 1.35 1.75.5-.16-.84-2.66-7.19-7.72-11.62-2.59-2.26-4.96-4.36-6.82-6.76s6.42 9.65 4.69 17.45c-1.73 7.8-4.83 4.18-4.83 4.18l-5.91-4.6s1.19 6.26-2.62 7.69c-3.81 1.42-4.46-.76-4.46-.76s.55 4-4.09 4.23c-4.63.23-16.33-1.75-21.32-3.62-4.99-1.87-11.44-5.2-11.46-9.08-.02-3.88-.63-4.59-.63-4.59S41.03 59.49 41 56.1c-.04-3.39 1.32-5.7 1.32-5.7s-4.66 1.95-3.92.24a22.36 22.36 0 0 1 2.08-3.53s-1.63-1.1-2.97-3.01c-.89.4-4.1 1.94-4.52 3.89-.49 2.26 2.33.09 4.81-.1 0 0-4.66 3.39-5.56 6.91s2.36 1.12 2.36 1.12 1.03-1.87 2.66-3.02c0 0-4.18 5.41-4.64 13.5-.45 8.09 7.48 22.08 30.02 28.15s41.44-10.93 41.64-11.51Z"/>
    <path fill="#bd852d" d="M93.94 77.82c-10.38-3.19-29.18-14.44-24.99-24.14 4.2-9.7 11.64-5.47 16.64-17.47 4.99-11.99-6.63-21.65-16.87-22.06-10.24-.41-16.86 8.57-17.38 9.2-.51.63-5.37-.2-7.19-.91-1.78-.7-.66-2.71-.61-2.79a22.1 22.1 0 0 0-3.89 7.03c-3.25 10.16-1.92 17.33-1.92 17.33s-4.27 1.72-4.76 3.99c-.49 2.26 2.33.09 4.81-.1 0 0-4.66 3.39-5.56 6.91s2.36 1.12 2.36 1.12 1.03-1.87 2.66-3.02c0 0-4.18 5.41-4.64 13.5-.45 8.09 7.48 22.08 30.02 28.15 18.89 5.09 35.23-6.03 40.14-10.1-1.46-2.84-4.46-5.29-8.83-6.63Z"/>
    <path fill="#91682c" d="M65.21 95.14a30.5 30.5 0 0 0 3.26.49l.7.07 1.28.09.6.03 1.67.03h.17c.62 0 1.23-.03 1.83-.06l.49-.03c.44-.03.87-.06 1.31-.11l.6-.07c.4-.04.79-.1 1.18-.15l.59-.09 1.2-.21.51-.09 1.47-.32.19-.04c.56-.13 1.11-.28 1.65-.43l.31-.09 1.27-.38.47-.15a45.92 45.92 0 0 0 1.56-.54l1.05-.4.43-.17 1.19-.5.22-.09c.47-.21.93-.41 1.38-.63l.2-.1 1.09-.53.39-.2.85-.44.42-.23.78-.43.39-.22.79-.46.3-.18 1-.62.27-.17.67-.44.39-.27.47-.32.4-.28.39-.28.4-.29.3-.22.4-.3.07-.06c.36-.28.7-.55.98-.79-1.46-2.84-4.46-5.29-8.83-6.63a59.15 59.15 0 0 1-14.26-6.93c-5.12-.03-15.7-1.89-20.38-3.64-4.99-1.87-11.44-5.2-11.46-9.08-.02-3.88-.63-4.59-.63-4.59s-6.19 5.92-6.22 2.53c-.04-3.39 1.32-5.7 1.32-5.7s-4.66 1.95-3.92.24a22.36 22.36 0 0 1 2.08-3.53s-1.63-1.1-2.97-3.01l-.19.08-.09.04-.23.11-.23.11a6.2 6.2 0 0 0-.35.18l-.11.06-.27.15a.75.75 0 0 0-.12.07l-.29.18a.67.67 0 0 0-.11.07l-.34.22-.06.04c-.27.19-.54.39-.79.61l-.08.07-.27.25-.11.11-.21.23a3.53 3.53 0 0 0-.27.37l-.09.13-.14.26-.06.12c-.05.13-.1.26-.13.39-.49 2.26 2.33.09 4.81-.1 0 0-4.66 3.39-5.56 6.91s2.36 1.12 2.36 1.12 1.03-1.87 2.66-3.02c0 0-4.18 5.41-4.64 13.5-.45 8.09 7.48 22.08 30.02 28.15.65.18 1.31.33 1.95.47l.62.12Z"/>
    <path fill="none" stroke="#5b2307" stroke-linecap="round" stroke-linejoin="round" stroke-width="1.21" d="M55.31 36.04s.46-2.11-.59-3.41"/>
    <path fill="none" stroke="#5b2307" stroke-linecap="round" stroke-linejoin="round" stroke-width="1.6" d="M61.3 29.31s3.45-7.39 11.52-5.15c7.02 1.95 6.22 8.16 5.97 9.63"/>
    <path fill="url(#linear-gradient)" d="M79.53 20.1c-.22 0-.44-.04-.65-.13-1.21-.47-1.7-1.91-2.06-2.96-.1-.31-.2-.58-.3-.79l-.12-.26c-.4-.86-.85-1.83-2.34-2.47a13.5 13.5 0 0 0-2.99-.65c-1.59-.23-3.08-.45-3.86-1.14a2.04 2.04 0 0 1-.64-2.03c.18-.81.81-1.62 1.41-1.81a7.22 7.22 0 0 1 2.11-.29c2.71 0 5.66 1.15 6.42 1.74.37.28 1.87.72 3.08 1.06 1.06.3 2.15.62 2.91.93 1.81.74 3.53 3.22 4.46 4.55l.43.61c.65.9 1.16 1.61 1 2.29-.05.2-.18.49-.54.68-.2.11-.44.17-.7.17-.91 0-2.08-.7-2.73-1.36-.25-.26-1.49-.6-2.69-.82a3.78 3.78 0 0 1-.93 2.09c-.37.38-.81.58-1.28.58Z"/>
    <path d="M70.09 8.18c2.59 0 5.42 1.12 6.05 1.61.79.62 4.39 1.37 6.14 2.08 1.74.71 3.56 3.43 4.34 4.55.78 1.11 1.64 2.13.96 2.5a.93.93 0 0 1-.42.09c-.73 0-1.76-.63-2.3-1.18-.65-.66-3.68-1.11-3.68-1.11.03 1.28-.63 2.77-1.65 2.77-.14 0-.28-.03-.43-.09-1.27-.49-1.6-2.55-2.03-3.45-.43-.9-.9-2.22-2.77-3.02-1.87-.8-5.55-.66-6.69-1.69-1.14-1.02-.04-2.63.55-2.81.6-.18 1.26-.26 1.94-.26m0-1.21c-.84 0-1.61.1-2.29.31-.81.25-1.6 1.21-1.83 2.25-.22.99.08 1.94.83 2.61.91.82 2.5 1.05 4.17 1.29 1.07.16 2.17.32 2.84.61 1.27.55 1.66 1.37 2.03 2.17l.13.27c.08.16.17.44.27.73.4 1.16.94 2.76 2.41 3.33a2.33 2.33 0 0 0 2.58-.59 4.1 4.1 0 0 0 .97-1.81c.86.19 1.6.41 1.82.57.57.59 1.91 1.51 3.13 1.51.36 0 .7-.08.99-.24.43-.23.73-.62.84-1.08.22-.94-.39-1.79-1.1-2.77l-.28-.4-.14-.21c-.96-1.38-2.75-3.96-4.73-4.77-.8-.32-1.9-.64-2.97-.95a17.36 17.36 0 0 1-2.88-.97c-.83-.65-3.9-1.86-6.79-1.86Z" class="cls-7"/>
    <path d="M73.05 9.51c2.4 1.17 3.99 2.21 5.64 2.41 1.64.2 9.31 5.99 8.43 7.08.17 0 .32-.01.45-.08.68-.37-.18-1.38-.96-2.5-.78-1.11-2.59-3.84-4.34-4.55-1.74-.71-5.34-1.46-6.14-2.08-.79-.62-5.07-2.24-7.99-1.35-.22.07-.52.34-.74.71.71-.21 3.48-.7 5.64.35Z" class="cls-3"/>
    <path d="M77.17 101.19c-5 0-6.62-1.95-7.1-2.87-2.18-.27-14.06-1.99-23.86-8.17-8.87-5.59-10.52-8.4-11.5-10.07a6.58 6.58 0 0 0-.57-.87 5.69 5.69 0 0 1-1.16-3.27 2.95 2.95 0 0 0-.09-.6l-.08-.1c-2.03-2.65-2.83-5.16-2.39-7.47.11-.59.21-1.25.31-1.93.47-3.14 1-6.71 3.37-6.71.4 0 .83.11 1.27.34.25.12.38.4.32.67-.16.75-.37 2.93.61 3.94 1.49 1.53 5.45 4.92 7.52 5.07l.46.02c1.35 0 1.43-.43 1.55-1.13.16-.96 1.03-3.46 3.07-3.6h.2c1.69 0 2.05 1.43 2.19 1.97l.05.19.44.28a8.25 8.25 0 0 1 2.55 2.51c.97 1.62 3.62 4.18 5.18 5.23 1.07.73 1.57.8 1.74.8l.68.16-.56-.22c.08-.2.2-.67.33-1.15.55-2.1.77-2.7 1.26-2.89l.48-.24c.56-.29.92-.47 1.24-.47.1 0 .26.04.35.08.22.12.42.22.95 2.46a3.22 3.22 0 0 1 2.9.27c2.28 1.37 4.65 2.56 5.17 2.6.63.05 6.49 1.21 7.23 1.75 1.03.75 1.84 1.25 2.22 1.43l.07-.07c1.24-1.31 2.66-2.67 3.89-2.73l1.64-.09c.56-1.27 1.27-3.25 1.14-4.08-.24-1.56-.56-3.64 1.09-4.61.32-.19.66-.28 1.01-.28 1.45 0 2.72 1.58 3.42 3.06.82 1.72 1.26 2.66.77 3.58-.17.33-.49 1.65-.72 2.72a15 15 0 0 0 5.2.9h.17c.1-.87.46-2.37 1.74-2.62.37-.07.75-.11 1.14-.11.76 0 1.68.15 2.03.48l.23.24c.3-3.96.91-4.15 1.21-4.24.13-.04.27-.06.41-.06.71 0 1.47.51 2.25 1.53.62.81 1.29 2.59.93 3.55-.31.84-1.77 2.59-2.9 3.64a7.27 7.27 0 0 0-1.93 3.85c-.19 1.13-1.67 1.97-2.87 2.64-.39.22-.88.5-1.01.63-.11.12-11.77 12.11-20.76 13.63-1.63.28-3.14.42-4.48.42ZM49.64 69.44c-.37 0-.81.24-.92.92-.23 1.34-.19 3.8.62 4.81.23.28.48.43.82.45.78 0 1.4-.49 1.72-1.28.44-1.1.27-2.88-1.52-4.6-.21-.2-.46-.3-.72-.3Z" class="cls-18"/>
    <path d="M34.1 59.73c.3 0 .63.09 1 .27 0 0-.67 3.02.77 4.49 1.43 1.47 5.57 5.08 7.91 5.25l.51.02c1.86 0 2.01-.88 2.14-1.64.14-.82.89-2.99 2.51-3.09h.16c1.46 0 1.52 1.39 1.68 1.78.16.4 1.96 1.09 3.03 2.88 1.07 1.79 3.84 4.4 5.36 5.42.89.6 1.59.91 2.08.91.33 0 .56-.15.68-.44.28-.72.83-3.53 1.24-3.69.38-.15 1.2-.67 1.5-.67l.07.01c.21.11.82 2.82.82 2.82s.67-.5 1.6-.5c.42 0 .9.1 1.4.4 1.6.96 4.61 2.62 5.44 2.68.83.06 6.37 1.23 6.92 1.63.51.37 2.25 1.61 2.71 1.61.04 0 .06 0 .08-.02.27-.22 2.38-2.77 3.77-2.84 1.39-.07 2.01-.12 2.01-.12s1.56-3.33 1.34-4.75c-.22-1.42-.51-3.22.8-4 .23-.14.47-.2.7-.2 1.11 0 2.23 1.35 2.88 2.72.79 1.66 1.12 2.41.79 3.04-.34.63-.88 3.37-.88 3.37s2.36 1.14 5.89 1.14c.24 0 .48 0 .73-.02 0 0 .02-2.37 1.29-2.61.36-.07.7-.1 1.03-.1.82 0 1.47.18 1.61.31.2.19 1.16 1.29 1.16 1.29s.23-4.96.87-5.16a.99.99 0 0 1 .24-.03c.59 0 1.24.6 1.77 1.29.6.79 1.08 2.33.85 2.98-.24.65-1.53 2.27-2.74 3.4a7.96 7.96 0 0 0-2.12 4.19c-.21 1.26-3.16 2.37-3.72 2.96-.56.59-11.83 12-20.42 13.45-1.7.29-3.15.41-4.38.41-4.98 0-6.41-1.97-6.69-2.82 0 0-13.17-1.32-23.95-8.12-10.78-6.8-10.73-9.4-11.94-10.83-1.21-1.43-.88-3.36-1.19-3.8-.31-.44-3.05-3.66-2.39-7.14.59-3.08.8-8.15 3.09-8.15M50.26 76.2c2.27 0 3.88-3.72.54-6.92a1.62 1.62 0 0 0-1.13-.47c-.69 0-1.36.48-1.52 1.43-.25 1.49-.35 5.82 1.99 5.96h.13M34.12 58.5c-2.89 0-3.46 3.84-3.96 7.22-.1.69-.2 1.34-.31 1.91-.48 2.48.36 5.16 2.5 7.95l.05.4a6.3 6.3 0 0 0 1.3 3.6c.16.19.32.46.51.79 1.01 1.72 2.71 4.6 11.7 10.28 9.64 6.08 20.95 7.85 23.81 8.22.72 1.15 2.62 2.91 7.48 2.91 1.37 0 2.91-.14 4.58-.42 9.16-1.55 20.98-13.69 21.1-13.81.1-.09.54-.34.87-.52 1.3-.74 2.92-1.66 3.16-3.07a6.7 6.7 0 0 1 1.75-3.51c1.19-1.11 2.7-2.91 3.06-3.87.44-1.21-.32-3.21-1.02-4.12-.9-1.17-1.81-1.77-2.73-1.77-.2 0-.4.03-.59.09-.54.16-1.19.36-1.55 3.75a6.56 6.56 0 0 0-3.01-.13c-1.24.24-1.89 1.39-2.14 2.6a14.57 14.57 0 0 1-4.14-.69c.21-.93.43-1.81.55-2.05.63-1.18.08-2.35-.76-4.12-.38-.8-1.79-3.41-3.97-3.41-.46 0-.91.12-1.32.36-2.01 1.18-1.62 3.69-1.39 5.19.09.57-.39 2.1-.95 3.44l-1.26.07c-1.35.07-2.74 1.29-4.05 2.66-.42-.24-1.04-.66-1.74-1.17-.93-.68-6.92-1.81-7.53-1.86-.51-.09-2.86-1.28-4.91-2.51a3.86 3.86 0 0 0-2.77-.5c-.49-1.92-.73-2.05-1.1-2.25-.19-.1-.41-.16-.64-.16-.45 0-.88.2-1.52.54-.16.08-.31.17-.42.21-.82.32-1.07 1.19-1.62 3.3l-.18.66a5.82 5.82 0 0 1-1.08-.61c-1.5-1.02-4.06-3.49-5-5.05-.84-1.4-2.02-2.21-2.73-2.7l-.26-.18c-.41-1.57-1.34-2.36-2.76-2.36h-.24c-2.34.15-3.4 2.75-3.62 4.1-.1.6-.11.63-.95.63-.13 0-.27 0-.42-.02-1.63-.12-5.26-2.96-7.13-4.89-.79-.81-.59-2.77-.45-3.39a1.21 1.21 0 0 0-.64-1.34 3.4 3.4 0 0 0-1.54-.4Zm16.15 16.49h-.05c-.13 0-.24-.05-.38-.22-.65-.82-.71-3.08-.49-4.33.03-.19.12-.42.33-.42.1 0 .21.05.3.14 1.57 1.51 1.74 3.02 1.38 3.94-.22.56-.64.9-1.08.9Z" class="cls-7"/>
    <path fill="url(#linear-gradient-2)" d="M107.69 71.94c-.65.2-.87 5.16-.87 5.16s-.96-1.11-1.16-1.29c-.2-.19-1.38-.46-2.64-.22-1.27.24-1.29 2.61-1.29 2.61-2.66.12-4.75-.44-5.82-.81s-.18 4-2.22 5.95c-2.04 1.95-13.77 1.95-18.76 3.71-4.99 1.75-16.83-1.78-24.84-6.36C42.07 76.12 38.57 73 38.7 67.01a31.01 31.01 0 0 1-2.83-2.51c-1.43-1.47-.77-4.49-.77-4.49-3.24-1.62-3.42 4.39-4.09 7.88-.67 3.48 2.08 6.7 2.39 7.14.31.44-.02 2.37 1.19 3.8 1.21 1.43 1.15 4.02 11.94 10.83 10.78 6.8 23.95 8.12 23.95 8.12.36 1.06 2.48 3.87 11.07 2.41 8.59-1.45 19.86-12.86 20.42-13.45.56-.59 3.5-1.7 3.72-2.96s.9-3.07 2.12-4.19c1.21-1.13 2.51-2.76 2.74-3.4.24-.65-.24-2.18-.85-2.98-.6-.79-1.36-1.45-2.01-1.26Z"/>
    <path d="M34.1 60.34c.1 0 .21.02.33.05-.14 1-.26 3.23 1.01 4.53 1.32 1.35 5.67 5.24 8.3 5.43l.55.02c2.37 0 2.6-1.34 2.74-2.14.13-.78.81-2.52 1.96-2.59h.12c.64 0 .83.33 1.02 1.06l.1.34c.12.31.42.51.87.83.62.43 1.57 1.08 2.2 2.14 1.15 1.92 4.05 4.61 5.53 5.61 1.01.68 1.8 1.01 2.41 1.01.59 0 1.04-.3 1.24-.83.1-.27.22-.74.37-1.28.17-.64.47-1.78.65-2.12.14-.06.3-.15.47-.24l.41-.21c.16.51.4 1.44.58 2.24.04.2.19.36.38.43a.6.6 0 0 0 .57-.08s.53-.39 1.24-.39c.37 0 .74.11 1.09.32.18.11 4.46 2.67 5.7 2.77.84.07 6.06 1.2 6.61 1.52 2.36 1.72 2.87 1.72 3.06 1.72.23 0 .38-.09.47-.16l.35-.35c1.44-1.53 2.47-2.32 3.07-2.35 1.4-.07 2.03-.12 2.03-.12a.6.6 0 0 0 .5-.35c.17-.36 1.63-3.54 1.39-5.13-.25-1.58-.36-2.83.51-3.35a.73.73 0 0 1 .4-.11c.7 0 1.68 1 2.33 2.37.71 1.5.98 2.15.8 2.5-.36.68-.84 3.07-.94 3.54a.6.6 0 0 0 .33.66c.1.05 2.52 1.2 6.15 1.2.25 0 .5 0 .76-.02a.61.61 0 0 0 .58-.6c0-.59.22-1.91.8-2.03a4.53 4.53 0 0 1 2.14.09c.17.17.72.8 1.09 1.22a.62.62 0 0 0 .66.18.6.6 0 0 0 .4-.54c.08-1.83.33-4 .57-4.61.24.05.68.34 1.22 1.05.56.73.89 2.05.76 2.4-.17.47-1.33 2-2.59 3.17a8.41 8.41 0 0 0-2.3 4.53c-.1.56-1.51 1.36-2.27 1.8-.58.33-1.04.59-1.29.85-.11.12-11.49 11.82-20.08 13.27-1.57.26-3.01.4-4.28.4-5.16 0-6.04-2.16-6.12-2.41a.64.64 0 0 0-.51-.41c-.13-.01-13.16-1.38-23.69-8.03-8.62-5.44-10.18-8.08-11.11-9.66-.23-.39-.43-.73-.69-1.04a4.59 4.59 0 0 1-.88-2.61c-.05-.5-.09-.87-.28-1.14l-.13-.17c-1.81-2.36-2.53-4.55-2.16-6.51.12-.61.22-1.27.32-1.98.36-2.4.85-5.68 2.17-5.68m16.15 16.49c1.2 0 2.25-.78 2.76-2.04.59-1.47.42-3.79-1.8-5.92a2.25 2.25 0 0 0-1.55-.64c-1.07 0-1.92.78-2.11 1.93-.18 1.07-.38 4.2.86 5.76a2.3 2.3 0 0 0 1.69.9h.16M34.11 59.74c-2.29 0-2.5 5.07-3.09 8.15-.67 3.48 2.08 6.7 2.39 7.14.31.44-.02 2.37 1.19 3.8 1.21 1.43 1.15 4.02 11.94 10.83 10.78 6.8 23.95 8.12 23.95 8.12.29.85 1.71 2.82 6.69 2.82 1.23 0 2.68-.12 4.38-.41 8.59-1.45 19.86-12.86 20.42-13.45.56-.59 3.5-1.7 3.72-2.96.21-1.26.9-3.07 2.12-4.19 1.21-1.13 2.51-2.76 2.74-3.4.24-.65-.24-2.18-.85-2.98-.53-.7-1.18-1.29-1.77-1.29a.99.99 0 0 0-.24.03c-.65.2-.87 5.16-.87 5.16s-.96-1.11-1.16-1.29c-.14-.13-.79-.31-1.61-.31-.32 0-.67.03-1.03.1-1.27.24-1.29 2.61-1.29 2.61l-.73.02c-3.53 0-5.89-1.14-5.89-1.14s.54-2.74.88-3.37c.34-.63 0-1.38-.79-3.04-.65-1.37-1.77-2.72-2.88-2.72-.24 0-.47.06-.7.2-1.31.77-1.02 2.58-.8 4 .22 1.41-1.34 4.75-1.34 4.75s-.62.05-2.01.12c-1.39.07-3.51 2.62-3.77 2.84-.02.02-.05.02-.08.02-.46 0-2.2-1.24-2.71-1.61-.54-.4-6.09-1.57-6.92-1.63-.83-.06-3.84-1.72-5.44-2.68-.5-.3-.98-.4-1.4-.4-.94 0-1.6.5-1.6.5s-.61-2.71-.82-2.82l-.07-.01c-.3 0-1.12.52-1.5.67-.41.16-.96 2.97-1.24 3.69-.11.29-.34.44-.68.44-.48 0-1.18-.3-2.08-.91-1.51-1.02-4.28-3.63-5.36-5.42-1.07-1.79-2.87-2.48-3.03-2.88-.16-.39-.21-1.78-1.68-1.78h-.16c-1.63.11-2.38 2.27-2.51 3.09-.13.75-.28 1.64-2.14 1.64-.16 0-.32 0-.51-.02-2.34-.17-6.48-3.78-7.91-5.25-1.43-1.47-.77-4.49-.77-4.49a2.21 2.21 0 0 0-1-.27Zm16.15 16.49h-.13c-2.34-.14-2.24-4.47-1.99-5.96.16-.95.82-1.43 1.52-1.43.4 0 .8.16 1.13.47 3.35 3.2 1.74 6.92-.54 6.92Z" class="cls-18"/>
    <path d="M96.44 77.56c-.85-.26-1.33-.49-1.33-.49s.54-2.74.88-3.37c.34-.63 0-1.38-.79-3.04-.79-1.66-2.27-3.29-3.58-2.52s-1.02 2.58-.8 4c.22 1.41-1.34 4.75-1.34 4.75s-.62.05-2.01.12c-1.39.07-3.51 2.62-3.77 2.84-.27.22-2.25-1.19-2.79-1.58-.54-.4-6.09-1.57-6.92-1.63-.83-.06-3.84-1.72-5.44-2.68-1.6-.96-3 .1-3 .1s-.61-2.71-.82-2.82c-.21-.11-1.15.49-1.56.65-.41.16-.96 2.97-1.24 3.69-.27.72-1.24.55-2.75-.47s-4.28-3.63-5.36-5.42c-1.07-1.79-2.87-2.48-3.03-2.88-.16-.4-.22-1.88-1.84-1.77-1.63.11-2.38 2.27-2.51 3.09-.14.82-.3 1.79-2.65 1.62-2.34-.17-6.48-3.78-7.91-5.25-1.43-1.47-.77-4.49-.77-4.49a2.54 2.54 0 0 0-.75-.25c-2.09 6.19 7 9.85 8.07 10.54 1.07.68 3.76-.27 3.76-.27s1.6-3.4 2.76-3.61c1.16-.21 1.24 1.74 1.9 1.85.67.11 3.79 3.4 5.52 5.83 1.73 2.44 5.68 3.51 5.68 3.51s1.1-1.65 1.92-2.84c.83-1.19 2.71 1.38 3.01 1.43.3.05 1.8-.41 2.97.71 1.16 1.12 4.9 1.04 7.63 1.8 2.73.77 5.91 3.04 5.91 3.04s1.64-1.25 2.97-2.46c1.33-1.2 3.47-.63 3.47-.63s2.05-4.86 2.03-6.59c-.02-1.74.25-4.12 1.96-1.91 1.72 2.21-.12 7.33-.12 7.33l2.65.07Z" class="cls-3"/>
    <path fill="#b7eae8" stroke="#3c7bd6" stroke-linecap="round" stroke-linejoin="round" stroke-width="1.21" d="M97.61 62.36c-1.51-.26-3.63-1.16-3.9-.66-.26.49 2.79 5.08 3.57 6.11.78 1.03 3.79.94 4.1-.86.31-1.8-1.21-4.15-3.77-4.59Z"/>
    <path d="M100.12 66.05c-.24.34-.98.22-1.65-.27-.67-.48-1.01-1.15-.77-1.48.24-.34.98-.22 1.65.27.67.48 1.01 1.15.77 1.48Z" class="cls-3"/>
    <path fill="#703c16" d="M83.7 44.1c.14.91.34 1.79.71 2.63a7.47 7.47 0 0 0 1.71 2.31c.56.54 1.42-.32.85-.85a6.35 6.35 0 0 1-1.52-2.07l-.01-.02-.06-.14-.1-.29c-.06-.19-.12-.38-.16-.57a14 14 0 0 1-.26-1.32c-.05-.32-.45-.5-.74-.42-.34.09-.47.42-.42.74Zm4.32.25a13.1 13.1 0 0 0 2.79 3.1c.26.19.68.05.83-.22.17-.32.06-.63-.22-.83l-.05-.04.03.03c-.03 0-.08-.07-.11-.08l-.19-.16-.37-.35c-.25-.25-.48-.51-.7-.77l-.31-.38c-.02-.02-.11-.13 0-.01a.55.55 0 0 0-.06-.08l-.13-.18-.46-.63c-.18-.26-.54-.4-.83-.22-.25.16-.41.55-.22.83Zm17.13 11.58a12.5 12.5 0 0 1 2.89 10.34c-.12.76 1.04 1.09 1.16.32a13.8 13.8 0 0 0-3.2-11.51c-.51-.58-1.37.27-.85.85Zm-1.57 6.27c.45.54.74 1.17.84 1.87a3.7 3.7 0 0 1-.27 1.9c-.13.3-.09.65.22.83.25.15.7.08.83-.22a4.85 4.85 0 0 0-.76-5.23c-.21-.25-.64-.22-.85 0-.25.25-.21.6 0 .85ZM91.63 44.15c.25.36.55.68.81 1.02l-.09-.12.12.16c.04.07.09.13.16.17.06.05.13.09.21.11.14.04.34.02.47-.06s.24-.21.28-.36.03-.33-.06-.47c-.25-.36-.55-.68-.81-1.02l.09.12-.12-.16a.44.44 0 0 0-.16-.17.53.53 0 0 0-.21-.11c-.14-.04-.34-.02-.47.06s-.24.21-.28.36-.03.33.06.47ZM73.04 57.27c-.68 2.88 1.73 5.12 4 6.41.68.39 1.28-.66.61-1.04-1.75-1-3.99-2.76-3.44-5.05.18-.76-.98-1.08-1.16-.32Z"/>
    <path fill="#a18f70" stroke="#5b2307" stroke-linecap="round" stroke-linejoin="round" stroke-width="1.21" d="M.6 35.77s21.54 8.33 45.73 6.33l7.12-7.08-46.62.03-6.23.72Z"/>
    <path fill="#d2001e" stroke="#5b2307" stroke-linecap="round" stroke-linejoin="round" stroke-width="1.21" d="M2.28 36.12s13.59-1.41 24.12-1.66c10.52-.24 19.4-.77 19.4-.77l7.01 1.53s-10.78 2.74-19.66 3.26-30.87-2.36-30.87-2.36Z"/>
    <path fill="#ceb891" d="M52.18 35.02c-1.19 0-2.78-.18-4.74-.55C33.1 31.8 1.93 20.13 1.61 20.01a.6.6 0 0 1-.36-.74.6.6 0 0 1 .58-.43c.05 0 .09 0 .14.02l.34.08c23.62 5.39 42.86 8.9 43.05 8.94a.6.6 0 0 1 .49.53c.3 2.99 5.28 4.67 8.18 5.2a.6.6 0 0 1 .49.55.6.6 0 0 1-.4.62 6 6 0 0 1-1.94.25Z"/>
    <path d="m1.83 19.44.35.08c23.9 5.46 43.08 8.94 43.08 8.94.43 4.23 8.18 5.64 8.67 5.73-.43.15-1.01.22-1.74.22-1.2 0-2.78-.19-4.63-.54C33.1 31.19 1.83 19.44 1.83 19.44m0-1.21a1.2 1.2 0 0 0-.42 2.33c1.28.48 31.54 11.81 45.93 14.49 1.99.37 3.63.56 4.85.56.89 0 1.59-.09 2.14-.29a1.2 1.2 0 0 0-.19-2.32c-2.54-.46-7.42-2.03-7.69-4.66a1.21 1.21 0 0 0-.99-1.07c-.19-.03-19.43-3.54-43.03-8.93l-.33-.08a1.33 1.33 0 0 0-.28-.03Z" class="cls-1"/>
    <path fill="url(#linear-gradient-3)" d="m1.08 53.04-.13-.12c-.27-.31-.19-1.49.19-5.37.15-1.5.3-3.04.34-4.03.11-2.68.29-6.06.29-6.06v-.23l.24-.05a23.4 23.4 0 0 1 3.75-.45c.44 0 1.61 0 1.62.75.01.79-1.06 3.04-2.37 5.7l-.69 1.43c-.29.64-.78 2.26-1.24 3.83-1.25 4.22-1.46 4.62-1.86 4.62h-.15Z"/>
    <path d="M5.76 37.03c.75 0 1.32.11 1.32.45.02 1.01-2.31 5.45-3.03 6.99-.71 1.54-2.37 8.27-2.83 8.27-.46-.02.46-6.54.57-9.21.11-2.68.28-6.06.28-6.06s2.2-.44 3.69-.44m0-.6c-1.53 0-3.71.43-3.81.45l-.46.09-.02.47s-.18 3.42-.28 6.07c-.04.98-.19 2.52-.34 4.01-.44 4.43-.46 5.21-.12 5.6l.17.2.3.03c.68 0 .88-.45 2.18-4.83.46-1.56.94-3.17 1.23-3.79l.69-1.42c1.37-2.78 2.41-4.98 2.4-5.84-.02-1.04-1.45-1.04-1.93-1.04Z" class="cls-7"/>
    <path d="M5.76 37.63a4 4 0 0 1 .69.05c-.2.92-1.56 3.7-2.25 5.09-.29.58-.54 1.09-.7 1.45-.32.7-.79 2.28-1.29 3.95l-.33 1.12.16-1.65c.15-1.51.31-3.07.35-4.08.08-2.05.21-4.55.26-5.57.71-.12 2.1-.34 3.11-.34m0-.6c-1.48 0-3.69.44-3.69.44s-.18 3.38-.28 6.06c-.11 2.68-1.03 9.19-.57 9.21.46 0 2.12-6.72 2.83-8.27.71-1.54 3.05-5.99 3.03-6.99 0-.34-.57-.45-1.32-.45Z" class="cls-3"/>
    <path fill="url(#linear-gradient-4)" d="M27.04 63.22a.42.42 0 0 1-.32-.15c-.42-.47-.24-2.63.27-6.7.1-.8.19-1.49.19-1.67 0-.27-.11-.61-.22-.97-.18-.56-.36-1.14-.2-1.66.16-.52.67-6.17.97-9.85l.02-.23.23-.04c.26-.05.57-.07.91-.07 1.65 0 3.71.54 3.8.56l.29.08-.07.29c-.01.05-1.28 5.25-1.7 7.22-.24 1.12-.67 1.81-1.01 2.36a3 3 0 0 0-.57 1.32c0 .1-1.35 9.52-2.58 9.52Z"/>
    <path d="M28.89 42.18c1.63 0 3.72.55 3.72.55s-1.28 5.23-1.7 7.23c-.43 2.01-1.46 2.51-1.58 3.71-.12 1.2-1.52 9.25-2.28 9.25-.76 0 .44-7.46.44-8.22 0-.76-.65-1.81-.43-2.54.22-.74.98-9.91.98-9.91.26-.05.55-.07.86-.07m0-.6c-.36 0-.69.03-.97.08l-.46.08-.04.46c-.29 3.49-.8 9.24-.96 9.78-.18.6.02 1.26.2 1.84.1.32.2.66.2.88 0 .16-.09.91-.18 1.64-.61 4.93-.65 6.42-.2 6.94.14.16.34.25.55.25.59 0 1.05-.32 1.97-4.65.46-2.15.85-4.48.91-5.14.04-.42.24-.74.52-1.19.36-.57.8-1.28 1.05-2.46.42-1.97 1.69-7.16 1.7-7.21l.14-.58-.57-.15c-.09-.02-2.19-.57-3.87-.57Z" class="cls-7"/>
    <path d="M28.89 42.78c1.03 0 2.28.24 2.99.39-.35 1.43-1.23 5.07-1.56 6.66a5.83 5.83 0 0 1-.89 2.07c-.32.52-.63 1.01-.7 1.71-.1.98-.69 4.26-1.24 6.55.11-1.3.3-2.8.41-3.67.13-1.05.19-1.56.19-1.79 0-.41-.13-.83-.26-1.24-.13-.41-.27-.88-.2-1.13.21-.7.78-7.28.97-9.54h.3m0-.6c-.31 0-.6.02-.86.07 0 0-.76 9.17-.98 9.91-.22.74.43 1.79.43 2.54 0 .76-1.2 8.22-.44 8.22s2.16-8.05 2.28-9.25c.12-1.2 1.15-1.7 1.58-3.71.43-2 1.7-7.23 1.7-7.23s-2.09-.55-3.72-.55Z" class="cls-3"/>
    <path d="M29.41 47c-.07.72-.47 1.27-.89 1.23-.42-.04-.71-.66-.64-1.38.07-.72.47-1.27.89-1.23.42.04.71.66.63 1.38Z" class="cls-3"/>
    <path fill="url(#linear-gradient-5)" d="M13.42 61.08a.55.55 0 0 1-.44-.23c-.24-.31-.42-1 .1-3.84.43-2.34.62-4.65.67-5.23-.43-.52-.33-1.78 0-3.72.28-1.68.71-7.33.71-7.39l.02-.29h.29c2.26.08 7.56.35 8.08 1.33.09.17.08.36-.02.53-.32.52-1.17 3.42-1.92 5.97-1.64 5.59-1.72 5.61-2.06 5.61-.57-.11-.55-.83-.23-3.06l.08-.56c.07-.52.07-2.56.06-4.11a39.49 39.49 0 0 0-1.08 3.84c-.19 1.34-1.44 3.83-1.58 4.12-.14.27-.45 1.34-.79 2.47-1.22 4.12-1.45 4.57-1.86 4.57h-.02Z"/>
    <path d="M14.75 40.69s8.51.27 7.81 1.39c-.7 1.11-3.35 11.44-3.73 11.44-.37-.08.04-2.38.16-3.28.11-.9.04-6.01.04-6.01s-1.5 4.54-1.66 5.66c-.16 1.12-1.15 3.23-1.55 4.02-.4.79-1.92 6.87-2.38 6.87-.46-.02-.57-.97-.06-3.71.51-2.75.68-5.41.68-5.41-.47-.33-.3-1.84-.02-3.55.29-1.71.71-7.42.71-7.42m-.56-.62-.04.58c0 .06-.43 5.7-.71 7.36-.33 1.95-.43 3.21 0 3.86a53.3 53.3 0 0 1-.66 5.09c-.51 2.79-.39 3.65-.04 4.08.17.21.4.33.66.34.68 0 .93-.54 2.18-4.79.3-1.02.64-2.17.77-2.41.14-.29 1.41-2.83 1.61-4.21.05-.34.24-1.06.48-1.88 0 .96-.02 1.78-.06 2.07l-.08.56c-.31 2.17-.43 3.22.39 3.39h.06l.07.01c.61 0 .65 0 2.35-5.82.71-2.42 1.59-5.42 1.89-5.9a.82.82 0 0 0 .04-.83c-.44-.82-3.24-1.32-8.34-1.48l-.58-.02Z" class="cls-7"/>
    <path d="M15.31 41.31c1.35.06 2.76.16 3.95.29l-.8 2.43c-.06.19-1.52 4.61-1.69 5.77-.14.97-1.03 2.93-1.49 3.84-.17.33-.42 1.17-.84 2.62l-.68 2.25c.05-.37.12-.81.22-1.33.51-2.75.69-5.37.69-5.48l.02-.34-.25-.17c-.09-.17-.17-.8.2-2.98.24-1.41.56-5.39.68-6.89m4.28.33c1.05.13 1.89.28 2.3.44-.38.87-.98 2.88-1.86 5.87l-.39 1.33c.04-1.69 0-4.66 0-5.08l-.04-2.57m-4.84-.96s-.43 5.7-.71 7.42c-.29 1.71-.45 3.22.02 3.55 0 0-.18 2.66-.68 5.41-.51 2.75-.4 3.69.06 3.71.46 0 1.98-6.07 2.38-6.87.4-.79 1.39-2.9 1.55-4.02a70.31 70.31 0 0 1 1.66-5.66s.07 5.11-.04 6.01c-.11.9-.53 3.21-.16 3.28.38 0 3.04-10.32 3.73-11.44.7-1.12-7.81-1.39-7.81-1.39Z" class="cls-3"/>
    <path d="M16.33 46.24c-.22 1.02-.75 1.77-1.2 1.67-.45-.1-.64-1-.42-2.02.22-1.02.76-1.77 1.2-1.67.45.1.64 1 .42 2.02ZM53.92 34.2c-1.14.4-3.4.23-6.37-.32-1.74-1-3.6-2.41-4.26-4.33 0 0-30.3-6.36-41.12-10.03 23.9 5.46 43.08 8.94 43.08 8.94.43 4.23 8.18 5.64 8.67 5.73Z" class="cls-3"/>
    <path d="M26.92 68.31s-.9 5.57 2.85 10.07m-6.8-13.01s-1.83 9.49 5.54 17.83m81.99-34.89s5 5.13 4.94 9.61m-4.08-12.31s7.95 4.82 7.36 13.53m-74.1 79.79s-3.33-7.33-8.33-11.67c0 0 10.42 2.17 14.42 5.92 0 0 4.5-10.25 11.5-13.75 0 0-.75 10.75.75 15.75 0 0 4.75-5 9-6.75 0 0-2 7.75-2 12" class="cls-11"/>
    <path d="M48.2 125.68s.25-19.75-3.75-29.5m10 23.75s-.75-14.25 1.75-19m8.75 22.5c0-1 0-12.5 8-19" class="cls-11"/>
    <path d="M13.21 89.63h6.66v12.44h-6.66z" class="cls-6" transform="rotate(-26.21 16.54 95.87)"/>
    <path fill="#00fff2" d="M107.96 24.55h6.66v12.44h-6.66z" transform="rotate(-37.44 111.28 30.77)"/>
    <path d="M.59 63.42h12.44v6.66H.59z" class="cls-17" transform="rotate(-48.68 6.8 66.75)"/>
    <path d="M77.87 40.46h6.66V52.9h-6.66z" class="cls-6" transform="rotate(63.67 81.2 46.68)"/>
    <path fill="#ff3b3e" d="M110.72 71.89h6.66v12.44h-6.66z" transform="rotate(50.08 114.05 78.13)"/>
    <path d="M21.63.11h6.66v12.44h-6.66z" class="cls-17" transform="rotate(-54.45 24.95 6.32)"/>
    <path fill="#fff800" d="M64.14 3.49h12.44v6.66H64.14z" transform="rotate(-26.75 70.36 6.82)"/>
    <path fill="red" d="M98.62 3.46h6.66V15.9h-6.66z" transform="rotate(-66.66 101.95 9.68)"/>
  </g>
</svg>
