<svg xmlns="http://www.w3.org/2000/svg" xmlns:xlink="http://www.w3.org/1999/xlink" id="Layer_2" data-name="Layer 2" viewBox="0 0 121 141.2"><defs><linearGradient id="linear-gradient" x1="79.4" x2="79.4" y1="-103" y2="-93.5" gradientTransform="rotate(10 -585.3 -53)" gradientUnits="userSpaceOnUse"><stop offset="0" stop-color="#dbffff"/><stop offset="1" stop-color="#339ed3"/></linearGradient><linearGradient xlink:href="#linear-gradient" id="linear-gradient-2" x1="82.4" x2="82.4" y1="-11.3" y2="-45"/><linearGradient id="linear-gradient-3" x1="17.9" x2="17.9" y1="57.2" y2="36" gradientTransform="rotate(12 8.5 -26)" gradientUnits="userSpaceOnUse"><stop offset="0" stop-color="#dbffff"/><stop offset="1" stop-color="#1376a6"/></linearGradient><linearGradient xlink:href="#linear-gradient-3" id="linear-gradient-4" x1="34.9" x2="34.9" y1="83.4" y2="62.4" gradientTransform="rotate(6 233 6.2)"/><linearGradient xlink:href="#linear-gradient-3" id="linear-gradient-5" x1="32.4" x2="32.4" y1="60.8" y2="39.8" gradientTransform="rotate(12 18.5 -25)"/><style>.cls-1{fill:#5b2307}.cls-3{fill:#fff}.cls-6{fill:#2fff16}.cls-7{fill:#3c7bd6}.cls-11{stroke-linecap:round;stroke-linejoin:round;fill:none}.cls-17{fill:#00f}.cls-18{fill:#b7eae8}.cls-11{stroke:#5b2307;stroke-width:1.5px}.cls-19{fill:#4c1a09}.cls-26{fill:#755b46}</style></defs><g id="Layer_1-2" data-name="Layer 1"><path d="M25.2 94.2c-.4 0-1 0-1.3-.5a1 1 0 0 1-.1-.8c.2-.9 1.6-1.7 3-2.3-1.3 0-2.7 0-4-.2l-4.6-.2c-1.3-.2-1.9-1-2-1.8 0-.7.5-1.6 1.7-2 .7 0 2.2-.2 4.8-.2-3-1.7-3.3-2.5-3.2-3.1.1-.4.5-1 1.8-1a78.8 78.8 0 0 1 9.4 3.1c.3.2 8 3.4 7.6 5.7-.2 1.3-2.4 1.5-5 1.9a34.5 34.5 0 0 0-3.7.6c-1.6.4-3.3.8-4.4.8Z" class="cls-26"/><path d="m21.3 82.8 1.3.1c2.3.6 7.8 3 7.8 3 3.9 1.5 7.5 3.8 7.3 4.9-.2 1.1-4.2 1.2-6.4 1.7-1.6.3-4.6 1-6 1-.7 0-1 0-1-.4.4-1.4 5.5-2.8 5.5-2.8-2.7-.3-9.7-.5-11.5-.7-1.8-.2-2-2.1-.3-2.5 1.2-.3 5.8-.3 8.2-.3h1.6l-4-.8c-4.7-2.3-4.1-3.2-2.5-3.2m0-1.2c-1.8 0-2.2 1-2.3 1.3-.3 1 .2 1.8 1.6 2.7l-2.8.3c-1.4.3-2.2 1.4-2.2 2.6.1 1 1 2.1 2.6 2.3l4.5.2 1.9.1c-.7.5-1.3 1-1.4 1.7-.1.5 0 1 .3 1.3.5.7 1.4.7 1.7.7 1.2 0 3-.4 4.5-.8a45.1 45.1 0 0 1 1.8-.4l2-.3c2.8-.3 5-.6 5.4-2.3.5-2.5-5.4-5.2-8-6.2-.2-.1-5.7-2.4-8-3a6.8 6.8 0 0 0-1.7-.2Z" class="cls-19"/><path fill="none" stroke="#4c1a09" stroke-linecap="round" stroke-linejoin="round" stroke-width=".6" d="M20.6 86.3s1.6 1.6.2 3.8m3.8-3.6s3 1 1.4 3.8m-2-7.4s1 1.5-.9 3.2m4.3 4.5s2.2.5 1.8 3m-1.4-9.4c0 .2 1.4 1 .7 2.5 0 0 2.7.8 2.1 3.2 0 0 2.8.7 2.3 2.8"/><path d="M89.5 109c-3 0-9.5-5.9-11.6-8.4-.6-.6-.5-1.1-.3-1.4.2-.7 1.1-1.3 5.2-1.3a76 76 0 0 1 6.9.4c.5 0 3.4-.3 6.5-.3 2.7 0 4.7.2 6 .5.7.2 1.6.4 1.5 1.1 0 .8-.9 1-4.8 1.3l-2.1.2c2.9 1 6.5 2.8 6.5 4.7 0 .4-.1.7-.4.9-.3.4-.9.5-1.8.5-2.4 0-7-1.3-10.4-2.3l-1.1-.3c.9.9 1.7 2 1.6 2.9 0 .3-.1.8-.7 1.2-.3.2-.6.2-1 .2Z" class="cls-26"/><path d="M82.8 98.5c3.3 0 6.9.4 6.9.4s3.2-.3 6.5-.3c2.2 0 4.4.1 5.9.5 3.8 1-4 1.1-6.3 1.5h-2.3s9.1 2.7 9.2 5.2c0 .6-.6.8-1.6.8-3.5 0-12-3-13.9-3.2 0 0 5 3.6 3 4.8l-.7.1c-2.6 0-9-5.6-11.2-8.1-1.1-1.4 1.5-1.7 4.5-1.7m0-1.2c-3.6 0-5.2.4-5.8 1.6-.2.4-.4 1.2.4 2 1.6 2 8.7 8.6 12.1 8.6.5 0 1 0 1.3-.3.6-.4 1-1 1-1.7 0-.6-.2-1.2-.5-1.8 3.4 1 7.5 2.1 9.8 2.1.7 0 1.6 0 2.3-.7.3-.3.5-.8.5-1.3 0-1.7-2.2-3.2-4.6-4.3 3.7-.3 5-.5 5-1.8.1-1.2-1.3-1.6-2-1.8a27.1 27.1 0 0 0-6-.5c-3.1 0-6 .2-6.6.3-.7 0-4-.4-6.9-.4Z" class="cls-19"/><path fill="none" stroke="#4c1a09" stroke-linecap="round" stroke-linejoin="round" stroke-width=".6" d="M101.2 103.3s-3.4.4-3.2 3.6m-.4-5.6s-6 .3-5.4 4m7.1-7.2s-.9 1.3.3 2.7m-9.3 4.4s-3.5-1.4-5.4 1.3m8.7-7.8s-1.5 0-1.5 1.5c0 0-4.6 0-5.8 2.4 0 0-4.3-1.4-5.5.9"/><path d="M45 93.5c-3.3 0-6.1-1-8.3-2.7-5.3-4.4-3.4-11-3.4-11.1a.6.6 0 0 1 .6-.4h.1c8.9 1.3 16 12.2 16.2 12.6a.6.6 0 0 1-.3 1c-.1 0-2.2.6-5 .6Z" class="cls-18"/><path d="M34 79.9c8.6 1.3 15.7 12.3 15.7 12.3s-2 .7-4.7.7c-2.5 0-5.5-.5-7.9-2.6C32.1 86.1 34 80 34 80m0-1.3c-.5 0-1 .4-1.1 1-.1.2-2.1 7 3.6 11.7C38.6 93 41.6 94 45 94c2.8 0 5-.7 5-.7.4-.1.7-.4.8-.7a1.2 1.2 0 0 0 0-1.1c-.4-.5-7.6-11.5-16.7-13H34Z" class="cls-7"/><path fill="#a36731" d="M72.5 96.5c-3.4 0-6.8-.5-10-1.4C39.3 89 31.5 74.5 32 66.4a27.2 27.2 0 0 1 2.4-9.6c-.5.2-1 .5-1.6.5s-.9-.2-1-.4c-.4-.5-.4-1.2-.1-2.2a13 13 0 0 1 3.7-5.6c-.8.3-1.4.5-2 .5s-.7-.2-.8-.4c-.3-.4-.3-1-.2-1.3.5-2.2 3.5-3.7 4.7-4.3-.3-1.8-.8-8.3 2-17.1a29 29 0 0 1 13.3-15c-1.1-.5-2-1.2-2-2 0-.6.3-1.4 2-1.7a11 11 0 0 1 2.3-.3H56c-.9-.4-1.5-1-1.5-1.6 0-.4.1-.9 1-1.2.4-.2.9-.3 1.4-.3 1.8 0 3.9 1 5.4 2-.2-.6-.3-1.2 0-1.6.1-.3.4-.5.8-.5 1.4 0 3.1 2.3 3.8 3.3 19.5 2.8 26 16.1 27.8 26.8C96 41 100.2 44.7 105.1 49a29.2 29.2 0 0 1 7.9 12 .8.8 0 0 1-.2.7.8.8 0 0 1-.6.2h-.3c.9 2.9.6 6.6.4 7.3a.8.8 0 0 1-.7.7 1.2 1.2 0 0 1-.6-.1c.5 3.2-.5 7.2-1.5 7.8-.7.6-4.4 5-4.7 5.7-.2.6-14.2 13.2-32.2 13.2Z"/><path d="M63.1 5c1.4 0 3.5 3.2 3.5 3.2 22 3 26.3 19.5 27.6 26.3 1.2 6.7 5.4 10.5 10.5 15 5 4.4 7.5 10.7 7.7 11.5 0 .2 0 .3-.2.3-.4 0-1.6-.8-1.6-.8 1.7 2.8 1.3 8 1.2 8.6l-.2.2c-.5 0-1.5-1-1.5-1 1.1 3.2-.1 8.3-1 8.8-.7.6-4.6 5.4-4.8 6-.2.4-13.8 12.8-31.7 12.8a38 38 0 0 1-10-1.3c-22.5-6.1-30.4-20.1-30-28.2.5-8 4.6-13.5 4.6-13.5-1.6 1.2-2.6 3-2.6 3s-1.1.8-1.8.8c-.6 0-1-.4-.6-1.9 1-3.5 5.6-7 5.6-7-1.7.2-3.5 1.2-4.3 1.2-.5 0-.7-.3-.5-1 .5-2.3 4.7-4 4.7-4s-1.3-7.2 2-17.3C42.8 16.5 54 11.2 54 11.2c-3-.6-4.4-2.2-1.6-2.9l2.3-.2c2.6 0 5.5.6 5.5.6S53 6.4 55.7 5.2L57 5c2.9 0 6.9 3.1 6.9 3.1s-2-3.2-.7-3.2m0-1.2c-.6 0-1.2.3-1.4.8 0 .1-.2.3-.2.7-1.4-.8-3.1-1.4-4.6-1.4-.6 0-1.2 0-1.6.3-1.3.5-1.5 1.3-1.4 1.8 0 .2 0 .6.3 1l-2 .2c-2.2.5-2.5 1.7-2.5 2.3 0 .8.5 1.5 1.4 2a29 29 0 0 0-12.6 14.9 42.2 42.2 0 0 0-2 17c-1.6.7-4.2 2.3-4.7 4.4 0 .3-.3 1.2.3 1.9.2.2.6.6 1.4.6a11.4 11.4 0 0 0-2.5 4.3c-.2.8-.4 2 .3 2.7.3.5.8.7 1.4.7h.5a28 28 0 0 0-1.8 8.4c-.5 8.3 7.4 23 31 29.4 3.2.9 6.7 1.3 10.1 1.3a49 49 0 0 0 33-13.6l-.1.1a47 47 0 0 1 4.4-5.4c1.1-.8 2.1-4.4 2-7.6a1.4 1.4 0 0 0 1.1-1.2s.5-3.7-.2-6.9c.2 0 .4-.2.6-.4.1-.2.4-.6.3-1.2-.3-1.3-3-7.8-8.1-12.3-4.9-4.2-9-7.9-10.2-14.3A31.5 31.5 0 0 0 67.3 7c-1-1.2-2.6-3.3-4.1-3.3Z" class="cls-1"/><path fill="#8e5424" d="M104.3 83c.2-.5 4-5.3 4.9-5.9.8-.5 2-5.6.9-8.9 0 0 1.5 1.6 1.6.9.2-.7.6-5.8-1-8.5 0 0 1.9 1.3 1.7.5-.2-.9-2.7-7.2-7.7-11.7-2.6-2.2-5-4.3-6.8-6.7s6.4 9.6 4.6 17.4c-1.7 7.8-4.8 4.2-4.8 4.2l-5.9-4.6s1.2 6.3-2.6 7.7c-3.8 1.4-4.5-.8-4.5-.8s.6 4-4 4.3C76 71 64.2 69 59.2 67.2c-5-1.8-11.4-5.2-11.4-9 0-4-.7-4.6-.7-4.6S41 59.5 41 56c0-3.4 1.3-5.7 1.3-5.7s-4.6 2-3.9.2a22.4 22.4 0 0 1 2-3.5s-1.6-1-2.9-3c-.9.4-4 2-4.5 3.9-.5 2.3 2.3 0 4.8-.1 0 0-4.7 3.4-5.6 6.9s2.4 1.1 2.4 1.1 1-1.9 2.7-3c0 0-4.2 5.4-4.7 13.5-.4 8 7.5 22 30 28.1s41.5-10.9 41.7-11.5Z"/><path fill="#bd852d" d="M94 77.8c-10.4-3.2-29.2-14.4-25-24.1 4.2-9.7 11.6-5.5 16.6-17.5 5-12-6.6-21.6-16.9-22-10.2-.5-16.8 8.5-17.4 9.1-.5.7-5.3-.2-7.1-.9-1.8-.7-.7-2.7-.7-2.8a22.1 22.1 0 0 0-3.8 7c-3.3 10.2-2 17.4-2 17.4s-4.2 1.7-4.7 4 2.3 0 4.8-.1c0 0-4.7 3.4-5.6 7s2.4 1 2.4 1 1-1.8 2.6-3c0 0-4.1 5.4-4.6 13.5-.4 8.1 7.5 22 30 28.2 19 5 35.3-6 40.2-10.1a14.2 14.2 0 0 0-8.9-6.7Z"/><path fill="#91682c" d="M65.2 95.1a30.5 30.5 0 0 0 3.3.5l.7.1h1.2l.6.1h4.2l1.3-.2h.6l1.2-.2h.6L80 95h.5l1.5-.4h.2l1.6-.5h.3l1.3-.4.5-.2a46 46 0 0 0 1.5-.5l1-.4.5-.2 1.2-.5h.2l1.4-.7.2-.1 1-.5.5-.2.8-.5.4-.2.8-.4.4-.3.8-.4.3-.2 1-.6.3-.2.6-.4.4-.3.5-.3.4-.3.4-.3.4-.3.3-.2.4-.3 1-.8a14.2 14.2 0 0 0-8.8-6.7A59.1 59.1 0 0 1 79.7 71a81 81 0 0 1-20.4-3.6c-5-1.9-11.5-5.2-11.5-9.1 0-3.9-.6-4.6-.6-4.6s-6.2 6-6.2 2.5c0-3.4 1.3-5.7 1.3-5.7s-4.7 2-4 .3a22.4 22.4 0 0 1 2.1-3.6s-1.6-1-3-3l-.1.1h-.1l-.2.2h-.3a6.2 6.2 0 0 0-.3.2l-.1.1-.3.2a.8.8 0 0 0-.1 0l-.3.2a.7.7 0 0 0-.1 0l-.4.3-.8.6v.1l-.4.3-.3.3a3.5 3.5 0 0 0-.2.4l-.1.1-.2.3-.2.5c-.5 2.2 2.4 0 4.8-.1 0 0-4.6 3.4-5.5 6.9s2.3 1.1 2.3 1.1 1-1.9 2.7-3c0 0-4.2 5.4-4.6 13.5-.5 8 7.4 22 30 28.1l2 .5.6.1Z"/><path fill="none" stroke="#5b2307" stroke-linecap="round" stroke-linejoin="round" stroke-width="1.2" d="M55.3 36s.5-2-.6-3.4"/><path fill="none" stroke="#5b2307" stroke-linecap="round" stroke-linejoin="round" stroke-width="1.6" d="M61.3 29.3s3.5-7.4 11.5-5.1c7 2 6.2 8.1 6 9.6"/><path fill="url(#linear-gradient)" d="M79.5 20.1 79 20c-1.2-.5-1.7-2-2-3l-.4-.8-.1-.2c-.4-.9-.9-1.9-2.3-2.5a13.5 13.5 0 0 0-3-.7c-1.6-.2-3.1-.4-3.9-1.1a2 2 0 0 1-.6-2c.1-.8.8-1.6 1.4-1.8a7.2 7.2 0 0 1 2-.3c2.8 0 5.7 1.1 6.5 1.7.4.3 1.9.7 3 1l3 1c1.8.7 3.5 3.2 4.5 4.5l.4.7c.6.9 1.1 1.6 1 2.3 0 .1-.2.4-.6.6l-.7.2c-.9 0-2-.7-2.7-1.4a8 8 0 0 0-2.7-.8 3.8 3.8 0 0 1-.9 2.1c-.4.4-.8.6-1.3.6Z"/><path d="M70 8.2a13 13 0 0 1 6.1 1.6c.8.6 4.4 1.4 6.2 2 1.7.8 3.5 3.5 4.3 4.6.8 1.1 1.7 2.1 1 2.5a1 1 0 0 1-.4.1c-.8 0-1.8-.6-2.3-1.2-.7-.6-3.7-1-3.7-1 0 1.2-.7 2.7-1.7 2.7l-.4-.1c-1.3-.5-1.6-2.5-2-3.5-.5-.9-1-2.2-2.8-3-1.9-.8-5.6-.6-6.7-1.7-1.1-1 0-2.6.6-2.8.6-.2 1.2-.2 1.9-.2m0-1.2c-.8 0-1.6 0-2.3.3-.8.2-1.6 1.2-1.8 2.2-.2 1 0 2 .8 2.6 1 .8 2.5 1 4.2 1.3 1 .2 2.1.3 2.8.6 1.3.6 1.7 1.4 2 2.2l.2.3.2.7c.4 1.2 1 2.8 2.5 3.3a2.3 2.3 0 0 0 2.5-.6 4.1 4.1 0 0 0 1-1.8 7 7 0 0 1 1.8.6c.6.6 2 1.5 3.2 1.5.3 0 .7 0 1-.2.4-.3.7-.7.8-1.1.2-1-.4-1.8-1.1-2.8l-.3-.4-.1-.2c-1-1.4-2.8-4-4.8-4.8l-3-1a17.4 17.4 0 0 1-2.8-.9C76 8.2 72.9 7 70 7Z" class="cls-7"/><path d="M73 9.5c2.4 1.2 4 2.2 5.7 2.4 1.6.2 9.3 6 8.4 7.1h.5c.7-.4-.2-1.5-1-2.6-.8-1-2.6-3.8-4.3-4.5-1.8-.7-5.4-1.5-6.2-2.1-.8-.6-5-2.3-8-1.4-.2.1-.5.4-.7.8a9 9 0 0 1 5.6.3Z" class="cls-3"/><path d="M77.2 101.2c-5 0-6.7-2-7.1-2.9-2.2-.3-14-2-23.9-8.2-8.9-5.5-10.5-8.4-11.5-10a6.6 6.6 0 0 0-.6-.9A5.7 5.7 0 0 1 33 76a3 3 0 0 0-.1-.6c-2.1-2.7-3-5.2-2.5-7.5l.3-2c.5-3.1 1-6.7 3.4-6.7.4 0 .8.1 1.3.4.2 0 .4.4.3.6-.2.8-.4 3 .6 4 1.5 1.5 5.5 4.9 7.5 5h.5c1.3 0 1.4-.4 1.5-1 .2-1 1-3.5 3.1-3.7h.2c1.7 0 2 1.5 2.2 2v.2l.5.3a8.3 8.3 0 0 1 2.5 2.5c1 1.6 3.7 4.2 5.2 5.2 1 .8 1.6.8 1.7.8l.7.2-.5-.2.3-1.2c.5-2 .8-2.7 1.3-2.9l.4-.2c.6-.3 1-.5 1.3-.5h.3c.2.2.4.3 1 2.6a3.2 3.2 0 0 1 2.9.2A26 26 0 0 0 74 76a41 41 0 0 1 7.3 1.8l2.2 1.4c1.3-1.4 2.7-2.7 4-2.8H89a11 11 0 0 0 1.1-4.2c-.2-1.5-.5-3.6 1.1-4.6a2 2 0 0 1 1-.3c1.5 0 2.8 1.6 3.5 3.1.8 1.7 1.2 2.7.7 3.6l-.7 2.7a15 15 0 0 0 5.2.9h.2c0-.9.4-2.4 1.7-2.6l1.2-.1c.7 0 1.6.1 2 .4l.2.3c.3-4 1-4.2 1.2-4.2l.4-.1c.7 0 1.5.5 2.3 1.5.6.8 1.3 2.6 1 3.6a14 14 0 0 1-3 3.6 7.3 7.3 0 0 0-2 3.9c-.1 1-1.6 2-2.8 2.6l-1 .6c-.1.2-11.8 12.1-20.8 13.7-1.6.2-3 .4-4.4.4ZM49.6 69.4c-.3 0-.8.3-.9 1-.2 1.3-.2 3.8.6 4.8.3.2.5.4.9.4.7 0 1.4-.5 1.7-1.3.4-1 .2-2.8-1.5-4.6a1 1 0 0 0-.8-.3Z" class="cls-18"/><path d="m34.1 59.7 1 .3s-.7 3 .8 4.5c1.4 1.5 5.5 5 7.9 5.2h.5c1.9 0 2-.8 2.1-1.6.2-.8 1-3 2.5-3h.2c1.5 0 1.5 1.3 1.7 1.7.1.4 2 1.1 3 2.9 1 1.8 3.8 4.4 5.4 5.4.9.6 1.6 1 2 1 .4 0 .6-.2.7-.5.3-.7.9-3.6 1.3-3.7.3-.2 1.2-.7 1.5-.7.2.1.9 2.8.9 2.8s.6-.5 1.6-.5c.4 0 .9.1 1.4.4 1.6 1 4.6 2.7 5.4 2.7.8 0 6.4 1.3 7 1.7.4.3 2.2 1.6 2.6 1.6h.1c.3-.3 2.4-2.8 3.8-2.9l2-.1s1.5-3.3 1.3-4.8c-.2-1.4-.5-3.2.8-4l.7-.2c1.1 0 2.3 1.4 3 2.8.7 1.6 1 2.4.7 3-.3.6-.9 3.4-.9 3.4s2.4 1.1 6 1.1h.6s0-2.4 1.3-2.6l1-.1c.9 0 1.5.2 1.7.3l1.1 1.3s.3-5 .9-5.2a1 1 0 0 1 .2 0c.6 0 1.3.6 1.8 1.3.6.8 1 2.3.9 3-.3.6-1.6 2.2-2.8 3.4a8 8 0 0 0-2.1 4.2c-.2 1.2-3.2 2.3-3.7 3-.6.5-11.9 12-20.4 13.4-1.7.3-3.2.4-4.4.4-5 0-6.4-2-6.7-2.8 0 0-13.2-1.4-24-8.2-10.7-6.8-10.7-9.4-11.9-10.8-1.2-1.4-.9-3.4-1.2-3.8-.3-.4-3-3.7-2.4-7.1.6-3.1.8-8.2 3.1-8.2m16.2 16.5c2.2 0 3.8-3.7.5-7a1.6 1.6 0 0 0-1.1-.4c-.7 0-1.4.5-1.6 1.4-.2 1.5-.3 5.9 2 6h.2M34 58.5c-2.9 0-3.4 3.8-4 7.2 0 .7-.1 1.4-.3 2-.4 2.4.4 5 2.5 7.9l.1.4a6.3 6.3 0 0 0 1.3 3.6l.5.8C35.2 82 37 85 46 90.6A63 63 0 0 0 69.7 99c.7 1.1 2.6 2.9 7.5 2.9 1.4 0 3-.2 4.6-.4 9.1-1.6 21-13.7 21-13.9l1-.5c1.3-.7 2.9-1.6 3.1-3a6.7 6.7 0 0 1 1.8-3.5c1.1-1.2 2.7-3 3-4 .5-1.1-.3-3.1-1-4-.9-1.2-1.8-1.8-2.7-1.8a2 2 0 0 0-.6 0c-.6.2-1.2.4-1.6 3.8a6.6 6.6 0 0 0-3-.1c-1.2.2-1.9 1.4-2.1 2.6a14.6 14.6 0 0 1-4.2-.7l.6-2c.6-1.2 0-2.4-.8-4.2-.4-.8-1.8-3.4-4-3.4-.4 0-.9.2-1.3.4-2 1.2-1.6 3.7-1.4 5.2.1.6-.3 2-.9 3.4h-1.3c-1.3.2-2.7 1.4-4 2.7l-1.8-1.1c-.9-.7-6.9-1.8-7.5-1.9-.5 0-2.8-1.3-4.9-2.5a3.9 3.9 0 0 0-2.8-.5c-.5-2-.7-2-1-2.2l-.7-.2c-.5 0-.9.2-1.5.5l-.4.2c-.9.4-1.1 1.2-1.7 3.3l-.1.7a5.8 5.8 0 0 1-1.1-.6c-1.5-1-4-3.5-5-5-.9-1.5-2-2.3-2.7-2.8l-.3-.1c-.4-1.6-1.3-2.4-2.8-2.4H49c-2.3.2-3.4 2.8-3.6 4.1-.1.6-.1.6-1 .6H44c-1.6-.1-5.3-3-7.1-4.9-.8-.8-.6-2.7-.5-3.4a1.2 1.2 0 0 0-.6-1.3 3.4 3.4 0 0 0-1.6-.4ZM50.3 75c-.2 0-.3 0-.5-.2-.6-.9-.7-3.1-.5-4.4 0-.2.2-.4.4-.4 0 0 .2 0 .3.2 1.5 1.5 1.7 3 1.4 3.9-.3.6-.7.9-1.1.9Z" class="cls-7"/><path fill="url(#linear-gradient-2)" d="M107.7 72c-.7.1-.9 5.1-.9 5.1l-1.1-1.3c-.2-.2-1.4-.5-2.7-.2-1.3.2-1.3 2.6-1.3 2.6-2.6.1-4.7-.4-5.8-.8s-.2 4-2.2 6c-2 1.9-13.8 1.9-18.8 3.6-5 1.8-16.8-1.7-24.8-6.3S38.6 73 38.7 67a31 31 0 0 1-2.8-2.5C34.4 63 35 60 35 60c-3.2-1.6-3.4 4.4-4 7.9-.8 3.5 2 6.7 2.3 7.1.3.5 0 2.4 1.2 3.8 1.2 1.5 1.1 4 12 10.9 10.7 6.8 23.9 8 23.9 8 .3 1.1 2.5 4 11 2.5 8.6-1.5 20-12.9 20.5-13.5.5-.6 3.5-1.7 3.7-3s.9-3 2.1-4.1c1.2-1.1 2.5-2.8 2.7-3.4.3-.7-.2-2.2-.8-3-.6-.8-1.4-1.4-2-1.3Z"/><path d="M34.1 60.3h.3c-.1 1-.2 3.3 1 4.6 1.4 1.4 5.7 5.3 8.3 5.4h.6c2.4 0 2.6-1.3 2.7-2 .2-.9.8-2.6 2-2.7h.1c.6 0 .8.4 1 1.1l.1.3c.1.3.4.5.9.9.6.4 1.6 1 2.2 2.1 1.1 2 4 4.6 5.5 5.6 1 .7 1.8 1 2.4 1 .6 0 1-.3 1.3-.8l.3-1.3.7-2.1.5-.2.4-.3.6 2.3c0 .2.1.3.3.4a.6.6 0 0 0 .6 0s.5-.4 1.2-.4c.4 0 .8 0 1.1.3a28 28 0 0 0 5.7 2.7c.9.1 6.1 1.2 6.6 1.6 2.4 1.7 3 1.7 3.1 1.7l.5-.2.3-.3c1.5-1.6 2.5-2.4 3.1-2.4l2-.1a.6.6 0 0 0 .5-.3c.2-.4 1.7-3.6 1.4-5.2-.2-1.6-.3-2.8.5-3.3a.7.7 0 0 1 .4-.1c.7 0 1.7 1 2.4 2.3.7 1.5 1 2.2.8 2.5-.4.7-.9 3.1-1 3.6a.6.6 0 0 0 .3.6c.1 0 2.6 1.2 6.2 1.2h.8a.6.6 0 0 0 .5-.6c0-.6.3-1.9.8-2a4.5 4.5 0 0 1 2.2 0l1 1.3a.6.6 0 0 0 .7.2.6.6 0 0 0 .4-.6c.1-1.8.4-4 .6-4.6.2 0 .7.4 1.2 1 .6.8 1 2.1.8 2.5-.2.4-1.4 2-2.6 3.1a8.4 8.4 0 0 0-2.3 4.6c-.1.5-1.5 1.3-2.3 1.8l-1.3.8c0 .1-11.5 11.8-20 13.3-1.6.3-3 .4-4.3.4-5.2 0-6-2.2-6.2-2.4a.6.6 0 0 0-.5-.4s-13.1-1.4-23.7-8c-8.6-5.5-10.1-8.1-11-9.7l-.8-1a4.6 4.6 0 0 1-.8-2.7c0-.5-.1-.8-.3-1.1l-.1-.2c-1.9-2.3-2.6-4.5-2.2-6.5l.3-2c.4-2.4.9-5.6 2.2-5.6m16.1 16.4c1.2 0 2.3-.7 2.8-2 .6-1.5.4-3.8-1.8-6a2.3 2.3 0 0 0-1.6-.6c-1 0-1.9.8-2 2-.2 1-.4 4.2.8 5.7a2.3 2.3 0 0 0 1.7 1h.1m-16-17.2c-2.4 0-2.6 5.1-3.2 8.2-.7 3.5 2.1 6.7 2.4 7.1.3.5 0 2.4 1.2 3.8 1.2 1.5 1.1 4 12 10.9 10.7 6.8 23.9 8 23.9 8 .3 1 1.7 2.9 6.7 2.9 1.2 0 2.7-.1 4.4-.4 8.5-1.5 19.8-12.9 20.4-13.5.5-.6 3.5-1.7 3.7-3 .2-1.2.9-3 2.1-4.1 1.2-1.1 2.5-2.8 2.8-3.4.2-.7-.3-2.2-.9-3-.5-.7-1.2-1.3-1.8-1.3a1 1 0 0 0-.2 0c-.7.2-.9 5.2-.9 5.2l-1.1-1.3c-.2-.1-.8-.3-1.6-.3l-1 .1c-1.3.2-1.4 2.6-1.4 2.6h-.7c-3.5 0-5.9-1.1-5.9-1.1s.6-2.7.9-3.4c.3-.6 0-1.4-.8-3-.6-1.4-1.8-2.7-2.9-2.7-.2 0-.4 0-.7.2-1.3.7-1 2.5-.8 4 .2 1.4-1.3 4.7-1.3 4.7l-2 .1c-1.4.1-3.5 2.7-3.8 2.9-.5 0-2.3-1.2-2.8-1.6-.5-.4-6-1.6-6.9-1.6-.8-.1-3.8-1.8-5.4-2.7-.5-.3-1-.4-1.4-.4-1 0-1.6.5-1.6.5s-.7-2.7-.9-2.8c-.3 0-1.2.5-1.5.6-.4.2-1 3-1.3 3.7 0 .3-.3.4-.6.4-.5 0-1.2-.3-2.1-.9a23 23 0 0 1-5.4-5.4c-1-1.8-2.9-2.5-3-2.9-.2-.4-.2-1.7-1.7-1.7h-.2c-1.6 0-2.3 2.2-2.5 3-.1.8-.2 1.7-2.1 1.7h-.5c-2.4-.2-6.5-3.8-8-5.3-1.4-1.5-.7-4.5-.7-4.5a2.2 2.2 0 0 0-1-.2Zm16 16.5c-2.4-.1-2.3-4.4-2-6 .1-.9.8-1.4 1.5-1.4.4 0 .8.2 1 .5 3.4 3.2 1.8 7-.5 7Z" class="cls-18"/><path d="m96.4 77.6-1.3-.5s.6-2.8.9-3.4c.3-.6 0-1.4-.8-3-.8-1.7-2.3-3.3-3.6-2.6s-1 2.6-.8 4c.2 1.5-1.3 4.8-1.3 4.8l-2 .1C86 77 84 79.6 83.7 80c-.3.2-2.3-1.2-2.8-1.6-.5-.4-6-1.6-7-1.7-.7 0-3.8-1.7-5.4-2.6-1.6-1-3 0-3 0s-.6-2.6-.8-2.8l-1.5.7c-.4.2-1 3-1.3 3.7-.2.7-1.2.5-2.7-.5s-4.3-3.6-5.4-5.4c-1-1.8-2.9-2.5-3-2.9-.2-.4-.2-1.9-1.9-1.8-1.6.2-2.3 2.3-2.5 3.1-.1.9-.3 1.8-2.6 1.7-2.4-.2-6.5-3.8-8-5.3-1.4-1.5-.7-4.5-.7-4.5a2.5 2.5 0 0 0-.7-.2c-2.1 6.2 7 9.8 8 10.5 1.1.7 3.8-.3 3.8-.3s1.6-3.4 2.7-3.6c1.2-.2 1.3 1.8 2 1.9.6 0 3.7 3.4 5.5 5.8 1.7 2.4 5.6 3.5 5.6 3.5l2-2.8c.8-1.2 2.7 1.4 3 1.4.3 0 1.8-.4 3 .7 1.1 1.1 4.8 1 7.6 1.8 2.7.8 5.9 3 5.9 3l3-2.4c1.3-1.2 3.4-.6 3.4-.6s2-4.9 2-6.6c0-1.8.3-4.1 2-2 1.7 2.3-.1 7.4-.1 7.4h2.6Z" class="cls-3"/><path fill="#b7eae8" stroke="#3c7bd6" stroke-linecap="round" stroke-linejoin="round" stroke-width="1.2" d="M97.6 62.4c-1.5-.3-3.6-1.2-3.9-.7-.3.5 2.8 5 3.6 6.1.8 1 3.8 1 4-.8.4-1.8-1.1-4.2-3.7-4.6Z"/><path d="M100.1 66c-.2.4-1 .3-1.6-.2-.7-.5-1-1.2-.8-1.5.2-.3 1-.2 1.6.3.7.4 1 1.1.8 1.4Z" class="cls-3"/><path fill="#703c16" d="M83.7 44.1c.1 1 .3 1.8.7 2.6a7.5 7.5 0 0 0 1.7 2.3c.6.6 1.4-.3.9-.8a6.3 6.3 0 0 1-1.6-2V46l-.1-.3-.2-.6a14 14 0 0 1-.2-1.3c0-.3-.5-.5-.8-.4-.3 0-.5.4-.4.7Zm4.3.3a13.1 13.1 0 0 0 2.8 3c.3.2.7.1.8-.2.2-.3.1-.6-.2-.8h-.1l-.2-.2-.4-.4-.7-.8-.3-.3s0-.2 0 0a.6.6 0 0 0 0-.1l-.2-.2-.4-.6c-.2-.3-.6-.4-.9-.3-.2.2-.4.6-.2.9Zm17.2 11.5a12.5 12.5 0 0 1 2.8 10.4c0 .7 1 1 1.2.3A13.8 13.8 0 0 0 106 55c-.5-.6-1.4.2-.8.8Zm-1.6 6.3c.4.5.7 1.2.8 1.9a3.7 3.7 0 0 1-.2 1.9c-.2.3-.1.6.2.8.2.2.7 0 .8-.2a4.8 4.8 0 0 0-.8-5.2c-.2-.3-.6-.3-.8 0-.3.2-.2.6 0 .8Zm-12-18 .8 1V45v.2l.2.2h.7l.3-.3v-.5l-.9-1 .1.1-.1-.2a.4.4 0 0 0-.2-.1.5.5 0 0 0-.2-.1h-.5c-.2 0-.2.2-.2.4v.4ZM73 57.1c-.6 3 1.8 5.2 4 6.5.7.4 1.3-.7.7-1-1.8-1-4-2.8-3.5-5.1.2-.8-1-1-1.1-.3Z"/><path fill="#a18f70" stroke="#5b2307" stroke-linecap="round" stroke-linejoin="round" stroke-width="1.2" d="M.6 35.8S22.1 44 46.3 42l7.2-7H6.7l-6.2.7Z"/><path fill="#d2001e" stroke="#5b2307" stroke-linecap="round" stroke-linejoin="round" stroke-width="1.2" d="M2.3 36.1s13.6-1.4 24.1-1.6c10.5-.3 19.4-.8 19.4-.8l7 1.5S42 38 33.1 38.5 2.3 36 2.3 36Z"/><path fill="#ceb891" d="M52.2 35c-1.2 0-2.8-.2-4.8-.5A410.3 410.3 0 0 1 1.6 20a.6.6 0 0 1-.4-.7.6.6 0 0 1 .6-.5H2l.3.1c23.6 5.4 42.9 9 43 9a.6.6 0 0 1 .6.5c.3 3 5.2 4.7 8.1 5.2a.6.6 0 0 1 .5.6.6.6 0 0 1-.4.6 6 6 0 0 1-2 .2Z"/><path d="m1.8 19.4.4.1c23.9 5.5 43 9 43 9 .5 4.2 8.2 5.6 8.7 5.7l-1.7.2c-1.2 0-2.8-.2-4.6-.5A405 405 0 0 1 1.8 19.4m0-1.2a1.2 1.2 0 0 0-.4 2.4C2.7 21 33 32.4 47.4 35c2 .3 3.6.5 4.8.5.9 0 1.6 0 2.1-.3a1.2 1.2 0 0 0-.2-2.3c-2.5-.5-7.4-2-7.7-4.7a1.2 1.2 0 0 0-1-1c-.1 0-19.4-3.6-43-9h-.3a1.3 1.3 0 0 0-.3 0Z" class="cls-1"/><path fill="url(#linear-gradient-3)" d="M1 53c-.3-.4-.2-1.6.1-5.4a81 81 0 0 0 .7-10.1v-.3H2a23.4 23.4 0 0 1 3.8-.5c.4 0 1.6 0 1.6.8s-1 3-2.4 5.7l-.7 1.4a42 42 0 0 0-1.2 3.8c-1.3 4.3-1.5 4.7-1.9 4.7h-.1Z"/><path d="M5.8 37c.7 0 1.3.1 1.3.5 0 1-2.3 5.4-3 7-.8 1.5-2.4 8.2-2.9 8.2-.4 0 .5-6.5.6-9.2l.3-6s2.2-.5 3.7-.5m0-.6c-1.6 0-3.8.5-3.9.5h-.4v.5l-.3 6.1-.4 4c-.4 4.5-.4 5.2 0 5.6l.1.2h.3c.7 0 .9-.4 2.2-4.8a40 40 0 0 1 1.2-3.8l.7-1.4c1.4-2.8 2.4-5 2.4-5.8 0-1-1.5-1-2-1Z" class="cls-7"/><path d="M5.8 37.6a4 4 0 0 1 .6 0 39.8 39.8 0 0 1-2.9 6.6l-1.3 4-.3 1 .1-1.6.4-4 .2-5.6c.8-.1 2.1-.3 3.2-.3m0-.7c-1.5 0-3.7.5-3.7.5l-.3 6c-.1 2.7-1 9.2-.6 9.3.5 0 2.1-6.8 2.8-8.3.8-1.6 3.1-6 3-7 0-.3-.5-.5-1.2-.5Z" class="cls-3"/><path fill="url(#linear-gradient-4)" d="M27 63.2a.4.4 0 0 1-.3-.1c-.4-.5-.2-2.7.3-6.7l.2-1.7-.2-1c-.2-.5-.4-1.1-.2-1.6l1-9.9V42h.2l.9-.1c1.6 0 3.7.5 3.8.5l.3.1v.3L31.1 50c-.2 1.2-.7 1.8-1 2.4a3 3 0 0 0-.6 1.3c0 .1-1.3 9.5-2.6 9.5Z"/><path d="M28.9 42.2c1.6 0 3.7.5 3.7.5L31 50c-.4 2-1.4 2.5-1.6 3.7 0 1.2-1.5 9.2-2.3 9.2-.7 0 .5-7.4.5-8.2 0-.8-.7-1.8-.4-2.5.2-.8 1-10 1-10h.8m0-.6h-1l-.4.1v.5l-1 9.8c-.2.6 0 1.2.2 1.8l.2.9-.2 1.6c-.6 5-.7 6.5-.2 7l.5.2c.6 0 1-.3 2-4.6l1-5.2c0-.4.2-.7.4-1.2a7 7 0 0 0 1-2.4l1.8-7.2.1-.6-.5-.1c-.1 0-2.2-.6-4-.6Z" class="cls-7"/><path d="M28.9 42.8c1 0 2.3.2 3 .4l-1.6 6.6a5.8 5.8 0 0 1-.9 2.1c-.3.5-.6 1-.7 1.7 0 1-.7 4.3-1.2 6.6l.4-3.7.2-1.8-.3-1.2-.2-1.2c.2-.7.8-7.3 1-9.5h.3m0-.6H28s-.7 9.2-1 10c-.2.7.5 1.8.5 2.5 0 .8-1.2 8.2-.4 8.2s2.1-8 2.2-9.2c.2-1.2 1.2-1.7 1.6-3.7l1.7-7.3s-2-.5-3.7-.5Z" class="cls-3"/><path d="M29.4 47c0 .7-.5 1.3-.9 1.2-.4 0-.7-.6-.6-1.4 0-.7.5-1.2.9-1.2s.7.7.6 1.4Z" class="cls-3"/><path fill="url(#linear-gradient-5)" d="M13.4 61a.6.6 0 0 1-.4-.2c-.3-.3-.4-1 0-3.8.5-2.3.7-4.6.8-5.2-.5-.5-.4-1.8 0-3.7l.7-7.4v-.3h.3c2.2 0 7.5.3 8 1.3v.5c-.3.6-1.1 3.5-1.9 6-1.6 5.6-1.7 5.6-2 5.6-.6 0-.6-.8-.3-3l.1-.6v-4.1a39.5 39.5 0 0 0-1 3.8c-.2 1.4-1.5 3.9-1.6 4.1l-.8 2.5c-1.2 4.1-1.4 4.6-1.8 4.6Z"/><path d="M14.8 40.7s8.5.3 7.8 1.4c-.7 1-3.4 11.4-3.8 11.4-.3 0 0-2.4.2-3.3v-6s-1.5 4.6-1.6 5.7c-.2 1.1-1.2 3.2-1.6 4-.4.8-1.9 6.9-2.4 6.9-.4 0-.5-1 0-3.7.5-2.8.7-5.4.7-5.4-.5-.4-.3-1.9 0-3.6l.6-7.4m-.5-.6v.5c0 .1-.5 5.7-.8 7.4-.3 2-.4 3.2 0 3.9a53.3 53.3 0 0 1-.6 5c-.5 2.8-.4 3.7 0 4.1.1.2.3.4.6.4.7 0 1-.6 2.2-4.8l.7-2.4c.2-.3 1.5-2.9 1.7-4.2l.4-2v2.2l-.1.5c-.3 2.2-.4 3.2.4 3.4h.1c.6 0 .7 0 2.4-5.8.7-2.4 1.6-5.4 1.9-5.9a.8.8 0 0 0 0-.8c-.4-.9-3.2-1.4-8.3-1.5h-.6Z" class="cls-7"/><path d="M15.3 41.3c1.4 0 2.8.2 4 .3l-.8 2.4c-.1.2-1.6 4.6-1.7 5.8-.2 1-1 3-1.5 3.8a22 22 0 0 0-.9 2.7l-.6 2.2c0-.4 0-.8.2-1.3.5-2.8.7-5.4.7-5.5v-.3l-.3-.2c0-.2-.1-.8.2-3 .3-1.4.6-5.4.7-6.9m4.3.4c1 0 1.9.2 2.3.4-.4.9-1 2.9-1.9 5.9l-.4 1.3v-7.7m-4.8-1s-.5 5.8-.7 7.5c-.3 1.7-.5 3.2 0 3.5 0 0-.2 2.7-.7 5.5-.5 2.7-.4 3.6 0 3.7.5 0 2-6.1 2.4-6.9.4-.8 1.4-2.9 1.6-4a70.3 70.3 0 0 1 1.7-5.7s0 5.1 0 6c-.2 1-.6 3.2-.2 3.3.3 0 3-10.3 3.7-11.4.7-1.2-7.8-1.4-7.8-1.4Z" class="cls-3"/><path d="M16.3 46.2c-.2 1-.7 1.8-1.2 1.7-.4 0-.6-1-.4-2 .2-1 .8-1.8 1.2-1.7.5.1.6 1 .4 2Zm37.6-12c-1.1.4-3.4.2-6.3-.3-1.8-1-3.6-2.4-4.3-4.3 0 0-30.3-6.4-41.1-10 23.9 5.4 43 8.9 43 8.9.5 4.2 8.2 5.6 8.7 5.7Z" class="cls-3"/><path d="M27 68.3s-1 5.6 2.8 10m-6.8-13S21 75 28.5 83.3m82-34.9s5 5.1 5 9.6m-4.1-12.3s8 4.8 7.3 13.5m-74 79.8s-3.4-7.3-8.4-11.6c0 0 10.4 2.1 14.4 5.9 0 0 4.5-10.3 11.5-13.8 0 0-.7 10.8.8 15.8 0 0 4.7-5 9-6.8 0 0-2 7.8-2 12" class="cls-11"/><path d="M48.2 125.7s.3-19.8-3.8-29.5m10 23.7s-.7-14.2 1.8-19m8.8 22.5c0-1 0-12.5 8-19" class="cls-11"/><path d="m10.8 91.7 6-2.9 5.5 11.2-6 2.9z" class="cls-6"/><path fill="#00fff2" d="m104.9 27.8 5.3-4 7.5 9.9-5.3 4z"/><path d="M.2 69.2 8.4 60l5 4.4-8.2 9.3z" class="cls-17"/><path d="m85.3 41 3 6L77 52.3l-3-6z" class="cls-6"/><path fill="#ff3b3e" d="m116.7 71.6 4.3 5-9.6 8-4.2-5z"/><path d="M18 5.4 21.8 0 32 7.2l-4 5.4z" class="cls-17"/><path fill="#fff800" d="M63.3 6.6 74.4 1l3 6-11.1 5.6z"/><path fill="red" d="m95 10.3 2.6-6.1L109 9l-2.7 6.1z"/></g></svg>