<svg xmlns="http://www.w3.org/2000/svg" height="80px" xmlns:xlink="http://www.w3.org/1999/xlink" id="Layer_2" data-name="Layer 2" viewBox="0 0 311.2 223.3"><defs><linearGradient id="linear-gradient" x1="131.4" x2="131.4" y1="-566.6" y2="-551.1" gradientTransform="rotate(-61 635.7 -196.2)" gradientUnits="userSpaceOnUse"><stop offset="0" stop-color="#dbffff"/><stop offset="1" stop-color="#339ed3"/></linearGradient><linearGradient xlink:href="#linear-gradient" id="linear-gradient-2" x1="136.3" x2="136.3" y1="-417.9" y2="-472.5"/><linearGradient id="linear-gradient-3" x1="-97.7" x2="-97.7" y1="-610.7" y2="-645.1" gradientTransform="rotate(-58 744.8 -379.3)" gradientUnits="userSpaceOnUse"><stop offset="0" stop-color="#dbffff"/><stop offset="1" stop-color="#1376a6"/></linearGradient><linearGradient xlink:href="#linear-gradient-3" id="linear-gradient-4" x1="23" x2="23" y1="-593.5" y2="-627.6" gradientTransform="rotate(-64 684.6 -292.5)"/><linearGradient xlink:href="#linear-gradient-3" id="linear-gradient-5" x1="-73.6" x2="-73.6" y1="-607.1" y2="-641.3" gradientTransform="rotate(-58 743.8 -378.3)"/><style>.cls-1{fill:#5b2307}.cls-3{fill:#fff}.cls-10,.cls-6,.cls-8{stroke-linecap:round;stroke-linejoin:round;stroke:#5b2307}.cls-8{stroke-width:1.9591px}.cls-12{fill:#bfbfbf}.cls-13{fill:#3c7bd6}.cls-6,.cls-8{fill:none}.cls-10,.cls-6{stroke-width:2.0212px}.cls-14{fill:#a87d4e}.cls-16{fill:#b7eae8}.cls-20{fill:#703c16}.cls-10,.cls-21{fill:#cca171}</style></defs><g id="Layer_1-2" data-name="Layer 1"><path d="M288.8 110.2s-21-13-39.6-15l1.1-5.7s34.9 7 45.1 23.5" class="cls-10"/><path d="M84 157.8a1 1 0 0 1-.3 0l-65.1-25.3a1 1 0 0 1-.6-1c0-.9 2.6-19.8 17.8-23.8 13.2-3.4 123-12.8 179.4-12.8 5.1 0 9.6 0 13.4.2 63.9 2.8 73.3 23 73.7 24 .1.3 0 .7-.2 1l-33.9 39a1 1 0 0 1-.7.4L84 157.8Z" class="cls-21"/><path d="M215.2 95.9c5 0 9.5 0 13.4.2 64 2.8 72.7 23.3 72.7 23.3l-33.8 39L84 156.9l-65-25.3s2.3-19 17-22.8c13.6-3.6 125-12.8 179.2-12.8m0-2c-53.2 0-165 9-179.6 12.8-16 4.2-18.5 23.8-18.7 24.6a2 2 0 0 0 1.3 2.1l65 25.3.8.2 183.4 1.6a2 2 0 0 0 1.6-.7l33.9-39a2 2 0 0 0 .3-2.2c-.4-.9-10-21.7-74.5-24.5-3.8-.2-8.4-.2-13.5-.2Z" class="cls-1"/><path d="M278.6 123.1s8.7-14.4-16.3-13.8c-25 .7-99.7-2.6-99.7-2.6s-122.2 5.2-128 9.2c-5.7 4-7.3 7.6-7.5 12.3-.3 4.6 77.1 11.2 77.1 11.2l135 6 26.4-2.6" class="cls-14"/><path d="M258.3 107.4s14.9.5 21 5.4" class="cls-6"/><path d="M64.4 166.2c-7.8 0-12.1-.2-13.8-.6-2.2-.5-3.6-1.5-4.2-3-.6-1.6 0-3.4.4-4.5-1.9-1.4-3.5-3-5-4.9-12.1-15-8-39-7.4-42.6-1.2-1.8-4.6-7.4-3.2-10.4.8-1.7 2.9-2 4.4-2 1.7 0 3.8.4 6 .7l5.7.7h1.1c7.7 0 34.6-8.8 34.8-8.8a1 1 0 0 1 .5 0c25.2 3 50.8 29.2 51.9 30.3l.3.6c0 1.3 2 30.8-7.1 40.5a9 9 0 0 1-6.8 3h-1c-5.5 0-14.3.3-23.7.5-11 .2-23.7.5-33 .5Z" class="cls-3"/><path d="M83.5 91.7c25.2 3.1 51.4 30 51.4 30s2.9 42.6-12.9 42.6h-1c-12 0-39.6 1-56.6 1-6.8 0-11.9-.2-13.6-.6-6.2-1.5-2.8-6.8-2.8-6.8-2-1.6-3.9-3.3-5.4-5.3-12.7-15.7-7.1-42.2-7.1-42.2s-4.8-6.9-3.4-9.8c.5-1 1.7-1.3 3.5-1.3 3 0 7.3 1 11.6 1.3a15 15 0 0 0 1.2 0c8 0 35.1-9 35.1-9m0-1.9a2 2 0 0 0-.6.1c-.2.1-27 8.9-34.5 8.9h-1l-5.7-.8c-2.2-.3-4.4-.6-6.1-.6-1 0-4.1 0-5.3 2.5-1.5 3.3 1.5 8.6 3 11-.8 4.8-4.3 28.1 7.7 43 1.4 1.8 3 3.3 4.6 4.7a6.4 6.4 0 0 0 0 4.5c.4 1.2 1.7 2.9 4.8 3.6 1 .2 3.7.6 14 .6 9.2 0 21.8-.3 33-.5l23.6-.4h1a10 10 0 0 0 7.5-3.4c9.3-10 7.4-40 7.3-41.3a2 2 0 0 0-.5-1.2c-1.1-1.1-27-27.5-52.5-30.7h-.3Z" class="cls-1"/><path d="M122 164.3c-15.8 0-65 1.8-71.2.4-6.2-1.5-2.8-6.8-2.8-6.8-2-1.6-3.9-3.3-5.4-5.3a121 121 0 0 1-4.5-20.3c-1.6-13-.3-21-.3-21s4.9 11.5 6.2 16.2c1.4 4.8 9.3 21.7 14.8 22.7s23.4-1.6 24.2-3.9c.8-2.3-5.4-6.4-12-10.7-6.6-4.2-19.6-8.4-17.2-11 2.4-2.7 14.9-6.6 14.9-6.6s-14.8-7.4-20.2-15.4l-1.3-2h.6c7.2.5 35.7-9 35.7-9 25.2 3.2 51.4 30.2 51.4 30.2s2.9 42.6-13 42.5Z" class="cls-12"/><path d="M37.8 111.3a86.3 86.3 0 0 1 8.2 19.9l1.2 5.2.4 2.7.4 2.7c.5 3.5.6 7.1.4 10.7-.5-3.5-1-7-1.7-10.5s-1.5-7-2.4-10.4c-1.8-6.8-4-13.6-6.5-20.3Z" class="cls-1"/><path d="M167 164.7a19 19 0 0 1-8-1.8 1 1 0 0 1-.5-1.2c4.8-13.7 24.1-21.8 25-22.2a1 1 0 0 1 1.3.8c0 .6 1.4 13.3-7 20.4-3.2 2.7-6.8 4-10.8 4Z" class="cls-16"/><path d="M183.8 140.5s1.5 12.6-6.7 19.5c-3.4 2.9-7 3.7-10.1 3.7-4.4 0-7.6-1.7-7.6-1.7 4.7-13.5 24.4-21.5 24.4-21.5m0-2a2 2 0 0 0-.7.1c-.9.4-20.6 8.6-25.5 22.8-.4.9 0 2 1 2.4 0 0 3.6 1.9 8.4 1.9 4.2 0 8-1.4 11.4-4.2 8.9-7.5 7.4-20.7 7.3-21.3a2 2 0 0 0-1.9-1.7Z" class="cls-13"/><path d="M139.3 167.3c-3.8 0-7.4-.6-10.3-1.8a44.4 44.4 0 0 1-13.3-8.8c.2 1 .2 2.4-.4 3.3a2 2 0 0 1-1.6.8c-.7 0-1.7-.4-2.8-1.1a21 21 0 0 1-6.4-8.8v.1c0 2.2 0 4.4-2 4.4-.4 0-1-.2-1.6-.6-3-1.8-3.7-7.3-3.9-9.4A65.8 65.8 0 0 1 72 133a47.2 47.2 0 0 1-15.8-28.6c-1 1.3-2.4 2.2-3.6 2.2a2 2 0 0 1-1.4-.6c-.7-.7-.9-1.8-.7-3.5.3-1.7 1-3.7 1.7-5.6-1 .8-2 1.4-2.8 1.4-.4 0-1.8-.2-1.8-2.3-.2-3.5 3.4-7.2 6.2-9.4-.8 0-2-.2-2.4-1-.2-.2-.5-.7-.2-1.5.8-2 5.2-3.4 7-4a49.2 49.2 0 0 1 45.5-28.8c3.4 0 7 .3 10.6.9 1.6.2 3.2.4 4.8.4 8.4 0 15.6-4 23.2-8.3a48.8 48.8 0 0 1 22.6-5.6c.8.1 1 .8 1.1 1 0 .2.1.6-.3 1.2 5 .2 10.5 2.8 11.4 3.3.5.2.7.7.7 1.2 0 .2 0 .5-.5 1 5.2 1.2 10.7 5 11.2 6.7.4 1.4 5.3 9.5 6 10.2 1.5 1.2 17 39.7-4.8 71.2-21 30.5-43.9 32.8-50.3 32.8Z" style="fill:#a36731"/><path d="M163.7 39.6h1c1.3.3-1.8 2.5-1.8 2.5.7-.2 1.4-.2 2.1-.2a30 30 0 0 1 11.6 3.1c1 .6-2.3 2.1-2.3 2.1 5.7 0 12.7 4.7 13.1 6.3.5 1.5 5.6 10 6.4 10.6.8.7 16.5 38.8-5 70-16.8 24.2-36.1 32.4-49.5 32.4-3.9 0-7.2-.7-9.9-1.8a42.7 42.7 0 0 1-18.1-14.5c.9 3.2 3.2 5.7 3.2 5.7s1.2 4-.8 4c-.5 0-1.2-.3-2.2-1-5-3.2-7.6-12.2-7.6-12.2-.9 3.3.3 7.8-1.3 7.8-.3 0-.7-.1-1.1-.4-3.2-2-3.6-9.4-3.6-9.4s-11.6-1.9-25.4-12.4C58.7 121.7 56.7 102 56.7 102c-1.4 2.3-3 3.8-4.2 3.8-.8 0-1.3-1-1-3C52 97.9 56.2 91 56.2 91s-5 6.3-7 6.3c-.5 0-.8-.4-.9-1.4-.2-5 8.9-10.7 8.9-10.7s-2 .4-3.5.4c-1.2 0-2-.2-1.8-1.1.8-2 6.8-3.5 6.8-3.5a48.2 48.2 0 0 1 44.8-28.8c4.2 0 7.8.5 10.5 1 1.7.2 3.3.4 4.9.4 8.6 0 15.6-4 23.6-8.4a47.7 47.7 0 0 1 21-5.6m0-2c-4.3 0-13.8 1.3-22 5.9-7.7 4.3-14.4 8-22.6 8-1.5 0-3 0-4.6-.3-3.8-.6-7.3-1-10.8-1a50 50 0 0 0-46 29.1c-2.5.7-6.5 2.1-7.4 4.5a2.6 2.6 0 0 0 1.3 3.3c-2.5 2.4-5.2 5.7-5 9 0 2.3 1.6 3.2 2.8 3.2.3 0 .6 0 1-.2-.4 1.2-.7 2.3-.8 3.3-.3 2 0 3.3.8 4.2a3 3 0 0 0 2.2 1c1.1 0 2.1-.5 3-1.2a47.2 47.2 0 0 0 15.8 27.4 68.2 68.2 0 0 0 24.8 12.4c.3 2.6 1.3 7.6 4.3 9.5a4 4 0 0 0 2.2.7c1.5 0 2.2-.9 2.5-2 1.4 2.3 3.1 4.6 5.3 6 1.3 1 2.3 1.4 3.3 1.4s1.8-.5 2.4-1.2c.3-.5.5-1 .6-1.6 3 2.6 7 5.3 12 7.4 3 1.2 6.6 2 10.6 2 17.6 0 36.7-12.5 51-33.3a71.2 71.2 0 0 0 11.3-47.7 65.3 65.3 0 0 0-6.6-24.9l.2.1c-.9-.9-5.5-8.5-5.9-9.8-.6-2.2-5.7-5.5-10.6-7v-.4c0-.9-.4-1.6-1.2-2-1-.7-5.9-2.9-10.6-3.4v-.6c-.2-.7-.8-1.5-2-1.7h-1.2Z" class="cls-1"/><path d="M193.8 64c-.8-.6-6-9-6.4-10.6-.4-1.6-7.5-6.3-13.1-6.3 0 0 3.3-1.5 2.3-2-1-.6-8.6-4.1-13.7-3 0 0 3-2.2 1.7-2.4-1.4-.2-12.4.1-22 5.5a82.4 82.4 0 0 1-14 6.7s18.2-4.5 29.2 2.3c11 7 3.8 9.7 3.8 9.7l-10.3 6.5s10.3 1.6 10.4 8.2c0 6.6-3.6 6.4-3.6 6.4s6.4 1.4 4.2 8.6c-2.1 7.2-11.5 24-17 30.6-5.6 6.6-14.3 14.7-20.2 12.6-6-2-7.4-1.5-7.4-1.5s5.7 12.7.5 10.9c-5.2-1.8-8-5.2-8-5.2s.5 8.2-1.7 6.2c-2.2-2.1-4.3-5.1-4.3-5.1s-2.6 1.9-6.2 2.9c0 1.6.7 7.3 3.5 9 3.2 2 1.4-3.5 2.4-7.4 0 0 2.7 9 7.6 12.3 4.9 3.2 3-3 3-3s-2.3-2.6-3.2-5.8c0 0 6 9.4 18.1 14.5 12.1 5 37.8.5 59.4-30.6 21.5-31.2 5.8-69.3 5-70Z" style="fill:#8e5424"/><path d="M180.2 77c-10.5 14.1-38 36.8-50.5 25.1-12.5-11.7-2-20.8-17.6-35-15.7-14-36.8-1.6-43 13.9-6.1 15.4 4 30.4 4.7 31.5.6 1.2-3.3 8.1-5.3 10.5-2 2.4-4.5-.4-4.6-.6 2.1 3.6 5 7 8.6 9.8 13.8 10.5 25.4 12.4 25.4 12.4s.4 7.4 3.6 9.4 1.4-3.5 2.4-7.4c0 0 2.7 9 7.6 12.3 4.9 3.2 3-3 3-3s-2.3-2.6-3.2-5.8c0 0 6 9.4 18.1 14.5 12.1 5 37.8.5 59.4-30.6 18-26.2 9.9-57.2 6.3-66.9-5 .7-10.5 4-14.9 10Z" style="fill:#bd852d"/><path d="M191 130.4a68.5 68.5 0 0 0 4-7.7l.3-.9 1-2.5v-.3l1-2.8c0-.3 0-.6.2-.8l.5-2 .2-1 .4-2 .2-.9.4-2 .1-.7.3-2.5v-.3l.3-2.7v-.6l.1-2.1v-.8a77 77 0 0 0 0-4.5v-.8l-.1-2V90l-.2-2.5v-.4l-.3-2v-.6a97 97 0 0 0-.7-3.7V80l-.4-1.4V78l-.5-1.9-.1-.5-.3-1.2-.2-.8a120 120 0 0 0-.7-2.4l-.2-.8-.2-.5-.2-.8V69l-.8-1.9c-5 .7-10.5 4-14.9 10A95.9 95.9 0 0 1 162 95c-2.9 7.8-11.5 23-16.7 29.1-5.5 6.6-14.2 14.7-20.1 12.6-6-2-7.4-1.5-7.4-1.5s5.7 12.7.5 10.9c-5.2-1.8-8-5.2-8-5.2s.5 8.2-1.7 6.2c-2.2-2.1-4.3-5.1-4.3-5.1s-2.6 1.9-6.2 2.9v.5a26.6 26.6 0 0 0 .1.8v.2l.1.4v.3l.1.4v.3l.2.5v.2l.2.6v.2l.5 1.5v.2c.2.1.2.3.3.5l.1.2a8 8 0 0 0 .7 1l.1.3.4.3.1.2.6.4c3.2 2 1.4-3.5 2.4-7.4 0 0 2.7 9 7.6 12.3 4.9 3.2 3-3 3-3s-2.3-2.6-3.2-5.8c0 0 6 9.4 18.1 14.5 12.1 5 37.8.5 59.4-30.6l1.7-2.8.6-.8Z" style="fill:#91682c"/><path d="M63 82.4c-1 0-2-.5-2.7-1.3-.8-.7-1.2-1.7-1.2-2.4.3-5.3 5.3-11.2 6.9-12.3.6-.4 2.1-2.4 3.3-4.1 1-1.5 2.1-3 3-4 2.1-2.3 6.8-3.6 9.4-4.3l1.2-.3c1-.3 2-.6 2.8-.6 1.6 0 1.9 1.1 2 1.5.3 2-2.4 4-3.7 4.6-.6.2-1.8 2-2.8 3.6 1.3.7 2.6 1.8 3 3.2.2 1 0 1.9-.6 2.6-1.2 1.4-3.2 1.5-5 1.5h-2l-.5.1c-1.5.2-3.3.3-5 2.2-1 1-1.8 2.7-2.7 4.3-1.2 2.3-2.3 4.4-3.8 5.2-.5.3-1 .5-1.6.5Z" style="fill:url(#linear-gradient)"/><path d="M85.7 54c.6 0 1 .2 1 .7.2 1.3-1.8 3-3.1 3.6-1.4.6-3.7 5-3.7 5 2.2.8 4.4 3 3 4.7-1 1-2.7 1.2-4.3 1.2h-2.1c-1.7.2-4 .2-6.2 2.6s-4 8.1-6.2 9.3l-1.1.3c-1.7 0-3-1.9-2.9-2.7.2-5 5-10.6 6.4-11.4 1.4-1 4.5-6 6.5-8.3 2-2.3 7.2-3.6 9.3-4.2 1.3-.3 2.6-.7 3.4-.7m0-2c-1 0-2 .3-3.1.6l-.8.2-.4.2c-2.6.7-7.5 2-9.8 4.6-1 1-2 2.6-3 4l-3.1 4c-1.8 1-7 7.3-7.3 13-.1 1.1.6 2.3 1.4 3 1 1.1 2.1 1.7 3.4 1.7.7 0 1.4-.2 2-.6 1.8-1 3-3.2 4.3-5.7.8-1.5 1.7-3.1 2.5-4 1.5-1.6 3-1.8 4.4-2H78.6c1.4 0 4 0 5.7-1.9.9-1 1.2-2.2.8-3.5a6 6 0 0 0-2.5-3.2c.7-1.2 1.5-2.2 1.8-2.5 1.3-.6 4.6-2.8 4.2-5.6-.1-1-1-2.3-2.9-2.3Z" class="cls-13"/><path d="M64.4 71.8c3.1-3 5.5-4.9 6.8-7.3 1.2-2.4 14.2-11 15.4-9 0-.3.1-.5 0-.8-.1-1.2-2.1-.5-4.3.1-2 .6-7.2 2-9.3 4.2-2 2.3-5.1 7.4-6.5 8.3-1.4.8-6.2 6.5-6.4 11.4 0 .4.3 1 .7 1.5 0-1.2.8-5.7 3.6-8.4Z" class="cls-3"/><path d="M136.5 170.2a12 12 0 0 1-6.2-1.5l-2.8-1.5c-4-2.2-8.2-4.4-8.6-7.3-.1-1.2.3-2.3 1.4-3.3a1 1 0 0 1 1.2-.1s2.5 1.5 4.8 1.5c.6 0 1.1-.1 1.6-.3 3.1-1.5 10.4-5.7 11.8-8.8 1.2-2.7.5-3-.6-3.7-1.4-.7-4.7-3.4-3.8-6.6.3-1.2 1.2-2.6 3.4-2.6h1.1l.7-.5c1.1-.8 2.9-2 5.3-2.5 3-.6 8.3-3.3 10.8-5 2.2-1.7 2.2-2.4 2.2-2.5l-1.6-1.1c-3-2-3.8-2.7-3.8-3.5v-.9c-.3-1.2-.4-2.1.2-2.6.3-.3.8-.4 1.2-.4l3 .3c0-1.2.4-3 2-4.3 3.4-2.8 6.5-5.7 6.8-6.5a66 66 0 0 1 6.6-10.1c1.8-1.2 3-2.2 3.4-2.6v-.2c-1.4-2.6-2.7-5.5-2-7.4l.7-2.6a17.8 17.8 0 0 0-5.7-4c-2.5-.4-5.8-1-6.4-4.1-.2-1 0-1.8.6-2.6 1.5-2 5-2.6 6-2.7l3.1-.2c1 0 2 .1 2.9 1l3.7 2.6c1-1.1 3-3.8 4.3-7.8-1.3-.6-3.4-2-3-4 .3-2.3 1.4-4.3 2.3-4.7l.4-.2c-5.9-2.6-5.8-3.6-5.8-4.2 0-1 .7-2.3 3.7-3.2.7-.3 1.6-.4 2.6-.4.8 0 2.4.1 3.3.9 1.2.9 3 4 4 6.4 1 2.3 3.3 4.1 4.9 5 1.6 1 2 3.7 2.5 5.9 0 .7.2 1.6.4 1.8.1.3 12 24.7 9.5 39.2-2.4 14-8 16-10 16.4a103.1 103.1 0 0 1-25.5 32c-13.3 10.5-18.5 11.5-21.6 12.1l-1.7.4c-.8.3-1.6.5-2.5.5-1.2 0-2.3-.3-3.1-.5l-1-.2h-.2c-1 .4-3.5 1.2-6.5 1.2Zm11.9-32c-1.4 0-2.8.3-4.2 1-.6.3-1 .9-1 1.4 0 .6.4 1.1 1 1.5 1.3.7 4.2 1.9 6.4 1.9 2 0 2.3-1 2.4-1.2.4-.8.3-1.8-.3-2.6-.8-1.3-2.5-2-4.3-2Z" class="cls-16"/><path d="M184 50.1c1.1 0 2.2.2 2.7.6a22 22 0 0 1 3.7 6c1.1 2.5 3.5 4.6 5.3 5.6 1.8 1 1.9 6.1 2.5 7.3.6 1.2 12 24.6 9.5 38.5-2.5 13.8-7.8 15.6-9.7 15.6 0 0-9.2 19.4-25.5 32.2-16.2 12.8-20.2 11.3-23 12.4-.8.3-1.5.4-2.2.4-1.8 0-3.3-.7-4-.7h-.3c-.5.2-3.3 1.3-6.5 1.3-1.9 0-3.9-.4-5.7-1.5-5-2.9-14-6.4-9.8-10.5 0 0 2.7 1.7 5.3 1.7.7 0 1.3-.1 2-.4 3-1.4 10.8-5.8 12.3-9.3 1.5-3.5.1-4.3-1-5-1.2-.6-4.1-2.9-3.4-5.4.5-1.7 1.6-2 2.5-2l1.2.1c.7 0 2.7-2.4 6-3 3.4-.7 8.9-3.5 11.3-5.3 2.4-1.8 3.1-3.1 2.2-4-1-.8-5-3.1-5-3.9 0-.7-.4-2.4-.1-2.7h.5l4.2.3s-.8-2.8 1.5-4.7c2.3-1.9 6.5-5.6 7-6.8a70 70 0 0 1 6.3-9.7c1-.6 4.1-2.9 4-3.4-.3-.6-3-5.2-2.4-7.3l1-3.2s-4.3-4.2-6.6-4.6c-2.3-.4-5.2-1-5.6-3.4-.5-2.4 2.8-3.8 5.8-4.1l3-.2c1 0 1.6.1 2 .6.8.9 4.7 3.2 4.7 3.2s3.5-3.4 5.3-9.5c0 0-3.6-1.3-3.3-3.4.3-2 1.4-3.7 1.8-4l2.6-1s-7.5-3-7.4-4.1c0-1.1 1.5-1.9 3-2.4.6-.2 1.5-.3 2.3-.3m-33.4 94.8c1.5 0 2.8-.4 3.3-1.7 1.2-2.7-1.3-6-5.5-6-1.4 0-3 .3-4.7 1.2-1.8.9-2 3.4 0 4.6 1.4.7 4.4 2 6.9 2M184 48c-1 0-2 .2-2.9.4-3.5 1.2-4.3 3-4.4 4.2 0 1 0 2 5 4.4-1 1.1-1.7 3-2 4.5-.2 2 1.2 3.7 3 4.7a24 24 0 0 1-3.4 6l-2.8-2c-1-1.1-2.5-1.3-3.6-1.3l-3.1.2c-1.2.2-5 .7-6.8 3.1-.7 1-1 2.2-.8 3.4.7 3.7 4.8 4.4 7.2 4.9 1 .2 3 1.7 4.7 3.3 0 .5-.3 1.2-.5 2-.7 2.1.4 4.9 1.8 7.6-.6.5-1.5 1.3-2.7 2-1.5 1.1-6.5 9.7-7 10.6-.4.7-3.5 3.7-6.5 6.1a6.3 6.3 0 0 0-2.2 4 27 27 0 0 0-2.2-.1c-.6 0-1.3 0-1.9.6-1 .8-.7 2-.5 3.5v.7c0 1.4 1.3 2.3 4.2 4.3l1 .6-1.6 1.3a35.1 35.1 0 0 1-10.4 5 14.3 14.3 0 0 0-6 3l-.9-.1a4.3 4.3 0 0 0-4.4 3.3c-1 3.7 2.4 6.7 4.3 7.8l.7.5s.2.4-.5 2c-1 2.4-7.4 6.4-11.3 8.2l-1.2.2c-1.7 0-3.7-1-4.3-1.4a2 2 0 0 0-2.4.3c-1.6 1.5-1.8 3.1-1.6 4.1.4 3.4 4.8 5.8 9 8l2.8 1.5a13 13 0 0 0 6.7 1.7c3.1 0 5.8-.9 6.8-1.2l.7.2c.8.2 2 .5 3.3.5 1 0 2-.2 2.9-.6l1.5-.3c3.1-.6 8.5-1.7 22-12.3a102.1 102.1 0 0 0 25.5-32c2.8-.6 8-3.5 10.4-17 2.6-14.9-9.5-39.6-9.7-39.8l-.3-1.6c-.4-2.4-1-5.4-3-6.5-1.6-1-3.5-2.7-4.4-4.6a23 23 0 0 0-4.2-6.8c-1.1-.9-2.8-1-4-1ZM150.6 143c-2 0-4.6-1-5.9-1.8-.2 0-.5-.3-.5-.5s.1-.4.4-.6c1.3-.6 2.6-1 3.8-1 1.5 0 2.8.6 3.5 1.7.2.3.5 1 .2 1.6 0 .1-.2.6-1.5.6Z" class="cls-13"/><path d="M178.7 52.8c0 1 7.4 4.1 7.4 4.1l-2.6 1c-.4.3-1.5 2-1.8 4-.3 2 3.3 3.4 3.3 3.4-1.2 4.1-3.2 7-4.4 8.5s6 2.4 8 6.6c1.8 4.2-4.6 22.1-4.6 30.7 0 8.6-11.9 24.8-23.2 34.5-11.4 9.8-18 13.5-27.2 10-2 1.3-4 2.4-5.3 3-3 1.4-7.3-1.3-7.3-1.3-4.3 4 4.8 7.6 9.8 10.5 5 3 11.4.5 12.2.3.9-.3 3.6 1.3 6.5.2 2.8-1 6.8.4 23-12.4a101.6 101.6 0 0 0 25.5-32.2c1.8 0 7.2-1.7 9.7-15.6 2.4-14-8.9-37.3-9.5-38.5-.6-1.2-.7-6.3-2.5-7.3s-4.2-3-5.3-5.5a22 22 0 0 0-3.7-6c-.8-.8-3.5-.9-5-.4s-3 1.3-3 2.4Z" style="fill:url(#linear-gradient-2)"/><path d="M184 51c1.2 0 2 .3 2 .5.7.5 2.4 3.1 3.5 5.7 1.2 2.7 3.7 4.8 5.7 6 .8.4 1.3 3 1.5 4.4l.6 2.4c.2.3 11.9 24 9.4 38-2.5 14.3-8 14.7-8.7 14.7a1 1 0 0 0-1 .6c0 .2-9.2 19.4-25 31.9-13 10.2-18 11.1-20.9 11.7l-2 .5c-.5.2-1.1.3-1.8.3-1 0-1.9-.2-2.6-.4l-1.5-.2h-.4l-.4.1c-.9.3-3.2 1-5.9 1-2 0-3.7-.4-5.2-1.2l-2.9-1.6c-3-1.6-7.3-3.9-7.5-5.8 0-.1 0-.5.3-1 1 .5 3 1.3 5 1.3 1 0 1.8-.1 2.5-.4 2.8-1.3 11-5.9 12.8-9.8 1.7-4 .2-5.3-1.5-6.2-1-.6-3.4-2.6-2.9-4.4.3-1 .9-1.2 1.6-1.2h.7a5.6 5.6 0 0 0 .5 0c.6 0 1-.3 1.8-.8 1-.7 2.5-1.8 4.5-2.2 3.5-.7 9.2-3.7 11.5-5.4 2-1.5 3-2.7 3-3.9a2 2 0 0 0-.7-1.6l-1.7-1.3c-1-.6-2.5-1.6-3-2.1v-.9l-.1-.7a60.2 60.2 0 0 1 3.8.4 1 1 0 0 0 1-1.3c0-.1-.7-2.2 1.1-3.6.3-.2 6.5-5.4 7.3-7.2.6-1.3 5.2-8.6 6-9.3 4.7-3.3 4.5-4 4.3-4.6l-.4-.7c-1.5-3-2.2-5-2-6l1-3.1c0-.4 0-.7-.3-1-.4-.4-4.5-4.4-7-4.9-2.6-.5-4.6-1-4.9-2.6 0-.4 0-.7.3-1 .6-1 2.5-1.7 4.7-2l2.8-.2c1 0 1.2.2 1.4.4a35.2 35.2 0 0 0 5.4 3.5c.3 0 .5-.1.7-.3.1-.1 3.6-3.6 5.6-10a1 1 0 0 0-.6-1.1c-1-.3-2.8-1.4-2.7-2.3a7 7 0 0 1 1.3-3.3l2.5-1a1 1 0 0 0 0-1.8c-2.8-1.1-6-2.7-6.8-3.4.2-.3 1-.8 2.3-1.3l2-.2m-33.4 94.8c2.7 0 3.8-1.3 4.2-2.4.6-1.4.5-3-.4-4.4a7 7 0 0 0-6-2.9c-1.7 0-3.4.4-5.1 1.3-1.2.6-2 1.8-2 3 0 1.4.7 2.6 2 3.3 1.3.7 4.5 2.1 7.3 2.1M184 50.1c-.8 0-1.7.1-2.3.3-1.5.5-3 1.3-3 2.4 0 1 7.4 4.1 7.4 4.1l-2.6 1c-.4.3-1.5 2-1.8 4-.3 2 3.3 3.4 3.3 3.4-1.8 6.1-5.3 9.5-5.3 9.5s-3.9-2.3-4.7-3.2c-.4-.5-1-.6-2-.6-.8 0-1.8 0-3 .2-3 .3-6.3 1.7-5.8 4 .4 2.5 3.3 3 5.6 3.5 2.3.4 6.6 4.6 6.6 4.6l-1 3.2c-.6 2.1 2.1 6.7 2.3 7.3.2.5-3 2.8-3.9 3.4a70 70 0 0 0-6.3 9.7c-.5 1.2-4.7 4.9-7 6.8-2.3 2-1.5 4.7-1.5 4.7s-2.9-.4-4.2-.4l-.5.1c-.3.3 0 2 .1 2.7 0 .8 4 3.1 5 4 1 .8.1 2.1-2.2 3.9a37.2 37.2 0 0 1-11.2 5.2c-3.4.7-5.4 3-6 3.1h-1.3c-1 0-2 .2-2.5 1.9-.7 2.5 2.2 4.8 3.4 5.5 1.1.6 2.5 1.4 1 5-1.5 3.4-9.3 7.8-12.3 9.2-.7.3-1.3.4-2 .4-2.6 0-5.3-1.7-5.3-1.7-4.3 4 4.8 7.6 9.8 10.5 1.8 1.1 3.8 1.5 5.7 1.5 3.2 0 6-1 6.5-1.2h.2c.8 0 2.3.6 4 .6.8 0 1.5-.1 2.3-.4 2.8-1 6.8.4 23-12.4a101.6 101.6 0 0 0 25.5-32.2c1.9 0 7.2-1.8 9.7-15.6 2.4-14-8.9-37.3-9.5-38.5-.6-1.2-.7-6.3-2.5-7.3s-4.2-3-5.3-5.5a22 22 0 0 0-3.7-6c-.5-.5-1.6-.7-2.7-.7Zm-33.4 94.8c-2.5 0-5.5-1.2-6.8-2-2.2-1.1-1.9-3.6 0-4.5 1.6-.9 3.2-1.2 4.6-1.2 4.2 0 6.7 3.3 5.5 6-.5 1.3-1.8 1.7-3.3 1.7Z" class="cls-16"/><path d="m181.2 73-1.5 1.8s-3.9-2.3-4.7-3.2c-.8-.8-2-.7-5-.4-3 .3-6.3 1.7-5.8 4 .4 2.5 3.3 3 5.6 3.5 2.3.4 6.6 4.6 6.6 4.6l-1 3.2c-.6 2.1 2.1 6.7 2.3 7.3.2.5-3 2.8-3.9 3.4a70 70 0 0 0-6.3 9.7c-.5 1.2-4.7 4.9-7 6.8s-1.5 4.7-1.5 4.7-4.5-.6-4.7-.3c-.3.3 0 2 .1 2.7 0 .8 4 3.1 5 4 1 .8.1 2.1-2.2 3.9a37.2 37.2 0 0 1-11.2 5.2c-3.4.7-5.4 3-6 3.1-.8 0-3-.7-3.8 1.9-.7 2.5 2.2 4.8 3.4 5.5 1.1.6 2.5 1.4 1 5-1.5 3.4-9.3 7.8-12.3 9.2-3 1.4-7.3-1.3-7.3-1.3a4 4 0 0 0-.8 1c8.3 6.6 18.9-5.3 20.5-6.6 1.6-1.3 1.6-5.9 1.6-5.9s-4.3-4.3-4-6.2c.3-1.9 3.3-1 3.9-1.9.5-1 7.2-4 11.9-5.2 4.7-1.4 8.4-6.8 8.4-6.8l-3.2-4.5c-1.4-2 3.5-3.4 3.8-3.8.2-.5.3-3 2.7-4.2 2.3-1.2 4.2-7 6.9-10.7 2.6-3.7 7.8-7.3 7.8-7.3s-1-3.2-2.1-6c-1.1-2.6 1-5.6 1-5.6s-6.4-5.8-9-6.7c-2.7-.9-6.2-2.6-2-4 4.4-1.4 11.2 4.2 11.2 4.2l1.6-4Z" class="cls-3"/><path d="M158.6 63c-1.2 2.2-3.8 5-3.2 5.6.7.7 9.3-1.5 11.3-2.1 2-.7 3.5-5.3 1-6.8-2.6-1.4-7-.4-9.1 3.3Z" style="stroke:#3c7bd6;fill:#b7eae8;stroke-width:1.9591px;stroke-linecap:round;stroke-linejoin:round"/><path d="M165.6 61.2c.4.5-.2 1.6-1.3 2.3-1.1.8-2.3 1-2.7.4-.4-.6.2-1.6 1.3-2.4 1-.7 2.3-.9 2.7-.3Z" class="cls-3"/><path d="M122.9 74.3c1.5.3 3 .5 4.5.4 1.6-.1 3.1-.7 4.6-1.4.5-.3.6-1 .4-1.4-.3-.4-.9-.6-1.4-.3a10.2 10.2 0 0 1-7.6.8c-.5 0-1 .2-1.2.7-.1.5.2 1.1.7 1.2ZM125.9 67.8c2-.5 4.2-1.2 6-2.4.5-.3.7-.9.4-1.4-.3-.4-.9-.6-1.3-.3a11.4 11.4 0 0 1-1.9 1h-.2c0 .1.1 0 0 .1a25.6 25.6 0 0 1-3.5 1.2c-.5 0-.9.7-.7 1.2.2.5.7.8 1.2.6ZM152.7 48a20.4 20.4 0 0 1 17.6 1.2c1.1.6 2-1 1-1.7a22.3 22.3 0 0 0-19.1-1.4c-1.2.5-.7 2.4.5 2ZM161.4 53.8a6 6 0 0 1 6.3 1.2c.4.4 1 .4 1.4 0 .3-.4.4-1 0-1.4a8 8 0 0 0-8.2-1.7c-.5.2-.8.7-.7 1.3.1.4.7.8 1.2.6ZM127.5 62.2l2.1-.7c.3 0 .5-.2.6-.4.1-.3.2-.6.1-.8a1 1 0 0 0-.4-.6 1 1 0 0 0-.8 0c-.7.1-1.4.4-2 .6a1 1 0 0 0-.7.5 1 1 0 0 0 0 .7c0 .3.2.5.4.6.2.1.5.2.7.1ZM137.5 97.8c4 2.6 8.8 0 12-2.7.4-.3.3-1 0-1.4-.4-.4-1-.3-1.4 0-2.5 2.2-6.4 4.5-9.6 2.4-1-.6-2 1-1 1.7Z" class="cls-20"/><path d="M95 97.8c3.3.2 14.4-9 7.2-21.3" style="stroke-width:3.0133px;fill:none;stroke:#5b2307;stroke-linecap:round;stroke-linejoin:round"/><path d="M152.1 184.3c-26.3 0-32.5-7.7-35.9-11.8-.8-1-1.5-2-2.3-2.2a4.2 4.2 0 0 1-2.6-2.7c-2-5.9 6.5-19.6 16.4-35.4 8-13 16.5-26.5 19.8-36.8l.2-.6c6.5-21.3 27.1-53 50.4-53a32 32 0 0 1 22.4 10.6c.1 0 13.1 11.5 32.9 37.5 2.1 2.8 4 5.3 6 7.7l1.4 2 2.8 3.4c5.4 8.2 13.4 25.1 6.1 47.4-7.4 22.6-36 30-52.3 32.4a1 1 0 0 1-.3 0c-8.1-1.1-15.3-1.7-22-1.7-4.7 0-9.3.3-13.7.9-11 1.5-21 2.3-29.3 2.3Z" style="fill:#54ddff"/><path d="M198 42.9c7.1 0 14.5 3 21.9 10.2 0 0 12.8 11.1 32.7 37.4l6 7.7a830 830 0 0 0 4.2 5.5c5.4 8 13.1 24.6 6 46.4-7.2 22-35.4 29.4-51.6 31.8-7.3-1-14.7-1.8-22-1.8-4.7 0-9.3.3-13.9 1a219.5 219.5 0 0 1-29.2 2.2c-33.5 0-33.6-12.3-37.8-14-12-4.4 26-48.5 34.1-73.6l.2-.6c6-19.1 26-52.2 49.5-52.2m0-2c-13.9 0-25.5 10.7-32.9 19.7a107.8 107.8 0 0 0-18.6 34.6 197.7 197.7 0 0 1-19.7 36.5c-11.6 18.5-18.6 30.2-16.5 36.2a5.2 5.2 0 0 0 3.2 3.3c.5.2 1.1 1 1.9 2 3.4 4.2 9.9 12 36.6 12 8.4 0 18.3-.7 29.5-2.2 4.2-.6 8.8-1 13.5-1a153.6 153.6 0 0 1 22.4 1.8c16.6-2.5 45.6-10 53.1-33A54.5 54.5 0 0 0 260.1 97l-6-7.7a271.7 271.7 0 0 0-33-37.6 33 33 0 0 0-23-10.8Z" class="cls-1"/><path d="m262.7 156 2.1-2a277 277 0 0 1-61.1-30.2c-6.7-5-22.7 20.5-30.9 10.4-8.2-10-9.4-39.6-9.4-39.6l-15 1.1c-8 25-46 69.2-34.1 73.7 5.2 2 4.1 20.1 67 11.6 16.3-2.2 33 0 49 3l32.4-28Z" style="fill:#369ac9"/><path d="M167.5 175s20.5.6 47.2 7.5" class="cls-8"/><path d="M109.1 174.8c-7.2 0-13-2.3-15.8-6.1-3.3-4.8 7.2-13 8.4-13.8 0 0 3.2-2.6 7.8-8.8 4.1-5.6 8-12.4 11.6-20.1 2.6-5.6 5.8-14 9.6-23.7 11-28.3 25.9-67 41-78.3a30 30 0 0 1 17.9-7.1c8.6 0 15 5.4 20 9.8l2.6 2.2a47 47 0 0 1 13.7 15.6c2 3.5 3.5 8 2.2 10.4-.4.6-1.2 1.4-2.7 1.4-.6 0-1.3-.2-2.1-.4-1.3-.5-2.5-1.1-3.7-1.8a21.8 21.8 0 0 0-11.1-3.3 34 34 0 0 0-13.2 3.1c-16.2 7-22.3 22.1-32.5 47.3l-1.2 3-8.6 21.6c-6.7 17-11.1 28.3-13.7 31-.7.7-1.4 1.8-2.3 3-3.3 4.6-8.3 11.5-18.5 13.8-3.3.8-6.4 1.2-9.4 1.2Z" class="cls-3"/><path d="M189.6 17.9c9.8 0 16.5 7.3 22 11.7A46.9 46.9 0 0 1 225 45c2.6 4.6 3.9 10.4.3 10.4-.5 0-1-.1-1.8-.4-4-1.4-7.8-5.1-15.1-5.1-3.6 0-8 .9-13.6 3.2-17.2 7.4-23.2 23.8-34.2 50.9-11 27-18.7 48.7-22 52.2-3.4 3.5-7.7 13.7-20.4 16.6a41 41 0 0 1-9.2 1c-7.6 0-12.8-2.5-15-5.6-2.9-4.2 8.2-12.5 8.2-12.5s3.3-2.5 8-9c3.4-4.5 7.5-11.1 11.7-20.2 10.2-22 30.2-86.7 50.2-101.7a29 29 0 0 1 17.4-6.8m0-2v2-2c-6 0-12 2.4-18.5 7.3-15.3 11.5-30.4 50.3-41.3 78.7-3.8 9.7-7 18.1-9.6 23.7-3.5 7.6-7.4 14.3-11.5 19.9a46.9 46.9 0 0 1-7.6 8.6c-2.1 1.5-12.4 9.7-8.6 15.1 2.9 4.1 9.1 6.5 16.6 6.5 3 0 6.3-.3 9.6-1.1 10.6-2.4 15.7-9.5 19-14.2a29 29 0 0 1 2.3-3c2.6-2.6 6.4-12 14-31.3l8.5-21.5 1.3-3c10-25 16.1-40 32-46.8 4.8-2 9-3 12.7-3 4.7 0 7.7 1.6 10.6 3.1 1.3.7 2.5 1.4 3.8 1.9 1 .3 1.8.5 2.5.5 1.6 0 2.8-.7 3.5-2 1.7-2.8-.1-7.8-2.1-11.3a49.4 49.4 0 0 0-14-15.9 115 115 0 0 1-2.6-2.2c-5.2-4.4-11.6-10-20.6-10Z" class="cls-1"/><path d="M223.6 55c-5.9-2.2-11.4-9.3-28.7-2-17.2 7.4-23.2 23.8-34.2 50.9-11 27-18.7 48.7-22 52.2-3.4 3.5-7.7 13.7-20.4 16.6-12.7 2.9-21.2-.4-24.2-4.6-2.9-4.2 8.2-12.5 8.2-12.5s3.3-2.5 8-9c9.2-4 25.5-12.3 33.1-23.6 11-16.3 23-73.2 45.8-84.5a37.7 37.7 0 0 1 31.3-.4c1.8 2.3 3.2 4.4 4.6 6.9 3 5.2 4.2 12-1.5 10Z" class="cls-12"/><path d="M105.4 49.8c-.7 0-1.1-.6-1.1-1.2l.3-5c0-.3.1-.5.3-.7l8-9.7-5.9-.4c-.6 0-1-.6-1-1.2l.4-5.8c0-.6.5-1 1.1-1l17.7 1.2c.7 0 1.2.6 1.1 1.2l-.3 5c0 .3-.1.5-.3.7l-8 9.7 7 .4a1.1 1.1 0 0 1 1 1.3l-.4 5.7c0 .6-.6 1-1.2 1l-18.7-1.2Z" class="cls-3"/><path d="m107.5 25.9 17.7 1.2-.4 5-9.4 11.4 9.1.7-.4 5.7-18.7-1.3.4-5 9.4-11.4-8.1-.6.4-5.7m0-2.3a2.3 2.3 0 0 0-2.3 2.1l-.4 5.8c0 1.2.9 2.3 2.1 2.4l3.7.3-6.6 8c-.3.4-.5.8-.5 1.3l-.3 5a2.3 2.3 0 0 0 2 2.4l18.8 1.3h.1c1.2 0 2.2-1 2.3-2.1l.4-5.8a2.3 2.3 0 0 0-2.1-2.4l-4.7-.3 6.6-8c.3-.4.5-.8.5-1.3l.3-5a2.3 2.3 0 0 0-2-2.5l-17.7-1.2h-.2Z" class="cls-1"/><path d="M122.8 68.6c-.7 0-1.1-.6-1-1.2l.2-3.5c0-.2 0-.5.2-.7l5.3-6.3-3.6-.2a1.1 1.1 0 0 1-1-1.3l.3-4c0-.6.5-1 1.1-1l12.5.8c.7 0 1.1.6 1.1 1.2l-.2 3.6-.3.6-5.2 6.3 4.2.3a1.1 1.1 0 0 1 1 1.2l-.2 4c0 .7-.6 1.1-1.2 1.1l-13.2-.9Z" class="cls-3"/><path d="m124.3 51.5 12.5.8-.3 3.6-6.6 8 6.4.4-.3 4.1-13.1-1 .2-3.4 6.7-8-5.8-.5.3-4m0-2.3c-1.2 0-2.2.9-2.3 2.1l-.3 4a2.3 2.3 0 0 0 2.2 2.5h1.3l-3.9 4.7c-.3.4-.4.8-.5 1.3l-.2 3.5c-.1 1.3.8 2.4 2.1 2.5l13.2.9a2.3 2.3 0 0 0 1.6-.6c.5-.4.8-1 .8-1.5l.3-4c0-1.4-.9-2.4-2.1-2.5l-2-.2 3.8-4.6c.3-.3.5-.8.5-1.3l.2-3.5a2.3 2.3 0 0 0-2-2.5l-12.5-.8h-.2Z" class="cls-1"/><path d="M127.7 30c-.6 0-1-.6-1-1.3l.4-5.8c0-.2 0-.4.2-.6l9.6-11.7-7.2-.5c-.7 0-1.1-.6-1-1.2l.4-6.7a1.1 1.1 0 0 1 1.1-1L151 2.5a1.1 1.1 0 0 1 1 1.2l-.3 5.9-.3.6-9.6 11.6 8.5.6a1.1 1.1 0 0 1 1 1.2l-.4 6.7c0 .6-.6 1-1.2 1L127.7 30Z" class="cls-3"/><path d="m130.2 2.3 20.6 1.4-.4 5.9-11 13.3 10.7.7-.5 6.7-21.8-1.5.4-5.8 11-13.3-9.5-.7.5-6.7m0-2.3a2.3 2.3 0 0 0-2.3 2.1l-.4 6.7c-.1 1.3.8 2.4 2 2.5l5.1.3-8.2 10c-.3.3-.4.8-.5 1.2l-.4 5.9c0 1.2.9 2.3 2.1 2.4l21.9 1.5a2.3 2.3 0 0 0 1.6-.5c.5-.4.8-1 .8-1.6l.5-6.7c0-1.3-.9-2.4-2.1-2.5L144 21l8.2-9.8c.3-.4.5-.9.5-1.3l.4-6c0-1.2-.9-2.3-2.1-2.4L130.4 0h-.2Z" class="cls-1"/><path d="m124.1 50-18.7-1.4.4-5 9.4-11.4-8.1-.6.4-5.7 17.7 1.2-.4 5-9.4 11.4 9.1.7-.4 5.7ZM136 68.4l-13.1-1 .2-3.4 6.7-8-5.8-.5.3-4 12.5.8-.3 3.6-6.6 8 6.4.4-.3 4.1ZM149.6 30.3l-21.8-1.5.4-5.8 11-13.3-9.5-.7.5-6.7 20.6 1.4-.4 5.9-11 13.3 10.7.7-.5 6.7Z" class="cls-3"/><path d="M163.4 222.3h-6.1c-64-1-106.6-13.3-127-36.4a57 57 0 0 1-12.5-47.3c.2-2 .4-3.5.3-4.2-.4-3.8 0-6.4 1.4-7.9a5 5 0 0 1 3.9-1.6c1.8 0 4.1.7 7 2 .3.1.6.4.6.7 0 .1 2.8 10.8 40.6 20.9 21 5.6 52.9 8.8 87.6 8.8 21 0 40.8-1.1 55.9-3.3 27.3-3.8 46.5-18.2 58-26.7 4-3 7-5.2 9.4-6.4a32 32 0 0 1 14-4.4c1.2 0 2.3.1 3.9.4 2.6.4 4.2 10.2 3.4 20.5-.9 12-5.7 35-28.1 54-24.2 20.5-62 31-112.3 31Z" class="cls-21"/><path d="M296.5 117.5c1.2 0 2.4.2 3.7.4 4.8.7 20.6 103.4-136.8 103.4h-6.1c-164-2.7-137.1-78.3-138.2-87-.6-5.8.9-8.3 4.3-8.3 1.7 0 4 .6 6.6 1.8 0 0 2 11.2 41.3 21.7 23.4 6.2 57 8.8 88 8.8 21.1 0 41.1-1.2 56-3.3 36.5-5.1 58.4-28.7 67.6-33.2a30.9 30.9 0 0 1 13.6-4.3m0-2c-3.9 0-7.8 1.2-14.5 4.5a71.8 71.8 0 0 0-9.5 6.4C261.1 135 242 149.2 215 153c-15 2.2-34.7 3.3-55.7 3.3-34.6 0-66.5-3.2-87.4-8.8-35.6-9.5-39.6-19.4-39.8-20 0-.8-.5-1.3-1.2-1.5-3-1.4-5.4-2-7.4-2a6 6 0 0 0-4.7 1.8c-1.5 1.8-2 4.6-1.6 8.7.1.6 0 2.3-.3 4-1 9.6-3.4 29.6 12.8 48C50.1 210 93 222.3 157.2 223.4h6.2c50.5 0 88.5-10.5 113-31.2a79.1 79.1 0 0 0 28.4-54.6 61 61 0 0 0-.5-14.4c-1-6-2.6-7-3.8-7.2-1.6-.3-2.8-.4-4-.4Z" class="cls-1"/><path d="M301.1 148.4c-3.6 3.1-7 6.4-8.8 9.5-6 9.7-18.6 20.9-18.6 20.9l20.2-11.3c3.6-6.5 5.9-13 7.2-19ZM302.8 137.5c.4-4.5.2-8.5-.1-11.7l-24 19.7s13.4-3.8 24.1-8ZM145 187.2s46.3 5 85.8-9c39.4-14 39.4-21.8 39.4-21.8s-54.4 24-125.1 30.8Z" class="cls-14"/><path d="M37.2 150c.9.6 27 18.7 74 25.3 47.2 6.6 68.7 3.5 68.7 3.5s-80.5-10.8-106-18.5A549.4 549.4 0 0 0 37.2 150Z" class="cls-14"/><path d="M195.5 214.2c-33.6 6-92.3.4-92.3.4L63.9 205s6.7-1.4 34 3.2c27.3 4.7 53.5 1 53.5 1s-27.6-.8-65-8.4a306 306 0 0 1-58.1-19.2c14.6 19.7 49.2 38.3 129 39.6 73.5 1.2 110.8-19.4 129.1-42.4-6 2.3-17 8-23.2 12.3-7 5-34.1 17-67.7 23Z" class="cls-14"/><path d="M117.8 192.7s-31.7-3.1-56.3-10c-24.5-7-41-16.2-41-16.2C22 171 24 175.4 27 180c8 2.8 18.3 6 29.5 8.5 24.6 5.5 61.3 4.3 61.3 4.3Z" class="cls-14"/><path d="M275.7 126.6s4.4-5 6.6-8.5c2.2-3.5 7.1-5.6 7.1-5.6l10.8 5.4-12.5 7.3M31.5 131.1s-.6-5.6-.2-8.1c.4-2.5-10.1.4-10.1.4s-2 5.2-2.1 6 4.8.4 4.8.4" class="cls-21"/><path d="M105.9 209.4s-59.9-7.2-83-20.6l-.4 5.3s24 16.2 83 20.6" class="cls-10"/><path d="M99.6 113s-3.4-1.1-5.7.3" class="cls-8"/><path d="M68 198.6s24.7-28.2 35.1-66.1l-6.8-14.8-26 71-2.4 9.9Z" style="stroke-width:1.9591px;stroke:#5b2307;stroke-linecap:round;stroke-linejoin:round;fill:#ceb891"/><path d="M94 207.7c-.9 0-3.6-1.3-7.8-3.4l-6-2.7-9-3.8-.4-.2v-.4c.5-3 1.6-8 3.2-8h.3c1.2.4 4 3.3 7.4 6.8l1.8 1.9c.8.8 3 2.4 5 4 5.9 4.3 6.3 4.8 6 5.4 0 .1-.1.4-.5.4Z" style="fill:url(#linear-gradient-3)"/><path d="M74 189.7h.2c1.5.5 7 6.5 9 8.5 1.9 2 11.2 8.3 11 9H94c-1.3 0-9.8-4.5-13.6-6l-9-3.9s1.1-7.6 2.6-7.6m0-1c-.6 0-2.3 0-3.6 8.5l-.1.7.7.3 9 3.8 6 2.8c4.8 2.3 7 3.4 8 3.4.5 0 .9-.3 1-.7.5-1 0-1.5-6.1-6a69 69 0 0 1-5-4l-1.9-1.8a36.7 36.7 0 0 0-7.5-7H74Z" class="cls-13"/><path d="M74.1 190.7a66.2 66.2 0 0 1 8.3 8.2c.9.9 3 2.5 5.3 4.2l1.5 1.1-2.4-1.2-6-2.8a862 862 0 0 1-8.4-3.5c.5-2.7 1.2-5.2 1.7-6m0-1c-1.6 0-2.8 7.6-2.8 7.6s5 2.2 9.1 3.8c3.8 1.6 12.3 6.1 13.6 6.1h.1c.3-.7-9-7-11-9s-7.4-8-9-8.5Z" class="cls-3"/><path d="M123.7 174.1c-1.3 0-5.3-2-9.6-4.2l-2.5-1.2a6 6 0 0 0-1.6-.2c-1 0-2-.1-2.6-.6-.7-.6-9-4.5-14.5-7l-.3-.2v-.4c.5-2.7 3.3-6.7 3.4-6.9l.3-.4.4.3 10 6.6c1.6 1 2.4 2 3 3 .6.6 1 1.2 1.8 1.5.1 0 13.7 7.4 13 9.3 0 .1-.2.4-.8.4Z" style="fill:url(#linear-gradient-4)"/><path d="m96.4 153.7 10 6.7c2.9 1.7 3 3.6 4.8 4.4 1.8.9 13.3 7.5 12.9 8.7l-.4.1c-1.9 0-10.9-5-12-5.4-1-.4-3 0-4-.7-1-.8-14.6-7-14.6-7 .5-2.7 3.3-6.8 3.3-6.8m-.2-1.3-.6.8c-.1.1-3 4.2-3.4 7l-.2.8.7.3c5.2 2.4 13.6 6.4 14.4 7 .8.6 2 .6 2.9.7.5 0 1.1 0 1.4.2.3 0 1.4.6 2.4 1.1 5.4 2.8 8.6 4.3 10 4.3.8 0 1.1-.6 1.2-.8.3-.9 0-1.7-6-5.6a111 111 0 0 0-7.3-4.2c-.6-.3-1-.8-1.5-1.5-.7-.9-1.6-2-3.2-3-2.8-1.7-10-6.5-10-6.6l-.8-.5Z" class="cls-13"/><path d="M96.7 155c2 1.4 7 4.8 9.3 6.2 1.3.8 2 1.7 2.6 2.5.6.8 1.2 1.5 2.2 2 1.5.7 6.1 3.5 9.3 5.6l-5.4-2.7-2.6-1.3a7 7 0 0 0-2-.3c-.7 0-1.5 0-1.8-.3-1-.7-10.7-5.3-14-6.8.4-1.6 1.6-3.6 2.4-4.8m-.3-1.4s-2.8 4.1-3.3 6.7c0 0 13.6 6.3 14.6 7 1 .8 3 .4 4 .8 1.1.4 10.1 5.4 12 5.4l.4-.1c.4-1.2-11-7.8-12.9-8.7-1.7-.8-1.9-2.7-4.7-4.4l-10-6.7Z" class="cls-3"/><path d="M101.1 161c1.1.5 1.7 1.4 1.4 2-.3.7-1.4.7-2.4.2-1.1-.5-1.7-1.4-1.4-2 .3-.6 1.4-.7 2.4-.2Z" class="cls-3"/><path d="M112.6 193.8c-1 0-2.6-.7-5.3-2.3-3.4-2-6.8-3.6-7.6-4l-.6.1c-1 0-2.4-.6-5.1-2.2a241 241 0 0 0-10.9-5.2l-.4-.2.2-.4c1.7-4.3 5-11.6 6.6-11.6a91.6 91.6 0 0 0 8.7 6.6c7.8 5.8 7.7 5.8 7.4 6.4-.1.1-.3.3-.7.3-.7 0-2.2-.7-4-1.8l-.9-.4c-.7-.4-3.8-1.5-6.2-2.4 1.9 1.5 4.3 3.3 5.2 3.8 2 1 5 4.3 5.4 4.7l3.3 2.6c5.7 4.2 6.2 4.8 6 5.4-.1.2-.4.6-1 .6Z" style="fill:url(#linear-gradient-5)"/><path d="M89.5 168.5c.1 0 .2 0 .3.2 1.3 1.6 15.7 11.5 15.4 12l-.3.1c-.8 0-3.5-1.5-4.7-2.1-1.3-.7-9-3.4-9-3.4s6 4.8 7.6 5.7c1.6.8 4.3 3.5 5.3 4.6 1 1 9.4 6.7 9.1 7.4 0 .2-.3.3-.6.3-.8 0-2.3-.6-5-2.3-4-2.3-8-4-8-4a1 1 0 0 1-.5.1c-1 0-2.9-1-4.9-2-2.4-1.5-10.9-5.3-10.9-5.3s4.6-11.3 6.2-11.3m0-1c-.5 0-2.3 0-7 12l-.4.8.8.4c.1 0 8.5 3.8 10.8 5.2 2.4 1.3 4.2 2.2 5.4 2.2h.5c1 .4 4.3 2 7.4 3.8 3.6 2.1 4.9 2.4 5.6 2.4 1 0 1.4-.6 1.5-.9.4-1-.2-1.6-6-6l-3.3-2.5c-.4-.4-3.5-3.7-5.5-4.8l-2.6-1.8 3 1.2.9.5c2.3 1.2 3.5 1.8 4.3 1.8.5 0 .9-.2 1-.5.7-1-.2-1.6-2.3-3.2l-5-3.9c-3.4-2.4-7.4-5.4-8-6.1-.3-.4-.7-.6-1-.6Z" class="cls-13"/><path d="M89.4 169.7c1.2 1 3.9 3.1 8 6.1l1.8 1.4-7.8-2.9-4-1.4 2-3.2m-2.2 3.7 3.3 2.6c.2.2 6.2 5 7.8 5.8a29 29 0 0 1 5 4.4l3.6 2.8 3 2.3-1.9-1.1c-3.9-2.3-7.8-4-8-4.1l-.5-.2-.4.2c-1 0-3.5-1.4-4.4-2l-10.1-4.8 2.6-5.9m2.3-4.9c-1.6 0-6.2 11.3-6.2 11.3s8.5 3.8 11 5.2c2 1.2 3.8 2.1 4.8 2.1l.5-.1s4 1.7 8 4c2.7 1.7 4.2 2.3 5 2.3.3 0 .5 0 .6-.3.3-.7-8.1-6.4-9.1-7.4-1-1.1-3.7-3.8-5.3-4.6-1.6-1-7.7-5.7-7.7-5.7s7.8 2.7 9.1 3.4c1.2.6 3.9 2.1 4.7 2.1h.3c.3-.6-14-10.5-15.4-12.1l-.3-.2Z" class="cls-3"/><path d="M92.7 180.5c1.4.9 2.2 2.1 1.8 2.8-.4.6-1.8.4-3.3-.5-1.4-1-2.2-2.2-1.8-2.8.3-.6 1.8-.4 3.3.5Z" class="cls-3"/><path d="M68 199.6a1 1 0 0 1-1-1.3l.1-.5c10.7-37.9 18-68.8 18-69 .2-.5.5-.8 1-.8 4.8-.3 8-8.2 9-12.9a1 1 0 0 1 1-.7c.4 0 .8.3 1 .7.5 2 .2 5.5-1 10.8-5.6 23-27 72.6-27.3 73a1 1 0 0 1-.9.7Z" style="fill:#ceb891"/><path d="M96.1 115.4c.6 1.8.1 5.5-1 10.3-5.6 23.2-27.2 72.9-27.2 72.9l.2-.6c10.8-38.2 18-69 18-69 7-.4 9.8-12.8 10-13.6m0-2a2 2 0 0 0-1.9 1.5c-1 4.1-3.9 11.9-8.2 12.1a2 2 0 0 0-1.8 1.5c0 .3-7.3 31.2-18 69l-.1.5a2 2 0 0 0 3.6 1.4c1-2 21.8-50.2 27.3-73.3 1.3-5.5 1.6-9.1 1-11.3a2 2 0 0 0-1.9-1.4Z" class="cls-1"/><path d="M96.1 115.4c.6 1.8.1 5.5-1 10.3-1.8 2.7-4.2 5.6-7.4 6.5 0 0-12.8 48.6-19.6 65.8 10.8-38.2 18-69 18-69 7-.4 9.8-12.8 10-13.6Z" class="cls-3"/><path d="M144.5 162.2s54.1 0 95.4-28.5l2.3 2.5s-27.2 29-98.1 32" class="cls-10"/><path d="M183.6 186s43.9-3 66.3-20.1" class="cls-6"/><path d="M268.4 182s28.9-16.3 37.5-32.7l4.3.3s-4.7 23.3-40 36.7M36 167.6s-16.8-8-32-29.6l-3 2s10.6 23.8 32.4 33" class="cls-10"/><path d="M126 197.5s31.4 10.6 79 2.2M31.5 146.2s13.8 10.3 23.1 11.6" class="cls-6"/><path d="M23.3 141.6s-7.5-5.3-10.7-10L15 128s7.3 7.3 11.5 8.5M271 143.4s27-15.4 33.4-28.9l5.1 3.9S292 141 275.4 146.9M218.9 202.4s17.1-4.8 27.7-8.2l1 5.1s-16.7 6.3-30.8 9.6" class="cls-10"/></g></svg>