<svg xmlns="http://www.w3.org/2000/svg" height="80px" xmlns:xlink="http://www.w3.org/1999/xlink" id="Layer_2" data-name="Layer 2" viewBox="0 0 166.6 153.2"><defs><linearGradient id="linear-gradient" x1="125.5" x2="125.5" y1="142.8" y2="109.1" gradientUnits="userSpaceOnUse"><stop offset="0" stop-color="#dbffff"/><stop offset="1" stop-color="#339ed3"/></linearGradient><linearGradient xlink:href="#linear-gradient" id="linear-gradient-2" x1="122.4" x2="122.4" y1="51.1" y2="60.6"/><linearGradient id="linear-gradient-3" x1="123.3" x2="123.3" y1="283.4" y2="262.4" gradientTransform="rotate(-4.3 -2224.6 749)" gradientUnits="userSpaceOnUse"><stop offset="0" stop-color="#dbffff"/><stop offset="1" stop-color="#1376a6"/></linearGradient><linearGradient xlink:href="#linear-gradient-3" id="linear-gradient-4" x1="136.2" x2="136.2" y1="250.3" y2="229.2" gradientTransform="rotate(4 2085.9 -806.7)"/><linearGradient xlink:href="#linear-gradient-3" id="linear-gradient-5" x1="123" x2="123" y1="247.8" y2="226.6" gradientTransform="rotate(4 2067.1 -823)"/><style>.cls-1{fill:#5b2307}.cls-3{fill:#fff}.cls-7{fill:#3c7bd6}.cls-10{stroke:#4c1a09;stroke-width:.6px;stroke-linecap:round;stroke-linejoin:round;fill:none}.cls-17{fill:#b7eae8}.cls-18{fill:#4c1a09}.cls-23{fill:#755b46}</style></defs><g id="Layer_1-2" data-name="Layer 1"><path d="M100.3 148.5a1 1 0 0 1-1-.8c-.1-.8.7-2.2 1.7-3.4l-3.7 1.7a113.7 113.7 0 0 1-5.1 2.2 2 2 0 0 1-1.8-1.1c-.2-.8 0-1.6.7-2.3.6-.5 2.2-1.5 4.1-2.5-2.9 0-4.1-.4-4.3-1.4-.1-1 1.3-1.7 2.6-2a78.3 78.3 0 0 1 12.2-1.4c3.4 0 5.3.5 5.6 1.5.4 1.2-1.4 2.5-3.5 4l-1.6 1.2-1.4 1.2c-2.1 1.9-3.5 3-4.5 3Z" class="cls-23"/><path d="M105.7 138.1c2.7 0 4.8.3 5 1.1.4 1-3 3-4.9 4.5-1.5 1.3-4.4 4.2-5.5 4.2-.2 0-.3-.1-.3-.3-.4-1.3 3.4-5 3.4-5-2.5 1-8.8 4.1-10.5 4.8a2 2 0 0 1-.8.2c-1.2 0-1.7-1.3-.6-2.3a85 85 0 0 1 8.5-5l-4 1.4h-.7c-5.6 0-4-1.7-1.7-2.2 2.3-.6 8.3-1.2 8.3-1.2l3.8-.2m0-1.2c-1.2 0-2.6 0-3.9.2-.2 0-6.1.6-8.5 1.2-2 .5-3.1 1.5-3 2.7.2 1.1 1.3 1.6 2.8 1.8-1.1.7-2 1.2-2.4 1.6-.9.8-1.2 2-.8 2.9.3 1 1.2 1.5 2.2 1.5.5 0 .9 0 1.3-.3l4.2-2 1.6-.7c-.4.8-.6 1.5-.4 2 .2.8.8 1.3 1.5 1.3 1.1 0 2.4-1 4.9-3.2a39.2 39.2 0 0 1 3-2.4c2.3-1.7 4.2-3 3.7-4.7-.3-.9-1.3-2-6.2-2Z" class="cls-18"/><path d="M93.4 143.4s2.2.7 2 3.3m1.6-5s3.2-.6 3.1 2.7m-5.4-5.6s1.6.8.9 3.3m5.9 1.9s2.2-.7 3 1.7m-5.7-7.6c0 .2 1.6.1 1.8 2 0 0 2.8-.7 3.4 1.7 0 0 2.8-.8 3.3 1.4" class="cls-10"/><path d="M123 152.6c-1 0-1.3-.6-1.4-1-.5-1.8 2.5-4.4 5-6.3l-2.1.4c-1.6.3-3.2.6-4 .6-.2 0-.9 0-1-.5-.2-.6.4-1 1.1-1.4 3.3-2 11.2-3.6 12-3.7.7-.3 7.5-3 10.4-3 .8 0 1.3.2 1.6.6.1.2.3.6 0 1.3-1.3 3-6.5 11.3-9.5 11.3h-.4c-.7-.2-1-.6-1-1-.4-.8.1-2.1.7-3.2l-1 .6a31.7 31.7 0 0 1-10.4 5.3Z" class="cls-23"/><path d="M143 138.3c1 0 1.4.3 1 1-1.4 3.3-6.5 11-8.9 11h-.3c-2.2-.6 1.6-5.4 1.6-5.4-2 .9-10.7 7-13.4 7-.5 0-.7 0-.8-.4-.7-2.5 7.4-7.5 7.4-7.5l-2.2.6c-1.6.2-5.6 1.1-7 1.1-.6 0-.6-.2.5-.8 3.4-2 11.8-3.6 11.8-3.6s7.4-3 10.3-3m0-1.2c-3 0-9.4 2.5-10.6 3-1 .2-8.8 1.8-12.1 3.7-.6.4-1.7 1-1.4 2.1 0 .4.4 1 1.6 1 .8 0 2.2-.2 3.7-.5-2 1.7-3.6 3.8-3.2 5.4.2.9 1 1.4 2 1.4 2 0 5.5-2.1 10-5-.1.7-.2 1.4 0 2a2 2 0 0 0 1.5 1.3h.6c3.6 0 9.1-9.6 10-11.7a2 2 0 0 0 0-1.9c-.4-.5-1.1-.9-2.1-.9Z" class="cls-18"/><path d="M122.9 148.7s3.4-.6 4 2.5m-1.1-5.4s5.8-1.4 6.3 2.3m-8.8-4.9s1.2 1 .4 2.6m10.3 1.7s3-2.3 5.5-.3m-10.5-5.1s1.4-.3 1.8 1c0 0 4.4-1.2 6.3.7 0 0 3.7-2.4 5.5-.6" class="cls-10"/><path d="M107.4 141c-1.3 0-2.7-.2-3.9-.7-6.5-2.5-6.8-9.4-6.8-9.5 0-.3.2-.5.5-.6l2.3-.2c8.3 0 16.8 6.7 17.1 7 .2.1.3.3.3.5l-.3.5c-.2 0-4.2 3-9.1 3Z" class="cls-17"/><path d="M99.5 130.6c8.2 0 16.7 6.9 16.7 6.9s-4 2.9-8.8 2.9a10 10 0 0 1-3.7-.7c-6.2-2.3-6.4-8.9-6.4-8.9l2.2-.2m0-1.2-2.4.2c-.6.1-1 .7-1 1.3 0 .3.3 7.4 7.2 10 1.3.4 2.7.7 4.1.7 5.1 0 9.4-3 9.5-3.2a1.2 1.2 0 0 0 0-1.9c-.3-.3-9-7-17.4-7Z" class="cls-7"/><path d="M124.8 139a41 41 0 0 1-3.6-.2c-24-2.3-34-15.2-34.9-23.3-.4-3.9 0-7.3.7-9.8-.4.4-1.1.8-1.7.8-.4 0-.7-.1-.9-.4-.4-.4-.5-1-.4-2a13 13 0 0 1 2.8-6.2c-.9.5-1.5.9-2.1.9a1 1 0 0 1-.8-.3c-.3-.4-.3-1-.3-1.3 0-2.2 2.8-4.2 3.9-5a41 41 0 0 1-.9-17.2 29 29 0 0 1 10.6-17c-1.2-.3-2.2-.8-2.4-1.7 0-.5.2-1.3 1.8-2 1-.4 2.2-.6 3.5-.8-1-.3-1.6-.8-1.7-1.4-.1-.3 0-.9.8-1.4.6-.3 1.3-.5 2.2-.5 1.6 0 3.4.5 4.7 1-.3-.5-.4-1-.3-1.4.1-.3.5-.6.9-.6h.2c1.4 0 3.3 1.8 4 2.6h1.2c19 0 27.2 11.8 30.7 21.7 2.3 6.3 7.1 9.2 12.7 12.7 6 3.7 9.5 9.7 9.8 10.4.1.4 0 .7-.1.8-.1.2-.3.3-.7.3h-.2a19 19 0 0 1 1.7 7.2c0 .5-.3.8-.8.8h-.4c1 3 .6 7.1-.2 8-.6.6-3.5 5.7-3.6 6.3-.2 1-14.7 19-36.2 19Z" style="fill:#a36731"/><path d="M106.9 49.8c1.3 0 3.8 2.6 3.8 2.6h1.4a30 30 0 0 1 30.1 21.3c2.4 6.5 7.2 9.5 13 13 5.7 3.5 9.2 9.4 9.5 10.2 0 .2 0 .3-.2.3-.5 0-1.6-.5-1.6-.5 2 2.4 2.5 7.5 2.5 8.2 0 .1 0 .2-.2.2-.5 0-1.6-.8-1.6-.8 1.7 3 1.3 8.3.6 9-.7.7-3.7 6-3.8 6.6a48.3 48.3 0 0 1-39.2 18.3C98 136 87.8 123.5 87 115.5c-.9-8 2.4-14.1 2.4-14.1-1.5 1.4-2.2 3.4-2.2 3.4s-1 1.1-1.8 1.1c-.4 0-.8-.4-.7-1.8.3-3.6 4.4-7.7 4.4-7.7-1.7.4-3.4 1.8-4.3 1.8-.3 0-.5-.3-.5-1 .1-2.3 4-4.7 4-4.7s-2.5-6.8-1-17.4c1.6-10.5 11.6-17.6 11.6-17.6-3 0-4.7-1.5-2-2.6a21.1 21.1 0 0 1 7.8-1s-7.7-1-5-2.6c.5-.4 1.1-.5 1.9-.5 2.8 0 6.5 2 6.5 2s-2.5-2.8-1.2-3h.1m0-1.2h-.3c-.6 0-1.1.4-1.3 1l-.1.7c-1.2-.4-2.5-.7-3.7-.7-1 0-2 .2-2.6.6-1.2.8-1.2 1.6-1 2 0 .3 0 .6.4 1-.7.2-1.4.3-2 .6-2 .8-2.1 2-2 2.6.1.8.7 1.4 1.7 1.8A29.1 29.1 0 0 0 86 75a42 42 0 0 0 .8 17.1c-1.3 1-3.7 3-3.8 5.2 0 .3 0 1.1.5 1.7.3.3.8.5 1.2.5h.4c-.8 1.4-1.5 3-1.7 4.6 0 1.2 0 2 .6 2.5.3.4.8.6 1.3.6.3 0 .6 0 .8-.2a30 30 0 0 0-.4 8.7c1 8.3 11.2 21.5 35.4 23.8l3.7.2c11.4 0 20.7-5 26.5-9.3a38 38 0 0 0 10.3-10.2c.2-.6 2.9-5.4 3.5-6 .9-1 1.3-4.7.5-7.9.6-.1 1-.7 1-1.3 0 0-.1-3.7-1.4-6.7.3-.1.4-.3.5-.4.3-.4.3-1 .1-1.4-.4-1.2-4.2-7.2-10-10.8-5.5-3.3-10.2-6.2-12.4-12.3A31.2 31.2 0 0 0 112.1 51h-1c-1-1-2.7-2.6-4.2-2.6Z" class="cls-1"/><path d="M160.4 119.9c0-.6 3-6 3.8-6.7.7-.7 1-5.9-.6-9 0 0 1.8 1.4 1.8.7s-.4-5.8-2.5-8.3c0 0 2 1 1.8.2a28 28 0 0 0-9.6-10.1c-3-1.8-5.6-3.5-7.8-5.5s8 8.4 7.5 16.4c-.4 8-4 5-4 5L144 99s2.3 6-1.2 8c-3.6 2-4.6 0-4.6 0s1.2 3.8-3.3 4.8-16.4 1-21.6 0c-5.3-1-12.2-3.2-12.8-7-.7-3.8-1.4-4.4-1.4-4.4s-5.1 6.9-5.7 3.5c-.6-3.3.3-5.8.3-5.8s-4.3 2.7-3.8.9c.4-1.8 1.5-3.9 1.5-3.9s-1.8-.8-3.5-2.4c-.8.5-3.7 2.6-3.8 4.6-.1 2.3 2.3-.3 4.7-1 0 0-4 4.2-4.3 7.8-.3 3.6 2.5.7 2.5.7s.7-2 2.1-3.4c0 0-3.2 6-2.3 14 1 8.1 11 20.6 34.3 22.8 23.3 2.2 39-17.7 39.1-18.3Z" style="fill:#8e5424"/><path d="M149.3 116.5c-10.8-1.5-31.2-9.4-28.7-19.7 2.5-10.2 10.6-7.3 13.5-20 3-12.6-10.2-20.2-20.3-18.9-10.2 1.3-15.2 11.3-15.6 12-.4.7-5.3.7-7.3.3-1.8-.4-1-2.6-1-2.7a21.8 21.8 0 0 0-2.7 7.6 38.7 38.7 0 0 0 1 17.4s-3.9 2.4-4 4.7c0 2.3 2.3-.3 4.8-.9 0 0-4 4.2-4.4 7.8-.3 3.6 2.5.7 2.5.7s.7-2 2.2-3.4c0 0-3.3 6-2.4 14 1 8.1 11.1 20.6 34.3 22.8 19.5 1.8 33.8-11.8 38-16.7-2-2.5-5.4-4.5-9.9-5Z" style="fill:#bd852d"/><path d="M123.9 138.3h2a25.1 25.1 0 0 0 2 0l1.2-.2h.6l1.7-.3h.2l1.8-.4.4-.2c.5 0 .9-.2 1.3-.3l.6-.1a49.6 49.6 0 0 0 1.7-.6l1.1-.4.5-.2a57.5 57.5 0 0 0 3.2-1.3l.3-.1 1.1-.6.5-.3 1-.5.4-.2 1-.6.4-.3 1-.6c.2 0 .2-.1.3-.2l1.2-.8.2-.2 1-.7.4-.2.7-.6.4-.3.7-.6.3-.2.7-.6.3-.3.9-.7.2-.3.6-.5.4-.3.4-.4c0-.2.2-.3.3-.4l.3-.3.4-.4.2-.2.4-.4.9-1c-2-2.6-5.3-4.5-9.8-5a61 61 0 0 1-15.2-4.5c-5 .8-15.8.7-20.7-.2-5.3-1-12.2-3.2-12.9-7-.6-3.9-1.3-4.5-1.3-4.5s-5.2 6.9-5.8 3.6c-.6-3.4.4-5.9.4-5.9s-4.3 2.7-3.8.9c.4-1.8 1.4-3.8 1.4-3.8s-1.8-.8-3.4-2.5l-.2.1-.3.2-.2.2-.3.2-.3.3h-.1l-.3.3-.4.4a9.2 9.2 0 0 0-1 1.1l-.1.2-.2.2v.2l-.2.2v.2l-.1.3-.1.5c-.1 2.3 2.3-.3 4.7-1 0 0-4 4.2-4.3 7.8-.3 3.7 2.5.7 2.5.7s.7-2 2.1-3.4c0 0-3.2 6-2.3 14.1.9 8 11 20.5 34.3 22.7a45.7 45.7 0 0 0 2.6.2Z" style="fill:#91682c"/><path d="M106.1 81.4s.1-2.2-1.1-3.3" style="stroke:#5b2307;stroke-width:1.21px;fill:none;stroke-linecap:round;stroke-linejoin:round"/><path d="M118.3 84.2c-5.7 0-10.2-5.2-10.2-11.6S112.6 61 118.3 61s10.2 5.2 10.2 11.6-4.6 11.6-10.2 11.6Z" style="fill:#f7d33c"/><path d="M118.3 61.6c5.3 0 9.6 5 9.6 11s-4.3 11-9.6 11-9.6-5-9.6-11 4.3-11 9.6-11m0-1.2c-6 0-10.8 5.4-10.8 12.2s4.8 12.2 10.8 12.2S129 79.3 129 72.6s-4.9-12.2-10.8-12.2Z" class="cls-1"/><path d="M118.3 61.6c-5.3 0-9.6 5-9.6 11 0 2.7.8 5.2 2.3 7.1 0 0 2-5.6 7.8-5.8 5.4-.2 6.5 4.5 6.6 6a12 12 0 0 0 2.5-7.3c0-6-4.3-11-9.6-11Z" style="fill:#ed9935"/><path d="M122.9 71c0 4.2-3 7.5-6.5 7.5s-6.5-3.3-6.5-7.5 2.9-7.5 6.5-7.5 6.5 3.4 6.5 7.5Z" class="cls-18"/><path d="M115.5 86s1.2-3.3 5.8-4.2 6.2 1.4 6.2 1.4" style="stroke:#5b2307;stroke-width:1.21px;fill:#c4964d;stroke-linecap:round;stroke-linejoin:round"/><path d="M110.8 65.2c-1.7 1.5-2.1 4-.9 5.3 1.3 1.4 3.7 1.2 5.4-.3 1.7-1.6 2-4 .8-5.3-1.2-1.4-3.6-1.3-5.3.3Zm13.7 13c0 .4-.6.7-1.5.7s-1.5-.3-1.5-.7.7-.7 1.5-.7 1.5.4 1.5.7Z" class="cls-3"/><path d="M134.1 142.5c-3 0-4.4-1.1-5-1.8H127c-4.8 0-14-.5-22.6-4-9.7-4.1-11.8-6.6-13-8.1l-.7-.8a5.5 5.5 0 0 1-1.7-3l-.2-.6h-.1c-2.5-2.3-3.7-4.7-3.6-7v-2c0-2.6-.1-5.3 1-6.6a2 2 0 0 1 1.5-.6c.3 0 .6 0 1 .2.2 0 .4.3.4.6 0 .8.1 3 1.3 3.8 1.6 1.1 5.8 3.7 8 3.7h.2c1.8-.2 1.8-.7 1.8-1.4 0-1 .5-3.6 2.4-4l.7-.2c1.3 0 1.8 1.2 2 1.7l.1.1.5.2c.7.4 2 1 3 2 1.1 1.5 4.2 3.6 5.9 4.4a5 5 0 0 0 1.7.5h.2l.2-1.3c.2-2.1.3-2.8.7-3l.5-.4c.5-.4.9-.6 1.2-.6h.3c.2 0 .4.2 1.3 2.3a3.3 3.3 0 0 1 3-.2 27.8 27.8 0 0 0 6 1.6c1 0 6.1.2 6.9.6l2.4 1c1-1.6 2.2-3.2 3.4-3.4l1.6-.4c.4-1.3.8-3.4.5-4.2-.5-1.5-1.2-3.5.3-4.7a2 2 0 0 1 1.3-.5c1.3 0 2.7 1.3 3.5 2.5 1.1 1.5 1.7 2.4 1.4 3.4l-.3 2.8a14.1 14.1 0 0 0 5.5 0c0-1 0-2.5 1.3-3a6 6 0 0 1 2-.3c.6 0 1 0 1.1.2l.3.2c-.4-4 .2-4.2.5-4.4l.6-.1c.7 0 1.4.4 2.3 1.1.7.7 1.7 2.4 1.5 3.4a14 14 0 0 1-2.3 4c-1 1.3-1.2 3-1.2 4.2s-1.4 2.2-2.4 3l-1 .9s-9.5 13.9-18.1 16.9c-2.7.9-5 1.4-6.9 1.4Zm-29.7-27c-.5 0-1 .4-1 1.2 0 1.4.7 5 2.2 5h.2c.7-.2 1.2-.7 1.4-1.6.3-1.1-.1-2.9-2.2-4.3a1 1 0 0 0-.6-.2Z" class="cls-17"/><path d="M146.3 107c1 0 2.2 1 3 2.2 1.1 1.5 1.5 2.2 1.3 2.9-.2.6-.3 3.4-.3 3.4s1.3.4 3.3.4c1 0 2.1 0 3.4-.4 0 0-.4-2.3.9-2.8l1.8-.3.8.1 1.4 1.1s-.6-5 0-5.2l.3-.1c.6 0 1.3.4 1.8 1 .8.6 1.5 2 1.4 2.8-.2.6-1.2 2.5-2.2 3.8-1 1.3-1.3 3.2-1.3 4.5s-2.8 2.8-3.2 3.5c-.5.7-9.7 13.8-17.9 16.7-2.9 1-5 1.3-6.7 1.3-3 0-4.3-1.2-4.6-1.9l-2.6.1c-4.4 0-13.8-.5-22.4-4-11.7-5-12.1-7.5-13.6-8.7-1.4-1.2-1.4-3.2-1.8-3.6-.3-.4-3.6-3-3.5-6.6 0-3.3-.6-8.6 2-8.6l.7.1s-.1 3.1 1.5 4.3c1.6 1.2 6 3.9 8.4 3.9h.3c2.3-.2 2.3-1.2 2.3-2s.4-3.2 2-3.5h.5c1.1 0 1.4 1 1.6 1.4.2.4 2.1.8 3.5 2.3a23 23 0 0 0 6.2 4.5c.8.4 1.4.6 2 .6s.7-.2.7-.6c.2-.8.3-3.6.6-3.9.4-.2 1.2-.9 1.4-.9.3.1 1.4 2.7 1.4 2.7s.7-.8 1.9-.8c.3 0 .6 0 1 .2 1.7.6 4.8 1.7 5.7 1.7h.7c1.6 0 6 .2 6.5.5.5.2 2.3 1.1 2.9 1.1h.1c.3-.3 2-3.2 3.3-3.5l2-.4s.9-3.6.5-5c-.5-1.3-1-3 0-4a2 2 0 0 1 1-.3m-40.7 15.2h.2c2.3-.2 3.4-4.3-.5-7l-1-.2c-.7 0-1.5.6-1.5 1.7 0 1.4.6 5.5 2.8 5.5m40.7-16.4c-.6 0-1.2.2-1.7.6-1.8 1.5-1 3.9-.5 5.3.2.6 0 2.2-.4 3.6l-1.2.3c-1.3.2-2.5 1.7-3.5 3.3l-2-.9c-1-.5-7-.6-7-.6h-.7c-.5 0-3-.8-5.3-1.6a4 4 0 0 0-2.8 0c-.8-1.9-1-2-1.4-2l-.5-.2c-.5 0-1 .4-1.6.8-.1.2-.3.3-.4.3-.7.5-.8 1.4-1 3.5v.7l-1.2-.4c-1.7-.8-4.6-2.8-5.8-4.1-1-1.3-2.4-1.9-3.2-2.3h-.2c-.3-.6-1-2-2.6-2a3 3 0 0 0-.8.1c-2.3.5-2.9 3.3-2.9 4.6 0 .6 0 .7-1.2.9h-.2c-1.8 0-5.6-2.1-7.7-3.7-.9-.6-1-2.6-1-3.2 0-.6-.3-1-.8-1.2l-1.1-.2c-.8 0-1.5.3-2 .8-1.3 1.4-1.3 4.2-1.2 7v2c0 2.5 1.2 5 3.8 7.4v.4c.3.8.7 2.2 2 3.3l.6.7c1.3 1.5 3.4 4 13.2 8.1a62 62 0 0 0 24.9 4.2c.7.8 2.2 1.8 5.2 1.8 2 0 4.4-.4 7-1.4 8.9-3 18.5-17 18.6-17.1l.8-.7c1.1-1 2.6-2.1 2.6-3.5 0-1.2.3-2.8 1.1-3.8a14 14 0 0 0 2.4-4.3c.2-1.3-.9-3.1-1.7-4-1-.8-1.9-1.2-2.7-1.2-.3 0-.6 0-.9.2-.5.2-1.1.5-.9 4l-.7-.1a6 6 0 0 0-2.3.4c-1.2.5-1.6 1.7-1.7 3a14.4 14.4 0 0 1-4.2 0l.2-2.2c.5-1.2-.3-2.3-1.4-3.9-.4-.6-2-2.7-4-2.7ZM105.6 121c-.8 0-1.5-2.5-1.5-4.3 0-.3 0-.5.3-.5h.2c1.9 1.3 2.3 2.8 2 3.8 0 .4-.4 1-1 1Z" class="cls-7"/><path d="M161.9 108.4c-.6.3 0 5.2 0 5.2s-1.2-1-1.4-1c-.2-.2-1.4-.3-2.6.1-1.2.5-.9 2.8-.9 2.8-2.6.6-4.7.4-5.8.2s.5 4-1.2 6.3c-1.7 2.2-13.3 4.2-18 6.7-4.5 2.6-16.8 1.1-25.5-2C98 123.4 94 121 93 115l-3.2-2c-1.6-1.3-1.5-4.3-1.5-4.3-3.5-1.1-2.6 4.9-2.7 8.4-.1 3.6 3.2 6.3 3.5 6.6.4.4.4 2.4 1.8 3.6 1.5 1.2 1.9 3.8 13.6 8.7 11.8 4.9 25 4 25 4 .5 1 3 3.4 11.3.5 8.2-2.9 17.4-16 17.9-16.7.4-.6 3.2-2.2 3.2-3.5s.3-3.2 1.3-4.5c1-1.3 2-3.1 2.2-3.8.1-.7-.6-2.1-1.4-2.8-.7-.7-1.5-1.2-2.1-.9Z" style="fill:url(#linear-gradient)"/><path d="M146.3 107.6c.7 0 1.7.8 2.5 2 1 1.3 1.4 1.9 1.2 2.3-.2.7-.3 3.1-.3 3.6 0 .3.2.5.5.6a17.3 17.3 0 0 0 7 0c.3 0 .5-.4.4-.7 0-.6 0-1.9.5-2.1a5 5 0 0 1 1.6-.3h.5a33.4 33.4 0 0 1 1.7 1.2.6.6 0 0 0 .6-.7c-.3-1.8-.4-4-.2-4.6 0 0 .5 0 1.3.8.7.6 1.3 1.9 1.2 2.3-.1.4-1 2.2-2 3.5a8.4 8.4 0 0 0-1.5 4.9c0 .5-1.3 1.6-2 2.1a6 6 0 0 0-1.1 1c-.1.2-9.4 13.7-17.6 16.5-2.5.9-4.7 1.3-6.5 1.3-3 0-4-1.3-4-1.5a.6.6 0 0 0-.6-.4l-2.6.1a60 60 0 0 1-22.1-4c-9.5-4-11.4-6.3-12.6-7.7l-.9-.9a4.6 4.6 0 0 1-1.3-2.4c-.1-.5-.2-.9-.4-1.1l-.2-.1c-2.2-2-3.3-4.1-3.2-6v-2.1c0-2.2-.1-4.9.7-5.7.2-.2.4-.3.7-.3h.1c0 1 .3 3.3 1.8 4.3 1.4 1 6 4 8.7 4h.4c2.6-.3 2.8-1.5 2.8-2.6 0-.8.4-2.7 1.5-3h.4c.5 0 .7.3 1 1l.1.2c.2.3.5.5 1 .7a7 7 0 0 1 2.5 1.7c1.5 1.7 4.8 4 6.4 4.7 1 .4 1.7.6 2.2.6.8 0 1.3-.4 1.5-1l.1-1.4.3-2.2.4-.3.4-.3 1 2.1c0 .2.2.4.4.4h.1c.2 0 .3 0 .4-.2 0 0 .6-.6 1.5-.6a31.3 31.3 0 0 0 6.7 2h.7l6.3.3a11 11 0 0 0 3.1 1.2l.6-.2.3-.4c1.2-1.8 2-2.7 2.6-2.9l2-.4c.2 0 .4-.2.4-.4.2-.4 1-3.8.6-5.3-.6-1.6-.9-2.8 0-3.4 0-.2.2-.2.4-.2m-40.6 15.2h.2c1.2-.1 2.2-1 2.5-2.4.4-1.5-.1-3.8-2.7-5.6a2 2 0 0 0-1.3-.4c-1 0-2.1.8-2.1 2.3 0 1.6.6 6.1 3.4 6.1m40.7-15.8c-.4 0-.7 0-1 .3-1.1 1-.6 2.7-.1 4.1.4 1.4-.5 4.9-.5 4.9l-2 .5c-1.4.3-3 3.1-3.2 3.4h-.2c-.5 0-2.3-.8-2.9-1.1-.5-.3-4.8-.5-6.5-.5h-.6c-1 0-4-1-5.8-1.7-.3-.2-.7-.2-1-.2-1.1 0-1.9.8-1.9.8s-1-2.6-1.3-2.7c-.3 0-1 .7-1.4 1-.4.2-.5 3-.6 3.8 0 .4-.4.6-.8.6s-1.2-.2-2-.6a23 23 0 0 1-6.2-4.4c-1.4-1.6-3.2-2-3.5-2.4-.2-.3-.4-1.5-1.6-1.5h-.5c-1.6.5-2 2.7-2 3.6s0 1.8-2.3 2h-.2c-2.5 0-6.8-2.7-8.4-3.9-1.7-1.2-1.6-4.3-1.6-4.3h-.7c-2.6 0-1.9 5.2-2 8.5 0 3.5 3.2 6.3 3.6 6.6.4.4.4 2.4 1.8 3.6 1.4 1.2 1.8 3.8 13.6 8.7 8.6 3.5 18 4 22.3 4h2.6c.4.6 1.6 1.8 4.7 1.8 1.6 0 3.8-.3 6.6-1.3 8.3-2.9 17.5-16 18-16.7.4-.7 3.1-2.2 3.1-3.5s.4-3.2 1.4-4.5c1-1.3 2-3.2 2.1-3.8.1-.7-.6-2.1-1.3-2.8-.6-.6-1.3-1-1.8-1h-.4c-.6.4 0 5.3 0 5.3s-1.1-1-1.4-1c0-.1-.3-.2-.7-.2a5 5 0 0 0-1.9.4c-1.2.4-.8 2.7-.8 2.7-1.3.3-2.5.4-3.5.4-2 0-3.2-.4-3.2-.4s0-2.7.3-3.4c.2-.7-.3-1.4-1.3-2.9-.8-1.1-2-2.2-3-2.2Zm-40.7 15.2c-2.2 0-2.8-4-2.8-5.5 0-1 .7-1.7 1.5-1.7l1 .3c3.8 2.7 2.8 6.7.4 7h-.1Z" class="cls-17"/><path d="M151.7 115.8a10 10 0 0 1-1.4-.3s.1-2.8.3-3.5c.3-.6-.2-1.3-1.3-2.8-1-1.5-2.8-2.9-4-2-1 1-.5 2.8 0 4.2.4 1.3-.6 4.9-.6 4.9l-2 .4c-1.3.3-3 3.2-3.2 3.4-.2.3-2.4-.7-3-1-.6-.3-6.2-.6-7-.5-.9 0-4.1-1-5.9-1.7-1.7-.7-3 .6-3 .6s-1-2.6-1.2-2.7c-.2 0-1 .7-1.4 1-.4.2-.5 3-.6 3.8-.2.7-1.2.7-2.8 0a23 23 0 0 1-6.2-4.5c-1.4-1.6-3.3-2-3.5-2.3-.2-.4-.5-1.8-2-1.4-1.7.3-2 2.6-2 3.4s0 1.8-2.4 2c-2.3.3-7-2.6-8.7-3.8-1.6-1.2-1.5-4.3-1.5-4.3l-.8-.1c-1 6.5 8.6 8.6 9.8 9 1.1.5 3.6-.9 3.6-.9s1-3.6 2.1-4c1.1-.4 1.5 1.5 2.2 1.5s4.3 2.8 6.4 4.9c2.1 2 6.2 2.5 6.2 2.5l1.4-3.1c.7-1.4 3 .9 3.2.9s1.8-.7 3 .2c1.4.9 5 .2 8 .5 2.7.3 6.2 2 6.2 2s1.5-1.5 2.6-3c1-1.4 3.3-1.2 3.3-1.2s1.2-5.1.9-6.8c-.3-1.7-.5-4.1 1.6-2.2 2 1.9 1.1 7.2 1.1 7.2l2.6-.3Z" class="cls-3"/><path d="M150.3 100.6c-1.5 0-3.7-.5-4 0-.1.5 3.7 4.6 4.6 5.4 1 1 4 .3 4-1.5s-2-3.9-4.6-3.9Z" style="fill:#b7eae8;stroke:#3c7bd6;stroke-width:1.21px;stroke-linecap:round;stroke-linejoin:round"/><path d="M125.2 62h-.4c-1.3-.3-2-1.6-2.6-2.6-.1-.3-.2-.6-.4-.7l-.1-.3c-.6-.8-1.2-1.7-2.8-2a9 9 0 0 0-1.9-.2h-2.3c-1 0-2.1 0-2.8-.4a2 2 0 0 1-1-2c0-.8.5-1.7 1-2a12.4 12.4 0 0 1 8.7 0c.5.3 2 .4 3.3.6l3 .4c2 .4 4 2.6 5.2 3.8l.5.5c.8.8 1.4 1.4 1.4 2 0 .3-.1.6-.5.8-.2.2-.6.3-1 .3a5 5 0 0 1-2.5-.9c-.3-.1-1.2-.3-2.8-.3 0 .8-.2 1.7-.7 2.3-.4.5-.8.7-1.4.7Z" style="fill:url(#linear-gradient-2)"/><path d="M116 51.6c2 0 3.8.5 4.4.8.8.5 4.5.6 6.4 1 1.8.4 4 2.8 5 3.8s2 1.8 1.4 2.3a1 1 0 0 1-.7.1c-.7 0-1.6-.4-2.2-.8-.6-.4-2.7-.4-3.5-.4h-.3c.2 1.3-.2 3-1.4 3h-.2c-1.4-.3-2-2.3-2.6-3.1-.6-.8-1.3-2-3.2-2.5-.6-.2-1.3-.2-2-.2h-2.4c-1 0-2 0-2.5-.4-1.3-.8-.5-2.6 0-2.8 1.1-.6 2.5-.8 3.8-.8m0-1.2c-1.7 0-3.2.3-4.3.9-.7.4-1.4 1.5-1.4 2.5s.4 2 1.2 2.4c.9.6 2 .6 3.2.6h2.3a8 8 0 0 1 1.8.1c1.3.4 1.8 1.1 2.3 1.8l.2.3.4.6c.6 1.1 1.4 2.6 3 3h.4c.7 0 1.4-.3 1.8-.9a4 4 0 0 0 .8-2.1c1.1 0 1.8.1 2 .2a5 5 0 0 0 2.8 1c.6 0 1-.1 1.4-.4.4-.3.6-.7.6-1.2.1-1-.6-1.7-1.5-2.6l-.4-.3-.1-.2c-1.2-1.2-3.4-3.5-5.5-4l-3-.4c-1.1 0-2.7-.3-3-.4-.9-.4-3-.9-5-.9Z" class="cls-7"/><path d="M117.3 52.6c2.6.8 4.3 1.5 6 1.4 1.6 0 10.1 4.4 9.4 5.6.2 0 .4 0 .5-.2.6-.4-.4-1.3-1.4-2.3-1-1-3.2-3.3-5-3.7-1.9-.4-5.5-.6-6.4-1-1-.5-5.4-1.4-8.1 0-.2 0-.5.4-.6.8a9 9 0 0 1 5.6-.6Zm36.1 51.2c-.2.4-1 .4-1.7 0-.7-.3-1.1-1-1-1.3.2-.4 1-.4 1.7 0 .8.3 1.2 1 1 1.3Z" class="cls-3"/><path d="M133.5 84.8c.3.9.6 1.8 1.2 2.5a6 6 0 0 0 2.1 2.1c.3.2.7 0 .8-.2.2-.3 0-.6-.2-.8A6.8 6.8 0 0 1 136 87l-.1-.1-.3-.3a7 7 0 0 1-.6-1.2v-.3l-.3-.7a.6.6 0 0 0-.8-.4c-.3 0-.5.4-.4.7Zm4.4-.3c1 1 2 1.9 3.1 2.5.3.1.7 0 .9-.2.1-.3 0-.7-.3-.8l-.8-.6-.2-.1s-.2-.2 0 0l-.2-.2a14 14 0 0 1-1.6-1.5c-.3-.2-.7-.2-.9 0s-.2.6 0 .9Zm18.7 8.5c3 2.4 4.6 6 4.7 9.8 0 .7 1.2.7 1.2 0 0-4.2-1.8-8.1-5-10.7-.6-.5-1.5.3-.9.8Zm-.5 6.4a3.3 3.3 0 0 1 1.2 3.7c0 .3.2.7.5.8s.6-.1.7-.5c.5-1.8-.1-3.7-1.5-4.9a.8.8 0 0 0-.9 0c-.2.2-.2.7 0 .9Zm-14.7-15.7 1 .9.5.2c.2 0 .3 0 .4-.2l.2-.4c0-.1 0-.3-.2-.5l-1-.9-.5-.2-.4.2-.2.5.2.4Zm-16.1 16.1c-.2 3 2.6 4.7 5 5.6.3 0 .7-.2.8-.5 0-.3-.1-.6-.5-.7-1-.4-2-1-2.9-1.6-.8-.8-1.3-1.7-1.2-2.8 0-.4-.3-.6-.6-.6-.4 0-.6.2-.6.6Z" style="fill:#703c16"/><path d="M50.1 87.7s22.5 5.5 46.2.4l6.2-8-46.3 6-6 1.6Z" style="fill:#a18f70;stroke:#5b2307;stroke-width:1.21px;stroke-linecap:round;stroke-linejoin:round"/><path d="M50.1 87.7s11.2-2 22.7-3.6L95.6 81l3.5.8s-2 2.5-13.8 4.3S50 87.7 50 87.7Z" style="fill:#d2001e;stroke:#5b2307;stroke-width:1.21px;stroke-linecap:round;stroke-linejoin:round"/><path d="M92.7 81.8c-16 0-42.5-3-42.7-3a.6.6 0 0 1 0-1.2h.4c24.2-.6 43.7-1.9 44-1.9.2 0 .5.2.5.4 1 2.8 6 3.1 8 3.1h1.2c.3 0 .6.1.6.4.1.3 0 .5-.2.7-1 .7-3.2 1.1-6.5 1.3a89 89 0 0 1-5.3.2Z" style="fill:#ceb891"/><path d="M94.4 76.3c1 3.1 6 3.5 8.5 3.5h1.3c-1 .6-3.3 1-6.3 1.2a91 91 0 0 1-5.2.1 490 490 0 0 1-42.6-3h.3c24.5-.5 44-1.8 44-1.8m0-1.2h-.1c-.2 0-19.7 1.3-44 1.8H50c-.6 0-1.1.5-1.2 1.1 0 .7.5 1.2 1.1 1.3.3 0 26.8 3 42.8 3H98c3.5-.3 5.6-.8 6.8-1.5.4-.2.6-.6.6-1 0-.7-.6-1.2-1.2-1.2h-1.3c-1.5 0-6.5-.2-7.4-2.7-.2-.5-.6-.8-1.1-.8Z" class="cls-1"/><path d="M80.8 109.9c-.6 0-.9-1-1.2-6.8v-1.7l-.5-.9c-.2-.5-.5-1-.4-1.6l-.8-9.9v-.2h.2c.7-.3 1.8-.5 3.2-.5l1.5.1h.3v.3l-.4 7.4c0 1.2-.3 2-.6 2.5-.2.5-.4 1-.3 1.4 0 .1.3 9.6-1 9.9Z" style="fill:url(#linear-gradient-3)"/><path d="M81.3 88.7h1.5s-.4 5.4-.4 7.4c-.1 2-1 2.8-1 4a35 35 0 0 1-.6 9.5c-.8 0-.9-7.5-1-8.2-.1-.8-1-1.7-.9-2.4.1-.8-.7-10-.7-10 .8-.3 2-.3 3-.3m0-.6a10 10 0 0 0-3.2.4l-.4.1v.5l.8 9.8c-.1.6.2 1.2.5 1.8l.3.8.1 1.6c.3 6.2.6 7 1.5 7 .7 0 1-.5 1.2-4.9V100l.3-1.3c.3-.6.6-1.4.7-2.6 0-2 .4-7.3.4-7.4v-.5h-.6l-1.6-.2Z" class="cls-7"/><path d="M66.2 111.1c-.1 0-.3 0-.4-.2-.3-.3-.5-1-.4-3.8v-5.3c-.6-.4-.7-1.7-.6-3.6l-.3-7.5v-.3h.3s3-.3 5.4-.3c2.1 0 2.6.3 2.8.5v.5a39 39 0 0 0-1 6.2c-1 5.8-1 5.9-1.4 5.9-.5 0-.6-.8-.6-3v-.6l-.5-4-.5 3.9c0 1.3-1 4-1 4.3l-.5 2.5c-.6 4.3-.8 4.7-1.2 4.8Z" style="fill:url(#linear-gradient-4)"/><path d="M70.2 90.4c1.5 0 2.7.1 2.5.6-.5 1.2-1.7 11.8-2.1 11.8-.4 0-.3-2.3-.3-3.2 0-1-.8-6-.8-6s-.9 4.7-.9 5.9c0 1-.6 3.3-1 4.2-.2.8-.9 7-1.3 7-.5 0-.7-.8-.6-3.6v-5.4c-.6-.3-.6-1.8-.6-3.5l-.3-7.5s3-.3 5.4-.3m0-.6c-2.3 0-5.3.3-5.5.3h-.5v.7s.4 5.7.3 7.4c0 2 0 3.2.5 3.8 0 .7.2 2.9.1 5.1-.1 2.8.1 3.6.5 4 .2.2.4.3.7.3.7 0 .9-.6 1.5-5l.5-2.6c0-.3 1-3 1-4.3 0-.4 0-1.1.2-2l.2 2v.6c0 2.2 0 3.3.9 3.3.7 0 .8 0 1.6-6l1-6.2c.2-.2.2-.5 0-.8-.2-.4-.8-.6-3-.6Z" class="cls-7"/><path d="M53 104.8c-.5 0-.6-.4-.8-5.4 0-1.5 0-3-.2-4l-.5-6V89h.2c0-.1 2.9-1.1 4.3-1.1.8 0 1 .3 1 .6.1.7-.6 3.1-1.5 6L55 96l-.7 4c-.7 4.4-.8 4.8-1.2 4.8Z" style="fill:url(#linear-gradient-5)"/><path d="M56 88.3c.4 0 .7 0 .7.3.2 1-1.5 5.7-2 7.3-.5 1.7-1.2 8.6-1.7 8.6-.4 0-.4-6.5-.7-9.2l-.5-6s2.8-1 4.2-1m0-.6c-1.5 0-4.3 1-4.4 1l-.5.2v.4l.6 6 .3 4.1c.2 5 .2 5.7 1 5.7h.1c.7 0 .8-.5 1.5-5a40.3 40.3 0 0 1 1.2-5.5c1-3 1.7-5.2 1.5-6 0-.4-.3-1-1.3-1Z" class="cls-7"/><path d="M81.3 89.3h.9a318 318 0 0 0-.4 6.8c0 1-.3 1.6-.6 2.2-.2.6-.4 1.1-.3 1.8l-.1 6.7a103.4 103.4 0 0 1-.4-5.5c0-.4-.3-.8-.5-1.2-.2-.4-.4-.8-.3-1l-.7-9.6a11 11 0 0 1 2.4-.2m0-.6c-1 0-2.3 0-3 .3 0 0 .8 9.2.7 10-.1.7.7 1.7.8 2.4.1.7.3 8.2 1 8.2.8-.2.7-8.3.7-9.5-.1-1.2.8-2 .9-4 0-2 .4-7.4.4-7.4h-1.5ZM70 91c1.2 0 1.8.2 2 .2l-1 6-.3 1.4a181 181 0 0 0-.6-5l-.4-2.5h.2m-.5 0-.5 2.5c0 .2-1 4.7-1 5.9 0 1-.6 3-1 4l-.4 2.7-.4 2.3v-1.3c.2-2.8 0-5.5 0-5.6v-.3l-.3-.1a125.3 125.3 0 0 0-.4-9.9l4-.3m.5-.6c-2.3 0-5.1.3-5.1.3s.3 5.7.2 7.5c0 1.7 0 3.2.5 3.5 0 0 .2 2.6 0 5.4-.1 2.8 0 3.7.5 3.7s1.2-6.3 1.5-7.1c.3-.9 1-3 1-4.2 0-1.1 1-5.8 1-5.8a103.4 103.4 0 0 0 1 9.2c.4 0 1.7-10.6 2.2-11.8.3-.5-1.1-.7-2.8-.7ZM56 88.8h.2a38 38 0 0 1-1.6 5.3l-.5 1.6-.8 4-.2 1.2a108.2 108.2 0 0 1-.2-5.8l-.4-5.5c1-.3 2.6-.8 3.5-.8m0-.6c-1.4 0-4.2 1-4.2 1l.5 6c.2 2.7.2 9.2.6 9.2.5 0 1.3-7 1.8-8.5.5-1.7 2.2-6.4 2-7.4 0-.2-.3-.3-.7-.3Z" class="cls-3"/><path d="M81.5 95.8c0 .7-.3 1.3-.7 1.3-.4 0-.8-.5-.9-1.2 0-.7.3-1.4.7-1.4.4 0 .8.5.9 1.3Zm-14.4.2c0 1-.5 1.8-1 1.8-.4 0-.7-.9-.7-2 .1-1 .5-1.8 1-1.8s.8 1 .7 2Zm37.1-16.2c-1 .6-3.3 1-6.3 1.2-2-.5-4-1.5-5.2-3.2 0 0-31 1.2-42.3.3 24.5-.5 44-1.8 44-1.8 1.4 4 9.3 3.5 9.8 3.5Z" class="cls-3"/><path d="M82.8 28.8c0-4-.7-7.7-2-10.8a26.8 26.8 0 0 0-5-9.4C70.3 1.8 61.2.8 52.8.2A45 45 0 0 0 21 9.4a50.3 50.3 0 0 0-20.6 31c-1.7 9 1.7 16.1 7.3 19.3 1.8 1.3 3.9 2.2 6 2.9 2 1 5.4.8 7.9 1.5 1.8.5 3.1 2.9 3.1 2.9l2.7 4.4c1.4 2.1 3 4.1 5 5.6.8.9 1.7 1.8 2.7 2.6 1.5 1.2 4.3 3.3 6.1.2 1.2-4.8-1.4-8.7-.7-13.6 3.9-2.8 8.2-3.9 12.2-5.7C60 57.2 69.3 54.9 75.8 48c5.4-5.5 6.5-12.1 7-19.3Z" style="fill:#491a07"/><path d="m26.8 66-2.4-3.6a5 5 0 0 0-3.8-1.8c-3.1-.4-6.3-1-9-2.5-2.3-1-4.7-2.4-6.6-4.3-3.8-5.2-2.4-15.3.7-23A51.4 51.4 0 0 1 16 16.5a51 51 0 0 1 46.7-11 32 32 0 0 1 7.9 4.3l.6.6a34.8 34.8 0 0 1 5.2 5.3c.9 1.3 1.6 2.7 2.3 4.2l.1.5c.4.5.5 2 .9 2.8 1 4.3.6 9.6-1 14.4a26.2 26.2 0 0 1-9.3 12.6c-8.3 6.2-17.7 7.6-26.4 11-8.7 2.6-5.5 9.3-4 15.4v1.2h-.2l-2.5-1.1c-3.5-3-6.4-7-9.4-10.6Z" class="cls-3"/></g></svg>