<svg xmlns="http://www.w3.org/2000/svg" viewBox="0 0 117.96 111.28"><defs><linearGradient id="linear-gradient" x1="90.35" x2="90.35" y1="59.64" y2="25.98" gradientTransform="rotate(6.3 -243.42 -81.52)" gradientUnits="userSpaceOnUse"><stop offset="0" stop-color="#dbffff"/><stop offset="1" stop-color="#339ed3"/></linearGradient><style>.cls-1{fill:#755b46}.cls-2{fill:#4c1a09}.cls-3{fill:none;stroke:#4c1a09;stroke-width:.6px;stroke-linecap:round;stroke-linejoin:round}.cls-4{fill:#b7eae8}.cls-5{fill:#3c7bd6}.cls-7{fill:#5b2307}.cls-14{fill:#fff}</style></defs><g id="Layer_2" data-name="Layer 2"><g id="Layer_1-2" data-name="Layer 1"><path d="M74.6 110.67a1.2 1.2 0 0 1-1.07-.59c-1-1.67 1.2-5 3.08-7.41-.54.25-1.19.57-1.86.9-2.38 1.18-3.57 1.73-4.18 1.73a.75.75 0 0 1-.72-.44c-.19-.47.12-.92.78-1.58 2.7-2.74 9.82-6.34 10.57-6.72 1-.74 7.64-5.79 10-5.79a1.27 1.27 0 0 1 1 .4 1.42 1.42 0 0 1 .26 1.18c-.4 2.76-3.39 13.48-6.54 13.5a1.47 1.47 0 0 1-1.3-.65c-.51-.76-.37-2.09-.08-3.31l-.79.87c-4.08 4.48-7.37 7.91-9.15 7.91Z" class="cls-1"/><path d="M91.24 91.37c.5 0 .76.26.66.89-.52 3.59-3.6 13-6 13-2.32 0 0-5.64 0-5.64-1.73 1.47-9 10.46-11.37 10.46a.59.59 0 0 1-.55-.3c-1.31-2.22 5.16-9.22 5.16-9.22l-2 1.2c-1.63.62-5.77 3-6.65 3-.3 0-.22-.28.48-1 2.76-2.79 10.47-6.63 10.47-6.63s7.41-5.71 9.72-5.71m0-1.21c-2.48 0-8.45 4.42-10.37 5.89-1 .5-8 4.06-10.67 6.81-.52.52-1.29 1.3-.9 2.24a1.34 1.34 0 0 0 1.27.8c.71 0 1.76-.47 4.1-1.62-1.48 2.23-2.54 4.61-1.66 6.1a1.81 1.81 0 0 0 1.59.9c1.79 0 4.4-2.44 9.12-7.55a3.15 3.15 0 0 0 .43 1.8 2.08 2.08 0 0 0 1.79.92c4 0 7-12.59 7.16-14a2 2 0 0 0-.4-1.66 1.86 1.86 0 0 0-1.46-.62Z" class="cls-2"/><path d="M74 106.87s3.16-1.44 4.6 1.34m-2.53-4.94s5.21-2.89 6.64.62m-9.8-2.46a2.15 2.15 0 0 1 1.13 2.4m10.29-1.06s2.25-3 5.27-1.71M78.11 98.9a1.52 1.52 0 0 1 2.07.53S84 97 86.37 98.4c0 0 2.93-3.36 5.16-2.09" class="cls-3"/><path d="M36.18 91.76a1.39 1.39 0 0 1-1.13-.4 1 1 0 0 1-.2-.81c.17-.9 1.52-1.76 2.94-2.44h-8.68A2 2 0 0 1 27 86.48a1.94 1.94 0 0 1 1.55-2 31.36 31.36 0 0 1 4.8-.58c-3.15-1.49-3.46-2.34-3.33-3 .08-.36.43-1 1.95-1a6.54 6.54 0 0 1 1.22.12 78.24 78.24 0 0 1 8.14 2.52c.33.11 8.3 2.86 8 5.18-.16 1.28-2.33 1.66-4.86 2.13-.7.13-1.39.26-2 .4s-1.13.31-1.81.5a20.17 20.17 0 0 1-4.51 1Z" class="cls-1"/><path d="M32 80.49a6.23 6.23 0 0 1 1.11.11 81.81 81.81 0 0 1 8 2.5c3.92 1.34 7.74 3.4 7.58 4.53s-4.12 1.48-6.38 2c-1.66.41-4.77 1.5-6.18 1.5-.51 0-.8-.14-.73-.5.25-1.36 5.28-3.1 5.28-3.1-.81 0-2-.06-3.37-.06h-8.22c-1.84-.09-2.05-2-.39-2.52s9.8-.85 9.76-.87-4.11-.48-4.11-.48c-5-2.19-4.17-3.16-2.4-3.16m0-1.2c-1.94 0-2.42.91-2.54 1.46-.19.92.33 1.75 1.82 2.67a16.71 16.71 0 0 0-2.87.43 2.56 2.56 0 0 0-2 2.7 2.6 2.6 0 0 0 2.65 2.18h6.48a3.05 3.05 0 0 0-1.3 1.72 1.57 1.57 0 0 0 .32 1.3 2 2 0 0 0 1.6.63 20.32 20.32 0 0 0 4.68-1c.67-.19 1.31-.38 1.79-.5s1.22-.26 1.93-.39c2.87-.53 5.13-.94 5.36-2.64.35-2.57-5.75-4.94-8.39-5.85a83 83 0 0 0-8.22-2.54 7.73 7.73 0 0 0-1.26-.12Z" class="cls-2"/><path d="M31.25 84.09a3 3 0 0 1 .42 3.82M35.32 84s3.09.89 1.61 3.75m-2.48-7.28s1.07 1.45-.64 3.32M38.39 88a2.48 2.48 0 0 1 2 2.94m-2-9.38c0 .22 1.44.85.86 2.53 0 0 2.8.58 2.33 3.06 0 0 2.84.49 2.4 2.66" class="cls-3"/><path d="M51.69 89.22c-2.91 0-7-.64-9.94-3.67-4.84-5-2.18-11.37-2.15-11.44a.58.58 0 0 1 .55-.37.45.45 0 0 1 .16 0C49 76.13 54.78 87.64 55 88.13a.64.64 0 0 1 0 .54.6.6 0 0 1-.43.32 16.65 16.65 0 0 1-2.9.23Z" class="cls-4"/><path d="M40.15 74.35c8.5 2.31 14.33 14.05 14.33 14.05a16.11 16.11 0 0 1-2.79.22c-2.66 0-6.67-.57-9.51-3.49-4.61-4.74-2-10.78-2-10.78m0-1.21a1.21 1.21 0 0 0-1.11.73c-.12.28-2.84 6.84 2.27 12.1 3.09 3.18 7.35 3.85 10.38 3.85a17.47 17.47 0 0 0 3-.24 1.2 1.2 0 0 0 .85-.65 1.19 1.19 0 0 0 0-1.07c-.25-.5-6.18-12.25-15.09-14.68a1.17 1.17 0 0 0-.32 0Z" class="cls-5"/><path fill="#a36731" d="M76.74 92.13a38.86 38.86 0 0 1-8-.83c-23.49-5-32-18.9-32-27a27.32 27.32 0 0 1 1.81-9.69 3.34 3.34 0 0 1-1.65.62 1.17 1.17 0 0 1-1-.43 2.58 2.58 0 0 1-.22-2.18 13 13 0 0 1 3.46-5.73h-.08a5.75 5.75 0 0 1-1.92.58 1.08 1.08 0 0 1-.85-.36 1.63 1.63 0 0 1-.24-1.33c.34-2.15 3.28-3.88 4.44-4.49-.26-1.79-1.19-8.29 1.14-17.24 2.2-8.41 9.48-13.85 12.48-15.79-1.11-.38-2.11-1-2.21-1.89 0-.55.27-1.3 1.93-1.77a13.58 13.58 0 0 1 3.52-.38h.08c-.87-.47-1.49-1-1.55-1.58 0-.37.11-.9 1-1.3a3.87 3.87 0 0 1 1.6-.34 12.17 12.17 0 0 1 5.19 1.64 2 2 0 0 1-.12-1.5 1 1 0 0 1 .89-.54c1.46 0 3.3 2.23 4 3.07C88 5.38 95.15 18.3 97.64 28.86c1.54 6.52 6 10 11.12 14a29 29 0 0 1 8.56 11.5.79.79 0 0 1-.12.74.81.81 0 0 1-.65.3h-.28a19.28 19.28 0 0 1 .86 7.28.77.77 0 0 1-.79.72 1.32 1.32 0 0 1-.48-.11c.62 3.24-.19 7.23-1.09 7.95a44.68 44.68 0 0 0-4.35 5.88c-.22.74-14.52 15.01-33.68 15.01Z"/><path d="M64.5 1.21c1.33 0 3.57 3 3.57 3C90.14 6 95.48 22.34 97.06 29s6 10.2 11.33 14.34a28.52 28.52 0 0 1 8.35 11.18c.05.21 0 .28-.19.28a5.09 5.09 0 0 1-1.59-.69c1.83 2.64 1.65 7.78 1.57 8.48a.18.18 0 0 1-.19.19c-.45 0-1.54-1-1.54-1 1.36 3.19.37 8.34-.41 9a40.65 40.65 0 0 0-4.54 6.17c-.15.52-14.13 14.6-33.11 14.6a37.73 37.73 0 0 1-7.84-.82c-22.84-4.84-31.53-18.38-31.53-26.48a26.27 26.27 0 0 1 3.89-13.73 10.24 10.24 0 0 0-2.48 3.16 4.11 4.11 0 0 1-1.85.9c-.51 0-.87-.43-.58-1.89.71-3.56 5.18-7.21 5.18-7.21-1.68.23-3.45 1.37-4.31 1.37-.41 0-.61-.26-.49-1 .36-2.29 4.53-4.25 4.53-4.25s-1.73-7.08 1-17.4S55.7 8 55.7 8c-3-.44-4.53-2-1.71-2.83a13.12 13.12 0 0 1 3.36-.36 32.45 32.45 0 0 1 4.44.34s-7.47-2-4.69-3.27a3.13 3.13 0 0 1 1.38-.28c2.89 0 6.85 2.73 6.85 2.73s-2.19-3.08-.86-3.13M64.5 0h-.08A1.59 1.59 0 0 0 63 .88a1.62 1.62 0 0 0-.18.67A11.13 11.13 0 0 0 58.48.4a4.4 4.4 0 0 0-1.89.39 1.89 1.89 0 0 0-1.31 1.9 1.65 1.65 0 0 0 .42 1 10.7 10.7 0 0 0-2 .34c-2.16.61-2.41 1.75-2.37 2.38a2.54 2.54 0 0 0 1.54 2c-3.44 2.39-9.75 7.69-11.79 15.5A42.12 42.12 0 0 0 39.9 41c-1.45.8-4 2.51-4.37 4.71a2.26 2.26 0 0 0 .38 1.82 1.67 1.67 0 0 0 1.31.57h.17a11.15 11.15 0 0 0-2.22 4.41 3.22 3.22 0 0 0 .35 2.68 1.77 1.77 0 0 0 1.41.65 2.15 2.15 0 0 0 .61-.09 27.57 27.57 0 0 0-1.37 8.55c0 8.35 8.63 22.61 32.48 27.64a39.26 39.26 0 0 0 8.09.84c10.16 0 18.79-4 24.24-7.28s9.77-7.31 10-8.2a.63.63 0 0 1 0 .09 48.12 48.12 0 0 1 4.18-5.65c1-.83 1.83-4.48 1.43-7.72a1.4 1.4 0 0 0 1.15-1.24 21.42 21.42 0 0 0-.64-6.82 1.3 1.3 0 0 0 .58-.43 1.41 1.41 0 0 0 .24-1.26 29.75 29.75 0 0 0-8.78-11.83c-5-3.94-9.41-7.35-10.9-13.67-3.57-15.1-14-24.18-29.52-25.63C67.78 1.91 66 0 64.5 0Z" class="cls-7"/><path fill="#8e5424" d="M109.85 76.92a40.65 40.65 0 0 1 4.54-6.17c.78-.62 1.77-5.77.41-9 0 0 1.65 1.5 1.73.8s.26-5.84-1.57-8.48c0 0 2 1.24 1.78.41a28.52 28.52 0 0 0-8.35-11.18 50.24 50.24 0 0 1-7.19-6.3s7 9.28 5.65 17.16-4.6 4.44-4.6 4.44l-6.15-4.3s1.54 6.19-2.19 7.82-4.5-.51-4.5-.51.76 4-3.85 4.46-16.4-.85-21.49-2.44-11.71-4.57-11.94-8.44-.88-4.54-.88-4.54-5.85 6.25-6.08 2.86a11.94 11.94 0 0 1 1-5.77s-4.55 2.21-3.9.46a22.56 22.56 0 0 1 1.88-3.63A13 13 0 0 1 41 41.72c-.88.45-4 2.16-4.3 4.13-.36 2.29 2.33 0 4.8-.37 0 0-4.47 3.65-5.18 7.21s2.43 1 2.43 1a10.24 10.24 0 0 1 2.48-3.16 26.27 26.27 0 0 0-3.89 13.73c0 8.1 8.69 21.64 31.53 26.45s40.81-13.2 40.98-13.79Z"/><path fill="#b08136" d="M99.23 72.27C88.7 69.66 69.3 59.46 73 49.55s11.28-6.1 15.6-18.35-7.81-21.26-18-21.1-16.42 9.48-16.9 10.14-5.37.1-7.23-.52-.8-2.67-.76-2.76a21.94 21.94 0 0 0-3.49 7.24c-2.69 10.32-1 17.4-1 17.4s-4.17 2-4.53 4.25 2.33 0 4.8-.37c0 0-4.47 3.65-5.18 7.21s2.43 1 2.43 1a10.24 10.24 0 0 1 2.48-3.16 26.27 26.27 0 0 0-3.89 13.73c0 8.1 8.69 21.64 31.53 26.45 19.15 4 34.84-8 39.52-12.29-1.58-2.76-4.71-5.05-9.15-6.15Z"/><path fill="#8f662b" d="M71.5 91.15c.45.06.89.12 1.34.16l.71.07 1.24.08h2.59c.56 0 1.11 0 1.66-.06h.18c.61 0 1.22-.09 1.82-.16l.49-.06c.43-.06.87-.11 1.3-.18l.59-.1 1.17-.22.59-.12c.4-.08.8-.18 1.19-.27l.5-.13c.49-.12 1-.25 1.45-.4h.19c.55-.16 1.09-.34 1.63-.52l.3-.11c.42-.14.84-.29 1.25-.45l.46-.18 1.06-.42.47-.2 1-.46.41-.19c.4-.18.78-.37 1.17-.56l.21-.1c.46-.23.91-.47 1.35-.71l.19-.1 1.06-.6.38-.22.83-.49.4-.25.75-.47.38-.25.76-.5.3-.2 1-.68.26-.19.65-.47.38-.29.45-.35.39-.31.37-.3.38-.31.28-.23.39-.33.07-.06.94-.84c-1.62-2.75-4.75-5-9.19-6.14a58.75 58.75 0 0 1-14.61-6.13c-5.12.25-15.78-1-20.55-2.51C59 62 52.36 59.06 52.13 55.19s-.88-4.54-.88-4.54-5.85 6.25-6.08 2.86a11.94 11.94 0 0 1 1-5.77s-4.55 2.21-3.9.46a22.56 22.56 0 0 1 1.88-3.63A13 13 0 0 1 41 41.72l-.18.1h-.08l-.23.13-.23.12-.09.06-.25.15-.11.07-.26.16-.11.08-.28.19-.11.07-.32.25h-.06a9.45 9.45 0 0 0-.75.65l-.08.08-.25.27-.1.11-.2.25-.09.13-.16.25-.08.14-.12.27a.61.61 0 0 0-.05.12 2 2 0 0 0-.1.4c-.36 2.29 2.33 0 4.8-.37 0 0-4.47 3.65-5.18 7.21s2.43 1 2.43 1a10.24 10.24 0 0 1 2.48-3.16 26.27 26.27 0 0 0-3.89 13.73c0 8.1 8.69 21.64 31.53 26.45.66.14 1.32.26 2 .36Z"/><path fill="#d2001e" d="M10.3 58.09a.58.58 0 0 1-.38-.09.6.6 0 0 1-.13-.8c.15-.23 14.86-22.7 32.82-30.82a.57.57 0 0 1 .25-.06h.07c3.16.35 13.55 1.61 14.71 3.22a.93.93 0 0 1 .17.73c-.17.82-2.59 2.24-17.26 10.16-12 6.49-27 14.58-29.82 17.5a.56.56 0 0 1-.43.16Z"/><path d="M42.86 26.89s14.69 1.62 14.36 3.22-42 22.16-46.92 27.38c0 0 14.56-22.46 32.56-30.6m0-1.21a1.17 1.17 0 0 0-.49.11C24.24 34 9.88 55.9 9.28 56.83a1.2 1.2 0 0 0 .27 1.6 1.15 1.15 0 0 0 .74.26 1.18 1.18 0 0 0 .88-.37c2.7-2.85 18.28-11.26 29.67-17.39C57 32.23 58.18 31.42 58.4 30.36a1.51 1.51 0 0 0-.27-1.21C57 27.54 49.26 26.38 43 25.69Z" class="cls-7"/><path fill="#a18f70" d="M9.77 58.56a.61.61 0 0 1-.41-1.05c20.56-18.66 48-28 48.29-28.13a.69.69 0 0 1 .2 0 .57.57 0 0 1 .39.14.6.6 0 0 1 .2.56c-.3 1.75-4.58 6.18-5.43 7.05a.6.6 0 0 1-.3.17C42 39.78 10.39 58.29 10.08 58.48a.71.71 0 0 1-.31.08Z"/><path d="M57.84 30c-.28 1.65-5.26 6.73-5.26 6.73C41.6 39.24 9.77 58 9.77 58c20.7-18.79 48.07-28 48.07-28m0-1.21h-.05a1.11 1.11 0 0 0-.36.08C56.35 29.19 29.3 38.61 9 57.06A1.21 1.21 0 0 0 10.38 59c.32-.19 31.79-18.66 42.47-21.14a1.24 1.24 0 0 0 .59-.33C55 36 58.55 32.16 59 30.28a1.23 1.23 0 0 0-1.16-1.54Zm0 2.42Z" class="cls-7"/><path fill="#ceb891" d="M58.51 30h-.14a163.44 163.44 0 0 0-35.82-3.58 194.42 194.42 0 0 0-21.27 1.12h-.07A.6.6 0 0 1 1 26.38c11.36-4.31 24.58-5.21 33.66-5.21a136.91 136.91 0 0 1 17.67 1.09.6.6 0 0 1 .47.37c1.56 3.82 6 6.25 6 6.28a.6.6 0 0 1-.29 1.09Z"/><path d="M34.65 21.77a133.8 133.8 0 0 1 17.58 1.09c1.67 4.07 6.28 6.58 6.28 6.58a166.8 166.8 0 0 0-36-3.6 191.53 191.53 0 0 0-21.34 1.1c10.89-4.13 23.49-5.17 33.44-5.17m0-1.2C21.36 20.57 10 22.33.78 25.81a1.21 1.21 0 0 0 .43 2.34h.15a192.61 192.61 0 0 1 21.19-1.09 163.57 163.57 0 0 1 35.69 3.56 1.24 1.24 0 0 0 .27 0 1.2 1.2 0 0 0 .57-2.26s-4.25-2.37-5.73-6a1.2 1.2 0 0 0-.94-.73 135.16 135.16 0 0 0-17.76-1.1Z" class="cls-7"/><path d="M52.23 22.86s-29-4.26-51 4.08c0 0 .77-.1 2.17-.23 13-4.51 44-3.52 46-3s7 5.25 7 5.25l.19.08 1.94.42s-4.63-2.53-6.3-6.6Z" class="cls-14"/><path d="M82.8 96.56c-4.24 0-5.78-1.67-6.27-2.49-2.19-.15-14.15-1.21-24.28-6.85-9.16-5.09-11-7.8-12-9.42a6.56 6.56 0 0 0-.62-.84 5.6 5.6 0 0 1-1.33-3.2c0-.22-.09-.52-.12-.6l-.09-.1c-2.17-2.53-3.11-5-2.79-7.32.08-.59.14-1.26.2-1.94.3-3.23.64-6.89 3.12-6.89a2.91 2.91 0 0 1 1.16.27.61.61 0 0 1 .36.65c-.12.76-.21 3 .83 3.9 1.57 1.44 5.71 4.61 7.79 4.64h.12c1.68 0 1.74-.48 1.82-1.22.11-1 .84-3.51 2.87-3.76A2.22 2.22 0 0 1 56 63.22a1.13 1.13 0 0 0 .07.18 3.47 3.47 0 0 1 .45.26A8.25 8.25 0 0 1 59.23 66a22.13 22.13 0 0 0 5.45 5 3.94 3.94 0 0 0 1.75.71.24.24 0 0 0 .12 0 11.36 11.36 0 0 0 .28-1.21c.43-2.13.62-2.74 1.1-3a5.15 5.15 0 0 0 .46-.26 2.84 2.84 0 0 1 1.26-.54.87.87 0 0 1 .31.07c.23.1.42.2 1.09 2.41a3.25 3.25 0 0 1 1.35-.3 3.34 3.34 0 0 1 1.55.4 25.73 25.73 0 0 0 5.31 2.31c.63 0 6.55.85 7.31 1.35a16.59 16.59 0 0 0 2.3 1.3l.06-.07c1.17-1.39 2.52-2.81 3.74-3L94.3 71a11 11 0 0 0 .92-4.13c-.33-1.54-.76-3.6.83-4.66a1.93 1.93 0 0 1 1.1-.34c1.42 0 2.73 1.48 3.48 2.87.91 1.67 1.41 2.59 1 3.53a19.61 19.61 0 0 0-.57 2.76 14.82 14.82 0 0 0 4.37.64h1c0-.87.33-2.4 1.59-2.71a6 6 0 0 1 1.47-.18 3.24 3.24 0 0 1 1.71.37l.25.23c.08-4 .67-4.19 1-4.3a1.43 1.43 0 0 1 .5-.09 3.21 3.21 0 0 1 2.24 1.41c.66.77 1.43 2.51 1.13 3.49a14 14 0 0 1-2.69 3.79 7.32 7.32 0 0 0-1.72 4c-.13 1.13-1.56 2-2.71 2.79a6.85 6.85 0 0 0-1 .69c-.11.13-11.1 12.74-20 14.75a24.88 24.88 0 0 1-5.43.69ZM54.6 66.35c-.4 0-.84.25-.93 1-.15 1.36 0 3.81.88 4.77a1.09 1.09 0 0 0 .84.4A1.78 1.78 0 0 0 57 71.19c.42-1.13.18-2.93-1.74-4.58a1.05 1.05 0 0 0-.66-.26Z" class="cls-4"/><path d="M38.58 57.51a2.31 2.31 0 0 1 .92.22s-.49 3.06 1 4.45 5.84 4.76 8.19 4.8h.13c2.22 0 2.33-1 2.42-1.76s.72-3 2.34-3.23h.29c1.35 0 1.48 1.32 1.65 1.69s2 1 3.18 2.7a23 23 0 0 0 5.65 5.12 4.52 4.52 0 0 0 2.06.8.67.67 0 0 0 .71-.48c.24-.73.64-3.57 1-3.76a7.78 7.78 0 0 1 1.47-.74 16.45 16.45 0 0 1 1 2.76 2.89 2.89 0 0 1 1.72-.59 2.7 2.7 0 0 1 1.27.33c1.65.87 4.75 2.36 5.58 2.37a44 44 0 0 1 7 1.25A11.67 11.67 0 0 0 89 74.89a.13.13 0 0 0 .1 0c.26-.24 2.23-2.9 3.61-3s2-.22 2-.22 1.38-3.42 1.08-4.82-.69-3.19.58-4a1.29 1.29 0 0 1 .76-.24c1.09 0 2.25 1.26 2.95 2.56.88 1.62 1.26 2.34 1 3a24 24 0 0 0-.69 3.42 14.46 14.46 0 0 0 5 .83 15.63 15.63 0 0 0 1.64-.08s-.11-2.36 1.14-2.68a5.28 5.28 0 0 1 1.32-.16 2.83 2.83 0 0 1 1.33.23c.2.18 1.22 1.23 1.22 1.23s0-5 .59-5.2a.92.92 0 0 1 .29 0 2.84 2.84 0 0 1 1.78 1.19 4.19 4.19 0 0 1 1 2.92 13.31 13.31 0 0 1-2.55 3.55 7.88 7.88 0 0 0-1.88 4.31c-.14 1.27-3 2.54-3.55 3.16S96.59 93.36 88.1 95.29a24.43 24.43 0 0 1-5.3.67c-4.23 0-5.58-1.7-5.89-2.47 0 0-13.22-.59-24.36-6.79S41.32 77.91 40 76.55s-1.07-3.31-1.4-3.73-3.25-3.48-2.78-7c.43-3.15.35-8.31 2.73-8.31M55.4 73.1c2.34 0 3.85-3.88.27-6.94a1.63 1.63 0 0 0-1.07-.42 1.57 1.57 0 0 0-1.53 1.52c-.17 1.5 0 5.82 2.32 5.84M38.58 56.31c-3 0-3.41 4.12-3.72 7.43-.06.69-.12 1.35-.2 1.92-.34 2.51.65 5.13 2.93 7.8 0 .11 0 .27.07.4a6.35 6.35 0 0 0 1.49 3.52 5.17 5.17 0 0 1 .56.76c1.11 1.66 3 4.44 12.25 9.61 10 5.55 21.35 6.69 24.23 6.9.72 1 2.49 2.52 6.61 2.52a25.48 25.48 0 0 0 5.56-.71c9.08-2 20.2-14.82 20.31-14.95a9.66 9.66 0 0 1 .83-.57c1.26-.81 2.83-1.82 3-3.24a6.76 6.76 0 0 1 1.5-3.6 14.22 14.22 0 0 0 2.84-4c.38-1.24-.5-3.19-1.25-4.07a3.79 3.79 0 0 0-2.7-1.61 2.06 2.06 0 0 0-.7.12c-.53.2-1.17.43-1.34 3.83a5.3 5.3 0 0 0-1.39-.17 6.72 6.72 0 0 0-1.62.2 3 3 0 0 0-2 2.72h-.49a14.68 14.68 0 0 1-3.69-.47 16.16 16.16 0 0 1 .44-2.07c.57-1.22-.05-2.36-1-4.08-.4-.75-1.89-3.19-4-3.19a2.57 2.57 0 0 0-1.44.44C93.78 63 94.31 65.5 94.62 67a9.75 9.75 0 0 1-.76 3.49l-1.25.13c-1.35.15-2.67 1.44-3.9 2.88-.43-.22-1.08-.6-1.81-1.07-1-.63-7-1.43-7.62-1.44a29.91 29.91 0 0 1-5-2.24 3.93 3.93 0 0 0-1.84-.47 4.07 4.07 0 0 0-1 .12c-.6-1.89-.84-2-1.23-2.18a1.34 1.34 0 0 0-.56-.12 3.33 3.33 0 0 0-1.57.62 4.18 4.18 0 0 1-.4.24c-.8.36-1 1.24-1.44 3.38 0 .22-.1.46-.14.67a6.31 6.31 0 0 1-1.1-.56 21.75 21.75 0 0 1-5.27-4.76 8.71 8.71 0 0 0-2.87-2.55l-.28-.14a2.77 2.77 0 0 0-2.69-2.21h-.43c-2.34.28-3.24 2.93-3.4 4.29-.06.58-.08.69-1.22.69h-.11c-1.64 0-5.41-2.67-7.4-4.49-.83-.76-.73-2.73-.63-3.36a1.22 1.22 0 0 0-.72-1.3 3.52 3.52 0 0 0-1.4-.31ZM55.4 73.1v-1.21a.45.45 0 0 1-.39-.2c-.7-.78-.88-3-.74-4.3 0-.2.1-.44.33-.44a.46.46 0 0 1 .29.12c1.69 1.45 1.92 3 1.57 3.91a1.24 1.24 0 0 1-1.06.91v1.21Z" class="cls-5"/><path fill="url(#linear-gradient)" d="M112.64 65.64c-.63.24-.59 5.2-.59 5.2l-1.22-1.23a4.34 4.34 0 0 0-2.65-.07c-1.25.32-1.14 2.68-1.14 2.68a15.87 15.87 0 0 1-5.86-.48s0 4-1.89 6.06-13.64 2.7-18.53 4.73-16.9-.85-25.15-5-11.93-7-12.13-13a31.28 31.28 0 0 1-3-2.34c-1.51-1.39-1-4.45-1-4.45-3.32-1.44-3.17 4.58-3.65 8.09s2.45 6.58 2.78 7 .11 2.37 1.4 3.73 1.37 4 12.52 10.15 24.36 6.79 24.36 6.79c.41 1 2.69 3.72 11.19 1.8s19.12-13.94 19.64-14.56 3.41-1.89 3.55-3.16a7.88 7.88 0 0 1 1.88-4.31 13.31 13.31 0 0 0 2.55-3.55 4.19 4.19 0 0 0-1-2.92c-.63-.8-1.42-1.39-2.06-1.16Z"/><path d="M38.58 57.51v.61h.27c-.08 1-.08 3.24 1.26 4.47s6 4.92 8.59 5h.14c2.55 0 2.89-1.19 3-2.3.09-.78.67-2.55 1.81-2.69h.22c.57 0 .77.33 1 1a2.14 2.14 0 0 0 .12.34c.14.3.45.49.92.78a7.08 7.08 0 0 1 2.32 2A23.37 23.37 0 0 0 64.06 72a5 5 0 0 0 2.37.88 1.27 1.27 0 0 0 1.29-.9c.09-.27.18-.74.29-1.29a14.7 14.7 0 0 1 .54-2.16l.46-.26.39-.27c.19.5.48 1.41.7 2.2a.6.6 0 0 0 .41.41.47.47 0 0 0 .17 0 .62.62 0 0 0 .39-.14 2.25 2.25 0 0 1 1.33-.46 2.12 2.12 0 0 1 1 .26c.19.1 4.59 2.42 5.85 2.45a49.13 49.13 0 0 1 6.68 1.15A8.59 8.59 0 0 0 89 75.49a.71.71 0 0 0 .51-.19s.17-.18.33-.37c1.35-1.6 2.34-2.45 2.93-2.51l2-.23a.61.61 0 0 0 .48-.38c.15-.36 1.43-3.63 1.1-5.2s-.52-2.81.33-3.37a.78.78 0 0 1 .43-.14c.71 0 1.71.93 2.42 2.25s1.1 2.09.94 2.45a21 21 0 0 0-.74 3.58.6.6 0 0 0 .36.64 14.65 14.65 0 0 0 5.27.89 16 16 0 0 0 1.7-.09.6.6 0 0 0 .54-.63c0-.58.11-1.92.68-2.06a4.66 4.66 0 0 1 1.22-.13 3.41 3.41 0 0 1 1 .12l1.15 1.16a.61.61 0 0 0 .43.19.59.59 0 0 0 .23 0 .61.61 0 0 0 .38-.56 21.65 21.65 0 0 1 .31-4.71 2.56 2.56 0 0 1 1.28 1 3.89 3.89 0 0 1 .89 2.36 13.76 13.76 0 0 1-2.41 3.31 8.56 8.56 0 0 0-2 4.65c-.06.57-1.43 1.45-2.17 1.92a6.26 6.26 0 0 0-1.24.92c-.1.12-10.81 12.43-19.32 14.36a24.28 24.28 0 0 1-5.16.66c-4.36 0-5.24-1.88-5.33-2.1a.61.61 0 0 0-.53-.38c-.13 0-13.22-.65-24.1-6.71-8.91-5-10.61-7.51-11.62-9a8.14 8.14 0 0 0-.75-1 4.61 4.61 0 0 1-1-2.56 2.43 2.43 0 0 0-.35-1.13l-.19-.22c-2-2.28-2.81-4.4-2.55-6.38.08-.61.15-1.28.21-2 .23-2.45.54-5.79 1.92-5.79v-.61M55.4 73.7a3 3 0 0 0 2.76-2.09c.56-1.51.3-3.86-2.1-5.91a2.26 2.26 0 0 0-1.46-.56 2.17 2.17 0 0 0-2.13 2c-.12 1.08-.15 4.21 1.18 5.7a2.28 2.28 0 0 0 1.74.81M38.58 57.51c-2.38 0-2.3 5.16-2.73 8.31-.47 3.52 2.45 6.58 2.78 7s.11 2.37 1.4 3.73 1.37 4 12.52 10.15 24.36 6.79 24.36 6.79c.31.77 1.66 2.47 5.89 2.47a24.43 24.43 0 0 0 5.3-.67c8.49-1.93 19.12-13.94 19.64-14.56s3.41-1.89 3.55-3.16a7.88 7.88 0 0 1 1.88-4.31 13.31 13.31 0 0 0 2.55-3.55 4.19 4.19 0 0 0-1-2.92 2.84 2.84 0 0 0-1.78-1.19.92.92 0 0 0-.29 0c-.63.24-.59 5.2-.59 5.2l-1.22-1.23a2.83 2.83 0 0 0-1.33-.23 5.28 5.28 0 0 0-1.32.16c-1.25.32-1.14 2.68-1.14 2.68a15.63 15.63 0 0 1-1.64.08 14.46 14.46 0 0 1-5-.83 24 24 0 0 1 .69-3.42c.31-.65-.07-1.37-1-3-.7-1.3-1.86-2.56-2.95-2.56a1.29 1.29 0 0 0-.76.24c-1.27.84-.88 2.63-.58 4s-1.08 4.82-1.08 4.82-.61.08-2 .22-3.35 2.81-3.61 3a.13.13 0 0 1-.1 0 11.67 11.67 0 0 1-2.78-1.46 44 44 0 0 0-7-1.25c-.83 0-3.93-1.5-5.58-2.37a2.7 2.7 0 0 0-1.27-.33 2.89 2.89 0 0 0-1.72.59 16.45 16.45 0 0 0-1-2.76 7.78 7.78 0 0 0-1.47.74c-.4.19-.8 3-1 3.76a.67.67 0 0 1-.71.48 4.52 4.52 0 0 1-2.06-.8 23 23 0 0 1-5.65-5.12c-1.17-1.72-3-2.31-3.18-2.7S55.24 62 53.89 62h-.29c-1.62.19-2.25 2.4-2.34 3.23S51.06 67 48.84 67h-.13c-2.35 0-6.68-3.42-8.19-4.8s-1-4.45-1-4.45a2.31 2.31 0 0 0-.92-.22ZM55.4 73.1c-2.34 0-2.49-4.34-2.32-5.84a1.57 1.57 0 0 1 1.53-1.52 1.63 1.63 0 0 1 1.07.42c3.58 3.06 2.07 6.94-.27 6.94Z" class="cls-4"/><path d="M101.72 71.88a11.17 11.17 0 0 1-1.36-.41 24 24 0 0 1 .69-3.42c.31-.65-.07-1.37-1-3s-2.45-3.17-3.71-2.32-.88 2.63-.58 4-1.08 4.82-1.08 4.82-.61.08-2 .22-3.35 2.81-3.61 3-2.31-1.06-2.88-1.43a44 44 0 0 0-7-1.25c-.83 0-3.93-1.5-5.58-2.37a2.77 2.77 0 0 0-3 .26 16.45 16.45 0 0 0-1-2.76c-.21-.1-1.12.55-1.52.73s-.8 3-1 3.76-1.21.62-2.77-.32a23 23 0 0 1-5.65-5.12c-1.17-1.72-3-2.31-3.18-2.7s-.27-1.78-1.89-1.57-2.25 2.4-2.34 3.23-.2 1.77-2.55 1.77-6.68-3.42-8.19-4.8-1-4.45-1-4.45a2.32 2.32 0 0 0-.76-.2C37 63.82 46.28 67 47.38 67.6s3.74-.48 3.74-.48 1.41-3.48 2.55-3.76 1.33 1.67 2 1.75 4 3.18 5.83 5.52 5.86 3.19 5.86 3.19 1-1.7 1.77-2.93 2.78 1.22 3.08 1.26a3.6 3.6 0 0 1 3 .54c1.22 1 5 .76 7.72 1.38A23.9 23.9 0 0 1 89 76.78s1.56-1.34 2.82-2.61a4.16 4.16 0 0 1 3.44-.83s1.77-5 1.66-6.69 0-4.13 1.85-2 .29 7.32.29 7.32Z" class="cls-14"/><path fill="#b7eae8" stroke="#3c7bd6" stroke-linecap="round" stroke-linejoin="round" stroke-width="1.21" d="M102.05 56.64c-1.52-.17-3.69-1-3.93-.44s3.07 4.92 3.9 5.9 3.84.73 4-1.08a4.38 4.38 0 0 0-3.97-4.38Z"/><path d="M104.76 60.18c-.23.35-1 .27-1.66-.17s-1.07-1.09-.85-1.44 1-.27 1.66.17 1.09 1.09.85 1.44Z" class="cls-14"/><path fill="#703c16" d="M87.14 39.14a10.15 10.15 0 0 0 .86 2.58 7.4 7.4 0 0 0 1.83 2.22.61.61 0 0 0 .85 0 .6.6 0 0 0 0-.85 6.34 6.34 0 0 1-1.64-2 2.1 2.1 0 0 1-.13-.26l-.06-.14c0 .08 0 0 0 0l-.19-.57c-.13-.42-.23-.85-.33-1.28a.61.61 0 0 0-.74-.43.62.62 0 0 0-.42.75Zm4.42.14a12.75 12.75 0 0 0 2.85 2.83.61.61 0 0 0 .83-.21.62.62 0 0 0-.22-.83l-.21-.14-.11-.08c-.12-.09.11.08 0 0l-.41-.35a10.33 10.33 0 0 1-.74-.74c-.4-.42-.76-.87-1.12-1.32a.6.6 0 0 0-.86 0 .62.62 0 0 0 0 .85Zm17.64 10.5a12.61 12.61 0 0 1 3.47 10.32c-.09.77 1.12.76 1.2 0a13.73 13.73 0 0 0-3.81-11.17.61.61 0 0 0-.86.85Zm-1.2 6.34a3.88 3.88 0 0 1 1 1.85 2.81 2.81 0 0 1 0 .45 3.25 3.25 0 0 1 0 .54 2.87 2.87 0 0 1-.07.46q-.07.28-.18.57a.61.61 0 1 0 1.17.32 4.9 4.9 0 0 0-1.07-5 .61.61 0 0 0-.85 0 .6.6 0 0 0 0 .85ZM95.15 38.88c.28.35.62.66.9 1a.39.39 0 0 0 .19.12.46.46 0 0 0 .23.06.62.62 0 0 0 .43-.18.6.6 0 0 0 .18-.43v-.16a.54.54 0 0 0-.18-.29c-.28-.36-.61-.66-.89-1a.41.41 0 0 0-.2-.12.37.37 0 0 0-.23 0 .61.61 0 0 0-.43.17.63.63 0 0 0-.17.43v.16a.72.72 0 0 0 .15.27Zm-17.91 14c-.52 2.92 2 5 4.31 6.2a.6.6 0 1 0 .61-1c-1.82-.92-4.16-2.57-3.75-4.84a.61.61 0 0 0-1.17-.32Z"/><path fill="#f7d33c" d="M69.81 35.75c-5.53 0-10-4.93-10.28-11.23s4.14-11.79 9.75-12h.34c5.53 0 10 4.93 10.29 11.24s-4.14 11.78-9.76 12Z"/><path d="M69.62 13.12c5.16 0 9.46 4.7 9.68 10.66s-3.88 11.16-9.17 11.36h-.32c-5.15 0-9.45-4.7-9.68-10.66S64 13.32 69.31 13.13h.31m0-1.21h-.36c-6 .22-10.59 5.88-10.33 12.62s5 11.82 10.88 11.82h.36c6-.22 10.59-5.88 10.34-12.62s-5-11.82-10.89-11.82Z" class="cls-2"/><path fill="#ed9935" d="M69.31 13.13c-5.3.19-9.41 5.28-9.18 11.36a11.94 11.94 0 0 0 2.56 7.05c0-.05 1.84-5.7 7.65-6.12 5.31-.38 6.63 4.27 6.82 5.74a11.94 11.94 0 0 0 2.14-7.38c-.23-6.08-4.7-10.85-9.99-10.65Z"/><path d="M68.52 21.94c.07 1.68-.94 3.08-2.24 3.13s-2.4-1.27-2.46-2.95.94-3.07 2.24-3.12 2.4 1.27 2.46 2.94Z" class="cls-2"/><circle cx="68.03" cy="20.52" r="1.52" class="cls-14"/></g></g></svg>