<svg xmlns="http://www.w3.org/2000/svg" height="80px" xmlns:xlink="http://www.w3.org/1999/xlink" id="Layer_2" data-name="Layer 2" viewBox="0 0 181.1 146.7"><defs><linearGradient id="linear-gradient" x1="139.9" x2="139.9" y1="136.3" y2="102.6" gradientUnits="userSpaceOnUse"><stop offset="0" stop-color="#dbffff"/><stop offset="1" stop-color="#339ed3"/></linearGradient><linearGradient xlink:href="#linear-gradient" id="linear-gradient-2" x1="136.9" x2="136.9" y1="44.6" y2="54.1"/><linearGradient id="linear-gradient-3" x1="137.7" x2="137.7" y1="276.9" y2="255.9" gradientTransform="rotate(-4 -2210.2 742.5)" gradientUnits="userSpaceOnUse"><stop offset="0" stop-color="#dbffff"/><stop offset="1" stop-color="#1376a6"/></linearGradient><linearGradient xlink:href="#linear-gradient-3" id="linear-gradient-4" x1="150.7" x2="150.7" y1="243.8" y2="222.7" gradientTransform="rotate(4 2100.4 -813.2)"/><linearGradient xlink:href="#linear-gradient-3" id="linear-gradient-5" x1="137.4" x2="137.4" y1="241.3" y2="220.1" gradientTransform="rotate(4 2081.6 -829.5)"/><style>.cls-1{fill:#5b2307}.cls-3{fill:#b56e00}.cls-4{fill:#fff}.cls-8,.cls-9{stroke-linecap:round;stroke-linejoin:round}.cls-8{stroke-width:1.21px;stroke:#5b2307;fill:#a36731}.cls-16{fill:#3c7bd6}.cls-9{stroke:#4c1a09;stroke-width:.6px;fill:none}.cls-19{fill:#b7eae8}.cls-20{fill:#de921b}.cls-21{fill:#4c1a09}.cls-25{fill:#ffb136}.cls-27{fill:#755b46}</style></defs><g id="Layer_1-2" data-name="Layer 1"><rect width="140.4" height="102.8" x=".6" y=".6" class="cls-20" rx=".6" ry=".6"/><path d="M140.4 1.2v101.6H1.2V1.2h139.2m0-1.2H1.2C.5 0 0 .5 0 1.2v101.6c0 .7.5 1.2 1.2 1.2h139.2c.6 0 1.2-.5 1.2-1.2V1.2c0-.7-.6-1.2-1.2-1.2Z" class="cls-1"/><path d="M8.7 8h125.8v89.4H8.7z" class="cls-25"/><path d="M7.1 6.6h125.7V96H7.1z" class="cls-3"/><path d="M7.1 96v1.4L9.9 95" class="cls-3"/><path d="M8.7 97.4H7.1l2.3-2M132.1 8.2l2.4-1.8V8" class="cls-25"/><path d="M132.8 6.6h1.7l-2.8 2" class="cls-3"/><rect width="123.9" height="87.9" x="8.8" y="8.1" fill="#427a5a" rx=".6" ry=".6"/><path d="M132.1 8.7v86.6H9.4V8.7h122.7m0-1.2H9.4c-.6 0-1.2.5-1.2 1.2v86.6c0 .7.6 1.2 1.2 1.2h122.7c.7 0 1.2-.5 1.2-1.2V8.7c0-.7-.5-1.2-1.2-1.2Z" class="cls-1"/><path fill="#255c3c" d="M132.1 8.7V10H11v85.2H9.4V8.7h122.7z"/><path d="M14 103.3a.6.6 0 0 1-.5-.6v-2.5a6.9 6.9 0 0 1 6.8-7h101a6.9 6.9 0 0 1 6.8 7v2.5a.6.6 0 0 1-.6.6H14Z" class="cls-20"/><path d="M121.2 93.9c3.5 0 6.3 2.8 6.3 6.3v2.5H14v-2.5c0-3.5 2.8-6.3 6.2-6.3h101m0-1.2h-101a7.5 7.5 0 0 0-7.4 7.5v2.5c0 .6.5 1.2 1.2 1.2h113.4c.6 0 1.2-.6 1.2-1.2v-2.5a7.5 7.5 0 0 0-7.5-7.5Z" class="cls-1"/><path d="M14 101.3h113.5v1.4H14z" class="cls-3"/><path d="M125 95.2H19s-3.6 1-3.8 4.3v3.2H14v-2.5c0-3.5 2.8-6.3 6.3-6.3h100.8a6.2 6.2 0 0 1 3.9 1.3Z" class="cls-25"/><path d="M100.3 87.3s-8.1 5-13.6 7.2c-3.1 1.2 2.7 9 2.7 9s13.5 1 16.8-1.5" class="cls-8"/><path fill="#5e5e5e" d="M89.7 107a.7.7 0 0 1-.3 0 .6.6 0 0 1-.3-.3L59.4 18.2v-.5c0-.2.2-.2.4-.3l2-.7a.6.6 0 0 1 .8.4l29.7 88.5a.6.6 0 0 1-.3.7l-2.1.7a.6.6 0 0 1-.2 0Z"/><path fill="#242424" d="m62 17.3 29.8 88.5-2 .7L60 18l2-.7m0-1.2h-.4l-2 .7a1.2 1.2 0 0 0-.8 1.6l29.8 88.4a1.2 1.2 0 0 0 1.5.8l2-.7c.3 0 .6-.3.7-.6.2-.3.2-.6 0-1L63.3 17a1.2 1.2 0 0 0-1.2-.8Z"/><path d="M84.8 93.8s-1 1.5-.9 3.1c.3 1.7 1.7 6.1 4 6.9 2.3.8 5-.7 5.4-2 .5-1.3-1-2.6-2.2-2.7 0 0 2.1-1.5 1.8-2.8C92.4 94.9 89 95 89 95s1.3-2 .2-2.7-3.7.5-4.5 1.4Z" class="cls-8"/><path d="M114.8 142a1 1 0 0 1-1-.8c-.2-.8.7-2.2 1.7-3.4l-3.7 1.7a113.7 113.7 0 0 1-4.1 2l-1 .2c-.9 0-1.5-.5-1.8-1.1-.3-.8 0-1.6.7-2.3.6-.5 2.2-1.5 4.1-2.5-2.9 0-4.2-.4-4.3-1.4-.1-1 1.2-1.7 2.5-2a78.3 78.3 0 0 1 12.3-1.4c3.4 0 5.3.5 5.6 1.5.4 1.2-1.4 2.5-3.5 4l-1.6 1.2-1.4 1.2c-2.1 1.9-3.5 3-4.5 3Z" class="cls-27"/><path d="M120.2 131.6c2.6 0 4.8.3 5 1 .3 1.2-3.1 3.2-5 4.6-1.5 1.3-4.4 4.2-5.4 4.2-.2 0-.3-.1-.4-.3-.3-1.4 3.5-5 3.5-5-2.5 1-8.8 4.1-10.5 4.8a2 2 0 0 1-.8.2c-1.2 0-1.7-1.3-.6-2.3 1.3-1.2 8.5-5 8.4-5l-3.9 1.4h-.7c-5.6 0-4-1.7-1.7-2.2 2.3-.6 8.3-1.2 8.3-1.2l3.8-.2m0-1.2c-1.3 0-2.6 0-4 .2-.2 0-6 .6-8.4 1.2-2 .5-3.1 1.5-3 2.7.2 1.1 1.3 1.6 2.8 1.8a17.3 17.3 0 0 0-2.4 1.6c-.9.8-1.2 1.9-.8 2.9a2.4 2.4 0 0 0 2.2 1.5 116.6 116.6 0 0 0 5.4-2.2l1.7-.8c-.4.7-.6 1.5-.4 2 .2.8.8 1.3 1.5 1.3 1.1 0 2.4-1 4.9-3.2a31.6 31.6 0 0 1 3-2.4c2.3-1.7 4.2-3 3.7-4.7-.3-.9-1.3-2-6.2-2Z" class="cls-21"/><path d="M107.9 137s2.1.5 2 3.2m1.6-5s3.2-.6 3 2.7m-5.3-5.6s1.6.8.8 3.2m6 1.9s2.2-.6 3 1.8m-5.8-7.6c.2.2 1.7.1 1.9 2 0 0 2.8-.8 3.4 1.7 0 0 2.8-.8 3.3 1.4" class="cls-9"/><path d="M137.4 146c-1 0-1.3-.6-1.3-.8-.5-2 2.5-4.6 5-6.4l-2.1.4c-1.6.3-3.2.6-4 .6-.3 0-1 0-1-.5-.2-.6.4-1 1-1.5 3.4-1.9 11.2-3.5 12-3.6.8-.3 7.6-3 10.5-3 .8 0 1.3.1 1.6.6.1.2.3.6 0 1.3-1.3 2.9-6.6 11.3-9.5 11.3h-.4a1.4 1.4 0 0 1-1.1-1c-.3-.9.2-2.1.8-3.2l-1 .6a31.7 31.7 0 0 1-10.5 5.3Z" class="cls-27"/><path d="M157.5 131.8c.9 0 1.4.2 1 1-1.4 3.3-6.5 11-9 11a1 1 0 0 1-.2 0c-2.2-.6 1.5-5.4 1.5-5.4-2 .9-10.6 7-13.4 7-.4 0-.7 0-.7-.4-.7-2.5 7.4-7.5 7.4-7.5l-2.3.6c-1.5.2-5.5 1.1-6.8 1.1-.7 0-.7-.2.4-.8 3.4-2 11.8-3.7 11.8-3.7s7.4-3 10.3-3m0-1.1c-3 0-9.5 2.5-10.6 3-1.1.2-8.8 1.8-12.1 3.7-.6.4-1.7 1-1.5 2.1.1.4.5 1 1.7 1 .8 0 2.2-.2 3.7-.5-2 1.7-3.7 3.8-3.2 5.4.2.9 1 1.4 2 1.4 2 0 5.5-2.1 10-5a3.1 3.1 0 0 0 0 1.9 2 2 0 0 0 1.5 1.4h.6c3.6 0 9.1-9.6 10-11.7.4-.9.2-1.5 0-1.9-.4-.6-1.1-.9-2.2-.9Z" class="cls-21"/><path d="M137.4 142.2s3.4-.6 4 2.5m-1-5.4s5.7-1.4 6.2 2.3m-8.8-5s1.2 1 .4 2.7m10.2 1.7s3-2.3 5.6-.3m-10.5-5.1s1.4-.3 1.8 1c0 0 4.3-1.2 6.3.7 0 0 3.7-2.5 5.5-.6" class="cls-9"/><path d="M122 134.5c-1.5 0-2.8-.3-4-.7-6.5-2.5-6.8-9.4-6.8-9.5 0-.3.2-.5.5-.6l2.3-.2c8.2 0 16.7 6.7 17.1 7 .2 0 .2.3.2.5l-.2.4c-.2.2-4.3 3-9.2 3Z" class="cls-19"/><path d="M114 124.1c8.1 0 16.7 6.9 16.7 6.9s-4 2.9-8.8 2.9c-1.2 0-2.5-.2-3.7-.7-6.2-2.3-6.4-8.9-6.4-8.9l2.2-.2m0-1.2-2.4.2c-.6.1-1 .7-1 1.3 0 .3.3 7.4 7.2 10 1.3.4 2.7.7 4.1.7 5.1 0 9.3-3 9.5-3.2a1.2 1.2 0 0 0 0-1.9c-.3-.3-9-7-17.4-7Z" class="cls-16"/><path fill="#a36731" d="M139.3 132.4a41 41 0 0 1-3.7-.1c-23.9-2.3-33.9-15.2-34.8-23.3-.4-3.9 0-7.3.7-9.8-.5.4-1.1.8-1.7.8-.4 0-.7-.1-1-.4-.3-.4-.4-1-.3-2a13 13 0 0 1 2.8-6.2h-.1c-.8.5-1.5.9-2 .9a1 1 0 0 1-.8-.3c-.3-.4-.4-1-.3-1.3 0-2.2 2.8-4.2 3.9-5-.6-1.7-2.2-8-1-17.2a29 29 0 0 1 10.7-17c-1.2-.3-2.2-.8-2.4-1.7-.1-.5.1-1.3 1.7-2 1-.4 2.3-.6 3.6-.8-1-.3-1.6-.8-1.8-1.4 0-.3 0-.9.9-1.4a4.2 4.2 0 0 1 2.2-.5c1.6 0 3.3.5 4.7 1-.3-.5-.5-1-.3-1.4a1 1 0 0 1 .8-.7h.3c1.3 0 3.3 2 4 2.6h1.2c19 0 27.1 11.8 30.7 21.8 2.3 6.3 7 9.2 12.6 12.6 6 3.7 9.6 9.8 9.8 10.5.2.4 0 .7 0 .8-.1.1-.3.3-.8.3h-.1c1.4 2.7 1.7 6.4 1.7 7.2 0 .4-.4.8-.8.8h-.4c1 3 .6 7.1-.2 8-.6.6-3.5 5.6-3.7 6.3-.1 1-14.6 19-36 19Z"/><path d="M121.3 43.2c1.4 0 3.8 2.7 3.8 2.7h1.5c21 0 27.9 15 30.1 21.3 2.3 6.4 7.2 9.5 12.9 13s9.3 9.3 9.6 10.1c0 .3 0 .4-.3.4-.5 0-1.5-.6-1.5-.6 2 2.5 2.5 7.6 2.5 8.3l-.2.2c-.5 0-1.6-.8-1.6-.8 1.7 3 1.3 8.2.6 9-.7.6-3.8 6-3.9 6.6 0 .5-14.2 18.5-35.5 18.5a40.1 40.1 0 0 1-3.6-.2c-23.2-2.2-33.4-14.7-34.3-22.7-.9-8.1 2.3-14.1 2.3-14.1-1.4 1.4-2 3.4-2 3.4s-1.2 1.1-2 1.1c-.4 0-.7-.4-.6-1.8.3-3.6 4.3-7.8 4.3-7.8-1.7.5-3.4 1.9-4.2 1.9-.3 0-.5-.3-.5-1 .1-2.3 4-4.7 4-4.7s-2.5-6.8-1-17.4c1.5-10.5 11.6-17.6 11.6-17.6-3 0-4.7-1.5-2-2.6 2-.8 5.2-1 6.8-1h1s-7.7-1-5.1-2.6a3.7 3.7 0 0 1 2-.5c2.8 0 6.4 2 6.4 2s-2.5-2.8-1.2-3h.2m0-1.3h-.3c-.7.2-1.1.5-1.3 1a1.6 1.6 0 0 0-.1.8c-1.2-.4-2.6-.7-3.8-.7-1 0-1.8.2-2.5.6-1.2.8-1.2 1.6-1.1 2 0 .3 0 .6.5 1-.7.1-1.4.3-2 .6-2 .8-2.2 2-2 2.6 0 .8.7 1.4 1.7 1.8a29.1 29.1 0 0 0-10 16.7 42 42 0 0 0 .8 17.1c-1.3 1-3.7 3-3.8 5.2 0 .3 0 1.1.5 1.7.3.3.7.5 1.2.5h.4a11.3 11.3 0 0 0-1.7 4.6c-.1 1.2 0 2 .6 2.5.3.4.8.6 1.3.6.3 0 .5 0 .8-.2a27.7 27.7 0 0 0-.4 8.7c1 8.3 11.1 21.5 35.4 23.8l3.7.1c11.4 0 20.7-5 26.4-9.2a38 38 0 0 0 10.3-10.2c.2-.7 3-5.4 3.5-6 1-1 1.3-4.7.6-7.9.6-.1 1-.7 1-1.3 0 0-.1-3.7-1.4-6.7l.5-.5c.2-.3.3-.8.1-1.3-.5-1.2-4.3-7.2-10-10.8-5.5-3.3-10.2-6.2-12.4-12.3a31.2 31.2 0 0 0-31.3-22.2h-1c-1-1-2.8-2.6-4.2-2.6Z" class="cls-1"/><path fill="#8e5424" d="M174.8 113.4c.1-.6 3.2-6 3.9-6.7.7-.7 1-6-.6-9 0 0 1.8 1.4 1.8.7s-.4-5.9-2.6-8.3c0 0 2.1 1 1.8.2-.2-.8-3.8-6.6-9.5-10.1-3-1.8-5.6-3.5-7.9-5.6s8 8.5 7.6 16.5c-.4 8-4 4.9-4 4.9l-6.7-3.5s2.2 6-1.3 8-4.5 0-4.5 0 1.2 3.8-3.3 4.8c-4.6 1-16.4 1-21.7 0s-12.1-3.2-12.8-7c-.6-3.8-1.4-4.4-1.4-4.4s-5 6.8-5.7 3.5c-.6-3.3.4-5.8.4-5.8s-4.3 2.7-3.8.9a21.9 21.9 0 0 1 1.4-3.9s-1.8-.8-3.4-2.4c-.8.5-3.7 2.6-3.8 4.6-.1 2.3 2.3-.3 4.7-1 0 0-4 4.2-4.3 7.8-.3 3.6 2.5.7 2.5.7s.7-2 2.1-3.4c0 0-3.2 6-2.3 14 .9 8.1 11 20.6 34.3 22.8 23.2 2.2 39-17.7 39.1-18.3Z"/><path fill="#bd852d" d="M163.8 110c-10.8-1.5-31.2-9.4-28.7-19.7 2.5-10.2 10.6-7.3 13.5-20s-10.2-20.2-20.3-18.9c-10.2 1.3-15.2 11.3-15.6 12-.4.7-5.4.7-7.3.3-1.8-.4-1-2.6-1-2.7a21.8 21.8 0 0 0-2.7 7.6c-1.5 10.6 1 17.4 1 17.4s-3.9 2.4-4 4.7c-.1 2.3 2.3-.3 4.7-.9 0 0-4 4.2-4.3 7.8-.3 3.6 2.5.7 2.5.7s.7-2 2.1-3.4c0 0-3.2 6-2.3 14 1 8 11 20.6 34.3 22.8 19.5 1.8 33.7-11.9 37.9-16.7-2-2.5-5.3-4.5-9.8-5Z"/><path fill="#91682c" d="M138.3 131.8H140.4a25.1 25.1 0 0 0 2 0l1.2-.2h.6c.6-.2 1.1-.3 1.7-.3h.1l1.8-.4.5-.2 1.3-.3.6-.2a49.6 49.6 0 0 0 1.7-.5l1.1-.4.5-.2a57.5 57.5 0 0 0 3.2-1.3l.2-.1 1.2-.6.5-.3 1-.5.4-.3 1-.5.4-.3 1-.7h.3l1.2-1h.2l1-.8.3-.2.8-.6.4-.3.7-.6.3-.3.7-.5.3-.3.9-.8.2-.2.6-.5.3-.4.4-.4.4-.3.3-.3.4-.4.2-.3.4-.3v-.1l.9-1c-2-2.5-5.3-4.4-9.8-5a59.2 59.2 0 0 1-15.3-4.5c-5 .9-15.8.8-20.7-.1-5.2-1-12.1-3.3-12.8-7-.6-3.9-1.4-4.5-1.4-4.5s-5 6.9-5.7 3.5c-.6-3.3.4-5.8.4-5.8s-4.3 2.7-3.8.9a21.9 21.9 0 0 1 1.4-3.8s-1.8-.8-3.4-2.5l-.2.1-.3.2-.2.2-.3.2a4.2 4.2 0 0 0-.4.3l-.3.3h-.1l-.3.3v.1a9.2 9.2 0 0 0-1 1.1l-.1.1-.2.3v.1l-.2.3v.2l-.2.2v.2a2.9 2.9 0 0 0 0 .4c-.2 2.3 2.3-.3 4.7-1 0 0-4 4.2-4.4 7.8-.3 3.6 2.6.7 2.6.7s.7-2 2-3.4c0 0-3.1 6-2.2 14 .9 8.1 11 20.6 34.3 22.8a45.7 45.7 0 0 0 2.6.2Z"/><path fill="none" stroke="#5b2307" stroke-linecap="round" stroke-linejoin="round" stroke-width="1.2" d="M120.6 74.9s.1-2.2-1.1-3.3"/><path fill="#f7d33c" d="M132.7 77.7c-5.6 0-10.2-5.2-10.2-11.6s4.6-11.6 10.2-11.6S143 59.7 143 66s-4.5 11.6-10.2 11.6Z"/><path d="M132.7 55c5.3 0 9.6 5 9.6 11s-4.3 11.1-9.6 11.1-9.6-5-9.6-11 4.3-11 9.6-11m0-1.2c-6 0-10.8 5.4-10.8 12.2s4.9 12.2 10.8 12.2 10.8-5.5 10.8-12.2-4.8-12.2-10.8-12.2Z" class="cls-1"/><path fill="#ed9935" d="M132.7 55c-5.3 0-9.6 5-9.6 11 0 2.8 1 5.3 2.3 7.2 0 0 2-5.6 8-5.8 5.2-.2 6.4 4.5 6.5 6a12 12 0 0 0 2.4-7.3c0-6-4.3-11-9.6-11Z"/><path d="M137.4 64.5c0 4.2-3 7.5-6.5 7.5s-6.6-3.3-6.6-7.5 3-7.5 6.6-7.5 6.5 3.4 6.5 7.5Z" class="cls-21"/><path fill="#c4964d" stroke="#5b2307" stroke-linecap="round" stroke-linejoin="round" stroke-width="1.2" d="M130 79.5s1.2-3.3 5.8-4.2 6.2 1.4 6.2 1.4"/><path d="M125.2 58.7c-1.7 1.5-2 3.9-.8 5.3 1.3 1.3 3.6 1.2 5.4-.4 1.7-1.5 2-3.9.8-5.3-1.3-1.3-3.7-1.2-5.4.4Zm13.8 13c0 .4-.7.7-1.5.7s-1.5-.3-1.5-.7.7-.7 1.5-.7 1.5.3 1.5.7Z" class="cls-4"/><path d="M148.6 136c-3 0-4.4-1.1-5-1.8h-2.2c-4.8 0-14-.5-22.6-4.1-9.7-4-11.8-6.5-13-8l-.8-.8c-1-.9-1.4-2.2-1.7-3l-.1-.6h-.1c-2.5-2.3-3.7-4.7-3.6-7v-2c-.1-2.6-.2-5.4 1-6.6a2 2 0 0 1 1.5-.6c.3 0 .6 0 1 .2.2 0 .4.3.4.6 0 .7 0 3 1.2 3.7 1.6 1.2 6 3.8 8 3.8h.3c1.8-.2 1.8-.7 1.8-1.4 0-1 .4-3.6 2.4-4.1h.7c1.3 0 1.8 1 2 1.5v.2l.6.2c.7.4 2 1 2.9 2 1.2 1.5 4.3 3.6 6 4.4.9.4 1.4.5 1.7.5h.2l.2-1.3c.1-2.2.2-2.8.7-3l.4-.4c.6-.4 1-.6 1.3-.6h.2c.3 0 .5.1 1.4 2.3a3.3 3.3 0 0 1 2.9-.3c2 .9 4.8 1.7 5.5 1.7h.6c1 0 6 .2 6.8.6l2.5 1v-.1c1-1.5 2.2-3 3.4-3.3l1.6-.4c.4-1.3.7-3.4.5-4.2-.5-1.5-1.2-3.5.3-4.7a2 2 0 0 1 1.3-.5c1.3 0 2.7 1.3 3.5 2.5 1.1 1.5 1.7 2.4 1.4 3.4-.2.3-.2 1.7-.3 2.8a15.6 15.6 0 0 0 5.5 0c0-1 0-2.5 1.2-3a6 6 0 0 1 2.1-.3c.5 0 .9 0 1.1.2l.3.2c-.4-4 .2-4.2.5-4.4l.6-.1c.7 0 1.4.4 2.2 1.1.8.7 1.7 2.4 1.5 3.4a14 14 0 0 1-2.2 4c-1 1.3-1.3 3-1.3 4.2s-1.3 2.2-2.3 3l-1 .8c0 .2-9.5 14-18.1 17a21.7 21.7 0 0 1-7 1.3Zm-29.8-27c-.4 0-.9.4-.9 1.2 0 1.4.7 5 2.2 5h.1c.7-.2 1.3-.7 1.5-1.6.3-1.1-.2-2.9-2.3-4.3a1 1 0 0 0-.6-.2Z" class="cls-19"/><path d="M160.8 100.5c1 0 2.2 1 3 2.2 1 1.5 1.5 2.2 1.3 2.8-.2.7-.3 3.5-.3 3.5s1.3.4 3.3.4c1 0 2.1-.1 3.4-.4 0 0-.4-2.3.8-2.8a5.4 5.4 0 0 1 2-.3l.7.1 1.3 1s-.6-4.8 0-5.1a.8.8 0 0 1 .4-.1c.6 0 1.2.4 1.8 1 .8.6 1.5 2 1.4 2.7-.2.7-1.2 2.5-2.2 3.9-1 1.3-1.4 3.2-1.4 4.4s-2.7 3-3.1 3.6c-.5.7-9.7 13.8-18 16.7-2.8 1-5 1.3-6.6 1.3-3 0-4.3-1.2-4.6-1.9l-2.6.1c-4.4 0-13.8-.5-22.4-4-11.8-5-12.1-7.5-13.6-8.7-1.4-1.2-1.4-3.2-1.8-3.6-.4-.4-3.6-3-3.5-6.6 0-3.3-.7-8.6 2-8.6l.7.1s-.2 3.1 1.5 4.3c1.6 1.2 6 3.9 8.4 3.9h.3c2.3-.3 2.3-1.2 2.3-2s.4-3.2 2-3.5l.5-.1c1.1 0 1.4 1.2 1.6 1.5.2.4 2 .8 3.4 2.3a23 23 0 0 0 6.2 4.5c.9.4 1.5.6 2 .6s.7-.2.8-.6c.2-.8.3-3.6.6-3.9.4-.2 1.2-.9 1.4-.9.3.1 1.3 2.7 1.3 2.7s.8-.8 2-.8c.3 0 .6 0 1 .2 1.7.6 4.8 1.7 5.7 1.7h.6c1.7 0 6 .2 6.6.5.5.2 2.3 1.1 2.9 1.1h.1c.2-.3 1.9-3.2 3.2-3.5l2-.4s1-3.6.5-5c-.4-1.3-1-3 .2-4 .2-.2.5-.3.9-.3M120 115.7h.2c2.3-.2 3.4-4.3-.5-7l-1-.2c-.7 0-1.5.6-1.5 1.7 0 1.4.6 5.5 2.8 5.5m40.7-16.4c-.7 0-1.2.2-1.7.6-1.8 1.5-1 3.9-.5 5.3.2.6 0 2.1-.4 3.6l-1.2.2c-1.3.3-2.5 1.8-3.6 3.3l-1.9-.8c-1-.5-7-.6-7-.6h-.7c-.6 0-3-.8-5.3-1.6a4 4 0 0 0-2.8 0c-.8-1.9-1-2-1.5-2.1a1.5 1.5 0 0 0-.4 0c-.6 0-1 .3-1.6.7l-.4.3c-.7.5-.9 1.4-1 3.5l-.1.7a5.9 5.9 0 0 1-1.2-.4c-1.6-.8-4.6-2.8-5.7-4.2-1.1-1.2-2.4-1.8-3.2-2.2l-.3-.1c-.2-.5-.9-2-2.5-2a3 3 0 0 0-.8.2c-2.3.5-3 3.3-3 4.6 0 .6 0 .7-1.2.9h-.1c-1.8 0-5.6-2.1-7.7-3.7-1-.6-1-2.6-1-3.2a1.2 1.2 0 0 0-.9-1.2 3.7 3.7 0 0 0-1-.2c-.8 0-1.5.3-2 .8-1.4 1.4-1.3 4.2-1.3 7v2c0 2.5 1.3 5 3.8 7.4l.2.3c.2.9.6 2.3 1.8 3.4l.7.7c1.3 1.5 3.4 4 13.2 8.1a62 62 0 0 0 24.9 4.2c.7.8 2.2 1.8 5.2 1.8 2 0 4.4-.5 7-1.4 8.8-3 18.5-17 18.6-17.1l.7-.7c1.2-1 2.6-2.1 2.6-3.5 0-1.2.4-2.8 1.2-3.8a14 14 0 0 0 2.3-4.3c.3-1.3-.8-3.1-1.7-4-.9-.8-1.8-1.2-2.6-1.2-.3 0-.6 0-1 .2s-1 .5-.8 4a6.6 6.6 0 0 0-3 .3c-1.2.4-1.6 1.7-1.7 3a14.4 14.4 0 0 1-4.2 0l.2-2.2c.5-1.2-.3-2.3-1.4-4-.5-.5-2-2.6-4-2.6ZM120 114.5c-.8 0-1.6-2.5-1.6-4.3 0-.3 0-.5.3-.5h.3c1.8 1.3 2.2 2.8 2 3.8-.1.4-.4 1-1 1Z" class="cls-16"/><path fill="url(#linear-gradient)" d="M176.3 101.8c-.6.3 0 5.3 0 5.3L175 106c-.3-.1-1.5-.2-2.7.2-1.2.5-.8 2.8-.8 2.8-2.6.6-4.8.4-5.9.2s.5 4-1.2 6.2c-1.6 2.3-13.2 4.3-17.8 6.8-4.7 2.6-17 1-25.6-2-8.7-3.2-12.6-5.7-13.5-11.7a31.6 31.6 0 0 1-3.2-2c-1.7-1.2-1.5-4.3-1.5-4.3-3.5-1-2.7 5-2.7 8.5-.1 3.5 3.1 6.3 3.5 6.6.4.4.4 2.4 1.8 3.6 1.4 1.2 1.8 3.8 13.6 8.7 11.8 4.9 25 4 25 4 .5 1 3 3.4 11.3.5 8.2-2.9 17.4-16 17.9-16.7.4-.7 3.1-2.2 3.1-3.5s.4-3.2 1.4-4.5c1-1.3 2-3.1 2.1-3.8.2-.7-.6-2.1-1.3-2.8-.7-.7-1.6-1.2-2.2-1Z"/><path d="M160.8 101c.7 0 1.7.9 2.5 2 1 1.4 1.4 2 1.2 2.3-.2.8-.3 3.2-.3 3.7 0 .3.2.5.4.6.1 0 1.4.4 3.5.4 1.2 0 2.4-.2 3.5-.4a.6.6 0 0 0 .5-.7c0-.6 0-2 .5-2.1a5 5 0 0 1 1.6-.3h.5l1.3 1a.6.6 0 0 0 .6.1.6.6 0 0 0 .3-.6c-.2-1.8-.3-4-.2-4.6.2 0 .6 0 1.4.8.7.6 1.2 1.9 1.2 2.2-.1.5-1 2.2-2 3.6a8.4 8.4 0 0 0-1.6 4.9c0 .5-1.2 1.6-1.9 2.1a6 6 0 0 0-1.1 1c-.1.2-9.4 13.6-17.6 16.5-2.5.9-4.7 1.3-6.5 1.3-3 0-4-1.3-4-1.5a.6.6 0 0 0-.6-.4s-1 .1-2.6.1a60 60 0 0 1-22.2-4c-9.4-4-11.3-6.3-12.5-7.7a6.8 6.8 0 0 0-.9-.9 4.6 4.6 0 0 1-1.3-2.4c-.1-.5-.2-.9-.5-1.1l-.1-.1c-2.2-2-3.3-4.1-3.2-6.1v-2c0-2.2-.1-4.9.7-5.7a.8.8 0 0 1 .6-.3h.2c0 1 .3 3.3 1.7 4.3 1.5 1 6.1 4 8.8 4h.3c2.7-.3 3-1.5 3-2.7 0-.7.3-2.6 1.4-2.8h.4c.4 0 .6.2 1 .8v.3c.2.3.6.5 1 .7.8.3 1.8.8 2.6 1.7 1.5 1.7 4.8 3.9 6.4 4.6a5.6 5.6 0 0 0 2.2.7c.8 0 1.3-.4 1.4-1l.2-1.4c0-.7.1-1.8.3-2.2l.4-.3.4-.3 1 2.1c0 .2.2.3.4.4.2 0 .4 0 .5-.2 0 0 .6-.6 1.5-.6l.8.1s4.6 1.8 6 1.8h.6c2 0 5.8.2 6.2.4a11 11 0 0 0 3.2 1.2l.6-.2.3-.4c1.1-1.8 2-2.7 2.6-2.9l2-.4a.6.6 0 0 0 .4-.5c.1-.3 1-3.7.5-5.2s-.8-2.8 0-3.4a.8.8 0 0 1 .5-.2m-40.7 15.2h.3c1.2-.1 2.2-1 2.5-2.4.4-1.5-.1-3.8-2.7-5.6a2.3 2.3 0 0 0-1.3-.4c-1 0-2.1.8-2.1 2.3 0 1.6.6 6.1 3.3 6.1m40.7-15.8c-.3 0-.6 0-.9.3-1.2 1-.6 2.7-.1 4 .4 1.5-.6 5-.6 5l-2 .4c-1.3.3-3 3.2-3.2 3.5-.6 0-2.4-.9-3-1.1-.5-.3-4.8-.5-6.5-.5h-.6c-1 0-4-1-5.8-1.7-.3-.2-.7-.2-1-.2-1.2 0-2 .8-2 .8s-1-2.6-1.2-2.7c-.3 0-1 .7-1.4 1-.4.2-.5 3-.6 3.8-.1.4-.4.6-.9.6s-1-.2-2-.6a23 23 0 0 1-6.1-4.5c-1.4-1.5-3.3-2-3.5-2.3-.2-.3-.4-1.5-1.6-1.5h-.5c-1.6.5-2 2.7-2 3.5s0 1.9-2.3 2h-.3c-2.4 0-6.8-2.6-8.4-3.8-1.6-1.2-1.5-4.3-1.5-4.3a2.7 2.7 0 0 0-.7 0c-2.6 0-2 5.2-2 8.5 0 3.5 3.2 6.2 3.6 6.6.3.4.3 2.4 1.8 3.6 1.4 1.2 1.8 3.7 13.5 8.7 8.6 3.5 18 4 22.4 4h2.6c.4.6 1.6 1.8 4.6 1.8 1.7 0 3.9-.3 6.7-1.3 8.2-2.9 17.5-16 18-16.7.4-.7 3-2.3 3-3.5s.5-3.2 1.5-4.5c1-1.3 2-3.2 2.1-3.8.1-.7-.6-2.1-1.3-2.8-.6-.6-1.3-1-1.8-1a.8.8 0 0 0-.4 0c-.6.4 0 5.3 0 5.3l-1.4-1-.7-.2c-.6 0-1.2 0-2 .3-1.1.5-.7 2.8-.7 2.8-1.3.3-2.5.4-3.5.4-2 0-3.3-.4-3.3-.4s.1-2.8.3-3.4c.3-.7-.2-1.4-1.2-3-.8-1-2-2.1-3-2.1Zm-40.7 15.2c-2.1 0-2.7-4-2.7-5.5 0-1.1.7-1.7 1.5-1.7l1 .3c3.8 2.7 2.8 6.7.4 7h-.2Z" class="cls-19"/><path d="m166.2 109.3-1.4-.3s0-2.8.3-3.5c.2-.6-.2-1.3-1.3-2.8-1-1.5-2.8-2.9-4-2-1 1-.5 2.8 0 4.2.4 1.3-.6 4.9-.6 4.9l-2 .4c-1.3.3-3 3.2-3.2 3.4-.2.3-2.4-.7-3-1-.6-.3-6.3-.6-7-.5-1 0-4.2-1-5.9-1.7-1.7-.7-3 .6-3 .6s-1-2.6-1.2-2.7c-.3 0-1 .7-1.5 1-.3.2-.4 3-.6 3.8-.1.7-1 .7-2.7 0a23 23 0 0 1-6.2-4.5c-1.4-1.6-3.3-2-3.5-2.3-.2-.4-.5-1.8-2.1-1.5-1.6.4-2 2.7-2 3.5s0 1.8-2.3 2c-2.4.3-7-2.6-8.7-3.8-1.7-1.2-1.5-4.3-1.5-4.3a2.6 2.6 0 0 0-.8-.1c-1 6.4 8.6 8.5 9.7 9 1.2.5 3.7-.9 3.7-.9s1-3.6 2.1-4c1.1-.4 1.5 1.5 2.2 1.5s4.3 2.7 6.4 4.8c2.1 2.2 6.2 2.6 6.2 2.6l1.4-3.2c.6-1.3 3 1 3.2 1s1.7-.8 3 .1c1.4 1 5 .2 7.9.5 2.8.3 6.3 2 6.3 2l2.5-2.9c1.1-1.4 3.4-1.2 3.4-1.2s1.2-5.1.9-6.8c-.4-1.7-.5-4.1 1.6-2.2 2 1.9 1 7.2 1 7.2l2.7-.4Z" class="cls-4"/><path fill="#b7eae8" stroke="#3c7bd6" stroke-linecap="round" stroke-linejoin="round" stroke-width="1.2" d="M164.8 94.1c-1.5 0-3.8-.5-4 0-.1.5 3.7 4.5 4.6 5.4 1 1 3.9.3 3.9-1.5s-2-3.9-4.5-3.9Z"/><path fill="url(#linear-gradient-2)" d="M139.6 55.5a1.7 1.7 0 0 1-.4 0c-1.2-.3-2-1.7-2.5-2.6a6.4 6.4 0 0 0-.4-.8l-.2-.2c-.5-.8-1.1-1.7-2.7-2a9 9 0 0 0-1.9-.2h-2.3c-1 0-2.2 0-2.9-.5a2 2 0 0 1-1-1.8c.1-.9.6-1.8 1.2-2a9 9 0 0 1 4-.9c2 0 4 .5 4.6.8.4.3 2 .4 3.2.6 1.1 0 2.3.2 3 .4 2 .4 4 2.6 5.2 3.7l.6.6c.8.8 1.4 1.4 1.3 2 0 .3 0 .6-.4.8a1.6 1.6 0 0 1-1 .3 5 5 0 0 1-2.6-.9c-.2-.1-1.2-.3-2.8-.3 0 .8-.1 1.7-.6 2.3-.4.5-.9.7-1.4.7Z"/><path d="M130.5 45.1c2 0 3.8.5 4.3.8 1 .4 4.6.6 6.4 1 1.9.4 4.1 2.8 5 3.8 1 1 2 1.8 1.4 2.2a1 1 0 0 1-.6.2 4.4 4.4 0 0 1-2.2-.8c-.6-.4-2.7-.4-3.5-.4h-.3c.2 1.3-.2 3-1.4 3h-.2c-1.4-.3-2-2.3-2.6-3.1-.6-.8-1.3-2-3.3-2.5-.5-.2-1.2-.2-2-.2h-2.3c-1 0-2 0-2.5-.4-1.3-.8-.5-2.6 0-2.8a8.5 8.5 0 0 1 3.8-.8m0-1.2c-1.7 0-3.2.3-4.3.9-.8.4-1.4 1.4-1.4 2.5a2.6 2.6 0 0 0 1.2 2.4c.9.6 2 .6 3.2.6h2.3a8 8 0 0 1 1.8.1c1.3.4 1.8 1.1 2.3 1.8l.2.3.4.6c.6 1.1 1.4 2.6 3 3a2.3 2.3 0 0 0 2.2-1 4 4 0 0 0 .8-2c1.1 0 1.7.1 1.9.2.6.5 1.8 1 2.9 1 .5 0 1-.1 1.4-.4.4-.3.6-.8.6-1.2 0-1-.7-1.7-1.5-2.6l-.4-.3-.2-.2c-1.1-1.2-3.3-3.5-5.4-4l-3.1-.4c-1 0-2.6-.3-3-.4-.8-.4-2.9-.9-5-.9Z" class="cls-16"/><path d="M131.8 46c2.5.8 4.2 1.6 6 1.5 1.6 0 10 4.4 9.4 5.6a.9.9 0 0 0 .4-.2c.7-.4-.4-1.3-1.3-2.3-1-1-3.2-3.3-5-3.7-1.9-.4-5.6-.6-6.5-1-.8-.5-5.3-1.4-8 0-.3 0-.5.4-.7.8a9 9 0 0 1 5.7-.6Zm36.1 51.3c-.2.4-1 .4-1.7 0-.7-.3-1.2-1-1-1.3.2-.4 1-.4 1.7 0 .7.3 1.2 1 1 1.3Z" class="cls-4"/><path fill="#703c16" d="M148 78.3c.3.9.6 1.8 1.1 2.5a7.8 7.8 0 0 0 2.2 2.1c.3.2.7 0 .8-.2.2-.3 0-.7-.2-.8a6.8 6.8 0 0 1-1.5-1.3v-.1l-.1-.1a7 7 0 0 1-.8-1.5l-.1-.3-.2-.6a.6.6 0 0 0-.8-.4c-.3 0-.5.4-.4.7Zm4.4-.3c1 1 2 1.9 3.1 2.5.3.1.7 0 .8-.2.2-.3.1-.7-.2-.9l-.9-.5-.2-.2h-.1a14 14 0 0 1-1.7-1.6c-.2-.2-.6-.2-.8 0s-.2.6 0 .9Zm18.7 8.4c3 2.5 4.6 6 4.6 9.9 0 .7 1.3.7 1.3 0a13.7 13.7 0 0 0-5-10.7c-.7-.5-1.5.3-1 .8Zm-.5 6.5c.6.4 1 1 1.2 1.7s.2 1.3 0 2c0 .3.1.7.5.7s.6 0 .7-.4a4.9 4.9 0 0 0-1.6-4.9c-.2-.2-.6-.2-.8 0-.2.2-.3.7 0 .9Zm-14.7-15.7 1 .9.4.2.5-.2.1-.4-.1-.5-1-.9-.5-.2-.4.2-.2.4c0 .1 0 .4.2.5Zm-16.2 16c-.2 3 2.7 4.8 5.1 5.7.3 0 .7-.2.7-.5.1-.3 0-.6-.4-.7a9.3 9.3 0 0 1-3-1.7c-.8-.7-1.2-1.6-1.2-2.7 0-.4-.3-.6-.6-.6s-.5.2-.6.6Z"/><path fill="#a18f70" stroke="#5b2307" stroke-linecap="round" stroke-linejoin="round" stroke-width="1.2" d="M64.6 81.2s22.5 5.5 46.2.4l6.1-8-46.2 6-6 1.6Z"/><path fill="#d2001e" stroke="#5b2307" stroke-linecap="round" stroke-linejoin="round" stroke-width="1.2" d="M64.6 81.2s11.1-2.1 22.6-3.6 23-3.3 23-3.3l3.4 1s-2.1 2.4-13.9 4.2-35 1.7-35 1.7Z"/><path fill="#ceb891" d="M107.2 75.3c-16 0-42.5-3-42.7-3a.6.6 0 0 1 0-1.3h.4c24.2-.5 43.7-1.8 44-1.8.2 0 .4.2.5.4 1 2.8 6 3.1 8 3.1h1.2a.6.6 0 0 1 .6.4.6.6 0 0 1-.2.7c-1 .7-3.2 1.1-6.6 1.3a89 89 0 0 1-5.2.2Z"/><path d="M108.8 69.8c1.2 3.1 6.2 3.5 8.6 3.5h1.2c-1 .6-3.2 1-6.2 1.2a91 91 0 0 1-5.2.1 490 490 0 0 1-42.7-3h.4c24.5-.5 44-1.8 44-1.8m0-1.2h-.2c-.1 0-19.7 1.3-43.9 1.8h-.3a1.2 1.2 0 0 0-1.2 1.1 1.2 1.2 0 0 0 1 1.3c.3 0 26.9 3 42.9 3l5.3-.1c3.4-.2 5.6-.7 6.8-1.4a1.2 1.2 0 0 0-.7-2.3h-1.2c-1.5 0-6.5-.1-7.4-2.6a1.2 1.2 0 0 0-1.2-.8Z" class="cls-1"/><path fill="url(#linear-gradient-3)" d="M95.3 103.3c-.6 0-1-1-1.2-6.7l-.1-1.7c0-.3-.2-.6-.4-.9-.3-.5-.5-1-.5-1.6.1-.5-.4-6.2-.7-9.9v-.2h.2c.7-.3 1.8-.5 3.1-.5h1.6l.3.1v.3s-.4 5.4-.4 7.4a6.6 6.6 0 0 1-.6 2.5c-.2.5-.4 1-.3 1.4 0 .1.3 9.6-1 9.8Z"/><path d="m95.7 82.1 1.6.1-.5 7.4c0 2-1 2.7-.9 4 .1 1.2.1 9.3-.6 9.5-.8 0-.9-7.5-1-8.2s-1-1.7-.9-2.4c.1-.8-.7-10-.7-10 .8-.3 2-.3 3-.3m0-.6a10 10 0 0 0-3.2.4l-.5.1v.5c.4 3.5.9 9.2.8 9.8 0 .6.3 1.2.5 1.7l.4.9v1.6c.4 6.2.7 7 1.5 7h.2c.5 0 1-.5 1.1-4.9v-5.2l.3-1.3c.3-.6.6-1.4.6-2.6l.5-7.4v-.6h-2.2Z" class="cls-16"/><path fill="url(#linear-gradient-4)" d="M80.7 104.6a.6.6 0 0 1-.4-.2c-.3-.3-.6-1-.4-3.8l-.1-5.3c-.5-.4-.6-1.7-.5-3.6l-.3-7.5V84h.2s3.1-.3 5.5-.3c2.1 0 2.6.3 2.7.5.1.2.2.3 0 .5-.2.6-.6 3.6-1 6.2-.9 5.8-1 5.8-1.3 5.8-.5 0-.6-.7-.6-3v-.5L84 89a39.7 39.7 0 0 0-.6 4c0 1.3-.8 4-1 4.2l-.4 2.6c-.6 4.3-.8 4.7-1.2 4.8Z"/><path d="M84.6 83.9c1.6 0 2.8.1 2.6.6-.6 1.2-1.8 11.8-2.1 11.8-.4 0-.3-2.3-.3-3.2 0-1-.8-6-.8-6S83 91.8 83 93s-.7 3.3-1 4.2c-.2.8-1 7-1.4 7-.4 0-.7-.8-.6-3.6.2-2.8 0-5.4 0-5.4-.5-.3-.6-1.8-.5-3.5l-.3-7.5s3-.3 5.4-.3m0-.6c-2.4 0-5.4.3-5.5.3h-.6v.7l.4 7.4c0 2 0 3.2.5 3.8 0 .7.2 2.9 0 5.1 0 2.8.2 3.6.6 4l.6.3h.1c.7 0 .8-.6 1.5-5l.4-2.6c.1-.3 1-3 1-4.3l.3-2a24 24 0 0 1 .2 2v.6c0 2.2 0 3.3.9 3.3.7 0 .7 0 1.6-6 .4-2.6.8-5.7 1-6.2a.8.8 0 0 0 0-.8c-.3-.4-.9-.6-3-.6Z" class="cls-16"/><path fill="url(#linear-gradient-5)" d="M67.5 98.3c-.5 0-.6-.4-.8-5.4l-.2-4-.6-6v-.3l.2-.1c.2 0 3-1 4.4-1 .8 0 1 .3 1 .5.1.8-.6 3.2-1.6 6l-.4 1.5-.7 4c-.7 4.4-.8 4.8-1.3 4.8Z"/><path d="M70.5 81.8c.4 0 .7 0 .7.3.2 1-1.5 5.7-2 7.3-.5 1.7-1.2 8.6-1.7 8.6-.4 0-.4-6.5-.7-9.2l-.6-6s2.9-1 4.3-1m0-.6c-1.5 0-4.3 1-4.5 1l-.4.1v.5l.6 6 .2 4c.2 5.2.3 5.8 1.1 5.8.7 0 .9-.5 1.6-5l.7-4 .4-1.5c1-3 1.7-5.3 1.6-6.1 0-.3-.3-.8-1.3-.8Z" class="cls-16"/><path d="M95.7 82.8h1a318 318 0 0 0-.5 6.8c0 1-.2 1.6-.5 2.2-.2.6-.4 1-.4 1.8v6.7l-.3-3.7a20.7 20.7 0 0 0-.1-1.8c0-.4-.3-.8-.5-1.2l-.4-1c.1-.8-.5-7.4-.7-9.6a11 11 0 0 1 2.4-.3m0-.6a9.9 9.9 0 0 0-3 .4s.8 9.2.7 10c0 .7.8 1.6.9 2.4.1.7.2 8.2 1 8.2.7-.2.7-8.3.6-9.5 0-1.2.9-2 1-4 0-2 .4-7.4.4-7.4h-1.6Zm-11.3 2.5 2.1.1-1 6-.3 1.4a181 181 0 0 0-.6-5l-.4-2.6h.2m-.6 0-.4 2.5a68.1 68.1 0 0 0-1 6c0 1-.6 3-1 4l-.5 2.7-.4 2.3v-1.4c.2-2.7 0-5.4 0-5.5v-.3l-.2-.2a125.3 125.3 0 0 0-.4-9.9l4-.2m.5-.6c-2.3 0-5.1.3-5.1.3s.3 5.7.2 7.4c0 1.8 0 3.3.5 3.6v5.4c-.2 2.7 0 3.7.5 3.7s1.2-6.3 1.5-7.1c.3-.9 1-3 1-4.2 0-1.1 1-5.8 1-5.8s.7 5 .7 6c0 .8-.1 3.2.3 3.2.3 0 1.7-10.6 2.2-11.8.2-.5-1.2-.7-2.8-.7Zm-13.9-1.6h.2c-.1 1-1.1 3.9-1.6 5.3l-.5 1.6c-.3.7-.5 2.3-.8 4l-.2 1.2v-1.7a76.5 76.5 0 0 0-.2-4 383.1 383.1 0 0 1-.5-5.6c1-.3 2.7-.8 3.6-.8m0-.6c-1.4 0-4.2 1-4.2 1l.5 6c.3 2.7.1 9.2.6 9.2s1.2-7 1.8-8.6 2.2-6.3 2-7.3c0-.2-.3-.3-.7-.3Z" class="cls-4"/><path d="M96 89.3c0 .7-.3 1.3-.7 1.3-.4 0-.8-.5-.9-1.2 0-.8.2-1.4.7-1.4.4 0 .8.5.8 1.3Zm-14.4.2c0 1-.5 1.8-1 1.8-.4 0-.7-.9-.7-2 0-1 .5-1.8 1-1.8.4 0 .7 1 .7 2Zm37-16.2c-1 .6-3.2 1-6.2 1.2-2-.5-4-1.5-5.2-3.2 0 0-31 1.2-42.3.3 24.5-.5 44-1.8 44-1.8 1.4 4 9.2 3.5 9.7 3.5Z" class="cls-4"/></g></svg>