<svg xmlns="http://www.w3.org/2000/svg" xmlns:xlink="http://www.w3.org/1999/xlink" id="Layer_2" data-name="Layer 2" viewBox="0 0 181.08 146.69">
  <defs>
    <linearGradient id="linear-gradient" x1="139.95" x2="139.95" y1="136.25" y2="102.59" gradientUnits="userSpaceOnUse">
      <stop offset="0" stop-color="#dbffff"/>
      <stop offset="1" stop-color="#339ed3"/>
    </linearGradient>
    <linearGradient xlink:href="#linear-gradient" id="linear-gradient-2" x1="136.9" x2="136.9" y1="44.59" y2="54.13"/>
    <linearGradient id="linear-gradient-3" x1="137.74" x2="137.74" y1="276.92" y2="255.89" gradientTransform="rotate(-4.27 -2210.16 742.52)" gradientUnits="userSpaceOnUse">
      <stop offset="0" stop-color="#dbffff"/>
      <stop offset="1" stop-color="#1376a6"/>
    </linearGradient>
    <linearGradient xlink:href="#linear-gradient-3" id="linear-gradient-4" x1="150.71" x2="150.71" y1="243.76" y2="222.72" gradientTransform="rotate(4 2100.44 -813.2)"/>
    <linearGradient xlink:href="#linear-gradient-3" id="linear-gradient-5" x1="137.44" x2="137.44" y1="241.26" y2="220.06" gradientTransform="rotate(4.01 2081.63 -829.48)"/>
    <style>
      .cls-1{fill:#5b2307}.cls-3{fill:#b56e00}.cls-4{fill:#fff}.cls-8,.cls-9{stroke-linecap:round;stroke-linejoin:round}.cls-8{stroke-width:1.21px;stroke:#5b2307;fill:#a36731}.cls-16{fill:#3c7bd6}.cls-9{stroke:#4c1a09;stroke-width:.6px;fill:none}.cls-19{fill:#b7eae8}.cls-20{fill:#de921b}.cls-21{fill:#4c1a09}.cls-25{fill:#ffb136}.cls-27{fill:#755b46}
    </style>
  </defs>
  <g id="Layer_1-2" data-name="Layer 1">
    <rect width="140.37" height="102.81" x=".6" y=".6" class="cls-20" rx=".6" ry=".6"/>
    <path d="M140.37 1.2v101.61H1.2V1.2h139.17m0-1.2H1.2C.54 0 0 .54 0 1.2v101.61c0 .66.54 1.2 1.2 1.2h139.17c.66 0 1.2-.54 1.2-1.2V1.2c0-.66-.54-1.2-1.2-1.2Z" class="cls-1"/>
    <path d="M8.74 7.91h125.73V97.4H8.74z" class="cls-25"/>
    <path d="M7.1 6.58h125.73v89.49H7.1z" class="cls-3"/>
    <path d="M7.1 96.06v1.3l2.83-2.29" class="cls-3"/>
    <path d="m8.74 97.4-1.64-.04 2.34-2.02M132.06 8.26l2.44-1.72-.03 1.37" class="cls-25"/>
    <path d="m132.83 6.58 1.67-.04-2.76 1.97" class="cls-3"/>
    <rect width="123.88" height="87.88" x="8.84" y="8.06" fill="#427a5a" rx=".6" ry=".6"/>
    <path d="M132.12 8.66v86.68H9.44V8.66h122.68m0-1.2H9.44c-.66 0-1.2.54-1.2 1.2v86.68c0 .66.54 1.2 1.2 1.2h122.68c.66 0 1.2-.54 1.2-1.2V8.66c0-.66-.54-1.2-1.2-1.2Z" class="cls-1"/>
    <path fill="#255c3c" d="M132.12 8.66v1.45H10.89v85.23H9.44V8.66h122.68z"/>
    <path d="M14.08 103.28a.6.6 0 0 1-.6-.6v-2.53a6.87 6.87 0 0 1 6.86-6.86h100.88a6.87 6.87 0 0 1 6.86 6.86v2.53a.6.6 0 0 1-.6.6H14.08Z" class="cls-20"/>
    <path d="M121.23 93.9c3.46 0 6.26 2.8 6.26 6.26v2.53H14.08v-2.53c0-3.46 2.8-6.26 6.26-6.26h100.88m0-1.2H20.34a7.47 7.47 0 0 0-7.46 7.46v2.53c0 .66.54 1.2 1.2 1.2h113.4c.66 0 1.2-.54 1.2-1.2v-2.53a7.47 7.47 0 0 0-7.46-7.46Z" class="cls-1"/>
    <path d="M14.08 101.3h113.4v1.39H14.08z" class="cls-3"/>
    <path d="M125.08 95.22H18.96s-3.55.97-3.73 4.28c-.03.56-.05 1.18-.06 1.81l-.01 1.39H14.1v-2.53c0-3.46 2.8-6.26 6.26-6.26h100.89a6.2 6.2 0 0 1 3.85 1.32Z" class="cls-25"/>
    <path d="M100.29 87.25S92.2 92.3 86.67 94.5c-3.08 1.22 2.78 9.05 2.78 9.05s13.48 1 16.74-1.58" class="cls-8"/>
    <path fill="#5e5e5e" d="M89.71 107.06a.66.66 0 0 1-.27-.06.61.61 0 0 1-.3-.35L59.4 18.18c-.05-.15-.04-.32.03-.46s.2-.25.35-.3l2.05-.69a.61.61 0 0 1 .76.38l29.74 88.47a.6.6 0 0 1-.38.76l-2.05.69a.63.63 0 0 1-.19.03Z"/>
    <path fill="#242424" d="m62.03 17.3 29.74 88.47-2.05.69-29.75-88.47 2.05-.69m0-1.2c-.13 0-.26.02-.38.06l-2.05.69a1.2 1.2 0 0 0-.76 1.52l29.74 88.47a1.21 1.21 0 0 0 1.52.76l2.05-.69c.3-.1.55-.32.69-.6.14-.29.16-.61.06-.92L63.16 16.92a1.2 1.2 0 0 0-1.13-.82Z"/>
    <path d="M84.79 93.82s-1.08 1.47-.86 3.12c.22 1.65 1.62 6.06 3.94 6.84 2.31.78 4.97-.72 5.46-1.99.5-1.27-1.01-2.61-2.25-2.72 0 0 2.14-1.43 1.77-2.78-.37-1.35-3.78-1.24-3.78-1.24s1.31-1.95.25-2.61-3.75.46-4.53 1.39Z" class="cls-8"/>
    <path d="M114.81 141.97a.94.94 0 0 1-.94-.74c-.23-.88.62-2.24 1.62-3.46l-3.71 1.76a113.7 113.7 0 0 1-4.13 1.93c-.34.14-.69.21-1.01.21-.8 0-1.45-.43-1.72-1.11-.28-.74-.02-1.59.68-2.22.59-.53 2.21-1.5 4.1-2.56-2.88 0-4.17-.42-4.29-1.38-.13-.98 1.22-1.69 2.52-2.03 2.33-.61 8.2-1.15 8.45-1.17 1.28-.14 2.62-.22 3.84-.22 3.38 0 5.26.51 5.58 1.52.38 1.22-1.42 2.51-3.5 4-.58.42-1.16.83-1.62 1.2-.4.32-.9.76-1.43 1.23-2.07 1.83-3.5 3.03-4.43 3.03Z" class="cls-27"/>
    <path d="M120.2 131.59c2.64 0 4.77.35 5 1.1.34 1.09-3.11 3.09-4.92 4.55-1.54 1.24-4.43 4.13-5.48 4.13-.18 0-.31-.09-.36-.29-.35-1.34 3.47-5.05 3.47-5.05-2.51 1.01-8.8 4.17-10.51 4.88a2 2 0 0 1-.78.17c-1.2 0-1.72-1.32-.64-2.28 1.3-1.16 8.51-4.93 8.46-4.93s-3.92 1.31-3.92 1.31h-.75c-5.59 0-3.93-1.64-1.71-2.22 2.31-.6 8.35-1.16 8.35-1.16 1.29-.14 2.59-.21 3.79-.21m0-1.21c-1.25 0-2.61.08-3.92.22-.23.02-6.14.57-8.52 1.19-2 .52-3.11 1.53-2.96 2.69.15 1.16 1.3 1.63 2.8 1.81a17.32 17.32 0 0 0-2.41 1.61c-.89.8-1.21 1.9-.84 2.89a2.4 2.4 0 0 0 2.28 1.5c.41 0 .83-.09 1.24-.26.77-.32 2.34-1.07 4.17-1.95l1.69-.81c-.41.78-.6 1.51-.44 2.11.19.72.79 1.19 1.53 1.19 1.1 0 2.38-1.02 4.83-3.18a31.6 31.6 0 0 1 3-2.39c2.37-1.69 4.23-3.03 3.72-4.67-.28-.91-1.24-1.95-6.15-1.95Z" class="cls-21"/>
    <path d="M107.86 136.91s2.19.64 2 3.28m1.66-5.05s3.18-.51 3.06 2.72m-5.36-5.59s1.59.87.83 3.28m5.92 1.85s2.23-.6 3.02 1.83m-5.74-7.64c.11.19 1.66.15 1.85 1.92 0 0 2.78-.66 3.41 1.78 0 0 2.78-.76 3.31 1.39" class="cls-9"/>
    <path d="M137.44 146.08c-1 0-1.29-.64-1.36-.92-.51-1.87 2.48-4.52 4.93-6.33-.59.1-1.3.23-2.03.38-1.57.3-3.19.61-4.01.61-.22 0-.89 0-1.04-.57-.16-.6.45-1.01 1.15-1.41 3.33-1.93 11.16-3.52 11.97-3.68.73-.3 7.53-3.02 10.42-3.02.8 0 1.32.2 1.59.62.16.25.3.68.01 1.33-1.28 2.91-6.53 11.33-9.48 11.33-.14 0-.28-.02-.41-.05a1.45 1.45 0 0 1-1.08-.97c-.29-.86.2-2.11.8-3.21l-.99.62c-4.59 2.88-8.55 5.26-10.47 5.26Z" class="cls-27"/>
    <path d="M157.46 131.75c.93 0 1.4.3 1.05 1.11-1.41 3.2-6.54 10.97-8.93 10.97a1 1 0 0 1-.25-.03c-2.26-.6 1.51-5.43 1.51-5.43-1.96.92-10.68 7.11-13.4 7.11-.42 0-.69-.14-.78-.47-.68-2.49 7.42-7.52 7.42-7.52l-2.24.63c-1.58.15-5.52 1.11-6.87 1.11-.65 0-.69-.22.41-.86 3.39-1.96 11.85-3.62 11.85-3.62s7.33-2.99 10.24-2.99m0-1.21c-2.94 0-9.43 2.57-10.59 3.04-1.08.22-8.75 1.8-12.1 3.74-.6.35-1.72.99-1.43 2.09.1.38.45 1.02 1.62 1.02.81 0 2.22-.26 3.74-.55-2.02 1.75-3.67 3.77-3.22 5.44.23.85.96 1.36 1.94 1.36 1.99 0 5.6-2.11 10.14-4.95a3.13 3.13 0 0 0-.05 1.86c.23.68.76 1.17 1.5 1.36.18.05.37.07.56.07 3.62 0 9.13-9.63 10.03-11.7.39-.9.19-1.53-.06-1.9-.39-.59-1.09-.9-2.1-.9Z" class="cls-21"/>
    <path d="M137.36 142.19s3.42-.55 4.07 2.52m-1.1-5.44s5.79-1.41 6.24 2.36m-8.81-4.97s1.21.96.45 2.62m10.22 1.7s2.97-2.31 5.53-.25m-10.51-5.13s1.46-.35 1.86 1.06c0 0 4.33-1.31 6.24.65 0 0 3.72-2.47 5.53-.65" class="cls-9"/>
    <path d="M121.92 134.48c-1.38 0-2.71-.24-3.94-.7-6.49-2.45-6.8-9.38-6.8-9.45-.01-.3.2-.56.5-.62.75-.13 1.53-.2 2.34-.2 8.22 0 16.72 6.67 17.08 6.96.15.12.23.3.23.49s-.1.37-.25.48c-.17.12-4.24 3.04-9.15 3.04Z" class="cls-19"/>
    <path d="M114.02 124.13c8.11 0 16.7 6.83 16.7 6.83s-4.03 2.93-8.8 2.93c-1.21 0-2.47-.19-3.73-.66-6.19-2.34-6.41-8.9-6.41-8.9.74-.13 1.48-.19 2.23-.19m0-1.21c-.84 0-1.66.07-2.44.2-.59.1-1.02.63-1 1.23.01.3.33 7.4 7.19 9.99 1.3.49 2.7.74 4.15.74 5.1 0 9.33-3.03 9.51-3.16a1.2 1.2 0 0 0 .04-1.92c-.36-.29-9.02-7.09-17.46-7.09Z" class="cls-16"/>
    <path fill="#a36731" d="M139.3 132.45c-1.21 0-2.44-.06-3.66-.17-23.9-2.28-33.94-15.16-34.85-23.27-.44-3.89.06-7.3.7-9.83-.46.37-1.12.81-1.73.81-.35 0-.65-.13-.88-.38-.37-.4-.5-1.07-.42-2.09.18-2.19 1.59-4.5 2.79-6.09l-.07.04c-.81.45-1.45.8-2.01.8-.39 0-.63-.17-.77-.31-.34-.36-.36-.89-.34-1.26.09-2.17 2.82-4.22 3.91-4.95-.54-1.72-2.19-8.07-.88-17.24 1.23-8.61 7.86-14.83 10.62-17.09-1.2-.25-2.25-.76-2.41-1.63-.1-.54.12-1.32 1.72-1.97 1-.41 2.28-.65 3.53-.79-.91-.37-1.6-.83-1.71-1.4-.08-.36 0-.9.81-1.4a4.2 4.2 0 0 1 2.25-.55c1.56 0 3.33.55 4.68 1.08-.28-.54-.44-1.07-.29-1.48a1 1 0 0 1 .83-.64l.23-.02c1.37 0 3.33 1.89 4.04 2.62l1.19-.02c18.93 0 27.15 11.83 30.72 21.75 2.27 6.31 7.07 9.25 12.63 12.67 6.03 3.7 9.55 9.78 9.81 10.46.15.39.02.66-.07.79-.11.16-.32.34-.73.34h-.14c1.36 2.68 1.67 6.38 1.67 7.14 0 .47-.34.81-.81.81-.12 0-.24-.02-.38-.06.98 3.15.63 7.21-.19 8.03-.63.63-3.49 5.69-3.66 6.33-.16.96-14.64 18.97-36.12 18.97Z"/>
    <path d="M121.35 43.24c1.35 0 3.78 2.63 3.78 2.63.49-.02.96-.02 1.44-.02 21 0 27.89 15.05 30.15 21.35 2.31 6.44 7.14 9.46 12.88 12.98 5.73 3.52 9.26 9.36 9.56 10.16.09.23-.02.31-.23.31-.51 0-1.58-.51-1.58-.51 2.11 2.41 2.52 7.55 2.52 8.25 0 .15-.08.21-.21.21-.48 0-1.6-.81-1.6-.81 1.71 3.02 1.31 8.25.6 8.95-.7.7-3.72 6.04-3.82 6.64-.1.57-14.28 18.48-35.53 18.48a40.1 40.1 0 0 1-3.6-.17c-23.24-2.21-33.4-14.69-34.3-22.74-.91-8.05 2.31-14.08 2.31-14.08-1.41 1.41-2.11 3.42-2.11 3.42s-1.07 1.11-1.82 1.11c-.47 0-.81-.43-.69-1.81.3-3.62 4.33-7.75 4.33-7.75-1.7.42-3.4 1.84-4.22 1.84-.35 0-.54-.25-.51-.94.1-2.31 4.02-4.73 4.02-4.73s-2.51-6.84-1.01-17.4c1.51-10.56 11.57-17.6 11.57-17.6-3.02-.1-4.73-1.51-2.01-2.62 1.99-.81 5.23-.92 6.82-.92l.93.01s-7.65-1.11-5.03-2.72a3.7 3.7 0 0 1 1.94-.46c2.83 0 6.51 1.98 6.51 1.98s-2.51-2.82-1.21-3.02l.14-.01m0-1.21c-.11 0-.22 0-.32.02-.63.1-1.1.47-1.3 1.03a1.6 1.6 0 0 0-.1.7c-1.18-.39-2.51-.7-3.72-.7-1.02 0-1.88.22-2.57.64-1.16.72-1.18 1.58-1.08 2.03.04.19.11.54.53.94-.71.14-1.4.33-1.99.57-2.07.84-2.19 2.01-2.08 2.63.14.78.76 1.4 1.75 1.8-3.15 2.76-8.82 8.74-9.97 16.73-1.23 8.64.14 14.83.78 17.07-1.35.96-3.71 2.95-3.81 5.18-.01.28-.05 1.12.51 1.7.31.32.74.5 1.2.5.13 0 .27-.01.4-.04a11.3 11.3 0 0 0-1.72 4.63c-.1 1.2.08 2.01.58 2.55.34.37.81.57 1.32.57.28 0 .56-.06.82-.16a27.7 27.7 0 0 0-.4 8.64c.93 8.3 11.13 21.49 35.39 23.8 1.23.12 2.48.18 3.72.18 11.38 0 20.64-5.04 26.41-9.26 6-4.39 10.16-9.32 10.31-10.23 0 .02 0 .06-.02.09.23-.71 2.93-5.47 3.51-6.08.95-.95 1.32-4.66.56-7.84.59-.17 1-.7 1-1.36 0-.05-.13-3.68-1.4-6.7.25-.13.4-.3.49-.43.26-.38.31-.87.13-1.34-.46-1.21-4.28-7.22-10.06-10.77-5.46-3.35-10.18-6.25-12.37-12.36-3.63-10.1-12.01-22.15-31.29-22.15h-.94c-1-1.01-2.81-2.61-4.29-2.61Z" class="cls-1"/>
    <path fill="#8e5424" d="M174.83 113.37c.1-.6 3.12-5.94 3.82-6.64.7-.7 1.11-5.94-.6-8.95 0 0 1.81 1.31 1.81.6s-.4-5.83-2.52-8.25c0 0 2.11 1.01 1.81.2-.3-.8-3.82-6.64-9.56-10.16-2.93-1.8-5.62-3.47-7.86-5.52s7.95 8.44 7.55 16.42c-.4 7.98-4.07 4.93-4.07 4.93l-6.59-3.54s2.22 5.97-1.3 8.02c-3.52 2.04-4.53 0-4.53 0s1.21 3.85-3.32 4.86c-4.53 1.01-16.4 1.01-21.63 0s-12.15-3.22-12.81-7.04c-.67-3.82-1.39-4.42-1.39-4.42s-5.11 6.87-5.71 3.53c-.6-3.34.35-5.84.35-5.84s-4.27 2.7-3.82.89a21.9 21.9 0 0 1 1.46-3.82s-1.79-.81-3.44-2.47c-.82.54-3.72 2.6-3.81 4.59-.1 2.31 2.31-.3 4.73-.9 0 0-4.03 4.12-4.33 7.75-.3 3.62 2.52.7 2.52.7s.7-2.01 2.11-3.42c0 0-3.22 6.04-2.31 14.08.91 8.05 11.07 20.52 34.3 22.74 23.24 2.21 39.03-17.71 39.13-18.31Z"/>
    <path fill="#bd852d" d="M163.77 109.95c-10.76-1.41-31.19-9.35-28.67-19.62 2.52-10.26 10.56-7.34 13.48-20s-10.16-20.24-20.32-18.93c-10.16 1.31-15.19 11.27-15.59 11.97-.4.7-5.33.7-7.24.3-1.87-.39-1.1-2.56-1.07-2.65a21.81 21.81 0 0 0-2.65 7.58c-1.51 10.56 1.01 17.4 1.01 17.4s-3.92 2.41-4.02 4.73c-.1 2.31 2.31-.3 4.73-.9 0 0-4.03 4.12-4.33 7.75-.3 3.62 2.52.7 2.52.7s.7-2.01 2.11-3.42c0 0-3.22 6.04-2.31 14.08.91 8.05 11.07 20.52 34.3 22.74 19.48 1.85 33.72-11.84 37.88-16.67-1.91-2.55-5.28-4.47-9.81-5.06Z"/>
    <path fill="#91682c" d="M138.34 131.83c.45.01.9.02 1.34.01.24 0 .48 0 .72-.02a25.11 25.11 0 0 0 1.94-.11c.43-.03.85-.08 1.28-.13l.6-.07c.56-.07 1.11-.16 1.65-.25.06 0 .12-.02.17-.03.61-.11 1.2-.23 1.8-.37l.48-.12 1.27-.32.58-.17a49.59 49.59 0 0 0 1.71-.54l1.15-.41.49-.18a57.53 57.53 0 0 0 3.13-1.33l.29-.14 1.19-.59.44-.23 1-.54.45-.25.97-.57.39-.24 1.09-.69.2-.13c.43-.28.85-.56 1.26-.85l.18-.13.99-.71.35-.26.76-.58.38-.29.69-.56.35-.29.7-.59.27-.23c.31-.26.6-.53.88-.78l.23-.22.59-.54.34-.33.41-.4.35-.35.33-.34.34-.35.26-.27.34-.37.06-.07.84-.94c-1.91-2.55-5.28-4.47-9.81-5.06a59.2 59.2 0 0 1-15.22-4.45c-5.05.83-15.79.77-20.7-.18-5.23-1.01-12.15-3.22-12.81-7.04-.67-3.82-1.39-4.42-1.39-4.42s-5.11 6.87-5.71 3.53c-.6-3.34.35-5.84.35-5.84s-4.27 2.7-3.82.89a21.9 21.9 0 0 1 1.46-3.82s-1.79-.81-3.44-2.47l-.17.11a.22.22 0 0 1-.08.05l-.21.15-.21.15-.09.07-.23.17a4.24 4.24 0 0 0-.34.28l-.1.09-.26.22-.1.08-.3.28-.06.05a9.2 9.2 0 0 0-.96 1.11l-.09.13-.17.27-.08.14-.13.26-.06.15c-.04.09-.06.19-.09.28l-.04.13a2.9 2.9 0 0 0-.06.41c-.1 2.31 2.31-.3 4.73-.9 0 0-4.03 4.12-4.33 7.75-.3 3.62 2.52.7 2.52.7s.7-2.01 2.11-3.42c0 0-3.22 6.04-2.31 14.08.91 8.05 11.07 20.52 34.3 22.74a45.72 45.72 0 0 0 2.63.15Z"/>
    <path fill="none" stroke="#5b2307" stroke-linecap="round" stroke-linejoin="round" stroke-width="1.21" d="M120.62 74.88s.1-2.16-1.15-3.27"/>
    <path fill="#f7d33c" d="M132.73 77.71c-5.62 0-10.2-5.21-10.2-11.62s4.57-11.62 10.2-11.62 10.2 5.21 10.2 11.62-4.57 11.62-10.2 11.62Z"/>
    <path d="M132.73 55.07c5.3 0 9.59 4.93 9.59 11.02s-4.29 11.02-9.59 11.02-9.59-4.93-9.59-11.02 4.29-11.02 9.59-11.02m0-1.21c-5.95 0-10.8 5.48-10.8 12.22s4.84 12.22 10.8 12.22 10.8-5.48 10.8-12.22-4.84-12.22-10.8-12.22Z" class="cls-1"/>
    <path fill="#ed9935" d="M132.73 55.07c-5.3 0-9.59 4.93-9.59 11.02 0 2.73.87 5.22 2.3 7.14.02-.06 2.04-5.63 7.87-5.83 5.32-.18 6.46 4.51 6.59 5.99a11.92 11.92 0 0 0 2.42-7.3c0-6.08-4.29-11.02-9.59-11.02Z"/>
    <path d="M137.38 64.52c0 4.14-2.92 7.49-6.52 7.49s-6.52-3.35-6.52-7.49 2.92-7.49 6.52-7.49 6.52 3.35 6.52 7.49Z" class="cls-21"/>
    <path fill="#c4964d" stroke="#5b2307" stroke-linecap="round" stroke-linejoin="round" stroke-width="1.21" d="M129.94 79.48s1.28-3.32 5.89-4.15 6.15 1.32 6.15 1.32"/>
    <path d="M125.24 58.67c-1.71 1.55-2.08 3.93-.83 5.3 1.25 1.37 3.64 1.22 5.35-.33 1.71-1.55 2.08-3.93.83-5.3-1.25-1.37-3.65-1.22-5.35.33Zm13.78 13.05c0 .38-.67.69-1.5.69s-1.5-.31-1.5-.69.67-.69 1.5-.69 1.5.31 1.5.69Z" class="cls-4"/>
    <path d="M148.6 136.03c-3.08 0-4.42-1.18-4.94-1.87-.42.02-1.21.05-2.28.05-4.76 0-14.03-.53-22.61-4.11-9.68-4.03-11.77-6.52-13.03-8.01-.27-.32-.48-.57-.71-.76-1.1-.93-1.45-2.19-1.69-3.03-.06-.21-.14-.51-.19-.58l-.1-.08c-2.44-2.27-3.65-4.62-3.6-6.96.01-.6 0-1.27-.01-1.96-.05-2.64-.11-5.37 1.08-6.59.4-.41.91-.62 1.5-.62.29 0 .6.05.92.15.26.08.44.33.43.61-.04.77.12 2.96 1.26 3.78 1.61 1.17 5.88 3.75 8.05 3.75h.22c1.79-.17 1.79-.68 1.79-1.44 0-.97.44-3.58 2.43-4.06.22-.05.43-.08.63-.08 1.34 0 1.84 1.13 2.05 1.62l.08.18c.04 0 .28.11.47.2.73.34 1.96.91 2.94 2.05 1.23 1.43 4.27 3.52 5.98 4.29.93.42 1.44.51 1.71.51.15 0 .21-.03.23-.04.06-.26.1-.73.14-1.23.19-2.16.3-2.79.76-3.06l.43-.31c.57-.44.92-.68 1.28-.68.06 0 .17.02.23.04.24.08.45.15 1.35 2.27a3.3 3.3 0 0 1 2.9-.22c2.08.82 4.78 1.7 5.5 1.7l.64-.02c.98 0 6.04.14 6.81.53 1.15.57 2.03.93 2.43 1.04l.06-.09c1-1.5 2.18-3.07 3.38-3.34l1.6-.37c.34-1.34.71-3.42.45-4.21-.5-1.49-1.16-3.49.3-4.73.37-.32.81-.47 1.29-.47 1.34 0 2.71 1.28 3.55 2.48 1.09 1.56 1.69 2.42 1.36 3.4-.12.35-.21 1.71-.25 2.8a15.59 15.59 0 0 0 5.44-.01c-.04-.87.06-2.42 1.27-2.87a6.08 6.08 0 0 1 2.08-.38c.52 0 .89.07 1.1.22l.27.2c-.37-3.96.2-4.24.49-4.39.2-.1.42-.15.65-.15.65 0 1.39.39 2.21 1.15.74.69 1.7 2.34 1.51 3.34-.16.88-1.32 2.85-2.25 4.07-.93 1.21-1.26 2.98-1.26 4.12s-1.32 2.22-2.38 3.09c-.35.29-.79.64-.89.79-.09.14-9.58 13.91-18.19 16.91a21.69 21.69 0 0 1-6.89 1.39Zm-29.75-26.95c-.45 0-.91.33-.91 1.08 0 1.46.62 4.95 2.16 4.95h.13c.7-.08 1.26-.64 1.47-1.47.29-1.17-.15-2.93-2.25-4.36-.19-.13-.4-.19-.6-.19Z" class="cls-19"/>
    <path d="M160.77 100.46c1.04 0 2.25 1.07 3.05 2.22 1.06 1.51 1.51 2.19 1.28 2.87-.23.68-.3 3.47-.3 3.47s1.27.37 3.26.37c.99 0 2.17-.09 3.45-.37 0 0-.38-2.34.83-2.79a5.39 5.39 0 0 1 1.87-.34c.39 0 .67.05.77.12.23.15 1.36 1.08 1.36 1.08s-.6-4.93 0-5.23a.85.85 0 0 1 .38-.09c.55 0 1.22.45 1.8.99.73.68 1.46 2.11 1.33 2.79-.13.68-1.13 2.5-2.14 3.81-1.01 1.32-1.38 3.21-1.38 4.49s-2.72 2.86-3.17 3.54c-.45.68-9.66 13.81-17.88 16.67-2.87 1-5.05 1.36-6.69 1.36-3.07 0-4.28-1.25-4.62-1.89 0 0-.96.07-2.59.07-4.42 0-13.78-.48-22.38-4.06-11.77-4.91-12.15-7.47-13.58-8.68-1.43-1.21-1.43-3.17-1.81-3.55-.38-.38-3.62-3.09-3.55-6.64.07-3.26-.63-8.57 1.97-8.57.22 0 .47.04.75.12 0 0-.15 3.09 1.51 4.3 1.6 1.16 5.99 3.86 8.4 3.86l.27-.01c2.34-.23 2.34-1.21 2.34-2.04s.38-3.09 1.96-3.47c.18-.04.34-.06.49-.06 1.16 0 1.42 1.17 1.62 1.5.23.37 2.11.75 3.47 2.33 1.36 1.58 4.53 3.7 6.19 4.45.83.38 1.49.57 1.96.57s.75-.19.83-.57c.15-.75.23-3.62.6-3.85.36-.22 1.13-.91 1.4-.91h.04c.23.08 1.28 2.64 1.28 2.64s.75-.8 1.93-.8c.31 0 .65.06 1.01.2 1.68.66 4.77 1.74 5.72 1.74h.09l.55-.01c1.67 0 6.01.21 6.54.47.54.27 2.33 1.14 2.88 1.14.07 0 .12-.01.14-.04.23-.26 1.89-3.13 3.24-3.43 1.36-.3 1.96-.45 1.96-.45s.98-3.55.53-4.9c-.45-1.36-1.04-3.09.12-4.08.27-.23.58-.33.9-.33m-40.66 15.25.19-.01c2.33-.25 3.4-4.28-.5-6.93-.3-.2-.62-.3-.94-.3-.79 0-1.52.6-1.52 1.68 0 1.47.59 5.55 2.77 5.55m40.66-16.46c-.62 0-1.2.21-1.68.62-1.78 1.5-.98 3.91-.5 5.35.18.54-.03 2.13-.36 3.55l-1.23.28c-1.32.29-2.48 1.73-3.55 3.3-.45-.17-1.14-.47-1.91-.86-1.04-.52-7.02-.59-7.08-.59-.3 0-.53 0-.66.02-.54 0-3.01-.78-5.26-1.66a3.93 3.93 0 0 0-2.82-.03c-.81-1.81-1.06-1.89-1.46-2.03a1.48 1.48 0 0 0-.42-.07c-.58 0-1.05.36-1.64.81-.14.11-.28.22-.38.27-.75.45-.86 1.35-1.05 3.52l-.06.68a5.87 5.87 0 0 1-1.16-.42c-1.65-.75-4.59-2.76-5.77-4.14-1.06-1.24-2.36-1.84-3.14-2.21l-.29-.14c-.24-.54-.91-1.91-2.58-1.91-.25 0-.51.03-.77.1-2.29.54-2.89 3.28-2.89 4.64 0 .58 0 .71-1.25.84h-.16c-1.76 0-5.6-2.11-7.69-3.63-.91-.66-1.04-2.63-1.01-3.27a1.22 1.22 0 0 0-.85-1.21 3.66 3.66 0 0 0-1.1-.18c-.75 0-1.42.28-1.93.8-1.37 1.4-1.31 4.26-1.26 7.02.01.7.03 1.35.01 1.93-.05 2.53 1.22 5.02 3.79 7.42l.11.39c.24.85.64 2.28 1.88 3.33.19.16.39.4.64.69 1.29 1.53 3.44 4.09 13.25 8.18 8.68 3.62 18.04 4.16 22.84 4.16.87 0 1.55-.02 2.01-.04.71.79 2.22 1.86 5.21 1.86 1.99 0 4.38-.48 7.09-1.42 8.77-3.06 18.4-17 18.49-17.14.08-.1.48-.42.77-.66 1.16-.95 2.61-2.12 2.61-3.55 0-1.13.35-2.73 1.14-3.75.99-1.29 2.18-3.32 2.36-4.33.24-1.27-.85-3.11-1.7-3.89-.94-.87-1.82-1.32-2.63-1.32-.33 0-.64.07-.93.21-.5.25-1.11.56-.9 3.96a6.63 6.63 0 0 0-2.99.37c-1.19.44-1.63 1.69-1.67 2.92a14.44 14.44 0 0 1-4.2.02c.05-.95.13-1.86.2-2.11.43-1.27-.32-2.33-1.44-3.94-.45-.64-2.07-2.73-4.04-2.73Zm-40.66 15.25c-.79 0-1.56-2.49-1.56-4.35 0-.22.05-.48.31-.48.09 0 .18.03.26.09 1.84 1.25 2.24 2.74 2 3.71-.11.45-.42.96-.95 1.02h-.06Z" class="cls-16"/>
    <path fill="url(#linear-gradient)" d="M176.34 101.85c-.6.3 0 5.23 0 5.23s-1.13-.93-1.36-1.08c-.23-.15-1.43-.23-2.64.23-1.21.45-.83 2.79-.83 2.79-2.6.56-4.76.36-5.88.18s.49 3.97-1.19 6.24c-1.68 2.26-13.25 4.23-17.88 6.79-4.63 2.57-16.89 1.06-25.55-2.11-8.67-3.17-12.65-5.66-13.52-11.58a31.56 31.56 0 0 1-3.21-2c-1.66-1.21-1.51-4.3-1.51-4.3-3.47-1.06-2.64 4.9-2.72 8.45-.08 3.55 3.17 6.26 3.55 6.64.38.38.38 2.34 1.81 3.55 1.43 1.21 1.81 3.77 13.58 8.68 11.77 4.9 24.97 4 24.97 4 .53.98 3.09 3.4 11.32.53 8.22-2.87 17.43-16 17.88-16.67.45-.68 3.17-2.26 3.17-3.54s.38-3.17 1.38-4.49c1.01-1.32 2.01-3.14 2.14-3.81.13-.68-.6-2.11-1.33-2.79-.73-.68-1.58-1.21-2.19-.9Z"/>
    <path d="M160.77 101.06c.7 0 1.75.81 2.56 1.96.95 1.36 1.33 1.95 1.2 2.33-.24.73-.32 3.16-.33 3.64 0 .27.17.52.44.6.06.02 1.38.39 3.43.39 1.2 0 2.4-.13 3.58-.38a.61.61 0 0 0 .47-.69c-.09-.58-.11-1.92.45-2.13.52-.19 1.12-.3 1.66-.3.25 0 .41.03.47.04.2.14.85.67 1.27 1.02a.62.62 0 0 0 .67.07.6.6 0 0 0 .31-.6c-.22-1.82-.35-4-.21-4.64.13 0 .58.08 1.38.83.68.63 1.22 1.87 1.15 2.24-.09.49-.98 2.2-2.02 3.56a8.43 8.43 0 0 0-1.51 4.86c0 .57-1.26 1.6-1.94 2.15-.52.42-.93.76-1.13 1.06-.09.13-9.35 13.57-17.58 16.44-2.52.88-4.7 1.32-6.49 1.32-3.09 0-3.95-1.31-4.09-1.57a.6.6 0 0 0-.53-.32h-.04s-.96.06-2.55.06c-4.67 0-13.76-.52-22.15-4.02-9.41-3.92-11.38-6.27-12.57-7.67a6.85 6.85 0 0 0-.86-.91 4.6 4.6 0 0 1-1.3-2.43c-.14-.49-.23-.84-.47-1.08l-.15-.14c-2.18-2.03-3.26-4.06-3.22-6.05.01-.62 0-1.29-.01-2.01-.04-2.17-.1-4.87.74-5.72a.84.84 0 0 1 .64-.25h.15c.03 1.01.28 3.23 1.76 4.3 1.42 1.03 6.07 3.98 8.76 3.98.11 0 .23 0 .33-.02 2.66-.26 2.88-1.5 2.88-2.64 0-.79.38-2.62 1.5-2.88.13-.03.25-.05.35-.05.47 0 .68.29.95.89l.16.32c.17.28.5.44 1 .67.69.32 1.73.8 2.53 1.74 1.46 1.7 4.76 3.87 6.4 4.61a5.6 5.6 0 0 0 2.21.62c.76 0 1.29-.39 1.42-1.05.06-.28.1-.76.15-1.32.06-.65.16-1.84.29-2.2l.43-.31.37-.27c.24.48.63 1.35.94 2.11.08.19.25.32.45.36l.11.01c.16 0 .32-.07.44-.19 0 0 .61-.62 1.49-.62.26 0 .53.05.79.16.05.02 4.56 1.78 5.94 1.78h.14l.5-.01c1.97 0 5.8.23 6.27.4 1.1.55 2.54 1.2 3.15 1.2.32 0 .5-.14.6-.25.05-.05.15-.2.28-.41 1.16-1.75 2.05-2.7 2.63-2.83 1.37-.3 1.98-.46 1.98-.46a.62.62 0 0 0 .44-.42c.11-.38 1.02-3.77.51-5.29s-.83-2.73-.05-3.39a.75.75 0 0 1 .51-.19m-40.66 15.25.26-.01c1.2-.13 2.19-1.06 2.51-2.38.39-1.57-.13-3.88-2.74-5.65a2.3 2.3 0 0 0-1.28-.4c-1.05 0-2.12.79-2.12 2.29 0 1.6.62 6.16 3.37 6.16m40.66-15.85c-.32 0-.63.1-.9.33-1.16.98-.57 2.72-.12 4.08.45 1.36-.53 4.9-.53 4.9s-.6.15-1.96.45c-1.36.3-3.02 3.17-3.24 3.43-.02.03-.07.04-.14.04-.55 0-2.34-.87-2.88-1.14-.52-.26-4.86-.47-6.54-.47l-.55.01h-.09c-.95 0-4.04-1.08-5.72-1.74-.36-.14-.7-.2-1.01-.2-1.17 0-1.93.8-1.93.8s-1.06-2.57-1.28-2.64h-.04c-.27 0-1.04.69-1.4.91-.38.23-.45 3.09-.6 3.85-.08.38-.36.57-.83.57s-1.13-.19-1.96-.57c-1.66-.75-4.83-2.87-6.19-4.45-1.36-1.59-3.24-1.96-3.47-2.33-.2-.33-.46-1.5-1.62-1.5-.15 0-.31.02-.49.06-1.58.38-1.96 2.64-1.96 3.47s0 1.81-2.34 2.04l-.27.01c-2.41 0-6.8-2.7-8.4-3.86-1.66-1.21-1.51-4.3-1.51-4.3a2.7 2.7 0 0 0-.75-.12c-2.6 0-1.9 5.31-1.97 8.57-.08 3.55 3.17 6.26 3.55 6.64.38.38.38 2.34 1.81 3.55 1.43 1.21 1.81 3.77 13.58 8.68 8.59 3.58 17.96 4.06 22.38 4.06 1.63 0 2.59-.07 2.59-.07.34.64 1.55 1.89 4.62 1.89 1.65 0 3.83-.36 6.69-1.36 8.22-2.87 17.43-16 17.88-16.67.45-.68 3.17-2.26 3.17-3.54s.38-3.17 1.38-4.49c1.01-1.32 2.01-3.14 2.14-3.81.13-.68-.6-2.11-1.33-2.79-.58-.54-1.25-.99-1.8-.99a.79.79 0 0 0-.38.09c-.6.3 0 5.23 0 5.23s-1.13-.93-1.36-1.08c-.1-.07-.38-.12-.77-.12-.51 0-1.19.09-1.87.34-1.21.45-.83 2.79-.83 2.79-1.28.28-2.46.37-3.45.37-1.99 0-3.26-.37-3.26-.37s.08-2.79.3-3.47c.23-.68-.23-1.36-1.28-2.87-.81-1.15-2.01-2.22-3.05-2.22Zm-40.66 15.25c-2.17 0-2.77-4.09-2.77-5.55 0-1.08.72-1.68 1.52-1.68.32 0 .64.1.94.3 3.9 2.65 2.83 6.68.5 6.93l-.19.01Z" class="cls-19"/>
    <path d="M166.2 109.27c-.88-.11-1.4-.26-1.4-.26s.08-2.79.3-3.47c.23-.68-.23-1.36-1.28-2.87-1.06-1.51-2.79-2.87-3.95-1.89-1.16.98-.57 2.72-.12 4.08.45 1.36-.53 4.9-.53 4.9s-.6.15-1.96.45c-1.36.3-3.02 3.17-3.24 3.43-.23.26-2.41-.79-3.02-1.09-.6-.3-6.26-.53-7.09-.45-.83.08-4.07-1.06-5.81-1.74-1.74-.68-2.94.6-2.94.6s-1.06-2.57-1.28-2.64c-.23-.08-1.06.68-1.43.9-.38.23-.45 3.09-.6 3.85-.15.75-1.13.75-2.79 0-1.66-.75-4.83-2.87-6.19-4.45-1.36-1.59-3.24-1.96-3.47-2.33-.23-.37-.53-1.82-2.11-1.44-1.58.38-1.96 2.64-1.96 3.47s0 1.81-2.34 2.04c-2.34.23-7.02-2.64-8.68-3.85-1.66-1.21-1.51-4.3-1.51-4.3a2.6 2.6 0 0 0-.78-.12c-1.02 6.45 8.55 8.55 9.72 9.04 1.17.5 3.66-.9 3.66-.9s1.01-3.62 2.11-4.02c1.11-.4 1.51 1.51 2.19 1.51s4.3 2.72 6.41 4.83c2.11 2.11 6.19 2.51 6.19 2.51s.8-1.81 1.42-3.12c.62-1.31 2.9.9 3.21.9s1.71-.7 3.04.2c1.33.91 5 .2 7.82.5 2.82.3 6.34 2.01 6.34 2.01s1.41-1.51 2.51-2.92c1.11-1.41 3.32-1.21 3.32-1.21s1.21-5.13.9-6.84c-.31-1.71-.45-4.1 1.61-2.21 2.06 1.89 1.11 7.24 1.11 7.24l2.63-.37Z" class="cls-4"/>
    <path fill="#b7eae8" stroke="#3c7bd6" stroke-linecap="round" stroke-linejoin="round" stroke-width="1.21" d="M164.8 94.1c-1.53 0-3.78-.53-3.95 0-.18.53 3.6 4.54 4.54 5.43.94.89 3.89.3 3.89-1.53s-1.89-3.89-4.48-3.89Z"/>
    <path fill="url(#linear-gradient-2)" d="M139.62 55.48a1.7 1.7 0 0 1-.38-.04c-1.27-.26-2-1.6-2.53-2.57a6.43 6.43 0 0 0-.43-.73l-.16-.24c-.54-.78-1.15-1.67-2.72-2.04a8.92 8.92 0 0 0-1.9-.16c-.38 0-.77 0-1.16.02l-1.17.02c-1.06 0-2.13-.06-2.83-.5a2.02 2.02 0 0 1-.97-1.89c.04-.83.53-1.74 1.09-2.02a9.01 9.01 0 0 1 4-.79c2.07 0 4.04.46 4.66.8.41.22 1.97.39 3.22.53 1.09.12 2.22.25 3.03.43 1.91.42 4.02 2.58 5.16 3.74l.53.53c.79.78 1.41 1.4 1.37 2.09-.01.21-.1.51-.42.76a1.6 1.6 0 0 1-1.03.31 5 5 0 0 1-2.56-.91c-.23-.16-1.19-.34-2.79-.36.02.83-.17 1.75-.68 2.37-.35.43-.82.65-1.34.65Z"/>
    <path d="M130.47 45.14c1.98 0 3.84.44 4.37.73.89.48 4.56.61 6.4 1.02 1.84.41 4.08 2.79 5.04 3.76.95.97 1.97 1.82 1.36 2.3-.17.13-.4.18-.66.18a4.4 4.4 0 0 1-2.2-.79c-.6-.44-2.68-.48-3.49-.48h-.33c.25 1.33-.2 3.02-1.35 3.02-.08 0-.17 0-.26-.03-1.33-.27-2-2.25-2.58-3.06-.58-.82-1.26-2.04-3.23-2.52-.57-.14-1.28-.17-2.04-.17s-1.58.04-2.33.04c-1.04 0-1.97-.07-2.51-.41-1.29-.82-.48-2.59.07-2.86a8.52 8.52 0 0 1 3.73-.73m0-1.21c-1.7 0-3.14.29-4.27.85-.76.38-1.37 1.46-1.42 2.52a2.65 2.65 0 0 0 1.25 2.43c.83.52 2 .59 3.15.59.38 0 .78 0 1.18-.02l1.15-.02c.5 0 1.23.01 1.75.14 1.35.33 1.86 1.08 2.36 1.8l.17.24c.1.15.24.4.39.67.59 1.08 1.39 2.56 2.94 2.88a2.3 2.3 0 0 0 2.3-.82 4 4 0 0 0 .8-2.13c1.09.05 1.72.17 1.89.25.64.47 1.84 1 2.87 1 .56 0 1.03-.15 1.4-.44.39-.3.62-.73.65-1.2.06-.96-.69-1.7-1.55-2.55l-.35-.35-.18-.18c-1.18-1.2-3.38-3.45-5.46-3.91-.84-.19-1.98-.31-3.09-.44-1.05-.12-2.64-.3-3-.47-.79-.42-2.85-.87-4.94-.87Z" class="cls-16"/>
    <path d="M131.75 46.09c2.57.75 4.3 1.51 5.96 1.43 1.66-.08 10.18 4.35 9.5 5.57a.86.86 0 0 0 .43-.16c.61-.48-.41-1.33-1.36-2.3-.95-.97-3.2-3.35-5.04-3.76-1.84-.41-5.51-.54-6.4-1.02-.88-.48-5.38-1.36-8.1 0-.21.1-.45.42-.61.82.66-.32 3.32-1.27 5.62-.59Zm36.15 51.22c-.18.37-.93.38-1.67.01-.74-.36-1.19-.96-1-1.33.18-.37.93-.38 1.67-.01.74.36 1.19.96 1 1.33Z" class="cls-4"/>
    <path fill="#703c16" d="M148 78.32c.29.87.62 1.74 1.13 2.51a7.78 7.78 0 0 0 2.16 2.08c.27.18.67.05.83-.22.17-.3.05-.64-.22-.83a6.76 6.76 0 0 1-1.47-1.29l-.09-.11.01.01-.05-.07a7.05 7.05 0 0 1-.8-1.46l-.11-.3-.23-.66a.61.61 0 0 0-.74-.42c-.3.08-.53.43-.42.74Zm4.38-.34c.94.94 1.94 1.9 3.14 2.51.28.14.67.08.83-.22.15-.27.08-.67-.22-.83s-.6-.34-.89-.54l-.2-.15-.04-.03-.1-.08a14.08 14.08 0 0 1-1.66-1.52c-.22-.22-.63-.24-.85 0s-.24.61 0 .85Zm18.71 8.45c3 2.43 4.63 5.99 4.65 9.83 0 .78 1.21.78 1.21 0a13.72 13.72 0 0 0-5.01-10.69c-.6-.48-1.46.36-.85.85Zm-.5 6.44c.56.48.98 1.05 1.19 1.71s.23 1.36.06 2.03c-.08.32.1.65.42.74s.67-.1.74-.42a4.9 4.9 0 0 0-1.56-4.91c-.25-.21-.61-.24-.85 0-.22.22-.25.64 0 .85ZM155.9 77.18c.32.32.69.59 1.01.91.11.11.27.18.43.18s.32-.07.43-.18.18-.27.18-.43-.06-.31-.18-.43c-.32-.32-.69-.59-1.01-.91-.11-.11-.27-.18-.43-.18s-.32.07-.43.18-.18.27-.18.43.06.31.18.43Zm-16.17 16.07c-.2 2.95 2.65 4.73 5.07 5.61.31.11.66-.13.74-.42.09-.34-.11-.63-.42-.74a9.26 9.26 0 0 1-2.93-1.66c-.85-.77-1.33-1.66-1.26-2.79.02-.33-.29-.6-.6-.6-.34 0-.58.28-.6.6Z"/>
    <path fill="#a18f70" stroke="#5b2307" stroke-linecap="round" stroke-linejoin="round" stroke-width="1.21" d="M64.62 81.16s22.43 5.51 46.16.44l6.16-7.93-46.23 5.98-6.09 1.51Z"/>
    <path fill="#d2001e" stroke="#5b2307" stroke-linecap="round" stroke-linejoin="round" stroke-width="1.21" d="M64.62 81.16s11.12-2.06 22.62-3.56 22.87-3.25 22.87-3.25l3.5.88s-2.12 2.5-13.87 4.25-35.12 1.69-35.12 1.69Z"/>
    <path fill="#ceb891" d="M107.18 75.25c-15.96 0-42.45-3.01-42.72-3.04a.6.6 0 0 1 .07-1.2h.34c24.22-.51 43.74-1.78 43.94-1.79h.04c.25 0 .48.16.57.4 1.01 2.79 5.9 3.09 7.96 3.09.67 0 1.13-.03 1.23-.04h.04a.6.6 0 0 1 .57.41.6.6 0 0 1-.24.7c-1.05.69-3.19 1.13-6.55 1.34-1.5.09-3.27.14-5.25.14Z"/>
    <path d="M108.84 69.81c1.12 3.11 6.12 3.49 8.53 3.49.69 0 1.16-.03 1.27-.04-1 .66-3.24 1.05-6.26 1.24-1.55.09-3.31.14-5.21.14-16.11 0-42.65-3.04-42.65-3.04h.36c24.51-.51 43.96-1.78 43.96-1.78m-.01-1.21h-.08c-.19.01-19.71 1.28-43.91 1.78h-.34a1.2 1.2 0 0 0-1.19 1.14 1.2 1.2 0 0 0 1.07 1.26c.27.03 26.8 3.05 42.79 3.05 1.99 0 3.77-.05 5.29-.14 3.48-.22 5.65-.67 6.81-1.41a1.2 1.2 0 0 0-.62-2.24h-.09c-.35.02-.77.04-1.18.04-1.51 0-6.49-.19-7.39-2.69a1.2 1.2 0 0 0-1.14-.8Z" class="cls-1"/>
    <path fill="url(#linear-gradient-3)" d="M95.26 103.35c-.61 0-.88-1.02-1.16-6.75-.04-.81-.08-1.5-.11-1.68-.05-.27-.21-.58-.38-.92-.27-.52-.55-1.07-.48-1.6.07-.54-.41-6.19-.74-9.87l-.02-.23.22-.08c.7-.26 1.76-.39 3.15-.39.89 0 1.58.06 1.58.06l.3.02-.02.3c0 .05-.36 5.39-.43 7.41a6.58 6.58 0 0 1-.59 2.5c-.2.51-.37.91-.33 1.4 0 .1.31 9.61-.9 9.83h-.07Z"/>
    <path d="M95.72 82.14c.88 0 1.55.06 1.55.06s-.36 5.37-.43 7.42-1.01 2.72-.92 3.93c.09 1.2.09 9.37-.65 9.51h-.02c-.73 0-.84-7.43-.97-8.18s-.96-1.67-.86-2.43c.09-.76-.74-9.93-.74-9.93.82-.3 2.05-.37 3.04-.37m0-.6c-1.42 0-2.51.14-3.25.41l-.43.16.04.46c.32 3.49.8 9.24.74 9.8-.08.63.24 1.24.51 1.77.15.3.31.61.35.83.03.16.07.91.1 1.64.31 6.16.59 7.03 1.46 7.03h.12c.58-.11.98-.51 1.14-4.93.08-2.2.06-4.56.01-5.22-.03-.42.11-.77.31-1.26.25-.62.57-1.4.61-2.6.07-2.02.43-7.35.43-7.4l.04-.59-.59-.05s-.71-.06-1.6-.06Z" class="cls-16"/>
    <path fill="url(#linear-gradient-4)" d="M80.7 104.59a.6.6 0 0 1-.43-.19c-.27-.28-.53-.96-.41-3.79.1-2.38-.03-4.7-.06-5.28-.5-.45-.57-1.72-.52-3.68.04-1.7-.32-7.36-.32-7.42l-.02-.29.29-.03s3.11-.33 5.43-.33c2.14 0 2.6.28 2.78.54.1.15.11.33.03.5-.25.56-.69 3.55-1.08 6.19-.85 5.8-.92 5.84-1.3 5.84-.53-.04-.61-.75-.6-3v-.57c0-.53-.29-2.54-.51-4.08a39.7 39.7 0 0 0-.54 3.96c0 1.35-.89 4-.99 4.29-.1.29-.26 1.39-.44 2.55-.64 4.3-.81 4.74-1.23 4.78h-.06Z"/>
    <path d="M84.64 83.88c1.54 0 2.75.14 2.53.62-.54 1.2-1.73 11.85-2.11 11.85-.38-.03-.29-2.36-.3-3.27-.01-.91-.79-5.96-.79-5.96s-.86 4.71-.86 5.84-.69 3.36-.97 4.2c-.29.84-.95 7.09-1.41 7.13h-.03c-.44 0-.66-.94-.55-3.67.12-2.79-.07-5.45-.07-5.45-.51-.26-.56-1.78-.51-3.51.05-1.74-.32-7.44-.32-7.44s3.07-.33 5.4-.33m0-.6c-2.33 0-5.33.32-5.46.33l-.57.06.04.58c0 .06.36 5.7.32 7.39-.05 1.98.02 3.24.53 3.82.04.72.15 2.9.06 5.13-.12 2.78.11 3.62.5 4.02.18.18.41.28.65.28h.09c.68-.07.83-.59 1.5-5.05.16-1.05.33-2.23.42-2.5.1-.3 1-2.99 1.01-4.39 0-.34.09-1.08.22-1.93a24 24 0 0 1 .23 2.05v.56c0 2.19.02 3.25.86 3.3h.03c.7 0 .74-.09 1.62-6.1.37-2.49.82-5.59 1.05-6.11a.82.82 0 0 0-.05-.79c-.27-.41-.88-.68-3.03-.68Z" class="cls-16"/>
    <path fill="url(#linear-gradient-5)" d="M67.51 98.32c-.49 0-.59-.4-.79-5.44-.06-1.5-.12-3.05-.22-4.03-.27-2.67-.56-6.04-.56-6.04l-.02-.23.22-.08c.12-.04 2.93-1.02 4.34-1.02.77 0 .98.31 1.02.57.12.78-.63 3.16-1.55 5.97l-.49 1.51c-.2.67-.46 2.35-.7 3.96-.67 4.4-.8 4.79-1.22 4.83h-.03Z"/>
    <path d="M70.48 81.78c.41 0 .69.09.72.31.16.99-1.54 5.72-2.03 7.34-.49 1.63-1.2 8.54-1.66 8.58-.45 0-.45-6.55-.71-9.2-.27-2.67-.56-6.04-.56-6.04s2.86-1 4.24-1m0-.6c-1.47 0-4.32.99-4.44 1.03l-.44.15.04.47s.3 3.41.56 6.05c.1.97.16 2.52.22 4.02.2 5.08.26 5.73 1.09 5.73h.06c.67-.07.79-.49 1.49-5.09.24-1.61.49-3.27.69-3.92l.48-1.5c.97-2.95 1.7-5.27 1.56-6.11-.05-.31-.28-.82-1.32-.82Z" class="cls-16"/>
    <path d="M95.72 82.75c.35 0 .66 0 .91.02-.1 1.47-.33 5.2-.39 6.83-.04.99-.28 1.6-.52 2.19-.23.57-.45 1.1-.39 1.8.07.98.06 4.32-.09 6.67-.11-1.3-.19-2.81-.23-3.69a20.74 20.74 0 0 0-.12-1.79c-.07-.4-.27-.8-.47-1.18-.2-.38-.42-.82-.39-1.08.09-.72-.49-7.3-.69-9.56.59-.14 1.41-.21 2.39-.21m0-.6a9.9 9.9 0 0 0-3.04.37s.84 9.17.74 9.93c-.09.76.73 1.69.86 2.43.13.74.24 8.18.97 8.18h.02c.75-.13.74-8.3.65-9.51-.09-1.2.84-1.88.92-3.93.07-2.05.43-7.42.43-7.42s-.68-.06-1.55-.06Zm-11.35 2.41c1.26 0 1.87.09 2.15.15-.27.91-.6 2.98-1.09 6.05l-.22 1.37c-.18-1.68-.6-4.63-.66-5.04l-.37-2.55h.18m-.52 0-.49 2.51a68.1 68.1 0 0 0-.94 5.94c-.01.98-.65 3.04-.99 3.99-.12.35-.26 1.21-.5 2.7l-.39 2.32c0-.37.02-.82.04-1.35.15-2.79 0-5.41-.01-5.52l-.02-.34-.27-.14c-.11-.16-.27-.77-.18-2.98.05-1.43-.13-5.41-.21-6.92.84-.07 2.46-.19 3.95-.21m.52-.61c-2.28 0-5.1.27-5.1.27s.3 5.71.24 7.45c-.07 1.74-.04 3.25.47 3.52 0 0 .16 2.66.01 5.45-.15 2.73.07 3.68.51 3.68h.03c.46-.04 1.19-6.28 1.49-7.12.29-.84 1-3.05 1.02-4.19.02-1.13.93-5.83.93-5.83s.73 5.05.73 5.96c0 .91-.11 3.25.26 3.28.38 0 1.7-10.63 2.24-11.82.23-.51-1.15-.65-2.83-.65Zm-13.85-1.62h.15c-.08.94-1.08 3.86-1.58 5.33l-.51 1.53c-.23.73-.49 2.36-.77 4.08l-.19 1.15-.05-1.66a76.54 76.54 0 0 0-.18-4.09 383.1 383.1 0 0 1-.45-5.56c.97-.3 2.69-.78 3.58-.78m0-.6c-1.39 0-4.22.95-4.22.95s.25 3.38.49 6.04.16 9.21.61 9.21c.46-.04 1.25-6.94 1.76-8.56s2.26-6.33 2.11-7.32c-.03-.23-.33-.32-.75-.32Z" class="cls-4"/>
    <path d="M95.95 89.25c.06.72-.23 1.34-.66 1.37-.42.04-.82-.52-.88-1.25-.06-.72.23-1.34.66-1.37.42-.04.81.52.87 1.25Zm-14.37.23c-.07 1.04-.5 1.86-.96 1.82-.46-.03-.77-.9-.7-1.94.07-1.04.5-1.86.96-1.82.46.03.77.9.7 1.94Zm37.07-16.21c-1 .66-3.24 1.05-6.26 1.24-1.93-.54-4.08-1.47-5.18-3.17 0 0-30.94 1.18-42.33.26 24.51-.51 43.96-1.78 43.96-1.78 1.44 4 9.3 3.49 9.8 3.45Z" class="cls-4"/>
  </g>
</svg>
