<svg xmlns="http://www.w3.org/2000/svg" xmlns:xlink="http://www.w3.org/1999/xlink" id="Layer_2" data-name="Layer 2" viewBox="0 0 121.22 101.67">
  <defs>
    <linearGradient id="linear-gradient" x1="79.23" x2="79.23" y1="51.26" y2="60.81" gradientTransform="rotate(-7.56 -309.75 100.31)" gradientUnits="userSpaceOnUse">
      <stop offset="0" stop-color="#dbffff"/>
      <stop offset="1" stop-color="#339ed3"/>
    </linearGradient>
    <linearGradient xlink:href="#linear-gradient" id="linear-gradient-2" x1="82.28" x2="82.28" y1="142.93" y2="109.27"/>
    <linearGradient id="linear-gradient-3" x1="8.13" x2="8.13" y1="149.08" y2="127.89" gradientTransform="rotate(1.17 4515.7 26.86)" gradientUnits="userSpaceOnUse">
      <stop offset="0" stop-color="#dbffff"/>
      <stop offset="1" stop-color="#1376a6"/>
    </linearGradient>
    <linearGradient xlink:href="#linear-gradient-3" id="linear-gradient-4" x1="33.46" x2="33.46" y1="153.52" y2="132.49" gradientTransform="rotate(-5.15 -1029.62 87.27)"/>
    <linearGradient xlink:href="#linear-gradient-3" id="linear-gradient-5" x1="23" x2="23" y1="151.4" y2="130.36" gradientTransform="rotate(1.16 4595.46 12.26)"/>
    <style>
      .cls-1{fill:#5b2307}.cls-3{fill:#fff}.cls-9{fill:#3c7bd6}.cls-11{stroke:#4c1a09;stroke-width:.6px;stroke-linecap:round;stroke-linejoin:round;fill:none}.cls-14{fill:#8e5424}.cls-15{fill:#b7eae8}.cls-16{fill:#4c1a09}.cls-18{fill:#a36731}.cls-21{fill:#755b46}
    </style>
  </defs>
  <g id="Layer_1-2" data-name="Layer 1">
    <path d="M51.87 100.76c-.71 0-1.33-.38-1.62-1-.32-.69-.16-1.51.43-2.19.52-.6 1.99-1.77 3.73-3.08-.84.11-1.56.16-2.14.16-.52 0-2.1 0-2.31-1.03-.24-1.21 1.83-2.11 2.24-2.28 2.23-.91 7.98-2.22 8.22-2.28 2.36-.58 4.82-.93 6.56-.93s2.64.31 2.95.98c.54 1.16-1.07 2.67-2.94 4.42-.52.49-1.04.97-1.45 1.4-.36.37-.79.87-1.25 1.41-1.94 2.24-3.19 3.6-4.13 3.6a.94.94 0 0 1-.89-.62c-.35-.84.32-2.3 1.15-3.64-1.09.69-2.31 1.49-3.44 2.23-1.69 1.1-3.14 2.05-3.85 2.46-.42.24-.84.36-1.26.36Z" class="cls-21"/>
    <path d="M66.99 88.75c1.29 0 2.2.19 2.4.64.48 1.03-2.67 3.47-4.28 5.15-1.39 1.47-3.96 4.82-4.95 4.82-.15 0-.26-.07-.33-.24-.52-1.28 2.78-5.46 2.78-5.46-2.36 1.33-8.18 5.3-9.78 6.22-.34.2-.67.28-.96.28-1.06 0-1.62-1.16-.73-2.19 1.13-1.32 7.78-6 7.74-6s-3.72 1.81-3.72 1.81c-1.25.2-2.2.28-2.9.28-2.92 0-1.62-1.42.16-2.15 2.21-.9 8.12-2.25 8.12-2.25 2.3-.57 4.7-.91 6.43-.91m0-1.21c-1.79 0-4.3.35-6.72.95-.22.05-6.01 1.37-8.29 2.3-.69.28-2.93 1.33-2.61 2.96.3 1.52 2.26 1.52 2.9 1.52h.15a18.26 18.26 0 0 0-2.19 1.92 2.67 2.67 0 0 0-.52 2.84 2.34 2.34 0 0 0 2.17 1.35c.52 0 1.05-.15 1.56-.44.72-.42 2.18-1.37 3.88-2.48l1.57-1.03c-.3.82-.4 1.58-.16 2.15.25.61.8.99 1.45.99 1.16 0 2.29-1.16 4.59-3.8.46-.53.89-1.03 1.23-1.39.39-.41.89-.88 1.42-1.38 2.12-1.99 3.8-3.56 3.08-5.12-.55-1.18-2.16-1.33-3.5-1.33Z" class="cls-16"/>
    <path d="M52.76 95.85s2.25.35 2.41 2.99m.98-5.23s3.09-.92 3.39 2.29m-6.05-4.83s1.69.65 1.25 3.14m6.12 1.06s2.13-.89 3.23 1.42m-6.69-6.82c.14.17 1.67-.07 2.09 1.66 0 0 2.67-1.02 3.61 1.32 0 0 2.65-1.12 3.46.94" class="cls-11"/>
    <path d="M83.01 101.07c-.56 0-1-.27-1.2-.75-.75-1.78 1.87-4.8 4.06-6.92-.57.17-1.26.4-1.97.64-2.1.7-3.52 1.16-4.2 1.16-.58 0-.76-.35-.81-.5-.19-.56.32-1.01.96-1.51 3.05-2.35 10.6-4.96 11.39-5.22 1-.57 7.81-4.4 10.42-4.4.56 0 .97.17 1.22.5.24.32.29.75.14 1.26-.74 2.56-5.02 12.5-8.12 12.5l-.19-.01c-.7-.09-1.04-.5-1.2-.82-.4-.82-.08-2.12.37-3.28l-.9.74c-4.37 3.62-8.13 6.61-9.96 6.61Z" class="cls-21"/>
    <path d="M101.66 84.18c.65 0 .98.28.78.99-.99 3.42-5.19 12.06-7.54 12.06h-.12c-2.32-.3.78-5.58.78-5.58-1.87 1.2-10.05 8.83-12.54 8.83-.31 0-.53-.12-.64-.38-1-2.38 6.36-8.43 6.36-8.43l-2.14.92c-1.65.38-5.83 2.02-6.89 2.02-.41 0-.35-.25.52-.92 3.11-2.39 11.27-5.15 11.27-5.15s7.6-4.35 10.17-4.35m0-1.21c-2.69 0-9.14 3.58-10.67 4.45-1.04.36-8.44 2.94-11.5 5.3-.57.44-1.51 1.16-1.17 2.18.07.21.39.91 1.39.91.74 0 2.03-.4 4.02-1.07-1.77 2-3.14 4.22-2.47 5.82.29.7.95 1.12 1.75 1.12 1.95 0 5.41-2.68 9.75-6.26-.1.68-.06 1.33.19 1.85.32.65.91 1.06 1.66 1.15l.27.02c3.66 0 8.04-10.65 8.7-12.93.26-.88.01-1.46-.24-1.79-.25-.34-.75-.74-1.7-.74Z" class="cls-16"/>
    <path d="M82.69 97.2s3.32-1 4.37 1.96m-1.81-5.24s5.55-2.16 6.5 1.52m-9.38-3.78s1.32.79.79 2.53m10.35.36s2.64-2.68 5.45-.98m-11.1-3.71s1.4-.54 1.98.81c0 0 4.12-1.87 6.27-.17 0 0 3.37-2.93 5.4-1.38" class="cls-11"/>
    <path d="M64.84 91.69c-.83 0-1.66-.09-2.46-.28-6.75-1.58-7.98-8.4-7.99-8.47a.61.61 0 0 1 .41-.68c1.35-.43 2.86-.64 4.48-.64 7.57 0 15.33 4.59 15.66 4.79.16.1.27.26.29.45a.61.61 0 0 1-.18.5c-.19.18-4.61 4.32-10.21 4.32Z" class="cls-15"/>
    <path d="M59.29 82.23c7.49 0 15.35 4.7 15.35 4.7s-4.37 4.16-9.8 4.16c-.76 0-1.53-.08-2.32-.26-6.44-1.5-7.53-7.98-7.53-7.98 1.38-.43 2.83-.61 4.3-.61m0-1.21c-1.68 0-3.25.22-4.66.67-.57.18-.93.76-.83 1.35.05.3 1.3 7.29 8.45 8.96.84.2 1.72.3 2.6.3 5.84 0 10.44-4.31 10.63-4.49.27-.26.41-.63.37-1.01s-.26-.71-.58-.9c-.33-.2-8.24-4.87-15.97-4.87Z" class="cls-9"/>
    <path d="M77.11 87.65c-22.32 0-33.18-11.08-35.03-18.53a27.49 27.49 0 0 1-.6-9.83c-.44.48-1.11 1.04-1.78 1.04-.6 0-1.34-.4-1.44-2.29-.11-2.19.99-4.67 1.96-6.4l-.07.05c-.81.6-1.45 1.07-2.04 1.07-.38 0-1.04-.18-1.15-1.42-.19-2.16 2.24-4.55 3.22-5.42-.76-1.64-3.24-7.71-3.14-16.97.09-8.69 5.83-15.73 8.28-18.34-1.45-.1-2.41-.59-2.62-1.36-.14-.51 0-1.29 1.46-2.12.94-.54 2.18-.94 3.4-1.24-.95-.24-1.69-.61-1.88-1.16-.12-.35-.11-.89.62-1.49.74-.6 1.82-.91 3.22-.91 1.28 0 2.63.25 3.73.52-.35-.5-.58-1.01-.49-1.43a1 1 0 0 1 .74-.74c.14-.04.3-.06.46-.06 1.35 0 3.41 1.53 4.11 2.08a41.8 41.8 0 0 1 6.48-.53c12.28 0 21.96 6.18 28.01 17.88 3.08 5.95 8.22 8.24 14.18 10.9 6.46 2.88 10.75 8.44 11.1 9.08.21.39.1.69.01.83-.15.25-.42.39-.79.4 1.7 2.48 2.5 6.1 2.6 6.86a.81.81 0 0 1-.18.65.83.83 0 0 1-.67.28c-.07 0-.15 0-.23-.02 1.39 3 1.57 7.06.86 7.98-.54.71-2.71 6.1-2.79 6.76-.04 1.14-13.36 22.99-36.96 23.87-.88.03-1.73.05-2.58.05Z" class="cls-18"/>
    <path d="M53.96 1.21c1.38 0 3.94 2.11 3.94 2.11 2.36-.39 4.58-.57 6.65-.57 17.1 0 24.67 12.13 27.47 17.55 3.14 6.08 8.33 8.43 14.47 11.17 6.15 2.74 10.41 8.06 10.81 8.81.14.26-.03.35-.32.35-.55 0-1.5-.31-1.5-.31 2.41 2.12 3.49 7.15 3.58 7.85.02.17-.08.24-.25.24-.51 0-1.62-.6-1.62-.6 2.09 2.77 2.38 8.01 1.78 8.8-.6.79-2.9 6.47-2.92 7.08-.02.61-13.06 22.44-36.38 23.3-.87.03-1.72.05-2.55.05-21.63 0-32.56-10.51-34.44-18.07-1.96-7.86.44-14.27.44-14.27a10.3 10.3 0 0 0-1.64 3.67s-.99 1.35-1.75 1.35c-.42 0-.77-.42-.84-1.71-.18-3.63 3.27-8.25 3.27-8.25-1.68.67-3.23 2.39-4.02 2.39-.3 0-.49-.24-.55-.87-.2-2.31 3.37-5.22 3.37-5.22s-3.39-6.45-3.29-17.12c.11-10.67 9.15-18.97 9.15-18.97-.32.03-.62.05-.91.05-2.44 0-3.7-1.07-1.43-2.37 2.55-1.45 7.56-1.92 7.56-1.92s-7.72-.09-5.34-2.04a4.5 4.5 0 0 1 2.84-.77c2.65 0 5.74 1.16 5.74 1.16s-2.86-2.46-1.59-2.83a.92.92 0 0 1 .29-.04M53.96 0c-.22 0-.43.03-.63.09a1.6 1.6 0 0 0-1.16 1.89c-.85-.16-1.76-.27-2.65-.27-1.54 0-2.75.35-3.6 1.05-1.06.86-.96 1.72-.81 2.16.06.19.18.52.65.86-.69.23-1.34.51-1.9.82-1.78 1.02-1.93 2.09-1.74 2.8.21.79.92 1.35 2 1.63-2.76 3.15-7.6 9.83-7.68 17.9-.09 8.72 2.09 14.68 3.02 16.82-1.21 1.13-3.29 3.41-3.09 5.63.16 1.83 1.38 1.97 1.75 1.97.22 0 .43-.04.63-.11a11.15 11.15 0 0 0-1.09 4.82c.12 2.49 1.33 2.86 2.04 2.86.37 0 .72-.11 1.05-.29-.17 2.44-.06 5.41.74 8.62 1.9 7.63 12.95 18.99 35.62 18.99.85 0 1.73-.02 2.6-.05 12.49-.46 21.96-6.81 27.7-12.06 5.85-5.34 9.81-11.39 9.84-12.41v.1c.14-.74 2.19-5.8 2.68-6.49.81-1.06.7-4.79-.48-7.85.24-.1.4-.25.49-.35.27-.3.38-.7.33-1.12 0-.04-.61-3.63-2.27-6.46.19-.13.31-.29.38-.41a1.4 1.4 0 0 0 0-1.43c-.61-1.14-5.19-6.59-11.38-9.35-5.85-2.61-10.91-4.86-13.89-10.62C86.94 7.84 77.07 1.55 64.55 1.55c-2.03 0-4.15.17-6.31.5C57.27 1.3 55.38 0 53.96 0Z" class="cls-1"/>
    <path d="M116.05 63.7c.02-.61 2.31-6.29 2.92-7.08.61-.79.32-6.03-1.78-8.8 0 0 1.97 1.06 1.87.36-.09-.7-1.17-5.73-3.58-7.85 0 0 2.23.72 1.82-.04-.41-.76-4.66-6.08-10.81-8.81-3.14-1.4-6.02-2.7-8.52-4.44s8.99 7.32 9.64 15.28-3.38 5.42-3.38 5.42l-7-2.65s2.99 5.63-.23 8.12c-3.22 2.49-4.49.6-4.49.6s1.7 3.66-2.65 5.25c-4.36 1.59-16.12 3.15-21.44 2.85-5.32-.31-12.47-1.59-13.63-5.29-1.16-3.7-1.96-4.19-1.96-4.19s-4.16 7.48-5.2 4.25c-1.04-3.23-.42-5.84-.42-5.84s-3.88 3.24-3.67 1.39c.21-1.86.94-3.98.94-3.98s-1.88-.57-3.73-2c-.74.64-3.35 3.07-3.17 5.05.2 2.31 2.25-.6 4.57-1.52 0 0-3.45 4.62-3.27 8.25.18 3.63 2.59.37 2.59.37s.43-2.09 1.64-3.67c0 0-2.4 6.41-.44 14.27 1.96 7.86 13.67 18.89 37 18.02 23.33-.87 36.36-22.69 36.38-23.3Z" class="cls-14"/>
    <path fill="#bd852d" d="M104.63 61.76c-10.86.02-32.15-5.17-31-15.67 1.14-10.5 9.5-8.67 10.73-21.6C85.59 11.56 71.62 5.77 61.72 8.4c-9.9 2.63-13.58 13.17-13.88 13.92-.31.75-5.19 1.4-7.14 1.25-1.91-.14-1.43-2.4-1.41-2.49a21.66 21.66 0 0 0-1.63 7.86c-.11 10.67 3.29 17.12 3.29 17.12s-3.57 2.91-3.37 5.22c.2 2.31 2.25-.6 4.57-1.52 0 0-3.45 4.62-3.27 8.25.18 3.63 2.59.37 2.59.37s.43-2.09 1.64-3.67c0 0-2.4 6.41-.44 14.27 1.96 7.86 13.67 18.89 37 18.02 19.55-.73 31.87-16.17 35.36-21.51-2.23-2.28-5.82-3.73-10.39-3.72Z"/>
    <path fill="#91682c" d="m82.3 86.8 1.33-.16.71-.11 1.22-.22.69-.14 1.25-.29.58-.15c.54-.15 1.08-.3 1.6-.47l.17-.05c.59-.19 1.16-.39 1.73-.6l.46-.18 1.22-.49.55-.24c.36-.16.73-.32 1.08-.49l.54-.26 1.09-.56.46-.24a55.38 55.38 0 0 0 2.93-1.74l.27-.18 1.1-.74.41-.29.92-.67.41-.31.89-.69.36-.29.99-.82.18-.15 1.14-1.01.16-.15.89-.83.31-.31.68-.68.33-.34.61-.64.31-.33.61-.68.24-.26.77-.89.2-.25.51-.62.3-.37.36-.45.3-.39.29-.38.29-.39.22-.3.29-.41.05-.08.71-1.04c-2.23-2.28-5.82-3.73-10.39-3.72-4.27 0-10.17-.8-15.67-2.41-4.9 1.48-15.56 2.84-20.54 2.55-5.32-.31-12.47-1.59-13.63-5.29-1.16-3.7-1.96-4.19-1.96-4.19s-4.16 7.48-5.2 4.25c-1.04-3.23-.42-5.84-.42-5.84s-3.88 3.24-3.67 1.39c.21-1.86.94-3.98.94-3.98s-1.88-.57-3.73-2l-.15.13-.07.07-.19.18-.19.18-.08.08-.2.2-.09.09a4.8 4.8 0 0 0-.21.23l-.09.1-.23.26-.08.1-.26.31-.05.06a9.08 9.08 0 0 0-.62.9l-.18.32-.07.14-.13.29-.06.15-.09.28-.04.15-.05.29-.02.13c-.01.14-.02.28 0 .41.2 2.31 2.25-.6 4.57-1.52 0 0-3.45 4.62-3.27 8.25.18 3.63 2.59.37 2.59.37s.43-2.09 1.64-3.67c0 0-2.4 6.41-.44 14.27 1.96 7.86 13.67 18.89 37 18.02.68-.03 1.34-.07 2-.13l.63-.07Z"/>
    <path d="M39.41 57.27c-.47 0-1.63-.02-2.12-.22-.99-.4-2.82-1.98-3.61-4.14a5.27 5.27 0 0 1 .22-4.37c1.28-2.45 2.95-3.11 4.05-3.56.46-.18.85-.34.96-.53l.31-.6c.73-1.45 1.82-3.64 3.37-4.29.29-.12.59-.19.87-.19.62 0 1.16.3 1.52.84.56.85.57 2.14.06 3.6 1.76-.41 6.12-2.52 7.75-4.08.45-.43.92-.65 1.38-.65.75 0 1.36.55 1.68 1.52a5.47 5.47 0 0 1-1.87 5.81 48.66 48.66 0 0 1-5.76 3.6c-.34 1.15-1.65 5.2-3.45 6.27-1.58.94-4.48 1.01-5.33 1.01Z" class="cls-18"/>
    <path d="M54.15 39.67c1.57 0 2.05 4.34-.55 6.23-3.08 2.25-5.92 3.67-5.92 3.67s-1.42 5.08-3.25 6.17c-1.18.69-3.4.92-5.02.92a7.1 7.1 0 0 1-1.89-.17c-1.46-.58-4.92-4.17-3.08-7.67s4.42-3 5-4.08c.58-1.08 1.79-3.96 3.38-4.62.22-.09.44-.14.64-.14 1.21 0 1.87 1.67.8 4.14-.11.26.02.37.32.37 1.43 0 6.76-2.54 8.62-4.33.35-.34.68-.48.97-.48m0-1.21a2.6 2.6 0 0 0-1.8.82c-1.36 1.31-4.56 2.92-6.46 3.63a4.1 4.1 0 0 0-.42-3.04 2.4 2.4 0 0 0-2.02-1.11c-.36 0-.74.08-1.11.23-1.75.74-2.91 3.05-3.67 4.58l-.27.54c-.11.08-.43.21-.67.3a7.58 7.58 0 0 0-4.36 3.84 5.83 5.83 0 0 0-.25 4.86c.79 2.13 2.63 3.96 3.96 4.49.54.22 1.57.26 2.34.26 1.14 0 3.97-.11 5.64-1.09 1.88-1.11 3.18-4.84 3.65-6.37.95-.51 3.2-1.76 5.61-3.52a6.03 6.03 0 0 0 2.09-6.49c-.39-1.21-1.24-1.93-2.25-1.93Z" class="cls-1"/>
    <path d="M55.42 42.44a4.73 4.73 0 0 1-1.82 3.47c-3.09 2.25-5.92 3.66-5.92 3.66s-1.42 5.09-3.25 6.17-5.29 1.29-6.92.75c-1.25-.42-2.61-1.98-3.41-4.33.77 1.05 2.52 2.8 4.75 2.75 3.25-.09 4.41-.34 5.75-2.17 1.33-1.83 1.66-4 1.66-4s8.12-2.82 9.16-6.3Z" class="cls-14"/>
    <path fill="#f7d33c" d="M68.43 33.96c-5.18 0-9.67-4.41-10.44-10.25-.84-6.35 3-12.12 8.58-12.86.4-.05.8-.08 1.19-.08 5.18 0 9.67 4.41 10.44 10.26a12.4 12.4 0 0 1-1.85 8.5 9.55 9.55 0 0 1-7.91 4.44Z"/>
    <path d="M67.76 11.37c4.81 0 9.1 4.13 9.84 9.73.8 6.03-2.81 11.48-8.06 12.18-.37.05-.75.07-1.11.07-4.81 0-9.1-4.13-9.84-9.73-.8-6.03 2.81-11.49 8.06-12.18.37-.05.74-.07 1.11-.07m0-1.21a10.16 10.16 0 0 0-8.42 4.7 13.02 13.02 0 0 0-1.95 8.92c.82 6.15 5.56 10.78 11.04 10.78.42 0 .85-.03 1.27-.08 5.9-.78 9.98-6.86 9.1-13.54-.82-6.15-5.56-10.78-11.04-10.78Z" class="cls-1"/>
    <path fill="#ed9935" d="M66.64 11.45c-5.25.7-8.86 6.15-8.06 12.18a12 12 0 0 0 3.22 6.78c.01-.06 1.28-5.85 7.04-6.82 5.25-.88 7 3.62 7.33 5.07a11.93 11.93 0 0 0 1.44-7.55c-.8-6.03-5.71-10.36-10.96-9.66Z"/>
    <path d="M76.6 17.53c.39 2.92-1.36 5.55-3.9 5.89-2.54.34-4.91-1.75-5.3-4.67-.39-2.92 1.36-5.55 3.9-5.89s4.91 1.75 5.3 4.67Z" class="cls-16"/>
    <path d="M66.06 18.45c.96-1.74.61-3.77-.78-4.55-1.4-.77-3.31 0-4.28 1.74-.96 1.74-.61 3.78.78 4.55 1.4.77 3.31 0 4.28-1.74Z" class="cls-3"/>
    <path fill="#c4964d" d="M77.4 12.01s-3.3-8.39-10.48-7.39c-7.18 1-9.82 5.47-10.42 9.87 0 0 3.58-3.12 11.15-3.37s9.74.89 9.74.89Z"/>
    <path fill="none" stroke="#5b2307" stroke-linecap="round" stroke-linejoin="round" stroke-width="1.21" d="M55.63 15.49s7-6.81 21.95-3.08"/>
    <path fill="url(#linear-gradient)" d="M73.15 10.96c-1.29-.09-2.19-1.32-2.84-2.22-.19-.26-.36-.5-.52-.67l-.19-.21c-.64-.7-1.36-1.5-2.96-1.67-.15-.02-.3-.02-.46-.02-.75 0-1.69.15-2.59.29-.91.14-1.86.29-2.64.29-.58 0-1.03-.08-1.38-.24a2.01 2.01 0 0 1-1.21-1.75c-.07-.83.3-1.79.82-2.14 1.85-1.25 4.49-1.44 5.9-1.44 1.13 0 2.18.12 2.68.31.15.06.58.13 1.73.13l1.52-.02 1.61-.02c.52 0 1.04.01 1.45.05 1.94.17 4.32 2.03 5.6 3.03l.6.46c.88.67 1.58 1.2 1.63 1.89.01.21-.03.52-.31.81-.3.31-.76.47-1.36.47-.82 0-1.73-.3-2.27-.59-.02-.01-.24-.12-1-.12-.62 0-1.32.07-1.81.12.14.87.06 1.86-.44 2.55a1.7 1.7 0 0 1-1.41.73h-.14Z"/>
    <path d="M65.06 1.77a8.8 8.8 0 0 1 2.47.27c.35.13 1.08.17 1.95.17.97 0 2.12-.04 3.13-.04.52 0 1 .01 1.4.05 1.88.16 4.42 2.23 5.49 3.06 1.07.83 2.2 1.55 1.65 2.1-.2.2-.54.29-.93.29-.66 0-1.47-.24-1.98-.52a3.13 3.13 0 0 0-1.29-.19c-1.15 0-2.55.22-2.55.22.45 1.35.17 3.18-1.1 3.18h-.1c-1.36-.09-2.28-1.96-2.96-2.7-.68-.73-1.52-1.86-3.54-2.07a4.4 4.4 0 0 0-.52-.03c-1.58 0-3.74.58-5.23.58-.45 0-.84-.05-1.13-.19-1.39-.64-.81-2.5-.31-2.84 1.52-1.03 3.8-1.34 5.56-1.34m0-1.21c-1.48 0-4.26.2-6.24 1.54-.7.47-1.17 1.63-1.08 2.69a2.64 2.64 0 0 0 1.56 2.25c.44.2.97.3 1.64.3.83 0 1.8-.15 2.73-.3.88-.14 1.79-.28 2.5-.28.14 0 .27 0 .4.02 1.38.15 1.99.82 2.58 1.47l.2.22c.12.13.29.37.47.62.72.99 1.71 2.35 3.29 2.46h.18a2.3 2.3 0 0 0 1.9-.98c.47-.66.64-1.53.61-2.37.37-.03.78-.06 1.15-.06.57 0 .75.06.75.06.7.38 1.71.64 2.52.64a2.4 2.4 0 0 0 1.79-.65c.35-.35.52-.81.48-1.28-.07-.96-.9-1.59-1.87-2.33l-.39-.3-.2-.15c-1.33-1.04-3.8-2.97-5.93-3.16-.4-.03-.88-.05-1.5-.05l-1.62.02-1.51.02a6.81 6.81 0 0 1-1.53-.09 9.96 9.96 0 0 0-2.88-.35Z" class="cls-9"/>
    <path d="M64.49 2.68c2.64.41 4.46.93 6.1.64 1.63-.29 10.67 2.97 10.15 4.27.16-.05.3-.11.41-.21.54-.55-.58-1.27-1.65-2.1-1.07-.83-3.61-2.9-5.49-3.06-1.88-.16-5.54.19-6.48-.17-.94-.36-5.51-.64-8.03 1.07-.19.13-.39.48-.49.9.61-.41 3.12-1.7 5.49-1.33Z" class="cls-3"/>
    <path d="M91.67 89.71c-2.16 0-3.29-.79-3.79-1.3a67.6 67.6 0 0 1-11.29.94c-5.07 0-9.75-.57-13.92-1.69-10.12-2.73-12.53-4.92-13.97-6.22-.31-.28-.55-.5-.81-.67a5.67 5.67 0 0 1-2.07-2.78c-.09-.2-.21-.48-.26-.55l-.11-.07c-2.72-1.93-4.23-4.09-4.49-6.43-.07-.59-.17-1.25-.27-1.94-.41-2.69-.84-5.47.3-6.79a2.1 2.1 0 0 1 1.68-.72c.18 0 .37.02.58.05a.6.6 0 0 1 .5.54c.07.77.51 2.91 1.75 3.58 1.61.88 5.7 2.68 8.02 2.68.25 0 .48-.02.66-.07 1.76-.41 1.69-.91 1.59-1.66-.13-.96-.04-3.61 1.87-4.34.31-.12.62-.18.9-.18 1.14 0 1.69.91 1.96 1.35l.1.16c.05 0 .29.08.49.14.77.24 2.06.65 3.18 1.65 1.4 1.26 4.7 2.93 6.49 3.47.64.19 1.17.29 1.55.29.34 0 .43-.08.43-.08.02-.26 0-.74-.02-1.24-.1-2.17-.07-2.8.35-3.13.1-.08.24-.22.39-.37.55-.54.88-.85 1.27-.85l.13.01c.25.05.46.09 1.64 2.07a3.33 3.33 0 0 1 2.85-.61c1.91.47 4.48.97 5.48.97a56.44 56.44 0 0 1 6.75-.57c.57 0 .77.04.9.09 1.09.37 2.08.65 2.54.71l.04-.09c.79-1.62 1.76-3.34 2.91-3.76l1.54-.57c.16-1.38.25-3.48-.11-4.23-.69-1.42-1.61-3.31-.32-4.73a2 2 0 0 1 1.51-.66c1.58 0 3.12 1.54 3.55 2.01 1.29 1.4 1.99 2.17 1.8 3.2-.07.37.02 1.73.12 2.81l.73.02c1.09 0 2.75-.13 4.66-.75-.16-.86-.26-2.4.88-3.01a5.8 5.8 0 0 1 2.53-.69c.26 0 .46.03.61.11l.29.16c-.88-3.87-.36-4.23-.09-4.41.25-.17.53-.25.86-.25.6 0 1.31.29 2.12.87.83.59 1.99 2.09 1.94 3.11-.05.9-.93 3-1.7 4.33a7.3 7.3 0 0 0-.71 4.25c.15 1.13-1.02 2.38-1.96 3.37-.31.33-.7.74-.77.9-.07.15-7.68 15.06-15.8 19.16-3.13 1.58-5.82 2.38-8 2.38Zm-31.55-22.9a.9.9 0 0 0-.67.29c-.19.22-.27.53-.22.9.22 1.66 1.3 4.63 2.66 4.63l.27-.03c.68-.17 1.17-.8 1.27-1.65.13-1.2-.53-2.89-2.8-4.02a1.1 1.1 0 0 0-.49-.12Z" class="cls-15"/>
    <path d="M116.55 51.93c.53 0 1.18.33 1.77.76.81.58 1.72 1.9 1.69 2.59-.04.69-.79 2.63-1.62 4.06a7.83 7.83 0 0 0-.78 4.63c.17 1.27-2.32 3.2-2.68 3.93-.36.73-7.76 14.96-15.53 18.88-3.48 1.76-5.98 2.32-7.73 2.32-2.16 0-3.2-.85-3.56-1.35 0 0-4.89.99-11.52.99a53.6 53.6 0 0 1-13.77-1.67c-12.31-3.31-13.02-5.81-14.6-6.81-1.58-1.01-1.84-2.95-2.26-3.28-.42-.32-4-2.59-4.39-6.12-.37-3.36-1.85-8.78 1.1-8.78.15 0 .31.01.48.04 0 0 .26 3.09 2.06 4.06 1.62.88 5.81 2.75 8.31 2.75.29 0 .56-.03.8-.08 2.29-.53 2.16-1.5 2.05-2.33-.11-.82-.03-3.12 1.49-3.7.26-.1.49-.14.69-.14.99 0 1.37 1.01 1.6 1.29.27.34 2.19.46 3.75 1.86 1.55 1.39 4.97 3.07 6.72 3.6.71.21 1.29.32 1.73.32.65 0 1.01-.23 1.04-.69.05-.77-.25-3.62.09-3.89.34-.27 1.03-1.09 1.28-1.09h.02c.23.04 1.62 2.45 1.62 2.45s.77-1.07 2.15-1.07c.21 0 .44.03.69.09 1.61.39 4.43.99 5.62.99.15 0 .28 0 .37-.03.68-.15 4.68-.54 6.38-.54.35 0 .6.02.71.05.54.18 2.26.75 2.9.75.12 0 .2-.02.23-.07.19-.29 1.46-3.35 2.76-3.83 1.31-.48 1.88-.71 1.88-.71s.51-3.64-.12-4.93c-.63-1.29-1.44-2.93-.42-4.06.29-.32.66-.46 1.07-.46 1 0 2.22.84 3.1 1.81 1.25 1.36 1.78 1.97 1.65 2.67-.13.7.16 3.48.16 3.48s.48.07 1.28.07a16 16 0 0 0 5.37-.96s-.68-2.27.46-2.88a5.17 5.17 0 0 1 2.25-.62c.16 0 .28.02.34.05.24.12 1.49.89 1.49.89s-1.25-4.81-.69-5.18c.15-.1.33-.15.52-.15M61.88 73.2a2 2 0 0 0 .41-.05c2.28-.56 2.81-4.69-1.41-6.8a1.63 1.63 0 0 0-.76-.18c-.88 0-1.64.72-1.49 1.88.19 1.41 1.24 5.16 3.25 5.16m54.67-22.51c-.44 0-.85.12-1.2.35-.47.32-1.03.7-.37 4.04h-.09c-.67 0-1.77.2-2.82.76-1.12.6-1.4 1.89-1.27 3.12a14.8 14.8 0 0 1-3.98.57h-.18c-.08-.95-.12-1.86-.08-2.12.25-1.32-.62-2.27-1.95-3.71-.47-.52-2.16-2.2-3.99-2.2-.77 0-1.45.3-1.96.86-1.57 1.72-.45 4 .21 5.36.25.52.25 2.12.11 3.57l-1.19.44c-1.27.46-2.23 2.04-3.08 3.73-.47-.11-1.19-.32-2.01-.6a3.28 3.28 0 0 0-1.1-.12c-1.78 0-5.86.39-6.65.57h-.1c-.92 0-3.43-.48-5.33-.95a3.79 3.79 0 0 0-2.8.34c-1.04-1.69-1.3-1.74-1.72-1.82a2.1 2.1 0 0 0-.25-.02c-.66 0-1.12.45-1.7 1.03-.13.13-.25.25-.34.32-.69.55-.67 1.45-.58 3.63l.03.68a6.31 6.31 0 0 1-1.21-.26c-1.73-.53-4.92-2.14-6.26-3.34a8.6 8.6 0 0 0-3.4-1.77l-.3-.1c-.3-.49-1.02-1.58-2.44-1.58-.36 0-.74.07-1.12.22-2.19.84-2.43 3.63-2.25 4.98.08.57.09.71-1.13.99-.14.03-.32.05-.53.05-1.99 0-5.79-1.56-7.73-2.61-.99-.54-1.38-2.47-1.43-3.11-.05-.55-.46-1-1.01-1.09a3.97 3.97 0 0 0-.67-.06 2.7 2.7 0 0 0-2.13.93c-1.32 1.53-.87 4.45-.44 7.27.11.69.2 1.34.27 1.91.28 2.51 1.87 4.82 4.74 6.85l.16.37c.35.82.93 2.18 2.3 3.05.21.14.44.34.72.6 1.48 1.35 3.95 3.6 14.22 6.36 4.22 1.14 8.96 1.71 14.08 1.71s9.52-.62 11.09-.9c.68.58 1.9 1.25 3.98 1.25 2.28 0 5.06-.82 8.27-2.44 8.3-4.19 16-19.28 16.07-19.43.07-.11.42-.48.67-.75 1.03-1.09 2.3-2.45 2.12-3.87a6.71 6.71 0 0 1 .63-3.87c.81-1.41 1.72-3.58 1.77-4.6.07-1.29-1.26-2.97-2.2-3.64a4.42 4.42 0 0 0-2.47-.98ZM61.88 72.01c-.78 0-1.82-2.31-2.06-4.11-.03-.19 0-.34.07-.43a.29.29 0 0 1 .22-.09c.07 0 .15.02.22.06 1.99 1 2.58 2.42 2.47 3.42-.05.46-.29 1.01-.81 1.13a.6.6 0 0 1-.12.02Z" class="cls-9"/>
    <path fill="url(#linear-gradient-2)" d="M116.03 52.08c-.56.38.69 5.18.69 5.18s-1.24-.77-1.49-.89c-.24-.12-1.45-.04-2.59.57s-.46 2.88-.46 2.88c-2.51.9-4.67.99-5.8.95s1.01 3.87-.36 6.34c-1.37 2.47-12.58 5.93-16.83 9.08-4.25 3.15-16.6 3.27-25.61 1.27-9.01-2-13.28-3.94-14.92-9.7a33.37 33.37 0 0 1-3.44-1.56c-1.8-.98-2.06-4.06-2.06-4.06-3.58-.59-1.97 5.21-1.58 8.73.39 3.53 3.97 5.79 4.39 6.12.42.32.68 2.27 2.26 3.28 1.58 1.01 2.29 3.5 14.6 6.81 12.31 3.31 25.28.68 25.28.68.65.9 3.51 2.96 11.29-.97s15.17-18.15 15.53-18.88c.36-.73 2.84-2.66 2.68-3.93a7.9 7.9 0 0 1 .78-4.63c.83-1.44 1.58-3.37 1.62-4.06.04-.69-.88-2.02-1.69-2.59-.81-.58-1.73-.99-2.29-.61Z"/>
    <path d="M116.55 52.53c.33 0 .84.23 1.42.64.75.53 1.45 1.7 1.44 2.07-.03.5-.68 2.31-1.54 3.79a8.46 8.46 0 0 0-.86 5.01c.08.57-1.04 1.75-1.64 2.39-.46.49-.82.87-.98 1.2-.07.15-7.48 14.68-15.26 18.61-2.96 1.49-5.47 2.25-7.46 2.25-2.17 0-2.94-.92-3.07-1.1a.6.6 0 0 0-.49-.25l-.12.01c-.05 0-4.91.98-11.4.98-4.96 0-9.54-.56-13.61-1.65-9.84-2.65-12.11-4.72-13.47-5.95a7.48 7.48 0 0 0-.97-.79c-.9-.57-1.31-1.54-1.61-2.24-.2-.47-.34-.8-.61-1.01l-.17-.12c-2.42-1.72-3.77-3.6-3.99-5.58-.07-.61-.17-1.28-.28-1.99-.34-2.19-.75-4.92.02-5.82.11-.12.29-.28.71-.3.17 1 .71 3.16 2.31 4.03 1.35.73 5.83 2.83 8.6 2.83.34 0 .66-.03.94-.1 2.6-.61 2.66-1.86 2.51-2.99-.1-.78.03-2.64 1.11-3.06.17-.07.33-.1.47-.1.43 0 .66.33.93.77.07.12.14.23.2.3.21.26.55.37 1.08.53.72.23 1.82.57 2.74 1.39 1.67 1.49 5.23 3.21 6.95 3.73.76.23 1.4.35 1.9.35 1.45 0 1.62-.96 1.64-1.25.02-.29 0-.77-.03-1.33-.03-.66-.08-1.84 0-2.22a10.76 10.76 0 0 1 .71-.69c.3.44.8 1.26 1.21 1.96.1.18.29.29.49.3h.03a.6.6 0 0 0 .49-.25s.62-.82 1.66-.82a2 2 0 0 1 .54.07c1.41.35 4.43 1 5.76 1a56.13 56.13 0 0 1 6.75-.57c.38 0 .5.02.51.02.69.24 2.37.79 3.1.79.34 0 .59-.11.74-.34l.23-.44c.92-1.89 1.67-2.95 2.24-3.15 1.32-.48 1.9-.71 1.9-.71a.6.6 0 0 0 .38-.48c.05-.39.51-3.87-.19-5.31-.7-1.44-1.18-2.6-.5-3.35a.77.77 0 0 1 .62-.26c.7 0 1.77.65 2.66 1.62 1.12 1.22 1.58 1.76 1.5 2.15-.14.75.1 3.18.15 3.66a.6.6 0 0 0 .51.53c.02 0 .53.08 1.37.08 1.28 0 3.29-.17 5.58-.99a.6.6 0 0 0 .37-.74c-.17-.56-.36-1.89.16-2.17a4.62 4.62 0 0 1 1.96-.55h.11c.22.12.93.55 1.4.84a.6.6 0 0 0 .68-.03c.2-.15.29-.4.23-.64-.46-1.77-.87-3.92-.81-4.57h.06M61.89 73.83c.18 0 .37-.02.55-.07 1.17-.29 2.03-1.34 2.18-2.69.18-1.61-.63-3.83-3.46-5.24a2.37 2.37 0 0 0-1.03-.25 2.1 2.1 0 0 0-1.58.71c-.42.48-.6 1.14-.51 1.86.2 1.47 1.32 5.68 3.85 5.68m54.66-21.91a.86.86 0 0 0-.52.15c-.56.38.69 5.18.69 5.18s-1.24-.77-1.49-.89a.86.86 0 0 0-.34-.05 5.2 5.2 0 0 0-2.25.62c-1.14.61-.46 2.88-.46 2.88-2.22.8-4.17.96-5.37.96-.81 0-1.28-.07-1.28-.07s-.29-2.78-.16-3.48c.14-.7-.4-1.32-1.65-2.67-.89-.97-2.11-1.81-3.1-1.81-.4 0-.77.14-1.07.46-1.02 1.13-.21 2.77.42 4.06.63 1.29.12 4.93.12 4.93s-.58.23-1.88.71c-1.31.48-2.57 3.54-2.76 3.83-.03.05-.11.07-.23.07-.64 0-2.37-.57-2.9-.75a2.8 2.8 0 0 0-.71-.05 54.75 54.75 0 0 0-6.75.57c-1.19 0-4.01-.59-5.62-.99a2.84 2.84 0 0 0-.69-.09c-1.38 0-2.15 1.07-2.15 1.07s-1.38-2.4-1.62-2.45h-.02c-.25 0-.95.82-1.28 1.09-.34.27-.04 3.13-.09 3.89-.03.46-.39.69-1.04.69-.44 0-1.02-.11-1.73-.32-1.74-.53-5.16-2.21-6.72-3.6-1.56-1.39-3.47-1.52-3.75-1.86-.23-.28-.6-1.29-1.6-1.29-.2 0-.43.04-.69.14-1.52.58-1.6 2.88-1.49 3.7.11.82.24 1.79-2.05 2.33-.24.06-.51.08-.8.08-2.5 0-6.69-1.88-8.31-2.75-1.8-.98-2.06-4.06-2.06-4.06a2.74 2.74 0 0 0-.48-.04c-2.95 0-1.48 5.42-1.1 8.78.39 3.53 3.97 5.79 4.39 6.12.42.32.68 2.27 2.26 3.28 1.58 1.01 2.29 3.5 14.6 6.81a53.55 53.55 0 0 0 13.77 1.67c6.63 0 11.52-.99 11.52-.99.36.5 1.39 1.35 3.56 1.35 1.75 0 4.25-.56 7.73-2.32 7.78-3.92 15.17-18.15 15.53-18.88.36-.73 2.84-2.66 2.68-3.93a7.9 7.9 0 0 1 .78-4.63c.83-1.44 1.58-3.37 1.62-4.06.04-.69-.88-2.02-1.69-2.59-.59-.42-1.24-.76-1.77-.76ZM61.88 73.23c-2.01 0-3.07-3.75-3.25-5.16-.15-1.16.61-1.88 1.49-1.88.25 0 .51.06.76.18 4.22 2.11 3.69 6.24 1.41 6.8a2 2 0 0 1-.41.05Z" class="cls-15"/>
    <path d="M106.95 60.78c-.89 0-1.42-.07-1.42-.07s-.29-2.78-.16-3.48c.14-.7-.4-1.32-1.65-2.67-1.25-1.36-3.14-2.47-4.17-1.35-1.02 1.13-.21 2.77.42 4.06.63 1.29.12 4.93.12 4.93s-.58.23-1.88.71c-1.31.48-2.57 3.54-2.76 3.83-.19.29-2.5-.47-3.14-.69-.64-.22-6.28.3-7.09.48-.81.18-4.18-.51-5.99-.96-1.81-.45-2.84.99-2.84.99s-1.38-2.4-1.62-2.45-.96.81-1.3 1.09c-.34.27-.04 3.13-.09 3.89-.05.77-1.02.9-2.77.37-1.74-.53-5.16-2.21-6.72-3.6-1.55-1.39-3.47-1.52-3.75-1.86-.27-.34-.76-1.73-2.28-1.15-1.52.58-1.6 2.88-1.49 3.7.11.82.24 1.79-2.05 2.33-2.29.53-7.3-1.69-9.11-2.67-1.8-.98-2.06-4.06-2.06-4.06-.3-.05-.56-.05-.79-.02-.17 6.53 9.6 7.35 10.83 7.68 1.22.34 3.51-1.37 3.51-1.37s.52-3.72 1.56-4.27c1.04-.55 1.69 1.3 2.37 1.21.67-.09 4.62 2.13 6.99 3.94 2.37 1.82 6.46 1.68 6.46 1.68s.56-1.9 1-3.28c.44-1.38 3 .52 3.3.48.3-.04 1.6-.92 3.04-.2s4.99-.46 7.82-.53 6.55 1.16 6.55 1.16 1.2-1.68 2.11-3.22c.91-1.54 3.13-1.63 3.13-1.63s.52-5.25 0-6.9c-.53-1.65-.98-4.01 1.31-2.41 2.29 1.6 2.05 7.03 2.05 7.03l2.56-.72Z" class="cls-3"/>
    <path fill="#b7eae8" stroke="#3c7bd6" stroke-linecap="round" stroke-linejoin="round" stroke-width="1.21" d="M103.57 45.92c-1.52.2-3.81-.03-3.92.52-.11.55 4.16 4.03 5.22 4.78 1.05.75 3.9-.22 3.66-2.03-.24-1.81-2.38-3.61-4.96-3.27Z"/>
    <path d="M107.06 48.69c-.13.39-.87.5-1.65.23-.78-.26-1.3-.8-1.17-1.19.13-.39.87-.5 1.65-.23.78.26 1.3.8 1.17 1.19Z" class="cls-3"/>
    <path fill="#703c16" d="M84.87 32.55c.4.82.85 1.61 1.45 2.3a7.47 7.47 0 0 0 2.31 1.71c.28.14.67.09.83-.22.14-.27.09-.68-.22-.83a8.47 8.47 0 0 1-1.29-.77l-.12-.1-.24-.21a5.66 5.66 0 0 1-.42-.43l-.2-.24c-.08-.1.06.08-.02-.03a16.4 16.4 0 0 1-1.04-1.8c-.14-.28-.57-.38-.83-.22a.62.62 0 0 0-.22.83Zm4.32-.93c1.06.82 2.18 1.61 3.45 2.06.3.1.67-.12.74-.42.08-.34-.1-.63-.42-.74l-.25-.09c-.05-.02-.06-.02 0 0l-.12-.05-.47-.23a12.4 12.4 0 0 1-.92-.55c-.48-.32-.95-.66-1.41-1.01-.25-.19-.69-.05-.83.22-.17.32-.05.62.22.83Zm19.66 5.91a12.56 12.56 0 0 1 5.86 9.18c.04.33.46.5.74.42.35-.09.47-.42.42-.74a13.74 13.74 0 0 0-6.42-9.9c-.66-.41-1.27.64-.61 1.04Zm.35 6.45c.31.2.53.38.81.69l.1.11.03.04.17.24c.1.15.19.31.27.48l.05.1.02.04.09.27c.05.18.1.36.13.54 0 .02.02.15 0 .04l.01.12.02.3c0 .2 0 .4-.03.6-.03.32.3.6.6.6.36 0 .57-.28.6-.6a4.89 4.89 0 0 0-2.26-4.62c-.27-.18-.67-.06-.83.22a.62.62 0 0 0 .22.83ZM92.58 30.35c.36.27.76.49 1.12.77.07.04.14.07.22.07.08.02.16.01.24-.01a.63.63 0 0 0 .36-.28.64.64 0 0 0 .06-.47l-.06-.14a.66.66 0 0 0-.22-.22c-.36-.27-.76-.49-1.12-.77a.44.44 0 0 0-.22-.07.49.49 0 0 0-.24.01.63.63 0 0 0-.36.28.64.64 0 0 0-.06.47l.06.14c.05.09.13.16.22.22ZM78.59 48.29c.19 2.96 3.14 4.39 5.69 4.96.32.07.65-.1.74-.42.08-.3-.1-.67-.42-.74a9.24 9.24 0 0 1-3.21-1.28 3.83 3.83 0 0 1-.6-.48l-.29-.31-.2-.26a2.9 2.9 0 0 1-.51-1.47c-.02-.33-.26-.6-.6-.6-.31 0-.62.28-.6.6Z"/>
    <path fill="#ceb891" stroke="#5b2307" stroke-linecap="round" stroke-linejoin="round" stroke-width="1.21" d="M1.21 36.81s24.25 2.14 46.09 1.39l5.66-5.13-45.58 2.55-6.16 1.19Z"/>
    <path fill="#ceb891" d="M1.21 37.42a.6.6 0 0 1-.6-.54.6.6 0 0 1 .52-.66l.34-.05a1090.6 1090.6 0 0 0 43.32-7.55l.12-.01a.6.6 0 0 1 .54.33c1.11 2.15 4.22 2.59 6.72 2.94 1.61.23 2.88.41 3.57.99a.6.6 0 0 1 .16.71.61.61 0 0 1-.55.36h-.08a15.6 15.6 0 0 0-2.23-.16c-1.04 0-2.19.09-3.93.23-15.8 1.26-47.54 3.4-47.86 3.42h-.04Z"/>
    <path d="M44.9 29.21c1.95 3.78 8.88 2.81 10.44 4.12-.83-.12-1.54-.16-2.31-.16-1.07 0-2.24.09-3.99.23a5591.62 5591.62 0 0 1-47.83 3.42l.35-.05c24.23-3.73 43.34-7.55 43.34-7.55m0-1.21c-.08 0-.16 0-.24.02-.19.04-19.37 3.86-43.29 7.54l-.34.05a1.2 1.2 0 0 0 .17 2.4h.08c.32-.02 32.06-2.16 47.85-3.42 1.74-.14 2.88-.23 3.9-.23.72 0 1.38.05 2.14.15l.17.01c.47 0 .91-.28 1.1-.72.22-.49.09-1.07-.33-1.41-.82-.69-2.17-.88-3.87-1.12-2.36-.33-5.3-.75-6.27-2.62a1.2 1.2 0 0 0-1.07-.65Z" class="cls-1"/>
    <path fill="url(#linear-gradient-3)" d="M6.56 52.67c-.47 0-.59-.4-1.04-5.39a73 73 0 0 0-.42-4.02c-.4-2.65-.86-6.01-.86-6.01l-.03-.23.22-.09c.12-.05 3.06-1.23 4.42-1.23.66 0 .86.28.91.52.16.77-.47 3.19-1.25 6.04l-.41 1.53c-.17.68-.34 2.36-.5 3.99-.45 4.43-.57 4.83-.98 4.89h-.05Z"/>
    <path d="M8.85 35.99c.34 0 .57.08.61.28.21.98-1.25 5.78-1.66 7.44-.41 1.65-.78 8.59-1.23 8.65-.45 0-.77-6.52-1.16-9.16-.4-2.65-.86-6-.86-6s2.98-1.21 4.31-1.21m0-.6c-1.4 0-4.22 1.13-4.54 1.26l-.43.18.06.46s.46 3.39.86 6.01c.15.97.28 2.51.42 4 .45 5.03.56 5.67 1.34 5.67h.1c.67-.1.77-.54 1.24-5.16.16-1.62.33-3.29.5-3.95l.41-1.52c.82-2.99 1.43-5.34 1.26-6.18-.05-.23-.26-.76-1.2-.76Z" class="cls-9"/>
    <path d="M8.85 36.6h.03c-.03.95-.84 3.92-1.25 5.42l-.42 1.55c-.18.74-.35 2.38-.53 4.12l-.12 1.16-.15-1.65c-.14-1.51-.28-3.07-.43-4.07-.31-2.03-.65-4.51-.79-5.53 1-.38 2.8-1 3.65-1m0-.6c-1.32 0-4.31 1.21-4.31 1.21s.46 3.36.86 6c.4 2.64.71 9.16 1.16 9.16.45-.07.82-7 1.23-8.65.41-1.65 1.87-6.45 1.66-7.44-.04-.2-.27-.28-.61-.28Z" class="cls-3"/>
    <path fill="url(#linear-gradient-4)" d="M33.82 57.82c-.6 0-.89-1.02-1.26-6.73-.05-.81-.1-1.5-.13-1.68-.05-.27-.22-.58-.4-.91-.28-.52-.56-1.06-.51-1.59.06-.54-.5-6.19-.89-9.85l-.02-.23.22-.08c.95-.36 2.41-.44 3.47-.44.72 0 1.25.04 1.25.04l.3.02-.02.3c0 .05-.27 5.39-.32 7.41-.02 1.15-.32 1.9-.55 2.51-.2.51-.35.91-.31 1.4 0 .1.46 9.61-.75 9.84h-.08Z"/>
    <path d="M34.29 36.6c.71 0 1.23.03 1.23.03s-.27 5.37-.32 7.42c-.04 2.05-.97 2.74-.86 3.94.11 1.2.24 9.37-.51 9.52h-.02c-.73 0-.95-7.42-1.09-8.16-.14-.74-.98-1.65-.9-2.42.08-.77-.89-9.92-.89-9.92.91-.35 2.34-.42 3.36-.42m0-.6c-1.09 0-2.59.08-3.58.46l-.43.17.05.46c.37 3.48.94 9.22.89 9.79-.07.63.26 1.23.54 1.77.16.3.32.61.37.83.03.16.08.91.13 1.64.4 6.14.69 7.01 1.56 7.01h.13c.58-.12.97-.53 1.06-4.95.05-2.2 0-4.56-.07-5.22-.04-.42.1-.78.29-1.27.24-.63.55-1.41.57-2.61.04-2.02.31-7.35.32-7.41l.03-.59-.59-.04s-.54-.04-1.27-.04Z" class="cls-9"/>
    <path d="M34.29 37.2h.59c-.07 1.47-.25 5.21-.29 6.83-.02.99-.26 1.6-.49 2.2-.22.57-.43 1.11-.37 1.81.09.98.13 4.31 0 6.67-.13-1.3-.23-2.81-.29-3.69-.07-1.05-.1-1.57-.15-1.79-.08-.4-.29-.79-.49-1.17-.2-.38-.43-.81-.41-1.07.08-.73-.6-7.29-.84-9.55a12.1 12.1 0 0 1 2.71-.25m0-.6c-1.02 0-2.45.07-3.36.42 0 0 .98 9.15.89 9.92-.08.77.76 1.67.9 2.42.14.74.36 8.16 1.09 8.16h.02c.74-.14.61-8.31.51-9.52-.11-1.2.81-1.89.86-3.94.04-2.05.32-7.42.32-7.42s-.51-.03-1.23-.03Z" class="cls-3"/>
    <path d="M33.18 41.43c.07.72-.23 1.34-.65 1.38-.42.04-.82-.52-.88-1.24-.07-.72.22-1.34.65-1.38.42-.04.82.52.88 1.24Z" class="cls-3"/>
    <path fill="url(#linear-gradient-5)" d="M20.03 58.27c-.72 0-.99-1.07-1.01-3.94a53.55 53.55 0 0 0-.33-5.27c-.52-.43-.66-1.69-.7-3.65-.04-1.7-.68-7.34-.69-7.39l-.03-.29.29-.05c.16-.03 3.99-.63 6.32-.63 1.41 0 1.75.22 1.9.44.1.14.12.32.05.49-.22.57-.51 3.58-.77 6.23-.56 5.81-.63 5.9-1.02 5.9h-.02c-.52 0-.63-.71-.73-2.97 0-.22-.02-.41-.03-.57-.03-.53-.42-2.53-.72-4.05a39.86 39.86 0 0 0-.34 3.98c.06 1.35-.69 4.03-.78 4.34-.08.29-.19 1.4-.31 2.57-.43 4.32-.57 4.78-.99 4.84h-.09Z"/>
    <path d="M23.87 37.36c1.08 0 1.82.13 1.67.52-.48 1.23-1.15 11.94-1.52 11.94-.38 0-.41-2.35-.46-3.25-.06-.91-1.09-5.91-1.09-5.91s-.62 4.74-.57 5.88c.05 1.13-.52 3.39-.76 4.24-.24.86-.6 7.13-1.05 7.19h-.04c-.43 0-.69-.94-.71-3.64-.02-2.79-.34-5.44-.34-5.44-.52-.24-.64-1.75-.68-3.48-.04-1.74-.69-7.42-.69-7.42s3.93-.62 6.27-.62m0-.6c-2.36 0-6.2.6-6.36.63l-.57.09.07.57c0 .06.65 5.67.69 7.37.05 1.98.18 3.23.72 3.79.08.72.3 2.89.31 5.12.02 2.75.23 4.24 1.32 4.24h.13c.67-.11.8-.63 1.25-5.12.1-1.05.22-2.25.3-2.51.09-.31.85-3.04.79-4.43-.02-.34.04-1.08.12-1.94.18.94.31 1.75.33 2.04l.03.56c.1 2.19.18 3.24 1.02 3.26.68 0 .75-.62.95-2.27.13-1.05.26-2.44.4-3.91.24-2.5.54-5.62.75-6.15a.84.84 0 0 0-.08-.77c-.28-.41-.88-.57-2.15-.57Z" class="cls-9"/>
    <path d="M23.87 37.97c.51 0 .82.03 1 .06-.21.93-.42 3.01-.72 6.1l-.14 1.39c-.28-1.67-.88-4.58-.96-4.99l-.52-2.52c.48-.03.93-.05 1.34-.05m-1.67.08-.33 2.54c-.03.2-.63 4.81-.58 5.98.05.98-.47 3.08-.74 4.05-.1.35-.19 1.22-.34 2.73-.07.67-.15 1.55-.25 2.34l-.04-1.35c-.02-2.79-.33-5.4-.35-5.51l-.04-.34-.27-.12c-.12-.15-.31-.75-.37-2.97-.03-1.43-.46-5.39-.63-6.89.83-.12 2.44-.34 3.93-.45m1.67-.68c-2.34 0-6.27.62-6.27.62s.65 5.68.69 7.42c.04 1.74.16 3.25.68 3.48 0 0 .32 2.65.34 5.44.02 2.7.28 3.64.71 3.64h.04c.45-.07.81-6.34 1.05-7.19.24-.85.82-3.11.76-4.24a71.8 71.8 0 0 1 .57-5.88s1.03 5 1.09 5.91c.06.91.09 3.25.46 3.25.38 0 1.05-10.71 1.52-11.94.15-.39-.59-.52-1.67-.52Z" class="cls-3"/>
    <path d="M20.18 43.14c-.02 1.04-.41 1.88-.87 1.87-.46 0-.81-.86-.79-1.9s.41-1.88.87-1.87c.46 0 .81.86.79 1.9Zm35.16-9.82c-1.1-.24-3.34-.25-6.3.07-1.98-.29-4.24-.92-5.56-2.46 0 0-30.52 5.25-41.92 5.83 24.23-3.73 43.34-7.55 43.34-7.55 1.95 3.78 9.1 2.81 10.44 4.12Z" class="cls-3"/>
  </g>
</svg>
