<svg xmlns="http://www.w3.org/2000/svg" height="80px" xmlns:xlink="http://www.w3.org/1999/xlink" id="Layer_2" data-name="Layer 2" viewBox="0 0 121.2 101.7"><defs><linearGradient id="linear-gradient" x1="79.2" x2="79.2" y1="51.3" y2="60.8" gradientTransform="rotate(-8 -309.8 100.3)" gradientUnits="userSpaceOnUse"><stop offset="0" stop-color="#dbffff"/><stop offset="1" stop-color="#339ed3"/></linearGradient><linearGradient xlink:href="#linear-gradient" id="linear-gradient-2" x1="82.3" x2="82.3" y1="142.9" y2="109.3"/><linearGradient id="linear-gradient-3" x1="8.1" x2="8.1" y1="149.1" y2="127.9" gradientTransform="rotate(1 4515.7 26.9)" gradientUnits="userSpaceOnUse"><stop offset="0" stop-color="#dbffff"/><stop offset="1" stop-color="#1376a6"/></linearGradient><linearGradient xlink:href="#linear-gradient-3" id="linear-gradient-4" x1="33.5" x2="33.5" y1="153.5" y2="132.5" gradientTransform="rotate(-5 -1029.6 87.3)"/><linearGradient xlink:href="#linear-gradient-3" id="linear-gradient-5" x1="23" x2="23" y1="151.4" y2="130.4" gradientTransform="rotate(1 4595.5 12.3)"/><style>.cls-1{fill:#5b2307}.cls-3{fill:#fff}.cls-9{fill:#3c7bd6}.cls-11{stroke:#4c1a09;stroke-width:.6px;stroke-linecap:round;stroke-linejoin:round;fill:none}.cls-14{fill:#8e5424}.cls-15{fill:#b7eae8}.cls-16{fill:#4c1a09}.cls-18{fill:#a36731}.cls-21{fill:#755b46}</style></defs><g id="Layer_1-2" data-name="Layer 1"><path d="M51.9 100.8c-.7 0-1.4-.4-1.7-1-.3-.7-.1-1.5.5-2.2.5-.6 2-1.8 3.7-3.1l-2.1.2c-.6 0-2.1 0-2.3-1-.3-1.3 1.8-2.2 2.2-2.4 2.2-.9 8-2.2 8.2-2.2 2.4-.6 4.8-1 6.6-1s2.6.3 3 1c.5 1.2-1.1 2.7-3 4.4L65.5 95l-1.2 1.4c-2 2.3-3.2 3.6-4.1 3.6a1 1 0 0 1-1-.6c-.3-.8.4-2.3 1.2-3.6L57 97.9l-3.9 2.5-1.2.3Z" class="cls-21"/><path d="M67 88.8c1.3 0 2.2.1 2.4.6.5 1-2.7 3.5-4.3 5.1-1.4 1.5-4 4.9-5 4.9l-.3-.3c-.5-1.3 2.8-5.4 2.8-5.4-2.4 1.3-8.2 5.3-9.8 6.2-.3.2-.6.3-1 .3-1 0-1.5-1.2-.7-2.2 1.2-1.3 7.8-6 7.8-6l-3.7 1.8a19 19 0 0 1-3 .3c-2.9 0-1.6-1.5.2-2.2 2.2-.9 8.1-2.2 8.1-2.2a29 29 0 0 1 6.5-1m0-1.2a80 80 0 0 0-15 3.3c-.7.3-3 1.3-2.6 3 .3 1.5 2.2 1.5 2.9 1.5h.1a18.3 18.3 0 0 0-2.2 1.9 2.7 2.7 0 0 0-.5 2.8 2.3 2.3 0 0 0 2.2 1.4c.5 0 1-.2 1.5-.5l3.9-2.4 1.6-1c-.3.8-.4 1.5-.2 2 .3.7.8 1 1.5 1 1.1 0 2.3-1 4.6-3.7l1.2-1.4 1.4-1.4c2.1-2 3.8-3.6 3-5.1-.5-1.2-2-1.3-3.4-1.3Z" class="cls-16"/><path d="M52.8 95.8s2.2.4 2.4 3m1-5.2s3-1 3.3 2.3m-6-4.8s1.7.6 1.2 3.1m6.2 1s2-.8 3.2 1.5m-6.7-6.8c.1.1 1.7-.1 2 1.6 0 0 2.8-1 3.7 1.4 0 0 2.7-1.2 3.5.9" class="cls-11"/><path d="M83 101c-.5 0-1-.2-1.2-.7-.7-1.8 1.9-4.8 4-6.9L84 94c-2.1.7-3.5 1.2-4.2 1.2-.6 0-.8-.4-.8-.5-.2-.6.3-1 1-1.5 3-2.4 10.5-5 11.3-5.2a37 37 0 0 1 10.5-4.4c.5 0 1 .1 1.2.5.2.3.3.7.1 1.2-.7 2.6-5 12.5-8.1 12.5h-.2c-.7 0-1-.5-1.2-.8-.4-.8 0-2.1.4-3.3l-1 .8C88.7 98 85 101 83 101Z" class="cls-21"/><path d="M101.7 84.2c.6 0 1 .3.7 1-1 3.4-5.2 12-7.5 12h-.1c-2.3-.3.8-5.5.8-5.5-2 1.2-10 8.8-12.6 8.8-.3 0-.5-.1-.6-.4-1-2.4 6.3-8.4 6.3-8.4l-2.1.9c-1.7.4-5.8 2-6.9 2-.4 0-.3-.2.5-1 3.1-2.3 11.3-5 11.3-5s7.6-4.4 10.2-4.4m0-1.2c-2.7 0-9.2 3.6-10.7 4.4-1 .4-8.4 3-11.5 5.3-.6.5-1.5 1.2-1.2 2.2.1.2.4 1 1.4 1 .8 0 2-.5 4-1.1-1.7 2-3.1 4.2-2.4 5.8.3.7 1 1 1.7 1 2 0 5.4-2.6 9.8-6.2-.1.7 0 1.4.2 1.9.3.6.9 1 1.6 1.1h.3c3.6 0 8-10.6 8.7-12.9.2-.9 0-1.4-.3-1.8-.2-.3-.7-.7-1.7-.7Z" class="cls-16"/><path d="M82.7 97.2s3.3-1 4.4 2m-1.8-5.3s5.5-2.1 6.5 1.5m-9.4-3.7s1.3.7.8 2.5m10.3.3s2.7-2.6 5.5-1M87.9 90s1.4-.6 2 .8c0 0 4-1.9 6.2-.2 0 0 3.4-3 5.4-1.4" class="cls-11"/><path d="m64.8 91.7-2.4-.3c-6.8-1.6-8-8.4-8-8.5a.6.6 0 0 1 .4-.6c1.4-.5 2.9-.7 4.5-.7 7.6 0 15.3 4.6 15.6 4.8.2.1.3.3.3.5a.6.6 0 0 1-.1.5c-.2.1-4.7 4.3-10.3 4.3Z" class="cls-15"/><path d="M59.3 82.2c7.5 0 15.3 4.7 15.3 4.7s-4.3 4.2-9.8 4.2c-.7 0-1.5 0-2.3-.3-6.4-1.5-7.5-8-7.5-8 1.4-.4 2.8-.6 4.3-.6m0-1.2c-1.7 0-3.3.3-4.7.7-.5.2-.9.8-.8 1.4 0 .3 1.3 7.2 8.4 9l2.6.2c5.9 0 10.5-4.3 10.7-4.5.2-.2.4-.6.3-1s-.2-.7-.5-.9c-.4-.2-8.3-4.9-16-4.9Z" class="cls-9"/><path d="M77.1 87.7c-22.3 0-33.2-11.1-35-18.6a27.5 27.5 0 0 1-.6-9.8c-.5.5-1.1 1-1.8 1-.6 0-1.3-.4-1.4-2.3a13 13 0 0 1 2-6.4h-.1c-.9.7-1.5 1.2-2 1.2s-1.1-.2-1.2-1.5c-.2-2.1 2.2-4.5 3.2-5.4-.8-1.6-3.3-7.7-3.2-17a29 29 0 0 1 8.3-18.3c-1.4 0-2.4-.6-2.6-1.3-.1-.6 0-1.3 1.5-2.2.9-.5 2.1-1 3.4-1.2-1-.2-1.7-.6-2-1.2 0-.3 0-.9.7-1.5a5 5 0 0 1 3.2-.9c1.3 0 2.6.3 3.7.6-.3-.5-.5-1-.4-1.5a1 1 0 0 1 .7-.7h.5c1.3 0 3.4 1.5 4 2a41.8 41.8 0 0 1 6.5-.5c12.3 0 22 6.2 28 17.9 3.1 5.9 8.3 8.2 14.2 10.8a29.3 29.3 0 0 1 11.1 9.1c.3.4.1.7 0 .9-.1.2-.4.4-.7.4 1.7 2.4 2.5 6 2.6 6.8a.8.8 0 0 1-.2.7.8.8 0 0 1-.7.2h-.2c1.4 3 1.5 7 .8 8a44 44 0 0 0-2.8 6.8c0 1.1-13.3 23-37 23.8h-2.5Z" class="cls-18"/><path d="M54 1.2c1.3 0 3.9 2.1 3.9 2.1 2.4-.4 4.6-.5 6.7-.5A30.1 30.1 0 0 1 92 20.3c3.2 6 8.3 8.4 14.5 11.2 6.1 2.7 10.4 8 10.8 8.8.1.2 0 .3-.3.3-.6 0-1.5-.3-1.5-.3 2.4 2.1 3.5 7.2 3.6 7.9 0 .1-.1.2-.3.2-.5 0-1.6-.6-1.6-.6 2 2.8 2.4 8 1.8 8.8-.6.8-3 6.5-3 7 0 .7-13 22.5-36.3 23.4H77c-21.6 0-32.5-10.5-34.4-18-2-7.9.4-14.3.4-14.3a10.3 10.3 0 0 0-1.6 3.7s-1 1.3-1.8 1.3c-.4 0-.7-.4-.8-1.7-.2-3.6 3.3-8.2 3.3-8.2-1.7.6-3.3 2.4-4 2.4-.4 0-.6-.3-.6-1-.2-2.2 3.4-5.1 3.4-5.1s-3.4-6.5-3.3-17.2c0-10.6 9.1-19 9.1-19l-.9.1c-2.4 0-3.7-1-1.4-2.3 2.5-1.5 7.5-2 7.5-2s-7.7 0-5.3-2a4.5 4.5 0 0 1 2.8-.8c2.7 0 5.8 1.2 5.8 1.2s-2.9-2.5-1.6-2.8a1 1 0 0 1 .3 0M54 0h-.7a1.6 1.6 0 0 0-1.1 2l-2.7-.3c-1.5 0-2.7.4-3.6 1-1 1-1 1.8-.8 2.2 0 .2.2.5.7.9l-2 .8c-1.7 1-1.9 2-1.7 2.8.2.8 1 1.4 2 1.6a29 29 0 0 0-7.7 18 42 42 0 0 0 3 16.8c-1.1 1-3.2 3.4-3 5.6.1 1.8 1.4 2 1.7 2 .2 0 .5 0 .7-.2a11.2 11.2 0 0 0-1.1 4.9c0 2.5 1.3 2.8 2 2.8.4 0 .7 0 1-.3-.1 2.5 0 5.4.8 8.7 1.9 7.6 13 19 35.6 19l2.6-.1c12.5-.5 22-6.8 27.7-12a40.1 40.1 0 0 0 9.8-12.5v.1a48 48 0 0 1 2.7-6.5c.8-1 .7-4.8-.4-7.8l.4-.4c.3-.3.4-.7.4-1 0-.1-.6-3.7-2.3-6.6.2 0 .3-.2.4-.4a1.4 1.4 0 0 0 0-1.4c-.6-1.1-5.2-6.6-11.4-9.3-5.8-2.6-11-4.9-13.9-10.7A31 31 0 0 0 64.6 1.6c-2 0-4.2.1-6.4.5-1-.8-2.8-2.1-4.2-2.1Z" class="cls-1"/><path d="M116 63.7a41 41 0 0 1 3-7c.6-.9.3-6.1-1.8-8.9 0 0 2 1 1.9.4-.1-.7-1.2-5.7-3.6-7.9 0 0 2.2.8 1.8 0-.4-.8-4.7-6-10.8-8.8-3.2-1.4-6-2.7-8.5-4.5s9 7.4 9.6 15.3-3.4 5.4-3.4 5.4l-7-2.6s3 5.6-.2 8.1-4.5.6-4.5.6 1.7 3.7-2.6 5.3a78.3 78.3 0 0 1-21.5 2.8c-5.3-.3-12.5-1.6-13.6-5.3-1.2-3.7-2-4.2-2-4.2s-4.1 7.5-5.2 4.3c-1-3.2-.4-5.9-.4-5.9s-3.9 3.3-3.7 1.4c.2-1.8 1-4 1-4s-1.9-.5-3.8-2c-.7.7-3.3 3.1-3.1 5.1.2 2.3 2.2-.6 4.5-1.5 0 0-3.4 4.6-3.2 8.2.2 3.7 2.6.4 2.6.4s.4-2 1.6-3.7c0 0-2.4 6.4-.4 14.3s13.6 18.9 37 18C103 86.1 116 64.3 116 63.7Z" class="cls-14"/><path fill="#bd852d" d="M104.6 61.8c-10.8 0-32.1-5.2-31-15.7 1.2-10.5 9.5-8.7 10.8-21.6 1.2-13-12.8-18.7-22.7-16.1-9.9 2.6-13.6 13.2-13.9 14-.3.7-5.2 1.3-7.1 1.2-2-.2-1.4-2.4-1.4-2.5a21.7 21.7 0 0 0-1.6 7.8c-.2 10.7 3.2 17.2 3.2 17.2s-3.5 2.9-3.3 5.2c.2 2.3 2.2-.6 4.5-1.5 0 0-3.4 4.6-3.2 8.2.2 3.6 2.6.4 2.6.4s.4-2.1 1.6-3.7c0 0-2.4 6.4-.4 14.3 2 7.8 13.6 18.9 37 18 19.5-.7 31.8-16.2 35.3-21.5a14.2 14.2 0 0 0-10.4-3.7Z"/><path fill="#91682c" d="m82.3 86.8 1.3-.2h.7l1.3-.3.6-.1 1.3-.3.6-.2 1.6-.4h.1a44 44 0 0 0 1.8-.7l.4-.2 1.3-.5.5-.2 1-.5.6-.2 1.1-.6.5-.3a55.4 55.4 0 0 0 3-1.7l.2-.2 1-.7.5-.3 1-.7.3-.3 1-.7.3-.3 1-.8.1-.1 1.2-1 .1-.2 1-.8.2-.3.7-.7.3-.4.7-.6.3-.3.6-.7.2-.3.8-.9.2-.2.5-.6.3-.4.4-.4.3-.4.2-.4.3-.4.3-.3.2-.4h.1l.7-1.1a14.2 14.2 0 0 0-10.4-3.8c-4.3 0-10.2-.8-15.7-2.4A81.2 81.2 0 0 1 68.4 62c-5.3-.3-12.5-1.6-13.6-5.3-1.2-3.7-2-4.2-2-4.2s-4.1 7.5-5.2 4.3c-1-3.3-.4-5.9-.4-5.9s-3.9 3.3-3.7 1.4c.2-1.9 1-4 1-4s-2-.5-3.8-2l-.1.2-.3.2-.2.2-.2.3h-.1a4.8 4.8 0 0 0-.2.3h-.1l-.3.3v.1l-.3.4a9 9 0 0 0-.7 1l-.2.2v.2l-.2.3v.1l-.1.3v.4l-.1.2v.4c.2 2.3 2.2-.6 4.6-1.5 0 0-3.5 4.6-3.3 8.2.2 3.6 2.6.4 2.6.4s.4-2.1 1.6-3.7c0 0-2.4 6.4-.4 14.3 2 7.8 13.6 18.9 37 18l2-.1.6-.1Z"/><path d="M39.4 57.3c-.5 0-1.6 0-2.1-.2-1-.4-2.8-2-3.6-4.2a5.3 5.3 0 0 1 .2-4.4c1.3-2.4 3-3 4-3.5l1-.5.3-.6c.7-1.5 1.8-3.7 3.4-4.3.3-.2.6-.2.9-.2.6 0 1.1.3 1.5.8.5.9.5 2.2 0 3.6 1.8-.4 6.2-2.5 7.8-4a2 2 0 0 1 1.4-.7c.7 0 1.3.5 1.6 1.5a5.5 5.5 0 0 1-1.8 5.8 48.7 48.7 0 0 1-5.8 3.6c-.3 1.2-1.6 5.2-3.4 6.3-1.6 1-4.5 1-5.4 1Z" class="cls-18"/><path d="M54.1 39.7c1.6 0 2.1 4.3-.5 6.2-3 2.3-6 3.7-6 3.7s-1.3 5-3.2 6.1c-1.1.7-3.4 1-5 1a7.1 7.1 0 0 1-1.9-.2c-1.4-.6-4.9-4.2-3-7.7s4.4-3 5-4c.5-1.1 1.7-4 3.3-4.7l.7-.1c1.2 0 1.8 1.7.8 4.1-.1.3 0 .4.3.4 1.4 0 6.7-2.5 8.6-4.3.3-.4.7-.5 1-.5m0-1.2a2.6 2.6 0 0 0-1.8.8c-1.4 1.3-4.6 3-6.5 3.6a4.1 4.1 0 0 0-.4-3 2.4 2.4 0 0 0-2-1.1 3 3 0 0 0-1.1.2c-1.8.7-3 3-3.7 4.6l-.3.5a4 4 0 0 1-.7.3 7.6 7.6 0 0 0-4.3 3.9A5.8 5.8 0 0 0 33 53c.8 2.2 2.7 4 4 4.5a12.8 12.8 0 0 0 8-.8c1.9-1.1 3.2-4.9 3.6-6.4 1-.5 3.2-1.7 5.6-3.5a6 6 0 0 0 2.1-6.5c-.4-1.2-1.2-2-2.2-2Z" class="cls-1"/><path d="M55.4 42.4a4.7 4.7 0 0 1-1.8 3.5c-3 2.3-6 3.7-6 3.7s-1.3 5-3.2 6.1-5.3 1.3-6.9.8c-1.2-.4-2.6-2-3.4-4.3.8 1 2.5 2.8 4.7 2.7 3.3 0 4.5-.3 5.8-2.2 1.3-1.8 1.7-4 1.7-4s8-2.8 9.1-6.3Z" class="cls-14"/><path fill="#f7d33c" d="M68.4 34c-5.1 0-9.6-4.4-10.4-10.3-.8-6.3 3-12.1 8.6-12.8l1.2-.1c5.1 0 9.6 4.4 10.4 10.2a12.4 12.4 0 0 1-1.9 8.5 9.6 9.6 0 0 1-7.9 4.5Z"/><path d="M67.8 11.4c4.8 0 9 4.1 9.8 9.7.8 6-2.8 11.5-8 12.2h-1.2c-4.8 0-9-4-9.8-9.7-.8-6 2.8-11.5 8-12.2h1.2m0-1.2a10.2 10.2 0 0 0-8.5 4.7 13 13 0 0 0-2 8.9c1 6.1 5.7 10.8 11.1 10.8l1.3-.1c5.9-.8 10-6.9 9.1-13.6-.8-6.1-5.6-10.7-11-10.7Z" class="cls-1"/><path fill="#ed9935" d="M66.6 11.4c-5.2.7-8.8 6.2-8 12.2a12 12 0 0 0 3.2 6.8s1.3-5.8 7-6.8c5.3-.9 7 3.6 7.4 5a12 12 0 0 0 1.4-7.5c-.8-6-5.7-10.4-11-9.7Z"/><path d="M76.6 17.5c.4 3-1.4 5.6-3.9 6-2.5.3-5-1.8-5.3-4.7-.4-3 1.4-5.6 3.9-6s5 1.8 5.3 4.7Z" class="cls-16"/><path d="M66 18.4c1-1.7.7-3.7-.7-4.5-1.4-.8-3.3 0-4.3 1.7-1 1.8-.6 3.8.8 4.6 1.4.8 3.3 0 4.3-1.8Z" class="cls-3"/><path fill="#c4964d" d="M77.4 12s-3.3-8.4-10.5-7.4-9.8 5.5-10.4 9.9c0 0 3.6-3.1 11.2-3.4s9.7 1 9.7 1Z"/><path fill="none" stroke="#5b2307" stroke-linecap="round" stroke-linejoin="round" stroke-width="1.2" d="M55.6 15.5s7-6.8 22-3"/><path fill="url(#linear-gradient)" d="M73.2 11c-1.3-.1-2.2-1.4-2.9-2.3l-.5-.6-.2-.2c-.6-.7-1.4-1.5-3-1.7h-.4l-2.6.3-2.6.3c-.6 0-1-.1-1.4-.3a2 2 0 0 1-1.2-1.7c-.1-.9.3-1.8.8-2.2C61 1.4 63.7 1.2 65 1.2a9 9 0 0 1 2.7.3l1.7.1H74c2 .2 4.3 2 5.6 3l.6.5c.9.7 1.6 1.2 1.6 2 0 .1 0 .4-.3.7-.3.3-.8.5-1.4.5-.8 0-1.7-.3-2.2-.6l-1-.1-1.8.1c0 .9 0 1.9-.5 2.6a1.7 1.7 0 0 1-1.4.7h-.1Z"/><path d="M65 1.8a8.8 8.8 0 0 1 2.5.2c.4.2 1.1.2 2 .2H74c1.9.2 4.4 2.2 5.5 3 1 1 2.2 1.6 1.6 2.2-.1.2-.5.3-.9.3-.6 0-1.5-.3-2-.6A3.1 3.1 0 0 0 77 7l-2.5.2c.4 1.3.2 3.2-1.1 3.2h-.1c-1.4-.1-2.3-2-3-2.7-.6-.8-1.5-1.9-3.5-2.1a4.4 4.4 0 0 0-.5 0c-1.6 0-3.8.5-5.2.5-.5 0-.9 0-1.2-.2-1.4-.6-.8-2.5-.3-2.8 1.5-1 3.8-1.3 5.6-1.3m0-1.2c-1.5 0-4.3.2-6.3 1.5-.7.5-1.1 1.6-1 2.7A2.6 2.6 0 0 0 59.2 7c.4.2 1 .3 1.6.3l2.8-.3a17.5 17.5 0 0 1 2.9-.2c1.4.1 2 .8 2.6 1.4l.2.3.4.6c.8 1 1.7 2.3 3.3 2.4h.2a2.3 2.3 0 0 0 1.9-1c.5-.6.6-1.5.6-2.3a14.8 14.8 0 0 1 2 0c.6.4 1.6.6 2.4.6a2.4 2.4 0 0 0 1.8-.6c.4-.4.5-.8.5-1.3 0-1-.9-1.6-1.9-2.3l-.4-.3L80 4c-1.3-1-3.8-3-5.9-3.1h-4.6A6.8 6.8 0 0 1 68 .9a10 10 0 0 0-3-.4Z" class="cls-9"/><path d="M64.5 2.7c2.6.4 4.4 1 6 .6 1.7-.3 10.8 3 10.2 4.3l.4-.2c.6-.6-.5-1.3-1.6-2.1-1-.9-3.6-3-5.5-3-1.9-.2-5.5.1-6.5-.3-1-.3-5.5-.6-8 1.1-.2.1-.4.5-.5 1a9 9 0 0 1 5.5-1.4Z" class="cls-3"/><path d="M91.7 89.7c-2.2 0-3.3-.8-3.8-1.3a67.6 67.6 0 0 1-11.3 1c-5 0-9.8-.6-14-1.7-10-2.8-12.5-5-13.9-6.3l-.8-.6a5.7 5.7 0 0 1-2-2.8l-.3-.6h-.1c-2.8-2-4.3-4.1-4.5-6.5l-.3-1.9c-.4-2.7-.9-5.5.3-6.8a2.1 2.1 0 0 1 1.7-.7h.5a.6.6 0 0 1 .5.6c.1.7.6 2.9 1.8 3.6 1.6.8 5.7 2.6 8 2.6h.7c1.7-.4 1.7-1 1.6-1.7-.2-1 0-3.6 1.8-4.3l1-.2c1 0 1.6.9 1.9 1.3l.1.2.5.1c.8.3 2 .7 3.2 1.7 1.4 1.3 4.7 3 6.5 3.5l1.5.3.4-.1v-1.3c0-2.1 0-2.8.4-3.1l.4-.4c.5-.5.8-.8 1.2-.8h.2c.2 0 .4 0 1.6 2a3.3 3.3 0 0 1 2.8-.5c2 .4 4.5 1 5.5 1a56.4 56.4 0 0 1 6.8-.6h.9l2.5.8V66c.9-1.7 1.8-3.4 3-3.8l1.5-.6c.2-1.3.3-3.4-.1-4.2-.7-1.4-1.6-3.3-.3-4.7a2 2 0 0 1 1.5-.7c1.6 0 3.1 1.6 3.5 2 1.3 1.4 2 2.2 1.8 3.2 0 .4 0 1.8.2 2.8h.7c1 0 2.7 0 4.7-.7-.2-.9-.3-2.4.8-3a5.8 5.8 0 0 1 2.6-.7l.6.1.3.2c-1-3.9-.4-4.3-.1-4.4.2-.2.5-.3.8-.3.6 0 1.3.3 2.2.9.8.6 2 2 1.9 3 0 1-1 3-1.7 4.4a7.3 7.3 0 0 0-.7 4.3c.1 1.1-1 2.4-2 3.3-.3.4-.7.8-.7 1-.1 0-7.7 15-15.8 19.1a18.6 18.6 0 0 1-8 2.4ZM60 66.8a.9.9 0 0 0-.6.3c-.2.2-.3.5-.3.9.3 1.7 1.3 4.6 2.7 4.6h.3c.6-.2 1.1-.8 1.2-1.6.2-1.2-.5-3-2.8-4a1.1 1.1 0 0 0-.5-.2Z" class="cls-15"/><path d="M116.5 52c.6 0 1.2.3 1.8.7.8.6 1.7 1.9 1.7 2.6 0 .7-.8 2.6-1.6 4a7.8 7.8 0 0 0-.8 4.7c.2 1.2-2.3 3.2-2.7 3.9-.3.7-7.7 15-15.5 18.9-3.5 1.7-6 2.3-7.7 2.3-2.2 0-3.2-.8-3.6-1.4 0 0-4.9 1-11.5 1a53.6 53.6 0 0 1-13.8-1.6c-12.3-3.3-13-5.8-14.6-6.8-1.6-1-1.8-3-2.2-3.3-.5-.3-4-2.6-4.4-6.1-.4-3.4-1.9-8.8 1-8.8h.5s.3 3.1 2.1 4c1.6 1 5.8 2.8 8.3 2.8h.8c2.3-.6 2.2-1.6 2-2.4 0-.8 0-3.1 1.6-3.7l.6-.1c1 0 1.4 1 1.6 1.3.3.3 2.2.4 3.8 1.8 1.5 1.4 5 3.1 6.7 3.6l1.7.3c.7 0 1-.2 1-.6.1-.8-.2-3.7.2-4 .3-.2 1-1 1.3-1 .2 0 1.6 2.4 1.6 2.4s.8-1 2.1-1h.7c1.6.4 4.5 1 5.7 1h.3a57.3 57.3 0 0 1 7.1-.5c.6.2 2.3.8 3 .8l.2-.1c.1-.3 1.4-3.4 2.7-3.8l1.9-.7s.5-3.7-.1-5c-.7-1.3-1.5-2.9-.5-4 .3-.4.7-.5 1.1-.5 1 0 2.2.8 3.1 1.8 1.3 1.4 1.8 2 1.7 2.7-.2.7.1 3.5.1 3.5h1.3a16 16 0 0 0 5.4-1s-.7-2.2.4-2.8a5.2 5.2 0 0 1 2.3-.6h.3l1.5 1s-1.2-4.9-.7-5.3l.5-.1M62 73.2a2 2 0 0 0 .4 0c2.3-.6 2.8-4.7-1.4-6.8a1.6 1.6 0 0 0-.8-.2c-.9 0-1.6.7-1.5 1.8.2 1.5 1.3 5.2 3.3 5.2m54.7-22.5c-.5 0-.9.1-1.2.3-.5.4-1 .7-.4 4h-.1c-.7 0-1.8.3-2.8.8-1.1.6-1.4 2-1.3 3.2a14.8 14.8 0 0 1-4 .5h-.2v-2c.2-1.4-.7-2.4-2-3.8-.5-.5-2.1-2.2-4-2.2-.7 0-1.4.3-2 .9-1.5 1.7-.4 4 .3 5.3.2.5.2 2.1 0 3.6l-1.1.4c-1.3.5-2.2 2-3 3.8a23 23 0 0 1-2.1-.6 3.3 3.3 0 0 0-1.1-.2c-1.8 0-5.9.4-6.6.6h-.1c-1 0-3.5-.5-5.4-1a3.8 3.8 0 0 0-2.8.4C75.7 63 75.4 63 75 63a2.1 2.1 0 0 0-.2 0c-.7 0-1.2.4-1.7 1l-.4.3c-.7.6-.7 1.5-.6 3.6v.7a6.3 6.3 0 0 1-1.1-.2c-1.8-.6-5-2.2-6.3-3.4a8.6 8.6 0 0 0-3.4-1.7L61 63c-.3-.5-1-1.6-2.4-1.6a3 3 0 0 0-1.2.2c-2.2.8-2.4 3.6-2.2 5 0 .5 0 .7-1.1 1h-.6c-2 0-5.8-1.5-7.7-2.6-1-.5-1.4-2.5-1.4-3.1 0-.6-.5-1-1-1a4 4 0 0 0-.7-.2 2.7 2.7 0 0 0-2.1 1c-1.4 1.5-1 4.4-.5 7.2l.3 2c.3 2.5 1.9 4.8 4.7 6.8l.2.4c.3.8 1 2.2 2.3 3l.7.6c1.5 1.4 4 3.6 14.2 6.4a69.1 69.1 0 0 0 25.2.8c.7.6 1.9 1.2 4 1.2 2.3 0 5-.8 8.2-2.4 8.3-4.2 16-19.3 16.1-19.4l.7-.8c1-1 2.3-2.4 2.1-3.8a6.7 6.7 0 0 1 .6-4c.8-1.3 1.8-3.5 1.8-4.5 0-1.3-1.3-3-2.2-3.7a4.4 4.4 0 0 0-2.5-1ZM61.9 72c-.8 0-1.8-2.3-2-4.1-.1-.2 0-.3 0-.4a.3.3 0 0 1 .2-.1h.2c2 1 2.6 2.5 2.5 3.5 0 .4-.3 1-.8 1a.6.6 0 0 1-.1.1Z" class="cls-9"/><path fill="url(#linear-gradient-2)" d="M116 52c-.5.5.7 5.3.7 5.3l-1.5-1c-.2 0-1.4 0-2.6.6s-.4 3-.4 3c-2.5.8-4.7 1-5.8.9s1 3.8-.4 6.3c-1.3 2.5-12.6 6-16.8 9-4.3 3.2-16.6 3.4-25.6 1.4s-13.3-4-15-9.7a33.4 33.4 0 0 1-3.4-1.6c-1.8-1-2-4-2-4-3.6-.7-2 5.1-1.6 8.7.4 3.5 4 5.8 4.4 6 .4.4.7 2.4 2.2 3.4 1.6 1 2.3 3.5 14.6 6.8s25.3.7 25.3.7c.7.9 3.5 3 11.3-1s15.2-18.2 15.5-18.9c.4-.7 2.9-2.6 2.7-4a7.9 7.9 0 0 1 .8-4.5c.8-1.5 1.6-3.4 1.6-4.1 0-.7-.9-2-1.7-2.6-.8-.6-1.7-1-2.3-.6Z"/><path d="M116.5 52.5c.4 0 .9.3 1.5.7.7.5 1.4 1.7 1.4 2 0 .5-.7 2.3-1.5 3.8a8.5 8.5 0 0 0-.9 5c0 .6-1 1.8-1.6 2.4-.5.5-.9.9-1 1.2 0 .2-7.5 14.7-15.3 18.6-3 1.5-5.4 2.3-7.4 2.3-2.2 0-3-1-3.1-1.1a.6.6 0 0 0-.5-.3H88s-5 1-11.4 1c-5 0-9.6-.5-13.6-1.6-9.9-2.7-12.1-4.7-13.5-6a7.5 7.5 0 0 0-1-.8c-.9-.5-1.3-1.5-1.6-2.2-.2-.5-.3-.8-.6-1l-.2-.1c-2.4-1.8-3.7-3.6-4-5.6l-.2-2c-.4-2.2-.8-5 0-5.8.1-.1.3-.3.7-.3.2 1 .7 3.1 2.3 4a24 24 0 0 0 8.6 2.8h1c2.6-.7 2.6-2 2.5-3-.1-.8 0-2.7 1-3.1l.5-.1c.5 0 .7.3 1 .8l.2.3 1 .5c.8.2 1.9.6 2.8 1.4 1.7 1.5 5.2 3.2 7 3.7.7.2 1.3.4 1.8.4 1.5 0 1.7-1 1.7-1.3v-3.5a10.8 10.8 0 0 1 .7-.7l1.2 2 .5.2a.6.6 0 0 0 .5-.2s.6-.8 1.6-.8a2 2 0 0 1 .6 0c1.4.4 4.4 1 5.7 1a56.1 56.1 0 0 1 6.8-.5h.5c.7.2 2.4.8 3.1.8.3 0 .6-.1.7-.4l.3-.4c.9-1.9 1.6-3 2.2-3.2l2-.7a.6.6 0 0 0 .3-.4c0-.4.5-4-.2-5.4-.7-1.4-1.2-2.6-.5-3.3a.8.8 0 0 1 .6-.3c.7 0 1.8.7 2.7 1.7 1.1 1.2 1.6 1.7 1.5 2.1-.2.8 0 3.2.1 3.7a.6.6 0 0 0 .5.5h1.4c1.3 0 3.3-.1 5.6-1a.6.6 0 0 0 .4-.7c-.2-.5-.4-1.8.1-2.1a4.6 4.6 0 0 1 2-.6h.1l1.4.9a.6.6 0 0 0 .7 0c.2-.2.3-.5.2-.7-.4-1.8-.9-4-.8-4.6M62 73.8h.5c1.2-.3 2-1.4 2.2-2.7.2-1.6-.6-3.9-3.4-5.3a2.4 2.4 0 0 0-1-.2 2.1 2.1 0 0 0-1.7.7c-.4.5-.5 1.1-.5 1.9.2 1.4 1.4 5.6 3.9 5.6M116.6 52a.9.9 0 0 0-.6.2c-.5.4.7 5.2.7 5.2l-1.5-1a.9.9 0 0 0-.3 0 5.2 5.2 0 0 0-2.3.6c-1.1.6-.4 3-.4 3a16 16 0 0 1-5.4.9l-1.3-.1s-.3-2.8-.1-3.5c.1-.7-.4-1.3-1.7-2.6-.9-1-2-1.9-3-1.9-.5 0-.8.2-1.1.5-1 1.1-.3 2.8.4 4 .6 1.4 0 5 0 5l-1.8.7c-1.3.5-2.6 3.5-2.7 3.8l-.3.1c-.6 0-2.3-.6-2.9-.7a2.8 2.8 0 0 0-.7-.1 54.8 54.8 0 0 0-6.7.6c-1.2 0-4-.6-5.7-1a2.8 2.8 0 0 0-.6-.1c-1.4 0-2.2 1-2.2 1s-1.4-2.3-1.6-2.4c-.3 0-1 .8-1.3 1.1-.4.3 0 3.1-.1 3.9 0 .5-.4.7-1 .7l-1.8-.3c-1.7-.6-5.1-2.2-6.7-3.6-1.6-1.4-3.5-1.6-3.7-1.9-.3-.3-.6-1.3-1.6-1.3a2 2 0 0 0-.7.2c-1.6.5-1.6 2.8-1.5 3.7 0 .8.2 1.7-2 2.3h-.9c-2.5 0-6.7-1.8-8.3-2.7-1.8-1-2-4-2-4a2.7 2.7 0 0 0-.5 0c-3 0-1.5 5.3-1.1 8.7.4 3.5 4 5.8 4.4 6.1.4.3.6 2.3 2.2 3.3s2.3 3.5 14.6 6.8a53.5 53.5 0 0 0 13.8 1.7c6.6 0 11.5-1 11.5-1 .4.5 1.4 1.3 3.6 1.3 1.7 0 4.2-.5 7.7-2.3 7.8-4 15.2-18.1 15.5-18.9.4-.7 2.9-2.6 2.7-3.9a7.9 7.9 0 0 1 .8-4.6c.8-1.5 1.6-3.4 1.6-4 0-.8-.9-2.1-1.7-2.7-.6-.4-1.2-.7-1.7-.7ZM61.9 73.2c-2 0-3-3.7-3.3-5.1-.1-1.2.6-2 1.5-2 .3 0 .5.2.8.3 4.2 2 3.7 6.2 1.4 6.8a2 2 0 0 1-.4 0Z" class="cls-15"/><path d="M107 60.8h-1.5s-.3-2.9-.1-3.6c.1-.7-.4-1.3-1.7-2.6-1.2-1.4-3.1-2.5-4.2-1.4-1 1.1-.2 2.8.5 4 .6 1.4 0 5 0 5l-1.8.7c-1.3.5-2.6 3.6-2.7 3.8-.2.3-2.5-.4-3.2-.6-.6-.3-6.3.3-7 .4a26 26 0 0 1-6-1c-1.9-.4-3 1-3 1s-1.3-2.3-1.5-2.4-1 .8-1.3 1.1c-.4.3 0 3.1-.1 3.9 0 .8-1 .9-2.8.4-1.7-.6-5.1-2.2-6.7-3.6-1.6-1.4-3.5-1.6-3.8-1.9-.2-.3-.7-1.7-2.2-1.1-1.6.5-1.6 2.8-1.5 3.7 0 .8.2 1.7-2 2.3-2.4.5-7.4-1.7-9.2-2.7-1.8-1-2-4-2-4-.4-.1-.6-.1-.8 0-.2 6.5 9.6 7.3 10.8 7.6 1.2.4 3.5-1.4 3.5-1.4s.5-3.7 1.6-4.2c1-.6 1.7 1.3 2.3 1.2a25 25 0 0 1 7 4C70 71 74.1 71 74.1 71l1-3.3c.4-1.4 3 .5 3.3.5.3 0 1.6-1 3-.2s5-.5 7.8-.5 6.6 1.1 6.6 1.1l2.1-3.2c1-1.5 3.1-1.6 3.1-1.6s.5-5.3 0-7c-.5-1.6-1-4 1.3-2.3 2.3 1.6 2 7 2 7l2.6-.7Z" class="cls-3"/><path fill="#b7eae8" stroke="#3c7bd6" stroke-linecap="round" stroke-linejoin="round" stroke-width="1.2" d="M103.6 46c-1.6.1-3.8-.1-4 .4 0 .6 4.2 4 5.3 4.8 1 .8 3.9-.2 3.6-2-.2-1.8-2.4-3.6-5-3.3Z"/><path d="M107 48.7c0 .4-.8.5-1.6.2-.8-.2-1.3-.8-1.2-1.2.2-.4 1-.5 1.7-.2.8.3 1.3.8 1.2 1.2Z" class="cls-3"/><path fill="#703c16" d="M84.9 32.5c.4.9.8 1.7 1.4 2.3a7.5 7.5 0 0 0 2.3 1.8c.3.1.7 0 .9-.3.1-.2 0-.6-.3-.8a8.5 8.5 0 0 1-1.2-.8h-.2l-.2-.3a5.7 5.7 0 0 1-.4-.4l-.2-.2c-.1-.1 0 0 0 0a16.4 16.4 0 0 1-1-1.9c-.2-.3-.7-.4-1-.2a.6.6 0 0 0-.1.8Zm4.3-.9c1 .8 2.2 1.6 3.4 2 .3.2.7 0 .8-.3 0-.4-.1-.7-.4-.8h-.3l-.1-.1-.5-.3a12.4 12.4 0 0 1-.9-.5l-1.4-1c-.3-.2-.7 0-.8.2-.2.3 0 .6.2.8Zm19.6 6a12.6 12.6 0 0 1 6 9.1c0 .3.4.5.6.4.4 0 .5-.4.5-.7a13.7 13.7 0 0 0-6.5-10c-.6-.3-1.2.7-.6 1.1Zm.4 6.4.8.7h.1v.1l.2.3.3.4v.1l.1.3.2.6s0 .1 0 0v1c0 .4.3.6.6.6s.5-.2.6-.6a4.9 4.9 0 0 0-2.3-4.6c-.3-.1-.7 0-.8.3a.6.6 0 0 0 .2.8ZM92.6 30.4l1.1.7h.5a.6.6 0 0 0 .3-.2.6.6 0 0 0 0-.5v-.1a.7.7 0 0 0-.2-.2l-1.1-.8a.4.4 0 0 0-.2 0 .5.5 0 0 0-.3 0 .6.6 0 0 0-.3.2.6.6 0 0 0-.1.5v.1l.3.3Zm-14 17.9c.2 3 3.1 4.4 5.7 5 .3 0 .6-.1.7-.5.1-.3 0-.6-.4-.7a9.2 9.2 0 0 1-3.2-1.3 3.8 3.8 0 0 1-.6-.5l-.3-.3-.2-.2a2.9 2.9 0 0 1-.5-1.5c0-.3-.3-.6-.6-.6s-.6.3-.6.6Z"/><path fill="#ceb891" stroke="#5b2307" stroke-linecap="round" stroke-linejoin="round" stroke-width="1.2" d="M1.2 36.8s24.3 2.2 46.1 1.4l5.7-5.1-45.6 2.5-6.2 1.2Z"/><path fill="#ceb891" d="M1.2 37.4a.6.6 0 0 1-.6-.5.6.6 0 0 1 .5-.7h.4a1090.6 1090.6 0 0 0 43.3-7.6h.1a.6.6 0 0 1 .5.3c1.2 2.2 4.3 2.6 6.8 3 1.6.2 2.8.4 3.5 1a.6.6 0 0 1 .2.7.6.6 0 0 1-.6.3 15.6 15.6 0 0 0-2.3-.1c-1 0-2.2 0-3.9.2-15.8 1.3-47.5 3.4-47.9 3.4Z"/><path d="M44.9 29.2c2 3.8 8.9 2.8 10.4 4.1l-2.3-.1c-1 0-2.2 0-4 .2a5591.6 5591.6 0 0 1-47.8 3.4h.4a1101 1101 0 0 0 43.3-7.6m0-1.2h-.2c-.2 0-19.4 3.9-43.3 7.6H1a1.2 1.2 0 0 0 .2 2.4A5389 5389 0 0 0 53 34.4l2.2.1h.1c.5 0 1-.3 1.1-.7.3-.5.1-1-.3-1.4-.8-.7-2.2-.9-3.9-1.1-2.3-.4-5.3-.8-6.2-2.6a1.2 1.2 0 0 0-1.1-.7Z" class="cls-1"/><path fill="url(#linear-gradient-3)" d="M6.6 52.7c-.5 0-.6-.4-1-5.4a73 73 0 0 0-.5-4l-.9-6V37h.2c.1-.1 3-1.3 4.4-1.3.7 0 1 .3 1 .5.1.8-.5 3.2-1.3 6l-.4 1.6c-.2.7-.3 2.4-.5 4-.5 4.4-.6 4.8-1 4.9Z"/><path d="M8.8 36c.4 0 .6 0 .7.3.2 1-1.3 5.8-1.7 7.4-.4 1.7-.8 8.6-1.2 8.7-.5 0-.8-6.6-1.2-9.2l-.9-6S7.5 36 9 36m0-.6c-1.4 0-4.3 1.1-4.6 1.3l-.4.1v.5l1 6 .3 4c.5 5 .6 5.7 1.4 5.7.7-.1.8-.6 1.3-5.2.2-1.6.3-3.3.5-4l.4-1.5c.8-3 1.4-5.3 1.3-6.1 0-.3-.3-.8-1.2-.8Z" class="cls-9"/><path d="M8.8 36.6c0 1-.8 4-1.2 5.4l-.4 1.6c-.2.7-.3 2.3-.5 4l-.1 1.2-.2-1.6-.4-4-.8-5.6c1-.4 2.8-1 3.6-1m0-.6c-1.3 0-4.3 1.2-4.3 1.2l.9 6c.4 2.6.7 9.2 1.1 9.2.5-.1.9-7 1.3-8.7.4-1.6 1.8-6.4 1.6-7.4 0-.2-.2-.3-.6-.3Z" class="cls-3"/><path fill="url(#linear-gradient-4)" d="M33.8 57.8c-.6 0-.9-1-1.2-6.7l-.2-1.7c0-.3-.2-.6-.4-.9-.2-.5-.5-1-.5-1.6l-.9-9.8v-.3h.2c1-.4 2.4-.5 3.5-.5h1.5v.4l-.3 7.4c0 1.1-.3 1.9-.5 2.5a3 3 0 0 0-.4 1.4s.5 9.6-.7 9.8Z"/><path d="M34.3 36.6h1.2l-.3 7.5c0 2-1 2.7-.9 3.9a33 33 0 0 1-.5 9.5c-.7 0-1-7.4-1-8.1-.2-.8-1-1.7-1-2.5.1-.7-.9-9.9-.9-9.9 1-.3 2.4-.4 3.4-.4m0-.6c-1.1 0-2.6 0-3.6.5l-.4.1v.5l1 9.8c-.2.6.2 1.2.5 1.7l.3.9.2 1.6c.4 6.2.7 7 1.5 7h.2c.5-.1 1-.5 1-5V48c-.1-.5 0-.8.2-1.3.3-.7.6-1.4.6-2.6l.3-7.4V36h-.5l-1.3-.1Z" class="cls-9"/><path d="M34.3 37.2h.6l-.3 6.8c0 1-.3 1.6-.5 2.2-.2.6-.4 1.1-.4 1.8.1 1 .2 4.4 0 6.7l-.3-3.7-.1-1.8c0-.4-.3-.8-.5-1.1-.2-.4-.4-.8-.4-1.1l-.8-9.6a12.1 12.1 0 0 1 2.7-.2m0-.6c-1 0-2.5 0-3.4.4 0 0 1 9.2.9 10 0 .7.8 1.6.9 2.4.1.7.4 8.1 1 8.1h.1c.7-.1.6-8.3.5-9.5-.1-1.2.8-1.9.9-4l.3-7.4h-1.2Z" class="cls-3"/><path d="M33.2 41.4c0 .8-.3 1.4-.7 1.4-.4 0-.8-.5-.8-1.2-.1-.8.2-1.4.6-1.4.4 0 .8.5.9 1.2Z" class="cls-3"/><path fill="url(#linear-gradient-5)" d="M20 58.3c-.7 0-1-1.1-1-4a53.5 53.5 0 0 0-.3-5.2c-.5-.5-.7-1.7-.7-3.7 0-1.7-.7-7.3-.7-7.4v-.3h.3c.1 0 4-.6 6.3-.6 1.4 0 1.7.2 1.9.4v.5c-.2.6-.5 3.6-.7 6.2-.6 5.8-.7 6-1 6-.6 0-.7-.8-.8-3v-.6c0-.6-.5-2.6-.8-4a39.9 39.9 0 0 0-.3 3.9c0 1.4-.7 4-.8 4.3l-.3 2.6c-.4 4.3-.6 4.8-1 4.9Z"/><path d="M23.9 37.4c1 0 1.8 0 1.6.5-.4 1.2-1.1 12-1.5 12-.4 0-.4-2.4-.4-3.3l-1.1-6s-.7 4.8-.6 6c0 1-.5 3.3-.8 4.2-.2.8-.6 7.1-1 7.2-.5 0-.7-1-.8-3.7 0-2.8-.3-5.4-.3-5.4-.5-.2-.6-1.8-.7-3.5 0-1.7-.7-7.4-.7-7.4s4-.6 6.3-.6m0-.6c-2.4 0-6.2.6-6.4.6H17v.7s.7 5.6.7 7.3c0 2 .2 3.3.7 3.8l.4 5.1c0 2.8.2 4.3 1.3 4.3h.1c.7-.1.8-.6 1.3-5.1 0-1 .2-2.3.3-2.5 0-.4.8-3 .7-4.5l.2-2 .3 2.1v.6c.1 2.2.2 3.2 1 3.2.7 0 .8-.6 1-2.2l.4-4c.2-2.4.5-5.6.7-6a.8.8 0 0 0 0-.9c-.3-.4-1-.5-2.2-.5Z" class="cls-9"/><path d="M23.9 38h1l-.7 6.1-.2 1.4-1-5-.5-2.5H24m-1.7 0-.3 2.6c0 .2-.7 4.8-.6 6 0 1-.5 3-.7 4l-.4 2.7-.2 2.4v-1.4a52 52 0 0 0-.4-5.5v-.3l-.3-.1c-.2-.2-.3-.8-.4-3 0-1.4-.5-5.4-.6-6.9l3.9-.5m1.7-.6c-2.4 0-6.3.6-6.3.6s.6 5.7.7 7.4c0 1.7.1 3.3.7 3.5 0 0 .3 2.6.3 5.4 0 2.7.3 3.7.7 3.7.5-.1.9-6.4 1.1-7.2.2-.9.8-3.1.8-4.3a71.8 71.8 0 0 1 .5-5.8s1 5 1.1 5.9c0 .9.1 3.2.5 3.2s1-10.7 1.5-12c.2-.3-.6-.4-1.7-.4Z" class="cls-3"/><path d="M20.2 43.1c0 1-.4 2-.9 2s-.8-1-.8-2 .4-1.9.9-1.9.8.9.8 2Zm35.1-9.8c-1-.2-3.3-.2-6.3 0-2-.2-4.2-.8-5.5-2.4 0 0-30.5 5.3-42 5.9A1101 1101 0 0 0 45 29.2c2 3.8 9.1 2.8 10.4 4.1Z" class="cls-3"/></g></svg>