<svg xmlns="http://www.w3.org/2000/svg" xmlns:xlink="http://www.w3.org/1999/xlink" id="Layer_2" data-name="Layer 2" viewBox="0 0 251.3 180.4"><defs><linearGradient id="linear-gradient" x1="120.3" x2="117.8" y1="-17.5" y2="46.7" gradientTransform="rotate(-6 382.7 97.1)" gradientUnits="userSpaceOnUse"><stop offset="0" stop-color="#0a6ad1" stop-opacity=".7"/><stop offset="1" stop-color="#005fdb" stop-opacity="0"/><stop offset="1" stop-color="#002e99" stop-opacity="0"/></linearGradient><linearGradient id="linear-gradient-2" x1="122" x2="133.6" y1="-34.9" y2="25" gradientTransform="rotate(-16 319.5 86)" gradientUnits="userSpaceOnUse"><stop offset=".2" stop-color="#634433"/><stop offset=".3" stop-color="#604231"/><stop offset=".5" stop-color="#2c1e16" stop-opacity=".4"/><stop offset=".7" stop-color="#0c0806" stop-opacity=".1"/><stop offset=".7" stop-opacity="0"/></linearGradient><linearGradient id="linear-gradient-3" x1="105.6" x2="105.6" y1="-53.9" y2="-35.7" gradientTransform="rotate(-15 303.2 44.7)" gradientUnits="userSpaceOnUse"><stop offset="0" stop-color="#dbffff"/><stop offset="1" stop-color="#339ed3"/></linearGradient><linearGradient xlink:href="#linear-gradient-3" id="linear-gradient-4" x1="129" x2="129" y1="167.9" y2="103.9" gradientTransform="rotate(-2 214.6 345.3)"/><clipPath id="clippath"><path d="M49.7 19c-4.4-2.1-8.7-2.3-11.6-.3-2.8 2 3.9 3.3 4.7 3.2-4.6 1-13 1.5-15 6-2.1 4.7 8.3 1 9.5 0-3.2 2.4-7.5 3.7-9.9 7.3-2.3 3.6 4 2.6 5.9 1.7-1.8 8-.9 15.8 2.3 23s7.2 13.2 10.8 20c-2 2.6-5.7 5.6-5.1 9.1.5 3.6 6.3-2 7.5-3-2.5 4-5.6 9.4-5.8 14-.2 4.6 2.4 2.4 4.3.8.8-2.7 2.4-4.1 3.2-7.3-.6 16.3-6.2 8.2-3.7 29 2.5 21 45.1 36.2 66.7 37.6 21.5 1.5 64.2-19 72.5-33.3 8.3-14.5 4.8-8.5 9.6-17.2 4.9-8.6-.1-9.4-.3-17.4 1-.2 2.8 4 3 .2s-1.7-10.7-4.2-14c-2.2-3.5 7.5 6.6 1.8-1.7-5.6-8.2-6.7-9.1-19.1-18.4-12.4-9.3-14-7.6-31.6-28.5C127.5 9 77-6.6 49.7 19Z" class="cls-16"/></clipPath><clipPath id="clippath-1"><path d="M83 45s26.2-12 35.3-26c0 0 13.8 26.3-3.2 36-17 9.8-29.3-3.8-32-10Z" class="cls-16"/></clipPath><style>.cls-1{fill:#5b2307}.cls-3{fill:#453a35}.cls-4{fill:#fff}.cls-10,.cls-11{stroke-linecap:round;stroke-linejoin:round}.cls-10,.cls-11,.cls-16{fill:none}.cls-19{fill:#c1cbd3}.cls-20{fill:#3c7bd6}.cls-21{fill:#808d96}.cls-10,.cls-11{stroke-width:1.0218px;stroke:#4c1a09}.cls-11{stroke-width:1.1478px}.cls-25{fill:#3a140d}.cls-26{fill:#b7eae8}.cls-27{fill:#4c1a09}.cls-32{fill:#703c16}.cls-33{fill:#755b46}</style></defs><g id="Layer_1-2" data-name="Layer 1"><path fill="#a36731" d="m115.7 161.4-2.3-.1C91 159.8 48.2 144 45.7 122.7c-1.5-12.2-.2-14.9 1.3-18 .5-1 1-2 1.4-3.5 0 .2-.2.4-.4.5-1.4 1.2-2.6 2.2-3.9 2.2a2 2 0 0 1-1.4-.6c-.7-.7-1-1.7-.8-3.4.1-3 1.4-6.3 3-9.4-.9.5-1.7.8-2.5.8-1.2 0-2-.8-2.3-2-.5-3.5 2-6.3 4.1-8.6l.8-.9c-1.2-2.3-2.6-4.6-3.9-6.8-2.2-4-4.6-8-6.6-12.6a38 38 0 0 1-2.7-21.8l-2.6.3c-1.6 0-2.7-.5-3.2-1.4-.4-.8-.3-1.8.5-3s1.9-2.2 3-3.1h-.1c-1.3 0-2.2-.4-2.7-1.1-.5-.8-.5-1.7 0-2.8 1.7-3.7 6.5-5 11-5.8-.7-.4-1.1-.9-1.3-1.5-.2-.5-.3-1.5 1-2.4 1.6-1 3.5-1.6 5.6-1.6 2 0 4.3.5 6.5 1.4A54.2 54.2 0 0 1 86.8 4.5C109 4.5 134 14.8 146 29c13.4 15.8 17.4 18.5 24 23 2 1.5 4.4 3 7.4 5.3 12.3 9.2 13.6 10.2 19.4 18.7 2 3 2.2 3.7 1.8 4.4-.2.5-.6.7-1.1.7l-.7-.1c1.7 3.6 2.8 8.3 2.6 11.4 0 .7-.2 2.7-1.7 2.7-.4 0-.8-.2-1-.4.2 1.5.6 2.6 1 3.7 1.1 3.1 2.1 5.8-1.2 11.7l-3 5.4-6.6 11.7c-8.4 14.7-49 34-71.3 34Z"/><path d="M86.8 5.6c23.1 0 47.3 11 58.4 24.2C163 50.7 164.4 49 176.8 58.3c12.4 9.3 13.5 10.2 19.1 18.4 1.8 2.6 2 3.4 1.7 3.4-.7 0-3.3-2.4-3.8-2.4l.3.7a26 26 0 0 1 4.3 14c-.1 1.2-.3 1.6-.6 1.6-.7 0-1.7-1.8-2.4-1.8 0 8 5 8.8.2 17.4-4.8 8.7-1.3 2.7-9.6 17.2-8 13.9-48.2 33.4-70.3 33.4h-2.2c-21.6-1.5-64.2-16.7-66.7-37.6-2.5-21 3.1-12.8 3.7-29-.8 3-2.4 4.5-3.2 7.2-1 1-2.3 2-3.2 2-.7 0-1.2-.8-1-2.8.1-4.6 3.2-10 5.7-14-.9.8-4.5 4.2-6.4 4.2-.6 0-1-.3-1.1-1.2-.6-3.5 3-6.5 5-9-3.5-6.9-7.6-12.7-10.7-20-3.2-7.3-4-15.1-2.3-23-.8.3-2.6.8-4 .8-1.8 0-3.2-.7-1.9-2.6 2.4-3.6 6.7-5 9.9-7.4-.9.7-5.3 2.4-8 2.4-1.4 0-2.3-.5-1.5-2.2 2-4.6 10.4-5.1 15-6-1.1 0-7.4-1.4-4.7-3.3 1.4-1 3-1.4 5-1.4s4.3.6 6.6 1.7a53 53 0 0 1 37-13.4m0-2.3c-14.9 0-27.8 4.5-37.4 13C47 15.4 45 15 43 15c-2.3 0-4.5.6-6.2 1.8-2 1.5-1.7 3.2-1.5 3.8l.1.3c-4 1-8 2.5-9.7 6.1-.9 1.9-.5 3.1 0 3.9.3.4.7.8 1.3 1.2l-1.5 1.8c-1.2 2-1 3.3-.5 4.2.5.9 1.6 2 4.2 2l1.2-.1c-.9 7 .1 14 3 20.9 2 4.6 4.5 8.7 6.8 12.7l3.4 6-.2.4c-2.3 2.4-5 5.4-4.4 9.4.3 1.9 1.6 3 3.4 3h.3c-1.1 2.5-1.9 5-2 7.5 0 1.2 0 3 1.1 4.2.6.6 1.4 1 2.3 1 .6 0 1.1-.2 1.6-.4-1.4 3-2.6 6.1-1.2 18.1 1.6 12.8 15.8 22.3 27.5 28a123 123 0 0 0 43.7 11.7c22.5 0 63.7-19.7 72.3-34.6l6.6-11.7 3-5.4c3.6-6.4 2.5-9.4 1.3-12.7l-.6-1.8c1-.2 2.2-1 2.4-3.8.1-2.9-.7-6.9-2-10.4.4-.2.8-.5 1-1 .8-1.5 0-2.9-1.9-5.7-5.9-8.6-7.2-9.6-19.6-19l-7.4-5.2A98.1 98.1 0 0 1 147 28.3c-12.3-14.4-37.6-25-60.2-25Z" class="cls-1"/><path fill="#8e5424" d="M186 126.8c8.3-14.5 4.8-8.5 9.6-17.2 4.9-8.6-.1-9.4-.3-17.4 1-.2 2.9 4 3 .2.2-3.9-1.6-10.7-4.3-14-.4-2.5 5.4 4.7 2.3-1.3-3-6-10.3-13-17.4-17-3.5-1.9-10.5-7-13.8-9-3.2-1.9.5.1-1-.3 8 6 13.2 20.3 14.2 28.3S176.6 91 171 90c-5.5-1-8.4-5-13.6-6.2 2.6 4.5 1.5 11.2-2 14.3-3.5 3-6 2.8-9 .8-2.4 6.2.9 7.1-8.3 9.7a168 168 0 0 1-39.1 2c-10-.5-20.9-5.1-25.1-10.7s-.7-5.3-4.7-9.3c-.6 3-7.1 10.6-9.7 7.3-2.6-3.3-.6-6.7-1.2-10.2-.8 1-5.9 4.8-6.5 2.5s1-4.7 1.3-7c-2.4-.8-4.7-1.9-7-2.9-2 2.3-5.5 5.4-4.9 8.7.7 3.7 6.3-2 7.6-3-2.5 4-5.6 9.4-5.8 14-.2 4.6 2.4 2.4 4.3.8.8-2.7 2.4-4.1 3.2-7.3-.6 16.3-6.2 8.2-3.7 29 2.5 21 45.1 36.2 66.7 37.6 21.5 1.5 64.2-19 72.5-33.3Z"/><path fill="#bd852d" d="M167.5 116.3c-19-2.4-56.5-10.8-56-34.9.5-24 21.5-14.2 19.4-42-2.1-27.8-47.3-28.4-65-18.9C48 30 52 35.3 49.1 46.6c-2.8 11.4-7.1 3.1-11.4 6.3-4.2 3.1-2.1-1.2-5-1.2.4 2.3 1.6 6.3 2.5 8.2a695 695 0 0 0 11.1 20c-2 2.6-5.7 5.6-5.1 9.1.5 3.6 6.3-2 7.5-3-2.5 4-5.6 9.4-5.8 14s2.4 2.4 4.3.8c.7-2.7 2.5-4 3-7.2 1.2 16.6-8.2 7.3-3.1 29 5 21.7 41.3 38.7 68.6 36.8 22.8-1.7 56.2-11.7 70.2-34.5-5-5.2-10.6-7.6-18.5-8.6Z"/><path fill="#91682c" d="m118.4 159.6 2.7-.1 1.4-.1 2.5-.2 1.4-.1 2.5-.4 1.2-.1 3.3-.6h.4l3.5-.9 1-.2 2.5-.7 1.1-.4a63.6 63.6 0 0 0 5.6-2l1-.4 2.6-1.1.4-.2 3-1.5.6-.3 2.2-1.2.9-.4a116.6 116.6 0 0 0 7.4-4.7l.4-.2 2.4-1.7.4-.3 1.8-1.4.7-.6a164.2 164.2 0 0 0 3.5-2.8l.7-.6 1.3-1.1.5-.5 1.7-1.6.5-.4 1-1 .7-.7.8-.8.6-.7.7-.6.6-.7.5-.6.6-.6.1-.2c.7-.6 1-1.3 1.8-1.9a34.8 34.8 0 0 0-19.8-8.8c-8.7-1.3-20.2-4-29.2-7.5-11.3 2.6-27.3 11.9-37.4 11.7-10.9-.2-20.7-5-25.4-10.6s-.6-5.3-4.8-9.3c-.6 3-7 10.6-9.7 7.3-2.6-3.3-1.7-16.6-2.3-20.1-.8 1-5.9 4.8-6.5 2.5-.6-2.4 1.1-4.7 1.2-7-2-.5-5-2-6.5-2.7-1-.5-.2-.2-.3-.2l-.3.2-.1.2-.3.3-.3.3-.2.2-.3.4-.2.1-.3.4-.2.2-.4.5-.1.2-.4.5H43l-1 1.5v.1l-.3.6-.1.2a10.3 10.3 0 0 0-.5 1.3v.3l-.2.4v1c2 2.9 6-1.8 8-3.1A32 32 0 0 0 43 100c-.2 4.6 2.4 2.4 4.3.8.8-2.7 2.4-4 3.2-7.2-.4 14.8-6.2 10.2-3.7 29 2.6 18.8 44.7 40 66.4 36.2.6-.1 3 1.5 4 .8.3-.3.9 0 1.2 0Z"/><path fill="url(#linear-gradient)" d="M49.7 19c-4.4-2.1-8.7-2.3-11.6-.3-2.8 2 3.9 3.3 4.7 3.2-4.6 1-13 1.5-15 6-2.1 4.7 8.3 1 9.5 0-3.2 2.4-7.5 3.7-9.9 7.3-2.3 3.6 4 2.6 5.9 1.7-1.8 8-.9 15.8 2.3 23s7.2 13.2 10.8 20c-2 2.6-5.7 5.6-5.1 9.1.5 3.6 6.3-2 7.5-3-2.5 4-5.6 9.4-5.8 14-.2 4.6 2.4 2.4 4.3.8.8-2.7 2.4-4.1 3.2-7.3-.6 16.3-6.2 8.2-3.7 29 2.5 21 45.1 36.2 66.7 37.6 21.5 1.5 64.2-19 72.5-33.3 8.3-14.5 4.8-8.5 9.6-17.2 4.9-8.6-.1-9.4-.3-17.4 1-.2 2.8 4 3 .2s-1.7-10.7-4.2-14c-2.2-3.5 7.5 6.6 1.8-1.7-5.6-8.2-6.7-9.1-19.1-18.4-12.4-9.3-14-7.6-31.6-28.5C127.5 9 77-6.6 49.7 19Z"/><g fill="none" clip-path="url(#clippath)"><path d="M5.7 39.6c1.4-.5 2.8-.2 4 .1 1.3.4 2.5 1 3.6 1.5 2.3 1.1 4.5 2.5 6.5 4a99.2 99.2 0 0 1 21.7 21 87 87 0 0 0-.2.2 112.5 112.5 0 0 0-22-20.6 49.7 49.7 0 0 0-9.8-5.2 5.8 5.8 0 0 0-3.4 0l-.4-1ZM13.4 35a8 8 0 0 1 4 .7 57.4 57.4 0 0 1 10.1 6A108 108 0 0 1 49.5 64a90 90 0 0 1-.2.2 119.5 119.5 0 0 0-22-21.9 56.6 56.6 0 0 0-10-5.8 7.2 7.2 0 0 0-3.6-.4l-.2-1ZM21 30.6c1.5 0 2.9.4 4.1 1a64.5 64.5 0 0 1 10.2 6.7A115.9 115.9 0 0 1 57.1 62a126 126 0 0 0-22.2-23.2 63.7 63.7 0 0 0-10.1-6.4 9 9 0 0 0-3.7-.8v-1ZM28.7 26c1.5.2 2.8.8 4 1.4 1.4.6 2.6 1.4 3.7 2.1A123 123 0 0 1 65 59.8a131.6 131.6 0 0 0-22.3-24.6 70.3 70.3 0 0 0-10.2-7c-1.2-.5-2.5-1-3.8-1.1v-1ZM36.3 21.6c1.5.3 2.8 1 4.1 1.6a75.4 75.4 0 0 1 10.4 7.9 130.5 130.5 0 0 1 22 26.5 137.5 137.5 0 0 0-29.2-31.3c-1.2-.8-2.4-1.6-3.6-2.2-1.3-.7-2.6-1.3-3.9-1.5l.2-1ZM43.9 17.1c1.5.4 2.9 1.2 4.2 2l3.7 2.5a139 139 0 0 1 29 33.8 144.6 144.6 0 0 0-29.6-33c-1.1-1-2.4-1.8-3.6-2.5a16 16 0 0 0-4-1.8l.3-1ZM51.5 12.6l2.2 1 2 1.2 1.9 1.4 1.8 1.4 3.5 3 1.7 1.6 1.6 1.7A149.8 149.8 0 0 1 88.7 53a106 106 0 0 1 8.1 16.6c-2.2-5.7-5-11.2-8.3-16.4a146 146 0 0 0-22.8-28.8l-1.6-1.6-1.7-1.5-3.5-3-1.9-1.4-1.8-1.3-2-1.1-2-1 .3-.9ZM59.1 8.1l2.2 1.2 2 1.3 2 1.5 1.8 1.5a158.4 158.4 0 0 1 29.6 37.2 108 108 0 0 1-.3.1 155.4 155.4 0 0 0-29.9-36.6l-1.8-1.5-2-1.4c-.6-.4-1.2-.9-2-1.3l-2-1 .4-1ZM66.7 3.7c3 1.5 5.5 3.7 8 5.8a166.7 166.7 0 0 1 29.8 39 110.2 110.2 0 0 1-10.8-16.3 166.1 166.1 0 0 0-19.5-22 42 42 0 0 0-8-5.6l.5-1ZM74.3-.8c6 3.6 10.6 8.6 15.2 13.6a171.6 171.6 0 0 1 23 33.5c3 6 5.8 12.2 7.8 18.7-2-6.5-4.9-12.6-8-18.6a171.8 171.8 0 0 0-23.4-33c-4.5-5-9.4-10-15-13.4l.4-.8ZM81.9-5.3A77 77 0 0 1 97.2 9a175.4 175.4 0 0 1 23.1 35 114.2 114.2 0 0 0-.2.1A177.4 177.4 0 0 0 96.6 9.5a76.4 76.4 0 0 0-15.2-14l.5-1ZM89.5-9.8c3 2 5.7 4.6 8.2 7.1l3.7 4 3.6 4a181 181 0 0 1 23.3 36.5c3 6.4 5.8 13.2 7.7 20.1-2-7-4.8-13.6-8-20a182.8 182.8 0 0 0-23.6-36l-3.6-4-3.7-4C94.6-4.6 92-7 89-9l.6-.8ZM97-14.3c1.6 1.2 3 2.3 4.4 3.6 1.4 1.2 2.7 2.6 4 4l3.8 4 3.5 4.4a189 189 0 0 1 23.5 37.8 118.4 118.4 0 0 1-.3 0 188 188 0 0 0-23.8-37.4L108.6-2c-1.3-1.4-2.5-2.8-3.8-4-1.3-1.4-2.6-2.7-4-3.9-1.4-1.3-2.8-2.4-4.3-3.5l.6-.8ZM104.7-18.8c1.5 1.3 3 2.4 4.3 3.8 1.5 1.3 2.8 2.7 4 4.1l3.9 4.3 3.6 4.5a196.2 196.2 0 0 1 23.6 39.3 120.3 120.3 0 0 0-.2.1 193 193 0 0 0-24-39L116.3-6c-1.3-1.5-2.5-3-3.9-4.3l-4-4-4.3-3.7.6-.8ZM112.2-23.3c6.2 5.1 11.3 11.2 16 17.5A202.5 202.5 0 0 1 152 34.9a122.2 122.2 0 0 0-.2.1 198 198 0 0 0-24.1-40.4c-4.8-6.2-10-12.2-16-17l.5-.9Z" class="cls-1"/></g><path fill="url(#linear-gradient-2)" d="M83.3 45.5s4.8 20 24.3 17.8c19.6-2.3 25.1-19.4 19.8-30.6S118 19.6 118 19.6s-6.3 12.6-34.7 26Z"/><path d="M97.2 59.2a18.7 18.7 0 0 0 8.2 1.3c.7 0 1.4 0 2-.2l1.1-.1 1-.2 2.1-.5 2-.6-1.8 1-2 .8a15.2 15.2 0 0 1-8.7.3c-1.4-.3-2.8-1-4-1.8ZM123.7 51.5a32.6 32.6 0 0 0 2.2-7.5c.2-1.3.2-2.6.2-3.9 0-1.3-.3-2.6-.6-4 .6 1.3 1.2 2.5 1.3 4 .2.6.2 1.3.2 2l-.1 2c-.4 2.7-1.5 5.4-3.2 7.4Z" class="cls-3"/><g fill="none" clip-path="url(#clippath-1)"><path d="M103.4 56.3c-9 0-17.2-6.8-20-16.7a23.6 23.6 0 0 1 1.3-16.5 18.2 18.2 0 0 1 16.1-10.6c9 0 17.2 6.9 20 16.7a23.6 23.6 0 0 1-1.3 16.5 18.2 18.2 0 0 1-16 10.6Z" class="cls-4"/><path d="M100.8 13.7c8.3 0 16.2 6.3 18.9 15.8 3 11.2-2.3 22.4-12 25.1a16 16 0 0 1-4.3.6c-8.3 0-16.2-6.4-18.9-15.9-3-11.1 2.3-22.4 12-25a16 16 0 0 1 4.3-.6m0-2.3c-1.7 0-3.3.2-5 .6-10.8 3-17 15.6-13.5 28 3 10.3 11.6 17.5 21.1 17.5a19.3 19.3 0 0 0 17.2-11.3c2.5-5.2 3-11.4 1.3-17.3-2.9-10.3-11.6-17.5-21.1-17.5Z" class="cls-1"/><path d="M87 22.8c-2.8 4.4-2.1 9.8 1.4 12 3.6 2.3 8.8.5 11.6-4 2.7-4.4 2.1-9.8-1.5-12-3.5-2.3-8.7-.5-11.5 4Z" class="cls-4"/></g><path fill="url(#linear-gradient-3)" d="M96.3 19c-2.4 0-4.3-2-5.7-3.5l-1.1-1.1-.4-.4a8 8 0 0 0-5.8-2.4h-.2c-1.6 0-3.7.6-5.7 1.2-2.3.7-4.4 1.3-6.1 1.3-.6 0-1 0-1.5-.2a3.9 3.9 0 0 1-2.7-3c-.3-1.6.1-3.5 1-4.2 4-3.5 10.9-4.4 14-4.4l2 .1h.6c1.2 0 3.4-.2 5.5-.6a61.6 61.6 0 0 1 6-.7c3.7 0 8.5 2.9 11 4.4l1.3.7c1.8 1 3.3 2 3.5 3.2.1.4.1 1-.4 1.6-.6.8-1.8 1.3-3.4 1.3-1.1 0-2.4-.3-3.4-.7h-.7c-1.3 0-3.4.4-4.6.7.4 1.7.5 3.7-.3 5a3.2 3.2 0 0 1-3 1.7Z"/><path d="M96.2 2.3c3.6 0 8.7 3.2 10.9 4.4 2.2 1.4 4.5 2.4 3.6 3.6-.4.6-1.4.8-2.5.8a9 9 0 0 1-3-.5l-1.1-.2c-2.2 0-6.2 1.2-6.2 1.2 1.2 2.5 1.1 6.1-1.4 6.3h-.2c-2.5 0-4.7-3.2-6-4.4-1.5-1.2-3.3-3-7-3H83c-3.4 0-8.6 2.5-11.7 2.5l-1.2-.2c-2.7-.9-2.1-4.5-1.2-5.3 3.5-3.1 10-4 13.2-4h1.7l.9.1c2.6 0 8.2-1.2 11.3-1.3h.2m0-2.3H96c-1.6 0-3.8.4-5.9.7-2 .3-4.2.6-5.3.6h-.4L82 1.1c-3.5 0-10.6 1-14.8 4.7-1.2 1-1.8 3.4-1.3 5.3a5 5 0 0 0 3.5 3.9 6 6 0 0 0 1.8.2c1.9 0 4-.6 6.4-1.3 2-.5 4-1.1 5.4-1.2h.2c2.5 0 3.8 1.1 5 2.2l.4.3 1 1c1.6 1.7 3.7 4 6.6 4h.3c1.5-.1 2.8-1 3.6-2.2.8-1.4 1-3.2.6-4.8a17.3 17.3 0 0 1 3.6-.5c1.1.5 2.6.7 3.8.7 2.5 0 3.8-1 4.4-1.7.5-.8.7-1.7.6-2.5-.4-1.8-2.1-2.8-4.1-4l-.8-.4-.4-.3C105.2 3 100.2 0 96.2 0Z" class="cls-20"/><path d="M78.2 5.5c5 .1 8.6.7 11.6-.3s20.9 3 20.2 5.6c.3-.1.6-.3.7-.5 1-1.2-1.4-2.2-3.6-3.6-2.2-1.3-7.5-4.5-11-4.4-3.7.1-10.5 1.7-12.3 1.3-2-.5-10.6 0-15 4-.3.2-.6 1-.6 1.7 1-.9 5.4-4 10-3.8Z" class="cls-4"/><path d="M138 170.2c-5.2 0-7.6-1.9-8.6-3-2.8.5-12.5 2.6-24 2.6-10 0-18.7-1.4-26.2-4.3-17.8-6.6-21.1-14-23-17.9-.4-1-.8-1.9-1.2-2.2-2.2-1.7-3-4-3.4-5.7l-.4-1-.2-.2c-4.8-4.1-7.3-8.5-7.4-13l-.1-3.7c-.3-5-.6-10.3 1.6-12.7.8-.8 1.8-1.2 3-1.2l1.5.2c.5.2.9.6.9 1.2 0 1.4.4 5.6 2.6 7a39.5 39.5 0 0 0 16 6.6c3.4-.5 3.4-1.4 3.3-2.9 0-1.8.6-6.8 4.3-7.9a5 5 0 0 1 1.4-.2c2.4 0 3.4 2 3.9 3v.2l1 .4c1.5.6 3.8 1.6 5.8 3.7 2.4 2.7 8.3 6.4 11.6 7.8a9 9 0 0 0 3.2.8h.6l.1-2.4c.2-4.1.4-5.3 1.3-5.9l.7-.6c1.1-.9 1.8-1.4 2.5-1.4h.4c.4.2.8.3 2.7 4.3a6.3 6.3 0 0 1 5.5-.7A55 55 0 0 0 128 124c1-.2 3.8-.2 4.6-.2 3.1 0 8.5.1 9.6.6 2.2 1 3.9 1.6 4.6 1.8l.1-.2c1.8-2.9 4-6 6.2-6.5l3-.9c.6-2.5 1.1-6.5.6-8-1-2.8-2.5-6.5.2-9 .7-.6 1.6-1 2.6-1 3.1 0 6 3.4 6.8 4.5 2.1 2.9 3.4 4.4 2.8 6.3-.2.7-.3 3.3-.3 5.4.8.1 2.2.3 4 .3 2.1 0 4.2-.3 6.3-.7-.1-1.7 0-4.6 2.3-5.6 1.9-.8 3.6-.8 4.2-.8 1.2 0 1.7.2 1.8.3l.5.4c-1-7.5.1-8.1.6-8.4.4-.2.9-.3 1.4-.3 1.2 0 2.6.6 4.2 2 1.4 1.3 3.4 4.3 3 6.2-.2 1.7-2.2 5.6-3.9 8a13.8 13.8 0 0 0-2.1 7.9c0 2.1-2.4 4.3-4.3 6-.7.6-1.5 1.3-1.6 1.6-.2.2-17.3 27-33.4 33.4-5.3 2-10 3.1-13.8 3.1Zm-57.6-49c-.4 0-.9.1-1.2.4-.3.4-.5 1-.5 1.7.1 2.7 1.5 9.2 4.4 9.2h.3c1.3-.2 2.4-1.3 2.7-3 .5-2.2-.5-5.5-4.6-8a2 2 0 0 0-1-.4Z" class="cls-26"/><path d="M159.5 101.8c2 0 4.3 1.9 5.9 4 2 2.8 3 4 2.6 5.3-.4 1.3-.3 6.6-.3 6.6s2 .5 5 .5a31 31 0 0 0 7.7-1s-.9-4.4 1.4-5.3c1.4-.6 2.8-.8 3.8-.8.6 0 1 0 1.2.2l2.7 2s-1.5-9.4-.4-10l.8-.2c1 0 2.3.8 3.4 1.8 1.4 1.2 3 3.9 2.7 5.2-.1 1.3-2 4.8-3.7 7.4-1.9 2.5-2.4 6.2-2.4 8.6s-5 5.6-5.7 7c-.8 1.3-17.4 26.9-32.8 33-5.8 2.2-10.2 3-13.4 3-5.3 0-7.5-2.1-8.2-3.3 0 0-10.8 2.8-24.5 2.8-8.1 0-17.3-1-25.7-4.1-22.7-8.5-21.1-17.8-24-20-2.7-2.2-2.9-6-3.6-6.6-.8-.7-7.1-5.7-7.2-12.4-.1-6.3-1.9-16.4 3.2-16.4.4 0 .9 0 1.3.2 0 0 0 5.8 3.2 8a40.5 40.5 0 0 0 16.8 6.7c4.4-.6 4.3-2.4 4.3-4s.5-6 3.4-6.8a4 4 0 0 1 1.1-.1c2.1 0 2.7 2.1 3 2.7.5.7 4.1 1.3 6.8 4.2 2.7 3 8.9 6.7 12.1 8 1.5.7 2.7 1 3.6 1 1 0 1.6-.4 1.7-1.2.2-1.4.2-6.9.9-7.3.6-.5 2-1.9 2.6-1.9.5.2 2.7 5 2.7 5s1.4-1.7 3.8-1.7l1.7.3a56.3 56.3 0 0 0 11.2 2.9l4.4-.1c3.7 0 8.3.1 9 .5 1.1.4 4.5 2 5.6 2l.3-.2c.4-.5 3.4-6 6-6.7l3.6-1s1.6-6.8.7-9.4c-1-2.5-2.2-5.8-.1-7.7.5-.5 1.1-.7 1.8-.7m-76.4 31.9h.5c4.4-.7 6.1-8.5-1.5-13.2-.5-.4-1.1-.5-1.7-.5-1.5 0-3 1.2-2.8 3.3 0 2.8 1.5 10.4 5.5 10.4m76.4-34.2v2.3-2.3c-1.3 0-2.4.4-3.3 1.3-3.3 3-1.6 7.5-.6 10.2.4 1 0 4-.4 6.7l-2.4.6c-2.5.7-4.6 3.5-6.5 6.6l-3.7-1.5c-.4-.2-1.5-.7-10-.7a59 59 0 0 0-4.7.1c-1.2 0-5.8-1.2-10.1-2.7a7.6 7.6 0 0 0-5.4.1c-1.7-3.4-2.1-3.5-3-3.8h-.6c-1.2 0-2 .7-3.2 1.6l-.7.6c-1.4.9-1.5 2.6-1.7 6.7v1.3c-.5 0-1.3-.3-2.3-.7-3.2-1.3-9-5-11.3-7.4-2-2.3-4.6-3.4-6.1-4l-.6-.3c-.5-1-1.8-3.4-4.8-3.4-.5 0-1.1 0-1.7.2-4.3 1.2-5.2 6.5-5.1 9v1s-.4.5-2.3.7h-.5c-3.6 0-10.9-3.7-14.7-6.3-1.8-1.2-2.2-5-2.2-6.1 0-1-.7-2-1.7-2.3l-1.9-.2a5 5 0 0 0-3.7 1.6c-2.6 2.7-2.3 8.2-2 13.5l.2 3.6c0 4.9 2.7 9.5 7.7 13.9l.3.7a12 12 0 0 0 3.8 6.2l1 1.8c1.8 4 5.2 11.7 23.5 18.5a76 76 0 0 0 26.5 4.3c11.1 0 20.3-1.8 23.7-2.5 1.4 1.3 4 3 9 3 4 0 8.7-1.1 14.2-3.2 16.5-6.5 33.8-33.7 34-34l1.3-1.2c2.2-2 4.8-4.3 4.7-7 0-2.1.5-5.2 2-7.2a27 27 0 0 0 4.1-8.4c.4-2.4-1.8-5.8-3.5-7.3-1.8-1.5-3.4-2.3-5-2.3a4 4 0 0 0-1.8.5c-1.7 1-1.8 3.1-1.4 7.4v.2h-1c-1.5 0-3.2.3-4.7.9-2.2 1-3 3.3-3 5.7a28.6 28.6 0 0 1-8 .3c0-1.8.2-3.6.3-4 .7-2.5-.8-4.5-3-7.4-.9-1.2-4-5-7.7-5Zm-76.4 31.9c-1.5 0-3.1-4.7-3.2-8.2 0-.3 0-.6.2-.8l.3-.1.5.1c3.6 2.3 4.5 5 4 7-.1.8-.7 1.8-1.7 2h-.1Z" class="cls-20"/><path fill="url(#linear-gradient-4)" d="M189 103.3c-1 .6.5 10 .5 10l-2.7-2c-.4-.3-2.7-.4-5 .6s-1.4 5.4-1.4 5.4c-4.9 1.2-9 1-11.1.7s1.2 7.5-1.8 12c-3 4.4-25 9-33.5 14.1-8.7 5.2-32 3.2-48.7-2.2-16.7-5.4-24.5-9.8-26.6-21-2.5-1.3-4.9-2.7-6.2-3.6-3.2-2.2-3.2-8-3.2-8-6.6-1.8-4.6 9.5-4.5 16.2 0 6.7 6.4 11.7 7.2 12.4.7.7.9 4.4 3.7 6.6 2.8 2.2 3.3 12.1 26 20.6 22.7 8.5 48.1.7 48.1.7 1.1 1.8 6.2 6.2 21.6.2s32-31.6 32.8-33c.8-1.3 5.8-4.5 5.7-6.9 0-2.4.5-6 2.4-8.6 1.8-2.6 3.6-6.1 3.7-7.4.2-1.3-1.3-4-2.7-5.2-1.4-1.3-3-2.2-4.2-1.6Z"/><path d="M159.5 103c1.3 0 3.3 1.3 5 3.5 1.8 2.5 2.6 3.6 2.4 4.3-.4 1.4-.4 6-.4 7 0 .5.4 1 .9 1a32.2 32.2 0 0 0 13.3-.5c.6 0 1-.7.9-1.3-.3-1-.4-3.6.6-4a9.2 9.2 0 0 1 4-.7 89.9 89.9 0 0 1 3.3 2 1.1 1.1 0 0 0 1.1-1.2c-.6-3.5-1-7.6-.7-8.9.6 0 1.6.6 2.7 1.5 1.3 1.2 2.4 3.5 2.3 4.2-.1 1-1.7 4.2-3.6 7a16 16 0 0 0-2.5 9.2c0 1.1-2.3 3.2-3.5 4.3-1 .8-1.7 1.5-2.1 2-.2.3-16.8 26.5-32.2 32.5-5.1 2-9.5 3-13 3-5.3 0-6.9-2.2-7.2-2.7a1.1 1.1 0 0 0-1.3-.5 92 92 0 0 1-24 3.2c-8.6 0-16.5-1.3-23.4-3.8-17.2-6.5-21.3-13.7-23.6-17.6-.7-1.3-1.3-2.3-2.1-3a8.7 8.7 0 0 1-2.7-4.5c-.3-.9-.5-1.5-1-2l-.2-.2c-4.3-3.7-6.5-7.5-6.6-11.3l-.1-3.8c-.3-4.2-.6-9.3 1-11 .3-.3.7-.5 1.2-.5h.2c.2 2 .8 6.1 3.7 8 2.6 1.9 11.5 7 16.6 7h1c5-.7 5.3-3.1 5.2-5.3 0-1.5.5-5 2.7-5.6h.7c1 0 1.3.6 1.8 1.6l.3.6c.4.5 1 .8 2 1.2 1.3.5 3.3 1.4 4.9 3a45 45 0 0 0 12.5 8.4c1.6.7 3 1 4 1 1.6 0 2.6-.8 2.8-2l.2-2.6c0-1.3.2-3.5.4-4.2l.8-.6.7-.6 2 4a1.1 1.1 0 0 0 1.8.2s1.2-1.2 3-1.2c.4 0 .9 0 1.3.2a62.5 62.5 0 0 0 11.7 3 60.8 60.8 0 0 1 12.9.3c2 .8 4.8 2 6 2 .6 0 1-.3 1.2-.6l.5-.8c2-3.4 3.7-5.2 4.8-5.5l3.7-1c.4-.1.7-.5.8-.9.2-.7 1.7-7.2.6-10-1-2.9-1.8-5.2-.3-6.5.3-.3.6-.4 1-.4m-76.4 31.9h.6c2.3-.4 4.1-2.2 4.6-4.7.7-3-.5-7.4-5.6-10.6-.7-.4-1.5-.7-2.3-.7a4 4 0 0 0-2.8 1.2c-.8.9-1.2 2-1.2 3.3.1 3 1.6 11.5 6.7 11.5m76.4-33c-.7 0-1.3.2-1.8.7-2.1 2-.9 5.2 0 7.7 1 2.6-.6 9.4-.6 9.4l-3.7 1c-2.5.6-5.5 6.2-5.9 6.7l-.3.1a25 25 0 0 1-5.5-2 52.9 52.9 0 0 0-13.8-.3c-2 0-7.7-1.8-10.9-2.9l-1.7-.3a5.4 5.4 0 0 0-3.8 1.7s-2.2-4.8-2.7-5c-.5 0-2 1.4-2.6 1.9-.7.4-.7 5.9-.9 7.3-.1.8-.7 1.2-1.7 1.2-.9 0-2-.3-3.6-1a43.6 43.6 0 0 1-12-8c-2.8-2.9-6.4-3.5-6.8-4.2-.4-.6-1-2.7-3.1-2.7a4 4 0 0 0-1 .1c-3 .9-3.6 5.2-3.5 6.8 0 1.6.1 3.4-4.3 4h-.8c-4.6 0-13-4.6-16-6.7-3.2-2.2-3.2-8-3.2-8a5 5 0 0 0-1.3-.2c-5 0-3.3 10.1-3.2 16.4 0 6.7 6.4 11.7 7.2 12.4.7.7.9 4.4 3.7 6.6 2.8 2.2 3.3 12.1 26 20.6 8 3 16.3 4 23.8 4 13.7 0 24.3-3.3 24.3-3.3.7 1.2 3 3.3 8.2 3.3 3.2 0 7.6-.8 13.4-3 15.4-6.1 32-31.7 32.8-33 .8-1.4 5.8-4.6 5.7-7 0-2.4.5-6 2.4-8.6 1.8-2.6 3.6-6.1 3.7-7.4.2-1.3-1.3-4-2.7-5.2-1.1-1-2.4-1.8-3.4-1.8-.3 0-.6 0-.8.2-1.1.6.4 10 .4 10l-2.7-2-1.2-.2c-1 0-2.4.2-3.8.8-2.3 1-1.4 5.4-1.4 5.4-2.9.7-5.5 1-7.6 1-3.2 0-5.1-.6-5.1-.6s0-5.3.3-6.6c.4-1.3-.5-2.5-2.6-5.3-1.6-2.1-4-4-5.9-4Zm-76.4 31.9c-4 0-5.4-7.6-5.5-10.4-.1-2.1 1.3-3.3 2.8-3.3.6 0 1.2.1 1.7.5 7.6 4.7 5.9 12.5 1.5 13.1H83Z" class="cls-26"/><path d="M170.3 118.1c-1.6-.1-2.6-.4-2.6-.4s0-5.3.3-6.6c.4-1.3-.5-2.5-2.6-5.3-2.2-2.8-5.6-5.3-7.7-3.3-2.1 2-.9 5.2 0 7.7 1 2.6-.6 9.4-.6 9.4l-3.7 1c-2.5.6-5.5 6.2-5.9 6.7-.4.5-4.6-1.3-5.8-1.8a82 82 0 0 0-13.5-.4c-1.6.2-7.8-1.7-11.2-2.9s-5.5 1.4-5.5 1.4-2.2-4.8-2.7-5c-.4 0-2 1.4-2.6 1.9-.7.4-.7 5.9-.9 7.3-.2 1.5-2 1.5-5.3.2a43.6 43.6 0 0 1-12-8c-2.8-2.9-6.4-3.5-6.8-4.2-.5-.7-1.2-3.4-4.2-2.6-3 .9-3.5 5.2-3.4 6.8 0 1.6.1 3.4-4.3 4-4.5.6-13.6-4.5-16.8-6.7-3.2-2.2-3.2-8-3.2-8-.5-.2-1-.2-1.5-.2-1.4 12.3 16.9 15.6 19.2 16.5 2.2.8 6.8-2 6.8-2s1.7-7 3.8-7.8c2-.8 3 2.8 4.2 2.7 1.3 0 8.4 4.9 12.6 8.7 4.1 3.9 12 4.4 12 4.4l2.4-6c1-2.6 5.6 1.5 6.1 1.4.6 0 3.2-1.4 5.8.2 2.6 1.6 9.6 0 15 .4a45 45 0 0 1 12.1 3.4s2.6-3 4.6-5.8c2-2.7 6.2-2.5 6.2-2.5s2-9.8 1.2-13c-.7-3.3-1.1-7.8 3-4.4 4 3.5 2.6 13.7 2.6 13.7l5-.9Z" class="cls-4"/><path fill="#b7eae8" stroke="#3c7bd6" stroke-linecap="round" stroke-linejoin="round" stroke-width="1.9" d="M169.7 84.4c-2.1-1.2-4.8-3.6-5.4-3-.7.6 1.4 9 2 10.8.7 2 5.1 3.4 6.5 1 1.4-2.6.4-6.8-3.1-8.8Z"/><path d="M171.5 91.1c-.6.4-1.6-.2-2.3-1.2-.8-1.1-1-2.3-.4-2.6.6-.4 1.6.2 2.3 1.2.7 1 .9 2.2.4 2.6Z" class="cls-4"/><path d="M134 60c.5 1.7 1.1 3.4 2 4.9 1 1.6 2.5 3 4 4 .5.4 1.3.1 1.6-.4.3-.6 0-1.2-.4-1.5a14 14 0 0 1-2.3-2.2l-.2-.2s-.2-.2 0 0a10.5 10.5 0 0 1-1.3-2l-.2-.5c0-.2 0 0 0 0a18.6 18.6 0 0 1-1-2.7c-.1-.6-.7-1-1.3-.8-.6.2-1 .8-.8 1.4ZM142.4 59.7c1.7 1.8 3.6 3.7 5.8 5 .5.2 1.3 0 1.6-.5.3-.5.1-1.2-.4-1.5a14 14 0 0 1-1.7-1.1c.2.1 0 0 0 0a19.2 19.2 0 0 1-1.3-1.2L144 58c-.4-.4-1.2-.4-1.6 0-.4.5-.4 1.2 0 1.7ZM177.4 77a24 24 0 0 1 8.1 19c0 1.5 2.3 1.5 2.3 0 .2-7.8-2.8-15.4-8.8-20.6-1.1-1-2.7.7-1.6 1.6ZM176 89.2a7 7 0 0 1 2 7.2c-.1.6.3 1.3.9 1.5.6.1 1.2-.2 1.4-.8 1-3.5 0-7-2.7-9.5-.5-.4-1.2-.4-1.6 0-.4.4-.5 1.2 0 1.6ZM149.2 58.4l1.8 1.8c.2.2.5.3.8.3.3 0 .6-.1.8-.3.2-.2.4-.5.4-.8 0-.3-.1-.6-.4-.8-.5-.7-1.2-1.2-1.8-1.8-.2-.2-.5-.4-.8-.4-.3 0-.6.2-.8.4-.2.2-.4.5-.4.8 0 .3.2.6.4.8ZM117.3 87.8c-.6 5.6 4.7 9.1 9.3 11 .5.2 1.2-.3 1.4-.8.2-.7-.3-1.2-.8-1.4-1.9-.8-4-2-5.5-3.4a6.4 6.4 0 0 1-2.1-5.4c0-.6-.6-1.1-1.2-1.1s-1 .5-1.1 1.1Z" class="cls-32"/><path fill="none" stroke="#5b2307" stroke-linecap="round" stroke-linejoin="round" stroke-width="1.7" d="M76.9 71.4s2.2 1.1 5 3.5"/><path fill="#a18f70" d="M23.5 131a.8.8 0 0 1-.8-1.2 220 220 0 0 1 53-58.4.8.8 0 0 1 .9.7A38.3 38.3 0 0 1 72 84c-13.3 8-47.6 46.3-47.9 46.7l-.6.3Z"/><path d="M75.7 72.2c.4 2.3-4.1 11.3-4.1 11.3-13.6 8-48.1 46.7-48.1 46.7 19.6-34 52.2-58 52.2-58m0-1.7c-.3 0-.7.1-1 .3-.3.3-33.1 24.7-52.7 58.6a1.7 1.7 0 0 0 2.7 2c.4-.4 34.5-38.6 47.7-46.5l.7-.7c1.4-2.8 4.7-9.7 4.3-12.2a1.7 1.7 0 0 0-1.7-1.5Z" class="cls-1"/><path fill="#d2001e" stroke="#5b2307" stroke-linecap="round" stroke-linejoin="round" stroke-width="1.7" d="M23.5 130.2s12.2-30 40.4-57l11.8-1s-35.7 33.2-52.2 58Z"/><path fill="#ceb891" d="M1.7 102.8a.8.8 0 0 1-.6-1.5c23.2-23.2 62.9-34.8 63.3-35a.9.9 0 0 1 .3 0c7.2 1.3 12 4.9 12.2 5a.8.8 0 0 1-.3 1.5 270.6 270.6 0 0 0-75 30Z"/><path d="M64.6 67.2c7 1.2 11.8 4.8 11.8 4.8-38.6 8-74.7 30-74.7 30C25 78.4 64.6 67.1 64.6 67.1m0-1.7H64C62.5 66 24 77.4.5 100.8a1.7 1.7 0 0 0 2 2.7c.4-.3 36.4-22 74.3-29.7a1.7 1.7 0 0 0 .6-3 31.3 31.3 0 0 0-12.8-5.2Z" class="cls-1"/><path d="m73 72.7 3-1c-1.3-.9-5.5-3.5-11.4-4.5 0 0-39.6 11.3-63 34.7C15.4 89.2 51.5 74 58.4 71.2c7-2.9 14.7 1.5 14.7 1.5Z" class="cls-4"/><path fill="none" stroke="#5b2307" stroke-linecap="round" stroke-linejoin="round" stroke-width="2.3" d="M78.5 46.7s28.2-9 41-29.5"/><path d="M139.6 179.3c-3.6 0-7-3-8.4-5-5.2-8.6-6.7-28.9-2.6-34 .8-.9 1.6-1.4 2.4-1.4 2.7 0 4 5.6 4.6 11.2 2-7 5.4-15.7 9.2-16.3h.3c.7 0 1.3.3 1.8.8 2.1 2.5 1 11-.7 21.8l-.2 1.2c1.9-2.8 4.3-5.6 6.4-5.6.7 0 1.4.3 2 1 3.3 3.9-5.3 18.2-9.2 23.3a7 7 0 0 1-5.6 3Z" class="cls-33"/><path d="M145.1 135c4.5 0-.8 23.5-1 28.2 0 0 5.1-10 8.3-10 .4 0 .8.1 1.1.5 2.4 2.8-4.3 15.6-9.2 21.9-1.4 1.8-3 2.5-4.7 2.5-3.1 0-6.2-2.7-7.5-4.5-4.8-8-6.4-27.9-2.6-32.5.6-.7 1-1 1.5-1 3.4 0 3.8 17 3.8 17s5.3-21.4 10.1-22.1h.2m0-2.3h-.5c-2.2.3-4.9 2-8.6 12.5-.8-4.1-2-7.4-5-7.4-1.2 0-2.3.6-3.2 1.8-4.8 5.9-2.7 26.9 2.3 35.2l.1.1c1.3 2 5 5.5 9.4 5.5a8 8 0 0 0 6.5-3.4c2.4-3 13.5-19.6 9.2-24.8a3.7 3.7 0 0 0-3-1.4c-1.5 0-3 1-4.5 2.6 1.7-11.2 2-17 0-19.5a3.4 3.4 0 0 0-2.7-1.2Z" class="cls-27"/><path d="M140.5 138.3s1.6 6.4 7.5 5.2M136.2 149.6s3.9 6 10.3 5.2M126.7 148s3.3 6 8.7-.2" class="cls-11"/><path fill="none" stroke="#4c1a09" stroke-linecap="round" stroke-linejoin="round" d="M146.9 156.8s1.2 6.2 6.6 5.3"/><path d="M127.3 161.3s4.2.8 6-1.4c0 0 4 10 10.4 4.1 0 0 2 6.3 6.3 5.5" class="cls-11"/><path d="M68.3 167c-2.6 0-5.3-1.2-6.8-2.5-6.3-6.3-12-23.5-9.6-28.8.7-1.5 1.6-1.8 2.2-1.8 2.2 0 4.3 4.3 6 8.7.2-6.4 1.2-14.8 4.3-16l.8-.2c3 0 4.2 6.2 5.4 19.3v1.1c1.2-3.2 2.8-6.3 4.9-6.3.5 0 1 .2 1.4.5 3.7 2.6-.5 16.9-2.8 22.1a6 6 0 0 1-5.8 4Z" class="cls-33"/><path d="M65.2 127.4c3.6 0 4.2 20.7 5 24.7 0 0 2.4-10.6 5.3-10.6l.8.3c2.7 2-.3 14.4-3.2 21-1 2.4-3 3.3-4.8 3.3-2.4 0-4.9-1.3-6.1-2.4-6-5.8-11.6-22.7-9.4-27.5.4-.9.9-1.2 1.3-1.2 2.9 0 6.8 13.8 6.8 13.8s-.2-19.6 3.9-21.3h.4m0-2.1c-.4 0-.8 0-1.2.2-1.8.8-3.8 2.9-4.7 12.7-1.7-3.8-3.3-5.4-5.2-5.4-.7 0-2.2.3-3.1 2.4-2.9 6.1 3.6 23.8 9.7 29.8l.2.1c1.6 1.5 4.6 3 7.4 3 3 0 5.4-1.7 6.7-4.7 1.4-3.1 7.4-19.8 2.5-23.4-.6-.4-1.3-.6-2-.6-1.7 0-3 1.3-4.2 3.3-1.2-12.2-2.5-17.4-6.1-17.4Z" class="cls-27"/><path d="M61.7 131.4s2.8 5.1 7.6 2.8M60.5 142s4.6 4.4 10 2.3M51.9 142.8s4.2 4.4 7.4-2.1" class="cls-10"/><path fill="none" stroke="#4c1a09" stroke-linecap="round" stroke-linejoin="round" stroke-width=".9" d="M71.3 146s2.3 5 6.8 3"/><path d="M55.4 154s3.7-.1 4.8-2.4c0 0 5.7 7.7 9.9 1.3 0 0 3 5 6.6 3.3" class="cls-10"/><path d="M228.9 162.9c-1.2 0-2.2-.4-3.2-1-1.6-1-2.4-3.4-2.5-7a56.3 56.3 0 0 1 5-22.1c.2 0 2.2-2.2 6-2.2 1 0 2 .2 3 .5 6.2 1.8 6 12.2 4.3 18.3-1.4 5.5-7 13.5-12.6 13.5Zm-1.1-5.2c5.7-1 8.5-8.4 8.5-13.5 0-2.4-.4-5.3-2.4-5.3-.5 0-1 .2-1.3.4l-4.8 18.4Z" class="cls-4"/><path d="M234.1 131.5c.9 0 1.8.1 2.9.4 5.2 1.6 5.4 10.8 3.7 17.3-1.4 5.5-6.9 12.8-11.8 12.8-1 0-1.9-.2-2.7-.8-5.5-3.7 1.4-26.9 2.7-27.8 0 0 1.8-2 5.2-2m-7.5 27.3c7.3-.2 10.5-9 10.5-14.5 0-5-1.7-6.1-3.2-6.1-1 0-2 .6-2 .6l-5.3 20m7.5-28.9c-4 0-6.3 2.3-6.4 2.4-2 2.2-5.4 15.4-5.3 22.7 0 4 1 6.4 2.8 7.7 1.1.7 2.4 1 3.7 1 6 0 12-8 13.5-14 1.6-6.4 1.8-17.3-5-19.3-1-.3-2.2-.5-3.3-.5Zm-.8 10h.6c.3 0 .5 0 .8.4.2.4.7 1.5.7 4 0 4.3-2 10.6-6.5 12.3l4.4-16.6Z" class="cls-25"/><path d="M207.5 174.3c-11.1 0-16.2-5.3-16.5-5.5l-.1-.2a86.7 86.7 0 0 1-9.3-32.6c0-4.5 13-6.8 25.6-6.8h.6c13 0 26 2.5 26 7a86.6 86.6 0 0 1-9.7 32.8c-.2.2-5.4 5.3-16.4 5.3h-.2Z" class="cls-4"/><path d="M207.2 130h.6c14 0 25.2 2.9 25.2 6.3 0 0-.7 15-9.5 32 0 0-5 5.2-15.8 5.2h-.2c-10.9 0-15.8-5.3-15.8-5.3a85 85 0 0 1-9.2-32.2c0-3.3 11-6 24.7-6m0-1.7c-9.8 0-26.4 1.6-26.4 7.7a85.9 85.9 0 0 0 9.6 33.4c.3.2 5.6 5.7 17.1 5.8h.2c11.4 0 16.7-5.4 17-5.7l.3-.3a85.9 85.9 0 0 0 9.7-33c0-6.1-17-7.8-27-7.9h-.5Z" class="cls-25"/><path fill="#dbdbdb" d="M208.9 172.6H207c-10.4 0-15.1-5-15.1-5-8.7-24.3-10.5-39.8-8.7-29.8.6.7 6.3 6.2 24.1 5.5 0 0-3.5 21.2.7 27.8l.9 1.5Z"/><path fill="#bdbdbd" d="M184.6 136c0 2.4 10.4 4.4 23.1 4.5 12.8 0 23.1-1.8 23.1-4.2 0-2.5-10.3-4.5-23-4.5-12.8-.1-23.1 1.8-23.2 4.2Z"/><path fill="#6e4d2d" d="M228.7 138a66.8 66.8 0 0 1-21 2.5c-9.3 0-17.3-1.1-21-2.6a66.9 66.9 0 0 1 21-2.5c9.3 0 17.3 1.2 21 2.7Z"/><path fill="#99734e" d="m212.3 137.7-6.4-.7s17.3.1 14.9 2.8l-6.5.5c.5-.2 3.8-2-2-2.6Z"/><path d="M216.1 127.3h-.2c-3.2-.6-6.1-3.6-7.1-4.5l-.2-.1c-1-1-1.5-2-2-3-.7-1.1-1.3-2.1-2.5-2.8-.6-.4-1.6-.6-2.7-.9-2-.4-4.2-1-5.3-2.7-.7-1.1-.9-2.2-.6-3.2.6-1.9 3-2.8 4.8-3.5l1.4-.6c2.4-1.3 2.8-2 2.8-2.3 0-.8-1.3-2-2.6-3-2.2-1.8-5-4.2-4.4-7.6 1.3-7.9 9.7-7.9 14.2-7.9h2.5c-.4 0-.8-.2-1.2-.4-2.2-.8-5-1.7-5.5-4.6-.2-1.5.1-2.9 1-4 2-2.3 6.5-3.5 13.7-3.5h2.1c1.5 0 3.1.3 5 .4 2 .3 4 .5 6 .5s3.6-.2 4.8-.7a4 4 0 0 0 2.4-3.3c0-1-.5-1.7-1.6-2.2a1 1 0 0 1 .4-2c4 0 7 2 7.9 5 .2 1 .2 1.9-.3 2.6-.9 1.6-3 2.1-5 2.7-1.6.4-3.5.9-4 1.7-.2.4-.4.9-.3 1.2.4.9 2.8 1.4 4.4 1.7 1.7.3 3.3.7 4 1.4 2.6 2.6 2.4 4.9 1.8 6.4-2 5.2-12.2 8.6-17.6 9.3.6 1.7 0 4.2-.9 5.8-1.9 3.3-5.7 4.6-9 5.8l-1.7.5-1 .4c-3 1-7.7 2.7-8.3 5.9-.5 2.5 3 9 5 9.4a1 1 0 0 1-.2 2.1Zm-11.6-36.5c-1.7.7-2.5 1.8-2.5 3.4 0 .5.6 1.4 1.5 2.3a7.2 7.2 0 0 1 1-5.7Z" class="cls-4"/><path d="M241.3 66.5c3.6 0 6.2 1.6 6.9 4.2 1.2 4.4-7.5 3.2-9.2 6.2-2.6 4.6 6.6 4 8.3 5.6 7.7 7.5-10.7 14-16.7 14l-.7-.1c2.2.6 1.6 4.2.5 6.3-2 3.5-6.6 4.5-10.1 5.8-3.4 1.3-9.3 3-10 7.1-.6 2.8 3 10.1 5.8 10.7-3-.6-6-3.8-6.7-4.4-2-2-2.3-4.4-4.8-6-1.9-1.1-6.2-1-7.6-3.1-2.3-3.8 2.9-4.7 5.2-6 9.7-4.8-4.8-7-3.7-13.5 1-6.4 7.5-7 13.2-7h5.3c-.8-2.9-7.7-2.2-8.4-6.3-1-5.7 8.6-6.2 13.6-6.2h2c3.2 0 7.4.8 11.2.8a15 15 0 0 0 5-.7c3-1 5-5.8 1-7.4m-34.1 34.3c-6.6-6.7.1-11.6.1-11.6-4.8.4-6.5 2.5-6.5 5s6.4 6.6 6.4 6.6m34-36.4a2.1 2.1 0 0 0-.8 4c1 .4 1 .9 1 1.1 0 1-.9 2.1-1.8 2.4a13 13 0 0 1-4.3.6c-2 0-4-.2-6-.4-1.9-.2-3.6-.4-5.1-.4h-2.1c-7.6 0-12.3 1.2-14.5 3.8a5.7 5.7 0 0 0-1.2 4.9c.3 1.8 1.4 3 2.6 3.8-4.7.2-11.4 1.4-12.7 8.7-.6 4 2.5 6.7 4.9 8.6l2.1 2c-.2.3-.7.8-2.2 1.5l-1.3.6c-2 .8-4.6 1.8-5.4 4.2-.4 1.3-.2 2.7.7 4 1.3 2.1 4 2.8 6 3.2.9.2 1.9.5 2.3.8 1 .6 1.5 1.4 2.1 2.5.6 1 1.2 2 2.3 3.1l.1.1a17.2 17.2 0 0 0 8.1 4.9 2.1 2.1 0 0 0 .4-4.2c-1.5-.4-4.5-6.3-4.2-8.2.5-2.6 4.8-4.1 7.7-5.1l1-.4 1.6-.6c3.4-1 7.6-2.5 9.6-6.2a10 10 0 0 0 1.3-5.5c5.8-1 15.2-4.5 17.3-9.7.6-1.5 1.1-4.4-2-7.5-1-1-2.7-1.3-4.6-1.7-1-.3-2.9-.6-3.5-1l.1-.3c.3-.5 2.3-1 3.3-1.3 2.3-.6 4.6-1.2 5.7-3.2.4-.6.8-1.8.4-3.4-1-3.5-4.4-5.7-8.9-5.7Z" class="cls-21"/><path d="M233.2 64.8c-1.4 0-2.8-.7-3.8-2-1.5-2-1.5-4.5.1-5.8a3 3 0 0 1 1.9-.6c1.3 0 2.7.8 3.7 2 .7 1 1 2 1.1 3 0 1.2-.4 2.2-1.2 2.8a3 3 0 0 1-1.8.6Z" class="cls-4"/><path d="M231.4 57.5c1 0 2 .6 2.8 1.6 1.2 1.6 1.3 3.5.2 4.3a2 2 0 0 1-1.2.4c-1 0-2.1-.6-3-1.6-1-1.6-1.1-3.5 0-4.3a2 2 0 0 1 1.2-.4m0-2.1a4 4 0 0 0-2.5.8c-2 1.6-2.2 4.8-.3 7.2a5.9 5.9 0 0 0 4.6 2.5 4 4 0 0 0 2.5-.8c1-.8 1.6-2.2 1.6-3.6 0-1.3-.6-2.6-1.4-3.6a5.9 5.9 0 0 0-4.5-2.5Z" class="cls-21"/><path d="M204.2 101.3h.2c3.1 3 8.4 1.6 12.2 1.7-6.4 4.9 2.1 4 6.2 4.7l-2.5.8c-3.4 1.3-9.3 3-10 7.1-.6 2.8 3 10.1 5.8 10.7-3-.6-6-3.8-6.7-4.4-2-2-2.3-4.4-4.8-6-1.9-1.1-6.2-1-7.6-3.1-2.3-3.8 2.9-4.7 5.2-6 4.3-2 3.8-3.7 2-5.5ZM230.7 96.9c-.8-.2-.9-.5-1.7-.9-3.3-1.5-8.8-.5-11.4-3.6.7-.7 5.6-2 5.6-3.2 0-1.3-5.5-2.2-6.5-2.4l-2.2-.5h2.5c-.8-2.9-7.7-2.2-8.4-6.3-.3-1.3 0-2.3.8-3.2l1.4-1c.1-.2.3-.2.4-.3 0 2.2.4 3.6 3 5.1 4.8 3 10.5 4 16 5 4.8.7 11.5 2 16.2.3l2.4-1.3c3 6.9-14.2 12.3-18.9 11.8.3 0 .6.3.8.5Z" class="cls-19"/><path d="M205.2 108.4c0 1 1.9 1.8 4.2 1.9 2.3 0 4.2-.8 4.2-1.8s-1.9-1.8-4.2-1.9c-2.3 0-4.2.8-4.2 1.8Z" class="cls-4"/></g></svg>