<svg xmlns="http://www.w3.org/2000/svg" viewBox="0 0 4453 2860"><defs><clipPath id="p"><use class="d" href="#reuse-0"/></clipPath><clipPath id="r"><use class="e" href="#reuse-1"/></clipPath><clipPath id="t"><use class="k" href="#reuse-2"/></clipPath><clipPath id="y"><use class="m" href="#reuse-3"/></clipPath><clipPath id="aa"><use class="n" href="#reuse-4"/></clipPath><clipPath id="ac"><use class="o" href="#reuse-5"/></clipPath><clipPath id="ae"><use class="p" href="#reuse-6"/></clipPath><clipPath id="ag"><use class="q" href="#reuse-7"/></clipPath><clipPath id="ai"><use class="r" href="#reuse-8"/></clipPath><clipPath id="ak"><path fill="url(#n)" stroke="#000" stroke-miterlimit="10" stroke-width="4" d="m2729 998 43-18c59-27 136-75 158-79 0 0 14-6 33 0s413 94 413 94l261 60 182 45 224 62 66 21s148 45 283 103l45 22-83-18-329-83s-150-40-418-81-299-39-299-39l-257-19-94-2c-29 0-76-17-76-17z"/></clipPath><clipPath id="an"><use class="f" href="#reuse-9"/></clipPath><clipPath id="ao"><ellipse cx="785.5" cy="1373" class="g" rx="38.9" ry="21" transform="rotate(-80 785 1373)"/></clipPath><clipPath id="ap"><ellipse cx="572.8" cy="1687" class="g" rx="27.4" ry="19.7" transform="rotate(-80 573 1687)"/></clipPath><clipPath id="aq"><ellipse cx="1493.4" cy="1530.4" class="g" rx="18.2" ry="17.5" transform="rotate(-46 1493 1530)"/></clipPath><clipPath id="ar"><ellipse cx="832.5" cy="1433.5" class="g" rx="21" ry="13" transform="rotate(-83 833 1434)"/></clipPath><clipPath id="as"><ellipse cx="271.3" cy="1474.8" class="h" rx="11.7" ry="7.4" transform="rotate(-83 272 1475)"/></clipPath><clipPath id="at"><ellipse cx="1254.5" cy="1017.5" class="i" rx="17" ry="22"/></clipPath><clipPath id="ay"><use class="j" href="#reuse-10"/></clipPath><clipPath id="az"><use class="j" href="#reuse-11"/></clipPath><clipPath id="ba"><use class="g" href="#reuse-12"/></clipPath><clipPath id="bb"><use class="l" href="#reuse-13"/></clipPath><clipPath id="bc"><use class="l" href="#reuse-14"/></clipPath><radialGradient id="a" cx="2656.8" cy="839.9" r="308.4" gradientTransform="matrix(1.08 .32 -.3 1.16 -107 -953)" gradientUnits="userSpaceOnUse"><stop offset="0" stop-color="#fff"/><stop offset=".5" stop-color="#858585"/><stop offset="1"/></radialGradient><radialGradient id="b" cx="2182.4" cy="1272.3" r="308.4" gradientTransform="matrix(.52 -.68 1.02 .35 -392 2467)" gradientUnits="userSpaceOnUse"><stop offset="0" stop-color="#fff"/><stop offset=".1" stop-color="#ececec"/><stop offset=".3" stop-color="#a5a5a5"/><stop offset=".5" stop-color="#6a6a6a"/><stop offset=".6" stop-color="#3c3c3c"/><stop offset=".8" stop-color="#1b1b1b"/><stop offset=".9" stop-color="#070707"/><stop offset="1"/></radialGradient><radialGradient id="c" cx="2235.9" cy="2006.9" r="308.4" gradientTransform="matrix(.64 .41 -.27 .98 1883 -2183)" gradientUnits="userSpaceOnUse"><stop offset=".2" stop-color="#fff"/><stop offset=".2" stop-color="#ebebeb"/><stop offset=".4" stop-color="#a5a5a5"/><stop offset=".5" stop-color="#6a6a6a"/><stop offset=".7" stop-color="#3c3c3c"/><stop offset=".8" stop-color="#1b1b1b"/><stop offset=".9" stop-color="#070707"/><stop offset="1"/></radialGradient><radialGradient id="f" cx="1531.6" cy="1724.7" r="2018.5" gradientTransform="matrix(1 -.07 .03 .47 -53 1023)" gradientUnits="userSpaceOnUse"><stop offset="0" stop-color="#bdd7e6"/><stop offset=".1" stop-color="#b4cedd"/><stop offset=".2" stop-color="#9db6c5"/><stop offset=".4" stop-color="#768e9e"/><stop offset=".5" stop-color="#647b8b"/><stop offset=".7" stop-color="#667d8d"/><stop offset=".8" stop-color="#6c8494"/><stop offset=".9" stop-color="#7790a0"/><stop offset=".9" stop-color="#86a1b2"/><stop offset="1" stop-color="#9ab7c8"/><stop offset="1" stop-color="#adccde"/></radialGradient><radialGradient id="g" cx="1905.7" cy="963.7" r="1428" gradientTransform="rotate(-16 3109 789)scale(1 .64)" gradientUnits="userSpaceOnUse"><stop offset="0" stop-color="#5c3c29"/><stop offset=".3" stop-color="#593a28"/><stop offset=".6" stop-color="#4e3223"/><stop offset=".8" stop-color="#3d251b"/><stop offset="1" stop-color="#2d1a14"/></radialGradient><radialGradient id="h" cx="3405.9" cy="1119.7" r="526.6" gradientTransform="rotate(88 2977 705)scale(1 .26)" gradientUnits="userSpaceOnUse"><stop offset="0" stop-color="#9bcfdb"/><stop offset=".1" stop-color="#92bace"/><stop offset=".4" stop-color="#869ebc"/><stop offset=".5" stop-color="#8294b6"/><stop offset=".5" stop-color="#7c90b1"/><stop offset=".6" stop-color="#6884a2"/><stop offset=".7" stop-color="#5a7b98"/><stop offset=".8" stop-color="#517692"/><stop offset="1" stop-color="#4f7490"/></radialGradient><radialGradient id="i" cx="3490.3" cy="1150.2" r="269.1" gradientTransform="rotate(101 3237 843)scale(1 .47)" gradientUnits="userSpaceOnUse"><stop offset="0" stop-color="#9bcfdb"/><stop offset=".2" stop-color="#80a7bd"/><stop offset=".4" stop-color="#6b86a5"/><stop offset=".5" stop-color="#637a9c"/><stop offset=".6" stop-color="#5a7797"/><stop offset=".8" stop-color="#527592"/><stop offset="1" stop-color="#4f7490"/></radialGradient><radialGradient id="j" cx="4015.8" cy="1229.9" r="325.4" gradientTransform="rotate(93 3522 706)scale(1 .15)" gradientUnits="userSpaceOnUse"><stop offset="0" stop-color="#4f7490"/><stop offset=".2" stop-color="#517692"/><stop offset=".3" stop-color="#5a7b98"/><stop offset=".4" stop-color="#6884a2"/><stop offset=".5" stop-color="#7c90b1"/><stop offset=".5" stop-color="#8294b6"/><stop offset=".6" stop-color="#869ebc"/><stop offset=".9" stop-color="#92bace"/><stop offset="1" stop-color="#9bcfdb"/></radialGradient><radialGradient id="k" cx="4087.9" cy="1248.4" r="442.3" fx="4097.5" fy="1147.5" gradientTransform="matrix(0 1 -.24 0 4393 -2841)" gradientUnits="userSpaceOnUse"><stop offset="0" stop-color="#a6d4df"/><stop offset="0" stop-color="#a0ccda"/><stop offset=".3" stop-color="#7592b0"/><stop offset=".4" stop-color="#596d96"/><stop offset=".5" stop-color="#4f5f8c"/><stop offset=".5" stop-color="#4f608c"/><stop offset=".6" stop-color="#4f6b8e"/><stop offset=".7" stop-color="#4f7290"/><stop offset="1" stop-color="#4f7490"/></radialGradient><radialGradient id="l" cx="3705.5" cy="1179.6" r="442.4" fx="3696.2" gradientTransform="matrix(0 1 -.5 0 4295 -2526)" gradientUnits="userSpaceOnUse"><stop offset="0" stop-color="#97c8d7"/><stop offset=".1" stop-color="#76a2b7"/><stop offset=".2" stop-color="#59819b"/><stop offset=".3" stop-color="#4e7490"/><stop offset=".4" stop-color="#5b7f9f"/><stop offset=".5" stop-color="#6a8db0"/><stop offset=".6" stop-color="#7394bb"/><stop offset=".8" stop-color="#7697be"/></radialGradient><radialGradient id="m" cx="4314.7" cy="1330.2" r="219.1" gradientTransform="matrix(0 1 -.1 0 4448 -2984)" gradientUnits="userSpaceOnUse"><stop offset="0" stop-color="#5c7297"/><stop offset=".8" stop-color="#7a9ac0"/><stop offset="1" stop-color="#9bcfdb"/></radialGradient><radialGradient id="au" cx="1418.1" cy="267.7" r="370" fx="1613.6" fy="113.6" gradientUnits="userSpaceOnUse"><stop offset="0" stop-color="#dfebf2"/><stop offset=".3" stop-color="#bed7e5"/><stop offset=".6" stop-color="#adccde"/></radialGradient><radialGradient id="av" cx="1359.8" cy="814.3" r="152.4" fx="1381.5" fy="785.4" gradientTransform="matrix(1 0 0 .55 0 369)" gradientUnits="userSpaceOnUse"><stop offset=".4" stop-color="#dfebf2"/><stop offset=".6" stop-color="#d2e3ed"/><stop offset="1" stop-color="#afcddf"/><stop offset="1" stop-color="#adccde"/></radialGradient><radialGradient id="aw" cx="2699.1" cy="436" r="156.5" gradientTransform="rotate(14 1594 301)scale(1 .37)" gradientUnits="userSpaceOnUse"><stop offset="0" stop-color="#dfebf2"/><stop offset=".3" stop-color="#d5e5ee"/><stop offset=".8" stop-color="#bad4e3"/><stop offset="1" stop-color="#adccde"/></radialGradient><radialGradient id="ax" cx="285.1" cy="1171.5" r="149" fx="297.5" fy="1067" gradientUnits="userSpaceOnUse"><stop offset="0" stop-color="#dfebf2"/><stop offset=".2" stop-color="#d0e1ec"/><stop offset=".4" stop-color="#bcd5e4"/><stop offset=".7" stop-color="#b1cee0"/><stop offset="1" stop-color="#adccde"/></radialGradient><path id="reuse-0" d="M2172 2224c-13 12-26 14-38 17l-240 52-14 4v4h18l404-9q52-1 104 1l37 5a52 52 0 0 1-31 15q-49 10-99 15l-375 44-70 8c3 11 11 10 16 12l211 69q78 26 161 57c-18 7-32 3-47 0q-164-31-323-78l-297-88q-19-5-36-13-12-6-20-18c-12-19-1-36 22-37l107-9 310-35 185-16z"/><path id="reuse-1" d="M1314 2488q43 5 85 12 153 26 305 55 133 25 266 54 43 9 84 26l-13 2q-199-17-399-43-128-15-257-25l-79-7q8 12 17 13l260 133 70 38 12 7q8 6 6 11-4 7-11 7l-25-5-298-104q-152-55-305-113l-20-8c-22-8-33-24-41-44q-10-26 18-29l131-11 216-15 185-3q11 0 21 5c-75 23-152 26-228 37z"/><path id="reuse-2" d="m498 1954-369-263s6-41 8-68c0-6 66-205 66-205l35-232 119-237 115-102 98-86 15-15-2-3-12 7-82 64-56 41a19 19 0 0 1-14 4l134-154-3-3-59 30 3-14 14-14q13-11 28-19c40-17 104-72 104-72l588-447 662-18s84 38 91 43c19 12 62 53 81 54a100 100 0 0 1 56 26c18 17 49 67 84 65 135 8 202 54 202 54l353 39s336 168 337 172q11 35 17 72 8 38 35 63 12 11 9 27l-18 2-1 11c45 145 39 391-254 511l3-13c-66 29-144 90-211 96-3-11 8-13 11-22-60 26-227-5-309 357q-13 69-59 122l-48 59z"/><path id="reuse-3" d="M3462 1105c-7 26-51 175-55 202s-6 56-9 85l-7 121q0 69-9 137-2 11-6 20-15-1-17-14l-8-55-7-125-1-56-4-85-5-17c-16-32-20-67-23-102q-2-28-11-57c-9-23-9-47-13-73 79 6 159 15 175 19"/><path id="reuse-4" d="M3455 1473q-5-8-7-17l-10-71 2-50-8-108c-2 0-12-115-9-128 23 3 29 3 97 14-1 20-9 41-12 60-6 39-19 76-22 116q-7 84-19 168l-7 16z"/><path id="reuse-5" d="M4033 1258q-10 46-7 85a353 353 0 0 1-10 91l-2 26-6 33c-2 5-7 12-11 13-8 1-11-7-12-13l-6-34v-62l-7-147v-40l4-15 78 20z"/><path id="reuse-6" d="m4025 1208 101 23c17 4 17 6 12 22q-7 18-12 38-6 23-8 47l-4 107-4 106-3 27-9 69a52 52 0 0 1-7 21q-11 14-20-2l-4-11-3-36-5-71-4-104v-96c-1-30-12-58-22-90z"/><path id="reuse-7" d="m3741 1152-13 77-6 44q-4 71-3 141c0 38-7 75-10 113l-3 52-8 65q-2 18-20 25-15-8-14-23c-1-56-17-111-14-167q0-27-7-55-5-35-2-72c3-37 0-47-1-71l-3-40-7-109c39 7 75 9 111 20"/><path id="reuse-8" d="M4301 1530q-4-7-5-16-5-61-8-123c-1-33 3-121 3-121l48 14-4 35-13 155-7 43q-2 7-8 14-3 5-6-1"/><path id="reuse-9" d="M145 1590s5-24 9-4c0 0-32 98-5 93 0 0 30-26 55 10 0 1 24 84 59 6 0 0 34-46 82-8 0 0 14 6 5-46s44-65 44-65-29-21-4-61c0 0 9-11 20 8 0 0 7-43 53-41 0 0 30 3 18 49 0 0-32 53-10 80 0 0 46 22 33 76s-6 92 34 83 78 47 70 62c0 0 22 6 38-34s71-22 68 7c0 0 37 11 50-28 0 0-3-40 25-44s29 31 24 50 35 21 35 21 10 2 4 19 4 92 27 86c0 0 18 8 32-8l10-45-11-12s-23 22-32-5c-13-38 33-115 68-69 0 0 15-26 46-18 0 0-5-97 54-81 0 0-8-149 44-161s22 107 22 107 34 31 26 77-19 40-40 34c0 0-13 42 18 70 0 0 3 8 17 4 0 0 17-28 63-8 0 0 38-6 45 11 0 0 28 12 53-47 0 0 27-63 70-59s40 81 29 115c0 0 14 17 38 4s42 3 42 3 37-9 43-23 40-31 61-21 45 41 87 54c50 15 58-46 68-49 0 0 17-7 24-5 0 0 16-107 44-117s29 65 29 65 47-83 28-158c0 0-34-3-16-55 0 0 29-45 40 0 0 0 43-39 71-9 0 0 32 4 30 62-2 42 40 30 40 30s28-2 25 28-8 131 37 122 55-24 67-19l64 28c29 13 41-116 41-116s-51-35-15-64c43-36 48 31 52 36 0 0 31 17 34 39s2 80-11 115l8 8s6 54-42 99c0 0-53 80-101 62 0 0-37 24-47 36l-30 38s24 24-138 86c0 0-28 60-63 56 0 0-27 59-61 77 0 0 0 10-15 23l-147 49c-212 49-179 142-232 123 0 0-143 219-366 73 0 0-131 39-213-18s-162-70-162-70-65-6-93-45c0 0-26 6-46-13 0 0-124-131-142-227 0 0-34-12-40-52 0 0-33-32-16-44l-12-9s-114 31-152-96c0 0-26-22-28-51l-13-8s-17-47-17-70a109 109 0 0 1-13-33s8-25-1-36c0 0-30-37 6-131z"/><path id="reuse-10" d="M1622 1486s31 5 29 41-21 38-29 29c0 0-8 66-56 65-40-1-33-35-33-35s9-81-4-126c0 0 0-44 40-49 55-8 53 75 53 75"/><path id="reuse-11" d="M613 1587c-10-2-37-16-11-56 3-39 65-38 41 35 0 0 34-8 43 11-1 1 10 134-57 127-53-6-34-110-16-117"/><path id="reuse-12" d="M241 1648s-41 6-26-61 65-38 60-31 8-23-3 69c0 0-4 24-31 23"/><path id="reuse-13" d="M613 1924s-19 57 23 100"/><path id="reuse-14" d="M633 1906c11 35 59 51 21 101-22 29-21-101-21-101"/><linearGradient id="d" x1="1822.5" x2="2179.4" y1="2082.2" y2="2573.4" gradientUnits="userSpaceOnUse"><stop offset=".3" stop-color="#453634"/><stop offset=".4" stop-color="#483936"/><stop offset=".4" stop-color="#51413d"/><stop offset=".5" stop-color="#614f48"/><stop offset=".5" stop-color="#6f5b51"/></linearGradient><linearGradient id="e" x1="1419.4" x2="1598.3" y1="2310" y2="2801.4" gradientUnits="userSpaceOnUse"><stop offset=".5" stop-color="#453634"/><stop offset=".5" stop-color="#483936"/><stop offset=".6" stop-color="#51413d"/><stop offset=".6" stop-color="#614f48"/><stop offset=".6" stop-color="#6f5b51"/></linearGradient><linearGradient id="n" x1="2729" x2="4437" y1="1103.2" y2="1103.2" gradientUnits="userSpaceOnUse"><stop offset="0" stop-color="#725647"/><stop offset="1" stop-color="#7b7b7b"/></linearGradient><linearGradient id="al" x1="2742.2" x2="4415.5" y1="1076.5" y2="1076.5" gradientUnits="userSpaceOnUse"><stop offset="0" stop-color="#cab2a2"/><stop offset="1" stop-color="#afccdd"/></linearGradient><mask id="u" width="879" height="813" x="2112" y="471" maskUnits="userSpaceOnUse"><ellipse cx="2511.2" cy="877" fill="url(#a)" rx="345.8" ry="371.2" transform="rotate(-30 2515 877)"/></mask><mask id="v" width="736" height="806" x="1698" y="1007" maskUnits="userSpaceOnUse"><ellipse cx="2040.4" cy="1416.6" fill="url(#b)" rx="353.6" ry="236.1" transform="rotate(-67 2039 1417)"/></mask><mask id="w" width="709" height="712.5" x="2399" y="419" maskUnits="userSpaceOnUse"><ellipse cx="2774.4" cy="707.5" fill="url(#c)" rx="214.9" ry="327.8" transform="rotate(-39 2773 708)"/></mask><style>.d{fill:url(#d)}.e{fill:url(#e)}.f{fill:url(#f)}.g{fill:#677f8f}.h{fill:#aeccdd}.i{fill:#6e8595}.j{fill:#adccde}.k{fill:url(#g)}.l{fill:#2d1a14}.m{fill:url(#h)}.n{fill:url(#i)}.o{fill:url(#j)}.p{fill:url(#k)}.q{fill:url(#l)}.r{fill:url(#m)}.bf,.bg,.bl{stroke:#000}.aa,.ai,.al,.am,.ao,.aq,.aw,.ax,.bb,.bf,.bg,.bl,.y{stroke-miterlimit:10}.bf{stroke-width:4px}.u,.w{letter-spacing:-.06em}.aa,.ai,.al,.am,.ao,.aq,.aw,.ax,.bb,.bf,.bg,.bl,.y{fill:none}.aa,.y{stroke:#221b19}.bl,.y{stroke-width:5px}.aa,.bg{stroke-width:6px}.ab{fill:#221b19}.ai,.al,.am,.ao{stroke:#4b3021}.ai,.al,.am,.ao,.aq,.aw,.ax,.bb,.bf,.bg,.bl{stroke-linecap:round}.bb{stroke-width:20px}.ai{stroke-width:18px}.aw{stroke-width:17px}.al{stroke-width:14px}.am{stroke-width:19px}.ao,.aq{stroke-width:16px}.aq{stroke:#382419}.ax{stroke-width:15px}.aw,.ax,.bb{stroke:#657c8c}.bn{fill:#311d16}.bs{fill:#87634a}.bx{fill:#fff}.bz{fill:#eff7f9}.ck{fill:#647b8b}.cq{fill:#adcbdd}.cx{fill:#6a8190}</style></defs><text font-family="ArialMT,Arial" font-size="60.4" transform="translate(832 1054)">
    Original<tspan x="208" y="0" class="u"> </tspan><tspan x="222" y="0">Artwork by illustrator ‘Janko_M</tspan><tspan x="1061" y="0" letter-spacing="0em">’</tspan><tspan x="0" y="73">https://ww</tspan><tspan x="269" y="73" class="u">w</tspan><tspan x="309" y="73">.fiver</tspan><tspan x="440" y="73" class="w">r</tspan><tspan x="457" y="73">.com/janko_m</tspan><tspan x="0" y="218" class="u">V</tspan><tspan x="37" y="218">ector version hand-traced by Wladislav</tspan><tspan x="1078" y="218" class="w"> </tspan><tspan x="1092" y="218">Artsimovich</tspan><tspan x="0" y="290">contact (at) frost.kiwi</tspan>
  </text><use class="d" href="#reuse-0"/><g clip-path="url(#p)"><path d="M2336 2286s-24 13-23 54m-81 2s-4-44 18-56m-84 70s-16-54 16-70m-99 76s-6-77 28-73m-104 80s-33-71 31-78m-27-18s6-50 26-49" class="y"/><path fill="none" stroke="#221b19" stroke-miterlimit="10" stroke-width="3" d="M1951 2285s-15-25 3-54"/><path d="M1864 2290c-11-40 10-52 10-52" class="y"/><path d="M1922 2378s-23-76 23-83" class="aa"/><path d="M1833 2362a73 73 0 0 1 3-37l4-9 6-7 8-6 10-1a30 30 0 0 0-14 10l-5 7v2l-1 2-1 2-1 2-5 17zm-53-20a35 35 0 0 0-24 4l-9 7-8 9-1 1-1 1-2 3-3 5-3 6-2 5-10 24 5-25 1-3 1-3 3-6 2-3 1-3 2-3 1-1 1-2 9-10 11-7 13-2z" class="ab"/><path d="M1845 2365s-50-9-45 66m272 71s16-53 50-48m-139 19s4-44 47-46" class="aa"/><path fill="none" stroke="#221b19" stroke-miterlimit="10" stroke-width="4" d="M1890 2448s-5-42 52-53m200 127s5-32 42-45"/><path d="m1859 2376 26 7 488-40 114-47-291 29s-137 20-364 24c-57 1 27 27 27 27m-41-81 91 4 236-49 64-30-136 17c-26 4-183 36-183 36s-39 8-72 22m-238 25 199 69 179 57 212 58 73 18-83 37-642-218z" class="ab"/></g><use class="e" href="#reuse-1"/><g clip-path="url(#r)"><path d="M1820 2628s16-54 66-52" class="y"/><path d="M1717 2613s-18-47 33-57m-136 43s-22-53 33-70" class="aa"/><path fill="none" stroke="#221b19" stroke-miterlimit="10" stroke-width="7" d="M1506 2589s-34-62 32-80m-155 65s1-92 43-80m139 258s4-48 33-53m-116 22s-6-54 42-62m-139 29s-12-61 58-68m-126 51s-18-92 56-82m-254 4s-5-63 48-76"/><path d="m1190 2657 12-37 18-34 12-16 16-12 9-5 10-1 10 2 9 4q-9-3-18-2c-9 1-12 4-17 7l-13 12-6 8-5 7-20 33zm84-135 709 99 177 37-703-43-151-53s-44-28-32-40m125-69 218-17-63 33-163 3z" class="ab"/><path d="m1000 2503 209 85s99 33 261 93l200 80 104 99-892-331z" class="ab"/></g><path fill="#4b3021" d="M2290 392v-36l-3-36-7-35-7-17-10-15 15 12 12 15 19 34a399 399 0 0 1 24 63l1 5 1 2v3z"/><path fill="none" stroke="#4b3021" stroke-linecap="round" stroke-miterlimit="10" stroke-width="20" d="M3039 260s92 129 90 189m89 251s68-168-42-343m83 76c18 49 20 95 20 95m-47 258s107-106 110-165m-100 242s157-84 152-154"/><path fill="none" stroke="#4b3021" stroke-linecap="round" stroke-miterlimit="10" stroke-width="13" d="M3193 778c26 71 17 110 17 110m-88-282s27 57 28 97"/><path d="M3025 514s45 3 68 121m-281-247s42 8 88 83" class="ai"/><path fill="none" stroke="#4b3021" stroke-linecap="round" stroke-miterlimit="10" stroke-width="21" d="M2705 342s25 17 49 62"/><path fill="none" stroke="#4b3021" stroke-linecap="round" stroke-miterlimit="10" stroke-width="17" d="M2393 347s46 5 86 30"/><path d="M2230 285s35 36 47 86" class="al"/><path d="M1996 113s60 16 111 118" class="am"/><path fill="none" stroke="#4b3021" stroke-linecap="round" stroke-miterlimit="10" stroke-width="22" d="M1744 15s165 69 180 166"/><path d="m1602 10 57 52m-455-14s101-18 229 45m-390 110 47-13" class="am"/><path d="M635 356s111-52 141-45" class="ao"/><path d="M705 361s65-25 127-16m-56 57 68-9" class="ai"/><path fill="none" stroke="#382419" stroke-linecap="round" stroke-miterlimit="10" stroke-width="15" d="M658 488s109-60 150-56M528 641s30-27 111-58M310 917s41-29 82-35m-194 163s39-48 76-73"/><path d="M113 1361s43-95 116-143m-68 243 53-117" class="aq"/><path fill="none" stroke="#382419" stroke-linecap="round" stroke-miterlimit="10" stroke-width="14" d="M154 1395s32-84 63-95"/><path fill="none" stroke="#382419" stroke-linecap="round" stroke-miterlimit="10" stroke-width="19" d="M10 1701s12-95 98-158m-6 208s-1-82 43-161"/><path d="M47 1729s2-28 18-81" class="aq"/><path d="M2819 1370s13-35 55-71" class="ao"/><path fill="none" stroke="#4b3021" stroke-linecap="round" stroke-miterlimit="10" stroke-width="12" d="M2586 1487s-19-30-3-75"/><path fill="none" stroke="#4b3021" stroke-linecap="round" stroke-miterlimit="10" stroke-width="15" d="M2496 1494s-26-33-4-75m-41 274s-55-189-5-230m-55 370s24-75 23-140"/><path fill="none" stroke="#4b3021" stroke-linecap="round" stroke-miterlimit="10" stroke-width="10" d="M2467 1560a66 66 0 0 1 3 29"/><path d="M2551 1560s-22-22-24-92m0 204-31-114" class="al"/><path d="M218 2013s-40-23-16-115m84 242s-12-119 51-139" class="aw"/><path d="M353 2125s6-43 33-83" class="ax"/><path fill="none" stroke="#657c8c" stroke-linecap="round" stroke-miterlimit="10" stroke-width="14" d="M323 2115s5-75 32-109m-253-149s47-50 50-116"/><path fill="none" stroke="#657c8c" stroke-linecap="round" stroke-miterlimit="10" stroke-width="11" d="M171 1914s9-62-2-80"/><path fill="none" stroke="#657c8c" stroke-linecap="round" stroke-miterlimit="10" stroke-width="19" d="M426 2260s14 115 102 154m-94-202s70 99 121 139"/><path d="M641 2437s18 48 117 115" class="aw"/><path d="M680 2386s19 54 99 77" class="ax"/><path d="M654 2417s29 17 66 53m318 74s27 5 62 0" class="bb"/><path d="M945 2495s34 22 74 22" class="aw"/><path fill="none" stroke="#657c8c" stroke-linecap="round" stroke-miterlimit="10" stroke-width="16" d="M906 2514s47 27 95 41"/><path fill="#657c8c" d="m1395 2491 11-8 11-9 16-21 5-12 3-12 2-23a20 20 0 1 1 41-3l-1 7-1 1a122 122 0 0 1-13 30l-10 13-11 11a113 113 0 0 1-26 17l-13 5zm534-410v1h2v1h1l2 2 1 1 2 2 3 3 2 3 8 12a92 92 0 0 1 9 26l1 26-5 23-1 5-2 5-1 3-1 2-2 5-3 5-2 5-2 5-2 2-1 2-24 34 10-39v-5l1-5v-4l1-5v-10l-1-4v-5l-3-17-7-14-9-9-5-3h-1l-1-1v1a31 31 0 1 1 30-54z"/><path d="M1602 2339s125 28 218-97" class="bb"/><path d="M3033 259a399 399 0 0 1 50 67l27 49a201 201 0 0 1 17 53l2 28-17-52-21-51-27-48-31-45zm136 98a223 223 0 0 1 38 56l2 5 3 5 2 6 2 5 2 5 2 5 2 6 2 5 2 5 1 6 3 11 2 5 1 6 2 11 4 23v5l1 6 1 11v46l-1 5v6l-1 11a425 425 0 0 1-21 88l3-11 1-5 1-3 1-3 2-11 2-5 1-6 2-11 1-5 1-6v-5l1-3v-3l1-11 1-11v-6l1-5v-29l-1-2v-14l-2-12v-5l-1-6-4-22-2-10-2-6-1-5-3-11-2-5-2-6-2-5-1-5-2-5-2-6-2-5-2-5-3-5-2-5-10-20-23-39z"/><path fill="none" stroke="#000" stroke-linecap="round" stroke-miterlimit="10" stroke-width="7" d="M3254 427s32 59 20 104m64 87s15 45-112 163"/><path d="M3397 704s42 48-158 156m-24 30s7-44-19-115m-78-170s24 27 36 100m-132-188s30 1 56 70m-269-197s34 2 69 64m-178-112s25 19 41 53" class="bf"/><path d="M2389 347s49 0 90 38" class="bg"/><path d="m1738 15 15 5 15 5 28 13 34 20 6 5 7 5 6 4 24 21 21 24 5 6 4 6 5 7 2 3 2 3 4 7 4 7 2 4 1 3 3 7-4-6-3-3-2-3-5-6-5-6-2-3-3-3-5-6-10-11-5-6-6-5-3-3-3-2-5-5-6-6-6-5-5-4-6-5-6-5-7-5-12-9a762 762 0 0 0-79-48m816 1545h-2l-1-1-2-1-1-1-5-5-1-1v-2l-2-3-4-5-2-6-3-7-2-6-1-3v-2l-1-1-5-26v-14l1-13h1l3 13v3l1 3 1 7 2 13v3l1 3 1 6v2l1 2v3l2 6 1 6 3 6 2 6 2 3v1l1 2 4 5 1 1 1 1 2 1zm267-189 4-11 2-5 3-6 11-20q5-11 13-20l4-4 2-2 3-2 2-2 2-1 6-3-14 19-3 4-4 5-3 4-4 5-3 4-3 5-3 5-3 5z"/><path fill="none" stroke="#492e21" stroke-linecap="round" stroke-miterlimit="10" stroke-width="11" d="M1953 172s73 9 139 127"/><use class="k" href="#reuse-2"/><g clip-path="url(#t)"><path fill="#35231e" d="M2725 999c293 191 451 420 451 420l120-415z"/></g><path fill="none" stroke="#000" stroke-linecap="round" stroke-miterlimit="10" stroke-width="12" d="M2058 299s-30-110-204-152"/><path d="m1992 112 21 8 19 10 18 12 17 15 4 4 4 4 4 4 3 4 12 19 1 3 2 2 2 5 3 11 3 22h-2l-19-37-3-5-3-4-2-4-3-5-3-4-3-4-4-4-3-4-15-15-16-14-18-12-10-5-9-5zm235 173 10 5 5 4 2 2 2 2 4 4 3 5 3 6 2 5 9 21v3l1 3 1 6 2 11h-1l-2-5-1-3v-1l-1-2-4-10-2-5-2-5-2-3-1-2-1-2-2-3-6-9-2-2-2-2-3-4-3-5-3-4-7-10zm220 1409a718 718 0 0 1-28-121l-4-31v-31l6-31 6-15 9-13 1 1-7 29-3 30v30l1 30 3 31 5 30 12 60zm46-194-10-17-10-29v-10l2-10 6-9v28l1 10 2 9 2 9 8 18zm-107 333 9-38 4-19 5-38 2-19 2-38 5 19 1 20-2 19-1 10-2 10-5 19-5 18-6 19-6 18zm81-275 3 4 1 2v2l1 2 1 2 1 5v9l-5 8-1-2 1-3v-4l1-8v-4l-1-2v-2zm29-5 12 30 5 15 3 8 2 8 5 15 4 16 1 8 1 8v17q-7-15-11-31l-2-8-2-7-3-16-2-8-2-8-4-16-8-31z"/><path d="M2587 1488s-19-65 0-78" class="bl"/><path d="m2675 1365 47-15 23-10 23-11 21-14 5-3 5-4 2-2 3-2 5-4 4-4 3-2 2-2 5-5 4-4 17-19a259 259 0 0 1-33 39l-4 4-3 3-2 2-5 4-5 4-21 14-6 4-5 3-6 3-5 3-24 10-25 7-26 2zm207-78a701 701 0 0 0 123-76l14-12a252 252 0 0 0 34-41l9-16 6-17a100 100 0 0 0 3-36 91 91 0 0 1 0 37 118 118 0 0 1-14 34l-21 30-27 26a366 366 0 0 1-93 57zM95 1756l-2-23 1-23 3-22 6-22 15-43a233 233 0 0 1 22-40l-5 10-2 5-3 5-8 21-1 3-1 3-2 5-3 11-3 10-2 11-4 22-3 23-4 22zm-55-22v-13l1-12 3-13 3-12 11-36 7-11-3 6-5 18-3 12-2 12-2 12-3 13-3 12zm-38-29 3-26 7-25 12-24 14-22a286 286 0 0 1 33-40 300 300 0 0 1 40-33l1 1-36 36-16 20-7 11-7 11-12 22-11 23q-11 22-20 47z"/><path d="M107 1362s31-93 125-150" class="bg"/><path d="M157 1399s32-81 57-85m-53 144s17-58 59-102" class="bf"/><path d="m326 1032 5-9 5-9 27-31 7-7 8-7 4-3 4-3 9-6 17-11 5-3 5-2 4-2 5-1 5-2h3l2-1 3-1h2l5-1a199 199 0 0 0-35 20l-16 11-4 3-4 3-7 7-30 27z"/><path d="M357 967s40-39 91-58" class="bg"/><path d="m307 921 10-9 10-8 6-3 6-3 11-5 12-5 12-5 7-2 6-2 6-2 6-1 1 1-24 9-23 12-11 7-11 6-12 6zm-113 126 6-12 2-3 2-2 4-6 2-2 3-2 2-3 3-2 10-9q9-9 21-16l2-2 3-2 6-3 11-7 1 1-6 4-5 4-5 4-3 2-2 2-5 4-5 5-10 8-9 10-4 4-5 5-18 19zm230-198 10-15 2-3 3-4 6-6 6-7 3-3 3-3 6-6 3-3 3-3 7-6 4-3 3-2 14-11 14-10 15-9 7-5 8-5 14-9 8-5 7-4 15-9 31-17 15-8 16-7v1l-15 9-14 8-30 19-14 9-8 5-7 5-14 10-7 5-7 5-14 10-13 11-4 2-3 3-7 6-13 10-14 11-3 3-3 3-7 5-13 12-12 12zm67-120 12-15 7-6 4-3 3-3 4-3 4-3 4-3 4-2 8-4 9-5 34-15 5-2 4-1 9-3 18-5v1l-8 3-5 2-2 1-2 1-9 4-4 2-4 2-8 4-8 4-4 2-4 3-8 4-8 5-8 5-7 6-8 5-4 2-4 3-7 5-16 10zm32-87 6-7 3-3 3-2 3-3 4-2 7-5 7-4 8-4 8-3 8-3 7-3 8-3 4-2 4-1 8-3 17-4 16-4-16 6-15 6-8 3-4 2-4 2-7 3-8 4-4 1-3 2-8 4-7 4-7 4-8 4-7 3zm224-226 5-4 2-2 3-2 6-3 3-2 3-1 25-5 6-1h7l6 1 7 1 3 1 3 1 6 2 6 2 6 3-13 1h-18l-6 1h-12zm-96 74 3-4 2-2 2-2 2-2 3-1 2-2 2-1 5-3 4-3 10-5 39-17 10-4 10-4 10-3 10-3 42-10-39 17-20 8-10 3-10 4-39 15-5 2-5 2-5 2-5 3-2 1-3 1-2 1-2 1-3 1-2 2zm-13-129 15-14 4-3 5-3 8-6 10-4 2-1 2-1 5-2 5-2 5-1 5-2 5-1 10-3h2l3-1 5-1 5-1h2l3-1 10-1 5-1 5-1 10-1 21-1v1l-10 2-5 1h-5l-10 2-5 1-5 2-10 2h-2l-3 1-5 2-4 1-3 1h-2l-10 4-9 3-5 2-4 2-9 4-5 2-4 2-36 18zm67-2 16-9 19-6 19-3a303 303 0 0 1 56 6l36 12-1 1-36-8-18-2h-18l-18 2-18 3-37 5zm274-165 5-4 5-1h6l5 1 10 1h5l5-1h1l-5 4-5 2-11 3-5 1h-6l-5-2-5-3zm-36 109 5-5 6-4 6-3 7-2 7-2 6-2 13-3 1 1-12 7-6 3-6 4-6 3-6 3-7 1h-7z"/><path fill="none" stroke="#000" stroke-linecap="round" stroke-miterlimit="10" stroke-width="9" d="m1047 199 35-9m122-146s165-2 230 49"/><path d="M1596 8s13 25 48 42" class="bl"/><path d="M723 568s40-6 63-24 69-37 109-33c0 0 13-10 25-7 0 0 15-42 52-12 0 0 32 9 50-4l15 22s50 11 55-71c2-36 77-57 77-57s53-6 54-24-78-17-78-17 115-21 136-29c0 0 55 10 100-16 0 0 24-13 84-23 25-4 27-38 114-25l37 49s-58 8 12 42c45 22 138-15 130-102-7-75 159-50 159-50s19 23 24-13l-125-53-764 147zm211 461s40 9 69-15c0 0 119 17 106-21-22-63 62 15 73-34 0 0-2-59 56-59 0 0 46 37 86 8l10 21s-45 15 2 25c72 15 89-60 89-60s22-4 40 3 25-14 25-14l-32-37s136 83 138 88c0 0-49-31-33 4 0 0 15 16 35 19 0 0 79 57 73 18l-63-82-146-109-300 58zm493 803s146-145 222-31c0 0 23 14 55-7 0 0 8-32 25-25 1 1 12-25 9-50 0 0 14-86 70-71 0 0 21-44 18-74 0 0-16-14 2-53 30-67 65-12 65-12l-27 389zm-71-478s-34-8-17-24l46 17s4 35-29 7m-80 19s94-5 16-133c0 0-36 107-63 132-17 15 45 80 47 1m-579 189s55 194-65 151z" class="bn"/><path d="M1871 1520s62-164 106-120-106 120-106 120m-190-878s87 1 74 44-74-44-74-44m737-247s-8 18 64 45c0 0 25 10 46 31 0 0 70 13 76 21s31-9 2-24-113-73-113-73zm397 197s36-27-13-42l-19 68s29 41 32-26" class="bn"/><path d="M2662 483s-41-15-28 16 122 89 154 17c0 0 35-13 61 37s108 26 108 26l-14 50s-26 36 24 38c41 3 46-69 46-69s27 4 37 9c0 0 48 31 38 10s-26-44-26-44l-144-75-144-54z" class="bn"/><ellipse cx="1548.5" cy="498.5" class="bn" rx="17" ry="24"/><ellipse cx="1713.5" cy="529.5" class="bn" rx="8" ry="10" transform="rotate(-19 1714 530)"/><path d="M1149 721s36 12 20 22-20-22-20-22" class="bn"/><path fill="none" stroke="#311d16" stroke-linecap="round" stroke-miterlimit="10" stroke-width="15" d="M1643 815s44-14 113-15m-132-237 54 20"/><path fill="none" stroke="#311d16" stroke-linecap="round" stroke-miterlimit="10" stroke-width="10" d="M1673 334s59 9 94 7"/><path d="m1679 1776-5-24v-13l2-13 4-12 7-12 11-7 3-2 3-1h7l1 1-4 5-2 3-1 2-6 9-2 2-1 2-2 2-1 2-6 10-3 11-2 11-2 11v12zm-9-328-1-17v-17l1-9 1-8v-4l1-5 2-8 3-17 2-8 3-8 2-4 1-4 4-7 4-8 5-7-4 17-2 8-2 8-3 8-1 4-1 4-5 15-2 9-1 4-1 4-2 8-1 8-2 33zm-272-68-3 7-1 1v2l-2 3-2 3-2 2-5 5-4 6-2 3-2 2-2 3-2 3-3 7-1-1 1-7 1-3 1-4 1-3 1-4 4-7 3-6 2-3 2-3 2-1 1-2 4-2 7-2zm187-577 5-2 6-1h5l6 1 5 2 6 1 10 3v1l-11 1h-11l-5 1-6-1-5-2-5-3zm-145-140-16 3-7 1-8 1-8 1-8 1-8-2-8-3v-1l8-3 8-2 7-1 8 1 8 1h8l16 2zm-85-91 15 1h12l4-1 15-1h8l8 2 1 1-16 6h-16l-4-1h-4l-4-1h-4l-16-5zM972 847l31-29 11-9 10-9 12-8 6-4 7-3 7-2 4-1h3l1 1-5 5-6 5-5 4-5 5-6 4-6 4-6 3-6 4-23 15-23 16z" class="bn"/><path fill="none" stroke="#311d16" stroke-linecap="round" stroke-miterlimit="10" stroke-width="27" d="M840 883s-104 121-106 159"/><path d="m868 761 5-11 2-5 3-5 3-5 3-4 4-4 7-2v7l-2 5-4 5-4 4-4 4-4 4zm851 70 16-2 9-1h8l8-1 8 1 7 4 7 7v2l-9 5-8 2-8-1-8-3-7-3-8-2-15-6zm-254-527 25-10 26-9 51-15a1051 1051 0 0 1 106-24 826 826 0 0 1 108-10h14l13 1 28 3 26 8 2 1h1l3 2 4 1 3 2 2 2 3 2 5 5a80 80 0 0 0-24-10l-26-3-27-1-13 1h-7l-6 1h-7l-7 1-13 1-26 3-27 4-26 5-105 19z" class="bn"/><path d="M1387 331a413 413 0 0 1 50-56 653 653 0 0 1 57-49l8-6 3-3 4-3 8-5 8-5a445 445 0 0 1 66-37l36-14 37-10 38-5 10-1h10l9 1 10 1q10 0 19 3l5 1 5 1 9 2 36 15 4 2 4 2 4 3 4 3 8 5 4 3 4 3 4 2 3 4 8 6 7 6 3 4 3 3q14 14 24 29l-7-6-3-4-4-3-6-6-8-6-3-3-4-3-7-5-8-5-4-3-4-2-3-3-4-2-8-4-9-4-4-2-4-2-8-4-9-3-8-2-9-2-9-2-4-1-5-1-18-2-35 1a302 302 0 0 0-105 28l-33 16-63 37a946 946 0 0 0-116 93m-180 643 2-20 4-19 12-37 4-9 5-9 11-17 13-16 7-7 4-3 4-4a126 126 0 0 1 37-20 139 139 0 0 1 42-7h16l5 1 20 4 39 12 36 18 8 6 9 5 16 11 8 6 8 6 7 6 8 6 7 7 8 6 7 7 7 6q28 27 53 56l13 15 3 4 3 4 6 7 6 8 5 8 12 16-15-13-14-13-29-25-59-49-7-6-7-6-8-5-7-6-8-6-8-5-7-5-8-5-16-10-8-5-8-5-16-8-4-2-2-1-2-1-9-4-34-12-17-3-17-2a120 120 0 0 0-34 4l-16 6-8 4-3 2-4 2-4 3-3 2-7 6-3 3-2 1-1 2-4 3-3 3-3 4-3 3-5 7-6 8-5 8a319 319 0 0 0-31 69M944 614l6-37 5-19 5-18a401 401 0 0 1 31-70 348 348 0 0 1 46-63 290 290 0 0 1 60-51 250 250 0 0 1 74-32l10-2 5-1h5l5-1 5-1h5l2-1h40l2 1h10l5 1 5 1 19 3 37 11 9 4 9 3 4 2 5 2 8 4 9 5 8 4 16 10-18-4-10-2-9-1-9-2-4-1-5-1-9-1-9-1-36-4h-37l-2 1h-9l-4 1-9 1-9 1-33 8a262 262 0 0 0-62 28 319 319 0 0 0-54 43 468 468 0 0 0-46 53l-41 61q-18 31-35 65m622-292 14-6 15-5 31-8 62-12 15-2 8-1h8l32-1 32 2 8 2 4 1 3 1 4 1 4 1 4 2 3 2-31-2-38 3-8 1-8 1-8 1-15 2-8 1-7 1-62 8z" class="bn"/><g mask="url(#u)"><ellipse cx="2551" cy="877" class="bs" rx="439.5" ry="406.5"/></g><path fill="#ae8668" d="m2438 928 15-5-2-11q-23-54-3-111c-1-28 18-45 37-62a134 134 0 0 1 80-33h31c-3-12-16-11-22-17 17-2 33 15 54 6l30 25 4-13 5 2q10 11 15 24c14 37 30 74 34 114 2 20 4 41-13 58l-2 5c-1 25-16 44-33 60q-34 38-81 56h-9c23-15 47-28 62-57-46 9-87 28-131 28l38-12c-36-21-76-30-109-57"/><g mask="url(#v)"><ellipse cx="2065.5" cy="1409.5" class="bs" rx="368" ry="403"/></g><g mask="url(#w)"><ellipse cx="2753.8" cy="777.5" fill="#321e18" rx="340.5" ry="367.5" transform="rotate(-46 2752 778)"/></g><ellipse cx="2573.3" cy="840.6" rx="108.8" ry="126.2" transform="rotate(-66 2572 841)"/><ellipse cx="2684.1" cy="887.4" rx="14.9" ry="23.8" transform="rotate(-66 2683 888)"/><circle cx="2605.5" cy="814.5" r="20" class="bx"/><circle cx="2495.5" cy="850.5" r="6" class="bx"/><path d="m1452 540 19-10 20-7 42-9a241 241 0 0 1 86 7l5 1 6 2 5 1 5 2 5 2 5 2 10 4 38 21 4 3 5 3 9 6 4 3 4 4 8 7 3 1 2 2 4 4 7 7 16 15-16-14-8-7-5-3-2-2-2-2-8-6-4-4-5-3-9-6-4-3-5-3-4-2-3-2-2-1-9-5-10-5-5-2-2-1-2-1-10-5-5-2-5-1-5-2-5-2-6-1-5-2-10-2-10-2-3-1h-3l-5-1h-5l-6-1h-42l-42 8a208 208 0 0 0-40 15m-5-22 8-8 10-7 21-10a140 140 0 0 1 46-8h6l6 1h9l3 1 5 1 6 1 12 2a243 243 0 0 1 44 16l-11-4-11-3-12-3-11-3-6-1-2-1-3-1-6-1h-6l-11-1-6-1h-12l-5 1h-9l-3 1-22 5-3 1-3 1-5 2-5 2-6 3-9 6zm235-164 31 1 31 4a319 319 0 0 1 60 18l28 14 14 7 7 4 6 4a345 345 0 0 1 49 39 469 469 0 0 0-51-36l-6-4-7-4-14-7-6-4-7-3-8-3-3-2-4-1-29-11a348 348 0 0 0-60-13zm29-24 18-3h18a139 139 0 0 1 36 8l4 2h2l2 1 5 2 4 2a169 169 0 0 1 43 33l-29-21-8-5-3-2-4-2-17-7-17-6-18-3-18-1zm484 86 6 18 10 16q11 16 28 24a88 88 0 0 0 35 10 159 159 0 0 0 38-3l-9 2-10 2-4 1h-19l-5-1h-5l-2-1h-3l-4-1-5-2-4-2-3-1-2-1-15-11-13-15-9-17-3-9zm698 394 3-29-1-29a253 253 0 0 0-35-108 281 281 0 0 0-35-46l10 10 10 11 4 6 5 6 2 2 2 3 4 7 4 6 1 3 2 3 4 7 3 6 10 27 7 28 4 29v29l-1 15zm-450-151a163 163 0 0 1 24-39 151 151 0 0 1 34-31l2-1 3-2 5-2 5-3 5-2 2-1 1-1 3-1h2l3-1 6-2 5-1a125 125 0 0 1 46-1h-6l-5-1h-12l-22 4a132 132 0 0 0-41 18l-5 3-5 3-4 4-4 3-16 16-14 18zM796 599l17-11 18-11 19-9 9-4 9-4 5-2 5-2 5-2 4-2 20-7 5-1 5-2 10-2 10-3 10-2a745 745 0 0 0-151 64M528 857l11-12 6-6 7-6 19-16 7-5 29-16 8-4 8-3 4-1 4-2 8-2-8 3-4 2-3 1-8 4-7 4-4 2-4 2-7 4-7 4-7 5-7 5-7 5-6 5-7 5zm68-26 29-22 32-16 9-3 4-2 4-1 9-3 9-2 4-2 4-1 9-1 2-1h3l4-1 9-1-9 2-4 1h-2l-3 1-8 2-5 1-4 2-8 2-9 3-4 2-4 1-9 4-8 3-8 4-8 4-4 2-4 2zm0 34a467 467 0 0 1 152-89l10-4 11-3 10-3 3-1 3-1 5-1 6-2 5-1 11-2 22-3 5-1h3l3-1h11l5-1h17l11 1h11l6 1 5 1 11 1-11-1-6-1h-44l-5 1-11 1h-5l-6 1-22 4-11 2-5 1-5 1-5 2-3 1h-3l-10 3-11 4-10 4a502 502 0 0 0-153 86m362 54 24-7q12-3 23-9a231 231 0 0 0 42-25l18-16 17-18 4-5 2-2 2-3 3-5 4-5 6-10 3-6 3-5a196 196 0 0 1-25 43l-8 9-4 5-5 4-1 1-1 1-2 2-5 5-5 4-4 3-21 14a210 210 0 0 1-46 20l-12 3zm76-62a1062 1062 0 0 0 73-103l11-18 11-19 25-34 32-28 18-11 19-10 20-6 21-4-10 2-11 2-19 8-19 9-18 12-4 3-4 3-8 7-15 15-25 34-10 18-3 5-3 4-5 9a830 830 0 0 1-76 102m262 34 20-8 21-7 11-2 10-2 11-2 11-1 11-1h33a264 264 0 0 1 124 40l18 13 5 3 2 2 1 1 1 1 9 7 4 3 4 4 8 8 2 1 1 2 4 4 8 8-8-7-4-4-2-2-2-2-8-7-4-4-5-3-8-7-1-1h-1l-3-2-4-3-5-3-2-2-2-1-9-6q-19-11-39-19l-41-13-43-7a315 315 0 0 0-87 6zm303-285a579 579 0 0 0 66 42 635 635 0 0 0 70 34 459 459 0 0 0 75 23l9 2 10 2 5 1h5l4 1h5q20 3 39 2l-19 1h-10l-10-1h-10l-5-1-4-1-10-1-10-2a414 414 0 0 1-75-22l-36-17-35-18a513 513 0 0 1-64-45"/><path d="M1654 637a578 578 0 0 0 125 30l64 5h33l32-2-8 1h-4l-4 1h-8l-8 1h-8l-8 1h-17a502 502 0 0 1-128-18zm-319 541a212 212 0 0 1 36-45l15-12a289 289 0 0 0-39 42zm-979 15a226 226 0 0 1 35-65 279 279 0 0 1 33-36l4-4 5-4 9-8a262 262 0 0 1 42-26l-6 3-5 3-10 7-19 15a331 331 0 0 0-65 72l-13 21zm48-39 7-12 9-11 17-21a380 380 0 0 1 86-68l12-7 6-4 6-3 12-6 13-5-48 27-6 3-6 4-11 8-11 8-5 4-3 2-2 2a397 397 0 0 0-59 57zm1722-743 31 42a323 323 0 0 0 36 36l20 16 23 12 25 6 12-1h3l3-1 7-1h3l1-1h2l6-1 3-1 4-1 6-2 12-3 12-5 49-18 24-8 7-2 6-1 13-3 13-2 3-1h3l6-1 7-1h6l13-1-13 1-6 1-6 1-7 1-3 1h-3l-13 3-49 15-24 9-24 10a292 292 0 0 1-51 14l-6 2h-6l-14 1-25-7-24-12-20-16a297 297 0 0 1-36-38zm296 328 19-23 8-12 3-7v-3l1-4 7-14 9-12 21-22a187 187 0 0 1 50-33l28-9 30-2a141 141 0 0 0-57 13l-26 15-23 18-21 22-13 18-3 6v4l-1 4-3 7-9 12zm195-111q11-1 21 2l21 8 5 2 5 3 2 2 2 1 5 3 4 3 3 2 1 1 1 1 4 3 2 2 2 2 16 16 7 8 7 9 7 9 6 9 3 4 1 3 2 2 6 9q22 39 37 80l5 10 3 10 7 21 3 11 2 5 2 5 3 11 2 10-3-10-3-10-2-6-2-5-4-10-7-21-4-10-4-10-5-10-4-10-2-5-3-5-4-10-3-5-2-5-5-10-1-2-2-2-2-5-3-5-3-5-6-9-1-2-1-3-3-4-13-18-29-33-2-2-2-1-4-4-1-1-1-1-2-1-5-4-4-3-2-1-3-2-4-3-5-2-20-9-11-3zm-912 91 37 17a553 553 0 0 0 79 26l5 1 5 2 10 2 11 2h2l3 1h5l41 5h10l11 1 21-1 20-1 11-2h5l5-1 10-2 10-2 5-1 5-2 10-3a303 303 0 0 1-81 17l-5 1h-37l-42-4-5-1-3-1h-2l-10-2-11-2-10-3a512 512 0 0 1-115-47m224 323 10-14 12-12 26-23 28-20 29-17 8-3 8-4 4-1 4-2 4-1 4-2 8-3 4-1 4-1 17-5a293 293 0 0 1 67-8l-8 1-8 1-9 1h-2l-2 1h-4l-9 2-8 1-8 2-9 2-16 5-4 1-4 2-8 3-31 13a375 375 0 0 0-57 36l-27 21zm16 171 3-10 4-10 9-18 22-35a370 370 0 0 1 56-61 408 408 0 0 1 67-48l9-5 10-5 18-9 5-2 5-2 9-4 19-7-9 4-5 2-4 2-10 4-4 2-5 3-18 9-9 5-9 6-4 2-5 3-8 5-9 6-4 3-4 3-9 6-8 7-4 3-4 3-3 3-4 4-30 28-26 32-23 34zm288-329 9-9 11-8 25-9 26-2 26 4 25 10 6 3 6 3 11 7 5 4 6 4 5 4 5 4 5 4 5 5 10 9a192 192 0 0 0 43 30l5 3 6 2 13 5 3 1h3l6 2 13 1h26a141 141 0 0 0 60-25l11-8-21 16-24 12-25 7-27 1-13-2-7-1-1-1h-2l-3-1-13-4-6-3-6-3a198 198 0 0 1-43-30l-10-9-5-4-5-5-5-4-5-4-5-4-6-3-11-7-5-4-6-3-6-3-3-1-3-1-3-1-3-2-6-2-26-4-26 1-24 9-12 7zm-859-651a235 235 0 0 1 79-18h27l27 5 3 1 2 1h1l7 2 6 3 3 1 4 2q25 12 43 32l-5-4-3-3-3-2-5-4-5-4-3-2-3-2-6-3-5-3-2-1-1-1-4-1-3-2-3-1-6-2-6-2-2-1h-2l-3-1-26-5a220 220 0 0 0-54 2l-27 5zm-149 86 33-5 16-1h17l33 2 8 1 4 1 4 1 4 1 4 1 8 2-8-1-4-1-4-1h-4l-4-1-8-1h-9l-8-1h-49zm31 67 1-2v-1h1l3-2 7-2 3-1h11l-7 2-3 1-4 1-6 1-3 1h-1l-1 1zm-185-12 2-1 1-1 4-2 3-2 4-1 3-2 4-1 3-2 4-1 8-2 7-2 4-1 4-1 7-1 61-8 8-1h8l8-1h69l31 2h-46l-16 1h-15l-16 1h-15l-8 1h-7l-31 3-8 1-3 1h-4l-8 1-4 1-3 1-8 1-4 1-3 1-8 1-7 2-4 1-4 1-3 1-4 2-4 1-3 1-4 2-1 1zM791 629a1123 1123 0 0 1 246-105l44-8 5-1h6l11-1h22a236 236 0 0 0-44 4l-43 9a836 836 0 0 0-85 28l-82 35-41 19zm993-111 14-4 14-2h30a183 183 0 0 1 56 14l7 3 7 3 6 4 6 3 3 2 4 2 6 4 5 5 3 2 3 3 6 4 5 5 10 11 5 5 5 6 9 12a285 285 0 0 0-41-42l-3-2-3-2-6-4-6-4-3-2-3-2-6-4-7-3-6-4q-3-2-7-2l-27-10-29-5h-29z"/><path d="m2258 744-27 2-27-1a259 259 0 0 1-53-10 179 179 0 0 1-49-23 140 140 0 0 1-39-38l-7-12-3-6-3-6-3-6-3-6-2-3-1-2-4-6a254 254 0 0 0-32-43 206 206 0 0 0-42-34l-23-13-13-4-13-4 26 8 24 12a205 205 0 0 1 42 33l5 5 5 5 4 6 2 2 2 3 4 5 4 6 4 6 4 5 3 6 2 3 1 3 4 6 3 6 3 6 3 6 7 12a137 137 0 0 0 37 37q23 15 48 23a270 270 0 0 0 53 10l41 2zm-280-226 25 12q8 3 12 7l12 8 10 10 3 2 2 3 5 5 8 11 6 13-7-12-3-3-2-2-2-3-2-3-10-9-10-9-23-16zm866 215-14-44-18-43-23-41a403 403 0 0 0-50-63l-4-4-4-4a257 257 0 0 0-37-28 244 244 0 0 0-86-33l23 4 2 1 3 1 6 1 11 4a231 231 0 0 1 42 19 254 254 0 0 1 71 62q29 36 48 80l18 43 7 22zm-894 974 12-7 12-9 20-20 16-23 2-3 1-4 2-3 2-3 3-6 2-7 3-6 2-7 3-7 2-6 1-4 1-3 1-7 2-7 1-3v-4l1-7 1-3 1-4v-7l1-2v-5l1-7v-14l1-7q1-57 14-113l4-14 2-7 1-3 1-4 11-26 14-25 10-11 11-9-11 10-9 11-13 25-10 26-2 3v4l-2 7-4 13-9 56-4 57-1 7v7l-1 7v7l-1 4v4l-1 7v3l-1 4-1 7-1 3-1 4-1 7-2 7-1 3-1 4-10 27-3 6-3 6-2 4-2 3-1 3-2 3-17 23-21 20zM1414 255l23-4a248 248 0 0 1 48 1 269 269 0 0 1 47 9l11 4 5 2 6 2a211 211 0 0 1 41 24l-43-20-45-13a362 362 0 0 0-93-5m162 1322 11-10 10-11 16-25a225 225 0 0 0 20-56l2-7 1-8 1-3v-4l1-7 3-30a421 421 0 0 0-3-59l-1-15-2-15v-15l-1-15v-15l1-8v-11l1-4 1-7 1-8v-3l1-4 7-29 12-28 2-4 2-3 2-3 2-3 1-2 1-1 2-3 3-3 1-2 1-1 11-11 3-2 3-2 6-4-6 4-3 2-3 3-10 11-1 1-1 2-3 3-2 3-1 1-1 2-2 3-1 3-2 4-2 3-11 28-6 28-1 4v4l-1 7-1 8v7l-1 8v37l1 15 2 14 1 15a415 415 0 0 1 2 60l-2 30-1 8-1 4-1 3-1 8-2 7-9 29-13 27-17 25q-9 12-22 20m107-235 19-25 17-25 18-26 24-39 7-14 7-14 7-14 12-28 8-30-7 30-2 8-2 7-6 15a328 328 0 0 1-29 55q-16 27-34 52zm78 221 11-11a202 202 0 0 0 28-34l14-26 11-28-8 29-2 3-2 4-10 19-19 24-11 10zm-63 11-4-12-3-12-3-25a227 227 0 0 1 3-50l1-6 1-6 3-13 3-12 2-6 2-5 5-12 3-6 3-5 1-3 2-3 3-5 6-11-20 45-2 6-2 6-4 12-2 12-2 6v3l-1 3-1 13-1 6v6a257 257 0 0 0 2 50zm76-46 5-4 4-5 8-10 13-23q11-24 15-49l1-6 1-7v-3l1-3v-7l1-6v-7l1-6v-39l-1-6-1-13-1-52a333 333 0 0 1 6-52l7-26 10-24 13-22q9-10 19-18l-5 4-5 5-8 10-13 22-8 24-7 25-5 52 1 51 1 13 1 7v39l-1 7v6l-1 7-1 6v3l-1 4-1 6-1 6-7 26-9 24-14 22a84 84 0 0 1-18 19m-5-652 62 10 62 3a348 348 0 0 0 62-7l8-2h4l3-1 4-1 4-2 7-2 29-12-28 15-30 10-7 2h-4l-4 1-8 1-8 1a370 370 0 0 1-63 2l-8-1h-8l-47-8zm-8-25 15 2 14 1 30 1h29l8-1h7l15-1-29 6-15 1h-15l-30-2-15-3zm-263 289 13-17 29-31 3-3 4-4 4-3 4-4 9-6 4-3 4-3 17-12 9-6 9-5 19-10-17 12-9 6-4 3-4 3-9 6-2 2-2 1-4 3-8 7-8 6-4 4-4 3-4 3-4 4-16 14-7 7-4 4-4 3zm43 149 7-25 3-7 2-6 3-6 3-6 2-6 3-6 3-6 4-6 3-5 2-3 1-3 7-11 8-11 4-6 4-5 8-10 9-11 4-4 4-5 10-10 2-2 2-3 5-4 10-9-9 10-4 5-2 2-3 3-8 10-4 5-4 5-9 10-7 11-4 5-4 6-7 10-8 11-1 3-2 3-3 6-4 5-3 6-3 6-3 6-3 6-3 5-3 6-2 6zm-592 119 1-5 1-5 1-5 1-5 2-5 2-5 1-4 2-5 4-9 5-9 10-18 3-4 1-3 2-2 5-8 6-8 6-9 13-15 14-15-11 17-6 8-6 8-22 34-19 35-5 9-2 5-2 4-2 5-2 4zm124-165-18 25a395 395 0 0 0-57 142 453 453 0 0 0-6 62 289 289 0 0 1 2-62l1-8 1-8 2-7 1-8 1-4 1-4 2-7 3-8 2-7 12-29 15-28 17-26zm22 202-3-14a159 159 0 0 1 1-42l5-27 8-27 12-25 4-6 1-3 2-3 4-6 4-6a276 276 0 0 1 35-43l-31 45-14 24-3 7-1 3-2 3-2 6-3 6a253 253 0 0 0-15 53l-3 27v14zm92-176-25 52a395 395 0 0 0-19 55q-4 13-6 28l-4 28v29l1 8 1 7v3l1 4 1 7-4-14v-4l-1-3-1-7-2-30a252 252 0 0 1 9-58l8-28a374 374 0 0 1 25-53zm-760 259v-2l2-1 4-3 8-5 15-12a167 167 0 0 0 23-29l18-32 13-35a449 449 0 0 0 17-73l9-75a559 559 0 0 1-5 75 478 478 0 0 1-15 74l-14 36-19 33a152 152 0 0 1-25 28l-16 12-8 4-4 2-2 1-1 1zm163-184 7-2 7-4 12-10 20-25 16-27 3-8 3-7 6-15a463 463 0 0 0 19-60l18-62 4-15 3-8 3-7 5-15 3-8 3-7q11-30 27-58c16-28 22-37 37-52l25-21 7-4 1-1 2-1 4-2 3-2 4-1 7-3-7 3-3 2-4 2-3 2-2 1-2 1-6 4-24 22-19 25-4 7-4 6-4 7-4 7-26 58a967 967 0 0 0-39 121l-9 31-2 8-3 7-6 15-13 29-16 28-2 2-1 1-2 3-3 3-2 4-11 11-13 10-8 3zm0-106 11-8 2-2 3-2 4-5 3-2 2-3 4-5 8-10 7-12 1-1 1-2 1-2 4-6 6-12 7-12-4 13-5 13-3 6-1 3-1 2-1 1-3 6-4 6-2 3-1 1-1 1-5 6-4 5-5 5-3 2-3 2-3 2-3 2zm225-4v-18l2-18 4-18 3-9 1-4 2-4 15-33 20-31 6-7 6-6 3-4 3-3 3-3 4-4 13-12 7-6 7-5a342 342 0 0 1 62-38 506 506 0 0 0-59 41l-7 6-6 6-13 12-6 7-4 3-3 3-5 7-6 7-20 30-16 31-11 35-2 8-1 5v4z"/><path d="M819 1280v-13l1-12 4-26 7-24 10-24a274 274 0 0 1 26-44 267 267 0 0 1 34-38l-30 41-2 2-1 3-4 5-3 6-3 5-3 6-3 5-2 3-1 3-3 5a277 277 0 0 0-27 97m732-61 25-46 30-44 35-39 20-17 22-15-20 17-4 4-5 5-5 5-4 4a586 586 0 0 0-65 82zm132 79 19-26 18-26 17-26 4-7 3-7 2-3 2-4 4-7-2 8-1 4-2 3-3 8-3 7-16 28-20 25-5 6-5 6zm-311 312 22-19 10-10 5-6 2-3 3-2 16-24 4-6 4-6 6-13 6-14 5-13 4-14 2-7 2-7a329 329 0 0 0 6-58 226 226 0 0 1-2 59l-1 7-1 4-1 3-4 14-5 15-5 13-15 26-18 24-21 20zm32 124v-14l2-15 2-6 2-7 3-7 2-7 3-6 3-6 7-13 4-6 3-6 8-12 2-3 1-2 1-1 5-6 8-11 9-11 5-5 2-3 3-2 9-11 5-5 3-2 2-3 21-19-19 21-2 3-2 2-5 6-9 11-2 2-2 3-5 6-8 11-9 11-4 6-1 1-1 1-2 3-8 12-7 12-7 12-3 6-3 6-3 7-3 6-5 13-2 7v2l-1 1v4zm-51-30-3-21v-21l3-41 1-5 1-5 2-11 4-20 2-10 1-5 1-3 1-2v-5l1-5 1-5v-46l-2-20-2-11-1-5-1-5a485 485 0 0 0-24-78l17 38 12 39q10 41 7 83v6l-1 5-1 5-1 5v3l-1 2-1 5-3 10-4 20-2 10-1 5-1 5a435 435 0 0 0-6 67v5zm-102 18 8-31a291 291 0 0 0 6-62l-1-16-1-8-1-8v-4l-1-3-1-8-2-8-1-8-4-15-3-7-2-8a419 419 0 0 0-25-58 276 276 0 0 1 29 57l3 7 3 8 4 15 6 32a259 259 0 0 1 0 64l-6 31q-4 15-11 30m-440 0-3-15-1-8-1-7 1-31 1-4v-4l1-7 2-8 1-3 1-4 2-8 3-7 1-3 2-4 3-7-2 8-1 3v4l-2 7-2 8v4l-1 3-1 8-2 15a423 423 0 0 0-2 60m42-106-1 3-2 3v3l-1 4-1 6v30l1 3q4 27 10 53l7 25 3 13 1 4 1 3 2 6 4 13 1 6 3 7 7 26-10-25-3-6-2-7-5-12-8-26-7-26-1-3v-4l-2-6-1-7-1-6-2-14-2-13v-27l1-7 2-7 1-3 1-1v-2l2-3zm1335-598 24-10 12-4 13-3 6-1 7-1 13-2h26l7 1 3 1 3 1 3 1 3 1 6 1 7 2 6 1h12l25-4a78 78 0 0 0 22-13q-9 9-21 15l-12 5-14 2h-13l-6-1-7-1-6-2-3-1-3-1h-3l-4-1-6-1-25-1-25 3zm226-26a150 150 0 0 0 33 25 136 136 0 0 0 38 14l21 2 20-1a129 129 0 0 0 39-13l17-10 16-13 30-28 25-33 7-8 8-7a46 46 0 0 1 19-7l-10 3-9 5-7 7-6 8-25 34-7 7-3 4-4 4-4 4-3 3-8 7-17 13-18 11a130 130 0 0 1-40 13l-21 1-20-3a130 130 0 0 1-39-16l-17-12z"/><path d="M2296 952a69 69 0 0 1 28-15l21-2 6 1h2l3 1 19 9 3 1 1 1 1 1 4 3 4 3 5 3a211 211 0 0 0 78 31l11 2h5l5 1 21-1 11-1 5-1 5-1 5-1 6-1 10-4 2-1 3-1 2-1 2-1 10-5a156 156 0 0 0 34-26 156 156 0 0 1-34 27l-4 3-5 2-3 1-2 1-2 1-3 1-10 4-5 2-5 1-6 1-5 1-11 1-21 1-5-1h-6l-10-2-6-1h-2l-3-1-5-1-5-1a207 207 0 0 1-40-16l-18-11-5-3-4-4-4-3-1-1h-1l-3-2-19-9-2-1h-3l-5-1h-10l-11 1-10 4-9 5zm-175 325 1-9v-4l1-5 1-4 1-5 2-4 1-4 3-9 4-8 8-16 19-31 11-14 12-13-10 15-9 15-18 31-4 8-4 7-4 8-4 8-3 9-2 4-1 4-2 4-1 4zm20 12 2-24 8-23 11-22 15-19-3 5-3 6-3 5-2 5a349 349 0 0 0-25 67m155-70 8-16 5-8 5-7 22-29 27-26 7-5 7-6 4-2 4-2 8-5-7 6-4 3-3 3-7 6-6 6a505 505 0 0 0-70 82m86 0 5-17 2-4 2-4 3-3 3-4 6-7 7-5 15-9-12 12-6 6-3 4-1 1-2 2zm129 32 5-22 8-21 19-40 3-5 2-5 6-9 7-9 6-9 30-34 8-7 9-8 2-1 2-2 4-3 5-4 4-3 10-7 9-5 3-2 2-1 5-3 5-3 5-2 10-5 2-1 2-1h1l5-2 11-4 10-4 5-2 6-1 11-3 2-1h3l5-2 11-2-11 3-5 1-3 1-2 1-11 3-5 2-5 2-11 3-10 5-5 2h-1l-2 1-2 1-10 5-5 3-5 2-5 3-2 1-2 2-10 6-9 6-34 28-30 33-24 37-20 40z"/><path d="m2641 1124 29-24 31-21 34-16q17-7 36-9a162 162 0 0 0-36 11l-33 17-31 20zm-336 513 5-11 5-12 8-23 12-48 3-24 1-12v-13l-1-12v-12l-1-6-1-6-1-13a684 684 0 0 1 0-99q3-25 13-48l14-21 2-2 1-2 1-1 2-2 3-2 11-6a68 68 0 0 0-19 16l-12 21-8 23-4 24v6l-1 7v12l1 49 2 25 1 12 1 6v6l1 4v34l-1 12-2 13-2 12a286 286 0 0 1-22 71zm246-319 9-7 4-3 4-4 9-7 8-7 32-31 8-8 8-8 15-16 7-8 7-9 8-8 7-8 7-9 4-4 4-4 4-4 4-4 8-8 36-26a311 311 0 0 1 60-30l21-7-10 4-11 4-19 10-38 23q-37 25-66 58l-7 9-7 8-8 9-4 4-3 4-16 16-8 8-8 7q-16 17-33 30l-9 7-9 6zm-17 25 45-34 45-36 43-36 22-19 10-9 11-10 10-9 6-5 5-5 6-4 6-4 3-2 3-2 6-4a337 337 0 0 1 50-27l53-20 28-7 28-6-55 15-53 20q-51 24-94 63l-10 10-11 9-5 5-5 4-11 10-22 18-11 9-11 9-46 34-23 17zm182-108 61-25 31-13 30-14 59-31 7-4 7-5 7-4 4-3 3-2 26-21q-10 13-24 23l-27 20-29 17-30 15a491 491 0 0 1-62 26zm219-440 7 33 11 32 8 15 4 7 2 3 3 4 23 24a91 91 0 0 1-27-22l-5-6-5-8-4-7-4-8a147 147 0 0 1-11-33l-2-17zm37-165 8 15 7 15 11 32 4 34a136 136 0 0 1-2 34l-3-34-5-32a401 401 0 0 0-20-64m6 124 3 10 3 9 1 10 1 10-5-9-3-10-1-10zm22-127 6 10 6 11 7 24 1 6 1 6v13l-4 25v-25l-1-6-1-6a243 243 0 0 0-15-58M487 1655l8-7 4-4 4-3 7-8 7-7 28-32 25-33 7-8 6-8 13-17-22 36-32 42-7 8-7 8-7 7-4 4-4 3-4 4-4 3-5 3-4 3zm-19-26 7-8 8-7 14-15 15-14 15-15-2 5-3 4-3 5-3 4-14 16-16 13zm61 135-3-15-1-14 3-30 4-15 5-14a98 98 0 0 1 16-25l-12 27-2 7-1 4-1 3-3 14-4 29zm59 39-6-22a250 250 0 0 1-5-69l1-6 1-6v-5l1-3v-3l6-23 9-21 3-5 3-5 6-9-2 5-2 2-1 3-2 5-2 5-2 5-2 6-2 5-1 6-1 2-1 3-1 6-1 5-1 6a240 240 0 0 0-3 45v22zm50-57 7 29 4 30 1 31-3 15-4 7-2 3-3 2 4-6 2-7 1-15a324 324 0 0 0-4-59z"/><use class="m" href="#reuse-3"/><g clip-path="url(#y)"><path d="M3404 1598s-71 49-9 74 9-74 9-74m-13-8s-20-15-19-22c9-61 9-135 9-135l-9-18 10-36-5-6 12-65s-17 2-10-13c54-115 134-205 134-205z" class="bz"/></g><use class="n" href="#reuse-4"/><g clip-path="url(#aa)"><path d="M3447 1475s25-43 12-102 0-63 0-63 21-37 27-23-14 21-14 21-2 27 15 38c6 4-19 10-19 29-2 34 16 91 16 91zm20-249-3-8 8-9s14-49 16 13-19 56-19 56q-6-11-7-16c-2-6 2-22 5-36" class="bz"/></g><use class="o" href="#reuse-5"/><g clip-path="url(#ac)"><path d="M3959 1227s57 79 7 205zm55 248s-22-25-1-103l-10-54s7-46 6-68c0 0-2-5 2-7v-7s-13-6 1-10c0 0-8-14 5-16s1 17 1 17l12 16z" class="bz"/></g><use class="p" href="#reuse-6"/><g clip-path="url(#ae)"><path d="M4033 1192s10 70 26 133l3 67s10 10 6 18-6 31-10 167l-27-250-6-125zm55 482s-2-60 2-100c0 0 7-27 4-54l2-51s-12 3-6-37c0 0 11-31 4-56 0 0-2-5 6-39l4-61s-9-16 5-23l18-48 5 29s-25 42-6 90l-7 329z" class="bz"/></g><use class="q" href="#reuse-7"/><g clip-path="url(#ag)"><path d="M3743 1164s-36-7-39 46l4 16-20 58s53 17-5 105c0 0-2 12 15 12 0 0-13 22-2 79 0 0-13 23-7 34 0 0-24 5-4 19 0 0-11 31-8 47s21 30-11 94 59-32 59-32z" class="bz"/><path d="m3633 1360 21-7s-11 37 0 99-9 26 11 143-90-24-90-24z" class="bz"/></g><use class="r" href="#reuse-8"/><g clip-path="url(#ai)"><path d="M4283 1283s20 4 12 37c0 0 4 92-12 103zm22 272s11-45 6-69c0 0-1-19 7-28 0 0 0-42 11-55 0 0-10-35 9-36 0 0-19-22-6-50 0 0 4-6-9-11 0 0-10-39 4-37l28 20-10 203z" class="bz"/></g><path d="m3116 961-5-6-6-6-5-6-2-3-3-4-18-26-15-29-11-31-5-32-2-32 1-32-3-15-6-14 1-1 10 13 3 8 2 8q3 17 2 33l1 31 4 31 9 31 13 29q15 28 36 52z"/><path fill="url(#n)" d="m2729 998 43-18c59-27 136-75 158-79 0 0 14-6 33 0s413 94 413 94l261 60 182 45 224 62 66 21s148 45 283 103l45 22-83-18-329-83s-150-40-418-81-299-39-299-39l-257-19-94-2c-29 0-76-17-76-17z"/><g clip-path="url(#ak)"><path fill="url(#al)" d="M2738 996s60-6 101-4c0 0 298 28 336 36s322 50 378 65 201 37 423 89 449 126 449 126l-53-99-1458-363z"/></g><path fill="none" stroke="#000" stroke-miterlimit="10" stroke-width="4" d="m2729 998 43-18c59-27 136-75 158-79 0 0 14-6 33 0s413 94 413 94l261 60 182 45 224 62 66 21s148 45 283 103l45 22-83-18-329-83s-150-40-418-81-299-39-299-39l-257-19-94-2c-29 0-76-17-76-17z"/><use class="f" href="#reuse-9"/><g clip-path="url(#an)"><path d="M972 1733s21 29 30 9c0 0 2-52 34-59 0 0 7 21 17 10s15-141 15-141 14-57 71-37l-3-77-126 100zm182-22s-18 19-58 2c0 0-41 28 22 75 0 0-3 28 19 26s35-22 35-22 15 10 18 22c0 0 16 12 21-20l15-24s14 66 55 32 59-139 125-73l56-53zm345 82s-51 51-3 34 38-61 107-45l-10-46zm109-30s-5 35 1 40 32 35 47 79c0 0 30 26 38-32 0 0 28 30 25-83zm126-12s3 60 27 61 3-128 56-146-46-56-46-56z" class="ck"/><path d="M1841 1660s-15 47 0 53 57-78 30-155c0 0-31 2-18-38s120-49 120-49l-188-10z" class="ck"/><path d="M446 1497s7-59 53-23c0 0 77 292-13 270-28-7-12-74-12-74s-37-33-37-101c0 0-58-30 9-72" class="j"/><ellipse cx="590.9" cy="1787.4" class="j" rx="27.6" ry="47.5" transform="rotate(-7 594 1795)"/><ellipse cx="695.7" cy="1756.9" class="j" rx="22.5" ry="47.5" transform="rotate(-7 700 1764)"/><ellipse cx="943" cy="1733" class="j" rx="47.5" ry="50.5"/><ellipse cx="853" cy="1817.5" class="j" rx="46" ry="13.5" transform="rotate(-86 853 1818)"/><ellipse cx="822" cy="1755.5" class="j" rx="31.5" ry="67"/></g><ellipse cx="1571.5" cy="1955.5" class="ck" rx="11" ry="17"/><ellipse cx="1921.5" cy="1809.5" class="ck" rx="18" ry="12" transform="rotate(-85 1920 1809)"/><ellipse cx="1900.5" cy="1795.4" class="ck" rx="6.7" ry="4.5" transform="rotate(-56 1899 1795)"/><ellipse cx="1404" cy="2361" class="j" rx="15.6" ry="12" transform="rotate(-70 1405 2362)"/><path d="M1385 2257s-47 49-14 81 62-58 59-84c-4-29-44-50-45 3" class="j"/><ellipse cx="561.5" cy="2079.5" class="j" rx="28.8" ry="40.5" transform="rotate(-15 561 2077)"/><ellipse cx="608.5" cy="2109.5" class="j" rx="14.9" ry="18.3" transform="rotate(-15 607 2107)"/><ellipse cx="785.5" cy="1373" class="g" rx="38.9" ry="21" transform="rotate(-80 785 1373)"/><g clip-path="url(#ao)"><ellipse cx="776.3" cy="1359.8" class="h" rx="38.9" ry="21" transform="rotate(-80 776 1360)"/></g><ellipse cx="572.8" cy="1687" class="g" rx="27.4" ry="19.7" transform="rotate(-80 573 1687)"/><g clip-path="url(#ap)"><ellipse cx="563.7" cy="1677.2" class="h" rx="27.4" ry="19.7" transform="rotate(-80 563 1677)"/></g><ellipse cx="1493.4" cy="1530.4" class="g" rx="18.2" ry="17.5" transform="rotate(-46 1493 1530)"/><g clip-path="url(#aq)"><ellipse cx="1486" cy="1521.5" class="h" rx="17.9" ry="23.3" transform="rotate(-30 1487 1522)"/></g><ellipse cx="832.5" cy="1433.5" class="g" rx="21" ry="13" transform="rotate(-83 833 1434)"/><g clip-path="url(#ar)"><ellipse cx="829.5" cy="1431.5" class="h" rx="21" ry="13" transform="rotate(-83 830 1432)"/></g><ellipse cx="271.3" cy="1474.8" class="h" rx="11.7" ry="7.4" transform="rotate(-83 272 1475)"/><g clip-path="url(#as)"><ellipse cx="278.6" cy="1483.7" class="g" rx="7.4" ry="11.7"/></g><ellipse cx="803.5" cy="1464.5" class="h" rx="11" ry="9" transform="rotate(-67 802 1464)"/><ellipse cx="1323" cy="514" class="cq" rx="41.5" ry="47.5"/><circle cx="1359.5" cy="478.5" r="20" class="cq"/><ellipse cx="1588.5" cy="547.5" class="cq" rx="27" ry="22" transform="rotate(-79 1595 548)"/><ellipse cx="1615.5" cy="506.5" class="cq" rx="12" ry="10" transform="rotate(-79 1615 507)"/><ellipse cx="1254.5" cy="1017.5" class="i" rx="17" ry="22"/><g clip-path="url(#at)"><ellipse cx="1247" cy="999.5" class="cq" rx="18.5" ry="23"/></g><path fill="url(#au)" d="m660 597 14-20q8-7 9-15c-1-23 14-36 29-49l59-45 9-12c14-1 5-13-11-19-4-13 3-22 11-30q33-33 78-45 24-8 50-13c17 20 33 18 40-7a146 146 0 0 1 28-52q5-10 12-18c23-24 49-46 70-73q47-59 121-73l53-5c22-3 152-10 188-38l18-12q29-12 57-21l72-14 18-2q49 5 97 12c16 2 33 4 45 16 4 3 19 29 33 23l10-1h-1q47-2 81 30a78 78 0 0 1 29 15q14 3 25 9 37 24 71 50 2 1 7 10l-15-5q-9-3-16-8c-49-43-108-45-169-39a152 152 0 0 1-45-2c-8 25-21 48-17 78 7 56-45 102-96 88q-17-5-29-17c-3-9-22-40-31-50l-3-7v-2c-5-48-5-48-54-41-40 6-49 15-54 54-3 30-28 42-54 24-7-5-12-13-23-14q-15 19-39 27-42 18-75-14c-19-20-22-20-47-8q-25 14-54 4c-4-2-9-5-15-1-2 17 15 22 22 32q10 10 24 13c13 3 27 7 35 21-4 18-19 22-35 23-22 3-45-4-67-3q-11-1-26 1c4 14-4 22-14 26-31 14-37 36-31 67s-10 51-43 52l-10-6c-16-16-15-16-32-22-2-9-3-18 6-24 6-7 1-16 3-23s4-15 3-25q-19 13-31 30-18 26-46 39c-26 14-54 6-66 16-50 42-106 75-160 112-6 3-11 8-18 3"/><path fill="url(#av)" d="M1149 822q1-13 7-22 24-23 52-42 24-15 52-8 19 4 33-8 21-18 49-17l14-1c14-6 25 0 34 10q6 6 15 5l69-2q40 0 58 35 4 3 3 9-4 18 15 20 23 7 34 31c-3 8-13 16 2 23l29 19q21 11 25 33c6 13 2 30 18 37q21 8 20 29c-22-3-38-17-54-30-9-8-5-22 2-36-39-16-72-43-108-63l-21-6c-7-1-16-3-20 5s4 13 10 17c7 5 0 9-1 14q-5 4-9 2c-23-10-48-7-72-11q-4 5-6 12c-8 34-35 54-69 52q-11 1-17-8l-6-18c-3-5 0-11-4-17-20 0-39 11-59 11-16-8-11-21-10-34-4-6-7-14-16-13s-11 8-13 15c-9 27-27 50-31 79-3 17-17 20-29 7-7-9-14-13-22-2-7 9-15 8-25 7q-23-5-19 19l13 7c6 6 8 12-4 12q-4 1-8-1c-46-20-84-5-121 24-3 2-7 6-12 3l3-9 48-57 5-2c13-7 24-15 21-33q0-7 8-11l1-1 85-35c24 0 28-33 31-50"/><path fill="url(#aw)" d="M2654 376c58-16 110-6 152 39l7 7q13 17 32 8l13-3q17-2 32 1l2 1c20 6 14 29 23 41 9 2 11-6 16-9h16c6 7 0 16 4 25 12-12 1-30 13-41q8 1 12 4l24 33q10 17 10 37c1 25 4 28 29 34 37 2 63 32 59 68q-10-2-12-12-20-33-59-34-22 0-46-3c-7 19-8 37-14 55s-13 20-32 16q-11-15-11-33v-22c0-9-8-12-15-14q-33-9-31-44c0-10-27-22-40-27-25-10-43-24-51-52-3-11-23-7-20-1 10 23 3 40-12 57s-32 21-54 16c-28-5-41-29-61-43q-8-5-14-12l-3-12c-11-14-19-31-39-35-13 4-13 4-9 20-16 10-29 0-39-11s-20-28-41-18h-4c-25-19-57-16-85-24l-2-3q9-13 20-23 7-4 17-4l63 4 42 3c10 0 20 2 30-5q12-8 20 6c10 6 11 22 23 24s20-12 31-15z"/><path fill="url(#ax)" d="M264 1047q4-10 10-18l65-68q13-11 29-20c4 8-1 13-5 18q-19 28-43 52c5 18-1 37 11 53 14 7 13 21 15 34q-3 8-4 17c-7 23-14 28-38 22q-11 30 0 59 8 20 9 39c-1 9-3 18-16 13l3 57c2 11 1 23-13 28l-7-13-4-47c0-5 1-11-7-12-11-9-6-20-7-31 2 35-2 70 2 104q4 21-2 41-5 20-23 14-5-10-7-20l-2-27c-10 4-7 15-10 23-4 13 1 30-17 37l-2-47 3-35q9-8 4-20c0-29-3-58 8-86 6-18 12-37 28-50 20-5 22-9 20-30l-7-48q-3-13 2-23c4-5 1-11 5-16"/><path d="M1168 297c-20-3-27-18-33-34q12-12 24-4c18 11 36 7 53-1l4-2c24-14 29-13 48 8 21 23 41 27 71 15l16-7q20-5 18-26 19 5 29 18c11 13 25 10 39 8q11-5 11-17l3-26q6-34 39-39l45-6q24-2 30 22v27l-4 3c-13-19-15-20-36-13l-17 4q-25 4-36 27-17 39-59 28-20-6-38 3l-17 7q-37 15-74-1-28-11-55-1-30 12-61 7" class="i"/><path d="M1236 1400c-9-1-10-8-12-14l-6-28c-18-5-21-19-22-36v-21c1-7 2-18 5-25 11-23 31-40 51-54 18-12 39-2 46 18l14 37q8 30-8 57c-13 19-31 17-49 8-11 10-8 22-9 34-2 9 3 20-10 24" class="cq"/><path d="m1595 293 13 3c34 22 70 14 91-20 13-21 22-42 14-68a24 24 0 0 1 0-14l22-63c13 17 30 12 45 9q36-7 71 1l6 1c35-7 60 15 86 30q13 9 24 21-17-5-32-13a83 83 0 0 0-46-15l-42-3q-29-6-56 6-12 5-25 8-29 9-32 38l-4 40q-10 79-91 76-14 1-24-11c-10-12-19-13-20-26M660 597l12-6 87-56q42-29 81-61 9-11 14-26l8-19 5 26q6 20 24 12c18-8 22-11 31-18 12-10 26-19 30-36q1-3 4-4l31-26q1 32-9 61l-3 1q0-13-10-7-10 9-23 9a23 23 0 0 0-21 15c-9 27-31 32-54 32q-21-2-37 10l-35 25q-26 19-54 34-53 26-98 65l-17 13h-6c5-15 20-21 27-33q3 0 4-4l4-3zm1980-117c11-5 17 5 21 10 11 18 27 24 46 29q23 6 38-10 9-8 16-20 12-16 2-36c-10-20-8-23-13-36 27 8 39 18 45 41q7 23 29 33l34 15 8-20q13 3 14 15l3 36c1 20 5 25 24 31q13 4 22 10c9 6 3 10-5 10l-38-14q-13-4-18-19-4-10-11-18a61 61 0 0 0-44-32c-5 0-9-6-14-10l-18-14-4 13c-8 29-43 57-80 37q-35-17-57-51m-1629 17 18-8q25-10 22-37l-4-28c-6-17 2-28 15-37l36-24-14-11c7-9 16-8 24-7l76 4q27 2 43-18l15 1a79 79 0 0 1-61 33h-39q-21 0-37 13l-28 22q-15 10-14 28c1 18 3 27 2 40-3 28-27 40-54 29m476 364-9-4c-5-5-9-12-4-18 3-4 12-9 16-7q26 6 48 18l50 33 35 18 13 13-2 4-9-3v25l53 33-3 7q-3 3-5 0c-33-21-73-32-101-62 5-6 9-2 14-1l23 11q4 1 6-2v-2c6-11-2-17-10-20-27-9-49-27-73-42q-17-10-36-18l-16-3zM287 1333c10-11 8-23 7-36l-3-69 4-1 8 21q4-7 4-11-2-20-8-38c-12-26-4-50-2-76l6 2c18 18 24 16 33-7l10-20c4 18-4 34-10 49-4 10-7 10-25 9q-3 20 2 40l8 39q4 22-10 37-8 10-6 22v26q0 15-14 16zm2648-690c23-3 24-3 29-25l11-53 35 4 26 1q43 4 58 44l4 7c0 7 5 13-5 19q-7-9-12-20-14-33-50-36h-47l-1 22q-2 17-6 33c-4 16-11 16-21 17s-18-2-21-13m-531-258 55 4q7 2 14 7l27 15 9-18 26 28q15 21 40 20l5 3 6 3 10 5 3 2c6 5 11 10 3 18a120 120 0 0 0-52-18q-17-1-29-16c-12-15-15-13-26-16q-19-5-39-14c-9-4-19 2-28-3-4-4-9-1-12-4h-1q-3-3-8-4c-4-3-8-6-3-12M1313 921q14 7 29 1l11-3c33-10 33-10 42-44l8-25h4l7 13 3 1q30-7 57 8l12 2 15 12-2 2q-9-1-18-5c-19-7-39-6-59-5q-14 0-16 13c-10 40-32 47-66 48q-20 2-27-18m125-850c-47 53-108 63-175 56l-31-6 13-4q98-8 188-44zm-359 904c-5-3-11-5-9-13s13-13 21-13l9 3 10 4 14-17q10-12 19 1l11 16c13 0 17-9 17-18q0-18 9-32l22-49c3-7 7-15 16-15s17 8 20 18l-4 3q-11-5-17 6c-12 23-29 44-33 72-2 18-18 25-35 18l-15-3-26 1q-21-3-29 18m-132 45 11-8q19-22 47-27h4c28-13 54-7 80 6h5l-2-9q13 5 7 17c-6 12-10 8-17 6l-13-4q-28-12-57-2c-25 7-51 13-69 36l-4-4zm289 380 4-24q1-16 4-31 3-9 11-12c8-3 8 7 14 11q35 2 39-36l4-31c10 20 7 55-8 70q-15 19-35 1l-5-3c-10 5-7 14-8 21l-4 31q-3 6-10 9zm-997-11c15-5 19-8 20-25q1-32-2-64l-1-6q3-31-1-62 1-8 7-16h14q-12 23-7 45l3 93q2 12 1 24c-1 12-5 16-14 20s-16-2-20-9" class="i"/><path d="M1340 1336q-19-12-8-31c11-19 17-19 27-16q19 7 18 37l10 5c6 6 6 17 0 22s-13 5-19-2l-14-11q0-4 5-8c-7 2-13 6-19 4" class="cq"/><path d="m259 1064 10 69q2 12 0 23-5 24-26 8a299 299 0 0 1 13-99l2-2zm72 0q-18-17-13-44l-11-9c29-17 44-44 61-70 10-5 11 3 9 9s-7 11-11 16l-20 25a89 89 0 0 0-15 73m645-774-1 4q-18 27-25 59c-4 14-19 19-32 15q-13-5-10-19l3-1q4-3 10-4 23-10 36-32 8-12 19-22m173 532c4 30 7 59-10 87l-9 10c-13-17 3-26 9-38l-22-9 2-3c17-11 24-29 30-47m-946 580c11-11 10-26 12-39s8-26 19-36l-4 15-5 27a255 255 0 0 1-17 59c-15-8-5-18-5-26" class="i"/><path d="M2764 609q-13-28 19-40l18 15 2 6q6 21-14 29-17 6-25-10" class="cq"/><path d="m769 437 3-4h29l15-2q7 1 10 6c3 5-1 8-4 10l-33 16q-4-1-9-6zm2270 116q-32 10-35-23l-4-48 22 48zM1244 897c14-6 28-14 45-13q6-2 15-11 12 14 3 30c-17-3-34-7-52-2q-5 0-11-4m1410-521-23 18c-11 8-16 7-23-4l-12-24q5 0 9 2c15 10 32 10 49 8m277 85-1 8c-4 4-8 10-12 10s-8-7-11-11l-2-10c1-12-6-21-13-29q16 3 25 17zm33-16-1 29c-1 9-3 19-14 25-10-13-4-26-2-39l3-12q5-10 14-3M1032 909q-4 8-4 16c1 18-2 24-19 27h-6q-3-33 29-43m-732 472q14 5 12 18-2 16-8 31c-6 15-9 8-18-1 4-16 5-33 14-48m2464-772 9 5q25 8 27-18l-1-11q7-2 8 4 5 16-4 28c-9 12-14 11-23 9s-16-6-16-17" class="i"/><path d="m2807 589-8-4h1c-9-9-10-21-13-33 11-7 16-7 24 0s10 17 5 24z" class="cq"/><path d="M1760 85q-4 5-10 9-11 8-17-6c-6-14-4-17-5-26z" class="i"/><path d="M300 1381c0 17 2 35-13 48-14-18-7-41 13-48" class="cq"/><path d="M2584 421q7-3 12-1c16 6 23 21 27 36zM1550 801c-6 3-13 7-18 0q-3-6-2-16l2-13zm36 54h-11q-12-6-3-16l12-7c11 6 4 15 2 23m1202-303c10 9 11 21 12 33q-17 0-17-16zM1658 944c-17-5-17-6-18-21v-16l4 4q3 19 14 33m-318 392 29-15q6 7-1 13c-7 6-9 4-14 6zm539-1207-29-15c14-4 22 4 29 15" class="i"/><path d="M1612 931c-14 4-22-5-29-14l30 6q1 5-1 8" class="cq"/><path d="M208 1300c6 12 6 15-4 20zM1769 85h1v-2zm-736 822a1 1 0 0 0-2 2zm649-679q-10 10-17 13c-21 6-42 14-67 16q4-9 7-12c17-19 40-21 64-23zm-130-67q-5-4-8-12c-1-7 7-15 14-16q10 0 12 8c2 8-9 19-18 20M240 1207l-4 12c-1 1-6 0-7-1q-5-11 11-11m62-119-2 11-7-1 2-11zm935 194c9 10 7 17 3 23q-4 6-10 5-8-3-4-13c4-10 7-8 11-15" class="i"/><use class="j" href="#reuse-10"/><g clip-path="url(#ay)"><path d="M1629 1552c12-7 14-17 15-28s-1-20-12-25c-2-2-6-21-6-21l64-3-69 160-47-11 16-29q7-17 11-32c5-20 9-22 28-11" class="cx"/></g><ellipse cx="1573" cy="1479" class="g" rx="18.5" ry="14.5" transform="rotate(-80 1575 1487)"/><circle cx="1561.5" cy="1499.5" r="9" class="g"/><circle cx="1582.5" cy="1481.5" r="11" class="h"/><use class="j" href="#reuse-11"/><g clip-path="url(#az)"><path d="M667 1719s-44-3-51-12c10-10 22-28 31-38s15-25 17-39l5-43-27-10q-12-4-10-16l3-12c3-12-1-41-13-56 15 5 100 17 100 17zm-56-132c-49 28-55-73-11-56-1 18-5 32 11 56" class="cx"/></g><ellipse cx="208.5" cy="1547.5" class="g" rx="29" ry="17" transform="rotate(-75 208 1547)"/><use class="g" href="#reuse-12"/><g clip-path="url(#ba)"><path d="M236 1568s17-29 32 0c0 0-8 37-3 51s-11 44-19 38-40 3-22-58c0 0 5-27 12-31" class="h"/></g><path d="M2354 1606s8 17 24-4 11-66-24-65c0 0-18-1 0 69" class="ck"/><path d="m1595 2344 16 3h42l4-1 4-1a219 219 0 0 0 63-20l7-4 8-4 7-5 3-2 4-2 13-10 7-5 6-5 4-2 3-3 6-5 7-6 6-5 6-6 7-5 12-12 1 1-21 27-6 6-6 6-6 6-3 3-3 3-7 5-7 6-7 4-7 5-4 2-4 2-7 4-8 4-8 4-32 12-33 6-5 1h-12l-34-2-17-4zm319-90 11-16 5-8 5-8q10-16 16-34l5-19 1-4 1-5v-10a106 106 0 0 0-6-37l1-1a107 107 0 0 1 8 38v15l-1 5-4 19-7 19-9 17-3 4-2 4-6 8-14 14zm-520 237 12-6 12-5 11-6 11-6 20-17 8-10 1-3 2-2 3-6-5 12-7 11-9 10-10 9-11 7-12 6-13 4-13 3zm-964-238a455 455 0 0 0 37 90l13 21 4 5 3 4 4 5 4 4 3 3 2 2 4 4 5 4 5 3 21 12-23-9-20-15-17-19-7-10q-4-5-6-11l-11-22a283 283 0 0 1-16-47zm-123-238-2 1-1 2-1 1-1 1-1 1-4 8-2 4-1 1v2l-2 4-1 4-1 4-1 5-2 8-1 8-1 9-1 4v4l-1 8v17l-1 9v8l-1 18h-1l-2-17-1-3v-32l2-9 1-8 1-9 2-8 2-8 2-4 1-5 2-4 2-4 1-2 1-1 2-4 4-7 6-7zm-92 5-7-4-6-6-9-14-4-16-2-16v-33l4-32h1l-2 40v8l1 8v4l1 4 3 16 4 15 7 14 4 6 6 5z"/><ellipse cx="714.7" cy="2027.3" class="l" rx="18.7" ry="27" transform="rotate(-3 706 2004)"/><use class="l" href="#reuse-13"/><g clip-path="url(#bb)"><path d="m645 1890 3 21 1 21-2 21-4 21-7 20-10 18-7 9-2 2-1 2-4 4-17 12 14-15 4-4 1-2 1-2 3-4 3-5 9-18 1-5 2-5 1-2v-2l2-5 7-41 1-20z"/></g><use class="l" href="#reuse-14"/><g clip-path="url(#bc)"><path d="m645 1890 3 21a210 210 0 0 1-1 42l-4 21-7 20-11 19-6 8-2 2-1 2-4 4-17 12 14-14 3-5 2-1 1-3 3-4 3-4 8-19 2-4 2-5 1-3v-2l2-5 7-40z"/></g><path fill="#7894a3" d="M1948 1635c-33-10-90 61 3 136s29-127-3-136"/><ellipse cx="2475" cy="781" rx="32.5" ry="16.5" transform="rotate(-30 2476 779)"/></svg>