<?xml version="1.0" encoding="utf-8"?>
<!-- Generator: Adobe Illustrator 27.6.1, SVG Export Plug-In . SVG Version: 6.00 Build 0)  -->
<svg version="1.1" id="Layer_1" xmlns="http://www.w3.org/2000/svg" xmlns:xlink="http://www.w3.org/1999/xlink" x="0px" y="0px"
	 viewBox="0 0 14 16" style="enable-background:new 0 0 14 16;" xml:space="preserve">
<style type="text/css">
	.st0{fill:#666666;}
</style>
<path class="st0" d="M0,1v14h14V1H0z M0.7,7.2L0.7,7.2L0.7,7.2L0.7,7.2z M2.9,12.8v-0.6c0-0.1,0-0.1,0.1-0.1c0.2,0,0.4,0,0.6-0.1
	C4,12,4.2,11.8,4.3,11.4c0-0.1,0-0.3,0-0.4V5c0-0.2,0-0.3,0-0.5c0-0.3-0.2-0.4-0.5-0.5C3.6,3.9,3.3,3.9,3.1,3.9H2.9V3.3
	c0-0.1,0-0.1,0.1-0.1h4.7c0.1,0,0.1,0,0.1,0.1c0,0.2,0,0.3,0,0.5v0.1c-0.1,0-0.3,0-0.4,0C7.2,3.9,7,3.9,6.9,4
	C6.5,4.1,6.4,4.3,6.4,4.6c0,0.1,0,0.3,0,0.4v5.7c0,0.2,0,0.5,0.1,0.7c0,0.3,0.2,0.4,0.4,0.5C7,12,7.2,12,7.4,12c0.6,0,1.1,0,1.7-0.1
	c0.8-0.2,1.3-0.7,1.6-1.5c0.1-0.3,0.1-0.5,0.2-0.8c0,0,0-0.1,0-0.1h0.6c0,1.1,0,2.1,0,3.2C8.6,12.8,5.7,12.8,2.9,12.8L2.9,12.8z"/>
</svg>
